<svg width="48" height="48" viewBox="0 0 48 48" fill="none" xmlns="http://www.w3.org/2000/svg">
<path d="M24.0569 44.8596C23.8532 44.8596 23.6578 44.7787 23.5138 44.6347C23.3698 44.4907 23.2889 44.2953 23.2889 44.0916V28.1088H11.1161C10.9825 28.1087 10.8513 28.0737 10.7354 28.0074C10.6195 27.941 10.5229 27.8456 10.4551 27.7305C10.3873 27.6155 10.3508 27.4847 10.3489 27.3512C10.3471 27.2176 10.3802 27.086 10.4448 26.9691L23.3856 3.53703C23.4679 3.38789 23.5975 3.27034 23.7539 3.2029C23.9104 3.13545 24.0848 3.12193 24.2497 3.16445C24.4147 3.20698 24.5608 3.30314 24.6651 3.43781C24.7695 3.57247 24.8261 3.738 24.826 3.90835V19.8912H36.9988C37.1324 19.8913 37.2636 19.9262 37.3796 19.9925C37.4956 20.0588 37.5922 20.1542 37.66 20.2693C37.7279 20.3844 37.7645 20.5152 37.7663 20.6487C37.7681 20.7823 37.7351 20.914 37.6704 21.0309L24.7296 44.463C24.6632 44.5832 24.5658 44.6834 24.4474 44.7532C24.3291 44.823 24.1942 44.8597 24.0569 44.8596ZM12.417 26.5728H24.0569C24.2605 26.5728 24.4559 26.6537 24.5999 26.7977C24.7439 26.9418 24.8249 27.1371 24.8249 27.3408V41.113L35.6971 21.4272H24.0569C23.8532 21.4272 23.6578 21.3463 23.5138 21.2023C23.3698 21.0582 23.2889 20.8629 23.2889 20.6592V6.88743L12.417 26.5728Z" fill="#111827"/>
</svg>
