<svg width="48" height="48" viewBox="0 0 48 48" fill="none" xmlns="http://www.w3.org/2000/svg">
<path d="M4.5 33.75C4.39367 33.75 4.28857 33.7273 4.19166 33.6836C4.09475 33.6398 4.00825 33.576 3.93789 33.4963C3.86754 33.4166 3.81493 33.3228 3.78357 33.2212C3.75221 33.1196 3.74282 33.0125 3.756 32.907L4.40025 27.75H2.25C1.65326 27.75 1.08097 27.5129 0.65901 27.091C0.237053 26.669 0 26.0967 0 25.5L0 9C0 8.40326 0.237053 7.83097 0.65901 7.40901C1.08097 6.98705 1.65326 6.75 2.25 6.75H27.75C28.3467 6.75 28.919 6.98705 29.341 7.40901C29.7629 7.83097 30 8.40326 30 9V12.75C30 12.9489 29.921 13.1397 29.7803 13.2803C29.6397 13.421 29.4489 13.5 29.25 13.5C29.0511 13.5 28.8603 13.421 28.7197 13.2803C28.579 13.1397 28.5 12.9489 28.5 12.75V9C28.5 8.80109 28.421 8.61032 28.2803 8.46967C28.1397 8.32902 27.9489 8.25 27.75 8.25H2.25C2.05109 8.25 1.86032 8.32902 1.71967 8.46967C1.57902 8.61032 1.5 8.80109 1.5 9V25.5C1.5 25.6989 1.57902 25.8897 1.71967 26.0303C1.86032 26.171 2.05109 26.25 2.25 26.25H5.25C5.35633 26.25 5.46143 26.2727 5.55834 26.3164C5.65525 26.3602 5.74175 26.424 5.81211 26.5037C5.88246 26.5834 5.93507 26.6772 5.96643 26.7788C5.99779 26.8804 6.00718 26.9875 5.994 27.093L5.4915 31.1152L10.752 26.439C10.8893 26.3172 11.0665 26.2499 11.25 26.25H16.5C16.6989 26.25 16.8897 26.329 17.0303 26.4697C17.171 26.6103 17.25 26.8011 17.25 27C17.25 27.1989 17.171 27.3897 17.0303 27.5303C16.8897 27.671 16.6989 27.75 16.5 27.75H11.535L4.998 33.561C4.86072 33.6828 4.68353 33.7501 4.5 33.75Z" fill="#111827"/>
<path d="M43.5 41.25C43.3165 41.2501 43.1393 41.1828 43.002 41.061L36.465 35.25H20.25C19.6533 35.25 19.081 35.0129 18.659 34.591C18.2371 34.169 18 33.5967 18 33V16.5C18 15.9033 18.2371 15.331 18.659 14.909C19.081 14.4871 19.6533 14.25 20.25 14.25H45.75C46.3467 14.25 46.919 14.4871 47.341 14.909C47.7629 15.331 48 15.9033 48 16.5V33C48 33.5967 47.7629 34.169 47.341 34.591C46.919 35.0129 46.3467 35.25 45.75 35.25H43.5998L44.244 40.407C44.2572 40.5125 44.2478 40.6196 44.2164 40.7212C44.1851 40.8228 44.1325 40.9166 44.0621 40.9963C43.9918 41.076 43.9052 41.1398 43.8083 41.1836C43.7114 41.2273 43.6063 41.25 43.5 41.25ZM20.25 15.75C20.0511 15.75 19.8603 15.829 19.7197 15.9697C19.579 16.1103 19.5 16.3011 19.5 16.5V33C19.5 33.1989 19.579 33.3897 19.7197 33.5303C19.8603 33.671 20.0511 33.75 20.25 33.75H36.75C36.9335 33.7499 37.1107 33.8172 37.248 33.939L42.5085 38.6152L42.006 34.593C41.9928 34.4875 42.0022 34.3804 42.0336 34.2788C42.0649 34.1772 42.1175 34.0834 42.1879 34.0037C42.2582 33.924 42.3448 33.8602 42.4417 33.8164C42.5386 33.7727 42.6437 33.75 42.75 33.75H45.75C45.9489 33.75 46.1397 33.671 46.2803 33.5303C46.421 33.3897 46.5 33.1989 46.5 33V16.5C46.5 16.3011 46.421 16.1103 46.2803 15.9697C46.1397 15.829 45.9489 15.75 45.75 15.75H20.25Z" fill="#111827"/>
<path d="M21.75 12.75H4.5C4.30109 12.75 4.11032 12.671 3.96967 12.5303C3.82902 12.3897 3.75 12.1989 3.75 12C3.75 11.8011 3.82902 11.6103 3.96967 11.4697C4.11032 11.329 4.30109 11.25 4.5 11.25H21.75C21.9489 11.25 22.1397 11.329 22.2803 11.4697C22.421 11.6103 22.5 11.8011 22.5 12C22.5 12.1989 22.421 12.3897 22.2803 12.5303C22.1397 12.671 21.9489 12.75 21.75 12.75Z" fill="#111827"/>
<path d="M15 15.75H4.5C4.30109 15.75 4.11032 15.671 3.96967 15.5303C3.82902 15.3897 3.75 15.1989 3.75 15C3.75 14.8011 3.82902 14.6103 3.96967 14.4697C4.11032 14.329 4.30109 14.25 4.5 14.25H15C15.1989 14.25 15.3897 14.329 15.5303 14.4697C15.671 14.6103 15.75 14.8011 15.75 15C15.75 15.1989 15.671 15.3897 15.5303 15.5303C15.3897 15.671 15.1989 15.75 15 15.75Z" fill="#111827"/>
<path d="M15 19.5H4.5C4.30109 19.5 4.11032 19.421 3.96967 19.2803C3.82902 19.1397 3.75 18.9489 3.75 18.75C3.75 18.5511 3.82902 18.3603 3.96967 18.2197C4.11032 18.079 4.30109 18 4.5 18H15C15.1989 18 15.3897 18.079 15.5303 18.2197C15.671 18.3603 15.75 18.5511 15.75 18.75C15.75 18.9489 15.671 19.1397 15.5303 19.2803C15.3897 19.421 15.1989 19.5 15 19.5Z" fill="#111827"/>
<path d="M9.75 23.25H4.5C4.30109 23.25 4.11032 23.171 3.96967 23.0303C3.82902 22.8897 3.75 22.6989 3.75 22.5C3.75 22.3011 3.82902 22.1103 3.96967 21.9697C4.11032 21.829 4.30109 21.75 4.5 21.75H9.75C9.94891 21.75 10.1397 21.829 10.2803 21.9697C10.421 22.1103 10.5 22.3011 10.5 22.5C10.5 22.6989 10.421 22.8897 10.2803 23.0303C10.1397 23.171 9.94891 23.25 9.75 23.25Z" fill="#111827"/>
<path d="M25.5 12.75H24C23.8011 12.75 23.6103 12.671 23.4697 12.5303C23.329 12.3897 23.25 12.1989 23.25 12C23.25 11.8011 23.329 11.6103 23.4697 11.4697C23.6103 11.329 23.8011 11.25 24 11.25H25.5C25.6989 11.25 25.8897 11.329 26.0303 11.4697C26.171 11.6103 26.25 11.8011 26.25 12C26.25 12.1989 26.171 12.3897 26.0303 12.5303C25.8897 12.671 25.6989 12.75 25.5 12.75Z" fill="#111827"/>
<path d="M33 25.5C32.4067 25.5 31.8266 25.3241 31.3333 24.9944C30.8399 24.6648 30.4554 24.1962 30.2284 23.6481C30.0013 23.0999 29.9419 22.4967 30.0576 21.9147C30.1734 21.3328 30.4591 20.7982 30.8787 20.3787C31.2982 19.9591 31.8328 19.6734 32.4147 19.5576C32.9967 19.4419 33.5999 19.5013 34.1481 19.7284C34.6962 19.9554 35.1648 20.3399 35.4944 20.8333C35.8241 21.3266 36 21.9067 36 22.5C36 22.6989 35.921 22.8897 35.7803 23.0303C35.6397 23.171 35.4489 23.25 35.25 23.25C35.0511 23.25 34.8603 23.171 34.7197 23.0303C34.579 22.8897 34.5 22.6989 34.5 22.5C34.5 22.2033 34.412 21.9133 34.2472 21.6666C34.0824 21.42 33.8481 21.2277 33.574 21.1142C33.2999 21.0007 32.9983 20.9709 32.7074 21.0288C32.4164 21.0867 32.1491 21.2296 31.9393 21.4393C31.7296 21.6491 31.5867 21.9164 31.5288 22.2074C31.4709 22.4983 31.5007 22.7999 31.6142 23.074C31.7277 23.3481 31.92 23.5824 32.1666 23.7472C32.4133 23.912 32.7033 24 33 24C33.1989 24 33.3897 24.079 33.5303 24.2197C33.671 24.3603 33.75 24.5511 33.75 24.75C33.75 24.9489 33.671 25.1397 33.5303 25.2803C33.3897 25.421 33.1989 25.5 33 25.5Z" fill="#111827"/>
<path d="M33 30C32.2044 30 31.4413 29.6839 30.8787 29.1213C30.3161 28.5587 30 27.7956 30 27C30 26.8011 30.079 26.6103 30.2197 26.4697C30.3603 26.329 30.5511 26.25 30.75 26.25C30.9489 26.25 31.1397 26.329 31.2803 26.4697C31.421 26.6103 31.5 26.8011 31.5 27C31.5 27.2967 31.588 27.5867 31.7528 27.8334C31.9176 28.08 32.1519 28.2723 32.426 28.3858C32.7001 28.4994 33.0017 28.5291 33.2926 28.4712C33.5836 28.4133 33.8509 28.2704 34.0607 28.0607C34.2704 27.8509 34.4133 27.5836 34.4712 27.2926C34.5291 27.0017 34.4994 26.7001 34.3858 26.426C34.2723 26.1519 34.08 25.9176 33.8334 25.7528C33.5867 25.588 33.2967 25.5 33 25.5C32.8011 25.5 32.6103 25.421 32.4697 25.2803C32.329 25.1397 32.25 24.9489 32.25 24.75C32.25 24.5511 32.329 24.3603 32.4697 24.2197C32.6103 24.079 32.8011 24 33 24C33.7956 24 34.5587 24.3161 35.1213 24.8787C35.6839 25.4413 36 26.2044 36 27C36 27.7956 35.6839 28.5587 35.1213 29.1213C34.5587 29.6839 33.7956 30 33 30Z" fill="#111827"/>
<path d="M33 21C32.8011 21 32.6103 20.921 32.4697 20.7803C32.329 20.6397 32.25 20.4489 32.25 20.25V18.75C32.25 18.5511 32.329 18.3603 32.4697 18.2197C32.6103 18.079 32.8011 18 33 18C33.1989 18 33.3897 18.079 33.5303 18.2197C33.671 18.3603 33.75 18.5511 33.75 18.75V20.25C33.75 20.4489 33.671 20.6397 33.5303 20.7803C33.3897 20.921 33.1989 21 33 21Z" fill="#111827"/>
<path d="M33 31.5C32.8011 31.5 32.6103 31.421 32.4697 31.2803C32.329 31.1397 32.25 30.9489 32.25 30.75V29.25C32.25 29.0511 32.329 28.8603 32.4697 28.7197C32.6103 28.579 32.8011 28.5 33 28.5C33.1989 28.5 33.3897 28.579 33.5303 28.7197C33.671 28.8603 33.75 29.0511 33.75 29.25V30.75C33.75 30.9489 33.671 31.1397 33.5303 31.2803C33.3897 31.421 33.1989 31.5 33 31.5Z" fill="#111827"/>
</svg>
