<svg width="48" height="48" viewBox="0 0 48 48" fill="none" xmlns="http://www.w3.org/2000/svg">
<path d="M25.3729 41.5673H7.20086C6.99718 41.5673 6.80183 41.4864 6.6578 41.3423C6.51377 41.1983 6.43286 41.003 6.43286 40.7993V22.6273C6.43286 22.4236 6.51377 22.2282 6.6578 22.0842C6.80183 21.9402 6.99718 21.8593 7.20086 21.8593H25.3729C25.5766 21.8593 25.7719 21.9402 25.916 22.0842C26.06 22.2282 26.1409 22.4236 26.1409 22.6273V40.7993C26.1409 41.003 26.06 41.1983 25.916 41.3423C25.7719 41.4864 25.5766 41.5673 25.3729 41.5673ZM7.96886 40.0313H24.6049V23.3953H7.96886V40.0313Z" fill="#111827"/>
<path d="M40.7992 41.5672H29.5971V40.0312H40.0312V7.9672H7.96715V18.4047H6.43115V7.20074C6.43115 6.99705 6.51207 6.80171 6.65609 6.65768C6.80012 6.51365 6.99547 6.43274 7.19915 6.43274H40.7992C41.0028 6.43274 41.1982 6.51365 41.3422 6.65768C41.4862 6.80171 41.5672 6.99705 41.5672 7.20074V40.8007C41.5667 41.0042 41.4857 41.1991 41.3417 41.3428C41.1977 41.4865 41.0026 41.5672 40.7992 41.5672Z" fill="#111827"/>
</svg>
