<svg width="48" height="48" viewBox="0 0 48 48" fill="none" xmlns="http://www.w3.org/2000/svg">
<g clip-path="url(#clip0_268_6282)">
<path d="M36.7502 48.0001H17.2502C17.0513 48.0001 16.8606 47.921 16.7199 47.7804C16.5793 47.6397 16.5002 47.449 16.5002 47.2501V37.5001H11.2502C10.256 37.4989 9.3029 37.1034 8.5999 36.4004C7.8969 35.6974 7.50143 34.7443 7.50024 33.7501V30.0001H4.68774C4.23926 30.0002 3.79943 29.8766 3.41669 29.6429C3.03395 29.4091 2.72314 29.0743 2.51849 28.6752C2.31384 28.2762 2.2233 27.8284 2.25682 27.3812C2.29034 26.9339 2.44663 26.5047 2.70849 26.1406L7.50024 17.7976C7.5319 15.3744 8.0505 12.9824 9.0252 10.7637C9.9999 8.54503 11.4108 6.545 13.174 4.88256C14.9628 3.18797 17.0832 1.88238 19.4017 1.04811C21.7202 0.213843 24.1863 -0.131006 26.6447 0.0353074C31.0468 0.352845 35.1829 2.26162 38.2807 5.40527C41.3785 8.54892 43.2264 12.7125 43.4792 17.1188C43.6002 19.4815 43.2515 21.8448 42.4534 24.0719C41.6552 26.299 40.4234 28.3458 38.8292 30.0938C37.9683 31.0478 37.4944 32.2888 37.5002 33.5738V42.7501C37.5002 42.949 37.4212 43.1397 37.2806 43.2804C37.1399 43.421 36.9491 43.5001 36.7502 43.5001C36.5513 43.5001 36.3606 43.421 36.2199 43.2804C36.0793 43.1397 36.0002 42.949 36.0002 42.7501V33.5738C35.9934 31.9154 36.6058 30.3141 37.7177 29.0836C39.179 27.4812 40.3082 25.605 41.0399 23.5636C41.7716 21.5221 42.0914 19.3559 41.9807 17.1901C41.7489 13.1514 40.0551 9.33513 37.2157 6.45382C34.3762 3.57252 30.5851 1.82313 26.5502 1.53231C24.2995 1.38878 22.0431 1.70822 19.9206 2.47088C17.7982 3.23355 15.8546 4.42325 14.2099 5.9665C12.5652 7.50976 11.2544 9.37382 10.3583 11.4435C9.46228 13.5133 9.00007 15.7447 9.00024 18.0001C9.00046 18.1316 8.96606 18.261 8.90049 18.3751L3.98799 26.9251C3.97293 26.9512 3.95614 26.9762 3.93774 27.0001C3.83327 27.1393 3.76966 27.305 3.75402 27.4784C3.73839 27.6518 3.77135 27.8261 3.84921 27.9818C3.92707 28.1375 4.04676 28.2685 4.19486 28.36C4.34297 28.4516 4.51363 28.5001 4.68774 28.5001H8.25024C8.44915 28.5001 8.63991 28.5791 8.78057 28.7197C8.92122 28.8604 9.00024 29.0511 9.00024 29.2501V33.7501C9.00024 34.3468 9.23729 34.9191 9.65925 35.341C10.0812 35.763 10.6535 36.0001 11.2502 36.0001H17.2502C17.4491 36.0001 17.6399 36.0791 17.7806 36.2197C17.9212 36.3604 18.0002 36.5511 18.0002 36.7501V46.5001H36.0002V45.7501C36.0002 45.5511 36.0793 45.3604 36.2199 45.2197C36.3606 45.0791 36.5513 45.0001 36.7502 45.0001C36.9491 45.0001 37.1399 45.0791 37.2806 45.2197C37.4212 45.3604 37.5002 45.5511 37.5002 45.7501V47.2501C37.5002 47.449 37.4212 47.6397 37.2806 47.7804C37.1399 47.921 36.9491 48.0001 36.7502 48.0001Z" fill="#111827"/>
<path d="M22.5001 29.25C22.3012 29.25 22.1104 29.171 21.9697 29.0303C21.8291 28.8897 21.7501 28.6989 21.7501 28.5V25.998C20.1865 25.3274 18.8549 24.2115 17.9213 22.7892C16.9877 21.3669 16.4934 19.7013 16.5001 18C16.5001 15.6131 17.4483 13.3239 19.1361 11.636C20.8239 9.94821 23.1131 9 25.5001 9C27.887 9 30.1762 9.94821 31.864 11.636C33.5519 13.3239 34.5001 15.6131 34.5001 18C34.511 19.309 34.2205 20.603 33.6513 21.7817C33.0821 22.9605 32.2493 23.9926 31.2173 24.798C31.1405 24.8615 31.0519 24.9091 30.9565 24.938C30.8611 24.9669 30.7609 24.9765 30.6617 24.9662C30.5626 24.9559 30.4665 24.926 30.3791 24.8781C30.2917 24.8303 30.2146 24.7655 30.1525 24.6875C30.0904 24.6096 30.0445 24.52 30.0174 24.4241C29.9903 24.3282 29.9826 24.2279 29.9947 24.1289C30.0068 24.03 30.0386 23.9345 30.088 23.848C30.1375 23.7614 30.2037 23.6856 30.2828 23.625C31.1369 22.9587 31.8263 22.1048 32.2975 21.1294C32.7687 20.154 33.0091 19.0832 33.0001 18C33.0001 16.0109 32.2099 14.1032 30.8034 12.6967C29.3968 11.2902 27.4892 10.5 25.5001 10.5C23.5109 10.5 21.6033 11.2902 20.1968 12.6967C18.7902 14.1032 18.0001 16.0109 18.0001 18C17.9997 19.4869 18.4578 20.9377 19.3119 22.1547C20.166 23.3717 21.3747 24.2958 22.7731 24.801C22.9137 24.856 23.0345 24.9521 23.1196 25.0768C23.2047 25.2015 23.2502 25.349 23.2501 25.5V27.5393L27.7501 26.4143V25.5C27.7501 25.3011 27.8291 25.1103 27.9697 24.9697C28.1104 24.829 28.3012 24.75 28.5001 24.75C28.699 24.75 28.8897 24.829 29.0304 24.9697C29.1711 25.1103 29.2501 25.3011 29.2501 25.5V27C29.2501 27.1672 29.1942 27.3296 29.0913 27.4614C28.9885 27.5932 28.8445 27.6869 28.6823 27.7275L22.6823 29.2275C22.6227 29.2424 22.5615 29.25 22.5001 29.25Z" fill="#111827"/>
<path d="M22.5002 31.5C22.3172 31.4998 22.1407 31.4327 22.0037 31.3114C21.8668 31.1901 21.7789 31.023 21.7566 30.8414C21.7343 30.6598 21.7791 30.4764 21.8826 30.3255C21.9861 30.1747 22.1412 30.0669 22.3187 30.0225L28.3187 28.5225C28.4145 28.4977 28.5142 28.4922 28.6121 28.5062C28.7101 28.5202 28.8043 28.5534 28.8894 28.604C28.9744 28.6545 29.0486 28.7214 29.1077 28.8008C29.1668 28.8802 29.2096 28.9704 29.2336 29.0664C29.2577 29.1624 29.2625 29.2622 29.2478 29.36C29.2331 29.4579 29.1992 29.5518 29.148 29.6365C29.0969 29.7212 29.0294 29.7949 28.9497 29.8534C28.8699 29.912 28.7793 29.9541 28.6832 29.9775L22.6832 31.4775C22.6233 31.4926 22.5619 31.5002 22.5002 31.5Z" fill="#111827"/>
<path d="M22.5002 33.75C22.3172 33.7498 22.1407 33.6827 22.0037 33.5614C21.8668 33.4401 21.7789 33.273 21.7566 33.0914C21.7343 32.9098 21.7791 32.7264 21.8826 32.5755C21.9861 32.4247 22.1412 32.3169 22.3187 32.2725L28.3187 30.7725C28.4145 30.7477 28.5142 30.7422 28.6121 30.7562C28.7101 30.7702 28.8043 30.8034 28.8894 30.854C28.9744 30.9045 29.0486 30.9714 29.1077 31.0508C29.1668 31.1302 29.2096 31.2204 29.2336 31.3164C29.2577 31.4124 29.2625 31.5122 29.2478 31.61C29.2331 31.7079 29.1992 31.8018 29.148 31.8865C29.0969 31.9712 29.0294 32.0449 28.9497 32.1034C28.8699 32.162 28.7793 32.2041 28.6832 32.2275L22.6832 33.7275C22.6233 33.7426 22.5619 33.7502 22.5002 33.75Z" fill="#111827"/>
<path d="M25.5 35.25C24.9033 35.25 24.331 35.0129 23.909 34.591C23.4871 34.169 23.25 33.5967 23.25 33C23.25 32.8011 23.329 32.6103 23.4697 32.4697C23.6103 32.329 23.8011 32.25 24 32.25C24.1989 32.25 24.3897 32.329 24.5303 32.4697C24.671 32.6103 24.75 32.8011 24.75 33C24.75 33.1989 24.829 33.3897 24.9697 33.5303C25.1103 33.671 25.3011 33.75 25.5 33.75C25.6989 33.75 25.8897 33.671 26.0303 33.5303C26.171 33.3897 26.25 33.1989 26.25 33V32.25C26.25 32.0511 26.329 31.8603 26.4697 31.7197C26.6103 31.579 26.8011 31.5 27 31.5C27.1989 31.5 27.3897 31.579 27.5303 31.7197C27.671 31.8603 27.75 32.0511 27.75 32.25V33C27.75 33.5967 27.5129 34.169 27.091 34.591C26.669 35.0129 26.0967 35.25 25.5 35.25Z" fill="#111827"/>
<path d="M26.2502 26.25H24.7502C24.5873 26.2499 24.4289 26.1968 24.2989 26.0987C24.1688 26.0006 24.0743 25.8628 24.0295 25.7062L22.5295 20.4562C22.4894 20.3163 22.4909 20.1677 22.5338 20.0286C22.5767 19.8895 22.6592 19.7659 22.7712 19.6729C22.8831 19.5799 23.0197 19.5215 23.1643 19.5047C23.3089 19.488 23.4552 19.5137 23.5855 19.5787C24.1859 19.8986 24.8315 20.1249 25.5002 20.25C26.169 20.1254 26.8148 19.899 27.415 19.5787C27.5452 19.5137 27.6915 19.488 27.8361 19.5047C27.9807 19.5215 28.1173 19.5799 28.2293 19.6729C28.3412 19.7659 28.4237 19.8895 28.4666 20.0286C28.5095 20.1677 28.511 20.3163 28.471 20.4562L26.971 25.7062C26.9262 25.8628 26.8316 26.0006 26.7016 26.0987C26.5715 26.1968 26.4131 26.2499 26.2502 26.25ZM25.3157 24.75H25.6847L26.6035 21.5332C26.2483 21.6592 25.8766 21.7323 25.5002 21.75C25.1238 21.7323 24.7521 21.6592 24.397 21.5332L25.3157 24.75Z" fill="#111827"/>
<path d="M25.5 7.5C25.3011 7.5 25.1103 7.42098 24.9697 7.28033C24.829 7.13968 24.75 6.94891 24.75 6.75V6C24.75 5.80109 24.829 5.61032 24.9697 5.46967C25.1103 5.32902 25.3011 5.25 25.5 5.25C25.6989 5.25 25.8897 5.32902 26.0303 5.46967C26.171 5.61032 26.25 5.80109 26.25 6V6.75C26.25 6.94891 26.171 7.13968 26.0303 7.28033C25.8897 7.42098 25.6989 7.5 25.5 7.5Z" fill="#111827"/>
<path d="M19.8748 9.00745C19.743 9.00757 19.6136 8.97298 19.4994 8.90715C19.3853 8.84132 19.2905 8.74657 19.2246 8.63245L18.8496 7.98295C18.7995 7.89762 18.7669 7.80324 18.7535 7.70524C18.7401 7.60724 18.7462 7.50756 18.7715 7.41194C18.7968 7.31631 18.8407 7.22663 18.9008 7.14806C18.9609 7.06949 19.0359 7.00358 19.1216 6.95412C19.2072 6.90467 19.3018 6.87264 19.3999 6.85989C19.498 6.84714 19.5976 6.85392 19.6931 6.87984C19.7885 6.90575 19.8779 6.95029 19.9561 7.0109C20.0343 7.0715 20.0997 7.14696 20.1486 7.23295L20.5236 7.88245C20.5894 7.9964 20.624 8.12567 20.6241 8.25725C20.6241 8.38884 20.5895 8.51812 20.5238 8.63211C20.458 8.74611 20.3635 8.8408 20.2496 8.90668C20.1356 8.97256 20.0064 9.00731 19.8748 9.00745Z" fill="#111827"/>
<path d="M15.7568 13.125C15.6251 13.1253 15.4957 13.0906 15.3818 13.0245L14.7323 12.6495C14.6464 12.6007 14.5709 12.5352 14.5103 12.4571C14.4497 12.3789 14.4051 12.2895 14.3792 12.1941C14.3533 12.0986 14.3465 11.999 14.3593 11.9009C14.372 11.8028 14.4041 11.7082 14.4535 11.6226C14.503 11.5369 14.5689 11.4619 14.6475 11.4018C14.726 11.3417 14.8157 11.2978 14.9113 11.2725C15.0069 11.2472 15.1066 11.2411 15.2046 11.2545C15.3026 11.2679 15.397 11.3005 15.4823 11.3505L16.1318 11.7255C16.2748 11.8081 16.3865 11.9355 16.4497 12.0881C16.5129 12.2406 16.524 12.4097 16.4812 12.5692C16.4385 12.7286 16.3444 12.8695 16.2134 12.9701C16.0824 13.0706 15.9219 13.125 15.7568 13.125Z" fill="#111827"/>
<path d="M14.25 18.75H13.5C13.3011 18.75 13.1103 18.671 12.9697 18.5303C12.829 18.3897 12.75 18.1989 12.75 18C12.75 17.8011 12.829 17.6103 12.9697 17.4697C13.1103 17.329 13.3011 17.25 13.5 17.25H14.25C14.4489 17.25 14.6397 17.329 14.7803 17.4697C14.921 17.6103 15 17.8011 15 18C15 18.1989 14.921 18.3897 14.7803 18.5303C14.6397 18.671 14.4489 18.75 14.25 18.75Z" fill="#111827"/>
<path d="M15.1089 24.75C14.9438 24.75 14.7833 24.6956 14.6523 24.5951C14.5213 24.4945 14.4272 24.3536 14.3844 24.1942C14.3417 24.0347 14.3528 23.8656 14.416 23.7131C14.4791 23.5605 14.5909 23.4331 14.7339 23.3505L15.3834 22.9755C15.4687 22.9255 15.5631 22.8929 15.6611 22.8795C15.7591 22.8661 15.8587 22.8722 15.9544 22.8975C16.05 22.9228 16.1397 22.9667 16.2182 23.0268C16.2968 23.0869 16.3627 23.1619 16.4122 23.2476C16.4616 23.3332 16.4937 23.4278 16.5064 23.5259C16.5192 23.624 16.5124 23.7236 16.4865 23.8191C16.4605 23.9145 16.416 24.0039 16.3554 24.0821C16.2948 24.1602 16.2193 24.2257 16.1334 24.2745L15.4839 24.6495C15.3698 24.7154 15.2405 24.75 15.1089 24.75Z" fill="#111827"/>
<path d="M35.8911 24.75C35.7595 24.75 35.6301 24.7154 35.5161 24.6495L34.8666 24.2745C34.7806 24.2257 34.7052 24.1602 34.6446 24.0821C34.584 24.0039 34.5394 23.9145 34.5135 23.8191C34.4876 23.7236 34.4808 23.624 34.4936 23.5259C34.5063 23.4278 34.5383 23.3332 34.5878 23.2476C34.6372 23.1619 34.7032 23.0869 34.7817 23.0268C34.8603 22.9667 34.95 22.9228 35.0456 22.8975C35.1412 22.8722 35.2409 22.8661 35.3389 22.8795C35.4369 22.8929 35.5313 22.9255 35.6166 22.9755L36.2661 23.3505C36.4091 23.4331 36.5208 23.5605 36.584 23.7131C36.6472 23.8656 36.6583 24.0347 36.6155 24.1942C36.5728 24.3536 36.4786 24.4945 36.3477 24.5951C36.2167 24.6956 36.0562 24.75 35.8911 24.75Z" fill="#111827"/>
<path d="M37.5 18.75H36.75C36.5511 18.75 36.3603 18.671 36.2197 18.5303C36.079 18.3897 36 18.1989 36 18C36 17.8011 36.079 17.6103 36.2197 17.4697C36.3603 17.329 36.5511 17.25 36.75 17.25H37.5C37.6989 17.25 37.8897 17.329 38.0303 17.4697C38.171 17.6103 38.25 17.8011 38.25 18C38.25 18.1989 38.171 18.3897 38.0303 18.5303C37.8897 18.671 37.6989 18.75 37.5 18.75Z" fill="#111827"/>
<path d="M35.2431 13.125C35.078 13.125 34.9176 13.0706 34.7866 12.9701C34.6556 12.8695 34.5615 12.7286 34.5187 12.5692C34.476 12.4097 34.4871 12.2406 34.5502 12.0881C34.6134 11.9355 34.7252 11.8081 34.8681 11.7255L35.5176 11.3505C35.603 11.3005 35.6973 11.2679 35.7953 11.2545C35.8933 11.2411 35.993 11.2472 36.0886 11.2725C36.1843 11.2978 36.2739 11.3417 36.3525 11.4018C36.4311 11.4619 36.497 11.5369 36.5465 11.6226C36.5959 11.7082 36.6279 11.8028 36.6407 11.9009C36.6534 11.999 36.6467 12.0986 36.6207 12.1941C36.5948 12.2895 36.5503 12.3789 36.4897 12.4571C36.4291 12.5352 36.3536 12.6007 36.2676 12.6495L35.6181 13.0245C35.5042 13.0906 35.3748 13.1253 35.2431 13.125Z" fill="#111827"/>
<path d="M31.1252 9.00745C30.9936 9.00731 30.8644 8.97256 30.7505 8.90668C30.6366 8.8408 30.542 8.74611 30.4763 8.63211C30.4105 8.51812 30.3759 8.38884 30.376 8.25725C30.376 8.12567 30.4107 7.9964 30.4765 7.88245L30.8515 7.23295C30.9003 7.14696 30.9658 7.0715 31.0439 7.0109C31.1221 6.95029 31.2115 6.90575 31.3069 6.87984C31.4024 6.85392 31.502 6.84714 31.6001 6.85989C31.6982 6.87264 31.7928 6.90467 31.8785 6.95412C31.9641 7.00358 32.0391 7.06949 32.0992 7.14806C32.1593 7.22663 32.2033 7.31631 32.2285 7.41194C32.2538 7.50756 32.2599 7.60724 32.2465 7.70524C32.2331 7.80324 32.2005 7.89762 32.1505 7.98295L31.7755 8.63245C31.7096 8.74657 31.6148 8.84132 31.5006 8.90715C31.3865 8.97298 31.257 9.00757 31.1252 9.00745Z" fill="#111827"/>
</g>
<defs>
<clipPath id="clip0_268_6282">
<rect width="48" height="48" fill="white"/>
</clipPath>
</defs>
</svg>
