<svg width="49" height="48" viewBox="0 0 49 48" fill="none" xmlns="http://www.w3.org/2000/svg">
<g clip-path="url(#clip0_474_11699)">
<path d="M26.7432 21.7498C26.5858 21.7498 26.4323 21.7003 26.3046 21.6083C26.1769 21.5162 26.0814 21.3863 26.0317 21.237C25.9819 21.0877 25.9803 20.9265 26.0273 20.7762C26.0742 20.6259 26.1672 20.4943 26.2932 20.3998C28.4064 18.8199 29.8464 16.5012 30.3257 13.9065C30.805 11.3118 30.2885 8.63178 28.8792 6.40108C28.8236 6.31791 28.7852 6.22446 28.7663 6.12623C28.7474 6.02801 28.7483 5.92699 28.769 5.82913C28.7897 5.73126 28.8298 5.63853 28.8869 5.55638C28.9439 5.47424 29.0169 5.40434 29.1014 5.35081C29.1859 5.29728 29.2802 5.26119 29.3789 5.24467C29.4776 5.22815 29.5785 5.23154 29.6758 5.25462C29.7732 5.27771 29.8649 5.32003 29.9456 5.3791C30.0264 5.43817 30.0945 5.51279 30.1459 5.59858C31.7572 8.14801 32.3481 11.2112 31.8008 14.177C31.2535 17.1429 29.6082 19.7934 27.1932 21.5998C27.0633 21.6972 26.9054 21.7498 26.7432 21.7498Z" fill="#6D4DF2"/>
<path d="M15.5001 23.0612C15.3968 23.0612 15.2946 23.0397 15.2001 22.9982C13.6059 22.3051 12.1813 21.274 11.0249 19.9762C9.86853 18.6783 9.0079 17.1447 8.50259 15.4815C7.99727 13.8183 7.85934 12.0651 8.09833 10.3433C8.33733 8.62153 8.94754 6.97221 9.88676 5.50949C10.826 4.04677 12.0718 2.80556 13.5379 1.87173C15.0041 0.937914 16.6557 0.333779 18.3783 0.101127C20.101 -0.131524 21.8536 0.0128631 23.515 0.524299C25.1763 1.03574 26.7067 1.90201 28.0003 3.06319C28.0769 3.12794 28.1398 3.2074 28.1851 3.29688C28.2305 3.38635 28.2574 3.48401 28.2644 3.58408C28.2713 3.68415 28.2581 3.7846 28.2256 3.87947C28.193 3.97435 28.1417 4.06173 28.0748 4.13644C28.0079 4.21116 27.9266 4.27168 27.8359 4.31444C27.7451 4.3572 27.6467 4.38132 27.5465 4.38537C27.4463 4.38943 27.3462 4.37334 27.2523 4.33805C27.1584 4.30276 27.0726 4.249 26.9998 4.17994C25.8678 3.16432 24.5287 2.40673 23.0751 1.95957C21.6215 1.51241 20.0881 1.38636 18.581 1.59013C17.0739 1.79391 15.629 2.32264 14.3463 3.13977C13.0637 3.95689 11.9738 5.0429 11.1522 6.32267C10.3305 7.60243 9.79668 9.04542 9.58758 10.5518C9.37848 12.0582 9.49911 13.592 9.94113 15.0472C10.3831 16.5024 11.136 17.8442 12.1476 18.9798C13.1592 20.1153 14.4054 21.0176 15.8001 21.6242C15.9578 21.6932 16.0869 21.8145 16.1658 21.9675C16.2447 22.1205 16.2685 22.2959 16.2334 22.4645C16.1982 22.633 16.1061 22.7843 15.9726 22.8929C15.8391 23.0016 15.6722 23.061 15.5001 23.0612Z" fill="#6D4DF2"/>
<path d="M24.4998 19.6618C24.3382 19.662 24.1809 19.6099 24.0513 19.5134C23.9216 19.4169 23.8267 19.2811 23.7805 19.1262C23.7343 18.9714 23.7393 18.8057 23.7949 18.654C23.8504 18.5023 23.9535 18.3725 24.0888 18.2841C25.4441 17.4024 26.4783 16.1063 27.037 14.589C27.5957 13.0717 27.6492 11.4145 27.1893 9.86432C26.7295 8.31419 25.781 6.95416 24.4853 5.98698C23.1895 5.01981 21.6159 4.49727 19.999 4.49727C18.3821 4.49727 16.8085 5.01981 15.5128 5.98698C14.217 6.95416 13.2686 8.31419 12.8087 9.86432C12.3489 11.4145 12.4023 13.0717 12.9611 14.589C13.5198 16.1063 14.5539 17.4024 15.9093 18.2841C16.0725 18.3943 16.1859 18.5643 16.2249 18.7574C16.2638 18.9505 16.2252 19.1511 16.1175 19.316C16.0097 19.4809 15.8414 19.5968 15.6489 19.6386C15.4565 19.6804 15.2552 19.6449 15.0888 19.5396C13.4629 18.4811 12.2226 16.9257 11.5527 15.105C10.8827 13.2843 10.819 11.2959 11.3711 9.43607C11.9231 7.57625 13.0614 5.9446 14.6161 4.78427C16.1709 3.62394 18.059 2.99707 19.999 2.99707C21.939 2.99707 23.8271 3.62394 25.3819 4.78427C26.9367 5.9446 28.0749 7.57625 28.627 9.43607C29.179 11.2959 29.1153 13.2843 28.4454 15.105C27.7754 16.9257 26.5351 18.4811 24.9093 19.5396C24.7875 19.6192 24.6452 19.6617 24.4998 19.6618Z" fill="#6D4DF2"/>
<path d="M15.4998 15.4551C15.3705 15.4553 15.2434 15.422 15.1308 15.3585C15.0182 15.295 14.9239 15.2035 14.857 15.0929C14.3096 14.1825 14.0137 13.1431 13.9996 12.081C13.9854 11.0188 14.2535 9.97192 14.7764 9.04728C15.2993 8.12265 16.0584 7.35342 16.976 6.81821C17.8935 6.28299 18.9368 6.00098 19.999 6.00098C21.0613 6.00098 22.1045 6.28299 23.0221 6.81821C23.9397 7.35342 24.6987 8.12265 25.2216 9.04728C25.7446 9.97192 26.0127 11.0188 25.9985 12.081C25.9843 13.1431 25.6884 14.1825 25.141 15.0929C25.0919 15.1805 25.0257 15.2575 24.9462 15.319C24.8668 15.3806 24.7758 15.4256 24.6787 15.4513C24.5815 15.477 24.4802 15.4829 24.3807 15.4687C24.2812 15.4545 24.1856 15.4205 24.0995 15.3686C24.0135 15.3167 23.9387 15.2481 23.8797 15.1667C23.8207 15.0854 23.7786 14.993 23.756 14.8951C23.7334 14.7972 23.7306 14.6957 23.748 14.5967C23.7654 14.4977 23.8024 14.4033 23.857 14.3189C24.267 13.6361 24.4884 12.8566 24.4987 12.0603C24.5089 11.2639 24.3076 10.479 23.9153 9.78591C23.523 9.09278 22.9537 8.51618 22.2657 8.11501C21.5777 7.71383 20.7955 7.50245 19.999 7.50245C19.2026 7.50245 18.4204 7.71383 17.7324 8.11501C17.0443 8.51618 16.4751 9.09278 16.0828 9.78591C15.6905 10.479 15.4892 11.2639 15.4994 12.0603C15.5096 12.8566 15.731 13.6361 16.141 14.3189C16.2093 14.4326 16.2463 14.5623 16.2481 14.6949C16.2499 14.8275 16.2165 14.9582 16.1513 15.0737C16.0861 15.1892 15.9915 15.2854 15.877 15.3524C15.7626 15.4194 15.6324 15.4548 15.4998 15.4551Z" fill="#6D4DF2"/>
<path d="M31.25 28.5C31.0511 28.5 30.8603 28.421 30.7197 28.2803C30.579 28.1397 30.5 27.9489 30.5 27.75V25.5C30.5 25.1022 30.342 24.7206 30.0607 24.4393C29.7794 24.158 29.3978 24 29 24C28.6022 24 28.2206 24.158 27.9393 24.4393C27.658 24.7206 27.5 25.1022 27.5 25.5V27.75C27.5 27.9489 27.421 28.1397 27.2803 28.2803C27.1397 28.421 26.9489 28.5 26.75 28.5C26.5511 28.5 26.3603 28.421 26.2197 28.2803C26.079 28.1397 26 27.9489 26 27.75V25.5C26 24.7044 26.3161 23.9413 26.8787 23.3787C27.4413 22.8161 28.2044 22.5 29 22.5C29.7956 22.5 30.5587 22.8161 31.1213 23.3787C31.6839 23.9413 32 24.7044 32 25.5V27.75C32 27.9489 31.921 28.1397 31.7803 28.2803C31.6397 28.421 31.4489 28.5 31.25 28.5Z" fill="#6D4DF2"/>
<path d="M26.75 28.5C26.5511 28.5 26.3603 28.421 26.2197 28.2803C26.079 28.1397 26 27.9489 26 27.75V24.75C26 24.3522 25.842 23.9706 25.5607 23.6893C25.2794 23.408 24.8978 23.25 24.5 23.25C24.1022 23.25 23.7206 23.408 23.4393 23.6893C23.158 23.9706 23 24.3522 23 24.75V27.75C23 27.9489 22.921 28.1397 22.7803 28.2803C22.6397 28.421 22.4489 28.5 22.25 28.5C22.0511 28.5 21.8603 28.421 21.7197 28.2803C21.579 28.1397 21.5 27.9489 21.5 27.75V24.75C21.5 23.9544 21.8161 23.1913 22.3787 22.6287C22.9413 22.0661 23.7044 21.75 24.5 21.75C25.2956 21.75 26.0587 22.0661 26.6213 22.6287C27.1839 23.1913 27.5 23.9544 27.5 24.75V27.75C27.5 27.9489 27.421 28.1397 27.2803 28.2803C27.1397 28.421 26.9489 28.5 26.75 28.5Z" fill="#6D4DF2"/>
<path d="M19.25 42C19.0975 42.0001 18.9487 41.9536 18.8233 41.867C18.6978 41.7803 18.6018 41.6574 18.548 41.5148C18.527 41.4585 16.397 35.9587 11.6953 35.25H8.75001C8.15327 35.25 7.58097 35.0129 7.15902 34.591C6.73706 34.169 6.50001 33.5967 6.50001 33V32.0408C6.49841 31.4607 6.72214 30.9027 7.12401 30.4845C7.71988 29.8569 8.43737 29.3572 9.23272 29.016C10.0281 28.6748 10.8846 28.4993 11.75 28.5C13.514 28.5234 15.2718 28.7135 17 29.0677V12C17 11.2044 17.3161 10.4413 17.8787 9.87868C18.4413 9.31607 19.2044 9 20 9C20.7957 9 21.5587 9.31607 22.1213 9.87868C22.6839 10.4413 23 11.2044 23 12V27.75C23 27.9489 22.921 28.1397 22.7803 28.2803C22.6397 28.421 22.4489 28.5 22.25 28.5C22.0511 28.5 21.8603 28.421 21.7197 28.2803C21.579 28.1397 21.5 27.9489 21.5 27.75V12C21.5 11.6022 21.342 11.2206 21.0607 10.9393C20.7794 10.658 20.3978 10.5 20 10.5C19.6022 10.5 19.2207 10.658 18.9393 10.9393C18.658 11.2206 18.5 11.6022 18.5 12V30C18.5 30.1139 18.474 30.2263 18.424 30.3287C18.3741 30.4311 18.3014 30.5208 18.2116 30.5909C18.1219 30.661 18.0173 30.7098 17.9058 30.7334C17.7944 30.7571 17.679 30.7551 17.5685 30.7275C15.66 30.2808 13.7097 30.0369 11.75 30C11.0871 29.9999 10.4311 30.1347 9.82195 30.3964C9.21282 30.658 8.66335 31.0409 8.20701 31.5217C8.07374 31.6616 7.99958 31.8475 8.00001 32.0408V33C8.00001 33.1989 8.07903 33.3897 8.21968 33.5303C8.36033 33.671 8.5511 33.75 8.75001 33.75H11.75C11.7856 33.7499 11.8212 33.7524 11.8565 33.7575C17.4815 34.5615 19.8545 40.7242 19.9565 40.9867C19.9992 41.1006 20.0135 41.223 19.9984 41.3436C19.9832 41.4642 19.939 41.5793 19.8694 41.679C19.7999 41.7787 19.7072 41.86 19.5993 41.9159C19.4914 41.9718 19.3715 42.0007 19.25 42Z" fill="#6D4DF2"/>
<path d="M35.75 48H17.75C17.5511 48 17.3603 47.921 17.2197 47.7803C17.079 47.6397 17 47.4489 17 47.25V41.25C17 41.0511 17.079 40.8603 17.2197 40.7197C17.3603 40.579 17.5511 40.5 17.75 40.5H35.75C35.9489 40.5 36.1397 40.579 36.2803 40.7197C36.421 40.8603 36.5 41.0511 36.5 41.25V42C36.5 42.1989 36.421 42.3897 36.2803 42.5303C36.1397 42.671 35.9489 42.75 35.75 42.75C35.5511 42.75 35.3603 42.671 35.2197 42.5303C35.079 42.3897 35 42.1989 35 42H18.5V46.5H35V45C35 44.8011 35.079 44.6103 35.2197 44.4697C35.3603 44.329 35.5511 44.25 35.75 44.25C35.9489 44.25 36.1397 44.329 36.2803 44.4697C36.421 44.6103 36.5 44.8011 36.5 45V47.25C36.5 47.4489 36.421 47.6397 36.2803 47.7803C36.1397 47.921 35.9489 48 35.75 48Z" fill="#6D4DF2"/>
<path d="M34.2501 42C34.1223 41.9999 33.9966 41.9672 33.885 41.9049C33.7734 41.8427 33.6796 41.7529 33.6124 41.6442C33.5453 41.5355 33.507 41.4114 33.5012 41.2837C33.4955 41.1561 33.5225 41.0291 33.5796 40.9148L35.0001 38.073V30C35.0001 29.8011 35.0791 29.6103 35.2198 29.4697C35.3604 29.329 35.5512 29.25 35.7501 29.25C35.949 29.25 36.1398 29.329 36.2804 29.4697C36.4211 29.6103 36.5001 29.8011 36.5001 30V38.25C36.5014 38.366 36.4757 38.4808 36.4251 38.5852L34.9251 41.5852C34.8625 41.7105 34.7661 41.8157 34.6468 41.889C34.5275 41.9623 34.3901 42.0008 34.2501 42Z" fill="#6D4DF2"/>
<path d="M35.75 30.75C35.5511 30.75 35.3603 30.671 35.2197 30.5303C35.079 30.3897 35 30.1989 35 30V27C35 26.6022 34.842 26.2206 34.5607 25.9393C34.2794 25.658 33.8978 25.5 33.5 25.5C33.1022 25.5 32.7206 25.658 32.4393 25.9393C32.158 26.2206 32 26.6022 32 27V27.75C32 27.9489 31.921 28.1397 31.7803 28.2803C31.6397 28.421 31.4489 28.5 31.25 28.5C31.0511 28.5 30.8603 28.421 30.7197 28.2803C30.579 28.1397 30.5 27.9489 30.5 27.75V27C30.5 26.2044 30.8161 25.4413 31.3787 24.8787C31.9413 24.3161 32.7044 24 33.5 24C34.2956 24 35.0587 24.3161 35.6213 24.8787C36.1839 25.4413 36.5 26.2044 36.5 27V30C36.5 30.1989 36.421 30.3897 36.2803 30.5303C36.1397 30.671 35.9489 30.75 35.75 30.75Z" fill="#6D4DF2"/>
</g>
<defs>
<clipPath id="clip0_474_11699">
<rect width="48" height="48" fill="white" transform="translate(0.5)"/>
</clipPath>
</defs>
</svg>
