<svg width="48" height="48" viewBox="0 0 48 48" fill="none" xmlns="http://www.w3.org/2000/svg">
<path d="M18.3994 19.1673H7.20077C6.99708 19.1673 6.80174 19.0864 6.65771 18.9424C6.51368 18.7984 6.43277 18.603 6.43277 18.3993V7.20074C6.43277 6.99705 6.51368 6.80171 6.65771 6.65768C6.80174 6.51365 6.99708 6.43274 7.20077 6.43274H18.3994C18.603 6.43274 18.7984 6.51365 18.9424 6.65768C19.0864 6.80171 19.1674 6.99705 19.1674 7.20074V18.3993C19.1674 18.603 19.0864 18.7984 18.9424 18.9424C18.7984 19.0864 18.603 19.1673 18.3994 19.1673ZM7.96877 17.6313H17.6314V7.96874H7.96877V17.6313Z" fill="#6D4DF2"/>
<path d="M29.5995 19.1673H18.4005C18.1968 19.1673 18.0015 19.0864 17.8575 18.9424C17.7134 18.7984 17.6325 18.603 17.6325 18.3993V7.20074C17.6325 6.99705 17.7134 6.80171 17.8575 6.65768C18.0015 6.51365 18.1968 6.43274 18.4005 6.43274H29.5995C29.8032 6.43274 29.9985 6.51365 30.1425 6.65768C30.2866 6.80171 30.3675 6.99705 30.3675 7.20074V18.3993C30.3675 18.603 30.2866 18.7984 30.1425 18.9424C29.9985 19.0864 29.8032 19.1673 29.5995 19.1673ZM19.1685 17.6313H28.8315V7.96874H19.1685V17.6313Z" fill="#6D4DF2"/>
<path d="M40.7992 19.1673H29.6006C29.397 19.1673 29.2016 19.0864 29.0576 18.9424C28.9136 18.7984 28.8326 18.603 28.8326 18.3993V7.20074C28.8326 6.99705 28.9136 6.80171 29.0576 6.65768C29.2016 6.51365 29.397 6.43274 29.6006 6.43274H40.7992C41.0029 6.43274 41.1983 6.51365 41.3423 6.65768C41.4863 6.80171 41.5672 6.99705 41.5672 7.20074V18.3993C41.5672 18.603 41.4863 18.7984 41.3423 18.9424C41.1983 19.0864 41.0029 19.1673 40.7992 19.1673ZM30.3686 17.6313H40.0312V7.96874H30.3686V17.6313Z" fill="#6D4DF2"/>
<path d="M18.3994 30.3686H7.20077C6.99708 30.3686 6.80174 30.2877 6.65771 30.1437C6.51368 29.9996 6.43277 29.8043 6.43277 29.6006V18.4024C6.43277 18.1987 6.51368 18.0034 6.65771 17.8593C6.80174 17.7153 6.99708 17.6344 7.20077 17.6344H18.3994C18.603 17.6344 18.7984 17.7153 18.9424 17.8593C19.0864 18.0034 19.1674 18.1987 19.1674 18.4024V29.6006C19.1674 29.8043 19.0864 29.9996 18.9424 30.1437C18.7984 30.2877 18.603 30.3686 18.3994 30.3686ZM7.96877 28.8326H17.6314V19.1704H7.96877V28.8326Z" fill="#6D4DF2"/>
<path d="M29.5995 30.3686H18.4005C18.1968 30.3686 18.0015 30.2877 17.8575 30.1437C17.7134 29.9996 17.6325 29.8043 17.6325 29.6006V18.4024C17.6325 18.1987 17.7134 18.0034 17.8575 17.8593C18.0015 17.7153 18.1968 17.6344 18.4005 17.6344H29.5995C29.8032 17.6344 29.9985 17.7153 30.1425 17.8593C30.2866 18.0034 30.3675 18.1987 30.3675 18.4024V29.6006C30.3675 29.8043 30.2866 29.9996 30.1425 30.1437C29.9985 30.2877 29.8032 30.3686 29.5995 30.3686ZM19.1685 28.8326H28.8315V19.1704H19.1685V28.8326Z" fill="#6D4DF2"/>
<path d="M40.7992 30.3686H29.6006C29.397 30.3686 29.2016 30.2877 29.0576 30.1437C28.9136 29.9996 28.8326 29.8043 28.8326 29.6006V18.4024C28.8326 18.1987 28.9136 18.0034 29.0576 17.8593C29.2016 17.7153 29.397 17.6344 29.6006 17.6344H40.7992C41.0029 17.6344 41.1983 17.7153 41.3423 17.8593C41.4863 18.0034 41.5672 18.1987 41.5672 18.4024V29.6006C41.5672 29.8043 41.4863 29.9996 41.3423 30.1437C41.1983 30.2877 41.0029 30.3686 40.7992 30.3686ZM30.3686 28.8326H40.0312V19.1704H30.3686V28.8326Z" fill="#6D4DF2"/>
<path d="M18.3994 41.5672H7.20077C6.99708 41.5672 6.80174 41.4863 6.65771 41.3423C6.51368 41.1983 6.43277 41.0029 6.43277 40.7992V29.6006C6.43277 29.397 6.51368 29.2016 6.65771 29.0576C6.80174 28.9136 6.99708 28.8326 7.20077 28.8326H18.3994C18.603 28.8326 18.7984 28.9136 18.9424 29.0576C19.0864 29.2016 19.1674 29.397 19.1674 29.6006V40.7992C19.1674 41.0029 19.0864 41.1983 18.9424 41.3423C18.7984 41.4863 18.603 41.5672 18.3994 41.5672ZM7.96877 40.0312H17.6314V30.3686H7.96877V40.0312Z" fill="#6D4DF2"/>
<path d="M29.5995 41.5672H18.4005C18.1968 41.5672 18.0015 41.4863 17.8575 41.3423C17.7134 41.1983 17.6325 41.0029 17.6325 40.7992V29.6006C17.6325 29.397 17.7134 29.2016 17.8575 29.0576C18.0015 28.9136 18.1968 28.8326 18.4005 28.8326H29.5995C29.8032 28.8326 29.9985 28.9136 30.1425 29.0576C30.2866 29.2016 30.3675 29.397 30.3675 29.6006V40.7992C30.3675 41.0029 30.2866 41.1983 30.1425 41.3423C29.9985 41.4863 29.8032 41.5672 29.5995 41.5672ZM19.1685 40.0312H28.8315V30.3686H19.1685V40.0312Z" fill="#6D4DF2"/>
<path d="M40.7992 41.5672H29.6006C29.397 41.5672 29.2016 41.4863 29.0576 41.3423C28.9136 41.1983 28.8326 41.0029 28.8326 40.7992V29.6006C28.8326 29.397 28.9136 29.2016 29.0576 29.0576C29.2016 28.9136 29.397 28.8326 29.6006 28.8326H40.7992C41.0029 28.8326 41.1983 28.9136 41.3423 29.0576C41.4863 29.2016 41.5672 29.397 41.5672 29.6006V40.7992C41.5672 41.0029 41.4863 41.1983 41.3423 41.3423C41.1983 41.4863 41.0029 41.5672 40.7992 41.5672ZM30.3686 40.0312H40.0312V30.3686H30.3686V40.0312Z" fill="#6D4DF2"/>
<path d="M7.40429 41.54L6.99725 40.0585C7.15085 40.0159 22.5965 35.623 23.2332 23.9597C23.9305 11.1883 39.9153 6.64748 40.5953 6.46008L41.0031 7.94117C40.8472 7.98418 25.4035 12.3802 24.7669 24.0434C24.0695 36.8149 8.08474 41.3526 7.40429 41.54Z" fill="#6D4DF2"/>
</svg>
