<svg width="48" height="48" viewBox="0 0 48 48" fill="none" xmlns="http://www.w3.org/2000/svg">
<path d="M8.40723 12.0349L21.4313 4.51523L22.1995 5.84574L9.17542 13.3654L8.40723 12.0349Z" fill="#6D4DF2"/>
<path d="M25.793 5.84473L26.5612 4.51422L39.5919 12.0377L38.8237 13.3682L25.793 5.84473Z" fill="#6D4DF2"/>
<path d="M40.6182 16.476H42.1542V31.5192H40.6182V16.476Z" fill="#6D4DF2"/>
<path d="M25.7959 42.1453L38.8253 34.6225L39.5935 35.953L26.5641 43.4758L25.7959 42.1453Z" fill="#6D4DF2"/>
<path d="M8.40625 35.9586L9.17444 34.6281L22.2038 42.1509L21.4357 43.4814L8.40625 35.9586Z" fill="#6D4DF2"/>
<path d="M5.8457 16.476H7.3817V31.5192H5.8457V16.476Z" fill="#6D4DF2"/>
<path d="M8.40771 15.8826L9.17591 14.5521L22.2017 22.0727L21.4335 23.4032L8.40771 15.8826Z" fill="#6D4DF2"/>
<path d="M23.9956 27.2798C23.3459 27.2799 22.7108 27.0873 22.1706 26.7264C21.6303 26.3655 21.2093 25.8525 20.9606 25.2523C20.7119 24.6521 20.6468 23.9917 20.7735 23.3545C20.9002 22.7173 21.213 22.132 21.6724 21.6725C22.1318 21.2131 22.717 20.9002 23.3542 20.7735C23.9914 20.6467 24.6519 20.7117 25.2521 20.9603C25.8523 21.2089 26.3654 21.6299 26.7263 22.1701C27.0873 22.7103 27.2799 23.3454 27.2799 23.9951C27.279 24.8659 26.9327 25.7008 26.317 26.3166C25.7012 26.9324 24.8664 27.2788 23.9956 27.2798ZM23.9956 22.2467C23.6497 22.2466 23.3115 22.3491 23.0239 22.5413C22.7362 22.7334 22.512 23.0065 22.3796 23.3261C22.2472 23.6456 22.2126 23.9973 22.28 24.3365C22.3475 24.6758 22.5141 24.9874 22.7586 25.232C23.0032 25.4766 23.3149 25.6431 23.6541 25.7106C23.9934 25.7781 24.345 25.7434 24.6646 25.611C24.9841 25.4786 25.2572 25.2544 25.4494 24.9668C25.6415 24.6791 25.744 24.341 25.7439 23.9951C25.7433 23.5316 25.5589 23.0872 25.2312 22.7595C24.9034 22.4317 24.4591 22.2473 23.9956 22.2467Z" fill="#6D4DF2"/>
<path d="M6.61346 17.2439C5.96387 17.2439 5.32888 17.0513 4.78877 16.6904C4.24866 16.3295 3.82769 15.8165 3.57911 15.2164C3.33052 14.6163 3.26548 13.9559 3.39221 13.3188C3.51894 12.6817 3.83174 12.0965 4.29107 11.6371C4.75039 11.1778 5.33561 10.865 5.97271 10.7383C6.60981 10.6116 7.27019 10.6766 7.87032 10.9252C8.47046 11.1738 8.98341 11.5947 9.34429 12.1348C9.70518 12.6749 9.89781 13.3099 9.89781 13.9595C9.89679 14.8303 9.55044 15.6651 8.93472 16.2808C8.31901 16.8965 7.48421 17.2429 6.61346 17.2439ZM6.61346 12.2112C6.26766 12.2112 5.92964 12.3137 5.64212 12.5058C5.35461 12.6979 5.13052 12.971 4.99819 13.2905C4.86586 13.6099 4.83124 13.9615 4.8987 14.3006C4.96616 14.6398 5.13267 14.9513 5.37718 15.1958C5.6217 15.4403 5.93322 15.6068 6.27237 15.6743C6.61152 15.7417 6.96305 15.7071 7.28252 15.5748C7.60199 15.4425 7.87505 15.2184 8.06716 14.9309C8.25927 14.6433 8.36181 14.3053 8.36181 13.9595C8.3613 13.496 8.17694 13.0516 7.84917 12.7238C7.5214 12.396 7.07699 12.2117 6.61346 12.2112Z" fill="#6D4DF2"/>
<path d="M6.61374 37.3202C5.96404 37.3203 5.32892 37.1277 4.78869 36.7668C4.24846 36.4059 3.82739 35.8929 3.57872 35.2927C3.33006 34.6924 3.26498 34.032 3.39171 33.3947C3.51844 32.7575 3.83129 32.1722 4.29069 31.7128C4.75009 31.2534 5.33541 30.9406 5.97263 30.8138C6.60984 30.6871 7.27032 30.7522 7.87054 31.0008C8.47077 31.2495 8.98377 31.6706 9.34467 32.2108C9.70557 32.751 9.89816 33.3862 9.89809 34.0359C9.89717 34.9066 9.55085 35.7415 8.93511 36.3572C8.31938 36.973 7.48452 37.3193 6.61374 37.3202ZM6.61374 32.2871C6.26785 32.287 5.92971 32.3895 5.64208 32.5816C5.35446 32.7738 5.13026 33.0468 4.99784 33.3664C4.86542 33.6859 4.83074 34.0375 4.89817 34.3768C4.9656 34.716 5.13212 35.0277 5.37667 35.2723C5.62122 35.5169 5.93282 35.6835 6.27205 35.751C6.61128 35.8185 6.96291 35.7839 7.28248 35.6515C7.60204 35.5192 7.87518 35.295 8.06735 35.0074C8.25952 34.7199 8.36209 34.3817 8.36209 34.0359C8.36158 33.5723 8.17723 33.1278 7.84947 32.8C7.52171 32.4722 7.07731 32.2877 6.61374 32.2871Z" fill="#6D4DF2"/>
<path d="M24.0001 47.3561C23.3504 47.3561 22.7153 47.1634 22.1751 46.8025C21.6349 46.4415 21.2139 45.9285 20.9653 45.3283C20.7167 44.7281 20.6517 44.0676 20.7785 43.4304C20.9053 42.7932 21.2181 42.2079 21.6775 41.7486C22.137 41.2892 22.7223 40.9764 23.3595 40.8497C23.9967 40.723 24.6572 40.7881 25.2574 41.0368C25.8576 41.2854 26.3705 41.7065 26.7314 42.2467C27.0923 42.787 27.2849 43.4221 27.2848 44.0717C27.2837 44.9425 26.9372 45.7773 26.3215 46.393C25.7057 47.0087 24.8709 47.3551 24.0001 47.3561ZM24.0001 42.323C23.6542 42.323 23.3161 42.4256 23.0285 42.6177C22.7409 42.8099 22.5168 43.083 22.3844 43.4025C22.2521 43.7221 22.2175 44.0737 22.2849 44.4129C22.3524 44.7521 22.519 45.0637 22.7635 45.3083C23.0081 45.5529 23.3197 45.7194 23.6589 45.7869C23.9981 45.8544 24.3497 45.8197 24.6693 45.6874C24.9888 45.555 25.2619 45.3309 25.4541 45.0433C25.6462 44.7557 25.7488 44.4176 25.7488 44.0717C25.7483 43.6081 25.5639 43.1636 25.2361 42.8358C24.9082 42.5079 24.4637 42.3235 24.0001 42.323Z" fill="#6D4DF2"/>
<path d="M41.3863 37.3202C40.7366 37.3202 40.1015 37.1276 39.5614 36.7666C39.0212 36.4057 38.6002 35.8926 38.3516 35.2924C38.103 34.6922 38.0379 34.0317 38.1647 33.3945C38.2915 32.7573 38.6044 32.172 39.0638 31.7127C39.5232 31.2533 40.1085 30.9405 40.7457 30.8138C41.3829 30.6871 42.0434 30.7522 42.6436 31.0009C43.2438 31.2496 43.7568 31.6706 44.1176 32.2108C44.4785 32.7511 44.6711 33.3862 44.671 34.0359C44.6701 34.9067 44.3237 35.7416 43.7079 36.3574C43.0921 36.9731 42.2572 37.3194 41.3863 37.3202ZM41.3863 32.2871C41.0404 32.2871 40.7023 32.3897 40.4148 32.5818C40.1272 32.774 39.903 33.0471 39.7707 33.3666C39.6383 33.6862 39.6037 34.0378 39.6712 34.377C39.7386 34.7162 39.9052 35.0278 40.1498 35.2724C40.3943 35.517 40.7059 35.6835 41.0451 35.751C41.3844 35.8185 41.736 35.7838 42.0555 35.6515C42.3751 35.5191 42.6482 35.295 42.8403 35.0074C43.0325 34.7198 43.135 34.3817 43.135 34.0359C43.1345 33.5722 42.9501 33.1277 42.6223 32.7999C42.2944 32.472 41.8499 32.2876 41.3863 32.2871Z" fill="#6D4DF2"/>
<path d="M23.9956 7.21303C23.3459 7.2131 22.7108 7.02052 22.1706 6.65964C21.6303 6.29875 21.2093 5.78577 20.9606 5.18557C20.7119 4.58537 20.6468 3.92491 20.7735 3.28771C20.9002 2.65051 21.213 2.06519 21.6724 1.60577C22.1318 1.14635 22.717 0.833473 23.3542 0.7067C23.9914 0.579926 24.6519 0.644952 25.2521 0.893555C25.8523 1.14216 26.3654 1.56317 26.7263 2.10335C27.0873 2.64353 27.2799 3.27862 27.2799 3.92829C27.279 4.79911 26.9327 5.63401 26.317 6.24981C25.7012 6.8656 24.8664 7.21201 23.9956 7.21303ZM23.9956 2.17994C23.6497 2.17986 23.3115 2.28237 23.0239 2.4745C22.7362 2.66662 22.512 2.93973 22.3796 3.25929C22.2472 3.57884 22.2126 3.93049 22.28 4.26974C22.3475 4.609 22.5141 4.92063 22.7586 5.16522C23.0032 5.40981 23.3149 5.57637 23.6541 5.64383C23.9934 5.71129 24.345 5.67663 24.6646 5.54422C24.9841 5.41182 25.2572 5.18762 25.4494 4.89998C25.6415 4.61235 25.744 4.27419 25.7439 3.92829C25.7433 3.46479 25.5589 3.02044 25.2312 2.69269C24.9034 2.36495 24.4591 2.18055 23.9956 2.17994Z" fill="#6D4DF2"/>
<path d="M41.3865 17.2439C40.7369 17.2438 40.102 17.0511 39.5619 16.6902C39.0219 16.3292 38.601 15.8163 38.3524 15.2161C38.1039 14.616 38.0389 13.9556 38.1657 13.3185C38.2925 12.6815 38.6053 12.0963 39.0646 11.637C39.524 11.1777 40.1092 10.8649 40.7463 10.7383C41.3834 10.6116 42.0437 10.6766 42.6438 10.9252C43.244 11.1738 43.7569 11.5948 44.1178 12.1349C44.4786 12.675 44.6712 13.31 44.6712 13.9595C44.6702 14.8303 44.3238 15.6652 43.708 16.2809C43.0922 16.8967 42.2573 17.243 41.3865 17.2439ZM41.3865 12.2112C41.0407 12.2112 40.7027 12.3139 40.4153 12.506C40.1278 12.6982 39.9038 12.9712 39.7715 13.2907C39.6392 13.6102 39.6047 13.9617 39.6722 14.3008C39.7397 14.64 39.9062 14.9515 40.1508 15.1959C40.3953 15.4404 40.7068 15.6069 41.0459 15.6743C41.3851 15.7417 41.7366 15.7071 42.056 15.5748C42.3755 15.4424 42.6485 15.2183 42.8406 14.9308C43.0327 14.6433 43.1352 14.3053 43.1352 13.9595C43.1347 13.4959 42.9503 13.0515 42.6225 12.7237C42.2946 12.3959 41.8501 12.2116 41.3865 12.2112Z" fill="#6D4DF2"/>
<path d="M23.2275 26.5117H24.7635V41.5549H23.2275V26.5117Z" fill="#6D4DF2"/>
<path d="M25.791 22.0721L38.8231 14.5479L39.5913 15.8784L26.5592 23.4027L25.791 22.0721Z" fill="#6D4DF2"/>
<path d="M36.8022 32.2762L37.5704 30.9457L39.5657 32.0977L38.7975 33.4282L36.8022 32.2762Z" fill="#6D4DF2"/>
<path d="M30.7939 28.8076L31.5621 27.4771L34.5667 29.2118L33.7985 30.5423L30.7939 28.8076Z" fill="#6D4DF2"/>
<path d="M25.7939 25.9215L26.5621 24.591L28.5574 25.743L27.7892 27.0735L25.7939 25.9215Z" fill="#6D4DF2"/>
<path d="M23.2275 6.44507H24.7635V8.74907H23.2275V6.44507Z" fill="#6D4DF2"/>
<path d="M23.2275 12.2242H24.7635V15.6994H23.2275V12.2242Z" fill="#6D4DF2"/>
<path d="M23.2275 19.1747H24.7635V21.4787H23.2275V19.1747Z" fill="#6D4DF2"/>
<path d="M8.39844 32.121L10.3937 30.969L11.1615 32.2988L9.16625 33.4508L8.39844 32.121Z" fill="#6D4DF2"/>
<path d="M13.4067 29.2299L16.4186 27.4909L17.1864 28.8208L14.1745 30.5597L13.4067 29.2299Z" fill="#6D4DF2"/>
<path d="M19.4321 25.7521L21.4274 24.6001L22.1952 25.9299L20.1999 27.0819L19.4321 25.7521Z" fill="#6D4DF2"/>
</svg>
