<svg width="48" height="48" viewBox="0 0 48 48" fill="none" xmlns="http://www.w3.org/2000/svg">
<path d="M23.8506 30.4078C21.0449 30.4051 18.3078 29.5404 16.0098 27.9307C13.7117 26.3211 11.9638 24.0442 11.0026 21.4083C10.0413 18.7724 9.91321 15.9048 10.6356 13.1936C11.3579 10.4825 12.8959 8.05883 15.0412 6.25065C17.1865 4.44248 19.8356 3.33714 22.6299 3.08428C25.4242 2.83142 28.2287 3.44325 30.6638 4.83694C33.0988 6.23063 35.0469 8.33887 36.2442 10.8763C37.4415 13.4137 37.8302 16.2577 37.3578 19.0233L35.8437 18.7653C35.9599 18.0843 36.0186 17.3948 36.0192 16.704C36.0168 13.7091 34.9091 10.8205 32.9085 8.59191C30.9078 6.36333 28.1549 4.95164 25.1777 4.62748C22.2004 4.30331 19.2082 5.08949 16.7748 6.83528C14.3414 8.58107 12.638 11.1636 11.9912 14.0878C11.3444 17.012 11.7997 20.072 13.2698 22.6812C14.7399 25.2905 17.1213 27.2653 19.9576 28.227C22.7938 29.1888 25.8853 29.0698 28.6392 27.8929C31.3931 26.716 33.6158 24.564 34.881 21.8496L36.2703 22.5024C35.1612 24.8609 33.4051 26.856 31.2065 28.2555C29.0078 29.655 26.4569 30.4014 23.8506 30.4078Z" fill="#6D4DF2"/>
<path d="M15.6507 44.9925C13.0532 44.9945 10.5087 44.2576 8.31418 42.8679C6.11967 41.4783 4.36565 39.4931 3.25681 37.1442C2.14798 34.7952 1.73006 32.1794 2.05184 29.6019C2.37362 27.0244 3.42183 24.5916 5.07412 22.5873C6.72642 20.5831 8.91466 19.0901 11.3835 18.2826C13.8523 17.4752 16.4998 17.3865 19.0171 18.0269C21.5344 18.6674 23.8177 20.0106 25.6004 21.8998C27.3831 23.7889 28.5918 26.1462 29.0853 28.6963L27.577 28.9874C26.9919 25.9506 25.2729 23.2503 22.7691 21.435C20.2653 19.6196 17.1643 18.8254 14.0961 19.2136C11.0279 19.6017 8.22248 21.1432 6.24961 23.5249C4.27674 25.9065 3.28437 28.9498 3.47405 32.0367C3.66373 35.1235 5.02124 38.0225 7.27086 40.1447C9.52048 42.2669 12.4935 43.4533 15.5862 43.4628C18.6788 43.4724 21.6592 42.3045 23.9219 40.1963C26.1847 38.0881 27.5601 35.1976 27.769 32.112L29.3011 32.2169C29.0678 35.6794 27.5288 38.9243 24.9951 41.2958C22.4613 43.6673 19.1218 44.9885 15.6515 44.9925H15.6507Z" fill="#6D4DF2"/>
<path d="M32.3493 44.8201C29.9459 44.817 27.5855 44.1817 25.5053 42.9778C23.4251 41.7739 21.6982 40.0439 20.4981 37.9615C19.298 35.8791 18.667 33.5176 18.6683 31.1141C18.6696 28.7107 19.3033 26.3499 20.5056 24.2688C20.6423 24.033 20.7844 23.8018 20.9326 23.5776L22.2152 24.4224C22.0836 24.6221 21.9573 24.8269 21.8362 25.0368C20.3149 27.6782 19.8417 30.7948 20.5104 33.7687C21.1791 36.7426 22.9409 39.3567 25.4464 41.0926C27.952 42.8286 31.0184 43.5596 34.0377 43.1408C37.0569 42.7221 39.8086 41.184 41.7471 38.8317C43.6856 36.4794 44.6694 33.4845 44.5035 30.4408C44.3375 27.3972 43.034 24.527 40.8512 22.3994C38.6684 20.2717 35.7658 19.042 32.7189 18.9539C29.672 18.8659 26.7033 19.926 24.4013 21.9241L23.3956 20.7636C25.0679 19.3133 27.0665 18.2897 29.2207 17.7803C31.3748 17.2709 33.6202 17.2909 35.765 17.8386C37.9097 18.3863 39.8898 19.4453 41.5359 20.9252C43.1821 22.405 44.4452 24.2616 45.2174 26.3361C45.9895 28.4106 46.2476 30.6413 45.9696 32.8373C45.6916 35.0333 44.8858 37.1293 43.6211 38.946C42.3564 40.7627 40.6704 42.2459 38.7074 43.2689C36.7444 44.2919 34.5629 44.8241 32.3493 44.8201Z" fill="#6D4DF2"/>
</svg>
