<svg width="48" height="48" viewBox="0 0 48 48" fill="none" xmlns="http://www.w3.org/2000/svg">
<g clip-path="url(#clip0_886_2353)">
<path d="M36.75 48.0001H17.25C17.0511 48.0001 16.8603 47.921 16.7197 47.7804C16.579 47.6397 16.5 47.449 16.5 47.2501V37.5001H11.25C10.2558 37.4989 9.30267 37.1034 8.59967 36.4004C7.89666 35.6974 7.50119 34.7443 7.5 33.7501V30.0001H4.6875C4.23902 30.0002 3.7992 29.8766 3.41646 29.6429C3.03371 29.4091 2.72291 29.0743 2.51826 28.6752C2.31361 28.2762 2.22306 27.8284 2.25658 27.3812C2.2901 26.9339 2.4464 26.5047 2.70825 26.1406L7.5 17.7976C7.53166 15.3744 8.05026 12.9824 9.02496 10.7637C9.99966 8.54503 11.4106 6.545 13.1738 4.88256C14.9625 3.18797 17.083 1.88238 19.4015 1.04811C21.7199 0.213843 24.1861 -0.131006 26.6445 0.0353074C31.0466 0.352845 35.1826 2.26162 38.2804 5.40527C41.3783 8.54892 43.2261 12.7125 43.479 17.1188C43.6 19.4815 43.2513 21.8448 42.4531 24.0719C41.655 26.299 40.4232 28.3458 38.829 30.0938C37.9681 31.0478 37.4941 32.2888 37.5 33.5738V42.7501C37.5 42.949 37.421 43.1397 37.2803 43.2804C37.1397 43.421 36.9489 43.5001 36.75 43.5001C36.5511 43.5001 36.3603 43.421 36.2197 43.2804C36.079 43.1397 36 42.949 36 42.7501V33.5738C35.9931 31.9154 36.6056 30.3141 37.7175 29.0836C39.1788 27.4812 40.308 25.605 41.0397 23.5636C41.7714 21.5221 42.0912 19.3559 41.9805 17.1901C41.7487 13.1514 40.0549 9.33513 37.2154 6.45382C34.3759 3.57252 30.5849 1.82313 26.55 1.53231C24.2992 1.38878 22.0429 1.70822 19.9204 2.47088C17.7979 3.23355 15.8543 4.42325 14.2096 5.9665C12.565 7.50976 11.2541 9.37382 10.3581 11.4435C9.46205 13.5133 8.99984 15.7447 9 18.0001C9.00022 18.1316 8.96582 18.261 8.90025 18.3751L3.98775 26.9251C3.97269 26.9512 3.9559 26.9762 3.9375 27.0001C3.83304 27.1393 3.76942 27.305 3.75379 27.4784C3.73815 27.6518 3.77111 27.8261 3.84897 27.9818C3.92684 28.1375 4.04652 28.2685 4.19463 28.36C4.34273 28.4516 4.5134 28.5001 4.6875 28.5001H8.25C8.44891 28.5001 8.63968 28.5791 8.78033 28.7197C8.92098 28.8604 9 29.0511 9 29.2501V33.7501C9 34.3468 9.23705 34.9191 9.65901 35.341C10.081 35.763 10.6533 36.0001 11.25 36.0001H17.25C17.4489 36.0001 17.6397 36.0791 17.7803 36.2197C17.921 36.3604 18 36.5511 18 36.7501V46.5001H36V45.7501C36 45.5511 36.079 45.3604 36.2197 45.2197C36.3603 45.0791 36.5511 45.0001 36.75 45.0001C36.9489 45.0001 37.1397 45.0791 37.2803 45.2197C37.421 45.3604 37.5 45.5511 37.5 45.7501V47.2501C37.5 47.449 37.421 47.6397 37.2803 47.7804C37.1397 47.921 36.9489 48.0001 36.75 48.0001Z" fill="#6D4DF2"/>
<path d="M22.5 29.25C22.3011 29.25 22.1103 29.171 21.9697 29.0303C21.829 28.8897 21.75 28.6989 21.75 28.5V25.998C20.1864 25.3274 18.8548 24.2115 17.9212 22.7892C16.9876 21.3669 16.4933 19.7013 16.5 18C16.5 15.6131 17.4482 13.3239 19.136 11.636C20.8239 9.94821 23.1131 9 25.5 9C27.8869 9 30.1761 9.94821 31.864 11.636C33.5518 13.3239 34.5 15.6131 34.5 18C34.5109 19.309 34.2205 20.603 33.6512 21.7817C33.082 22.9605 32.2492 23.9926 31.2173 24.798C31.1405 24.8615 31.0518 24.9091 30.9564 24.938C30.861 24.9669 30.7608 24.9765 30.6617 24.9662C30.5625 24.9559 30.4665 24.926 30.379 24.8781C30.2916 24.8303 30.2146 24.7655 30.1525 24.6875C30.0904 24.6096 30.0444 24.52 30.0173 24.4241C29.9902 24.3282 29.9825 24.2279 29.9946 24.1289C30.0068 24.03 30.0385 23.9345 30.088 23.848C30.1374 23.7614 30.2037 23.6856 30.2827 23.625C31.1369 22.9587 31.8262 22.1048 32.2974 21.1294C32.7686 20.154 33.009 19.0832 33 18C33 16.0109 32.2098 14.1032 30.8033 12.6967C29.3968 11.2902 27.4891 10.5 25.5 10.5C23.5109 10.5 21.6032 11.2902 20.1967 12.6967C18.7902 14.1032 18 16.0109 18 18C17.9996 19.4869 18.4577 20.9377 19.3118 22.1547C20.166 23.3717 21.3746 24.2958 22.773 24.801C22.9136 24.856 23.0344 24.9521 23.1195 25.0768C23.2046 25.2015 23.2501 25.349 23.25 25.5V27.5393L27.75 26.4143V25.5C27.75 25.3011 27.829 25.1103 27.9697 24.9697C28.1103 24.829 28.3011 24.75 28.5 24.75C28.6989 24.75 28.8897 24.829 29.0303 24.9697C29.171 25.1103 29.25 25.3011 29.25 25.5V27C29.25 27.1672 29.1941 27.3296 29.0913 27.4614C28.9884 27.5932 28.8444 27.6869 28.6823 27.7275L22.6823 29.2275C22.6227 29.2424 22.5614 29.25 22.5 29.25Z" fill="#6D4DF2"/>
<path d="M22.5 31.5C22.3171 31.4998 22.1405 31.4327 22.0036 31.3114C21.8666 31.1901 21.7787 31.023 21.7564 30.8414C21.7341 30.6598 21.7789 30.4764 21.8825 30.3255C21.986 30.1747 22.1411 30.0669 22.3185 30.0225L28.3185 28.5225C28.4143 28.4977 28.5141 28.4922 28.612 28.5062C28.7099 28.5202 28.8042 28.5534 28.8892 28.604C28.9743 28.6545 29.0485 28.7214 29.1075 28.8008C29.1666 28.8802 29.2094 28.9704 29.2335 29.0664C29.2575 29.1624 29.2623 29.2622 29.2476 29.36C29.2329 29.4579 29.199 29.5518 29.1479 29.6365C29.0967 29.7212 29.0293 29.7949 28.9495 29.8534C28.8697 29.912 28.7791 29.9541 28.683 29.9775L22.683 31.4775C22.6232 31.4926 22.5617 31.5002 22.5 31.5Z" fill="#6D4DF2"/>
<path d="M22.5 33.75C22.3171 33.7498 22.1405 33.6827 22.0036 33.5614C21.8666 33.4401 21.7787 33.273 21.7564 33.0914C21.7341 32.9098 21.7789 32.7264 21.8825 32.5755C21.986 32.4247 22.1411 32.3169 22.3185 32.2725L28.3185 30.7725C28.4143 30.7477 28.5141 30.7422 28.612 30.7562C28.7099 30.7702 28.8042 30.8034 28.8892 30.854C28.9743 30.9045 29.0485 30.9714 29.1075 31.0508C29.1666 31.1302 29.2094 31.2204 29.2335 31.3164C29.2575 31.4124 29.2623 31.5122 29.2476 31.61C29.2329 31.7079 29.199 31.8018 29.1479 31.8865C29.0967 31.9712 29.0293 32.0449 28.9495 32.1034C28.8697 32.162 28.7791 32.2041 28.683 32.2275L22.683 33.7275C22.6232 33.7426 22.5617 33.7502 22.5 33.75Z" fill="#6D4DF2"/>
<path d="M25.5 35.25C24.9033 35.25 24.331 35.0129 23.909 34.591C23.4871 34.169 23.25 33.5967 23.25 33C23.25 32.8011 23.329 32.6103 23.4697 32.4697C23.6103 32.329 23.8011 32.25 24 32.25C24.1989 32.25 24.3897 32.329 24.5303 32.4697C24.671 32.6103 24.75 32.8011 24.75 33C24.75 33.1989 24.829 33.3897 24.9697 33.5303C25.1103 33.671 25.3011 33.75 25.5 33.75C25.6989 33.75 25.8897 33.671 26.0303 33.5303C26.171 33.3897 26.25 33.1989 26.25 33V32.25C26.25 32.0511 26.329 31.8603 26.4697 31.7197C26.6103 31.579 26.8011 31.5 27 31.5C27.1989 31.5 27.3897 31.579 27.5303 31.7197C27.671 31.8603 27.75 32.0511 27.75 32.25V33C27.75 33.5967 27.5129 34.169 27.091 34.591C26.669 35.0129 26.0967 35.25 25.5 35.25Z" fill="#6D4DF2"/>
<path d="M26.25 26.25H24.75C24.5871 26.2499 24.4287 26.1968 24.2986 26.0987C24.1686 26.0006 24.074 25.8628 24.0293 25.7062L22.5292 20.4562C22.4892 20.3163 22.4907 20.1677 22.5336 20.0286C22.5765 19.8895 22.659 19.7659 22.7709 19.6729C22.8829 19.5799 23.0195 19.5215 23.1641 19.5047C23.3087 19.488 23.455 19.5137 23.5852 19.5787C24.1856 19.8986 24.8313 20.1249 25.5 20.25C26.1688 20.1254 26.8146 19.899 27.4147 19.5787C27.545 19.5137 27.6913 19.488 27.8359 19.5047C27.9805 19.5215 28.1171 19.5799 28.2291 19.6729C28.341 19.7659 28.4235 19.8895 28.4664 20.0286C28.5093 20.1677 28.5108 20.3163 28.4707 20.4562L26.9707 25.7062C26.926 25.8628 26.8314 26.0006 26.7014 26.0987C26.5713 26.1968 26.4129 26.2499 26.25 26.25ZM25.3155 24.75H25.6845L26.6032 21.5332C26.2481 21.6592 25.8764 21.7323 25.5 21.75C25.1236 21.7323 24.7519 21.6592 24.3967 21.5332L25.3155 24.75Z" fill="#6D4DF2"/>
<path d="M25.5 7.5C25.3011 7.5 25.1103 7.42098 24.9697 7.28033C24.829 7.13968 24.75 6.94891 24.75 6.75V6C24.75 5.80109 24.829 5.61032 24.9697 5.46967C25.1103 5.32902 25.3011 5.25 25.5 5.25C25.6989 5.25 25.8897 5.32902 26.0303 5.46967C26.171 5.61032 26.25 5.80109 26.25 6V6.75C26.25 6.94891 26.171 7.13968 26.0303 7.28033C25.8897 7.42098 25.6989 7.5 25.5 7.5Z" fill="#6D4DF2"/>
<path d="M19.875 9.00745C19.7432 9.00757 19.6137 8.97298 19.4996 8.90715C19.3854 8.84132 19.2906 8.74657 19.2248 8.63245L18.8498 7.98295C18.7997 7.89762 18.7671 7.80324 18.7537 7.70524C18.7403 7.60724 18.7464 7.50756 18.7717 7.41194C18.797 7.31631 18.8409 7.22663 18.901 7.14806C18.9611 7.06949 19.0361 7.00358 19.1218 6.95412C19.2074 6.90467 19.302 6.87264 19.4001 6.85989C19.4982 6.84714 19.5978 6.85392 19.6933 6.87984C19.7887 6.90575 19.8781 6.95029 19.9563 7.0109C20.0345 7.0715 20.0999 7.14696 20.1488 7.23295L20.5238 7.88245C20.5895 7.9964 20.6242 8.12567 20.6242 8.25725C20.6243 8.38884 20.5897 8.51812 20.5239 8.63211C20.4582 8.74611 20.3636 8.8408 20.2497 8.90668C20.1358 8.97256 20.0066 9.00731 19.875 9.00745Z" fill="#6D4DF2"/>
<path d="M15.7568 13.125C15.6251 13.1253 15.4957 13.0906 15.3818 13.0245L14.7322 12.6495C14.6463 12.6007 14.5708 12.5352 14.5102 12.4571C14.4496 12.3789 14.4051 12.2895 14.3791 12.1941C14.3532 12.0986 14.3464 11.999 14.3592 11.9009C14.3719 11.8028 14.404 11.7082 14.4534 11.6226C14.5029 11.5369 14.5688 11.4619 14.6474 11.4018C14.7259 11.3417 14.8156 11.2978 14.9112 11.2725C15.0069 11.2472 15.1065 11.2411 15.2045 11.2545C15.3025 11.2679 15.3969 11.3005 15.4822 11.3505L16.1318 11.7255C16.2747 11.8081 16.3865 11.9355 16.4496 12.0881C16.5128 12.2406 16.5239 12.4097 16.4812 12.5692C16.4384 12.7286 16.3443 12.8695 16.2133 12.9701C16.0823 13.0706 15.9218 13.125 15.7568 13.125Z" fill="#6D4DF2"/>
<path d="M14.25 18.75H13.5C13.3011 18.75 13.1103 18.671 12.9697 18.5303C12.829 18.3897 12.75 18.1989 12.75 18C12.75 17.8011 12.829 17.6103 12.9697 17.4697C13.1103 17.329 13.3011 17.25 13.5 17.25H14.25C14.4489 17.25 14.6397 17.329 14.7803 17.4697C14.921 17.6103 15 17.8011 15 18C15 18.1989 14.921 18.3897 14.7803 18.5303C14.6397 18.671 14.4489 18.75 14.25 18.75Z" fill="#6D4DF2"/>
<path d="M15.1088 24.75C14.9437 24.75 14.7832 24.6956 14.6522 24.5951C14.5212 24.4945 14.4271 24.3536 14.3843 24.1942C14.3416 24.0347 14.3527 23.8656 14.4159 23.7131C14.479 23.5605 14.5908 23.4331 14.7338 23.3505L15.3833 22.9755C15.4686 22.9255 15.563 22.8929 15.661 22.8795C15.759 22.8661 15.8586 22.8722 15.9543 22.8975C16.0499 22.9228 16.1396 22.9667 16.2181 23.0268C16.2967 23.0869 16.3626 23.1619 16.4121 23.2476C16.4615 23.3332 16.4936 23.4278 16.5063 23.5259C16.5191 23.624 16.5123 23.7236 16.4864 23.8191C16.4604 23.9145 16.4159 24.0039 16.3553 24.0821C16.2947 24.1602 16.2192 24.2257 16.1333 24.2745L15.4838 24.6495C15.3697 24.7154 15.2404 24.75 15.1088 24.75Z" fill="#6D4DF2"/>
<path d="M35.8913 24.75C35.7596 24.75 35.6303 24.7154 35.5163 24.6495L34.8668 24.2745C34.7808 24.2257 34.7053 24.1602 34.6447 24.0821C34.5841 24.0039 34.5396 23.9145 34.5136 23.8191C34.4877 23.7236 34.4809 23.624 34.4937 23.5259C34.5064 23.4278 34.5385 23.3332 34.5879 23.2476C34.6374 23.1619 34.7033 23.0869 34.7819 23.0268C34.8604 22.9667 34.9501 22.9228 35.0457 22.8975C35.1414 22.8722 35.241 22.8661 35.339 22.8795C35.437 22.8929 35.5314 22.9255 35.6168 22.9755L36.2663 23.3505C36.4092 23.4331 36.521 23.5605 36.5841 23.7131C36.6473 23.8656 36.6584 24.0347 36.6157 24.1942C36.5729 24.3536 36.4788 24.4945 36.3478 24.5951C36.2168 24.6956 36.0563 24.75 35.8913 24.75Z" fill="#6D4DF2"/>
<path d="M37.5 18.75H36.75C36.5511 18.75 36.3603 18.671 36.2197 18.5303C36.079 18.3897 36 18.1989 36 18C36 17.8011 36.079 17.6103 36.2197 17.4697C36.3603 17.329 36.5511 17.25 36.75 17.25H37.5C37.6989 17.25 37.8897 17.329 38.0303 17.4697C38.171 17.6103 38.25 17.8011 38.25 18C38.25 18.1989 38.171 18.3897 38.0303 18.5303C37.8897 18.671 37.6989 18.75 37.5 18.75Z" fill="#6D4DF2"/>
<path d="M35.2433 13.125C35.0782 13.125 34.9177 13.0706 34.7867 12.9701C34.6557 12.8695 34.5616 12.7286 34.5188 12.5692C34.4761 12.4097 34.4872 12.2406 34.5504 12.0881C34.6135 11.9355 34.7253 11.8081 34.8683 11.7255L35.5177 11.3505C35.6031 11.3005 35.6975 11.2679 35.7955 11.2545C35.8935 11.2411 35.9931 11.2472 36.0888 11.2725C36.1844 11.2978 36.2741 11.3417 36.3526 11.4018C36.4312 11.4619 36.4971 11.5369 36.5466 11.6226C36.596 11.7082 36.6281 11.8028 36.6408 11.9009C36.6536 11.999 36.6468 12.0986 36.6209 12.1941C36.5949 12.2895 36.5504 12.3789 36.4898 12.4571C36.4292 12.5352 36.3537 12.6007 36.2677 12.6495L35.6183 13.0245C35.5043 13.0906 35.3749 13.1253 35.2433 13.125Z" fill="#6D4DF2"/>
<path d="M31.125 9.00745C30.9934 9.00731 30.8642 8.97256 30.7503 8.90668C30.6364 8.8408 30.5418 8.74611 30.4761 8.63211C30.4103 8.51812 30.3757 8.38884 30.3758 8.25725C30.3758 8.12567 30.4105 7.9964 30.4762 7.88245L30.8512 7.23295C30.9001 7.14696 30.9655 7.0715 31.0437 7.0109C31.1219 6.95029 31.2113 6.90575 31.3067 6.87984C31.4022 6.85392 31.5018 6.84714 31.5999 6.85989C31.698 6.87264 31.7926 6.90467 31.8782 6.95412C31.9639 7.00358 32.0389 7.06949 32.099 7.14806C32.1591 7.22663 32.203 7.31631 32.2283 7.41194C32.2536 7.50756 32.2597 7.60724 32.2463 7.70524C32.2329 7.80324 32.2003 7.89762 32.1503 7.98295L31.7753 8.63245C31.7094 8.74657 31.6146 8.84132 31.5004 8.90715C31.3863 8.97298 31.2568 9.00757 31.125 9.00745Z" fill="#6D4DF2"/>
</g>
<defs>
<clipPath id="clip0_886_2353">
<rect width="48" height="48" fill="white"/>
</clipPath>
</defs>
</svg>
