<svg width="17" height="16" viewBox="0 0 17 16" fill="none" xmlns="http://www.w3.org/2000/svg">
<path d="M6.8881 1.26869C7.42693 -0.389668 9.77307 -0.389667 10.3119 1.26869L11.0248 3.46262C11.2657 4.20426 11.9568 4.70639 12.7367 4.70639H15.0435C16.7872 4.70639 17.5122 6.93769 16.1015 7.96262L14.2352 9.31854C13.6044 9.7769 13.3404 10.5894 13.5813 11.331L14.2942 13.5249C14.833 15.1833 12.935 16.5623 11.5243 15.5374L9.65801 14.1815C9.02713 13.7231 8.17286 13.7231 7.54199 14.1815L5.67572 15.5374C4.26504 16.5623 2.36697 15.1833 2.90581 13.5249L3.61866 11.331C3.85963 10.5894 3.59565 9.7769 2.96477 9.31854L1.0985 7.96262C-0.312181 6.93769 0.412817 4.70639 2.15652 4.70639H4.46335C5.24316 4.70639 5.93428 4.20426 6.17525 3.46262L6.8881 1.26869Z" fill="#F28833"/>
</svg>
