<svg width="49" height="48" viewBox="0 0 49 48" fill="none" xmlns="http://www.w3.org/2000/svg">
<g clip-path="url(#clip0_399_9755)">
<path d="M41 30.7501C40.9033 30.7504 40.8074 30.7315 40.718 30.6946C40.6245 30.6567 40.5396 30.6005 40.4683 30.5291C40.3971 30.4577 40.3409 30.3726 40.3033 30.2791L34.3033 15.2791C34.2311 15.0988 34.2316 14.8975 34.3048 14.7176C34.3779 14.5378 34.518 14.3933 34.6955 14.3146L41.4455 11.3146C41.5377 11.2735 41.6372 11.2515 41.7381 11.2499C41.839 11.2482 41.9391 11.2669 42.0326 11.3048C42.1261 11.3428 42.211 11.3992 42.2821 11.4707C42.3533 11.5422 42.4093 11.6274 42.4468 11.7211L48.4468 26.7211C48.519 26.9013 48.5185 27.1026 48.4453 27.2825C48.3721 27.4623 48.2321 27.6068 48.0545 27.6856L41.3045 30.6856C41.2087 30.7281 41.1049 30.7501 41 30.7501ZM35.9645 15.3923L41.4073 28.9988L46.7855 26.6078L41.3428 13.0013L35.9645 15.3923Z" fill="#6D4DF2"/>
<path d="M21.2159 23.3536C20.4562 23.352 19.7211 23.0847 19.1377 22.5981C18.5544 22.1115 18.1596 21.4362 18.0218 20.6891C17.884 19.9421 18.0118 19.1703 18.3831 18.5076C18.7544 17.8449 19.3458 17.3329 20.0549 17.0603L27.2309 14.3003C27.3686 14.2473 27.5188 14.2361 27.6629 14.2681L34.3326 15.7501H35.0001C35.199 15.7501 35.3898 15.8291 35.5304 15.9697C35.6711 16.1104 35.7501 16.3012 35.7501 16.5001C35.7501 16.699 35.6711 16.8897 35.5304 17.0304C35.3898 17.1711 35.199 17.2501 35.0001 17.2501H34.2501C34.1954 17.2501 34.1408 17.2441 34.0874 17.2321L27.5624 15.7816L20.5971 18.4598C20.1679 18.6304 19.8232 18.9633 19.6379 19.3864C19.4527 19.8095 19.4417 20.2886 19.6075 20.7198C19.7733 21.1509 20.1024 21.4992 20.5235 21.6891C20.9445 21.8791 21.4234 21.8953 21.8564 21.7343L29.4846 18.8003C29.5771 18.762 29.6763 18.7427 29.7764 18.7433C29.8764 18.744 29.9754 18.7647 30.0673 18.8041C30.1593 18.8436 30.2424 18.9011 30.3118 18.9732C30.3812 19.0453 30.4355 19.1306 30.4714 19.224C30.5073 19.3174 30.5242 19.417 30.5211 19.517C30.5179 19.6171 30.4947 19.7155 30.453 19.8064C30.4112 19.8973 30.3516 19.979 30.2778 20.0466C30.204 20.1141 30.1174 20.1662 30.0231 20.1998L22.3911 23.1338C22.0163 23.2789 21.6178 23.3534 21.2159 23.3536Z" fill="#6D4DF2"/>
<path d="M35.0534 34.4716C34.7093 34.4719 34.3685 34.4043 34.0505 34.2728C33.7325 34.1413 33.4436 33.9483 33.2002 33.7051C33.0594 33.5644 32.9803 33.3737 32.9803 33.1747C32.9802 32.9757 33.0592 32.7849 33.1998 32.6442C33.3404 32.5035 33.5312 32.4244 33.7302 32.4243C33.9291 32.4242 34.12 32.5032 34.2607 32.6438C34.472 32.8545 34.7584 32.9725 35.0568 32.972C35.3552 32.9715 35.6412 32.8525 35.8518 32.6412C36.0625 32.4298 36.1805 32.1435 36.18 31.8451C36.1795 31.5467 36.0605 31.2607 35.8492 31.0501L26.3242 21.5251C26.2525 21.4559 26.1954 21.3731 26.1561 21.2816C26.1168 21.1901 26.0961 21.0917 26.0952 20.9921C26.0944 20.8925 26.1134 20.7938 26.1511 20.7016C26.1888 20.6094 26.2445 20.5257 26.3149 20.4553C26.3853 20.3848 26.469 20.3292 26.5612 20.2914C26.6534 20.2537 26.7521 20.2348 26.8517 20.2356C26.9513 20.2365 27.0497 20.2572 27.1412 20.2965C27.2327 20.3358 27.3155 20.3929 27.3847 20.4646L36.9097 29.9896C37.2761 30.3568 37.5254 30.8243 37.6263 31.3332C37.7271 31.842 37.675 32.3693 37.4764 32.8486C37.2778 33.3278 36.9416 33.7374 36.5104 34.0257C36.0792 34.3141 35.5722 34.4682 35.0534 34.4686V34.4716Z" fill="#6D4DF2"/>
<path d="M32.7499 37.4723C32.4051 37.4729 32.0637 37.4054 31.7451 37.2736C31.4266 37.1418 31.1372 36.9483 30.8936 36.7043L27.8936 33.7043C27.757 33.5629 27.6814 33.3734 27.6831 33.1768C27.6848 32.9801 27.7637 32.792 27.9028 32.653C28.0418 32.5139 28.2299 32.435 28.4266 32.4333C28.6232 32.4316 28.8127 32.5072 28.9541 32.6438L31.9541 35.6438C32.1655 35.8549 32.452 35.9733 32.7507 35.9731C33.0494 35.9729 33.3357 35.8541 33.5468 35.6427C33.7578 35.4314 33.8763 35.1448 33.876 34.8462C33.8758 34.5475 33.757 34.2611 33.5456 34.0501L30.5456 31.0501C30.409 30.9086 30.3334 30.7192 30.3351 30.5225C30.3368 30.3259 30.4157 30.1378 30.5548 29.9987C30.6938 29.8597 30.8819 29.7808 31.0786 29.7791C31.2752 29.7774 31.4647 29.853 31.6061 29.9896L34.6061 32.9896C34.9738 33.3566 35.2243 33.8245 35.3259 34.334C35.4275 34.8435 35.3756 35.3716 35.1769 35.8516C34.9781 36.3316 34.6414 36.7418 34.2094 37.0303C33.7773 37.3188 33.2694 37.4727 32.7499 37.4723Z" fill="#6D4DF2"/>
<path d="M29.3481 39.3749C29.0033 39.3759 28.6616 39.3084 28.343 39.1765C28.0244 39.0445 27.7351 38.8507 27.4919 38.6061L26.2169 37.3311C26.0803 37.1897 26.0047 37.0002 26.0064 36.8036C26.0081 36.6069 26.087 36.4188 26.226 36.2798C26.3651 36.1407 26.5532 36.0618 26.7498 36.0601C26.9465 36.0584 27.1359 36.134 27.2774 36.2706L28.5524 37.5456C28.7668 37.75 29.0516 37.864 29.3478 37.864C29.6439 37.864 29.9287 37.75 30.1431 37.5456C30.2477 37.4412 30.3306 37.3171 30.3872 37.1806C30.4438 37.044 30.4729 36.8977 30.4729 36.7499C30.4729 36.6021 30.4438 36.4557 30.3872 36.3192C30.3306 36.1827 30.2477 36.0586 30.1431 35.9541L27.8931 33.7041C27.7565 33.5627 27.6809 33.3732 27.6826 33.1766C27.6843 32.9799 27.7632 32.7918 27.9023 32.6528C28.0413 32.5137 28.2294 32.4348 28.4261 32.4331C28.6227 32.4314 28.8122 32.507 28.9536 32.6436L31.2036 34.8936C31.5707 35.2607 31.8208 35.7284 31.9221 36.2375C32.0234 36.7467 31.9715 37.2745 31.7729 37.7541C31.5743 38.2338 31.2379 38.6438 30.8063 38.9322C30.3747 39.2207 29.8673 39.3748 29.3481 39.3749Z" fill="#6D4DF2"/>
<path d="M25.9467 41.2755C25.6019 41.2762 25.2605 41.2086 24.9419 41.0768C24.6233 40.945 24.334 40.7515 24.0904 40.5075L23.2197 39.6367C23.1481 39.5676 23.0909 39.4848 23.0516 39.3933C23.0123 39.3018 22.9916 39.2034 22.9908 39.1038C22.9899 39.0042 23.0089 38.9055 23.0466 38.8133C23.0843 38.7211 23.14 38.6374 23.2104 38.5669C23.2808 38.4965 23.3646 38.4408 23.4567 38.4031C23.5489 38.3654 23.6477 38.3464 23.7472 38.3473C23.8468 38.3482 23.9452 38.3689 24.0367 38.4082C24.1282 38.4475 24.211 38.5046 24.2802 38.5762L25.1509 39.45C25.2547 39.5574 25.3789 39.6431 25.5161 39.7021C25.6534 39.7611 25.801 39.7921 25.9504 39.7934C26.0997 39.7947 26.2479 39.7662 26.3861 39.7097C26.5244 39.6531 26.65 39.5696 26.7556 39.4639C26.8613 39.3583 26.9448 39.2327 27.0014 39.0944C27.0579 38.9562 27.0864 38.808 27.0851 38.6587C27.0838 38.5093 27.0528 38.3617 26.9938 38.2244C26.9348 38.0872 26.8491 37.963 26.7417 37.8592L26.2167 37.3342C26.147 37.2646 26.0917 37.1819 26.054 37.0909C26.0163 36.9999 25.9968 36.9024 25.9968 36.8039C25.9968 36.7054 26.0161 36.6078 26.0538 36.5168C26.0915 36.4258 26.1467 36.3431 26.2163 36.2734C26.2859 36.2037 26.3686 36.1484 26.4596 36.1107C26.5506 36.0729 26.6482 36.0535 26.7467 36.0535C26.8452 36.0534 26.9427 36.0728 27.0338 36.1105C27.1248 36.1481 27.2075 36.2034 27.2772 36.273L27.8022 36.798C28.1691 37.1651 28.4189 37.6328 28.52 38.1419C28.6212 38.651 28.5692 39.1787 28.3705 39.6582C28.1718 40.1377 27.8355 40.5476 27.4039 40.836C26.9724 41.1244 26.465 41.2784 25.9459 41.2785L25.9467 41.2755Z" fill="#6D4DF2"/>
<path d="M36.4999 30.7499C36.3294 30.752 36.1632 30.6959 36.0288 30.5909C35.8944 30.4858 35.7999 30.3381 35.7607 30.1721C35.7216 30.0061 35.7402 29.8317 35.8135 29.6777C35.8868 29.5237 36.0104 29.3992 36.1639 29.3249L39.1639 27.8249C39.2521 27.7809 39.348 27.7547 39.4463 27.7477C39.5446 27.7408 39.6433 27.7533 39.7368 27.7845C39.8302 27.8157 39.9166 27.865 39.991 27.9296C40.0654 27.9941 40.1264 28.0728 40.1704 28.1609C40.2144 28.2491 40.2407 28.345 40.2476 28.4433C40.2546 28.5416 40.2421 28.6403 40.2109 28.7338C40.1797 28.8272 40.1304 28.9136 40.0658 28.988C40.0012 29.0624 39.9226 29.1234 39.8344 29.1674L36.8344 30.6674C36.7308 30.7205 36.6163 30.7487 36.4999 30.7499Z" fill="#6D4DF2"/>
<path d="M8.00003 30.7501C7.89514 30.7501 7.79141 30.7281 7.69553 30.6856L0.945533 27.6856C0.768004 27.6068 0.627925 27.4623 0.554768 27.2825C0.48161 27.1026 0.481078 26.9013 0.553283 26.7211L6.55328 11.7211C6.59077 11.6274 6.64678 11.5422 6.71794 11.4707C6.78911 11.3992 6.87397 11.3428 6.96745 11.3048C7.06093 11.2669 7.1611 11.2482 7.26198 11.2499C7.36286 11.2515 7.46236 11.2735 7.55453 11.3146L14.3045 14.3146C14.4821 14.3933 14.6221 14.5378 14.6953 14.7176C14.7685 14.8975 14.769 15.0988 14.6968 15.2791L8.69678 30.2791C8.65915 30.3726 8.60302 30.4577 8.53175 30.5291C8.46049 30.6005 8.37555 30.6567 8.28203 30.6946C8.19262 30.7315 8.09677 30.7504 8.00003 30.7501ZM2.21453 26.6078L7.59278 28.9988L13.0355 15.3923L7.65728 13.0013L2.21453 26.6078Z" fill="#6D4DF2"/>
<path d="M14.75 17.2501H14C13.8011 17.2501 13.6103 17.1711 13.4697 17.0304C13.329 16.8897 13.25 16.699 13.25 16.5001C13.25 16.3012 13.329 16.1104 13.4697 15.9697C13.6103 15.8291 13.8011 15.7501 14 15.7501H14.6683L21.338 14.2681C21.482 14.2361 21.6323 14.2473 21.77 14.3003L24.77 15.4538C24.9557 15.5252 25.1054 15.6675 25.1862 15.8493C25.267 16.0311 25.2723 16.2375 25.2009 16.4232C25.1295 16.6089 24.9872 16.7586 24.8054 16.8394C24.6236 16.9202 24.4172 16.9255 24.2315 16.8541L21.4423 15.7816L14.9135 17.2321C14.8598 17.2441 14.805 17.2502 14.75 17.2501Z" fill="#6D4DF2"/>
<path d="M11.7498 30.0001C11.6019 30 11.4574 29.9561 11.3343 29.8741L9.08433 28.3741C9.00239 28.3194 8.93201 28.2492 8.87722 28.1673C8.82243 28.0854 8.7843 27.9936 8.76501 27.897C8.74572 27.8004 8.74565 27.701 8.76479 27.6043C8.78393 27.5077 8.82192 27.4158 8.87658 27.3338C8.93124 27.2519 9.00151 27.1815 9.08337 27.1267C9.16523 27.0719 9.25708 27.0338 9.35368 27.0145C9.45028 26.9952 9.54973 26.9952 9.64635 27.0143C9.74298 27.0334 9.83489 27.0714 9.91683 27.1261L12.1668 28.6261C12.3008 28.7154 12.4025 28.8455 12.4568 28.9971C12.5111 29.1487 12.5152 29.3138 12.4684 29.4679C12.4217 29.622 12.3265 29.757 12.1971 29.8528C12.0677 29.9486 11.9109 30.0003 11.7498 30.0001Z" fill="#6D4DF2"/>
<path d="M13.9466 32.9714C13.602 32.9721 13.2606 32.9047 12.9421 32.7732C12.6235 32.6417 12.3341 32.4485 12.0903 32.2049C11.5982 31.7126 11.3218 31.0451 11.3218 30.349C11.3218 29.653 11.5982 28.9854 12.0903 28.4932L14.7423 25.8412C15.2346 25.3488 15.9024 25.0723 16.5986 25.0723C17.2948 25.0723 17.9625 25.3488 18.4548 25.8412C18.9471 26.3335 19.2237 27.0012 19.2237 27.6974C19.2237 28.3936 18.9471 29.0613 18.4548 29.5536L15.7998 32.2041C15.5566 32.4477 15.2677 32.6409 14.9497 32.7726C14.6317 32.9042 14.2908 32.9718 13.9466 32.9714ZM13.1508 31.1437C13.2553 31.2482 13.3794 31.3311 13.5159 31.3877C13.6524 31.4443 13.7988 31.4734 13.9466 31.4734C14.0944 31.4734 14.2407 31.4443 14.3773 31.3877C14.5138 31.3311 14.6379 31.2482 14.7423 31.1437L17.3936 28.4924C17.6046 28.2811 17.7231 27.9945 17.7229 27.6959C17.7227 27.3972 17.6038 27.1108 17.3925 26.8998C17.1811 26.6887 16.8946 26.5703 16.5959 26.5705C16.2972 26.5707 16.0109 26.6896 15.7998 26.9009L13.1508 29.5499C13.046 29.6544 12.9627 29.7786 12.906 29.9154C12.8492 30.0521 12.82 30.1987 12.82 30.3468C12.82 30.4948 12.8492 30.6414 12.906 30.7782C12.9627 30.9149 13.046 31.0391 13.1508 31.1437Z" fill="#6D4DF2"/>
<path d="M16.2499 35.9722C15.7309 35.9721 15.2235 35.8181 14.792 35.5297C14.3604 35.2413 14.024 34.8314 13.8254 34.3519C13.6267 33.8724 13.5747 33.3447 13.6758 32.8356C13.777 32.3265 14.0268 31.8589 14.3937 31.4917L17.3937 28.4917C17.8937 28.0141 18.5585 27.7476 19.2499 27.7476C19.9414 27.7476 20.6062 28.0141 21.1062 28.4917C21.5983 28.984 21.8747 29.6515 21.8747 30.3476C21.8747 31.0436 21.5983 31.7112 21.1062 32.2035L18.1062 35.2035C17.8627 35.4476 17.5733 35.6412 17.2548 35.7731C16.9362 35.905 16.5947 35.9727 16.2499 35.9722ZM19.2499 29.2222C19.1022 29.222 18.9559 29.251 18.8194 29.3076C18.683 29.3643 18.5591 29.4474 18.4549 29.5522L15.4549 32.5522C15.3505 32.6567 15.2676 32.7808 15.2111 32.9173C15.1546 33.0538 15.1255 33.2001 15.1256 33.3478C15.1257 33.6462 15.2443 33.9324 15.4553 34.1433C15.6664 34.3543 15.9526 34.4727 16.2509 34.4727C16.3987 34.4726 16.545 34.4435 16.6815 34.3869C16.818 34.3304 16.942 34.2475 17.0464 34.143L20.0464 31.143C20.2037 30.9855 20.3107 30.785 20.3539 30.5668C20.3972 30.3486 20.3748 30.1224 20.2896 29.9169C20.2043 29.7114 20.06 29.5358 19.875 29.4122C19.6899 29.2887 19.4724 29.2221 19.2499 29.2222Z" fill="#6D4DF2"/>
<path d="M19.652 37.875C19.1328 37.875 18.6253 37.7211 18.1936 37.4326C17.7619 37.1442 17.4254 36.7342 17.2267 36.2545C17.028 35.7749 16.976 35.247 17.0773 34.7378C17.1786 34.2286 17.4286 33.7608 17.7958 33.3937L20.0458 31.1437C20.5459 30.6664 21.2107 30.4001 21.902 30.4001C22.5934 30.4001 23.2582 30.6664 23.7583 31.1437C24.0021 31.3875 24.1955 31.6769 24.3274 31.9954C24.4593 32.3139 24.5272 32.6552 24.5272 33C24.5272 33.3447 24.4593 33.6861 24.3274 34.0046C24.1955 34.3231 24.0021 34.6125 23.7583 34.8562L21.5083 37.1062C21.2652 37.3509 20.9759 37.5448 20.6573 37.6768C20.3386 37.8087 19.9969 37.8761 19.652 37.875ZM21.902 31.875C21.7542 31.8745 21.6078 31.9034 21.4712 31.9599C21.3346 32.0164 21.2106 32.0995 21.1063 32.2042L18.8563 34.4542C18.7518 34.5587 18.6688 34.6827 18.6122 34.8193C18.5557 34.9558 18.5265 35.1022 18.5265 35.25C18.5265 35.3978 18.5557 35.5441 18.6122 35.6807C18.6688 35.8172 18.7518 35.9412 18.8563 36.0457C19.0708 36.2499 19.3555 36.3638 19.6517 36.3638C19.9478 36.3638 20.2326 36.2499 20.447 36.0457L22.697 33.7957C22.8544 33.6384 22.9617 33.438 23.0051 33.2198C23.0486 33.0015 23.0264 32.7753 22.9413 32.5697C22.8562 32.3641 22.712 32.1884 22.527 32.0647C22.3421 31.941 22.1246 31.875 21.902 31.875Z" fill="#6D4DF2"/>
<path d="M23.0533 39.7755C22.5347 39.7746 22.0279 39.6202 21.597 39.3316C21.166 39.043 20.8303 38.6332 20.632 38.154C20.4337 37.6747 20.3819 37.1475 20.483 36.6388C20.5841 36.1301 20.8336 35.6628 21.2001 35.2957L22.7001 33.7957C22.9429 33.548 23.2324 33.3508 23.5519 33.2156C23.8714 33.0804 24.2146 33.0099 24.5615 33.0081C24.9084 33.0063 25.2522 33.0733 25.5731 33.2053C25.894 33.3372 26.1855 33.5314 26.4308 33.7767C26.6762 34.022 26.8705 34.3135 27.0025 34.6343C27.1345 34.9552 27.2015 35.299 27.1998 35.6459C27.1981 35.9928 27.1277 36.336 26.9926 36.6555C26.8574 36.975 26.6603 37.2646 26.4126 37.5075L24.9126 39.0075C24.6687 39.2519 24.3788 39.4456 24.0597 39.5774C23.7406 39.7092 23.3986 39.7765 23.0533 39.7755ZM24.5533 34.5255C24.4055 34.5254 24.2592 34.5545 24.1227 34.611C23.9861 34.6675 23.8621 34.7503 23.7576 34.8547L22.2576 36.3547C22.046 36.5658 21.927 36.8522 21.9266 37.151C21.9263 37.4499 22.0446 37.7366 22.2557 37.9481C22.4667 38.1597 22.7532 38.2787 23.052 38.2791C23.3508 38.2794 23.6375 38.161 23.8491 37.95L25.3491 36.45C25.5062 36.2926 25.6132 36.0922 25.6565 35.874C25.6999 35.6558 25.6775 35.4297 25.5923 35.2243C25.5072 35.0188 25.363 34.8432 25.1781 34.7196C24.9932 34.596 24.7757 34.53 24.5533 34.53V34.5255Z" fill="#6D4DF2"/>
</g>
<defs>
<clipPath id="clip0_399_9755">
<rect width="48" height="48" fill="white" transform="translate(0.5)"/>
</clipPath>
</defs>
</svg>
