<svg width="49" height="48" viewBox="0 0 49 48" fill="none" xmlns="http://www.w3.org/2000/svg">
<g clip-path="url(#clip0_399_9735)">
<path d="M21.5 43.5C17.3466 43.5 13.2865 42.2684 9.83303 39.9609C6.3796 37.6534 3.68798 34.3736 2.09854 30.5364C0.509099 26.6991 0.0932289 22.4767 0.903519 18.4031C1.71381 14.3295 3.71386 10.5877 6.65077 7.65077C9.58767 4.71386 13.3295 2.71381 17.4031 1.90352C21.4767 1.09323 25.6991 1.5091 29.5364 3.09854C33.3736 4.68798 36.6534 7.3796 38.9609 10.833C41.2684 14.2865 42.5 18.3466 42.5 22.5C42.5 22.6989 42.421 22.8897 42.2803 23.0303C42.1397 23.171 41.9489 23.25 41.75 23.25C41.5511 23.25 41.3603 23.171 41.2197 23.0303C41.079 22.8897 41 22.6989 41 22.5C41 18.6433 39.8564 14.8731 37.7137 11.6664C35.571 8.45963 32.5255 5.96027 28.9623 4.48436C25.3992 3.00845 21.4784 2.62228 17.6957 3.3747C13.9131 4.12711 10.4386 5.9843 7.71143 8.71143C4.9843 11.4386 3.12711 14.9131 2.3747 18.6957C1.62228 22.4784 2.00845 26.3992 3.48436 29.9623C4.96027 33.5255 7.45963 36.571 10.6664 38.7137C13.8731 40.8564 17.6433 42 21.5 42C21.6989 42 21.8897 42.079 22.0303 42.2197C22.171 42.3603 22.25 42.5511 22.25 42.75C22.25 42.9489 22.171 43.1397 22.0303 43.2803C21.8897 43.421 21.6989 43.5 21.5 43.5Z" fill="#6D4DF2"/>
<path d="M21.5 43.5C13.6423 43.5 7.25 34.0793 7.25 22.5C7.25 10.9207 13.6423 1.5 21.5 1.5C29.3577 1.5 35.75 10.9207 35.75 22.5C35.7547 24.8299 35.4902 27.1526 34.9618 29.4217C34.9392 29.5177 34.898 29.6083 34.8404 29.6884C34.7828 29.7684 34.7101 29.8363 34.6262 29.8883C34.5424 29.9402 34.4492 29.9751 34.3519 29.991C34.2546 30.0069 34.1551 30.0034 34.0591 29.9809C33.9631 29.9583 33.8725 29.9171 33.7925 29.8595C33.7125 29.8019 33.6445 29.7292 33.5926 29.6454C33.5407 29.5615 33.5058 29.4683 33.4899 29.371C33.474 29.2737 33.4774 29.1742 33.5 29.0783C34.0026 26.9217 34.2543 24.7143 34.25 22.5C34.25 11.748 28.5305 3 21.5 3C14.4695 3 8.75 11.748 8.75 22.5C8.75 33.252 14.4695 42 21.5 42C21.6989 42 21.8897 42.079 22.0303 42.2197C22.171 42.3603 22.25 42.5511 22.25 42.75C22.25 42.9489 22.171 43.1397 22.0303 43.2803C21.8897 43.421 21.6989 43.5 21.5 43.5Z" fill="#6D4DF2"/>
<path d="M21.5 43.5C17.561 43.5 15.5 32.9355 15.5 22.5C15.5 12.0645 17.561 1.5 21.5 1.5C25.439 1.5 27.5 12.0645 27.5 22.5C27.5 24.8363 27.398 27.1305 27.2 29.3182C27.1819 29.5165 27.0858 29.6994 26.9328 29.8267C26.7799 29.9541 26.5826 30.0155 26.3844 29.9974C26.1862 29.9793 26.0033 29.8832 25.8759 29.7302C25.7485 29.5773 25.6871 29.38 25.7052 29.1818C25.9017 27.039 26.0052 24.7913 26.0052 22.5C26.0052 10.4183 23.3847 3 21.5052 3C19.6258 3 17.0052 10.4183 17.0052 22.5C17.0052 34.5817 19.6258 42 21.5052 42C21.7042 42 21.8949 42.079 22.0356 42.2197C22.1762 42.3603 22.2552 42.5511 22.2552 42.75C22.2552 42.9489 22.1762 43.1397 22.0356 43.2803C21.8949 43.421 21.7042 43.5 21.5052 43.5H21.5Z" fill="#6D4DF2"/>
<path d="M41.75 23.25H4.25C4.05109 23.25 3.86032 23.171 3.71967 23.0303C3.57902 22.8897 3.5 22.6989 3.5 22.5C3.5 22.3011 3.57902 22.1103 3.71967 21.9697C3.86032 21.829 4.05109 21.75 4.25 21.75H41.75C41.9489 21.75 42.1397 21.829 42.2803 21.9697C42.421 22.1103 42.5 22.3011 42.5 22.5C42.5 22.6989 42.421 22.8897 42.2803 23.0303C42.1397 23.171 41.9489 23.25 41.75 23.25Z" fill="#6D4DF2"/>
<path d="M38 12H8C7.80109 12 7.61032 11.921 7.46967 11.7803C7.32902 11.6397 7.25 11.4489 7.25 11.25C7.25 11.0511 7.32902 10.8603 7.46967 10.7197C7.61032 10.579 7.80109 10.5 8 10.5H38C38.1989 10.5 38.3897 10.579 38.5303 10.7197C38.671 10.8603 38.75 11.0511 38.75 11.25C38.75 11.4489 38.671 11.6397 38.5303 11.7803C38.3897 11.921 38.1989 12 38 12Z" fill="#6D4DF2"/>
<path d="M19.25 34.5H8C7.80109 34.5 7.61032 34.421 7.46967 34.2803C7.32902 34.1397 7.25 33.9489 7.25 33.75C7.25 33.5511 7.32902 33.3603 7.46967 33.2197C7.61032 33.079 7.80109 33 8 33H19.25C19.4489 33 19.6397 33.079 19.7803 33.2197C19.921 33.3603 20 33.5511 20 33.75C20 33.9489 19.921 34.1397 19.7803 34.2803C19.6397 34.421 19.4489 34.5 19.25 34.5Z" fill="#6D4DF2"/>
<path d="M30.5001 46.5001C30.3012 46.5 30.1105 46.421 29.9698 46.2803L20.9698 37.2803C20.8292 37.1397 20.7502 36.949 20.7502 36.7501C20.7502 36.5512 20.8292 36.3605 20.9698 36.2198L24.7198 32.4698C24.8605 32.3292 25.0512 32.2502 25.2501 32.2502C25.449 32.2502 25.6397 32.3292 25.7803 32.4698L30.5001 37.1896L43.4698 24.2198C43.6105 24.0792 43.8012 24.0002 44.0001 24.0002C44.199 24.0002 44.3897 24.0792 44.5303 24.2198L48.2803 27.9698C48.4209 28.1105 48.4999 28.3012 48.4999 28.5001C48.4999 28.699 48.4209 28.8897 48.2803 29.0303L31.0303 46.2803C30.8897 46.421 30.699 46.5 30.5001 46.5001ZM22.5606 36.7501L30.5001 44.6896L46.6896 28.5001L44.0001 25.8106L31.0303 38.7803C30.8897 38.9209 30.699 38.9999 30.5001 38.9999C30.3012 38.9999 30.1105 38.9209 29.9698 38.7803L25.2501 34.0606L22.5606 36.7501Z" fill="#6D4DF2"/>
</g>
<defs>
<clipPath id="clip0_399_9735">
<rect width="48" height="48" fill="white" transform="translate(0.5)"/>
</clipPath>
</defs>
</svg>
