<svg width="49" height="48" viewBox="0 0 49 48" fill="none" xmlns="http://www.w3.org/2000/svg">
<g clip-path="url(#clip0_399_9653)">
<path d="M41 30.7501C40.9033 30.7504 40.8074 30.7315 40.718 30.6946C40.6245 30.6567 40.5396 30.6005 40.4683 30.5291C40.3971 30.4577 40.3409 30.3726 40.3033 30.2791L34.3033 15.2791C34.2311 15.0988 34.2316 14.8975 34.3048 14.7176C34.3779 14.5378 34.518 14.3933 34.6955 14.3146L41.4455 11.3146C41.5377 11.2735 41.6372 11.2515 41.7381 11.2499C41.839 11.2482 41.9391 11.2669 42.0326 11.3048C42.1261 11.3428 42.211 11.3992 42.2821 11.4707C42.3533 11.5422 42.4093 11.6274 42.4468 11.7211L48.4468 26.7211C48.519 26.9013 48.5185 27.1026 48.4453 27.2825C48.3721 27.4623 48.2321 27.6068 48.0545 27.6856L41.3045 30.6856C41.2087 30.7281 41.1049 30.7501 41 30.7501ZM35.9645 15.3923L41.4073 28.9988L46.7855 26.6078L41.3428 13.0013L35.9645 15.3923Z" fill="#6D4DF2"/>
<path d="M21.2159 23.3534C20.4562 23.3518 19.7211 23.0846 19.1377 22.598C18.5544 22.1113 18.1596 21.436 18.0218 20.689C17.884 19.9419 18.0118 19.1702 18.3831 18.5075C18.7544 17.8448 19.3458 17.3328 20.0549 17.0602L27.2309 14.3002C27.3686 14.2472 27.5188 14.236 27.6629 14.2679L34.3326 15.7499H35.0001C35.199 15.7499 35.3898 15.829 35.5304 15.9696C35.6711 16.1103 35.7501 16.301 35.7501 16.4999C35.7501 16.6989 35.6711 16.8896 35.5304 17.0303C35.3898 17.1709 35.199 17.2499 35.0001 17.2499H34.2501C34.1954 17.25 34.1408 17.2439 34.0874 17.2319L27.5624 15.7814L20.5971 18.4597C20.1679 18.6303 19.8232 18.9632 19.6379 19.3863C19.4527 19.8094 19.4417 20.2885 19.6075 20.7196C19.7733 21.1507 20.1024 21.4991 20.5235 21.689C20.9445 21.879 21.4234 21.8952 21.8564 21.7342L29.4846 18.8002C29.5771 18.7619 29.6763 18.7425 29.7764 18.7432C29.8764 18.7439 29.9754 18.7645 30.0673 18.804C30.1593 18.8435 30.2424 18.901 30.3118 18.9731C30.3812 19.0452 30.4355 19.1305 30.4714 19.2239C30.5073 19.3173 30.5242 19.4169 30.5211 19.5169C30.5179 19.617 30.4947 19.7153 30.453 19.8063C30.4112 19.8972 30.3516 19.9789 30.2778 20.0464C30.204 20.114 30.1174 20.1661 30.0231 20.1997L22.3911 23.1337C22.0163 23.2788 21.6178 23.3533 21.2159 23.3534Z" fill="#6D4DF2"/>
<path d="M35.0534 34.4714C34.7093 34.4717 34.3685 34.4042 34.0505 34.2727C33.7325 34.1411 33.4436 33.9482 33.2002 33.7049C33.0594 33.5643 32.9803 33.3735 32.9803 33.1746C32.9802 32.9756 33.0592 32.7848 33.1998 32.6441C33.3404 32.5033 33.5312 32.4242 33.7302 32.4242C33.9291 32.4241 34.12 32.5031 34.2607 32.6437C34.472 32.8543 34.7584 32.9724 35.0568 32.9719C35.3552 32.9714 35.6412 32.8524 35.8518 32.6411C36.0625 32.4297 36.1805 32.1434 36.18 31.845C36.1795 31.5466 36.0605 31.2606 35.8492 31.0499L26.3242 21.5249C26.2525 21.4558 26.1954 21.373 26.1561 21.2815C26.1168 21.19 26.0961 21.0916 26.0952 20.992C26.0944 20.8924 26.1134 20.7936 26.1511 20.7015C26.1888 20.6093 26.2445 20.5256 26.3149 20.4551C26.3853 20.3847 26.469 20.329 26.5612 20.2913C26.6534 20.2536 26.7521 20.2346 26.8517 20.2355C26.9513 20.2364 27.0497 20.2571 27.1412 20.2964C27.2327 20.3357 27.3155 20.3928 27.3847 20.4644L36.9097 29.9894C37.2761 30.3567 37.5254 30.8242 37.6263 31.3331C37.7271 31.8419 37.675 32.3692 37.4764 32.8484C37.2778 33.3277 36.9416 33.7373 36.5104 34.0256C36.0792 34.3139 35.5722 34.468 35.0534 34.4684V34.4714Z" fill="#6D4DF2"/>
<path d="M32.7499 37.4722C32.4051 37.4728 32.0637 37.4052 31.7451 37.2734C31.4266 37.1416 31.1372 36.9482 30.8936 36.7042L27.8936 33.7042C27.757 33.5628 27.6814 33.3733 27.6831 33.1767C27.6848 32.98 27.7637 32.7919 27.9028 32.6529C28.0418 32.5138 28.2299 32.4349 28.4266 32.4332C28.6232 32.4315 28.8127 32.5071 28.9541 32.6437L31.9541 35.6437C32.1655 35.8548 32.452 35.9732 32.7507 35.973C33.0494 35.9728 33.3357 35.8539 33.5468 35.6426C33.7578 35.4312 33.8763 35.1447 33.876 34.846C33.8758 34.5474 33.757 34.261 33.5456 34.05L30.5456 31.05C30.409 30.9085 30.3334 30.7191 30.3351 30.5224C30.3368 30.3258 30.4157 30.1377 30.5548 29.9986C30.6938 29.8595 30.8819 29.7807 31.0786 29.779C31.2752 29.7773 31.4647 29.8528 31.6061 29.9895L34.6061 32.9895C34.9738 33.3565 35.2243 33.8244 35.3259 34.3339C35.4275 34.8433 35.3756 35.3715 35.1769 35.8515C34.9781 36.3315 34.6414 36.7417 34.2094 37.0302C33.7773 37.3187 33.2694 37.4726 32.7499 37.4722Z" fill="#6D4DF2"/>
<path d="M29.3481 39.375C29.0033 39.376 28.6616 39.3085 28.343 39.1766C28.0244 39.0446 27.7351 38.8508 27.4919 38.6063L26.2169 37.3313C26.0803 37.1898 26.0047 37.0004 26.0064 36.8037C26.0081 36.6071 26.087 36.419 26.226 36.2799C26.3651 36.1408 26.5532 36.062 26.7498 36.0603C26.9465 36.0585 27.1359 36.1341 27.2774 36.2708L28.5524 37.5458C28.7668 37.7501 29.0516 37.8641 29.3478 37.8641C29.6439 37.8641 29.9287 37.7501 30.1431 37.5458C30.2477 37.4413 30.3306 37.3172 30.3872 37.1807C30.4438 37.0442 30.4729 36.8978 30.4729 36.75C30.4729 36.6022 30.4438 36.4559 30.3872 36.3193C30.3306 36.1828 30.2477 36.0587 30.1431 35.9543L27.8931 33.7043C27.7565 33.5628 27.6809 33.3734 27.6826 33.1767C27.6843 32.9801 27.7632 32.792 27.9023 32.6529C28.0413 32.5138 28.2294 32.435 28.4261 32.4333C28.6227 32.4315 28.8122 32.5071 28.9536 32.6438L31.2036 34.8938C31.5707 35.2608 31.8208 35.7285 31.9221 36.2377C32.0234 36.7468 31.9715 37.2746 31.7729 37.7542C31.5743 38.2339 31.2379 38.6439 30.8063 38.9324C30.3747 39.2209 29.8673 39.3749 29.3481 39.375Z" fill="#6D4DF2"/>
<path d="M25.9467 41.2755C25.6019 41.2762 25.2605 41.2086 24.9419 41.0768C24.6233 40.945 24.334 40.7515 24.0904 40.5075L23.2197 39.6367C23.1481 39.5676 23.0909 39.4848 23.0516 39.3933C23.0123 39.3018 22.9916 39.2034 22.9908 39.1038C22.9899 39.0042 23.0089 38.9055 23.0466 38.8133C23.0843 38.7211 23.14 38.6374 23.2104 38.5669C23.2808 38.4965 23.3646 38.4408 23.4567 38.4031C23.5489 38.3654 23.6477 38.3464 23.7472 38.3473C23.8468 38.3482 23.9452 38.3689 24.0367 38.4082C24.1282 38.4475 24.211 38.5046 24.2802 38.5762L25.1509 39.45C25.2547 39.5574 25.3789 39.6431 25.5161 39.7021C25.6534 39.7611 25.801 39.7921 25.9504 39.7934C26.0997 39.7947 26.2479 39.7662 26.3861 39.7097C26.5244 39.6531 26.65 39.5696 26.7556 39.4639C26.8613 39.3583 26.9448 39.2327 27.0014 39.0944C27.0579 38.9562 27.0864 38.808 27.0851 38.6587C27.0838 38.5093 27.0528 38.3617 26.9938 38.2244C26.9348 38.0872 26.8491 37.963 26.7417 37.8592L26.2167 37.3342C26.147 37.2646 26.0917 37.1819 26.054 37.0909C26.0163 36.9999 25.9968 36.9024 25.9968 36.8039C25.9968 36.7054 26.0161 36.6078 26.0538 36.5168C26.0915 36.4258 26.1467 36.3431 26.2163 36.2734C26.2859 36.2037 26.3686 36.1484 26.4596 36.1107C26.5506 36.0729 26.6482 36.0535 26.7467 36.0535C26.8452 36.0534 26.9427 36.0728 27.0338 36.1105C27.1248 36.1481 27.2075 36.2034 27.2772 36.273L27.8022 36.798C28.1691 37.1651 28.4189 37.6328 28.52 38.1419C28.6212 38.651 28.5692 39.1787 28.3705 39.6582C28.1718 40.1377 27.8355 40.5476 27.4039 40.836C26.9724 41.1244 26.465 41.2784 25.9459 41.2785L25.9467 41.2755Z" fill="#6D4DF2"/>
<path d="M36.4999 30.75C36.3294 30.7521 36.1632 30.696 36.0288 30.591C35.8944 30.4859 35.7999 30.3382 35.7607 30.1722C35.7216 30.0062 35.7402 29.8318 35.8135 29.6778C35.8868 29.5238 36.0104 29.3994 36.1639 29.325L39.1639 27.825C39.2521 27.781 39.348 27.7548 39.4463 27.7478C39.5446 27.7409 39.6433 27.7534 39.7368 27.7846C39.8302 27.8158 39.9166 27.8651 39.991 27.9297C40.0654 27.9943 40.1264 28.0729 40.1704 28.161C40.2144 28.2492 40.2407 28.3451 40.2476 28.4434C40.2546 28.5417 40.2421 28.6404 40.2109 28.7339C40.1797 28.8273 40.1304 28.9137 40.0658 28.9881C40.0012 29.0626 39.9226 29.1235 39.8344 29.1675L36.8344 30.6675C36.7308 30.7206 36.6163 30.7489 36.4999 30.75Z" fill="#6D4DF2"/>
<path d="M8.00003 30.7501C7.89514 30.7501 7.79141 30.7281 7.69553 30.6856L0.945533 27.6856C0.768004 27.6068 0.627925 27.4623 0.554768 27.2825C0.48161 27.1026 0.481078 26.9013 0.553283 26.7211L6.55328 11.7211C6.59077 11.6274 6.64678 11.5422 6.71794 11.4707C6.78911 11.3992 6.87397 11.3428 6.96745 11.3048C7.06093 11.2669 7.1611 11.2482 7.26198 11.2499C7.36286 11.2515 7.46236 11.2735 7.55453 11.3146L14.3045 14.3146C14.4821 14.3933 14.6221 14.5378 14.6953 14.7176C14.7685 14.8975 14.769 15.0988 14.6968 15.2791L8.69678 30.2791C8.65915 30.3726 8.60302 30.4577 8.53175 30.5291C8.46049 30.6005 8.37555 30.6567 8.28203 30.6946C8.19262 30.7315 8.09677 30.7504 8.00003 30.7501ZM2.21453 26.6078L7.59278 28.9988L13.0355 15.3923L7.65728 13.0013L2.21453 26.6078Z" fill="#6D4DF2"/>
<path d="M14.75 17.2499H14C13.8011 17.2499 13.6103 17.1709 13.4697 17.0303C13.329 16.8896 13.25 16.6989 13.25 16.4999C13.25 16.301 13.329 16.1103 13.4697 15.9696C13.6103 15.829 13.8011 15.7499 14 15.7499H14.6683L21.338 14.2679C21.482 14.236 21.6323 14.2472 21.77 14.3002L24.77 15.4537C24.9557 15.5251 25.1054 15.6674 25.1862 15.8491C25.267 16.0309 25.2723 16.2374 25.2009 16.4231C25.1295 16.6088 24.9872 16.7585 24.8054 16.8393C24.6236 16.9201 24.4172 16.9254 24.2315 16.8539L21.4423 15.7814L14.9135 17.2319C14.8598 17.244 14.805 17.25 14.75 17.2499Z" fill="#6D4DF2"/>
<path d="M11.7498 30C11.6019 29.9999 11.4574 29.956 11.3343 29.874L9.08433 28.374C9.00239 28.3193 8.93201 28.249 8.87722 28.1672C8.82243 28.0853 8.7843 27.9935 8.76501 27.8969C8.74572 27.8003 8.74565 27.7008 8.76479 27.6042C8.78393 27.5076 8.82192 27.4157 8.87658 27.3337C8.93124 27.2518 9.00151 27.1814 9.08337 27.1266C9.16523 27.0718 9.25708 27.0337 9.35368 27.0144C9.45028 26.9951 9.54973 26.995 9.64635 27.0142C9.74298 27.0333 9.83489 27.0713 9.91683 27.126L12.1668 28.626C12.3008 28.7153 12.4025 28.8454 12.4568 28.997C12.5111 29.1486 12.5152 29.3137 12.4684 29.4678C12.4217 29.6219 12.3265 29.7568 12.1971 29.8527C12.0677 29.9485 11.9109 30.0002 11.7498 30Z" fill="#6D4DF2"/>
<path d="M13.9466 32.9715C13.602 32.9722 13.2606 32.9049 12.9421 32.7733C12.6235 32.6418 12.3341 32.4487 12.0903 32.205C11.5982 31.7128 11.3218 31.0452 11.3218 30.3491C11.3218 29.6531 11.5982 28.9855 12.0903 28.4933L14.7423 25.8413C15.2346 25.349 15.9024 25.0724 16.5986 25.0724C17.2948 25.0724 17.9625 25.349 18.4548 25.8413C18.9471 26.3336 19.2237 27.0013 19.2237 27.6975C19.2237 28.3938 18.9471 29.0615 18.4548 29.5538L15.7998 32.2043C15.5566 32.4479 15.2677 32.641 14.9497 32.7727C14.6317 32.9044 14.2908 32.9719 13.9466 32.9715ZM13.1508 31.1438C13.2553 31.2483 13.3794 31.3312 13.5159 31.3878C13.6524 31.4444 13.7988 31.4735 13.9466 31.4735C14.0944 31.4735 14.2407 31.4444 14.3773 31.3878C14.5138 31.3312 14.6379 31.2483 14.7423 31.1438L17.3936 28.4925C17.6046 28.2812 17.7231 27.9947 17.7229 27.696C17.7227 27.3973 17.6038 27.1109 17.3925 26.8999C17.1811 26.6889 16.8946 26.5704 16.5959 26.5706C16.2972 26.5708 16.0109 26.6897 15.7998 26.901L13.1508 29.55C13.046 29.6545 12.9627 29.7787 12.906 29.9155C12.8492 30.0522 12.82 30.1988 12.82 30.3469C12.82 30.495 12.8492 30.6416 12.906 30.7783C12.9627 30.9151 13.046 31.0393 13.1508 31.1438Z" fill="#6D4DF2"/>
<path d="M16.2499 35.9722C15.7309 35.9721 15.2235 35.8181 14.792 35.5297C14.3604 35.2413 14.024 34.8314 13.8254 34.3519C13.6267 33.8724 13.5747 33.3447 13.6758 32.8356C13.777 32.3265 14.0268 31.8589 14.3937 31.4917L17.3937 28.4917C17.8937 28.0141 18.5585 27.7476 19.2499 27.7476C19.9414 27.7476 20.6062 28.0141 21.1062 28.4917C21.5983 28.984 21.8747 29.6515 21.8747 30.3476C21.8747 31.0436 21.5983 31.7112 21.1062 32.2035L18.1062 35.2035C17.8627 35.4476 17.5733 35.6412 17.2548 35.7731C16.9362 35.905 16.5947 35.9727 16.2499 35.9722ZM19.2499 29.2222C19.1022 29.222 18.9559 29.251 18.8194 29.3076C18.683 29.3643 18.5591 29.4474 18.4549 29.5522L15.4549 32.5522C15.3505 32.6567 15.2676 32.7808 15.2111 32.9173C15.1546 33.0538 15.1255 33.2001 15.1256 33.3478C15.1257 33.6462 15.2443 33.9324 15.4553 34.1433C15.6664 34.3543 15.9526 34.4727 16.2509 34.4727C16.3987 34.4726 16.545 34.4435 16.6815 34.3869C16.818 34.3304 16.942 34.2475 17.0464 34.143L20.0464 31.143C20.2037 30.9855 20.3107 30.785 20.3539 30.5668C20.3972 30.3486 20.3748 30.1224 20.2896 29.9169C20.2043 29.7114 20.06 29.5358 19.875 29.4122C19.6899 29.2887 19.4724 29.2221 19.2499 29.2222Z" fill="#6D4DF2"/>
<path d="M19.652 37.875C19.1328 37.875 18.6253 37.7211 18.1936 37.4326C17.7619 37.1442 17.4254 36.7342 17.2267 36.2545C17.028 35.7749 16.976 35.247 17.0773 34.7378C17.1786 34.2286 17.4286 33.7608 17.7958 33.3937L20.0458 31.1437C20.5459 30.6664 21.2107 30.4001 21.902 30.4001C22.5934 30.4001 23.2582 30.6664 23.7583 31.1437C24.0021 31.3875 24.1955 31.6769 24.3274 31.9954C24.4593 32.3139 24.5272 32.6552 24.5272 33C24.5272 33.3447 24.4593 33.6861 24.3274 34.0046C24.1955 34.3231 24.0021 34.6125 23.7583 34.8562L21.5083 37.1062C21.2652 37.3509 20.9759 37.5448 20.6573 37.6768C20.3386 37.8087 19.9969 37.8761 19.652 37.875ZM21.902 31.875C21.7542 31.8745 21.6078 31.9034 21.4712 31.9599C21.3346 32.0164 21.2106 32.0995 21.1063 32.2042L18.8563 34.4542C18.7518 34.5587 18.6688 34.6827 18.6122 34.8193C18.5557 34.9558 18.5265 35.1022 18.5265 35.25C18.5265 35.3978 18.5557 35.5441 18.6122 35.6807C18.6688 35.8172 18.7518 35.9412 18.8563 36.0457C19.0708 36.2499 19.3555 36.3638 19.6517 36.3638C19.9478 36.3638 20.2326 36.2499 20.447 36.0457L22.697 33.7957C22.8544 33.6384 22.9617 33.438 23.0051 33.2198C23.0486 33.0015 23.0264 32.7753 22.9413 32.5697C22.8562 32.3641 22.712 32.1884 22.527 32.0647C22.3421 31.941 22.1246 31.875 21.902 31.875Z" fill="#6D4DF2"/>
<path d="M23.0533 39.7755C22.5347 39.7746 22.0279 39.6202 21.597 39.3316C21.166 39.043 20.8303 38.6332 20.632 38.154C20.4337 37.6747 20.3819 37.1475 20.483 36.6388C20.5841 36.1301 20.8336 35.6628 21.2001 35.2957L22.7001 33.7957C22.9429 33.548 23.2324 33.3508 23.5519 33.2156C23.8714 33.0804 24.2146 33.0099 24.5615 33.0081C24.9084 33.0063 25.2522 33.0733 25.5731 33.2053C25.894 33.3372 26.1855 33.5314 26.4308 33.7767C26.6762 34.022 26.8705 34.3135 27.0025 34.6343C27.1345 34.9552 27.2015 35.299 27.1998 35.6459C27.1981 35.9928 27.1277 36.336 26.9926 36.6555C26.8574 36.975 26.6603 37.2646 26.4126 37.5075L24.9126 39.0075C24.6687 39.2519 24.3788 39.4456 24.0597 39.5774C23.7406 39.7092 23.3986 39.7765 23.0533 39.7755ZM24.5533 34.5255C24.4055 34.5254 24.2592 34.5545 24.1227 34.611C23.9861 34.6675 23.8621 34.7503 23.7576 34.8547L22.2576 36.3547C22.046 36.5658 21.927 36.8522 21.9266 37.151C21.9263 37.4499 22.0446 37.7366 22.2557 37.9481C22.4667 38.1597 22.7532 38.2787 23.052 38.2791C23.3508 38.2794 23.6375 38.161 23.8491 37.95L25.3491 36.45C25.5062 36.2926 25.6132 36.0922 25.6565 35.874C25.6999 35.6558 25.6775 35.4297 25.5923 35.2243C25.5072 35.0188 25.363 34.8432 25.1781 34.7196C24.9932 34.596 24.7757 34.53 24.5533 34.53V34.5255Z" fill="#6D4DF2"/>
</g>
<defs>
<clipPath id="clip0_399_9653">
<rect width="48" height="48" fill="white" transform="translate(0.5)"/>
</clipPath>
</defs>
</svg>
