<svg width="49" height="48" viewBox="0 0 49 48" fill="none" xmlns="http://www.w3.org/2000/svg">
<g clip-path="url(#clip0_399_9631)">
<path d="M5.75008 29.9999C5.60177 29.9999 5.4568 29.9559 5.33349 29.8735C5.21018 29.7911 5.11408 29.674 5.05733 29.5369C5.00057 29.3999 4.98572 29.2491 5.01465 29.1037C5.04357 28.9582 5.11498 28.8246 5.21983 28.7197L19.4698 14.4697C19.6105 14.3291 19.8012 14.2501 20.0001 14.2501C20.199 14.2501 20.3897 14.3291 20.5303 14.4697L26.7501 20.6894L42.7198 4.71969C42.789 4.64806 42.8718 4.59092 42.9633 4.55161C43.0548 4.51231 43.1532 4.49162 43.2528 4.49075C43.3524 4.48989 43.4511 4.50886 43.5433 4.54657C43.6355 4.58428 43.7192 4.63997 43.7896 4.71039C43.8601 4.78081 43.9157 4.86455 43.9534 4.95672C43.9912 5.0489 44.0101 5.14766 44.0093 5.24724C44.0084 5.34682 43.9877 5.44524 43.9484 5.53674C43.9091 5.62825 43.852 5.711 43.7803 5.78019L27.2803 22.2802C27.1397 22.4208 26.949 22.4998 26.7501 22.4998C26.5512 22.4998 26.3605 22.4208 26.2198 22.2802L20.0001 16.0604L6.28033 29.7802C6.13971 29.9209 5.94898 29.9999 5.75008 29.9999Z" fill="#6D4DF2"/>
<path d="M43.25 9.75C43.0511 9.75 42.8603 9.67098 42.7197 9.53033C42.579 9.38968 42.5 9.19891 42.5 9V6H39.5C39.3011 6 39.1103 5.92098 38.9697 5.78033C38.829 5.63968 38.75 5.44891 38.75 5.25C38.75 5.05109 38.829 4.86032 38.9697 4.71967C39.1103 4.57902 39.3011 4.5 39.5 4.5H43.25C43.4489 4.5 43.6397 4.57902 43.7803 4.71967C43.921 4.86032 44 5.05109 44 5.25V9C44 9.19891 43.921 9.38968 43.7803 9.53033C43.6397 9.67098 43.4489 9.75 43.25 9.75Z" fill="#6D4DF2"/>
<path d="M47.75 43.5H1.25C1.05109 43.5 0.860322 43.421 0.71967 43.2803C0.579018 43.1397 0.5 42.9489 0.5 42.75V5.25C0.5 5.05109 0.579018 4.86032 0.71967 4.71967C0.860322 4.57902 1.05109 4.5 1.25 4.5C1.44891 4.5 1.63968 4.57902 1.78033 4.71967C1.92098 4.86032 2 5.05109 2 5.25V42H47.75C47.9489 42 48.1397 42.079 48.2803 42.2197C48.421 42.3603 48.5 42.5511 48.5 42.75C48.5 42.9489 48.421 43.1397 48.2803 43.2803C48.1397 43.421 47.9489 43.5 47.75 43.5Z" fill="#6D4DF2"/>
<path d="M9.5 43.5H5.75C5.55109 43.5 5.36032 43.421 5.21967 43.2803C5.07902 43.1397 5 42.9489 5 42.75V33C5 32.8011 5.07902 32.6103 5.21967 32.4697C5.36032 32.329 5.55109 32.25 5.75 32.25H9.5C9.69891 32.25 9.88968 32.329 10.0303 32.4697C10.171 32.6103 10.25 32.8011 10.25 33C10.25 33.1989 10.171 33.3897 10.0303 33.5303C9.88968 33.671 9.69891 33.75 9.5 33.75H6.5V42H9.5C9.69891 42 9.88968 42.079 10.0303 42.2197C10.171 42.3603 10.25 42.5511 10.25 42.75C10.25 42.9489 10.171 43.1397 10.0303 43.2803C9.88968 43.421 9.69891 43.5 9.5 43.5Z" fill="#6D4DF2"/>
<path d="M16.25 43.5H12.5C12.3011 43.5 12.1103 43.421 11.9697 43.2803C11.829 43.1397 11.75 42.9489 11.75 42.75V27C11.75 26.8011 11.829 26.6103 11.9697 26.4697C12.1103 26.329 12.3011 26.25 12.5 26.25H16.25C16.4489 26.25 16.6397 26.329 16.7803 26.4697C16.921 26.6103 17 26.8011 17 27C17 27.1989 16.921 27.3897 16.7803 27.5303C16.6397 27.671 16.4489 27.75 16.25 27.75H13.25V42H16.25C16.4489 42 16.6397 42.079 16.7803 42.2197C16.921 42.3603 17 42.5511 17 42.75C17 42.9489 16.921 43.1397 16.7803 43.2803C16.6397 43.421 16.4489 43.5 16.25 43.5Z" fill="#6D4DF2"/>
<path d="M23 43.5H19.25C19.0511 43.5 18.8603 43.421 18.7197 43.2803C18.579 43.1397 18.5 42.9489 18.5 42.75V21.75C18.5 21.5511 18.579 21.3603 18.7197 21.2197C18.8603 21.079 19.0511 21 19.25 21H23C23.1989 21 23.3897 21.079 23.5303 21.2197C23.671 21.3603 23.75 21.5511 23.75 21.75V24C23.75 24.1989 23.671 24.3897 23.5303 24.5303C23.3897 24.671 23.1989 24.75 23 24.75C22.8011 24.75 22.6103 24.671 22.4697 24.5303C22.329 24.3897 22.25 24.1989 22.25 24V22.5H20V42H23C23.1989 42 23.3897 42.079 23.5303 42.2197C23.671 42.3603 23.75 42.5511 23.75 42.75C23.75 42.9489 23.671 43.1397 23.5303 43.2803C23.3897 43.421 23.1989 43.5 23 43.5Z" fill="#6D4DF2"/>
<path d="M29.75 43.5H26C25.8011 43.5 25.6103 43.421 25.4697 43.2803C25.329 43.1397 25.25 42.9489 25.25 42.75V25.5C25.25 25.3011 25.329 25.1103 25.4697 24.9697C25.6103 24.829 25.8011 24.75 26 24.75H29.75C29.9489 24.75 30.1397 24.829 30.2803 24.9697C30.421 25.1103 30.5 25.3011 30.5 25.5C30.5 25.6989 30.421 25.8897 30.2803 26.0303C30.1397 26.171 29.9489 26.25 29.75 26.25H26.75V42H29.75C29.9489 42 30.1397 42.079 30.2803 42.2197C30.421 42.3603 30.5 42.5511 30.5 42.75C30.5 42.9489 30.421 43.1397 30.2803 43.2803C30.1397 43.421 29.9489 43.5 29.75 43.5Z" fill="#6D4DF2"/>
<path d="M36.5 43.5H32.75C32.5511 43.5 32.3603 43.421 32.2197 43.2803C32.079 43.1397 32 42.9489 32 42.75V19.5C32 19.3011 32.079 19.1103 32.2197 18.9697C32.3603 18.829 32.5511 18.75 32.75 18.75H36.5C36.6989 18.75 36.8897 18.829 37.0303 18.9697C37.171 19.1103 37.25 19.3011 37.25 19.5C37.25 19.6989 37.171 19.8897 37.0303 20.0303C36.8897 20.171 36.6989 20.25 36.5 20.25H33.5V42H36.5C36.6989 42 36.8897 42.079 37.0303 42.2197C37.171 42.3603 37.25 42.5511 37.25 42.75C37.25 42.9489 37.171 43.1397 37.0303 43.2803C36.8897 43.421 36.6989 43.5 36.5 43.5Z" fill="#6D4DF2"/>
<path d="M43.25 43.5H39.5C39.3011 43.5 39.1103 43.421 38.9697 43.2803C38.829 43.1397 38.75 42.9489 38.75 42.75V13.5C38.75 13.3011 38.829 13.1103 38.9697 12.9697C39.1103 12.829 39.3011 12.75 39.5 12.75H43.25C43.4489 12.75 43.6397 12.829 43.7803 12.9697C43.921 13.1103 44 13.3011 44 13.5V42.75C44 42.9489 43.921 43.1397 43.7803 43.2803C43.6397 43.421 43.4489 43.5 43.25 43.5ZM40.25 42H42.5V14.25H40.25V42Z" fill="#6D4DF2"/>
</g>
<defs>
<clipPath id="clip0_399_9631">
<rect width="48" height="48" fill="white" transform="translate(0.5)"/>
</clipPath>
</defs>
</svg>
