<svg width="45" height="46" viewBox="0 0 45 46" fill="none" xmlns="http://www.w3.org/2000/svg">
<path d="M27.0282 42.3036L26.7833 42.3018C26.5338 42.2992 26.3304 42.094 26.3331 41.8446C26.3357 41.596 26.5356 41.3962 26.7833 41.3962H26.7877L27.0282 41.3979C27.5801 41.3979 28.0904 41.3749 28.5468 41.3298C28.7962 41.3192 29.0182 41.4873 29.0421 41.7367C29.066 41.9852 28.8847 42.2072 28.6353 42.2319C28.1497 42.2797 27.6093 42.3036 27.0282 42.3036ZM24.9755 42.2169C24.964 42.2169 24.9516 42.2169 24.9401 42.216C24.7393 42.2001 24.5341 42.1824 24.3236 42.163C24.0751 42.1391 23.892 41.9189 23.915 41.6694C23.9389 41.4209 24.1521 41.244 24.4085 41.2608C24.6137 41.2803 24.8136 41.298 25.0091 41.3121C25.2585 41.3316 25.4451 41.5492 25.4265 41.7986C25.408 42.0365 25.2098 42.2169 24.9755 42.2169ZM30.3634 41.8897C30.1724 41.8897 29.9946 41.7685 29.9327 41.5766C29.8558 41.3387 29.9858 41.0831 30.2237 41.0061C30.8154 40.8133 31.2603 40.5568 31.5813 40.2207C31.7555 40.0412 32.0412 40.0341 32.2216 40.2066C32.4021 40.3791 32.4083 40.6665 32.2358 40.8469C31.8086 41.2936 31.2417 41.6279 30.5032 41.8676C30.4572 41.8826 30.4094 41.8897 30.3634 41.8897ZM32.6594 39.3717C32.6356 39.3717 32.6117 39.3699 32.5869 39.3664C32.3402 39.3266 32.1721 39.094 32.211 38.8472C32.257 38.5624 32.2782 38.2378 32.2782 37.8275C32.2774 37.5949 32.2712 37.3587 32.265 37.1235C32.2588 36.874 32.456 36.6662 32.7063 36.6591C32.9593 36.698 33.1653 36.8519 33.1706 37.1005C33.1768 37.341 33.183 37.5842 33.1839 37.8257C33.1839 38.2874 33.1591 38.6571 33.1061 38.9905C33.0698 39.2134 32.8779 39.3717 32.6594 39.3717ZM32.7992 35.7588C32.7682 35.7588 32.7373 35.7561 32.7072 35.749C32.4622 35.6986 32.3039 35.4598 32.3552 35.2148C32.4136 34.9318 32.4967 34.6851 32.6117 34.4604C32.7894 34.1137 33.1017 33.8006 33.5669 33.4999C33.7756 33.3637 34.0568 33.423 34.193 33.6344C34.3284 33.844 34.2682 34.1243 34.0586 34.2605C33.7349 34.4702 33.5191 34.6762 33.4174 34.8726C33.3413 35.0229 33.2838 35.1945 33.2414 35.397C33.1981 35.6111 33.0088 35.7588 32.7992 35.7588ZM35.4348 33.5273C35.2597 33.5273 35.0925 33.4248 35.0191 33.2532C34.92 33.0232 35.0262 32.757 35.2561 32.6588L35.6426 32.4934C36.0619 32.3157 36.4908 32.1335 36.9012 31.938C37.1285 31.8301 37.3973 31.9256 37.5052 32.1512C37.6131 32.3776 37.5176 32.6473 37.2921 32.7552C36.8693 32.9569 36.428 33.1444 35.9964 33.3275L35.6134 33.4902C35.5551 33.5158 35.4949 33.5273 35.4348 33.5273ZM38.6444 31.8664C38.5135 31.8664 38.3844 31.8098 38.295 31.701C38.1358 31.5082 38.1633 31.2225 38.357 31.0642C38.8177 30.6848 39.076 30.2885 39.1468 29.8516C39.1866 29.604 39.4227 29.4333 39.6659 29.4775C39.9127 29.5173 40.0807 29.7499 40.04 29.9967C39.933 30.66 39.5704 31.2375 38.9318 31.7629C38.8478 31.8328 38.7461 31.8664 38.6444 31.8664ZM39.2352 28.6347C39.0716 28.6347 38.9142 28.5453 38.8328 28.3906C38.6081 27.9554 38.265 27.5176 37.8148 27.0887C37.6335 26.9162 37.6264 26.6296 37.7989 26.4483C37.9722 26.267 38.2588 26.2608 38.4392 26.4324C38.9628 26.9312 39.3652 27.4495 39.6376 27.9731C39.7526 28.1951 39.6659 28.4684 39.4439 28.5842C39.3767 28.6187 39.306 28.6347 39.2352 28.6347ZM36.7022 26.0963C36.6164 26.0963 36.5297 26.0725 36.4528 26.0212C35.9999 25.7222 35.487 25.4242 34.9271 25.1341C34.7042 25.0191 34.6176 24.7458 34.7325 24.5238C34.8475 24.3009 35.1235 24.2151 35.3428 24.3292C35.9318 24.6344 36.4731 24.9492 36.9516 25.2658C37.1603 25.4038 37.2178 25.6842 37.0798 25.8929C36.9932 26.0247 36.849 26.0963 36.7022 26.0963ZM33.4917 24.4124C33.4324 24.4124 33.3714 24.4009 33.3139 24.3761C32.7443 24.1329 32.1818 23.9136 31.6494 23.7199C31.4142 23.6341 31.293 23.3749 31.3788 23.1397C31.4646 22.9053 31.7237 22.785 31.959 22.869C32.5055 23.068 33.084 23.2927 33.6695 23.543C33.8994 23.6411 34.0064 23.9074 33.9083 24.1373C33.8348 24.3098 33.6677 24.4124 33.4917 24.4124ZM30.084 23.1697C30.0397 23.1697 29.9946 23.1636 29.9495 23.1494C28.92 22.8301 28.2337 22.6638 28.2267 22.6621C27.9834 22.6028 27.834 22.3587 27.8923 22.1155C27.9516 21.8732 28.1939 21.7281 28.4389 21.7812C28.4389 21.7812 29.15 21.9528 30.2184 22.2844C30.4572 22.3587 30.5907 22.6125 30.5165 22.8513C30.4563 23.045 30.2777 23.1697 30.084 23.1697Z" fill="#6D4DF2"/>
<path d="M24.1092 12.9288C24.0464 12.9288 23.9827 12.9155 23.9235 12.889L18.9335 10.6452C18.509 10.4585 18.2481 10.034 18.2737 9.56527C18.2994 9.08944 18.6107 8.68879 19.0653 8.54551L44.1018 0.832365C44.3229 0.760726 44.5609 0.873049 44.652 1.08708C44.743 1.30023 44.6581 1.54787 44.4556 1.6602L24.3294 12.8713C24.2613 12.9093 24.1853 12.9288 24.1092 12.9288ZM40.2501 2.9665L19.335 9.40961C19.2015 9.45206 19.1811 9.56703 19.1785 9.61479C19.1749 9.66875 19.1873 9.7678 19.3014 9.81733L24.0871 11.97L40.2501 2.9665Z" fill="#6D4DF2"/>
<path d="M37.1344 17.8825C37.0124 17.8825 36.8886 17.8621 36.7683 17.8197L28.6147 15.0019C28.4617 14.9488 28.3485 14.8179 28.3175 14.6587C28.2874 14.4995 28.344 14.3359 28.467 14.2307L43.9401 0.921695C44.1002 0.785492 44.3302 0.775764 44.5009 0.897816C44.6707 1.02075 44.7344 1.24363 44.6548 1.43732L38.1781 17.1864C37.9932 17.6189 37.574 17.8825 37.1344 17.8825ZM29.6548 14.4031L37.0663 16.9644C37.1751 17.0025 37.2954 16.9459 37.3423 16.8362L43.0982 2.84092L29.6548 14.4031Z" fill="#6D4DF2"/>
<path d="M28.3368 22.6771C28.159 22.6771 27.9936 22.5718 27.9211 22.4047L23.6944 12.6582C23.6024 12.4442 23.6864 12.1957 23.8898 12.0825L44.0151 0.873138C44.215 0.75993 44.4733 0.817418 44.6068 1.00934C44.7395 1.20038 44.7067 1.4604 44.5307 1.61164L29.2026 14.7932L28.7887 22.249C28.7772 22.4586 28.6233 22.6329 28.4164 22.67C28.3898 22.6744 28.3633 22.6771 28.3368 22.6771ZM24.6885 12.6741L27.9909 20.2882L28.3093 14.5509C28.3164 14.428 28.373 14.313 28.4659 14.2325L40.5534 3.83776L24.6885 12.6741Z" fill="#6D4DF2"/>
<path d="M28.3369 22.6769C28.2785 22.6769 28.2202 22.6654 28.1645 22.6425C27.9858 22.569 27.8744 22.3913 27.885 22.1994L28.3095 14.5508C28.3175 14.4084 28.3909 14.2784 28.5094 14.1996C28.627 14.1209 28.7756 14.1006 28.9091 14.1475L33.7912 15.835C33.9345 15.8845 34.0433 16.0021 34.0813 16.1489C34.1202 16.2949 34.0822 16.4514 33.9814 16.5637L28.6748 22.5248C28.5872 22.6239 28.4634 22.6769 28.3369 22.6769ZM29.1807 15.1991L28.8605 20.9541L32.8537 16.4691L29.1807 15.1991Z" fill="#6D4DF2"/>
<path d="M28.8304 32.0574C28.8304 39.0582 23.1519 44.7367 16.1512 44.7367C15.6984 44.7367 15.2455 44.7095 14.8018 44.6641C21.1686 43.9849 26.1225 38.5963 26.1225 32.0574C26.1225 25.5186 21.1686 20.1299 14.8018 19.4507C15.2455 19.4054 15.6984 19.3782 16.1512 19.3782C23.1519 19.3782 28.8304 25.0567 28.8304 32.0574Z" fill="#6D4DF2"/>
<path d="M16.1511 45.1894C15.7142 45.1894 15.2446 45.1647 14.7555 45.1143C14.5246 45.0913 14.3495 44.8976 14.3486 44.665C14.3478 44.4333 14.5229 44.2387 14.7537 44.2139C20.9766 43.5497 25.6694 38.3236 25.6694 32.0574C25.6694 25.7912 20.9766 20.565 14.7537 19.9008C14.5229 19.8761 14.3478 19.6815 14.3486 19.4498C14.3495 19.2172 14.5246 19.0235 14.7555 19.0005C15.2446 18.9501 15.7142 18.9253 16.1511 18.9253C23.392 18.9253 29.2832 24.8165 29.2832 32.0574C29.2832 39.2982 23.392 45.1894 16.1511 45.1894ZM19.0777 20.1847C23.5494 22.2985 26.5751 26.8427 26.5751 32.0574C26.5751 37.272 23.5494 41.8162 19.0777 43.93C24.4108 42.6149 28.3775 37.7903 28.3775 32.0574C28.3775 26.3245 24.4108 21.4999 19.0777 20.1847Z" fill="#6D4DF2"/>
<path d="M13.4431 45.1894C6.20225 45.1894 0.311035 39.2982 0.311035 32.0574C0.311035 24.8165 6.20225 18.9253 13.4431 18.9253C13.8933 18.9253 14.3523 18.9501 14.8476 19.0005C21.5339 19.7133 26.5752 25.3268 26.5752 32.0574C26.5752 38.7879 21.5339 44.4014 14.8494 45.1143C14.3523 45.1647 13.8933 45.1894 13.4431 45.1894ZM13.4431 19.831C6.70107 19.831 1.2167 25.3153 1.2167 32.0574C1.2167 38.7994 6.70107 44.2838 13.4431 44.2838C13.8623 44.2838 14.2922 44.2608 14.7556 44.2139C20.9767 43.5497 25.6695 38.3236 25.6695 32.0574C25.6695 25.7912 20.9767 20.565 14.7538 19.9008C14.2922 19.8539 13.8623 19.831 13.4431 19.831Z" fill="#6D4DF2"/>
<path d="M13.443 42.0027C7.95864 42.0027 3.49756 37.5416 3.49756 32.0582C3.49756 26.5738 7.95864 22.1118 13.443 22.1118C18.9274 22.1118 23.3885 26.5729 23.3885 32.0573C23.3885 37.5416 18.9274 42.0027 13.443 42.0027ZM13.443 23.0175C8.45835 23.0175 4.40322 27.0735 4.40322 32.0582C4.40322 37.0419 8.45835 41.0971 13.443 41.0971C18.4277 41.0971 22.4828 37.0419 22.4828 32.0573C22.4828 27.0726 18.4277 23.0175 13.443 23.0175Z" fill="#6D4DF2"/>
<path d="M7.26459 32.5102H6.46064C6.21035 32.5102 6.00781 32.3076 6.00781 32.0573C6.00781 31.807 6.21035 31.6045 6.46064 31.6045H7.26459C7.51489 31.6045 7.71742 31.807 7.71742 32.0573C7.71742 32.3076 7.51489 32.5102 7.26459 32.5102Z" fill="#6D4DF2"/>
<path d="M20.4257 32.5102H19.6218C19.3715 32.5102 19.1689 32.3076 19.1689 32.0573C19.1689 31.807 19.3715 31.6045 19.6218 31.6045H20.4257C20.676 31.6045 20.8786 31.807 20.8786 32.0573C20.8786 32.3076 20.676 32.5102 20.4257 32.5102Z" fill="#6D4DF2"/>
<path d="M11.0435 27.6765C11.5403 27.1329 12.2365 26.8566 13.1321 26.8477L13.1321 25.9588L13.767 25.9587L13.767 26.8343C14.6537 26.8966 15.3343 27.1584 15.8089 27.6195C16.2834 28.0807 16.5318 28.69 16.5541 29.4475L15.3845 29.4475C15.3533 29.1089 15.262 28.817 15.1105 28.572C14.8298 28.1219 14.3819 27.8858 13.7671 27.8635L13.7672 31.1117C14.8009 31.4013 15.5027 31.6731 15.8725 31.9271C16.474 32.3459 16.7748 32.9652 16.7748 33.7851C16.7748 34.9703 16.3895 35.8124 15.6186 36.3115C15.1909 36.5878 14.5738 36.7705 13.7673 36.8596L13.7673 38.1562L13.1324 38.1562L13.1324 36.8596C11.8358 36.775 10.9558 36.3161 10.4923 35.4829C10.2384 35.0328 10.1113 34.4247 10.1113 33.6583L11.2943 33.6582C11.33 34.2687 11.4258 34.7142 11.5817 34.9949C11.858 35.4984 12.3704 35.7813 13.119 35.8437L13.1189 32.2012C12.1564 32.0185 11.4458 31.7133 10.9868 31.2856C10.5279 30.8579 10.2984 30.2653 10.2984 29.5078C10.2983 28.8305 10.5467 28.2201 11.0435 27.6765ZM11.9392 30.4635C12.231 30.713 12.6243 30.8868 13.1188 30.9848L13.1188 27.8435C12.5351 27.8658 12.1196 28.044 11.8723 28.3782C11.625 28.7124 11.5014 29.0622 11.5014 29.4276C11.5014 29.8687 11.6473 30.214 11.9392 30.4635ZM15.3446 35.0416C15.4961 34.7743 15.5718 34.4646 15.5718 34.1126C15.5718 33.5556 15.3668 33.1324 14.9569 32.8427C14.7207 32.6734 14.3242 32.513 13.7672 32.3616L13.7673 35.8771C14.5292 35.8414 15.055 35.5629 15.3446 35.0416Z" fill="#6D4DF2"/>
</svg>
