<svg width="45" height="46" viewBox="0 0 45 46" fill="none" xmlns="http://www.w3.org/2000/svg">
<path d="M27.0282 42.3033L26.7833 42.3016C26.5338 42.2989 26.3304 42.0937 26.3331 41.8443C26.3357 41.5958 26.5356 41.3959 26.7833 41.3959H26.7877L27.0282 41.3977C27.5801 41.3977 28.0904 41.3747 28.5468 41.3296C28.7962 41.319 29.0182 41.487 29.0421 41.7364C29.066 41.9849 28.8847 42.2069 28.6353 42.2317C28.1497 42.2795 27.6093 42.3033 27.0282 42.3033ZM24.9755 42.2167C24.964 42.2167 24.9516 42.2167 24.9401 42.2158C24.7393 42.1999 24.5341 42.1822 24.3236 42.1627C24.0751 42.1388 23.892 41.9186 23.915 41.6692C23.9389 41.4207 24.1521 41.2438 24.4085 41.2606C24.6137 41.28 24.8136 41.2977 25.0091 41.3119C25.2585 41.3313 25.4451 41.5489 25.4265 41.7983C25.408 42.0362 25.2098 42.2167 24.9755 42.2167ZM30.3634 41.8894C30.1724 41.8894 29.9946 41.7683 29.9327 41.5763C29.8558 41.3384 29.9858 41.0828 30.2237 41.0059C30.8154 40.8131 31.2603 40.5566 31.5813 40.2205C31.7555 40.041 32.0412 40.0339 32.2216 40.2063C32.4021 40.3788 32.4083 40.6663 32.2358 40.8467C31.8086 41.2933 31.2417 41.6276 30.5032 41.8673C30.4572 41.8823 30.4094 41.8894 30.3634 41.8894ZM32.6594 39.3714C32.6356 39.3714 32.6117 39.3697 32.5869 39.3661C32.3402 39.3263 32.1721 39.0937 32.211 38.847C32.257 38.5622 32.2782 38.2376 32.2782 37.8272C32.2774 37.5946 32.2712 37.3585 32.265 37.1232C32.2588 36.8738 32.456 36.666 32.7063 36.6589C32.9593 36.6978 33.1653 36.8517 33.1706 37.1002C33.1768 37.3408 33.183 37.584 33.1839 37.8255C33.1839 38.2871 33.1591 38.6568 33.1061 38.9902C33.0698 39.2131 32.8779 39.3714 32.6594 39.3714ZM32.7992 35.7585C32.7682 35.7585 32.7373 35.7559 32.7072 35.7488C32.4622 35.6984 32.3039 35.4596 32.3552 35.2146C32.4136 34.9316 32.4967 34.6848 32.6117 34.4602C32.7894 34.1135 33.1017 33.8004 33.5669 33.4997C33.7756 33.3635 34.0568 33.4227 34.193 33.6341C34.3284 33.8437 34.2682 34.1241 34.0586 34.2603C33.7349 34.4699 33.5191 34.676 33.4174 34.8723C33.3413 35.0227 33.2838 35.1943 33.2414 35.3968C33.1981 35.6108 33.0088 35.7585 32.7992 35.7585ZM35.4348 33.5271C35.2597 33.5271 35.0925 33.4245 35.0191 33.2529C34.92 33.023 35.0262 32.7568 35.2561 32.6586L35.6426 32.4932C36.0619 32.3154 36.4908 32.1332 36.9012 31.9378C37.1285 31.8299 37.3973 31.9254 37.5052 32.1509C37.6131 32.3773 37.5176 32.6471 37.2921 32.755C36.8693 32.9566 36.428 33.1441 35.9964 33.3272L35.6134 33.49C35.5551 33.5156 35.4949 33.5271 35.4348 33.5271ZM38.6444 31.8661C38.5135 31.8661 38.3844 31.8095 38.295 31.7007C38.1358 31.5079 38.1633 31.2223 38.357 31.064C38.8177 30.6845 39.076 30.2883 39.1468 29.8514C39.1866 29.6038 39.4227 29.4331 39.6659 29.4773C39.9127 29.5171 40.0807 29.7497 40.04 29.9964C39.933 30.6598 39.5704 31.2373 38.9318 31.7627C38.8478 31.8325 38.7461 31.8661 38.6444 31.8661ZM39.2352 28.6344C39.0716 28.6344 38.9142 28.5451 38.8328 28.3903C38.6081 27.9552 38.265 27.5174 37.8148 27.0884C37.6335 26.916 37.6264 26.6294 37.7989 26.4481C37.9722 26.2668 38.2588 26.2606 38.4392 26.4322C38.9628 26.931 39.3652 27.4493 39.6376 27.9729C39.7526 28.1948 39.6659 28.4681 39.4439 28.584C39.3767 28.6185 39.306 28.6344 39.2352 28.6344ZM36.7022 26.0961C36.6164 26.0961 36.5297 26.0722 36.4528 26.0209C35.9999 25.722 35.487 25.4239 34.9271 25.1338C34.7042 25.0188 34.6176 24.7456 34.7325 24.5236C34.8475 24.3007 35.1235 24.2149 35.3428 24.329C35.9318 24.6341 36.4731 24.949 36.9516 25.2656C37.1603 25.4036 37.2178 25.6839 37.0798 25.8927C36.9932 26.0244 36.849 26.0961 36.7022 26.0961ZM33.4917 24.4121C33.4324 24.4121 33.3714 24.4006 33.3139 24.3759C32.7443 24.1326 32.1818 23.9133 31.6494 23.7196C31.4142 23.6338 31.293 23.3747 31.3788 23.1394C31.4646 22.9051 31.7237 22.7848 31.959 22.8688C32.5055 23.0678 33.084 23.2924 33.6695 23.5427C33.8994 23.6409 34.0064 23.9071 33.9083 24.1371C33.8348 24.3095 33.6677 24.4121 33.4917 24.4121ZM30.084 23.1695C30.0397 23.1695 29.9946 23.1633 29.9495 23.1492C28.92 22.8299 28.2337 22.6636 28.2267 22.6618C27.9834 22.6026 27.834 22.3585 27.8923 22.1153C27.9516 21.8729 28.1939 21.7279 28.4389 21.7809C28.4389 21.7809 29.15 21.9525 30.2184 22.2842C30.4572 22.3585 30.5907 22.6123 30.5165 22.8511C30.4563 23.0448 30.2777 23.1695 30.084 23.1695Z" fill="#6D4DF2"/>
<path d="M24.1092 12.9286C24.0464 12.9286 23.9827 12.9154 23.9235 12.8888L18.9335 10.645C18.509 10.4584 18.2481 10.0339 18.2737 9.56514C18.2994 9.08932 18.6107 8.68867 19.0653 8.54539L44.1018 0.832243C44.3229 0.760604 44.5609 0.872927 44.652 1.08696C44.743 1.30011 44.6581 1.54775 44.4556 1.66007L24.3294 12.8712C24.2613 12.9092 24.1853 12.9286 24.1092 12.9286ZM40.2501 2.96638L19.335 9.40948C19.2015 9.45194 19.1811 9.56691 19.1785 9.61467C19.1749 9.66862 19.1873 9.76768 19.3014 9.81721L24.0871 11.9699L40.2501 2.96638Z" fill="#6D4DF2"/>
<path d="M37.1344 17.8824C37.0124 17.8824 36.8886 17.862 36.7683 17.8196L28.6147 15.0018C28.4617 14.9487 28.3485 14.8178 28.3175 14.6586C28.2874 14.4994 28.344 14.3358 28.467 14.2305L43.9401 0.921573C44.1002 0.78537 44.3302 0.775642 44.5009 0.897693C44.6707 1.02063 44.7344 1.24351 44.6548 1.4372L38.1781 17.1863C37.9932 17.6188 37.574 17.8824 37.1344 17.8824ZM29.6548 14.403L37.0663 16.9643C37.1751 17.0024 37.2954 16.9458 37.3423 16.8361L43.0982 2.8408L29.6548 14.403Z" fill="#6D4DF2"/>
<path d="M28.3368 22.6768C28.159 22.6768 27.9936 22.5716 27.9211 22.4044L23.6944 12.658C23.6024 12.4439 23.6864 12.1954 23.8898 12.0822L44.0151 0.872894C44.215 0.759686 44.4733 0.817174 44.6068 1.0091C44.7395 1.20013 44.7067 1.46016 44.5307 1.6114L29.2026 14.793L28.7887 22.2488C28.7772 22.4584 28.6233 22.6326 28.4164 22.6698C28.3898 22.6742 28.3633 22.6768 28.3368 22.6768ZM24.6885 12.6739L27.9909 20.288L28.3093 14.5507C28.3164 14.4277 28.373 14.3128 28.4659 14.2323L40.5534 3.83752L24.6885 12.6739Z" fill="#6D4DF2"/>
<path d="M28.3369 22.6768C28.2785 22.6768 28.2202 22.6653 28.1645 22.6423C27.9858 22.5689 27.8744 22.3912 27.885 22.1992L28.3095 14.5506C28.3175 14.4082 28.3909 14.2782 28.5094 14.1995C28.627 14.1208 28.7756 14.1005 28.9091 14.1473L33.7912 15.8348C33.9345 15.8844 34.0433 16.002 34.0813 16.1488C34.1202 16.2947 34.0822 16.4513 33.9814 16.5636L28.6748 22.5247C28.5872 22.6238 28.4634 22.6768 28.3369 22.6768ZM29.1807 15.1989L28.8605 20.9539L32.8537 16.469L29.1807 15.1989Z" fill="#6D4DF2"/>
<path d="M28.8304 32.0572C28.8304 39.0579 23.1519 44.7364 16.1512 44.7364C15.6984 44.7364 15.2455 44.7092 14.8018 44.6639C21.1686 43.9846 26.1225 38.596 26.1225 32.0572C26.1225 25.5183 21.1686 20.1297 14.8018 19.4505C15.2455 19.4051 15.6984 19.3779 16.1512 19.3779C23.1519 19.3779 28.8304 25.0564 28.8304 32.0572Z" fill="#6D4DF2"/>
<path d="M16.1511 45.1892C15.7142 45.1892 15.2446 45.1644 14.7555 45.114C14.5246 45.091 14.3495 44.8973 14.3486 44.6647C14.3478 44.433 14.5229 44.2384 14.7537 44.2137C20.9766 43.5495 25.6694 38.3233 25.6694 32.0571C25.6694 25.7909 20.9766 20.5648 14.7537 19.9006C14.5229 19.8758 14.3478 19.6812 14.3486 19.4495C14.3495 19.2169 14.5246 19.0232 14.7555 19.0002C15.2446 18.9498 15.7142 18.925 16.1511 18.925C23.392 18.925 29.2832 24.8163 29.2832 32.0571C29.2832 39.298 23.392 45.1892 16.1511 45.1892ZM19.0777 20.1845C23.5494 22.2983 26.5751 26.8425 26.5751 32.0571C26.5751 37.2717 23.5494 41.816 19.0777 43.9298C24.4108 42.6146 28.3775 37.79 28.3775 32.0571C28.3775 26.3242 24.4108 21.4996 19.0777 20.1845Z" fill="#6D4DF2"/>
<path d="M13.4431 45.1892C6.20225 45.1892 0.311035 39.298 0.311035 32.0571C0.311035 24.8163 6.20225 18.925 13.4431 18.925C13.8933 18.925 14.3523 18.9498 14.8476 19.0002C21.5339 19.7131 26.5752 25.3266 26.5752 32.0571C26.5752 38.7877 21.5339 44.4012 14.8494 45.114C14.3523 45.1644 13.8933 45.1892 13.4431 45.1892ZM13.4431 19.8307C6.70107 19.8307 1.2167 25.3151 1.2167 32.0571C1.2167 38.7992 6.70107 44.2835 13.4431 44.2835C13.8623 44.2835 14.2922 44.2605 14.7556 44.2137C20.9767 43.5495 25.6695 38.3233 25.6695 32.0571C25.6695 25.7909 20.9767 20.5648 14.7538 19.9006C14.2922 19.8537 13.8623 19.8307 13.4431 19.8307Z" fill="#6D4DF2"/>
<path d="M13.443 42.0026C7.95864 42.0026 3.49756 37.5415 3.49756 32.058C3.49756 26.5737 7.95864 22.1117 13.443 22.1117C18.9274 22.1117 23.3885 26.5728 23.3885 32.0572C23.3885 37.5415 18.9274 42.0026 13.443 42.0026ZM13.443 23.0174C8.45835 23.0174 4.40322 27.0734 4.40322 32.058C4.40322 37.0418 8.45835 41.097 13.443 41.097C18.4277 41.097 22.4828 37.0418 22.4828 32.0572C22.4828 27.0725 18.4277 23.0174 13.443 23.0174Z" fill="#6D4DF2"/>
<path d="M7.26459 32.5099H6.46064C6.21035 32.5099 6.00781 32.3074 6.00781 32.0571C6.00781 31.8068 6.21035 31.6042 6.46064 31.6042H7.26459C7.51489 31.6042 7.71742 31.8068 7.71742 32.0571C7.71742 32.3074 7.51489 32.5099 7.26459 32.5099Z" fill="#6D4DF2"/>
<path d="M20.4257 32.5099H19.6218C19.3715 32.5099 19.1689 32.3074 19.1689 32.0571C19.1689 31.8068 19.3715 31.6042 19.6218 31.6042H20.4257C20.676 31.6042 20.8786 31.8068 20.8786 32.0571C20.8786 32.3074 20.676 32.5099 20.4257 32.5099Z" fill="#6D4DF2"/>
<path d="M11.0435 27.6764C11.5403 27.1328 12.2365 26.8565 13.1321 26.8475L13.1321 25.9586L13.767 25.9586L13.767 26.8342C14.6537 26.8965 15.3343 27.1583 15.8089 27.6194C16.2834 28.0806 16.5318 28.6899 16.5541 29.4473L15.3845 29.4474C15.3533 29.1087 15.262 28.8169 15.1105 28.5718C14.8298 28.1218 14.3819 27.8857 13.7671 27.8634L13.7672 31.1116C14.8009 31.4012 15.5027 31.673 15.8725 31.927C16.474 32.3458 16.7748 32.9651 16.7748 33.785C16.7748 34.9702 16.3895 35.8123 15.6186 36.3114C15.1909 36.5876 14.5738 36.7703 13.7673 36.8595L13.7673 38.1561L13.1324 38.1561L13.1324 36.8595C11.8358 36.7749 10.9558 36.3159 10.4923 35.4827C10.2384 35.0327 10.1113 34.4245 10.1113 33.6582L11.2943 33.6581C11.33 34.2685 11.4258 34.7141 11.5817 34.9948C11.858 35.4983 12.3704 35.7812 13.119 35.8436L13.1189 32.2011C12.1564 32.0184 11.4458 31.7132 10.9868 31.2855C10.5279 30.8577 10.2984 30.2651 10.2984 29.5077C10.2983 28.8304 10.5467 28.22 11.0435 27.6764ZM11.9392 30.4634C12.231 30.7129 12.6243 30.8866 13.1188 30.9847L13.1188 27.8434C12.5351 27.8657 12.1196 28.0439 11.8723 28.3781C11.625 28.7123 11.5014 29.0621 11.5014 29.4274C11.5014 29.8685 11.6473 30.2139 11.9392 30.4634ZM15.3446 35.0415C15.4961 34.7742 15.5718 34.4645 15.5718 34.1125C15.5718 33.5555 15.3668 33.1322 14.9569 32.8426C14.7207 32.6733 14.3242 32.5129 13.7672 32.3614L13.7673 35.877C14.5292 35.8413 15.055 35.5628 15.3446 35.0415Z" fill="#6D4DF2"/>
</svg>
