<svg width="38" height="44" viewBox="0 0 38 44" fill="none" xmlns="http://www.w3.org/2000/svg">
<path d="M5.03988 39.2791L10.8634 42.6373C10.8785 42.6459 10.8954 42.6433 10.911 42.65C10.9162 42.6531 10.9205 42.6573 10.9258 42.6603C14.4358 44.6809 18.6841 43.6086 22.1961 41.5813C30.7305 36.6541 37.6507 24.6634 37.6224 14.8524C37.6087 10.0207 35.9402 6.40383 32.9239 4.66812C25.0265 0.124304 27.7473 1.69651 27.1578 1.35813C24.2365 -0.344847 20.3786 -0.0635972 16.2974 2.15014C16.0776 2.26954 15.9958 2.54416 16.1152 2.76394C16.2342 2.98372 16.5097 3.06553 16.729 2.94613C20.5215 0.888938 24.0636 0.602382 26.7032 2.14174L29.2521 3.61167C26.9348 3.48204 24.3373 4.19562 21.6438 5.75023C16.6745 8.61922 12.2646 13.8874 9.44414 19.7203C7.41818 23.8942 6.19965 28.357 6.20114 32.4478C6.20866 35.5189 6.88083 38.1006 8.14026 40.0216L5.49403 38.4955C2.77971 36.9159 1.28457 33.575 1.28324 29.0882C1.27307 21.6957 5.36889 12.7682 11.4755 6.87346C11.6554 6.69967 11.6608 6.41311 11.487 6.23313C11.3136 6.05359 11.0271 6.04828 10.8466 6.22163C4.57422 12.2765 0.36697 21.4662 0.377584 29.0887C0.37891 33.911 2.03413 37.5297 5.03988 39.2791ZM36.7168 14.855C36.7442 24.3769 30.0269 36.0142 21.7433 40.7968C13.6259 45.4841 7.15599 41.8117 7.12935 32.4579C7.11813 28.4959 8.28807 24.1712 10.2413 20.1228C12.9893 14.4497 17.2862 9.32677 22.1227 6.54533C30.2516 1.88043 36.6902 5.54354 36.7168 14.855Z" fill="#6D4DF2"/>
<path d="M14.2194 3.43556C13.6754 3.81321 13.1297 4.2258 12.5978 4.66183C12.4045 4.82014 12.3758 5.10581 12.5345 5.29906C12.6927 5.49249 12.9787 5.52083 13.1717 5.3623C13.6852 4.94175 14.2114 4.54376 14.7359 4.17937C14.9415 4.03653 14.9924 3.7544 14.8495 3.54921C14.7067 3.34358 14.425 3.29272 14.2194 3.43556Z" fill="#6D4DF2"/>
<path d="M31.4451 16.779C31.1435 14.6038 30.1856 12.9389 28.6949 12.0575C27.2098 11.1801 25.3039 11.1421 23.2738 11.9186L23.2671 9.57271C23.2667 9.4113 23.18 9.26227 23.0403 9.18179C22.9001 9.10042 22.7281 9.10131 22.5879 9.18179L20.7275 10.2555C20.5869 10.3369 20.5006 10.4868 20.5011 10.6491L20.509 13.446C16.142 16.5652 12.7511 22.524 12.3334 27.8129L9.71982 29.3217C9.5792 29.403 9.49297 29.553 9.49341 29.7153L9.4996 31.845C9.50004 32.0064 9.58672 32.1554 9.72646 32.2363C9.86418 32.3157 10.0371 32.3175 10.1788 32.2359L12.4717 30.9119C13.2337 35.0124 16.4195 36.9322 20.5709 35.3363L20.5789 38.1589C20.5793 38.3204 20.666 38.4694 20.8058 38.5503C20.9435 38.6296 21.1164 38.6315 21.2582 38.5499L23.1186 37.4757C23.2592 37.3943 23.3454 37.2444 23.345 37.0821L23.3358 33.8246C27.5774 30.7892 30.8769 25.1535 31.4579 19.9501L34.1262 18.4095C34.2668 18.3282 34.3531 18.1783 34.3526 18.016L34.3469 15.8867C34.3464 15.7253 34.2598 15.5762 34.12 15.4958C33.9798 15.414 33.8069 15.4157 33.6676 15.4958L31.4451 16.779ZM22.3637 10.3568L22.377 15.1214C22.2864 15.1737 21.3303 15.7259 21.4209 15.6735C21.4204 15.5118 21.4067 10.5892 21.4076 10.9086L22.3637 10.3568ZM10.4 29.9748L14.5577 27.5749L14.5603 28.6601C14.4182 28.7422 10.1741 31.1927 10.4031 31.0605L10.4 29.9748ZM21.4824 37.3744L21.4691 32.61L22.4252 32.0581L22.4384 36.8226L21.4824 37.3744ZM23.3357 32.6989L23.3304 31.2741C23.3299 31.1131 23.2437 30.9641 23.104 30.8836C23.1036 30.8834 23.1031 30.8835 23.1027 30.8833C23.1023 30.883 23.1022 30.8825 23.1018 30.8823C23.0361 30.8446 22.9629 30.8283 22.8898 30.826C22.8856 30.8258 22.8819 30.8228 22.8778 30.8228C22.7988 30.8225 22.7198 30.842 22.6494 30.8827L22.2741 31.0994L20.7867 31.9511C20.6452 32.0325 20.5586 32.1833 20.559 32.346L20.567 34.3696C16.7745 35.998 13.8668 34.3611 13.3006 30.4334C13.3914 30.381 15.3678 29.2411 15.2427 29.3133C15.3837 29.2323 15.4704 29.0816 15.4695 28.9193L15.4626 27.3233L15.4611 26.7904C15.4607 26.629 15.374 26.48 15.2343 26.3995C15.0941 26.3177 14.9212 26.3195 14.7819 26.3995C14.69 26.4525 13.1984 27.3133 13.2929 27.2587C13.8686 22.5919 16.7666 17.4971 20.5121 14.5664C20.5122 14.658 20.514 16.5808 20.5139 16.4594C20.5139 16.6212 20.6001 16.7707 20.7403 16.8516C20.8809 16.9321 21.0534 16.9321 21.1931 16.8516C21.2839 16.7992 23.1778 15.7051 23.0571 15.7748C23.0574 15.7746 23.0575 15.7742 23.0578 15.7741L23.0589 15.7735C23.1995 15.6921 23.2857 15.5422 23.2853 15.3799L23.2769 12.8858C25.1678 12.0805 26.9199 12.0611 28.2337 12.8372C29.566 13.6249 30.4015 15.2021 30.6005 17.2666L28.6056 18.4184C28.6048 18.4188 28.6045 18.4198 28.6037 18.4203L28.6016 18.4215C28.461 18.5028 28.3743 18.6532 28.3752 18.8155L28.384 20.9439C28.3849 21.1053 28.4711 21.2543 28.6109 21.3348C28.7515 21.4153 28.9231 21.4148 29.0628 21.3344L30.4722 20.5224C29.754 25.0176 26.8969 29.8935 23.3357 32.6989ZM29.2884 20.1567L29.2857 19.0723C29.3775 19.0193 33.5353 16.6181 33.4434 16.6712L33.4461 17.7564L29.2884 20.1567Z" fill="#6D4DF2"/>
<path d="M21.6987 23.2328C21.1869 23.5268 20.9028 23.3638 20.9009 22.7817C20.8987 22.007 21.4669 21.023 22.1422 20.6334C22.6455 20.3423 22.9337 20.5027 22.9355 21.0867C22.9364 21.3361 23.139 21.5382 23.3884 21.5382C23.6723 21.544 23.8417 21.3348 23.8412 21.0841C23.8386 20.1722 23.2932 19.4817 22.3686 19.6137V18.6735C22.3686 18.4232 22.1661 18.2207 21.9158 18.2207C21.6655 18.2207 21.463 18.4232 21.463 18.6735V20.0052C20.6224 20.6155 19.9924 21.7781 19.9952 22.7844C19.999 24.0676 21.0357 24.6605 22.1515 24.0173C22.652 23.7269 22.9434 23.8836 22.9453 24.4701C22.9475 25.2422 22.381 26.2231 21.7084 26.6113C21.206 26.901 20.9125 26.7523 20.9106 26.1651C20.9098 25.9157 20.7072 25.7136 20.4578 25.7136C20.4574 25.7136 20.4569 25.7136 20.4565 25.7136C20.2066 25.7145 20.0041 25.9175 20.005 26.1678C20.0075 27.0446 20.5203 27.7534 21.463 27.6287V28.5841C21.463 28.8344 21.6655 29.0369 21.9158 29.0369C22.1661 29.0369 22.3686 28.8344 22.3686 28.5841V27.2526C23.2164 26.6471 23.8538 25.4786 23.8509 24.4675C23.8472 23.1867 22.8118 22.5896 21.6987 23.2328Z" fill="#111827"/>
</svg>
