<svg width="48" height="48" viewBox="0 0 48 48" fill="none" xmlns="http://www.w3.org/2000/svg">
<g clip-path="url(#clip0_882_27320)">
<path d="M21 43.5C16.8466 43.5 12.7865 42.2684 9.33303 39.9609C5.8796 37.6534 3.18798 34.3736 1.59854 30.5364C0.00909913 26.6991 -0.406771 22.4767 0.403519 18.4031C1.21381 14.3295 3.21386 10.5877 6.15077 7.65077C9.08767 4.71386 12.8295 2.71381 16.9031 1.90352C20.9767 1.09323 25.1991 1.5091 29.0364 3.09854C32.8736 4.68798 36.1534 7.3796 38.4609 10.833C40.7684 14.2865 42 18.3466 42 22.5C42 22.6989 41.921 22.8897 41.7803 23.0303C41.6397 23.171 41.4489 23.25 41.25 23.25C41.0511 23.25 40.8603 23.171 40.7197 23.0303C40.579 22.8897 40.5 22.6989 40.5 22.5C40.5 18.6433 39.3564 14.8731 37.2137 11.6664C35.071 8.45963 32.0255 5.96027 28.4623 4.48436C24.8992 3.00845 20.9784 2.62228 17.1957 3.3747C13.4131 4.12711 9.93855 5.9843 7.21143 8.71143C4.4843 11.4386 2.62711 14.9131 1.8747 18.6957C1.12228 22.4784 1.50845 26.3992 2.98436 29.9623C4.46027 33.5255 6.95963 36.571 10.1664 38.7137C13.3731 40.8564 17.1433 42 21 42C21.1989 42 21.3897 42.079 21.5303 42.2197C21.671 42.3603 21.75 42.5511 21.75 42.75C21.75 42.9489 21.671 43.1397 21.5303 43.2803C21.3897 43.421 21.1989 43.5 21 43.5Z" fill="#6D4DF2"/>
<path d="M21 43.5C13.1423 43.5 6.75 34.0793 6.75 22.5C6.75 10.9207 13.1423 1.5 21 1.5C28.8577 1.5 35.25 10.9207 35.25 22.5C35.2547 24.8299 34.9902 27.1526 34.4618 29.4217C34.4392 29.5177 34.398 29.6083 34.3404 29.6884C34.2828 29.7684 34.2101 29.8363 34.1262 29.8883C34.0424 29.9402 33.9492 29.9751 33.8519 29.991C33.7546 30.0069 33.6551 30.0034 33.5591 29.9809C33.4631 29.9583 33.3725 29.9171 33.2925 29.8595C33.2125 29.8019 33.1445 29.7292 33.0926 29.6454C33.0407 29.5615 33.0058 29.4683 32.9899 29.371C32.974 29.2737 32.9774 29.1742 33 29.0783C33.5026 26.9217 33.7543 24.7143 33.75 22.5C33.75 11.748 28.0305 3 21 3C13.9695 3 8.25 11.748 8.25 22.5C8.25 33.252 13.9695 42 21 42C21.1989 42 21.3897 42.079 21.5303 42.2197C21.671 42.3603 21.75 42.5511 21.75 42.75C21.75 42.9489 21.671 43.1397 21.5303 43.2803C21.3897 43.421 21.1989 43.5 21 43.5Z" fill="#6D4DF2"/>
<path d="M21 43.5C17.061 43.5 15 32.9355 15 22.5C15 12.0645 17.061 1.5 21 1.5C24.939 1.5 27 12.0645 27 22.5C27 24.8363 26.898 27.1305 26.7 29.3182C26.6819 29.5165 26.5858 29.6994 26.4328 29.8267C26.2799 29.9541 26.0826 30.0155 25.8844 29.9974C25.6862 29.9793 25.5033 29.8832 25.3759 29.7302C25.2485 29.5773 25.1871 29.38 25.2052 29.1818C25.4017 27.039 25.5052 24.7913 25.5052 22.5C25.5052 10.4183 22.8847 3 21.0052 3C19.1258 3 16.5052 10.4183 16.5052 22.5C16.5052 34.5817 19.1258 42 21.0052 42C21.2042 42 21.3949 42.079 21.5356 42.2197C21.6762 42.3603 21.7552 42.5511 21.7552 42.75C21.7552 42.9489 21.6762 43.1397 21.5356 43.2803C21.3949 43.421 21.2042 43.5 21.0052 43.5H21Z" fill="#6D4DF2"/>
<path d="M41.25 23.25H3.75C3.55109 23.25 3.36032 23.171 3.21967 23.0303C3.07902 22.8897 3 22.6989 3 22.5C3 22.3011 3.07902 22.1103 3.21967 21.9697C3.36032 21.829 3.55109 21.75 3.75 21.75H41.25C41.4489 21.75 41.6397 21.829 41.7803 21.9697C41.921 22.1103 42 22.3011 42 22.5C42 22.6989 41.921 22.8897 41.7803 23.0303C41.6397 23.171 41.4489 23.25 41.25 23.25Z" fill="#6D4DF2"/>
<path d="M37.5 12H7.5C7.30109 12 7.11032 11.921 6.96967 11.7803C6.82902 11.6397 6.75 11.4489 6.75 11.25C6.75 11.0511 6.82902 10.8603 6.96967 10.7197C7.11032 10.579 7.30109 10.5 7.5 10.5H37.5C37.6989 10.5 37.8897 10.579 38.0303 10.7197C38.171 10.8603 38.25 11.0511 38.25 11.25C38.25 11.4489 38.171 11.6397 38.0303 11.7803C37.8897 11.921 37.6989 12 37.5 12Z" fill="#6D4DF2"/>
<path d="M18.75 34.5H7.5C7.30109 34.5 7.11032 34.421 6.96967 34.2803C6.82902 34.1397 6.75 33.9489 6.75 33.75C6.75 33.5511 6.82902 33.3603 6.96967 33.2197C7.11032 33.079 7.30109 33 7.5 33H18.75C18.9489 33 19.1397 33.079 19.2803 33.2197C19.421 33.3603 19.5 33.5511 19.5 33.75C19.5 33.9489 19.421 34.1397 19.2803 34.2803C19.1397 34.421 18.9489 34.5 18.75 34.5Z" fill="#6D4DF2"/>
<path d="M30 46.4998C29.8011 46.4998 29.6103 46.4208 29.4697 46.2801L20.4697 37.2801C20.3291 37.1394 20.2501 36.9487 20.2501 36.7498C20.2501 36.551 20.3291 36.3602 20.4697 36.2196L24.2197 32.4696C24.3604 32.329 24.5511 32.25 24.75 32.25C24.9488 32.25 25.1396 32.329 25.2802 32.4696L30 37.1893L42.9697 24.2196C43.1104 24.079 43.3011 24 43.5 24C43.6988 24 43.8896 24.079 44.0302 24.2196L47.7802 27.9696C47.9208 28.1102 47.9998 28.301 47.9998 28.4998C47.9998 28.6987 47.9208 28.8894 47.7802 29.0301L30.5302 46.2801C30.3896 46.4208 30.1989 46.4998 30 46.4998ZM22.0605 36.7498L30 44.6893L46.1895 28.4998L43.5 25.8103L30.5302 38.7801C30.3896 38.9207 30.1988 38.9997 30 38.9997C29.8011 38.9997 29.6104 38.9207 29.4697 38.7801L24.75 34.0603L22.0605 36.7498Z" fill="#6D4DF2"/>
</g>
<defs>
<clipPath id="clip0_882_27320">
<rect width="48" height="48" fill="white"/>
</clipPath>
</defs>
</svg>
