<svg width="48" height="48" viewBox="0 0 48 48" fill="none" xmlns="http://www.w3.org/2000/svg">
<path d="M10.4081 20.9541H7.59375V19.4181H10.4081C10.7298 19.4178 11.0383 19.2899 11.2658 19.0624C11.4933 18.8349 11.6212 18.5264 11.6215 18.2047V15.3888H13.1575V18.2047C13.1567 18.9336 12.8668 19.6325 12.3513 20.1479C11.8359 20.6634 11.137 20.9533 10.4081 20.9541Z" fill="#6D4DF2"/>
<path d="M29.4459 46.3846H6.75764C6.02863 46.3838 5.32967 46.094 4.81415 45.5785C4.29862 45.063 4.00863 44.3641 4.00782 43.6351V18.3963C4.00702 18.035 4.07788 17.6771 4.2163 17.3433C4.35472 17.0095 4.55794 16.7065 4.81422 16.4517L8.64654 12.6213C8.90112 12.3651 9.20401 12.1618 9.53766 12.0234C9.87132 11.885 10.2291 11.8141 10.5903 11.8149H29.4447C30.1738 11.8158 30.8727 12.1057 31.3881 12.6213C31.9036 13.1368 32.1935 13.8358 32.1942 14.5648V43.6336C32.1938 44.3626 31.9042 45.0617 31.389 45.5774C30.8737 46.0932 30.1749 46.3834 29.4459 46.3846ZM10.5915 13.3521C10.4321 13.3517 10.2742 13.3829 10.1269 13.4439C9.97967 13.5049 9.84599 13.5946 9.73364 13.7077L5.90132 17.5381C5.6745 17.7662 5.54673 18.0746 5.54574 18.3963V43.6351C5.54615 43.9569 5.67417 44.2653 5.90173 44.4928C6.12929 44.7203 6.4378 44.8482 6.75956 44.8485H29.4459C29.7676 44.8481 30.076 44.7202 30.3035 44.4927C30.531 44.2652 30.6589 43.9568 30.6593 43.6351V14.5663C30.659 14.2445 30.5311 13.936 30.3036 13.7085C30.0761 13.4809 29.7677 13.3529 29.4459 13.3525L10.5915 13.3521Z" fill="#6D4DF2"/>
<path d="M35.5785 41.464H33.7199V39.928H35.5785C35.9002 39.9276 36.2087 39.7995 36.4362 39.572C36.6637 39.3444 36.7916 39.0359 36.7919 38.7141V9.64534C36.7915 9.32364 36.6635 9.01523 36.4361 8.78775C36.2086 8.56028 35.9002 8.4323 35.5785 8.4319H16.7241C16.5646 8.43151 16.4067 8.46269 16.2594 8.52366C16.1121 8.58462 15.9783 8.67416 15.8658 8.7871L13.4766 11.1744L12.3906 10.0881L14.7776 7.70191C15.0323 7.44572 15.3353 7.24254 15.669 7.10413C16.0027 6.96571 16.3605 6.89481 16.7218 6.89551H35.5762C36.3051 6.89633 37.004 7.18626 37.5194 7.7017C38.0349 8.21715 38.3248 8.91601 38.3256 9.64495V38.7138C38.325 39.4424 38.0355 40.1411 37.5205 40.6567C37.0055 41.1722 36.3071 41.4625 35.5785 41.464Z" fill="#6D4DF2"/>
<path d="M41.7598 36.1839H39.9012V34.6479H41.7598C42.0815 34.6475 42.39 34.5195 42.6175 34.2919C42.845 34.0644 42.9729 33.7559 42.9732 33.4341V4.36531C42.9728 4.04361 42.8448 3.7352 42.6173 3.50773C42.3899 3.28025 42.0815 3.15228 41.7598 3.15187H22.9054C22.7459 3.15148 22.588 3.18267 22.4407 3.24363C22.2934 3.3046 22.1596 3.39413 22.0471 3.50707L19.6602 5.89325L18.5742 4.80691L20.9604 2.4192C21.2151 2.16297 21.518 1.95977 21.8518 1.82135C22.1855 1.68294 22.5433 1.61205 22.9046 1.6128H41.759C42.4879 1.61361 43.1868 1.90355 43.7022 2.41899C44.2177 2.93443 44.5076 3.63329 44.5084 4.36224V33.431C44.5085 34.1605 44.2191 34.8601 43.7037 35.3763C43.1884 35.8924 42.4892 36.1829 41.7598 36.1839Z" fill="#6D4DF2"/>
<path d="M9.98828 26.7406H18.1011V28.2766H9.98828V26.7406Z" fill="#6D4DF2"/>
<path d="M9.98828 31.9884H25.9108V33.5244H9.98828V31.9884Z" fill="#6D4DF2"/>
<path d="M9.98828 37.2365H25.9108V38.7725H9.98828V37.2365Z" fill="#6D4DF2"/>
</svg>
