<svg width="48" height="48" viewBox="0 0 48 48" fill="none" xmlns="http://www.w3.org/2000/svg">
<path d="M8.40625 12.0349L21.4303 4.51523L22.1985 5.84574L9.17444 13.3654L8.40625 12.0349Z" fill="#6D4DF2"/>
<path d="M25.793 5.84473L26.5612 4.51422L39.5919 12.0377L38.8237 13.3682L25.793 5.84473Z" fill="#6D4DF2"/>
<path d="M40.6172 16.476H42.1532V31.5192H40.6172V16.476Z" fill="#6D4DF2"/>
<path d="M25.7969 42.1453L38.8263 34.6225L39.5945 35.953L26.5651 43.4758L25.7969 42.1453Z" fill="#6D4DF2"/>
<path d="M8.40625 35.9586L9.17444 34.6281L22.2038 42.1509L21.4357 43.4814L8.40625 35.9586Z" fill="#6D4DF2"/>
<path d="M5.84375 16.476H7.37975V31.5192H5.84375V16.476Z" fill="#6D4DF2"/>
<path d="M8.40625 15.8826L9.17444 14.5521L22.2002 22.0727L21.432 23.4032L8.40625 15.8826Z" fill="#6D4DF2"/>
<path d="M23.9961 27.2798C23.3464 27.2799 22.7113 27.0873 22.1711 26.7264C21.6308 26.3655 21.2098 25.8525 20.9611 25.2523C20.7124 24.6521 20.6473 23.9917 20.774 23.3545C20.9007 22.7173 21.2135 22.132 21.6729 21.6725C22.1322 21.2131 22.7175 20.9002 23.3547 20.7735C23.9919 20.6467 24.6524 20.7117 25.2526 20.9603C25.8528 21.2089 26.3659 21.6299 26.7268 22.1701C27.0878 22.7103 27.2804 23.3454 27.2804 23.9951C27.2795 24.8659 26.9332 25.7008 26.3175 26.3166C25.7017 26.9324 24.8669 27.2788 23.9961 27.2798ZM23.9961 22.2467C23.6502 22.2466 23.312 22.3491 23.0244 22.5413C22.7367 22.7334 22.5125 23.0065 22.3801 23.3261C22.2477 23.6456 22.2131 23.9973 22.2805 24.3365C22.348 24.6758 22.5145 24.9874 22.7591 25.232C23.0037 25.4766 23.3154 25.6431 23.6546 25.7106C23.9939 25.7781 24.3455 25.7434 24.6651 25.611C24.9846 25.4786 25.2577 25.2544 25.4499 24.9668C25.642 24.6791 25.7445 24.341 25.7444 23.9951C25.7438 23.5316 25.5594 23.0872 25.2317 22.7595C24.9039 22.4317 24.4596 22.2473 23.9961 22.2467Z" fill="#6D4DF2"/>
<path d="M6.61248 17.2439C5.9629 17.2439 5.3279 17.0513 4.78779 16.6904C4.24768 16.3295 3.82672 15.8165 3.57813 15.2164C3.32955 14.6163 3.26451 13.9559 3.39123 13.3188C3.51796 12.6817 3.83077 12.0965 4.29009 11.6371C4.74942 11.1778 5.33463 10.865 5.97173 10.7383C6.60884 10.6116 7.26921 10.6766 7.86935 10.9252C8.46948 11.1738 8.98243 11.5947 9.34332 12.1348C9.70421 12.6749 9.89683 13.3099 9.89683 13.9595C9.89581 14.8303 9.54946 15.6651 8.93374 16.2808C8.31803 16.8965 7.48323 17.2429 6.61248 17.2439ZM6.61248 12.2112C6.26669 12.2112 5.92866 12.3137 5.64115 12.5058C5.35363 12.6979 5.12954 12.971 4.99721 13.2905C4.86488 13.6099 4.83026 13.9615 4.89772 14.3006C4.96518 14.6398 5.1317 14.9513 5.37621 15.1958C5.62072 15.4403 5.93224 15.6068 6.27139 15.6743C6.61054 15.7417 6.96207 15.7071 7.28154 15.5748C7.60101 15.4425 7.87407 15.2184 8.06618 14.9309C8.25829 14.6433 8.36083 14.3053 8.36083 13.9595C8.36032 13.496 8.17596 13.0516 7.84819 12.7238C7.52042 12.396 7.07601 12.2117 6.61248 12.2112Z" fill="#6D4DF2"/>
<path d="M6.61325 37.3202C5.96355 37.3203 5.32843 37.1277 4.7882 36.7668C4.24797 36.4059 3.8269 35.8929 3.57824 35.2927C3.32957 34.6924 3.26449 34.032 3.39122 33.3947C3.51795 32.7575 3.8308 32.1722 4.2902 31.7128C4.74961 31.2534 5.33492 30.9406 5.97214 30.8138C6.60935 30.6871 7.26983 30.7522 7.87005 31.0008C8.47028 31.2495 8.98328 31.6706 9.34418 32.2108C9.70508 32.751 9.89768 33.3862 9.8976 34.0359C9.89668 34.9066 9.55036 35.7415 8.93462 36.3572C8.31889 36.973 7.48403 37.3193 6.61325 37.3202ZM6.61325 32.2871C6.26736 32.287 5.92922 32.3895 5.6416 32.5816C5.35397 32.7738 5.12977 33.0468 4.99735 33.3664C4.86493 33.6859 4.83025 34.0375 4.89768 34.3768C4.96511 34.716 5.13163 35.0277 5.37618 35.2723C5.62073 35.5169 5.93233 35.6835 6.27156 35.751C6.61079 35.8185 6.96242 35.7839 7.28199 35.6515C7.60155 35.5192 7.87469 35.295 8.06686 35.0074C8.25903 34.7199 8.3616 34.3817 8.3616 34.0359C8.36109 33.5723 8.17674 33.1278 7.84898 32.8C7.52122 32.4722 7.07682 32.2877 6.61325 32.2871Z" fill="#6D4DF2"/>
<path d="M23.9996 47.3561C23.3499 47.3561 22.7148 47.1634 22.1746 46.8025C21.6345 46.4415 21.2134 45.9285 20.9648 45.3283C20.7162 44.7281 20.6512 44.0676 20.778 43.4304C20.9048 42.7932 21.2176 42.2079 21.6771 41.7486C22.1365 41.2892 22.7218 40.9764 23.359 40.8497C23.9962 40.723 24.6567 40.7881 25.2569 41.0368C25.8571 41.2854 26.37 41.7065 26.7309 42.2467C27.0918 42.787 27.2844 43.4221 27.2843 44.0717C27.2832 44.9425 26.9368 45.7773 26.321 46.393C25.7052 47.0087 24.8704 47.3551 23.9996 47.3561ZM23.9996 42.323C23.6537 42.323 23.3156 42.4256 23.028 42.6177C22.7405 42.8099 22.5163 43.083 22.384 43.4025C22.2516 43.7221 22.217 44.0737 22.2844 44.4129C22.3519 44.7521 22.5185 45.0637 22.763 45.3083C23.0076 45.5529 23.3192 45.7194 23.6584 45.7869C23.9976 45.8544 24.3493 45.8197 24.6688 45.6874C24.9883 45.555 25.2614 45.3309 25.4536 45.0433C25.6458 44.7557 25.7483 44.4176 25.7483 44.0717C25.7478 43.6081 25.5634 43.1636 25.2356 42.8358C24.9077 42.5079 24.4632 42.3235 23.9996 42.323Z" fill="#6D4DF2"/>
<path d="M41.3863 37.3202C40.7366 37.3202 40.1015 37.1276 39.5614 36.7666C39.0212 36.4057 38.6002 35.8926 38.3516 35.2924C38.103 34.6922 38.0379 34.0317 38.1647 33.3945C38.2915 32.7573 38.6044 32.172 39.0638 31.7127C39.5232 31.2533 40.1085 30.9405 40.7457 30.8138C41.3829 30.6871 42.0434 30.7522 42.6436 31.0009C43.2438 31.2496 43.7568 31.6706 44.1176 32.2108C44.4785 32.7511 44.6711 33.3862 44.671 34.0359C44.6701 34.9067 44.3237 35.7416 43.7079 36.3574C43.0921 36.9731 42.2572 37.3194 41.3863 37.3202ZM41.3863 32.2871C41.0404 32.2871 40.7023 32.3897 40.4148 32.5818C40.1272 32.774 39.903 33.0471 39.7707 33.3666C39.6383 33.6862 39.6037 34.0378 39.6712 34.377C39.7386 34.7162 39.9052 35.0278 40.1498 35.2724C40.3943 35.517 40.7059 35.6835 41.0451 35.751C41.3844 35.8185 41.736 35.7838 42.0555 35.6515C42.3751 35.5191 42.6482 35.295 42.8403 35.0074C43.0325 34.7198 43.135 34.3817 43.135 34.0359C43.1345 33.5722 42.9501 33.1277 42.6223 32.7999C42.2944 32.472 41.8499 32.2876 41.3863 32.2871Z" fill="#6D4DF2"/>
<path d="M23.9961 7.21303C23.3464 7.2131 22.7113 7.02052 22.1711 6.65964C21.6308 6.29875 21.2098 5.78577 20.9611 5.18557C20.7124 4.58537 20.6473 3.92491 20.774 3.28771C20.9007 2.65051 21.2135 2.06519 21.6729 1.60577C22.1322 1.14635 22.7175 0.833473 23.3547 0.7067C23.9919 0.579926 24.6524 0.644952 25.2526 0.893555C25.8528 1.14216 26.3659 1.56317 26.7268 2.10335C27.0878 2.64353 27.2804 3.27862 27.2804 3.92829C27.2795 4.79911 26.9332 5.63401 26.3175 6.24981C25.7017 6.8656 24.8669 7.21201 23.9961 7.21303ZM23.9961 2.17994C23.6502 2.17986 23.312 2.28237 23.0244 2.4745C22.7367 2.66662 22.5125 2.93973 22.3801 3.25929C22.2477 3.57884 22.2131 3.93049 22.2805 4.26974C22.348 4.609 22.5145 4.92063 22.7591 5.16522C23.0037 5.40981 23.3154 5.57637 23.6546 5.64383C23.9939 5.71129 24.3455 5.67663 24.6651 5.54422C24.9846 5.41182 25.2577 5.18762 25.4499 4.89998C25.642 4.61235 25.7445 4.27419 25.7444 3.92829C25.7438 3.46479 25.5594 3.02044 25.2317 2.69269C24.9039 2.36495 24.4596 2.18055 23.9961 2.17994Z" fill="#6D4DF2"/>
<path d="M41.3855 17.2439C40.736 17.2438 40.101 17.0511 39.5609 16.6902C39.0209 16.3292 38.6 15.8163 38.3515 15.2161C38.1029 14.616 38.0379 13.9556 38.1647 13.3185C38.2915 12.6815 38.6043 12.0963 39.0637 11.637C39.523 11.1777 40.1082 10.8649 40.7453 10.7383C41.3824 10.6116 42.0428 10.6766 42.6429 10.9252C43.243 11.1738 43.7559 11.5948 44.1168 12.1349C44.4777 12.675 44.6703 13.31 44.6703 13.9595C44.6693 14.8303 44.3228 15.6652 43.707 16.2809C43.0912 16.8967 42.2564 17.243 41.3855 17.2439ZM41.3855 12.2112C41.0398 12.2112 40.7018 12.3139 40.4143 12.506C40.1268 12.6982 39.9028 12.9712 39.7705 13.2907C39.6383 13.6102 39.6037 13.9617 39.6712 14.3008C39.7387 14.64 39.9053 14.9515 40.1498 15.1959C40.3943 15.4404 40.7058 15.6069 41.045 15.6743C41.3841 15.7417 41.7356 15.7071 42.0551 15.5748C42.3745 15.4424 42.6476 15.2183 42.8396 14.9308C43.0317 14.6433 43.1343 14.3053 43.1343 13.9595C43.1338 13.4959 42.9493 13.0515 42.6215 12.7237C42.2936 12.3959 41.8491 12.2116 41.3855 12.2112Z" fill="#6D4DF2"/>
<path d="M23.2266 26.5117H24.7626V41.5549H23.2266V26.5117Z" fill="#6D4DF2"/>
<path d="M25.7891 22.0721L38.8211 14.5479L39.5893 15.8784L26.5573 23.4027L25.7891 22.0721Z" fill="#6D4DF2"/>
<path d="M36.8008 32.2762L37.569 30.9457L39.5642 32.0977L38.796 33.4282L36.8008 32.2762Z" fill="#6D4DF2"/>
<path d="M30.793 28.8076L31.5612 27.4771L34.5657 29.2118L33.7975 30.5423L30.793 28.8076Z" fill="#6D4DF2"/>
<path d="M25.793 25.9215L26.5612 24.591L28.5564 25.743L27.7882 27.0735L25.793 25.9215Z" fill="#6D4DF2"/>
<path d="M23.2266 6.44507H24.7626V8.74907H23.2266V6.44507Z" fill="#6D4DF2"/>
<path d="M23.2266 12.2242H24.7626V15.6994H23.2266V12.2242Z" fill="#6D4DF2"/>
<path d="M23.2266 19.1747H24.7626V21.4787H23.2266V19.1747Z" fill="#6D4DF2"/>
<path d="M8.39844 32.121L10.3937 30.969L11.1615 32.2988L9.16625 33.4508L8.39844 32.121Z" fill="#6D4DF2"/>
<path d="M13.4062 29.2299L16.4181 27.4909L17.1859 28.8208L14.1741 30.5597L13.4062 29.2299Z" fill="#6D4DF2"/>
<path d="M19.4336 25.7521L21.4289 24.6001L22.1967 25.9299L20.2014 27.0819L19.4336 25.7521Z" fill="#6D4DF2"/>
</svg>
