<svg width="48" height="48" viewBox="0 0 48 48" fill="none" xmlns="http://www.w3.org/2000/svg">
<path d="M19.5017 41.2501C19.3124 41.2506 19.1299 41.1796 18.9908 41.0512C18.8517 40.9228 18.7662 40.7465 18.7517 40.5578C18.7029 39.9293 17.3972 25.1355 2.08667 21.7328C1.92023 21.6957 1.77142 21.6029 1.66477 21.4698C1.55812 21.3368 1.5 21.1713 1.5 21.0008C1.5 20.8303 1.55812 20.6648 1.66477 20.5318C1.77142 20.3987 1.92023 20.3059 2.08667 20.2688C17.4017 16.8653 18.7052 2.07155 18.7517 1.44305C18.7663 1.25475 18.8514 1.0789 18.99 0.950627C19.1286 0.822353 19.3106 0.751099 19.4994 0.751099C19.6883 0.751099 19.8702 0.822353 20.0088 0.950627C20.1474 1.0789 20.2326 1.25475 20.2472 1.44305C20.2959 2.07155 21.6017 16.8653 36.9122 20.268C37.0786 20.3052 37.2274 20.3979 37.3341 20.531C37.4407 20.6641 37.4988 20.8295 37.4988 21C37.4988 21.1706 37.4407 21.336 37.3341 21.4691C37.2274 21.6022 37.0786 21.6949 36.9122 21.732C21.6017 25.1348 20.2982 39.9286 20.2517 40.5571C20.2373 40.7459 20.1519 40.9224 20.0128 41.0509C19.8737 41.1795 19.6911 41.2506 19.5017 41.2501ZM5.04767 21C14.5727 24.2175 18.1727 32.0461 19.5017 36.7298C20.8307 32.0461 24.4329 24.2175 33.9557 21C24.4329 17.7825 20.8307 9.95405 19.5017 5.2703C18.1727 9.95405 14.5704 17.7825 5.04767 21Z" fill="#6D4DF2"/>
<path d="M36.0007 47.25C35.8115 47.2506 35.6291 47.1796 35.49 47.0514C35.3509 46.9232 35.2655 46.7471 35.2507 46.5585C34.9779 44.156 33.9409 41.9045 32.2923 40.1358C30.6437 38.367 28.4706 37.1743 26.0932 36.7335C25.9245 36.6984 25.773 36.6062 25.6642 36.4725C25.5555 36.3387 25.4961 36.1716 25.4961 35.9993C25.4961 35.8269 25.5555 35.6598 25.6642 35.5261C25.773 35.3923 25.9245 35.3001 26.0932 35.265C28.4706 34.8242 30.6437 33.6315 32.2923 31.8627C33.9409 30.094 34.9779 27.8425 35.2507 25.44C35.2658 25.2517 35.3515 25.076 35.4905 24.9481C35.6295 24.8201 35.8118 24.7494 36.0007 24.75C36.1891 24.7504 36.3705 24.8216 36.5088 24.9496C36.647 25.0776 36.7321 25.2529 36.7469 25.4408C37.0197 27.8433 38.0568 30.0947 39.7054 31.8635C41.354 33.6323 43.527 34.8249 45.9044 35.2658C46.0732 35.3009 46.2247 35.3931 46.3334 35.5268C46.4422 35.6605 46.5016 35.8276 46.5016 36C46.5016 36.1724 46.4422 36.3395 46.3334 36.4732C46.2247 36.6069 46.0732 36.6991 45.9044 36.7343C43.5276 37.1759 41.3553 38.3689 39.7074 40.1378C38.0595 41.9067 37.0231 44.1579 36.7507 46.56C36.7356 46.7483 36.6499 46.924 36.5109 47.052C36.3718 47.1799 36.1896 47.2506 36.0007 47.25ZM28.8449 36C30.4989 36.6606 31.9928 37.6667 33.2268 38.9509C34.4608 40.235 35.4065 41.7678 36.0007 43.4468C36.5949 41.7678 37.5406 40.235 38.7746 38.9509C40.0086 37.6667 41.5025 36.6606 43.1564 36C41.5025 35.3394 40.0086 34.3333 38.7746 33.0492C37.5406 31.765 36.5949 30.2322 36.0007 28.5533C35.4065 30.2322 34.4608 31.765 33.2268 33.0492C31.9928 34.3333 30.4989 35.3394 28.8449 36Z" fill="#6D4DF2"/>
</svg>
