<svg width="48" height="48" viewBox="0 0 48 48" fill="none" xmlns="http://www.w3.org/2000/svg">
<path d="M23.8523 30.4078C21.0466 30.4051 18.3095 29.5404 16.0115 27.9307C13.7134 26.3211 11.9655 24.0442 11.0043 21.4083C10.043 18.7724 9.91492 15.9048 10.6373 13.1936C11.3596 10.4825 12.8976 8.05883 15.0429 6.25065C17.1882 4.44248 19.8373 3.33714 22.6316 3.08428C25.4259 2.83142 28.2304 3.44325 30.6655 4.83694C33.1006 6.23063 35.0486 8.33887 36.2459 10.8763C37.4432 13.4137 37.832 16.2577 37.3595 19.0233L35.8454 18.7653C35.9616 18.0843 36.0203 17.3948 36.0209 16.704C36.0185 13.7091 34.9108 10.8205 32.9102 8.59191C30.9095 6.36333 28.1566 4.95164 25.1794 4.62748C22.2021 4.30331 19.2099 5.08949 16.7765 6.83528C14.3431 8.58107 12.6397 11.1636 11.9929 14.0878C11.3461 17.012 11.8014 20.072 13.2715 22.6812C14.7416 25.2905 17.1231 27.2653 19.9593 28.227C22.7955 29.1888 25.887 29.0698 28.6409 27.8929C31.3948 26.716 33.6175 24.564 34.8827 21.8496L36.272 22.5024C35.1629 24.8609 33.4069 26.856 31.2082 28.2555C29.0095 29.655 26.4586 30.4014 23.8523 30.4078Z" fill="#6D4DF2"/>
<path d="M15.6496 44.9925C13.0521 44.9945 10.5077 44.2576 8.31314 42.8679C6.11863 41.4783 4.36461 39.4931 3.25577 37.1442C2.14694 34.7952 1.72902 32.1794 2.05081 29.6019C2.37259 27.0244 3.42079 24.5916 5.07309 22.5873C6.72538 20.5831 8.91362 19.0901 11.3824 18.2826C13.8512 17.4752 16.4988 17.3865 19.0161 18.0269C21.5334 18.6674 23.8166 20.0106 25.5994 21.8998C27.3821 23.7889 28.5907 26.1462 29.0843 28.6963L27.5759 28.9874C26.9909 25.9506 25.2719 23.2503 22.7681 21.435C20.2642 19.6196 17.1633 18.8254 14.0951 19.2136C11.0269 19.6017 8.22144 21.1432 6.24857 23.5249C4.2757 25.9065 3.28333 28.9498 3.47301 32.0367C3.66269 35.1235 5.0202 38.0225 7.26982 40.1447C9.51944 42.2669 12.4925 43.4533 15.5852 43.4628C18.6778 43.4724 21.6582 42.3045 23.9209 40.1963C26.1836 38.0881 27.5591 35.1976 27.7679 32.112L29.3001 32.2169C29.0668 35.6794 27.5277 38.9243 24.994 41.2958C22.4603 43.6673 19.1208 44.9885 15.6504 44.9925H15.6496Z" fill="#6D4DF2"/>
<path d="M32.349 44.8201C29.9456 44.817 27.5852 44.1817 25.505 42.9778C23.4248 41.7739 21.6979 40.0439 20.4978 37.9615C19.2977 35.8791 18.6667 33.5176 18.668 31.1141C18.6693 28.7107 19.303 26.3499 20.5053 24.2688C20.642 24.033 20.7841 23.8018 20.9323 23.5776L22.2149 24.4224C22.0833 24.6221 21.957 24.8269 21.8359 25.0368C20.3146 27.6782 19.8414 30.7948 20.5101 33.7687C21.1788 36.7426 22.9406 39.3567 25.4461 41.0926C27.9517 42.8286 31.0181 43.5596 34.0373 43.1408C37.0566 42.7221 39.8083 41.184 41.7468 38.8317C43.6853 36.4794 44.6691 33.4845 44.5032 30.4408C44.3372 27.3972 43.0336 24.527 40.8509 22.3994C38.6681 20.2717 35.7655 19.042 32.7186 18.9539C29.6717 18.8659 26.703 19.926 24.401 21.9241L23.3953 20.7636C25.0675 19.3133 27.0662 18.2897 29.2203 17.7803C31.3745 17.2709 33.6199 17.2909 35.7647 17.8386C37.9094 18.3863 39.8895 19.4453 41.5356 20.9252C43.1818 22.405 44.4449 24.2616 45.2171 26.3361C45.9892 28.4106 46.2473 30.6413 45.9693 32.8373C45.6913 35.0333 44.8855 37.1293 43.6208 38.946C42.3561 40.7627 40.6701 42.2459 38.7071 43.2689C36.7441 44.2919 34.5626 44.8241 32.349 44.8201Z" fill="#6D4DF2"/>
</svg>
