<svg width="207" height="48" viewBox="0 0 207 48" fill="none" xmlns="http://www.w3.org/2000/svg">
<path d="M4.225 33.0082C2.935 33.0082 1.82929 32.8393 0.907857 32.5014C0.539286 32.3786 0.477857 32.1636 0.723571 31.8564C0.846429 31.7336 1 31.6261 1.18429 31.5339C1.36857 31.4725 1.56821 31.4879 1.78321 31.58C2.52036 31.8871 3.48786 32.0407 4.68571 32.0407C7.60357 32.0407 11.0129 31.0732 14.9136 29.1382C17.4936 27.8482 19.92 26.2664 22.1929 24.3929C24.4964 22.5193 26.4621 20.4614 28.09 18.2193C29.7179 15.9771 30.8236 13.6889 31.4071 11.3546C31.5914 10.6175 31.6836 9.95714 31.6836 9.37357C31.6836 7.56143 30.9464 6.22536 29.4721 5.36536C28.0286 4.47464 26.0168 4.02928 23.4368 4.02928C23.2218 4.02928 22.9454 4.04464 22.6075 4.07536C22.3004 4.07536 21.9164 4.09071 21.4557 4.12143C20.565 4.18286 19.6282 4.32107 18.6454 4.53607C17.6932 4.72036 16.7104 4.96607 15.6968 5.27321C13.6696 5.8875 11.8729 6.73214 10.3064 7.80714C8.74 8.85143 7.74179 10.0493 7.31179 11.4007C7.21964 11.6771 7.17357 11.9075 7.17357 12.0918C7.17357 12.4296 7.28107 12.6907 7.49607 12.875C7.71107 13.0593 8.03357 13.2436 8.46357 13.4279C8.64786 13.52 8.74 13.6429 8.74 13.7964C8.74 13.9807 8.67857 14.1343 8.55571 14.2571C8.18714 14.6871 7.78786 14.81 7.35786 14.6257C7.26571 14.595 7.02 14.5029 6.62071 14.3493C6.22143 14.165 5.91429 13.95 5.69929 13.7043C5.42286 13.3664 5.28464 12.9979 5.28464 12.5986C5.28464 12.4143 5.36143 12.0457 5.515 11.4929C6.03714 9.89571 7.21964 8.4675 9.0625 7.20821C10.2911 6.34821 11.6425 5.61107 13.1168 4.99679C14.6218 4.35178 16.1268 3.845 17.6318 3.47643C19.1675 3.07714 20.5957 2.84679 21.9164 2.78536C22.4386 2.75464 22.8839 2.73928 23.2525 2.73928C23.6518 2.70857 23.9589 2.69321 24.1739 2.69321C30.7161 2.69321 33.9871 4.73571 33.9871 8.82071C33.9871 9.15857 33.9564 9.55786 33.895 10.0186C33.8336 10.4486 33.7414 10.9246 33.6186 11.4468C32.6357 15.2246 30.455 18.7568 27.0764 22.0432C25.3564 23.7018 23.4982 25.2068 21.5018 26.5582C19.5361 27.9096 17.5243 29.0614 15.4664 30.0136C13.4393 30.9657 11.4582 31.7029 9.52321 32.225C7.61893 32.7471 5.85286 33.0082 4.225 33.0082ZM9.43107 30.2439C8.6325 30.0904 8.06429 29.8139 7.72643 29.4146C7.41929 29.0154 7.26571 28.4318 7.26571 27.6639C7.26571 27.5104 7.28107 27.28 7.31179 26.9729C7.3425 26.6657 7.38857 26.2664 7.45 25.775C7.60357 24.7 8.00286 23.4407 8.64786 21.9971C9.32357 20.5536 10.1529 19.0332 11.1357 17.4361C12.1186 15.8389 13.1629 14.2725 14.2686 12.7368C15.405 11.1704 16.5261 9.77286 17.6318 8.54429C17.6625 8.51357 17.6625 8.4675 17.6318 8.40607C17.6318 8.34464 17.5857 8.29857 17.4936 8.26786L17.4014 8.17571C17.3093 8.05286 17.2939 7.96071 17.3554 7.89929L18.4611 6.60929C18.7068 6.30214 18.9064 6.05643 19.06 5.87214C19.2443 5.65714 19.3825 5.51893 19.4746 5.4575C19.6282 5.30393 19.8739 5.22714 20.2118 5.22714C20.6111 5.22714 20.9796 5.33464 21.3175 5.54964C21.6861 5.76464 21.8704 5.97964 21.8704 6.19464C21.8704 6.34821 21.8089 6.47107 21.6861 6.56321C21.0411 7.14679 20.3193 7.88393 19.5207 8.77464C18.7221 9.63464 17.8468 10.6789 16.8946 11.9075C15.6046 13.5354 14.4068 15.1786 13.3011 16.8371C12.1954 18.4957 11.2739 20.0314 10.5368 21.4443C9.83036 22.8264 9.41571 23.9475 9.29286 24.8075L9.10857 26.0054C9.01643 26.4661 8.97036 26.8961 8.97036 27.2954C8.97036 27.9404 9.2775 28.3396 9.89179 28.4932C10.1989 28.5239 10.3525 28.7389 10.3525 29.1382C10.3525 29.4454 10.2604 29.7218 10.0761 29.9675C9.89179 30.2132 9.67679 30.3054 9.43107 30.2439ZM35.0687 30.2439C35.0073 30.2439 34.9459 30.2286 34.8845 30.1979C34.823 30.1979 34.7616 30.1825 34.7002 30.1518C34.2702 29.9368 33.9937 29.6296 33.8709 29.2304C33.748 28.8311 33.7173 28.3243 33.7787 27.71C33.8402 27.4643 33.9016 27.0343 33.963 26.42C34.0552 25.8057 34.1627 25.3143 34.2855 24.9457L31.9359 27.2032L30.6459 28.4471C29.7552 29.3379 29.018 29.7832 28.4345 29.7832C28.1887 29.7832 27.9891 29.6911 27.8355 29.5068C27.5591 29.1689 27.4209 28.7543 27.4209 28.2629C27.4209 27.6179 27.5898 26.9268 27.9277 26.1896C28.2655 25.4525 28.6648 24.7461 29.1255 24.0704C29.5862 23.3639 30.0009 22.7804 30.3695 22.3196C31.2909 21.1832 32.1816 20.2925 33.0416 19.6475C33.9323 19.0025 34.8537 18.68 35.8059 18.68C36.328 18.68 36.8348 18.7721 37.3262 18.9564C37.8484 19.1407 38.3245 19.4479 38.7545 19.8779L38.8005 19.9239C38.8005 20.0161 38.7237 20.1082 38.5702 20.2004C38.5087 20.2618 38.4473 20.3079 38.3859 20.3386C38.3552 20.3693 38.3245 20.4 38.2937 20.4307C37.9252 20.7993 37.5105 21.4136 37.0498 22.2736C36.5891 23.1336 36.1898 24.0396 35.852 24.9918C35.5141 25.9132 35.3452 26.7118 35.3452 27.3875C35.3452 28.0018 35.4987 28.4164 35.8059 28.6314C35.9595 28.7236 36.1284 28.7696 36.3127 28.7696C36.712 28.7696 37.2648 28.5239 37.9712 28.0325C38.002 28.0018 38.0634 27.9557 38.1555 27.8943C38.2784 27.8021 38.4473 27.6793 38.6623 27.5257C38.908 27.3414 39.1077 27.2493 39.2612 27.2493C39.4148 27.2493 39.4916 27.3107 39.4916 27.4336C39.4916 27.6179 39.3687 27.8329 39.123 28.0786C38.9387 28.2321 38.7237 28.4011 38.478 28.5854C38.263 28.7696 38.002 28.9539 37.6948 29.1382C37.2341 29.4761 36.758 29.7371 36.2666 29.9214C35.7752 30.1364 35.3759 30.2439 35.0687 30.2439ZM29.8627 27.2954C30.5077 27.2954 31.7055 26.3432 33.4562 24.4389C33.917 23.9168 34.3316 23.4254 34.7002 22.9646C35.0687 22.4732 35.4066 21.9971 35.7137 21.5364C36.2666 20.6457 36.4509 20.0314 36.2666 19.6936C36.1745 19.5093 35.9902 19.4171 35.7137 19.4171C35.3759 19.4171 34.9152 19.6014 34.3316 19.97C33.748 20.3079 33.1491 20.7532 32.5348 21.3061C31.9512 21.8589 31.4137 22.4118 30.9223 22.9646C30.5845 23.3946 30.2466 23.9936 29.9087 24.7614C29.5709 25.5293 29.402 26.1589 29.402 26.6504C29.402 27.0804 29.5555 27.2954 29.8627 27.2954ZM40.7075 29.7371C40.1546 29.7371 39.8782 29.5221 39.8782 29.0921C39.8782 28.8157 39.9703 28.4625 40.1546 28.0325C40.3696 27.6025 40.5846 27.1879 40.7996 26.7886C41.3832 25.7443 41.9207 24.7307 42.4121 23.7479C42.9035 22.765 43.3796 21.7207 43.8403 20.615C44.0553 20.1236 44.3778 19.8779 44.8078 19.8779C45.2685 19.8779 45.4067 20.1543 45.2225 20.7071C45.0382 21.1679 44.8539 21.5825 44.6696 21.9511C43.8096 23.7018 43.3796 24.8843 43.3796 25.4986C43.3796 25.775 43.4717 25.9439 43.656 26.0054C44.086 25.6675 44.4085 25.4218 44.6235 25.2682C44.8385 25.0839 44.9614 24.9764 44.9921 24.9457C45.4221 24.6079 45.8982 24.2239 46.4203 23.7939C46.9732 23.3332 47.5721 22.8111 48.2171 22.2275C49.2307 21.3061 50.0753 20.8454 50.751 20.8454C51.5803 20.8454 51.9335 21.5979 51.8107 23.1029C51.78 23.6864 51.78 24.2546 51.8107 24.8075C51.8414 24.9304 51.8567 25.1146 51.8567 25.3604C51.8567 25.5754 51.8567 25.8364 51.8567 26.1436C51.8567 26.4507 52.041 26.6043 52.4096 26.6043C52.8396 26.6043 53.2389 26.4814 53.6075 26.2357L54.621 25.5446L55.6346 24.8996C55.696 24.8689 55.8035 24.8536 55.9571 24.8536C56.1414 24.8536 56.1414 24.9918 55.9571 25.2682C54.0221 27.6639 52.425 28.8618 51.1657 28.8618C50.92 28.8618 50.6742 28.8157 50.4285 28.7236C50.2135 28.6314 50.06 28.3704 49.9678 27.9404C49.8757 27.4796 49.8142 26.9882 49.7835 26.4661C49.7835 25.9439 49.7835 25.5446 49.7835 25.2682L49.8296 23.7479C49.8296 23.1029 49.6607 22.7804 49.3228 22.7804C48.5242 22.7804 46.5585 24.4236 43.4257 27.71C43.18 28.0171 42.796 28.4318 42.2739 28.9539C41.7517 29.4761 41.2296 29.7371 40.7075 29.7371ZM60.7896 18.9104C60.3903 18.9104 60.1906 18.8182 60.1906 18.6339C60.1906 18.4804 60.2981 18.2654 60.5131 17.9889C60.7588 17.6818 61.0353 17.4207 61.3424 17.2057C62.0181 16.7757 62.5403 16.4071 62.9088 16.1C63.3081 15.7929 63.7842 15.2707 64.3371 14.5336C64.3678 14.595 64.3831 14.7179 64.3831 14.9021C64.3831 15.3014 64.2142 15.7929 63.8763 16.3764C63.5692 16.9293 63.216 17.4361 62.8167 17.8968C62.4174 18.3575 62.0642 18.6493 61.7571 18.7721C61.4806 18.8643 61.1581 18.9104 60.7896 18.9104ZM56.6892 30.1979C56.4435 30.1979 56.2131 30.1057 55.9981 29.9214C55.7831 29.7371 55.6756 29.4914 55.6756 29.1843C55.6756 28.5393 56.121 27.3568 57.0117 25.6368L57.5185 24.6232C57.5799 24.5618 57.6567 24.4082 57.7488 24.1625C57.8717 23.9168 58.0406 23.5943 58.2556 23.195C58.4706 22.765 58.6396 22.3811 58.7624 22.0432C58.8853 21.7054 58.9774 21.3829 59.0388 21.0757C59.0388 21.045 59.1003 20.9836 59.2231 20.8914C59.346 20.7993 59.4688 20.7225 59.5917 20.6611L59.8681 20.615C60.1138 20.615 60.3135 20.6611 60.4671 20.7532C60.6513 20.8454 60.7128 20.9682 60.6513 21.1218C60.4363 21.5825 60.2521 21.9818 60.0985 22.3196C59.9449 22.6575 59.8221 22.9493 59.7299 23.195H59.6838C59.346 23.9629 59.0542 24.7 58.8085 25.4064C58.5935 26.0821 58.5013 26.7271 58.5321 27.3414L58.5781 28.5854C58.5474 28.8925 58.4399 29.1536 58.2556 29.3686C58.1328 29.4607 57.9638 29.5682 57.7488 29.6911C57.5338 29.8446 57.2574 29.9982 56.9196 30.1518C56.8888 30.1825 56.8121 30.1979 56.6892 30.1979ZM63.7093 29.5068C63.0643 29.5068 62.4961 29.3379 62.0047 29C61.2061 28.3857 60.8068 27.4643 60.8068 26.2357C60.8068 25.0071 61.2368 23.7018 62.0968 22.3196C62.9568 20.9375 64.2622 19.6629 66.0129 18.4957C66.32 18.2807 66.7347 18.1732 67.2568 18.1732C67.9325 18.1732 68.5315 18.3575 69.0536 18.7261C69.6065 19.0946 69.8215 19.5707 69.6986 20.1543C69.4836 21.1064 69.0075 21.9511 68.2704 22.6882C67.564 23.4254 66.7193 24.0857 65.7365 24.6693C64.7843 25.2221 63.8015 25.7596 62.7879 26.2818C62.7572 26.3739 62.7265 26.4661 62.6958 26.5582C62.6958 26.6504 62.6958 26.7425 62.6958 26.8346C62.6958 27.2646 62.834 27.6486 63.1104 27.9864C63.4175 28.2936 63.8322 28.4471 64.3543 28.4471C64.7536 28.4471 65.0915 28.3857 65.3679 28.2629C65.8593 28.0786 66.2586 27.9096 66.5658 27.7561C66.9036 27.6025 67.2875 27.3721 67.7175 27.065C68.1475 26.7579 68.7311 26.2971 69.4683 25.6829C69.8061 25.4371 70.0058 25.3143 70.0672 25.3143C70.2515 25.3143 70.3129 25.4525 70.2515 25.7289C69.9443 26.2204 69.4068 26.7579 68.639 27.3414C67.9018 27.925 67.0725 28.4318 66.1511 28.8618C65.2604 29.2918 64.4465 29.5068 63.7093 29.5068ZM63.0643 25.0379C63.31 25.0379 63.8168 24.7921 64.5847 24.3007C65.3525 23.8093 66.0743 23.2718 66.75 22.6882C67.9172 21.6132 68.5008 20.7839 68.5008 20.2004C68.5008 20.0468 68.4547 19.9086 68.3625 19.7857C68.2704 19.6321 68.1322 19.5554 67.9479 19.5554C67.3643 19.5554 66.3815 20.2464 64.9993 21.6286C64.0472 22.55 63.4022 23.6864 63.0643 25.0379ZM70.3548 32.0407C70.0169 32.0407 69.7251 31.9332 69.4794 31.7182C69.2644 31.5032 69.1723 31.2421 69.203 30.935C69.2644 29.6757 69.4948 28.4625 69.8941 27.2954C70.3241 26.1282 70.9383 24.7307 71.7369 23.1029C71.8291 22.8879 71.9058 22.7036 71.9673 22.55C72.0594 22.3657 72.1362 22.2121 72.1976 22.0893C72.8733 20.6457 73.5644 19.2636 74.2708 17.9429C74.9773 16.6221 75.6837 15.3321 76.3901 14.0729L77.0351 12.9211C77.7723 11.6004 78.4173 10.5407 78.9701 9.74214C79.523 8.91286 80.0758 8.31393 80.6287 7.94536C81.3351 7.51536 81.7651 7.30036 81.9187 7.30036C82.1644 7.30036 82.4101 7.51536 82.6558 7.94536C82.8094 8.2525 82.5023 9.005 81.7344 10.2029C81.3351 10.8171 80.8283 11.585 80.2141 12.5064C79.6305 13.4279 78.9241 14.4721 78.0948 15.6393C77.9412 15.8543 77.6801 16.2382 77.3116 16.7911C76.9737 17.3132 76.513 18.0043 75.9294 18.8643C75.3458 19.7243 74.8391 20.5075 74.4091 21.2139C73.9791 21.8896 73.6258 22.4886 73.3494 23.0107C72.7966 24.0243 72.2744 25.1146 71.783 26.2818C71.2916 27.4182 71.0458 28.3089 71.0458 28.9539C71.0458 29.5375 71.2762 29.8293 71.7369 29.8293C72.4741 29.8293 73.6566 29.1996 75.2844 27.9404C75.4687 27.9711 75.5608 28.0632 75.5608 28.2168C75.5608 28.3396 75.4073 28.5546 75.1001 28.8618C74.8237 29.1382 74.4705 29.43 74.0405 29.7371C73.6412 30.075 73.1651 30.4589 72.6123 30.8889L71.8751 31.4418C71.3837 31.8411 70.8769 32.0407 70.3548 32.0407ZM130.16 31.8104C129.239 31.8104 128.486 31.365 127.903 30.4743C127.35 29.6143 127.135 28.5854 127.258 27.3875C127.411 25.9132 127.764 24.1779 128.317 22.1814C128.901 20.1543 129.607 18.035 130.437 15.8236C131.297 13.5814 132.203 11.4161 133.155 9.3275C132.756 9.88036 132.264 10.5561 131.681 11.3546C131.128 12.1225 130.498 13.0132 129.792 14.0268L128.962 15.2246C128.256 16.2382 127.611 17.1443 127.027 17.9429C126.444 18.7414 125.922 19.4479 125.461 20.0621C125.399 20.1236 125.261 20.2925 125.046 20.5689C124.862 20.8146 124.601 21.1525 124.263 21.5825C123.925 22.0125 123.557 22.4579 123.157 22.9186C122.789 23.3486 122.405 23.7786 122.006 24.2086C120.163 26.2664 118.919 27.2954 118.274 27.2954C117.352 27.3261 116.661 26.9114 116.201 26.0514C115.74 25.1914 115.509 24.0089 115.509 22.5039C115.509 21.8896 115.556 21.2139 115.648 20.4768C115.893 18.1425 116.538 15.1171 117.583 11.4007L118.642 7.62286C118.796 7.10071 118.903 6.62464 118.965 6.19464C119.026 5.76464 119.072 5.36536 119.103 4.99679C119.103 4.5975 119.226 4.32107 119.472 4.1675C119.748 3.98321 120.086 3.89107 120.485 3.89107C120.915 3.89107 121.299 3.98321 121.637 4.1675C122.006 4.35178 122.174 4.55143 122.144 4.76643C122.052 5.35 121.929 5.94893 121.775 6.56321C121.622 7.1775 121.437 7.8225 121.222 8.49821C121.161 8.74393 121.038 9.06643 120.854 9.46571C120.7 9.865 120.501 10.3257 120.255 10.8479L119.702 12.0918C119.026 13.5968 118.489 15.0096 118.089 16.3304C117.69 17.6511 117.414 19.0025 117.26 20.3846C117.229 20.5075 117.214 20.6764 117.214 20.8914C117.214 21.0757 117.214 21.2907 117.214 21.5364C117.214 22.4579 117.368 23.1182 117.675 23.5175C118.013 23.8861 118.535 24.0857 119.241 24.1164C119.548 24.1164 119.948 23.9475 120.439 23.6096C120.961 23.2718 121.499 22.8571 122.052 22.3657C122.604 21.8743 123.127 21.3675 123.618 20.8454C124.14 20.2925 124.555 19.8164 124.862 19.4171C126.705 17.0829 128.394 14.8254 129.93 12.6446C131.496 10.4332 132.817 8.37536 133.892 6.47107C134.998 4.56679 135.766 2.90822 136.196 1.49536C136.349 1.03464 136.718 0.804285 137.301 0.804285C137.762 0.804285 138.177 0.957856 138.545 1.265C138.914 1.57214 139.006 1.91 138.822 2.27857L138.038 3.79893C137.209 5.42679 136.411 6.97786 135.643 8.45214C134.906 9.89571 134.245 11.2932 133.662 12.6446L133.616 12.5986C132.356 15.4857 131.358 18.1425 130.621 20.5689C129.914 22.9646 129.454 25.1454 129.239 27.1111C129.177 28.0018 129.285 28.785 129.561 29.4607C129.868 30.1364 130.314 30.4743 130.897 30.4743C131.665 30.4743 132.479 29.9214 133.339 28.8157C133.646 28.4164 133.923 28.2629 134.168 28.355C134.261 28.4471 134.307 28.5239 134.307 28.5854C134.307 28.7389 134.245 28.8771 134.122 29C133.477 29.9521 132.802 30.6586 132.095 31.1193C131.419 31.58 130.774 31.8104 130.16 31.8104ZM92.2434 34.3904C90.2162 34.3904 88.6037 33.73 87.4059 32.4093C86.208 31.1193 85.6091 29.3071 85.6091 26.9729C85.6091 23.7479 86.7762 20.0314 89.1105 15.8236C90.7077 12.9364 92.4737 10.8018 94.4087 9.41964C96.3745 8.00679 98.248 7.30036 100.029 7.30036C101.596 7.30036 102.886 7.77643 103.899 8.72857C104.944 9.68071 105.466 10.8939 105.466 12.3682C105.466 13.4739 105.143 14.6257 104.498 15.8236C103.884 17.0214 102.932 18.2193 101.642 19.4171C101.488 19.5707 101.335 19.6475 101.181 19.6475C101.028 19.6475 100.951 19.5554 100.951 19.3711C100.951 19.1868 101.074 18.9718 101.319 18.7261C102.241 17.7739 102.932 16.8218 103.393 15.8696C103.853 14.8868 104.084 13.9654 104.084 13.1054C104.084 11.8768 103.684 10.8786 102.886 10.1107C102.087 9.31214 101.074 8.91286 99.8452 8.91286C98.3709 8.91286 96.8198 9.52714 95.192 10.7557C93.5948 11.9536 92.0898 13.8271 90.677 16.3764C88.4041 20.5843 87.2677 24.1625 87.2677 27.1111C87.2677 28.9846 87.713 30.4436 88.6037 31.4879C89.5252 32.5321 90.7845 33.0543 92.3816 33.0543C93.8252 33.0543 95.4377 32.6243 97.2191 31.7643C99.0005 30.9043 100.889 29.5989 102.886 27.8482C105.65 25.3911 108.184 22.4886 110.488 19.1407C111.655 17.4514 112.546 16.1614 113.16 15.2707C113.774 14.38 114.112 13.8886 114.173 13.7964C114.665 13.1207 115.187 12.3989 115.74 11.6311C116.293 10.8325 116.876 9.9725 117.491 9.05107C117.583 8.8975 117.675 8.91286 117.767 9.09714C117.921 9.34286 117.936 9.5425 117.813 9.69607C117.107 10.7404 116.308 11.9996 115.417 13.4739C114.557 14.9175 113.574 16.5454 112.469 18.3575L111.639 19.6936H111.686C109.228 23.5021 106.479 26.6811 103.439 29.2304C101.412 30.9504 99.4305 32.2404 97.4955 33.1004C95.5912 33.9604 93.8405 34.3904 92.2434 34.3904ZM142.194 30.2439C142.132 30.2439 142.071 30.2286 142.01 30.1979C141.948 30.1979 141.887 30.1825 141.825 30.1518C141.395 29.9368 141.119 29.6296 140.996 29.2304C140.873 28.8311 140.842 28.3243 140.904 27.71C140.965 27.4643 141.027 27.0343 141.088 26.42C141.18 25.8057 141.288 25.3143 141.411 24.9457L139.061 27.2032L137.771 28.4471C136.88 29.3379 136.143 29.7832 135.56 29.7832C135.314 29.7832 135.114 29.6911 134.961 29.5068C134.684 29.1689 134.546 28.7543 134.546 28.2629C134.546 27.6179 134.715 26.9268 135.053 26.1896C135.391 25.4525 135.79 24.7461 136.251 24.0704C136.711 23.3639 137.126 22.7804 137.495 22.3196C138.416 21.1832 139.307 20.2925 140.167 19.6475C141.057 19.0025 141.979 18.68 142.931 18.68C143.453 18.68 143.96 18.7721 144.451 18.9564C144.973 19.1407 145.45 19.4479 145.88 19.8779L145.926 19.9239C145.926 20.0161 145.849 20.1082 145.695 20.2004C145.634 20.2618 145.572 20.3079 145.511 20.3386C145.48 20.3693 145.45 20.4 145.419 20.4307C145.05 20.7993 144.636 21.4136 144.175 22.2736C143.714 23.1336 143.315 24.0396 142.977 24.9918C142.639 25.9132 142.47 26.7118 142.47 27.3875C142.47 28.0018 142.624 28.4164 142.931 28.6314C143.085 28.7236 143.253 28.7696 143.438 28.7696C143.837 28.7696 144.39 28.5239 145.096 28.0325C145.127 28.0018 145.188 27.9557 145.281 27.8943C145.403 27.8021 145.572 27.6793 145.787 27.5257C146.033 27.3414 146.233 27.2493 146.386 27.2493C146.54 27.2493 146.617 27.3107 146.617 27.4336C146.617 27.6179 146.494 27.8329 146.248 28.0786C146.064 28.2321 145.849 28.4011 145.603 28.5854C145.388 28.7696 145.127 28.9539 144.82 29.1382C144.359 29.4761 143.883 29.7371 143.392 29.9214C142.9 30.1364 142.501 30.2439 142.194 30.2439ZM136.988 27.2954C137.633 27.2954 138.831 26.3432 140.581 24.4389C141.042 23.9168 141.457 23.4254 141.825 22.9646C142.194 22.4732 142.532 21.9971 142.839 21.5364C143.392 20.6457 143.576 20.0314 143.392 19.6936C143.3 19.5093 143.115 19.4171 142.839 19.4171C142.501 19.4171 142.04 19.6014 141.457 19.97C140.873 20.3079 140.274 20.7532 139.66 21.3061C139.076 21.8589 138.539 22.4118 138.047 22.9646C137.71 23.3946 137.372 23.9936 137.034 24.7614C136.696 25.5293 136.527 26.1589 136.527 26.6504C136.527 27.0804 136.681 27.2954 136.988 27.2954ZM148.367 29.9675C147.968 29.9675 147.768 29.6143 147.768 28.9079C147.768 28.3243 147.906 27.7561 148.183 27.2032C148.889 25.8518 149.534 24.5157 150.118 23.195C150.517 22.3964 150.886 21.6286 151.223 20.8914C151.592 20.1543 151.93 19.4786 152.237 18.8643C152.421 18.68 152.606 18.5879 152.79 18.5879C153.189 18.5879 153.312 18.7721 153.158 19.1407C153.097 19.3557 153.005 19.6168 152.882 19.9239C152.79 20.2004 152.667 20.5382 152.513 20.9375C152.022 22.2275 151.73 23.1336 151.638 23.6557C152.498 22.8879 153.373 22.1814 154.264 21.5364C155.186 20.8607 156.046 20.3079 156.844 19.8779C157.643 19.4479 158.318 19.2329 158.871 19.2329C159.363 19.2329 159.608 19.4325 159.608 19.8318C159.608 20.1696 159.455 20.5382 159.148 20.9375C158.841 21.3061 158.533 21.4904 158.226 21.4904C158.073 21.4904 157.95 21.4443 157.858 21.3521C157.766 21.3214 157.581 21.3061 157.305 21.3061C156.322 21.3061 155.293 21.7821 154.218 22.7343C153.082 23.6864 152.053 24.8382 151.131 26.1896C150.21 27.5104 149.534 28.6621 149.104 29.645C148.889 29.86 148.643 29.9675 148.367 29.9675ZM157.916 33.2846C157.762 33.2846 157.686 33.1464 157.686 32.87C157.686 32.8086 157.686 32.7164 157.686 32.5936C157.716 32.5014 157.747 32.3939 157.778 32.2711L159.759 27.2954L162.109 21.4904C161.74 21.4596 161.202 21.475 160.496 21.5364C159.79 21.5671 159.191 21.6286 158.699 21.7207C158.515 21.7514 158.361 21.7821 158.239 21.8129C158.146 21.8129 158.07 21.8129 158.008 21.8129C157.762 21.8129 157.594 21.7054 157.501 21.4904C157.532 21.3061 157.701 21.1371 158.008 20.9836C158.162 20.9221 158.346 20.8761 158.561 20.8454C158.776 20.7839 159.037 20.7225 159.344 20.6611C159.682 20.5996 159.974 20.5536 160.22 20.5229C160.496 20.4921 160.696 20.4614 160.819 20.4307C160.972 20.4 161.126 20.3693 161.279 20.3386C161.433 20.3079 161.617 20.2771 161.832 20.2464C162.016 20.2157 162.216 20.185 162.431 20.1543C162.646 20.1236 162.876 20.0775 163.122 20.0161C163.368 19.6782 163.736 19.0793 164.228 18.2193C164.719 17.3593 165.349 16.2229 166.117 14.81C166.731 13.6736 167.222 12.7829 167.591 12.1379C167.99 11.4621 168.267 11.0168 168.42 10.8018C168.697 10.4332 169.019 10.2489 169.388 10.2489C169.572 10.2489 169.664 10.3257 169.664 10.4793C169.664 10.51 169.587 10.7096 169.434 11.0782C169.25 11.3854 168.942 11.9536 168.512 12.7829C168.082 13.6121 167.622 14.5182 167.13 15.5011C166.639 16.4839 166.194 17.4054 165.794 18.2654C165.395 19.1254 165.119 19.755 164.965 20.1543C165.119 20.1236 165.287 20.1082 165.472 20.1082C165.687 20.1082 165.948 20.1082 166.255 20.1082C166.593 20.1082 166.9 20.1236 167.176 20.1543C167.484 20.1543 167.745 20.1696 167.96 20.2004C168.39 20.2925 168.605 20.4154 168.605 20.5689C168.605 20.6304 168.466 20.7379 168.19 20.8914C168.036 20.9529 167.745 21.0143 167.315 21.0757C166.885 21.1371 166.316 21.1986 165.61 21.26C165.426 21.26 165.226 21.2754 165.011 21.3061C164.796 21.3061 164.566 21.3214 164.32 21.3521C163.399 22.8571 162.139 25.3604 160.542 28.8618C159.959 30.0289 159.513 30.935 159.206 31.58C158.899 32.225 158.715 32.6089 158.653 32.7318C158.377 33.1004 158.131 33.2846 157.916 33.2846ZM169.939 18.9104C169.54 18.9104 169.34 18.8182 169.34 18.6339C169.34 18.4804 169.448 18.2654 169.663 17.9889C169.909 17.6818 170.185 17.4207 170.492 17.2057C171.168 16.7757 171.69 16.4071 172.059 16.1C172.458 15.7929 172.934 15.2707 173.487 14.5336C173.517 14.595 173.533 14.7179 173.533 14.9021C173.533 15.3014 173.364 15.7929 173.026 16.3764C172.719 16.9293 172.366 17.4361 171.966 17.8968C171.567 18.3575 171.214 18.6493 170.907 18.7721C170.63 18.8643 170.308 18.9104 169.939 18.9104ZM165.839 30.1979C165.593 30.1979 165.363 30.1057 165.148 29.9214C164.933 29.7371 164.825 29.4914 164.825 29.1843C164.825 28.5393 165.271 27.3568 166.161 25.6368L166.668 24.6232C166.73 24.5618 166.806 24.4082 166.899 24.1625C167.021 23.9168 167.19 23.5943 167.405 23.195C167.62 22.765 167.789 22.3811 167.912 22.0432C168.035 21.7054 168.127 21.3829 168.189 21.0757C168.189 21.045 168.25 20.9836 168.373 20.8914C168.496 20.7993 168.619 20.7225 168.741 20.6611L169.018 20.615C169.264 20.615 169.463 20.6611 169.617 20.7532C169.801 20.8454 169.862 20.9682 169.801 21.1218C169.586 21.5825 169.402 21.9818 169.248 22.3196C169.095 22.6575 168.972 22.9493 168.88 23.195H168.834C168.496 23.9629 168.204 24.7 167.958 25.4064C167.743 26.0821 167.651 26.7271 167.682 27.3414L167.728 28.5854C167.697 28.8925 167.59 29.1536 167.405 29.3686C167.282 29.4607 167.114 29.5682 166.899 29.6911C166.684 29.8446 166.407 29.9982 166.069 30.1518C166.039 30.1825 165.962 30.1979 165.839 30.1979ZM170.463 29.7371C169.91 29.7371 169.634 29.5221 169.634 29.0921C169.634 28.8157 169.726 28.4625 169.91 28.0325C170.125 27.6025 170.34 27.1879 170.555 26.7886C171.139 25.7443 171.677 24.7307 172.168 23.7479C172.659 22.765 173.135 21.7207 173.596 20.615C173.811 20.1236 174.134 19.8779 174.564 19.8779C175.024 19.8779 175.163 20.1543 174.978 20.7071C174.794 21.1679 174.61 21.5825 174.425 21.9511C173.565 23.7018 173.135 24.8843 173.135 25.4986C173.135 25.775 173.228 25.9439 173.412 26.0054C173.842 25.6675 174.164 25.4218 174.379 25.2682C174.594 25.0839 174.717 24.9764 174.748 24.9457C175.178 24.6079 175.654 24.2239 176.176 23.7939C176.729 23.3332 177.328 22.8111 177.973 22.2275C178.987 21.3061 179.831 20.8454 180.507 20.8454C181.336 20.8454 181.689 21.5979 181.567 23.1029C181.536 23.6864 181.536 24.2546 181.567 24.8075C181.597 24.9304 181.613 25.1146 181.613 25.3604C181.613 25.5754 181.613 25.8364 181.613 26.1436C181.613 26.4507 181.797 26.6043 182.165 26.6043C182.595 26.6043 182.995 26.4814 183.363 26.2357L184.377 25.5446L185.39 24.8996C185.452 24.8689 185.559 24.8536 185.713 24.8536C185.897 24.8536 185.897 24.9918 185.713 25.2682C183.778 27.6639 182.181 28.8618 180.922 28.8618C180.676 28.8618 180.43 28.8157 180.184 28.7236C179.969 28.6314 179.816 28.3704 179.724 27.9404C179.632 27.4796 179.57 26.9882 179.539 26.4661C179.539 25.9439 179.539 25.5446 179.539 25.2682L179.585 23.7479C179.585 23.1029 179.417 22.7804 179.079 22.7804C178.28 22.7804 176.314 24.4236 173.182 27.71C172.936 28.0171 172.552 28.4318 172.03 28.9539C171.508 29.4761 170.985 29.7371 170.463 29.7371ZM188.426 29.5068C187.781 29.5068 187.213 29.3379 186.721 29C185.923 28.3857 185.524 27.4643 185.524 26.2357C185.524 25.0071 185.954 23.7018 186.814 22.3196C187.674 20.9375 188.979 19.6629 190.73 18.4957C191.037 18.2807 191.451 18.1732 191.974 18.1732C192.649 18.1732 193.248 18.3575 193.77 18.7261C194.323 19.0946 194.538 19.5707 194.415 20.1543C194.2 21.1064 193.724 21.9511 192.987 22.6882C192.281 23.4254 191.436 24.0857 190.453 24.6693C189.501 25.2221 188.518 25.7596 187.505 26.2818C187.474 26.3739 187.443 26.4661 187.413 26.5582C187.413 26.6504 187.413 26.7425 187.413 26.8346C187.413 27.2646 187.551 27.6486 187.827 27.9864C188.134 28.2936 188.549 28.4471 189.071 28.4471C189.47 28.4471 189.808 28.3857 190.085 28.2629C190.576 28.0786 190.975 27.9096 191.283 27.7561C191.62 27.6025 192.004 27.3721 192.434 27.065C192.864 26.7579 193.448 26.2971 194.185 25.6829C194.523 25.4371 194.723 25.3143 194.784 25.3143C194.968 25.3143 195.03 25.4525 194.968 25.7289C194.661 26.2204 194.124 26.7579 193.356 27.3414C192.619 27.925 191.789 28.4318 190.868 28.8618C189.977 29.2918 189.163 29.5068 188.426 29.5068ZM187.781 25.0379C188.027 25.0379 188.534 24.7921 189.301 24.3007C190.069 23.8093 190.791 23.2718 191.467 22.6882C192.634 21.6132 193.218 20.7839 193.218 20.2004C193.218 20.0468 193.171 19.9086 193.079 19.7857C192.987 19.6321 192.849 19.5554 192.665 19.5554C192.081 19.5554 191.098 20.2464 189.716 21.6286C188.764 22.55 188.119 23.6864 187.781 25.0379ZM189.267 47.1061C188.929 47.1061 188.668 46.7989 188.483 46.1846C188.391 45.9082 188.345 45.5704 188.345 45.1711C188.345 43.4511 189.144 41.4239 190.741 39.0896C191.539 37.9225 192.445 36.7093 193.459 35.45C194.442 34.1907 195.455 33.0082 196.5 31.9025C197.544 30.8275 198.481 29.9521 199.31 29.2764C199.617 29.0307 199.878 28.6929 200.093 28.2629C200.339 27.8329 200.539 27.4029 200.692 26.9729C200.846 26.5121 200.923 26.1743 200.923 25.9593C200.923 25.5293 200.723 25.3143 200.324 25.3143C200.078 25.3143 199.725 25.4218 199.264 25.6368C199.049 25.7596 198.834 25.8979 198.619 26.0514C198.435 26.205 198.204 26.3739 197.928 26.5582L196.822 27.2954C196.546 27.4796 196.3 27.5718 196.085 27.5718C195.655 27.5718 195.44 27.3721 195.44 26.9729C195.44 26.6964 195.594 26.4046 195.901 26.0975C195.901 26.0054 195.993 25.9132 196.177 25.8211C196.945 25.4832 197.79 24.8843 198.711 24.0243C199.694 23.1643 200.585 22.2121 201.383 21.1679C202.213 20.0929 202.75 19.0639 202.996 18.0811C203.088 17.6204 203.134 17.2518 203.134 16.9754C203.134 16.2075 202.796 15.8236 202.12 15.8236C201.045 15.8236 199.909 16.2536 198.711 17.1136C197.544 17.9429 196.484 18.895 195.532 19.97C195.502 20.0621 195.44 20.1082 195.348 20.1082C195.194 20.1082 195.118 19.9854 195.118 19.7396C195.118 19.5861 195.164 19.4632 195.256 19.3711C195.87 18.6032 196.577 17.8661 197.375 17.1596C198.174 16.4532 199.003 15.8696 199.863 15.4089C200.754 14.9175 201.598 14.6718 202.397 14.6718C202.52 14.6718 202.658 14.6871 202.812 14.7179C202.996 14.7486 203.195 14.7946 203.41 14.8561C204.301 15.1325 204.747 15.7468 204.747 16.6989C204.747 17.6511 204.332 18.7568 203.503 20.0161C202.735 21.1218 201.353 22.5807 199.356 24.3929L201.015 23.6096C201.721 23.2718 202.305 23.1029 202.765 23.1029C203.011 23.1029 203.195 23.1643 203.318 23.2871C203.41 23.41 203.457 23.5636 203.457 23.7479C203.457 23.9936 203.41 24.2086 203.318 24.3929C203.165 24.6386 203.088 24.8536 203.088 25.0379C203.088 25.3757 203.257 25.5446 203.595 25.5446C203.687 25.5446 203.902 25.4679 204.24 25.3143C204.608 25.1607 204.885 25.0379 205.069 24.9457C205.407 24.7614 205.699 24.5925 205.944 24.4389C206.221 24.2546 206.467 24.0857 206.682 23.9321C206.897 23.8093 207.004 23.84 207.004 24.0243C206.912 24.27 206.728 24.4696 206.451 24.6232C206.236 24.7768 205.944 25.0071 205.576 25.3143C205.238 25.5907 204.808 25.9286 204.286 26.3279L202.259 27.9404C201.982 28.1861 201.629 28.7082 201.199 29.5068L199.725 32.3171L199.172 33.3307C198.619 34.3443 198.066 35.3732 197.513 36.4175C196.991 37.4618 196.423 38.4754 195.809 39.4582C193.659 43.1439 191.985 45.4321 190.787 46.3229C190.08 46.845 189.574 47.1061 189.267 47.1061ZM190.234 45.2632C190.48 45.2632 190.71 45.1557 190.925 44.9407C191.417 44.5414 192.108 43.6354 192.998 42.2225C194.012 40.6868 194.995 39.0589 195.947 37.3389C196.899 35.6189 197.621 34.1293 198.112 32.87C198.174 32.7164 198.22 32.5782 198.25 32.4554C198.281 32.3325 198.312 32.2404 198.343 32.1789C198.404 31.9946 198.435 31.8871 198.435 31.8564C198.435 31.5186 198.25 31.4418 197.882 31.6261C197.759 31.6875 197.621 31.7643 197.467 31.8564C197.344 31.9486 197.206 32.0714 197.053 32.225C196.193 32.9621 195.287 33.9143 194.334 35.0814C193.413 36.2793 192.246 38.0146 190.833 40.2875C190.434 40.9325 190.127 41.6082 189.912 42.3146C189.697 43.0518 189.589 43.6814 189.589 44.2036C189.589 44.6336 189.65 44.91 189.773 45.0329C189.927 45.1864 190.08 45.2632 190.234 45.2632Z" fill="#111827"/>
</svg>
