<svg width="16" height="16" viewBox="0 0 16 16" fill="none" xmlns="http://www.w3.org/2000/svg">
<path d="M8.16424 10.6667C8.09846 10.667 8.03325 10.6544 7.97235 10.6296C7.91145 10.6047 7.85606 10.568 7.80936 10.5217L2.81106 5.52342C2.71694 5.4293 2.66406 5.30164 2.66406 5.16854C2.66406 5.03543 2.71694 4.90778 2.81106 4.81366C2.90518 4.71954 3.03283 4.66666 3.16594 4.66666C3.29904 4.66666 3.4267 4.71954 3.52082 4.81366L8.16424 9.46208L12.8077 4.81366C12.9018 4.71954 13.0294 4.66666 13.1625 4.66666C13.2956 4.66666 13.4233 4.71954 13.5174 4.81366C13.6115 4.90778 13.6644 5.03543 13.6644 5.16854C13.6644 5.30164 13.6115 5.4293 13.5174 5.52342L8.51912 10.5217C8.47241 10.568 8.41702 10.6047 8.35612 10.6296C8.29523 10.6544 8.23002 10.667 8.16424 10.6667Z" fill="#6B7280"/>
</svg>
