<svg width="16" height="16" viewBox="0 0 16 16" fill="none" xmlns="http://www.w3.org/2000/svg">
<g clip-path="url(#clip0_19_537)">
<path d="M1.92024 0.143158C0.888516 0.143158 0.0492554 0.982476 0.0492554 2.01414C0.0492554 3.04581 0.888168 3.88507 1.92024 3.88507C2.95231 3.88507 3.79122 3.04581 3.79122 2.01414C3.79122 0.982476 2.95191 0.143158 1.92024 0.143158Z" fill="#101010"/>
<path d="M7.97566 0.143158C6.94399 0.143158 6.10468 0.982476 6.10468 2.01414C6.10468 3.04581 6.94399 3.88507 7.97566 3.88507C9.00738 3.88507 9.84682 3.04581 9.84682 2.01414C9.84682 0.982476 9.00773 0.143158 7.97566 0.143158Z" fill="#101010"/>
<path d="M14.129 3.88513C15.1605 3.88513 16 3.04587 16 2.0142C16 0.982534 15.1612 0.143158 14.129 0.143158C13.0969 0.143158 12.2581 0.982476 12.2581 2.01414C12.2581 3.04581 13.0975 3.88513 14.129 3.88513Z" fill="#101010"/>
<path d="M1.87133 9.88033C2.903 9.88033 3.74249 9.04124 3.74249 8.0094C3.74249 6.97751 2.903 6.13824 1.87133 6.13824C0.839666 6.13824 0 6.97756 0 8.0094C0 9.04124 0.839666 9.88033 1.87133 9.88033Z" fill="#101010"/>
<path d="M7.92677 9.88033C8.95826 9.88033 9.79775 9.04124 9.79775 8.0094C9.79775 6.97751 8.95896 6.13824 7.92677 6.13824C6.89476 6.13824 6.05579 6.97751 6.05579 8.0094C6.05579 9.04124 6.8951 9.88033 7.92677 9.88033Z" fill="#101010"/>
<path d="M14.0807 9.88033C15.1126 9.88033 15.9516 9.04124 15.9516 8.0094C15.9516 6.97751 15.1126 6.13824 14.0807 6.13824C13.0488 6.13824 12.209 6.97751 12.209 8.0094C12.209 9.04124 13.0485 9.88033 14.0807 9.88033Z" fill="#101010"/>
<path d="M1.91412 12.1149C0.882452 12.1149 0.0427856 12.954 0.0427856 13.9859C0.0427856 15.0173 0.882452 15.8568 1.91412 15.8568C2.94578 15.8568 3.78504 15.0177 3.78504 13.9859C3.78504 12.954 2.94578 12.1149 1.91412 12.1149Z" fill="#101010"/>
<path d="M7.9699 12.1149C6.93818 12.1149 6.09857 12.954 6.09857 13.9859C6.09857 15.0173 6.93789 15.8568 7.9699 15.8568C9.00139 15.8568 9.84083 15.0177 9.84083 13.9859C9.84083 12.954 9.00139 12.1149 7.9699 12.1149Z" fill="#101010"/>
<path d="M14.1231 12.1149C13.0916 12.1149 12.2521 12.954 12.2521 13.9859C12.2521 15.0173 13.0916 15.8568 14.1231 15.8568C15.155 15.8568 15.9941 15.0177 15.9941 13.9859C15.9941 12.954 15.1546 12.1149 14.1231 12.1149Z" fill="#101010"/>
</g>
<defs>
<clipPath id="clip0_19_537">
<rect width="16" height="16" fill="white"/>
</clipPath>
</defs>
</svg>
