<svg width="77" height="22" viewBox="0 0 77 22" fill="none" xmlns="http://www.w3.org/2000/svg">
<path d="M4.81 21.97C3.57 21.97 2.58 21.6 1.84 20.86C1.12 20.14 0.76 19.16 0.76 17.92C0.76 17.06 0.89 16.17 1.15 15.25C1.41 14.31 1.79 13.34 2.29 12.34C2.93 11.06 3.7 9.91 4.6 8.89C5.52 7.85 6.52 7.03 7.6 6.43C8.7 5.83 9.83 5.53 10.99 5.53C11.75 5.53 12.3 5.72 12.64 6.1C13 6.46 13.18 6.94 13.18 7.54C13.18 8.06 13.07 8.64 12.85 9.28C12.63 9.9 12.36 10.48 12.04 11.02C11.74 11.54 11.43 11.94 11.11 12.22C11.03 12.3 10.94 12.34 10.84 12.34C10.74 12.34 10.69 12.29 10.69 12.19C10.69 12.05 10.76 11.91 10.9 11.77C11.24 11.47 11.55 10.99 11.83 10.33C12.11 9.67 12.25 9.04 12.25 8.44C12.25 7.92 12.13 7.51 11.89 7.21C11.65 6.89 11.27 6.73 10.75 6.73C9.31 6.73 7.91 7.35 6.55 8.59C5.65 9.41 4.84 10.36 4.12 11.44C3.4 12.52 2.82 13.62 2.38 14.74C1.94 15.84 1.67 16.85 1.57 17.77C1.51 18.47 1.62 19.11 1.9 19.69C2.2 20.29 2.62 20.75 3.16 21.07C3.7 21.41 4.31 21.55 4.99 21.49C6.81 21.33 8.59 20.5 10.33 19C12.07 17.48 13.91 15.39 15.85 12.73C15.61 12.49 15.45 12.2 15.37 11.86C15.33 11.54 15.39 11.29 15.55 11.11C15.73 10.91 15.95 10.81 16.21 10.81C16.55 10.81 16.82 10.91 17.02 11.11C17.36 10.51 17.99 9.43 18.91 7.87C19.03 7.67 19.23 7.33 19.51 6.85C19.81 6.35 20.13 5.8 20.47 5.2C20.81 4.58 21.12 4 21.4 3.46C21.42 3.44 21.43 3.4 21.43 3.34C21.43 3.3 21.38 3.21 21.28 3.07C21.14 2.97 21.12 2.86 21.22 2.74L22 1.15C22.1 0.989999 22.27 0.909999 22.51 0.909999C22.75 0.909999 22.97 0.969999 23.17 1.09C23.39 1.21 23.49 1.34 23.47 1.48C23.25 2.4 22.68 3.66 21.76 5.26C20.86 6.84 19.69 8.72 18.25 10.9C18.01 11.26 17.81 11.52 17.65 11.68L17.59 11.74C17.53 11.8 17.51 11.88 17.53 11.98L17.59 12.43C17.89 12.53 18.11 12.58 18.25 12.58C18.93 12.58 19.65 12.47 20.41 12.25C21.17 12.01 21.9 11.71 22.6 11.35C23.32 10.99 23.93 10.63 24.43 10.27C25.71 9.33 26.79 8.37 27.67 7.39C28.57 6.39 29.34 5.32 29.98 4.18C30.08 3.94 30.13 3.65 30.13 3.31C30.17 3.09 30.22 2.88 30.28 2.68C30.36 2.48 30.45 2.31 30.55 2.17C30.63 2.03 30.79 1.96 31.03 1.96C31.27 1.96 31.48 2.03 31.66 2.17C31.86 2.29 31.94 2.44 31.9 2.62C31.72 3.34 31.28 4.19 30.58 5.17C29.88 6.15 29.03 7.14 28.03 8.14C27.05 9.14 26.01 10.04 24.91 10.84C24.35 11.26 23.68 11.66 22.9 12.04C22.14 12.4 21.35 12.7 20.53 12.94C19.71 13.16 18.92 13.27 18.16 13.27H17.83C17.99 14.01 18.18 14.66 18.4 15.22C18.62 15.78 18.93 16.35 19.33 16.93C19.75 17.51 20.18 17.99 20.62 18.37C21.06 18.73 21.57 18.91 22.15 18.91C22.53 18.91 22.95 18.85 23.41 18.73C23.87 18.59 24.16 18.42 24.28 18.22C24.4 18.04 24.55 17.95 24.73 17.95C24.87 17.95 24.94 18 24.94 18.1C24.94 18.16 24.91 18.24 24.85 18.34C24.67 18.6 24.37 18.9 23.95 19.24C23.55 19.6 23.14 19.9 22.72 20.14C22.3 20.4 21.95 20.53 21.67 20.53C20.91 20.47 20.27 20.23 19.75 19.81C19.23 19.39 18.73 18.71 18.25 17.77C17.95 17.13 17.65 16.31 17.35 15.31L17.02 14.2C16.98 13.98 16.93 13.78 16.87 13.6C16.81 13.42 16.76 13.26 16.72 13.12L16.57 13.06C14.53 15.82 12.51 17.99 10.51 19.57C8.51 21.15 6.61 21.95 4.81 21.97ZM29.571 19.81C29.531 19.81 29.491 19.8 29.451 19.78C29.411 19.78 29.371 19.77 29.331 19.75C29.051 19.61 28.871 19.41 28.791 19.15C28.711 18.89 28.691 18.56 28.731 18.16C28.771 18 28.811 17.72 28.851 17.32C28.911 16.92 28.981 16.6 29.061 16.36L27.531 17.83L26.691 18.64C26.111 19.22 25.631 19.51 25.251 19.51C25.091 19.51 24.961 19.45 24.861 19.33C24.681 19.11 24.591 18.84 24.591 18.52C24.591 18.1 24.701 17.65 24.921 17.17C25.141 16.69 25.401 16.23 25.701 15.79C26.001 15.33 26.271 14.95 26.511 14.65C27.111 13.91 27.691 13.33 28.251 12.91C28.831 12.49 29.431 12.28 30.051 12.28C30.391 12.28 30.721 12.34 31.041 12.46C31.381 12.58 31.691 12.78 31.971 13.06L32.001 13.09C32.001 13.15 31.951 13.21 31.851 13.27C31.811 13.31 31.771 13.34 31.731 13.36C31.711 13.38 31.691 13.4 31.671 13.42C31.431 13.66 31.161 14.06 30.861 14.62C30.561 15.18 30.301 15.77 30.081 16.39C29.861 16.99 29.751 17.51 29.751 17.95C29.751 18.35 29.851 18.62 30.051 18.76C30.151 18.82 30.261 18.85 30.381 18.85C30.641 18.85 31.001 18.69 31.461 18.37C31.481 18.35 31.521 18.32 31.581 18.28C31.661 18.22 31.771 18.14 31.911 18.04C32.071 17.92 32.201 17.86 32.301 17.86C32.401 17.86 32.451 17.9 32.451 17.98C32.451 18.1 32.371 18.24 32.211 18.4C32.091 18.5 31.951 18.61 31.791 18.73C31.651 18.85 31.481 18.97 31.281 19.09C30.981 19.31 30.671 19.48 30.351 19.6C30.031 19.74 29.771 19.81 29.571 19.81ZM26.181 17.89C26.601 17.89 27.381 17.27 28.521 16.03C28.821 15.69 29.091 15.37 29.331 15.07C29.571 14.75 29.791 14.44 29.991 14.14C30.351 13.56 30.471 13.16 30.351 12.94C30.291 12.82 30.171 12.76 29.991 12.76C29.771 12.76 29.471 12.88 29.091 13.12C28.711 13.34 28.321 13.63 27.921 13.99C27.541 14.35 27.191 14.71 26.871 15.07C26.651 15.35 26.431 15.74 26.211 16.24C25.991 16.74 25.881 17.15 25.881 17.47C25.881 17.75 25.981 17.89 26.181 17.89ZM32.5138 21.79C32.4138 21.79 32.3638 21.7 32.3638 21.52C32.3638 21.48 32.3638 21.42 32.3638 21.34C32.3838 21.28 32.4038 21.21 32.4238 21.13L33.7138 17.89L35.2438 14.11C35.0038 14.09 34.6538 14.1 34.1938 14.14C33.7338 14.16 33.3438 14.2 33.0238 14.26C32.9038 14.28 32.8038 14.3 32.7238 14.32C32.6638 14.32 32.6138 14.32 32.5738 14.32C32.4138 14.32 32.3038 14.25 32.2438 14.11C32.2638 13.99 32.3738 13.88 32.5738 13.78C32.6738 13.74 32.7938 13.71 32.9338 13.69C33.0738 13.65 33.2438 13.61 33.4438 13.57C33.6638 13.53 33.8538 13.5 34.0138 13.48C34.1938 13.46 34.3238 13.44 34.4038 13.42C34.5038 13.4 34.6038 13.38 34.7038 13.36C34.8038 13.34 34.9238 13.32 35.0638 13.3C35.1838 13.28 35.3138 13.26 35.4538 13.24C35.5938 13.22 35.7438 13.19 35.9038 13.15C36.0638 12.93 36.3038 12.54 36.6238 11.98C36.9438 11.42 37.3538 10.68 37.8538 9.76C38.2538 9.02 38.5738 8.44 38.8138 8.02C39.0738 7.58 39.2538 7.29 39.3538 7.15C39.5338 6.91 39.7438 6.79 39.9838 6.79C40.1038 6.79 40.1638 6.84 40.1638 6.94C40.1638 6.96 40.1138 7.09 40.0138 7.33C39.8938 7.53 39.6938 7.9 39.4138 8.44C39.1338 8.98 38.8338 9.57 38.5138 10.21C38.1938 10.85 37.9038 11.45 37.6438 12.01C37.3838 12.57 37.2038 12.98 37.1038 13.24C37.2038 13.22 37.3138 13.21 37.4338 13.21C37.5738 13.21 37.7438 13.21 37.9438 13.21C38.1638 13.21 38.3638 13.22 38.5438 13.24C38.7438 13.24 38.9138 13.25 39.0538 13.27C39.3338 13.33 39.4738 13.41 39.4738 13.51C39.4738 13.55 39.3838 13.62 39.2038 13.72C39.1038 13.76 38.9138 13.8 38.6338 13.84C38.3538 13.88 37.9838 13.92 37.5238 13.96C37.4038 13.96 37.2738 13.97 37.1338 13.99C36.9938 13.99 36.8438 14 36.6838 14.02C36.0838 15 35.2638 16.63 34.2238 18.91C33.8438 19.67 33.5538 20.26 33.3538 20.68C33.1538 21.1 33.0338 21.35 32.9938 21.43C32.8138 21.67 32.6538 21.79 32.5138 21.79ZM40.3429 12.43C40.0829 12.43 39.9529 12.37 39.9529 12.25C39.9529 12.15 40.0229 12.01 40.1629 11.83C40.3229 11.63 40.5029 11.46 40.7029 11.32C41.1429 11.04 41.4829 10.8 41.7229 10.6C41.9829 10.4 42.2929 10.06 42.6529 9.58C42.6729 9.62 42.6829 9.7 42.6829 9.82C42.6829 10.08 42.5729 10.4 42.3529 10.78C42.1529 11.14 41.9229 11.47 41.6629 11.77C41.4029 12.07 41.1729 12.26 40.9729 12.34C40.7929 12.4 40.5829 12.43 40.3429 12.43ZM37.6729 19.78C37.5129 19.78 37.3629 19.72 37.2229 19.6C37.0829 19.48 37.0129 19.32 37.0129 19.12C37.0129 18.7 37.3029 17.93 37.8829 16.81L38.2129 16.15C38.2529 16.11 38.3029 16.01 38.3629 15.85C38.4429 15.69 38.5529 15.48 38.6929 15.22C38.8329 14.94 38.9429 14.69 39.0229 14.47C39.1029 14.25 39.1629 14.04 39.2029 13.84C39.2029 13.82 39.2429 13.78 39.3229 13.72C39.4029 13.66 39.4829 13.61 39.5629 13.57L39.7429 13.54C39.9029 13.54 40.0329 13.57 40.1329 13.63C40.2529 13.69 40.2929 13.77 40.2529 13.87C40.1129 14.17 39.9929 14.43 39.8929 14.65C39.7929 14.87 39.7129 15.06 39.6529 15.22H39.6229C39.4029 15.72 39.2129 16.2 39.0529 16.66C38.9129 17.1 38.8529 17.52 38.8729 17.92L38.9029 18.73C38.8829 18.93 38.8129 19.1 38.6929 19.24C38.6129 19.3 38.5029 19.37 38.3629 19.45C38.2229 19.55 38.0429 19.65 37.8229 19.75C37.8029 19.77 37.7529 19.78 37.6729 19.78ZM39.7541 21.13C39.7341 21.13 39.7141 21.13 39.6941 21.13C39.6541 21.15 39.6141 21.16 39.5741 21.16C39.3541 21.16 39.2441 21.05 39.2441 20.83C39.2441 20.69 39.3041 20.49 39.4241 20.23C39.5241 19.99 39.6441 19.74 39.7841 19.48C39.9241 19.24 40.0141 19.08 40.0541 19C40.2741 18.62 40.4441 18.31 40.5641 18.07C40.7041 17.83 40.7941 17.65 40.8341 17.53L41.5541 15.82L41.2241 15.61C41.1241 15.55 41.0441 15.49 40.9841 15.43C40.9441 15.37 40.9141 15.33 40.8941 15.31L40.8341 15.19C40.8341 15.07 40.9841 14.97 41.2841 14.89C41.4041 14.81 41.7041 14.71 42.1841 14.59L43.2341 12.4L43.7741 11.05C44.5741 9.05 45.3341 7.41 46.0541 6.13C46.7941 4.83 47.6541 3.95 48.6341 3.49H48.6641C48.7441 3.49 48.8541 3.53 48.9941 3.61C49.1341 3.69 49.2241 3.79 49.2641 3.91C49.2841 3.99 49.2941 4.08 49.2941 4.18C49.3141 4.26 49.3241 4.35 49.3241 4.45C49.3241 4.87 49.2241 5.39 49.0241 6.01C48.8441 6.61 48.5341 7.25 48.0941 7.93C47.6941 8.53 47.1841 9.19 46.5641 9.91C45.9641 10.61 45.2541 11.37 44.4341 12.19C44.0541 12.87 43.6941 13.56 43.3541 14.26C43.8941 14.1 44.5241 13.86 45.2441 13.54C45.5641 13.44 45.9041 13.32 46.2641 13.18C46.6241 13.04 47.0041 12.87 47.4041 12.67C47.5041 12.63 47.6141 12.58 47.7341 12.52C47.8541 12.46 47.9741 12.4 48.0941 12.34L49.1141 11.89L49.4441 11.86C49.5441 11.86 49.5641 11.9 49.5041 11.98C49.4441 12.1 49.2141 12.29 48.8141 12.55C48.4141 12.81 48.0041 13.05 47.5841 13.27L45.9041 14.02C45.5241 14.18 45.2241 14.31 45.0041 14.41C44.7841 14.51 44.6341 14.58 44.5541 14.62C44.4141 14.8 44.2841 14.98 44.1641 15.16C44.0641 15.32 43.9741 15.48 43.8941 15.64C43.9941 16.08 44.5341 16.68 45.5141 17.44C45.9141 17.76 46.1941 17.99 46.3541 18.13C46.5141 18.27 46.5741 18.32 46.5341 18.28C46.8341 18.5 47.0041 18.68 47.0441 18.82L47.0741 18.94V18.97C47.0741 19.07 46.9841 19.07 46.8041 18.97C46.6241 18.93 46.3841 18.83 46.0841 18.67L44.9741 18.1C44.5141 17.86 44.1441 17.66 43.8641 17.5C43.6041 17.34 43.3641 17.18 43.1441 17.02C42.9241 16.86 42.6441 16.66 42.3041 16.42C41.8641 17.4 41.4741 18.27 41.1341 19.03C41.1141 19.09 41.0941 19.13 41.0741 19.15C41.0741 19.19 41.0741 19.22 41.0741 19.24C41.0741 19.3 41.1341 19.35 41.2541 19.39C41.3741 19.41 41.4441 19.45 41.4641 19.51C41.4841 19.59 41.4941 19.65 41.4941 19.69C41.5141 19.75 41.5241 19.79 41.5241 19.81C41.5241 20.15 41.3341 20.44 40.9541 20.68C40.5941 20.92 40.1941 21.07 39.7541 21.13ZM44.5841 10.96C44.6441 11 44.7941 10.91 45.0341 10.69C45.2741 10.45 45.5441 10.15 45.8441 9.79C46.1641 9.41 46.4741 9.02 46.7741 8.62C47.0941 8.2 47.3441 7.83 47.5241 7.51C47.8241 6.99 48.0741 6.49 48.2741 6.01C48.4741 5.51 48.5741 5.13 48.5741 4.87C48.5741 4.63 48.4841 4.51 48.3041 4.51C48.0841 4.51 47.8041 4.71 47.4641 5.11C47.1241 5.51 46.7841 6 46.4441 6.58C46.1241 7.16 45.8441 7.71 45.6041 8.23C45.4641 8.55 45.3141 8.91 45.1541 9.31C45.0141 9.71 44.8941 10.07 44.7941 10.39C44.6941 10.69 44.6241 10.88 44.5841 10.96ZM52.9499 19.81C52.9099 19.81 52.8699 19.8 52.8299 19.78C52.7899 19.78 52.7499 19.77 52.7099 19.75C52.4299 19.61 52.2499 19.41 52.1699 19.15C52.0899 18.89 52.0699 18.56 52.1099 18.16C52.1499 18 52.1899 17.72 52.2299 17.32C52.2899 16.92 52.3599 16.6 52.4399 16.36L50.9099 17.83L50.0699 18.64C49.4899 19.22 49.0099 19.51 48.6299 19.51C48.4699 19.51 48.3399 19.45 48.2399 19.33C48.0599 19.11 47.9699 18.84 47.9699 18.52C47.9699 18.1 48.0799 17.65 48.2999 17.17C48.5199 16.69 48.7799 16.23 49.0799 15.79C49.3799 15.33 49.6499 14.95 49.8899 14.65C50.4899 13.91 51.0699 13.33 51.6299 12.91C52.2099 12.49 52.8099 12.28 53.4299 12.28C53.7699 12.28 54.0999 12.34 54.4199 12.46C54.7599 12.58 55.0699 12.78 55.3499 13.06L55.3799 13.09C55.3799 13.15 55.3299 13.21 55.2299 13.27C55.1899 13.31 55.1499 13.34 55.1099 13.36C55.0899 13.38 55.0699 13.4 55.0499 13.42C54.8099 13.66 54.5399 14.06 54.2399 14.62C53.9399 15.18 53.6799 15.77 53.4599 16.39C53.2399 16.99 53.1299 17.51 53.1299 17.95C53.1299 18.35 53.2299 18.62 53.4299 18.76C53.5299 18.82 53.6399 18.85 53.7599 18.85C54.0199 18.85 54.3799 18.69 54.8399 18.37C54.8599 18.35 54.8999 18.32 54.9599 18.28C55.0399 18.22 55.1499 18.14 55.2899 18.04C55.4499 17.92 55.5799 17.86 55.6799 17.86C55.7799 17.86 55.8299 17.9 55.8299 17.98C55.8299 18.1 55.7499 18.24 55.5899 18.4C55.4699 18.5 55.3299 18.61 55.1699 18.73C55.0299 18.85 54.8599 18.97 54.6599 19.09C54.3599 19.31 54.0499 19.48 53.7299 19.6C53.4099 19.74 53.1499 19.81 52.9499 19.81ZM49.5599 17.89C49.9799 17.89 50.7599 17.27 51.8999 16.03C52.1999 15.69 52.4699 15.37 52.7099 15.07C52.9499 14.75 53.1699 14.44 53.3699 14.14C53.7299 13.56 53.8499 13.16 53.7299 12.94C53.6699 12.82 53.5499 12.76 53.3699 12.76C53.1499 12.76 52.8499 12.88 52.4699 13.12C52.0899 13.34 51.6999 13.63 51.2999 13.99C50.9199 14.35 50.5699 14.71 50.2499 15.07C50.0299 15.35 49.8099 15.74 49.5899 16.24C49.3699 16.74 49.2599 17.15 49.2599 17.47C49.2599 17.75 49.3599 17.89 49.5599 17.89ZM63.2097 19.78C62.7897 19.72 62.4997 19.57 62.3397 19.33C62.1997 19.11 62.1297 18.8 62.1297 18.4C62.1297 18.3 62.1397 18.14 62.1597 17.92C62.1997 17.7 62.2397 17.43 62.2797 17.11V16.87C62.2797 16.59 62.2297 16.43 62.1297 16.39C62.1097 16.37 62.0597 16.36 61.9797 16.36C61.8397 16.36 61.5797 16.49 61.1997 16.75C61.1797 16.77 61.0697 16.87 60.8697 17.05C60.6697 17.21 60.3797 17.45 59.9997 17.77C58.8997 18.75 58.1497 19.19 57.7497 19.09C57.3297 18.99 57.1197 18.71 57.1197 18.25C57.1197 17.81 57.2797 17.28 57.5997 16.66C57.8597 16.1 58.1797 15.56 58.5597 15.04C58.9397 14.5 59.2397 14.15 59.4597 13.99C59.6197 13.89 59.7497 13.84 59.8497 13.84C59.9497 13.84 60.0397 13.88 60.1197 13.96C60.1597 14 60.1797 14.06 60.1797 14.14C60.1797 14.22 60.1297 14.31 60.0297 14.41C59.8297 14.61 59.6397 14.92 59.4597 15.34C59.2797 15.74 59.1897 16.1 59.1897 16.42C59.1897 16.46 59.1897 16.51 59.1897 16.57C59.2097 16.63 59.2297 16.7 59.2497 16.78C59.3497 16.84 59.4597 16.87 59.5797 16.87C59.8197 16.87 60.1497 16.75 60.5697 16.51C60.7297 16.41 60.9497 16.27 61.2297 16.09C61.5097 15.89 61.8497 15.64 62.2497 15.34C62.4097 15.22 62.5897 15.16 62.7897 15.16C63.0097 15.16 63.1897 15.24 63.3297 15.4C63.4897 15.54 63.5697 15.74 63.5697 16C63.5697 16.04 63.5597 16.1 63.5397 16.18C63.5397 16.24 63.5297 16.32 63.5097 16.42C63.4697 16.58 63.4297 16.73 63.3897 16.87C63.3497 17.01 63.3197 17.15 63.2997 17.29C63.2797 17.37 63.2697 17.48 63.2697 17.62C63.2697 17.74 63.2697 17.88 63.2697 18.04C63.2697 18.48 63.4997 18.7 63.9597 18.7C64.1597 18.7 64.3597 18.67 64.5597 18.61C64.7797 18.53 64.9397 18.44 65.0397 18.34C65.9997 17.5 66.9397 16.41 67.8597 15.07L67.8297 14.71C67.8097 14.51 67.8497 14.32 67.9497 14.14C68.0497 13.94 68.1797 13.74 68.3397 13.54C68.3997 13.46 68.4797 13.42 68.5797 13.42C68.6797 13.42 68.7697 13.47 68.8497 13.57C68.9497 13.65 68.9997 13.76 68.9997 13.9C68.9997 14 68.9697 14.11 68.9097 14.23C68.7897 14.45 68.5997 14.77 68.3397 15.19C68.0797 15.59 67.7797 16.03 67.4397 16.51C67.0997 16.99 66.7597 17.44 66.4197 17.86C66.0797 18.28 65.7697 18.61 65.4897 18.85V18.88C65.1497 19.18 64.7597 19.41 64.3197 19.57C63.8797 19.75 63.5097 19.82 63.2097 19.78ZM73.3113 19.81C73.2713 19.81 73.2313 19.8 73.1913 19.78C73.1513 19.78 73.1113 19.77 73.0713 19.75C72.7913 19.61 72.6113 19.41 72.5313 19.15C72.4513 18.89 72.4313 18.56 72.4713 18.16C72.5113 18 72.5513 17.72 72.5913 17.32C72.6513 16.92 72.7213 16.6 72.8013 16.36L71.2713 17.83L70.4313 18.64C69.8513 19.22 69.3713 19.51 68.9913 19.51C68.8313 19.51 68.7013 19.45 68.6013 19.33C68.4213 19.11 68.3313 18.84 68.3313 18.52C68.3313 18.1 68.4413 17.65 68.6613 17.17C68.8813 16.69 69.1413 16.23 69.4413 15.79C69.7413 15.33 70.0113 14.95 70.2513 14.65C70.8513 13.91 71.4313 13.33 71.9912 12.91C72.5713 12.49 73.1713 12.28 73.7913 12.28C74.1313 12.28 74.4613 12.34 74.7813 12.46C75.1213 12.58 75.4313 12.78 75.7113 13.06L75.7412 13.09C75.7412 13.15 75.6913 13.21 75.5913 13.27C75.5513 13.31 75.5113 13.34 75.4713 13.36C75.4513 13.38 75.4313 13.4 75.4113 13.42C75.1713 13.66 74.9013 14.06 74.6013 14.62C74.3013 15.18 74.0413 15.77 73.8213 16.39C73.6013 16.99 73.4913 17.51 73.4913 17.95C73.4913 18.35 73.5913 18.62 73.7913 18.76C73.8913 18.82 74.0013 18.85 74.1213 18.85C74.3813 18.85 74.7413 18.69 75.2013 18.37C75.2213 18.35 75.2613 18.32 75.3213 18.28C75.4013 18.22 75.5113 18.14 75.6513 18.04C75.8113 17.92 75.9413 17.86 76.0413 17.86C76.1413 17.86 76.1913 17.9 76.1913 17.98C76.1913 18.1 76.1113 18.24 75.9512 18.4C75.8313 18.5 75.6913 18.61 75.5312 18.73C75.3913 18.85 75.2213 18.97 75.0213 19.09C74.7213 19.31 74.4113 19.48 74.0913 19.6C73.7713 19.74 73.5113 19.81 73.3113 19.81ZM69.9213 17.89C70.3413 17.89 71.1213 17.27 72.2613 16.03C72.5613 15.69 72.8313 15.37 73.0713 15.07C73.3113 14.75 73.5313 14.44 73.7313 14.14C74.0913 13.56 74.2113 13.16 74.0913 12.94C74.0313 12.82 73.9113 12.76 73.7313 12.76C73.5113 12.76 73.2113 12.88 72.8313 13.12C72.4513 13.34 72.0613 13.63 71.6613 13.99C71.2813 14.35 70.9313 14.71 70.6113 15.07C70.3913 15.35 70.1713 15.74 69.9513 16.24C69.7313 16.74 69.6213 17.15 69.6213 17.47C69.6213 17.75 69.7213 17.89 69.9213 17.89Z" fill="#111827"/>
</svg>
