<svg width="128" height="121" viewBox="0 0 128 121" fill="none" xmlns="http://www.w3.org/2000/svg">
<path d="M31.845 63.687C33.052 51.872 34.16 44.824 37.304 40.399C39.884 41.628 42.813 43.695 46.551 46.603C46.832 46.822 47.192 46.453 46.966 46.177C44.002 42.557 41.876 39.706 40.578 37.18C45.013 34.13 52.029 33.034 63.687 31.843C51.872 30.636 44.824 29.528 40.399 26.383C41.628 23.803 43.695 20.874 46.603 17.136C46.822 16.855 46.453 16.495 46.177 16.721C42.557 19.685 39.705 21.811 37.18 23.109C34.13 18.674 33.034 11.658 31.843 0C30.636 11.815 29.528 18.863 26.383 23.288C23.803 22.059 20.874 19.992 17.136 17.084C16.855 16.865 16.495 17.234 16.721 17.51C19.685 21.13 21.811 23.981 23.109 26.507C18.674 29.557 11.658 30.653 0 31.844C11.815 33.051 18.863 34.159 23.288 37.304C22.059 39.884 19.992 42.813 17.084 46.551C16.865 46.832 17.234 47.192 17.51 46.966C21.13 44.002 23.981 41.876 26.507 40.578C29.559 45.014 30.655 52.029 31.845 63.687Z" fill="#64E1B0"/>
<path d="M100.993 65.532C106.101 62.019 114.181 60.757 127.608 59.386C114.001 57.996 105.884 56.7201 100.787 53.0981C102.202 50.1271 104.583 46.753 107.932 42.448C108.184 42.124 107.759 41.71 107.442 41.97C103.273 45.383 99.9888 47.8321 97.0798 49.3271C93.5668 44.2191 92.3048 36.139 90.9338 22.712C89.5438 36.319 88.2678 44.4361 84.6458 49.5331C81.6748 48.118 78.3007 45.737 73.9957 42.388C73.6717 42.136 73.2578 42.5611 73.5178 42.8781C76.9318 47.0471 79.3798 50.3311 80.8748 53.2401C75.7668 56.7531 67.6868 58.015 54.2598 59.386C67.8668 60.776 75.9837 62.052 81.0807 65.674C79.6657 68.645 77.2847 72.019 73.9357 76.324C73.6837 76.648 74.1088 77.062 74.4258 76.802C78.5948 73.389 81.8788 70.94 84.7878 69.445C88.3008 74.553 89.5628 82.633 90.9338 96.06C92.3238 82.453 93.5997 74.336 97.2217 69.239C100.193 70.654 103.567 73.035 107.872 76.384C108.196 76.636 108.61 76.211 108.35 75.894C104.936 71.725 102.487 68.441 100.993 65.532Z" fill="#64E1B0"/>
<path d="M54.6838 99.069C55.3778 97.608 56.5338 95.955 58.1818 93.837C58.3058 93.678 58.0968 93.475 57.9418 93.602C55.8898 95.282 54.2818 96.469 52.8508 97.202C51.1318 94.695 50.5128 90.732 49.8408 84.152C49.1598 90.821 48.5338 94.803 46.7618 97.304C45.3008 96.61 43.6477 95.454 41.5297 93.806C41.3707 93.682 41.1677 93.891 41.2947 94.047C42.9747 96.099 44.1618 97.707 44.8948 99.137C42.3878 100.856 38.4247 101.475 31.8447 102.147C38.5137 102.828 42.4958 103.454 44.9968 105.226C44.3028 106.687 43.1468 108.339 41.4988 110.458C41.3748 110.617 41.5837 110.82 41.7397 110.692C43.7917 109.012 45.3998 107.825 46.8298 107.092C48.5488 109.599 49.1677 113.562 49.8397 120.142C50.5207 113.473 51.1468 109.491 52.9188 106.99C54.3798 107.684 56.0328 108.84 58.1508 110.488C58.3098 110.612 58.5127 110.403 58.3857 110.247C56.7057 108.196 55.5188 106.587 54.7858 105.157C57.2928 103.438 61.2548 102.819 67.8358 102.147C61.1668 101.467 57.1848 100.842 54.6838 99.069Z" fill="#64E1B0"/>
</svg>
