<svg width="66" height="73" viewBox="0 0 66 73" fill="none" xmlns="http://www.w3.org/2000/svg">
<path d="M16.1227 20.6611C16.2644 21.0947 16.73 21.3325 17.1652 21.1925C17.5127 21.0795 29.9037 20.7573 34.7369 20.4097C38.7688 20.7455 48.1451 21.0609 48.4792 21.1824C48.9077 21.3376 49.3817 21.1166 49.5369 20.6881C49.6078 20.4941 49.7242 20.2748 49.8423 20.0521C50.0396 19.6793 50.2421 19.2997 50.3568 18.8661C51.18 15.7098 51.2863 12.0743 49.6196 8.74757C48.3071 6.13105 45.9132 3.73383 41.9303 1.95743C41.9168 1.95068 41.9033 1.94393 41.8898 1.93719V1.93887L41.8864 1.93719L41.8847 1.94056C39.8991 1.05826 37.8073 0.476251 35.6783 0.19621C33.5274 -0.0872046 31.341 -0.0635864 29.1918 0.267064C26.1164 0.739422 22.5062 1.80223 19.8661 4.13196C17.8856 5.878 16.4668 8.31233 16.234 11.6981C15.9354 12.3426 15.4226 13.8777 15.3905 15.9004C15.3652 17.2669 15.5423 18.8881 16.1227 20.6611Z" fill="#8F6E4E"/>
<path d="M19.6989 28.0617H16.5577C15.9369 28.0617 15.3751 27.8087 14.9652 27.4004C14.5569 26.9922 14.3039 26.4287 14.3022 25.8045H14.2988V21.8334C14.2988 21.2092 14.5519 20.6457 14.9601 20.2375C15.3684 19.8292 15.9335 19.5762 16.556 19.5762H19.6972C20.1544 19.5762 20.5255 19.9473 20.5255 20.4045V27.2334C20.5272 27.6923 20.1561 28.0617 19.6989 28.0617Z" fill="#3B566A"/>
<path d="M49.1101 28.0617H45.9689C45.5118 28.0617 45.1406 27.6906 45.1406 27.2334V20.4045C45.1406 19.9473 45.5118 19.5762 45.9689 19.5762H49.1101C49.7326 19.5762 50.2978 19.8292 50.706 20.2375C51.1143 20.6457 51.3673 21.2109 51.3673 21.8334V25.8045H51.3639C51.3623 26.4287 51.1092 26.9922 50.701 27.4004C50.2927 27.8104 49.7292 28.0617 49.1101 28.0617Z" fill="#3B566A"/>
<path d="M24.5947 43.9872C24.404 43.8303 24.1442 43.7595 23.8844 43.8185L16.0568 45.6236C11.3568 46.7083 7.34348 49.3417 4.50427 52.9097C1.66506 56.4794 0 60.982 0 65.8034V70.4983C0 71.1545 0.266544 71.7501 0.696727 72.1802C1.12691 72.6104 1.72242 72.877 2.37866 72.877H63.2892C63.9454 72.877 64.5409 72.6104 64.9711 72.1802C65.4013 71.7501 65.6678 71.1545 65.6678 70.4983V65.8034C65.6678 60.982 64.0028 56.4794 61.1636 52.9097C58.3244 49.3417 54.311 46.7083 49.6111 45.6253L41.7834 43.8202C41.6619 43.7932 41.5422 43.7932 41.4275 43.8168L41.4106 43.8202L41.4038 43.8219L41.3937 43.8253L41.3853 43.827L41.3752 43.8303L41.365 43.8337L41.3566 43.8354L41.3431 43.8405L41.3381 43.8421L41.3229 43.8472L41.3195 43.8489L41.3026 43.8556H41.3009L41.2841 43.8624L41.2824 43.8641L41.2655 43.8708H41.2638L41.2486 43.8776L41.2453 43.8793L41.2301 43.886L41.2284 43.8877L41.2132 43.8944L41.2081 43.8978L41.1947 43.9046L41.1913 43.9063L41.1795 43.913L41.1778 43.9147L41.1643 43.9231L41.1626 43.9248C41.1424 43.9366 41.1238 43.9501 41.1052 43.9636L32.8339 50.0418L24.5947 43.9872Z" fill="#5C9CEE"/>
<path d="M28.2673 72.8766H37.3771L35.5939 57.3715L37.1696 54.0616C37.3636 53.6483 37.1881 53.1557 36.7748 52.9617C31.3562 50.4059 33.7382 50.6522 28.8831 52.9634C28.4698 53.1591 28.2943 53.6533 28.4917 54.0667L30.0657 57.3749L28.2673 72.8766Z" fill="#EF5350"/>
<path d="M35.5954 57.3734V57.37L37.1711 54.0601C37.3651 53.6468 37.1896 53.1542 36.7763 52.9602C31.3577 50.4044 33.7397 50.6507 28.8846 52.9619C28.4713 53.1576 28.2958 53.6519 28.4932 54.0652L30.0671 57.3734H35.5954Z" fill="#F27472"/>
<path d="M55.4092 72.8769H57.0658V65.3142C57.0658 64.857 56.6947 64.4858 56.2375 64.4858C55.7803 64.4858 55.4092 64.857 55.4092 65.3142V72.8769Z" fill="#5192E8"/>
<path d="M9.25488 72.8769H10.9115V65.3142C10.9115 64.857 10.5404 64.4858 10.0832 64.4858C9.62602 64.4858 9.25488 64.857 9.25488 65.3142V72.8769Z" fill="#5192E8"/>
<path d="M50.2623 45.787C50.0464 45.7297 49.8304 45.6757 49.6111 45.6251L41.7835 43.82C41.662 43.793 41.5422 43.793 41.4275 43.8166L41.4106 43.82L41.4039 43.8217L41.3938 43.8251L41.3853 43.8268L41.3752 43.8301L41.3651 43.8335L41.3567 43.8352L41.3432 43.8402L41.3381 43.8419L41.3229 43.847L41.3195 43.8487L41.3027 43.8554H41.301L41.2841 43.8622L41.2824 43.8639L41.2656 43.8706H41.2639L41.2504 43.8774L32.3599 50.3908C32.3211 50.4178 32.284 50.4482 32.2503 50.4836C32.1895 50.5444 32.1406 50.6118 32.1018 50.6861L32.1001 50.6894L32.0934 50.7029L32.09 50.7097L32.0849 50.7198L32.0799 50.7316L32.0782 50.735C32.0343 50.8328 32.0124 50.9374 32.009 51.042V51.0589V51.0606V51.0758V51.0774V51.0943C32.0124 51.1989 32.036 51.3018 32.0782 51.4013L32.0799 51.4047L32.0849 51.4165L32.09 51.4266L32.0934 51.4334L32.1001 51.4469L32.1018 51.4503C32.1406 51.5228 32.1895 51.592 32.2503 51.6527C32.284 51.6864 32.3211 51.7185 32.3599 51.7455L35.685 54.1899L37.8983 55.8179C37.9084 55.8263 37.9186 55.8348 37.9287 55.8415L37.9304 55.8398L37.9456 55.8516C38.2644 56.0895 38.6423 56.1958 39.0134 56.1738C39.393 56.1519 39.7658 55.9967 40.056 55.7167L50.2623 45.787Z" fill="#7BAFF2"/>
<path d="M24.4123 43.8722C24.2521 43.7997 24.0682 43.7761 23.8843 43.8182L16.0567 45.6233C15.8374 45.6739 15.6197 45.7279 15.4038 45.7853L25.6152 55.7132C25.9053 55.9949 26.2765 56.1485 26.6577 56.1704C27.0272 56.1923 27.4068 56.086 27.7256 55.8482L27.7408 55.8364L27.7425 55.838C27.7526 55.8296 27.7627 55.8229 27.7728 55.8144L29.9862 54.1865L33.3112 51.742C33.35 51.715 33.3871 51.6847 33.4209 51.6493C33.4816 51.5885 33.5305 51.521 33.5693 51.4468L33.571 51.4434L33.5778 51.4299L33.5811 51.4232L33.5862 51.4131L33.5913 51.4013L33.593 51.3979C33.6368 51.3 33.6587 51.1955 33.6621 51.0909V51.074V51.0723V51.0571V51.0554V51.0386C33.6587 50.934 33.6351 50.8311 33.593 50.7315L33.5913 50.7282L33.5862 50.7163L33.5811 50.7062L33.5778 50.6995L33.571 50.686L33.5693 50.6826C33.5305 50.6101 33.4816 50.5409 33.4209 50.4802C33.3871 50.4464 33.35 50.4144 33.3112 50.3874L24.4123 43.8722Z" fill="#7BAFF2"/>
<path d="M24.0683 37.2427C23.6111 37.2427 23.24 37.6138 23.24 38.071V38.0727V38.0744V43.9687L32.3312 51.7255C32.37 51.7542 32.4088 51.7795 32.451 51.8014L32.4543 51.8031L32.4678 51.8098L32.4746 51.8132L32.4847 51.8183L32.4965 51.8233L32.4999 51.825C32.5977 51.8689 32.7023 51.8908 32.8069 51.8942H32.8238H32.8255H32.8407H32.8423H32.8592C32.9638 51.8908 33.0667 51.8672 33.1662 51.825L33.1696 51.8233L33.1814 51.8183L33.1916 51.8132L33.1983 51.8098L33.2118 51.8031L33.2152 51.8014C33.2573 51.7795 33.2961 51.7542 33.3349 51.7255L42.4261 43.9704V38.0761V38.0744V38.0727C42.4261 37.6155 42.055 37.2444 41.5978 37.2444C36.4424 37.2444 28.1711 37.2427 24.0683 37.2427Z" fill="#FACBBF"/>
<path d="M24.0683 37.2427C23.6111 37.2427 23.24 37.6138 23.24 38.071V38.0727V38.0744V40.0886C25.9409 42.2885 29.3115 43.4964 32.8339 43.4964C36.3564 43.4964 39.727 42.2885 42.4278 40.0886V38.0761V38.0744V38.0727C42.4278 37.6155 42.0567 37.2444 41.5995 37.2444C36.4424 37.2444 28.1711 37.2427 24.0683 37.2427Z" fill="#FBB7AC"/>
<path d="M46.7971 17.3126V28.2916C46.7971 32.148 45.2332 35.6384 42.7078 38.1655C40.1807 40.6926 36.6903 42.2548 32.8338 42.2548C28.9774 42.2548 25.487 40.691 22.9599 38.1655C20.4328 35.6384 18.8706 32.148 18.8706 28.2916V17.3126C18.8706 17.0984 18.906 16.8841 18.9718 16.6783C19.1102 16.2464 19.3784 15.882 19.7259 15.629C20.0768 15.3726 20.5036 15.2241 20.954 15.2241C21.1548 15.2241 21.3674 15.2562 21.5867 15.327C23.1168 15.8129 24.91 16.2026 26.8484 16.4708C28.7412 16.7323 30.774 16.8757 32.8372 16.8757C34.8987 16.8757 36.9315 16.7323 38.8243 16.4708C40.761 16.2026 42.5543 15.8129 44.0827 15.327C44.302 15.2579 44.5129 15.2241 44.7153 15.2241C45.1657 15.2241 45.5926 15.3726 45.9435 15.629C46.2893 15.882 46.5592 16.2464 46.6975 16.6783C46.7616 16.8841 46.7971 17.0984 46.7971 17.3126Z" fill="#FACBBF"/>
<path d="M50.3853 27.1628C50.3853 26.7056 50.0142 26.3345 49.557 26.3345C49.0999 26.3345 48.7287 26.7056 48.7287 27.1628V31.3162C48.7287 31.554 48.6326 31.7683 48.4757 31.9252C48.3205 32.0804 48.1045 32.1782 47.8667 32.1782V32.1816H45.0949V32.1782H39.5161C39.0589 32.1782 38.6877 32.5493 38.6877 33.0065C38.6877 33.4637 39.0589 33.8348 39.5161 33.8348H45.0949V33.8315H47.8667V33.8348C48.5617 33.8348 49.191 33.5531 49.6464 33.0976C50.1019 32.6421 50.3837 32.0129 50.3837 31.3178V27.1628H50.3853Z" fill="#3B566A"/>
<path d="M37.716 35.6332H33.6537C32.9283 35.6332 32.2721 35.3396 31.7964 34.8639C31.3206 34.3882 31.0271 33.7319 31.0271 33.0065C31.0271 32.2811 31.3206 31.6249 31.7964 31.1492C32.2721 30.6734 32.9283 30.3799 33.6537 30.3799H37.716C38.4414 30.3799 39.0977 30.6734 39.5734 31.1492C40.0491 31.6249 40.3427 32.2811 40.3427 33.0065V33.0099C40.3427 33.7319 40.0474 34.3882 39.57 34.8639C39.0977 35.3363 38.4431 35.6281 37.7177 35.6298V35.6332H37.716Z" fill="#304556"/>
</svg>
