<svg width="140" height="22" viewBox="0 0 140 22" fill="none" xmlns="http://www.w3.org/2000/svg">
<path d="M4.81 21.97C3.57 21.97 2.58 21.6 1.84 20.86C1.12 20.14 0.76 19.16 0.76 17.92C0.76 17.06 0.89 16.17 1.15 15.25C1.41 14.31 1.79 13.34 2.29 12.34C2.93 11.06 3.7 9.91 4.6 8.89C5.52 7.85 6.52 7.03 7.6 6.43C8.7 5.83 9.83 5.53 10.99 5.53C11.75 5.53 12.3 5.72 12.64 6.1C13 6.46 13.18 6.94 13.18 7.54C13.18 8.06 13.07 8.64 12.85 9.28C12.63 9.9 12.36 10.48 12.04 11.02C11.74 11.54 11.43 11.94 11.11 12.22C11.03 12.3 10.94 12.34 10.84 12.34C10.74 12.34 10.69 12.29 10.69 12.19C10.69 12.05 10.76 11.91 10.9 11.77C11.24 11.47 11.55 10.99 11.83 10.33C12.11 9.67 12.25 9.04 12.25 8.44C12.25 7.92 12.13 7.51 11.89 7.21C11.65 6.89 11.27 6.73 10.75 6.73C9.31 6.73 7.91 7.35 6.55 8.59C5.65 9.41 4.84 10.36 4.12 11.44C3.4 12.52 2.82 13.62 2.38 14.74C1.94 15.84 1.67 16.85 1.57 17.77C1.51 18.47 1.62 19.11 1.9 19.69C2.2 20.29 2.62 20.75 3.16 21.07C3.7 21.41 4.31 21.55 4.99 21.49C6.81 21.33 8.59 20.5 10.33 19C12.07 17.48 13.91 15.39 15.85 12.73C15.61 12.49 15.45 12.2 15.37 11.86C15.33 11.54 15.39 11.29 15.55 11.11C15.73 10.91 15.95 10.81 16.21 10.81C16.55 10.81 16.82 10.91 17.02 11.11C17.36 10.51 17.99 9.43 18.91 7.87C19.03 7.67 19.23 7.33 19.51 6.85C19.81 6.35 20.13 5.8 20.47 5.2C20.81 4.58 21.12 4 21.4 3.46C21.42 3.44 21.43 3.4 21.43 3.34C21.43 3.3 21.38 3.21 21.28 3.07C21.14 2.97 21.12 2.86 21.22 2.74L22 1.15C22.1 0.989999 22.27 0.909999 22.51 0.909999C22.75 0.909999 22.97 0.969999 23.17 1.09C23.39 1.21 23.49 1.34 23.47 1.48C23.25 2.4 22.68 3.66 21.76 5.26C20.86 6.84 19.69 8.72 18.25 10.9C18.01 11.26 17.81 11.52 17.65 11.68L17.59 11.74C17.53 11.8 17.51 11.88 17.53 11.98L17.59 12.43C17.89 12.53 18.11 12.58 18.25 12.58C18.93 12.58 19.65 12.47 20.41 12.25C21.17 12.01 21.9 11.71 22.6 11.35C23.32 10.99 23.93 10.63 24.43 10.27C25.71 9.33 26.79 8.37 27.67 7.39C28.57 6.39 29.34 5.32 29.98 4.18C30.08 3.94 30.13 3.65 30.13 3.31C30.17 3.09 30.22 2.88 30.28 2.68C30.36 2.48 30.45 2.31 30.55 2.17C30.63 2.03 30.79 1.96 31.03 1.96C31.27 1.96 31.48 2.03 31.66 2.17C31.86 2.29 31.94 2.44 31.9 2.62C31.72 3.34 31.28 4.19 30.58 5.17C29.88 6.15 29.03 7.14 28.03 8.14C27.05 9.14 26.01 10.04 24.91 10.84C24.35 11.26 23.68 11.66 22.9 12.04C22.14 12.4 21.35 12.7 20.53 12.94C19.71 13.16 18.92 13.27 18.16 13.27H17.83C17.99 14.01 18.18 14.66 18.4 15.22C18.62 15.78 18.93 16.35 19.33 16.93C19.75 17.51 20.18 17.99 20.62 18.37C21.06 18.73 21.57 18.91 22.15 18.91C22.53 18.91 22.95 18.85 23.41 18.73C23.87 18.59 24.16 18.42 24.28 18.22C24.4 18.04 24.55 17.95 24.73 17.95C24.87 17.95 24.94 18 24.94 18.1C24.94 18.16 24.91 18.24 24.85 18.34C24.67 18.6 24.37 18.9 23.95 19.24C23.55 19.6 23.14 19.9 22.72 20.14C22.3 20.4 21.95 20.53 21.67 20.53C20.91 20.47 20.27 20.23 19.75 19.81C19.23 19.39 18.73 18.71 18.25 17.77C17.95 17.13 17.65 16.31 17.35 15.31L17.02 14.2C16.98 13.98 16.93 13.78 16.87 13.6C16.81 13.42 16.76 13.26 16.72 13.12L16.57 13.06C14.53 15.82 12.51 17.99 10.51 19.57C8.51 21.15 6.61 21.95 4.81 21.97ZM29.571 19.81C29.531 19.81 29.491 19.8 29.451 19.78C29.411 19.78 29.371 19.77 29.331 19.75C29.051 19.61 28.871 19.41 28.791 19.15C28.711 18.89 28.691 18.56 28.731 18.16C28.771 18 28.811 17.72 28.851 17.32C28.911 16.92 28.981 16.6 29.061 16.36L27.531 17.83L26.691 18.64C26.111 19.22 25.631 19.51 25.251 19.51C25.091 19.51 24.961 19.45 24.861 19.33C24.681 19.11 24.591 18.84 24.591 18.52C24.591 18.1 24.701 17.65 24.921 17.17C25.141 16.69 25.401 16.23 25.701 15.79C26.001 15.33 26.271 14.95 26.511 14.65C27.111 13.91 27.691 13.33 28.251 12.91C28.831 12.49 29.431 12.28 30.051 12.28C30.391 12.28 30.721 12.34 31.041 12.46C31.381 12.58 31.691 12.78 31.971 13.06L32.001 13.09C32.001 13.15 31.951 13.21 31.851 13.27C31.811 13.31 31.771 13.34 31.731 13.36C31.711 13.38 31.691 13.4 31.671 13.42C31.431 13.66 31.161 14.06 30.861 14.62C30.561 15.18 30.301 15.77 30.081 16.39C29.861 16.99 29.751 17.51 29.751 17.95C29.751 18.35 29.851 18.62 30.051 18.76C30.151 18.82 30.261 18.85 30.381 18.85C30.641 18.85 31.001 18.69 31.461 18.37C31.481 18.35 31.521 18.32 31.581 18.28C31.661 18.22 31.771 18.14 31.911 18.04C32.071 17.92 32.201 17.86 32.301 17.86C32.401 17.86 32.451 17.9 32.451 17.98C32.451 18.1 32.371 18.24 32.211 18.4C32.091 18.5 31.951 18.61 31.791 18.73C31.651 18.85 31.481 18.97 31.281 19.09C30.981 19.31 30.671 19.48 30.351 19.6C30.031 19.74 29.771 19.81 29.571 19.81ZM26.181 17.89C26.601 17.89 27.381 17.27 28.521 16.03C28.821 15.69 29.091 15.37 29.331 15.07C29.571 14.75 29.791 14.44 29.991 14.14C30.351 13.56 30.471 13.16 30.351 12.94C30.291 12.82 30.171 12.76 29.991 12.76C29.771 12.76 29.471 12.88 29.091 13.12C28.711 13.34 28.321 13.63 27.921 13.99C27.541 14.35 27.191 14.71 26.871 15.07C26.651 15.35 26.431 15.74 26.211 16.24C25.991 16.74 25.881 17.15 25.881 17.47C25.881 17.75 25.981 17.89 26.181 17.89ZM32.5138 21.79C32.4138 21.79 32.3638 21.7 32.3638 21.52C32.3638 21.48 32.3638 21.42 32.3638 21.34C32.3838 21.28 32.4038 21.21 32.4238 21.13L33.7138 17.89L35.2438 14.11C35.0038 14.09 34.6538 14.1 34.1938 14.14C33.7338 14.16 33.3438 14.2 33.0238 14.26C32.9038 14.28 32.8038 14.3 32.7238 14.32C32.6638 14.32 32.6138 14.32 32.5738 14.32C32.4138 14.32 32.3038 14.25 32.2438 14.11C32.2638 13.99 32.3738 13.88 32.5738 13.78C32.6738 13.74 32.7938 13.71 32.9338 13.69C33.0738 13.65 33.2438 13.61 33.4438 13.57C33.6638 13.53 33.8538 13.5 34.0138 13.48C34.1938 13.46 34.3238 13.44 34.4038 13.42C34.5038 13.4 34.6038 13.38 34.7038 13.36C34.8038 13.34 34.9238 13.32 35.0638 13.3C35.1838 13.28 35.3138 13.26 35.4538 13.24C35.5938 13.22 35.7438 13.19 35.9038 13.15C36.0638 12.93 36.3038 12.54 36.6238 11.98C36.9438 11.42 37.3538 10.68 37.8538 9.76C38.2538 9.02 38.5738 8.44 38.8138 8.02C39.0738 7.58 39.2538 7.29 39.3538 7.15C39.5338 6.91 39.7438 6.79 39.9838 6.79C40.1038 6.79 40.1638 6.84 40.1638 6.94C40.1638 6.96 40.1138 7.09 40.0138 7.33C39.8938 7.53 39.6938 7.9 39.4138 8.44C39.1338 8.98 38.8338 9.57 38.5138 10.21C38.1938 10.85 37.9038 11.45 37.6438 12.01C37.3838 12.57 37.2038 12.98 37.1038 13.24C37.2038 13.22 37.3138 13.21 37.4338 13.21C37.5738 13.21 37.7438 13.21 37.9438 13.21C38.1638 13.21 38.3638 13.22 38.5438 13.24C38.7438 13.24 38.9138 13.25 39.0538 13.27C39.3338 13.33 39.4738 13.41 39.4738 13.51C39.4738 13.55 39.3838 13.62 39.2038 13.72C39.1038 13.76 38.9138 13.8 38.6338 13.84C38.3538 13.88 37.9838 13.92 37.5238 13.96C37.4038 13.96 37.2738 13.97 37.1338 13.99C36.9938 13.99 36.8438 14 36.6838 14.02C36.0838 15 35.2638 16.63 34.2238 18.91C33.8438 19.67 33.5538 20.26 33.3538 20.68C33.1538 21.1 33.0338 21.35 32.9938 21.43C32.8138 21.67 32.6538 21.79 32.5138 21.79ZM40.3429 12.43C40.0829 12.43 39.9529 12.37 39.9529 12.25C39.9529 12.15 40.0229 12.01 40.1629 11.83C40.3229 11.63 40.5029 11.46 40.7029 11.32C41.1429 11.04 41.4829 10.8 41.7229 10.6C41.9829 10.4 42.2929 10.06 42.6529 9.58C42.6729 9.62 42.6829 9.7 42.6829 9.82C42.6829 10.08 42.5729 10.4 42.3529 10.78C42.1529 11.14 41.9229 11.47 41.6629 11.77C41.4029 12.07 41.1729 12.26 40.9729 12.34C40.7929 12.4 40.5829 12.43 40.3429 12.43ZM37.6729 19.78C37.5129 19.78 37.3629 19.72 37.2229 19.6C37.0829 19.48 37.0129 19.32 37.0129 19.12C37.0129 18.7 37.3029 17.93 37.8829 16.81L38.2129 16.15C38.2529 16.11 38.3029 16.01 38.3629 15.85C38.4429 15.69 38.5529 15.48 38.6929 15.22C38.8329 14.94 38.9429 14.69 39.0229 14.47C39.1029 14.25 39.1629 14.04 39.2029 13.84C39.2029 13.82 39.2429 13.78 39.3229 13.72C39.4029 13.66 39.4829 13.61 39.5629 13.57L39.7429 13.54C39.9029 13.54 40.0329 13.57 40.1329 13.63C40.2529 13.69 40.2929 13.77 40.2529 13.87C40.1129 14.17 39.9929 14.43 39.8929 14.65C39.7929 14.87 39.7129 15.06 39.6529 15.22H39.6229C39.4029 15.72 39.2129 16.2 39.0529 16.66C38.9129 17.1 38.8529 17.52 38.8729 17.92L38.9029 18.73C38.8829 18.93 38.8129 19.1 38.6929 19.24C38.6129 19.3 38.5029 19.37 38.3629 19.45C38.2229 19.55 38.0429 19.65 37.8229 19.75C37.8029 19.77 37.7529 19.78 37.6729 19.78ZM39.7541 21.13C39.7341 21.13 39.7141 21.13 39.6941 21.13C39.6541 21.15 39.6141 21.16 39.5741 21.16C39.3541 21.16 39.2441 21.05 39.2441 20.83C39.2441 20.69 39.3041 20.49 39.4241 20.23C39.5241 19.99 39.6441 19.74 39.7841 19.48C39.9241 19.24 40.0141 19.08 40.0541 19C40.2741 18.62 40.4441 18.31 40.5641 18.07C40.7041 17.83 40.7941 17.65 40.8341 17.53L41.5541 15.82L41.2241 15.61C41.1241 15.55 41.0441 15.49 40.9841 15.43C40.9441 15.37 40.9141 15.33 40.8941 15.31L40.8341 15.19C40.8341 15.07 40.9841 14.97 41.2841 14.89C41.4041 14.81 41.7041 14.71 42.1841 14.59L43.2341 12.4L43.7741 11.05C44.5741 9.05 45.3341 7.41 46.0541 6.13C46.7941 4.83 47.6541 3.95 48.6341 3.49H48.6641C48.7441 3.49 48.8541 3.53 48.9941 3.61C49.1341 3.69 49.2241 3.79 49.2641 3.91C49.2841 3.99 49.2941 4.08 49.2941 4.18C49.3141 4.26 49.3241 4.35 49.3241 4.45C49.3241 4.87 49.2241 5.39 49.0241 6.01C48.8441 6.61 48.5341 7.25 48.0941 7.93C47.6941 8.53 47.1841 9.19 46.5641 9.91C45.9641 10.61 45.2541 11.37 44.4341 12.19C44.0541 12.87 43.6941 13.56 43.3541 14.26C43.8941 14.1 44.5241 13.86 45.2441 13.54C45.5641 13.44 45.9041 13.32 46.2641 13.18C46.6241 13.04 47.0041 12.87 47.4041 12.67C47.5041 12.63 47.6141 12.58 47.7341 12.52C47.8541 12.46 47.9741 12.4 48.0941 12.34L49.1141 11.89L49.4441 11.86C49.5441 11.86 49.5641 11.9 49.5041 11.98C49.4441 12.1 49.2141 12.29 48.8141 12.55C48.4141 12.81 48.0041 13.05 47.5841 13.27L45.9041 14.02C45.5241 14.18 45.2241 14.31 45.0041 14.41C44.7841 14.51 44.6341 14.58 44.5541 14.62C44.4141 14.8 44.2841 14.98 44.1641 15.16C44.0641 15.32 43.9741 15.48 43.8941 15.64C43.9941 16.08 44.5341 16.68 45.5141 17.44C45.9141 17.76 46.1941 17.99 46.3541 18.13C46.5141 18.27 46.5741 18.32 46.5341 18.28C46.8341 18.5 47.0041 18.68 47.0441 18.82L47.0741 18.94V18.97C47.0741 19.07 46.9841 19.07 46.8041 18.97C46.6241 18.93 46.3841 18.83 46.0841 18.67L44.9741 18.1C44.5141 17.86 44.1441 17.66 43.8641 17.5C43.6041 17.34 43.3641 17.18 43.1441 17.02C42.9241 16.86 42.6441 16.66 42.3041 16.42C41.8641 17.4 41.4741 18.27 41.1341 19.03C41.1141 19.09 41.0941 19.13 41.0741 19.15C41.0741 19.19 41.0741 19.22 41.0741 19.24C41.0741 19.3 41.1341 19.35 41.2541 19.39C41.3741 19.41 41.4441 19.45 41.4641 19.51C41.4841 19.59 41.4941 19.65 41.4941 19.69C41.5141 19.75 41.5241 19.79 41.5241 19.81C41.5241 20.15 41.3341 20.44 40.9541 20.68C40.5941 20.92 40.1941 21.07 39.7541 21.13ZM44.5841 10.96C44.6441 11 44.7941 10.91 45.0341 10.69C45.2741 10.45 45.5441 10.15 45.8441 9.79C46.1641 9.41 46.4741 9.02 46.7741 8.62C47.0941 8.2 47.3441 7.83 47.5241 7.51C47.8241 6.99 48.0741 6.49 48.2741 6.01C48.4741 5.51 48.5741 5.13 48.5741 4.87C48.5741 4.63 48.4841 4.51 48.3041 4.51C48.0841 4.51 47.8041 4.71 47.4641 5.11C47.1241 5.51 46.7841 6 46.4441 6.58C46.1241 7.16 45.8441 7.71 45.6041 8.23C45.4641 8.55 45.3141 8.91 45.1541 9.31C45.0141 9.71 44.8941 10.07 44.7941 10.39C44.6941 10.69 44.6241 10.88 44.5841 10.96ZM52.9499 19.81C52.9099 19.81 52.8699 19.8 52.8299 19.78C52.7899 19.78 52.7499 19.77 52.7099 19.75C52.4299 19.61 52.2499 19.41 52.1699 19.15C52.0899 18.89 52.0699 18.56 52.1099 18.16C52.1499 18 52.1899 17.72 52.2299 17.32C52.2899 16.92 52.3599 16.6 52.4399 16.36L50.9099 17.83L50.0699 18.64C49.4899 19.22 49.0099 19.51 48.6299 19.51C48.4699 19.51 48.3399 19.45 48.2399 19.33C48.0599 19.11 47.9699 18.84 47.9699 18.52C47.9699 18.1 48.0799 17.65 48.2999 17.17C48.5199 16.69 48.7799 16.23 49.0799 15.79C49.3799 15.33 49.6499 14.95 49.8899 14.65C50.4899 13.91 51.0699 13.33 51.6299 12.91C52.2099 12.49 52.8099 12.28 53.4299 12.28C53.7699 12.28 54.0999 12.34 54.4199 12.46C54.7599 12.58 55.0699 12.78 55.3499 13.06L55.3799 13.09C55.3799 13.15 55.3299 13.21 55.2299 13.27C55.1899 13.31 55.1499 13.34 55.1099 13.36C55.0899 13.38 55.0699 13.4 55.0499 13.42C54.8099 13.66 54.5399 14.06 54.2399 14.62C53.9399 15.18 53.6799 15.77 53.4599 16.39C53.2399 16.99 53.1299 17.51 53.1299 17.95C53.1299 18.35 53.2299 18.62 53.4299 18.76C53.5299 18.82 53.6399 18.85 53.7599 18.85C54.0199 18.85 54.3799 18.69 54.8399 18.37C54.8599 18.35 54.8999 18.32 54.9599 18.28C55.0399 18.22 55.1499 18.14 55.2899 18.04C55.4499 17.92 55.5799 17.86 55.6799 17.86C55.7799 17.86 55.8299 17.9 55.8299 17.98C55.8299 18.1 55.7499 18.24 55.5899 18.4C55.4699 18.5 55.3299 18.61 55.1699 18.73C55.0299 18.85 54.8599 18.97 54.6599 19.09C54.3599 19.31 54.0499 19.48 53.7299 19.6C53.4099 19.74 53.1499 19.81 52.9499 19.81ZM49.5599 17.89C49.9799 17.89 50.7599 17.27 51.8999 16.03C52.1999 15.69 52.4699 15.37 52.7099 15.07C52.9499 14.75 53.1699 14.44 53.3699 14.14C53.7299 13.56 53.8499 13.16 53.7299 12.94C53.6699 12.82 53.5499 12.76 53.3699 12.76C53.1499 12.76 52.8499 12.88 52.4699 13.12C52.0899 13.34 51.6999 13.63 51.2999 13.99C50.9199 14.35 50.5699 14.71 50.2499 15.07C50.0299 15.35 49.8099 15.74 49.5899 16.24C49.3699 16.74 49.2599 17.15 49.2599 17.47C49.2599 17.75 49.3599 17.89 49.5599 17.89ZM63.2097 19.78C62.7897 19.72 62.4997 19.57 62.3397 19.33C62.1997 19.11 62.1297 18.8 62.1297 18.4C62.1297 18.3 62.1397 18.14 62.1597 17.92C62.1997 17.7 62.2397 17.43 62.2797 17.11V16.87C62.2797 16.59 62.2297 16.43 62.1297 16.39C62.1097 16.37 62.0597 16.36 61.9797 16.36C61.8397 16.36 61.5797 16.49 61.1997 16.75C61.1797 16.77 61.0697 16.87 60.8697 17.05C60.6697 17.21 60.3797 17.45 59.9997 17.77C58.8997 18.75 58.1497 19.19 57.7497 19.09C57.3297 18.99 57.1197 18.71 57.1197 18.25C57.1197 17.81 57.2797 17.28 57.5997 16.66C57.8597 16.1 58.1797 15.56 58.5597 15.04C58.9397 14.5 59.2397 14.15 59.4597 13.99C59.6197 13.89 59.7497 13.84 59.8497 13.84C59.9497 13.84 60.0397 13.88 60.1197 13.96C60.1597 14 60.1797 14.06 60.1797 14.14C60.1797 14.22 60.1297 14.31 60.0297 14.41C59.8297 14.61 59.6397 14.92 59.4597 15.34C59.2797 15.74 59.1897 16.1 59.1897 16.42C59.1897 16.46 59.1897 16.51 59.1897 16.57C59.2097 16.63 59.2297 16.7 59.2497 16.78C59.3497 16.84 59.4597 16.87 59.5797 16.87C59.8197 16.87 60.1497 16.75 60.5697 16.51C60.7297 16.41 60.9497 16.27 61.2297 16.09C61.5097 15.89 61.8497 15.64 62.2497 15.34C62.4097 15.22 62.5897 15.16 62.7897 15.16C63.0097 15.16 63.1897 15.24 63.3297 15.4C63.4897 15.54 63.5697 15.74 63.5697 16C63.5697 16.04 63.5597 16.1 63.5397 16.18C63.5397 16.24 63.5297 16.32 63.5097 16.42C63.4697 16.58 63.4297 16.73 63.3897 16.87C63.3497 17.01 63.3197 17.15 63.2997 17.29C63.2797 17.37 63.2697 17.48 63.2697 17.62C63.2697 17.74 63.2697 17.88 63.2697 18.04C63.2697 18.48 63.4997 18.7 63.9597 18.7C64.1597 18.7 64.3597 18.67 64.5597 18.61C64.7797 18.53 64.9397 18.44 65.0397 18.34C65.9997 17.5 66.9397 16.41 67.8597 15.07L67.8297 14.71C67.8097 14.51 67.8497 14.32 67.9497 14.14C68.0497 13.94 68.1797 13.74 68.3397 13.54C68.3997 13.46 68.4797 13.42 68.5797 13.42C68.6797 13.42 68.7697 13.47 68.8497 13.57C68.9497 13.65 68.9997 13.76 68.9997 13.9C68.9997 14 68.9697 14.11 68.9097 14.23C68.7897 14.45 68.5997 14.77 68.3397 15.19C68.0797 15.59 67.7797 16.03 67.4397 16.51C67.0997 16.99 66.7597 17.44 66.4197 17.86C66.0797 18.28 65.7697 18.61 65.4897 18.85V18.88C65.1497 19.18 64.7597 19.41 64.3197 19.57C63.8797 19.75 63.5097 19.82 63.2097 19.78ZM73.3113 19.81C73.2713 19.81 73.2313 19.8 73.1913 19.78C73.1513 19.78 73.1113 19.77 73.0713 19.75C72.7913 19.61 72.6113 19.41 72.5313 19.15C72.4513 18.89 72.4313 18.56 72.4713 18.16C72.5113 18 72.5513 17.72 72.5913 17.32C72.6513 16.92 72.7213 16.6 72.8013 16.36L71.2713 17.83L70.4313 18.64C69.8513 19.22 69.3713 19.51 68.9913 19.51C68.8313 19.51 68.7013 19.45 68.6013 19.33C68.4213 19.11 68.3313 18.84 68.3313 18.52C68.3313 18.1 68.4413 17.65 68.6613 17.17C68.8813 16.69 69.1413 16.23 69.4413 15.79C69.7413 15.33 70.0113 14.95 70.2513 14.65C70.8513 13.91 71.4313 13.33 71.9912 12.91C72.5713 12.49 73.1713 12.28 73.7913 12.28C74.1313 12.28 74.4613 12.34 74.7813 12.46C75.1213 12.58 75.4313 12.78 75.7113 13.06L75.7412 13.09C75.7412 13.15 75.6913 13.21 75.5913 13.27C75.5513 13.31 75.5113 13.34 75.4713 13.36C75.4513 13.38 75.4313 13.4 75.4113 13.42C75.1713 13.66 74.9013 14.06 74.6013 14.62C74.3013 15.18 74.0413 15.77 73.8213 16.39C73.6013 16.99 73.4913 17.51 73.4913 17.95C73.4913 18.35 73.5913 18.62 73.7913 18.76C73.8913 18.82 74.0013 18.85 74.1213 18.85C74.3813 18.85 74.7413 18.69 75.2013 18.37C75.2213 18.35 75.2613 18.32 75.3213 18.28C75.4013 18.22 75.5113 18.14 75.6513 18.04C75.8113 17.92 75.9413 17.86 76.0413 17.86C76.1413 17.86 76.1913 17.9 76.1913 17.98C76.1913 18.1 76.1113 18.24 75.9512 18.4C75.8313 18.5 75.6913 18.61 75.5312 18.73C75.3913 18.85 75.2213 18.97 75.0213 19.09C74.7213 19.31 74.4113 19.48 74.0913 19.6C73.7713 19.74 73.5113 19.81 73.3113 19.81ZM69.9213 17.89C70.3413 17.89 71.1213 17.27 72.2613 16.03C72.5613 15.69 72.8313 15.37 73.0713 15.07C73.3113 14.75 73.5313 14.44 73.7313 14.14C74.0913 13.56 74.2113 13.16 74.0913 12.94C74.0313 12.82 73.9113 12.76 73.7313 12.76C73.5113 12.76 73.2113 12.88 72.8313 13.12C72.4513 13.34 72.0613 13.63 71.6613 13.99C71.2813 14.35 70.9313 14.71 70.6113 15.07C70.3913 15.35 70.1713 15.74 69.9513 16.24C69.7313 16.74 69.6213 17.15 69.6213 17.47C69.6213 17.75 69.7213 17.89 69.9213 17.89ZM85.8452 21.97C84.6052 21.97 83.6152 21.6 82.8752 20.86C82.1552 20.14 81.7952 19.16 81.7952 17.92C81.7952 17.06 81.9252 16.17 82.1852 15.25C82.4452 14.31 82.8252 13.34 83.3252 12.34C83.9652 11.06 84.7352 9.91 85.6352 8.89C86.5552 7.85 87.5552 7.03 88.6352 6.43C89.7352 5.83 90.8652 5.53 92.0252 5.53C92.7852 5.53 93.3352 5.72 93.6752 6.1C94.0352 6.46 94.2152 6.94 94.2152 7.54C94.2152 8.06 94.1052 8.64 93.8852 9.28C93.6652 9.9 93.3952 10.48 93.0752 11.02C92.7752 11.54 92.4652 11.94 92.1452 12.22C92.0652 12.3 91.9752 12.34 91.8752 12.34C91.7752 12.34 91.7252 12.29 91.7252 12.19C91.7252 12.05 91.7952 11.91 91.9352 11.77C92.2752 11.47 92.5852 10.99 92.8652 10.33C93.1452 9.67 93.2852 9.04 93.2852 8.44C93.2852 7.92 93.1652 7.51 92.9252 7.21C92.6852 6.89 92.3052 6.73 91.7852 6.73C90.3452 6.73 88.9452 7.35 87.5852 8.59C86.6852 9.41 85.8752 10.36 85.1552 11.44C84.4352 12.52 83.8552 13.62 83.4152 14.74C82.9752 15.84 82.7052 16.85 82.6052 17.77C82.5452 18.47 82.6552 19.11 82.9352 19.69C83.2352 20.29 83.6552 20.75 84.1952 21.07C84.7352 21.41 85.3452 21.55 86.0252 21.49C87.8452 21.33 89.6252 20.5 91.3652 19C93.1052 17.48 94.9452 15.39 96.8852 12.73C96.6452 12.49 96.4852 12.2 96.4052 11.86C96.3652 11.54 96.4252 11.29 96.5852 11.11C96.7652 10.91 96.9852 10.81 97.2452 10.81C97.5852 10.81 97.8552 10.91 98.0552 11.11C98.3952 10.51 99.0252 9.43 99.9452 7.87C100.065 7.67 100.265 7.33 100.545 6.85C100.845 6.35 101.165 5.8 101.505 5.2C101.845 4.58 102.155 4 102.435 3.46C102.455 3.44 102.465 3.4 102.465 3.34C102.465 3.3 102.415 3.21 102.315 3.07C102.175 2.97 102.155 2.86 102.255 2.74L103.035 1.15C103.135 0.989999 103.305 0.909999 103.545 0.909999C103.785 0.909999 104.005 0.969999 104.205 1.09C104.425 1.21 104.525 1.34 104.505 1.48C104.285 2.4 103.715 3.66 102.795 5.26C101.895 6.84 100.725 8.72 99.2852 10.9C99.0452 11.26 98.8452 11.52 98.6852 11.68L98.6252 11.74C98.5652 11.8 98.5452 11.88 98.5652 11.98L98.6252 12.43C98.9252 12.53 99.1452 12.58 99.2852 12.58C99.9652 12.58 100.685 12.47 101.445 12.25C102.205 12.01 102.935 11.71 103.635 11.35C104.355 10.99 104.965 10.63 105.465 10.27C106.745 9.33 107.825 8.37 108.705 7.39C109.605 6.39 110.375 5.32 111.015 4.18C111.115 3.94 111.165 3.65 111.165 3.31C111.205 3.09 111.255 2.88 111.315 2.68C111.395 2.48 111.485 2.31 111.585 2.17C111.665 2.03 111.825 1.96 112.065 1.96C112.305 1.96 112.515 2.03 112.695 2.17C112.895 2.29 112.975 2.44 112.935 2.62C112.755 3.34 112.315 4.19 111.615 5.17C110.915 6.15 110.065 7.14 109.065 8.14C108.085 9.14 107.045 10.04 105.945 10.84C105.385 11.26 104.715 11.66 103.935 12.04C103.175 12.4 102.385 12.7 101.565 12.94C100.745 13.16 99.9552 13.27 99.1952 13.27H98.8652C99.0252 14.01 99.2152 14.66 99.4352 15.22C99.6552 15.78 99.9652 16.35 100.365 16.93C100.785 17.51 101.215 17.99 101.655 18.37C102.095 18.73 102.605 18.91 103.185 18.91C103.565 18.91 103.985 18.85 104.445 18.73C104.905 18.59 105.195 18.42 105.315 18.22C105.435 18.04 105.585 17.95 105.765 17.95C105.905 17.95 105.975 18 105.975 18.1C105.975 18.16 105.945 18.24 105.885 18.34C105.705 18.6 105.405 18.9 104.985 19.24C104.585 19.6 104.175 19.9 103.755 20.14C103.335 20.4 102.985 20.53 102.705 20.53C101.945 20.47 101.305 20.23 100.785 19.81C100.265 19.39 99.7652 18.71 99.2852 17.77C98.9852 17.13 98.6852 16.31 98.3852 15.31L98.0552 14.2C98.0152 13.98 97.9652 13.78 97.9052 13.6C97.8452 13.42 97.7952 13.26 97.7552 13.12L97.6052 13.06C95.5652 15.82 93.5452 17.99 91.5452 19.57C89.5452 21.15 87.6452 21.95 85.8452 21.97ZM107.576 19.33C107.156 19.33 106.786 19.22 106.466 19C105.946 18.6 105.686 18 105.686 17.2C105.686 16.4 105.966 15.55 106.526 14.65C107.086 13.75 107.936 12.92 109.076 12.16C109.276 12.02 109.546 11.95 109.886 11.95C110.326 11.95 110.716 12.07 111.056 12.31C111.416 12.55 111.556 12.86 111.476 13.24C111.336 13.86 111.026 14.41 110.546 14.89C110.086 15.37 109.536 15.8 108.896 16.18C108.276 16.54 107.636 16.89 106.976 17.23C106.956 17.29 106.936 17.35 106.916 17.41C106.916 17.47 106.916 17.53 106.916 17.59C106.916 17.87 107.006 18.12 107.186 18.34C107.386 18.54 107.656 18.64 107.996 18.64C108.256 18.64 108.476 18.6 108.656 18.52C108.976 18.4 109.236 18.29 109.436 18.19C109.656 18.09 109.906 17.94 110.186 17.74C110.466 17.54 110.846 17.24 111.326 16.84C111.546 16.68 111.676 16.6 111.716 16.6C111.836 16.6 111.876 16.69 111.836 16.87C111.636 17.19 111.286 17.54 110.786 17.92C110.306 18.3 109.766 18.63 109.166 18.91C108.586 19.19 108.056 19.33 107.576 19.33ZM107.156 16.42C107.316 16.42 107.646 16.26 108.146 15.94C108.646 15.62 109.116 15.27 109.556 14.89C110.316 14.19 110.696 13.65 110.696 13.27C110.696 13.17 110.666 13.08 110.606 13C110.546 12.9 110.456 12.85 110.336 12.85C109.956 12.85 109.316 13.3 108.416 14.2C107.796 14.8 107.376 15.54 107.156 16.42ZM111.963 19.48C111.603 19.48 111.423 19.34 111.423 19.06C111.423 18.88 111.483 18.65 111.603 18.37C111.743 18.09 111.883 17.82 112.023 17.56C112.403 16.88 112.753 16.22 113.073 15.58C113.393 14.94 113.703 14.26 114.003 13.54C114.143 13.22 114.353 13.06 114.633 13.06C114.933 13.06 115.023 13.24 114.903 13.6C114.783 13.9 114.663 14.17 114.543 14.41C113.983 15.55 113.703 16.32 113.703 16.72C113.703 16.9 113.763 17.01 113.883 17.05C114.163 16.83 114.373 16.67 114.513 16.57C114.653 16.45 114.733 16.38 114.753 16.36C115.033 16.14 115.343 15.89 115.683 15.61C116.043 15.31 116.433 14.97 116.853 14.59C117.513 13.99 118.063 13.69 118.503 13.69C119.043 13.69 119.273 14.18 119.193 15.16C119.173 15.54 119.173 15.91 119.193 16.27C119.213 16.35 119.223 16.47 119.223 16.63C119.223 16.77 119.223 16.94 119.223 17.14C119.223 17.34 119.343 17.44 119.583 17.44C119.863 17.44 120.123 17.36 120.363 17.2L121.023 16.75L121.683 16.33C121.723 16.31 121.793 16.3 121.893 16.3C122.013 16.3 122.013 16.39 121.893 16.57C120.633 18.13 119.593 18.91 118.773 18.91C118.613 18.91 118.453 18.88 118.293 18.82C118.153 18.76 118.053 18.59 117.993 18.31C117.933 18.01 117.893 17.69 117.873 17.35C117.873 17.01 117.873 16.75 117.873 16.57L117.903 15.58C117.903 15.16 117.793 14.95 117.573 14.95C117.053 14.95 115.773 16.02 113.733 18.16C113.573 18.36 113.323 18.63 112.983 18.97C112.643 19.31 112.303 19.48 111.963 19.48ZM121.17 20.26C120.85 20.26 120.57 20.23 120.33 20.17C120.11 20.11 120 20.03 120 19.93C120 19.77 120.16 19.68 120.48 19.66C120.78 19.64 120.98 19.61 121.08 19.57C121.26 19.53 121.47 19.5 121.71 19.48C121.93 19.44 122.11 19.41 122.25 19.39C123.21 19.11 123.69 18.68 123.69 18.1C123.69 17.7 123.48 17.19 123.06 16.57C122.8 16.19 122.67 15.77 122.67 15.31C122.67 14.75 122.84 14.2 123.18 13.66C123.54 13.12 123.98 12.65 124.5 12.25C125.04 11.83 125.58 11.55 126.12 11.41C126.36 11.35 126.61 11.32 126.87 11.32C127.29 11.32 127.59 11.42 127.77 11.62C127.89 11.74 127.95 12 127.95 12.4C127.95 12.7 127.9 13.01 127.8 13.33C127.7 13.63 127.56 13.88 127.38 14.08C127.28 14.18 127.2 14.23 127.14 14.23C127.04 14.23 126.99 14.09 126.99 13.81L127.02 13.21C127.04 13.05 127.05 12.91 127.05 12.79C127.07 12.67 127.08 12.57 127.08 12.49C127.08 12.15 127.01 11.95 126.87 11.89C126.71 11.85 126.6 11.83 126.54 11.83C126.12 11.83 125.67 12.02 125.19 12.4C124.71 12.78 124.32 13.22 124.02 13.72C123.9 13.9 123.84 14.12 123.84 14.38C123.84 14.7 123.92 15.08 124.08 15.52C124.26 15.94 124.39 16.25 124.47 16.45C124.67 16.89 124.82 17.27 124.92 17.59C125.04 17.91 125.1 18.19 125.1 18.43C125.1 18.55 125.09 18.64 125.07 18.7C125.17 18.66 125.41 18.6 125.79 18.52C126.13 18.44 126.42 18.4 126.66 18.4C126.8 18.4 126.87 18.43 126.87 18.49C126.87 18.51 126.81 18.58 126.69 18.7C126.63 18.76 126.44 18.86 126.12 19C125.82 19.12 125.46 19.25 125.04 19.39C124.64 19.53 124.24 19.66 123.84 19.78C123.44 19.9 123.1 19.99 122.82 20.05C122.34 20.19 121.79 20.26 121.17 20.26ZM129.432 19.33C129.012 19.33 128.642 19.22 128.322 19C127.802 18.6 127.542 18 127.542 17.2C127.542 16.4 127.822 15.55 128.382 14.65C128.942 13.75 129.792 12.92 130.932 12.16C131.132 12.02 131.402 11.95 131.742 11.95C132.182 11.95 132.572 12.07 132.912 12.31C133.272 12.55 133.412 12.86 133.332 13.24C133.192 13.86 132.882 14.41 132.402 14.89C131.942 15.37 131.392 15.8 130.752 16.18C130.132 16.54 129.492 16.89 128.832 17.23C128.812 17.29 128.792 17.35 128.772 17.41C128.772 17.47 128.772 17.53 128.772 17.59C128.772 17.87 128.862 18.12 129.042 18.34C129.242 18.54 129.512 18.64 129.852 18.64C130.112 18.64 130.332 18.6 130.512 18.52C130.832 18.4 131.092 18.29 131.292 18.19C131.512 18.09 131.762 17.94 132.042 17.74C132.322 17.54 132.702 17.24 133.182 16.84C133.402 16.68 133.532 16.6 133.572 16.6C133.692 16.6 133.732 16.69 133.692 16.87C133.492 17.19 133.142 17.54 132.642 17.92C132.162 18.3 131.622 18.63 131.022 18.91C130.442 19.19 129.912 19.33 129.432 19.33ZM129.012 16.42C129.172 16.42 129.502 16.26 130.002 15.94C130.502 15.62 130.972 15.27 131.412 14.89C132.172 14.19 132.552 13.65 132.552 13.27C132.552 13.17 132.522 13.08 132.462 13C132.402 12.9 132.312 12.85 132.192 12.85C131.812 12.85 131.172 13.3 130.272 14.2C129.652 14.8 129.232 15.54 129.012 16.42ZM136.759 12.43C136.499 12.43 136.369 12.37 136.369 12.25C136.369 12.15 136.439 12.01 136.579 11.83C136.739 11.63 136.919 11.46 137.119 11.32C137.559 11.04 137.899 10.8 138.139 10.6C138.399 10.4 138.709 10.06 139.069 9.58C139.089 9.62 139.099 9.7 139.099 9.82C139.099 10.08 138.989 10.4 138.769 10.78C138.569 11.14 138.339 11.47 138.079 11.77C137.819 12.07 137.589 12.26 137.389 12.34C137.209 12.4 136.999 12.43 136.759 12.43ZM134.089 19.78C133.929 19.78 133.779 19.72 133.639 19.6C133.499 19.48 133.429 19.32 133.429 19.12C133.429 18.7 133.719 17.93 134.299 16.81L134.629 16.15C134.669 16.11 134.719 16.01 134.779 15.85C134.859 15.69 134.969 15.48 135.109 15.22C135.249 14.94 135.359 14.69 135.439 14.47C135.519 14.25 135.579 14.04 135.619 13.84C135.619 13.82 135.659 13.78 135.739 13.72C135.819 13.66 135.899 13.61 135.979 13.57L136.159 13.54C136.319 13.54 136.449 13.57 136.549 13.63C136.669 13.69 136.709 13.77 136.669 13.87C136.529 14.17 136.409 14.43 136.309 14.65C136.209 14.87 136.129 15.06 136.069 15.22H136.039C135.819 15.72 135.629 16.2 135.469 16.66C135.329 17.1 135.269 17.52 135.289 17.92L135.319 18.73C135.299 18.93 135.229 19.1 135.109 19.24C135.029 19.3 134.919 19.37 134.779 19.45C134.639 19.55 134.459 19.65 134.239 19.75C134.219 19.77 134.169 19.78 134.089 19.78Z" fill="#111827"/>
</svg>
