<svg width="48" height="48" viewBox="0 0 48 48" fill="none" xmlns="http://www.w3.org/2000/svg">
<g clip-path="url(#clip0_517_12952)">
<path d="M40.4995 30.7501C40.4028 30.7504 40.307 30.7315 40.2175 30.6946C40.124 30.6567 40.0391 30.6005 39.9678 30.5291C39.8966 30.4577 39.8404 30.3726 39.8028 30.2791L33.8028 15.2791C33.7306 15.0988 33.7311 14.8975 33.8043 14.7176C33.8774 14.5378 34.0175 14.3933 34.195 14.3146L40.945 11.3146C41.0372 11.2735 41.1367 11.2515 41.2376 11.2499C41.3385 11.2482 41.4387 11.2669 41.5321 11.3048C41.6256 11.3428 41.7105 11.3992 41.7816 11.4707C41.8528 11.5422 41.9088 11.6274 41.9463 11.7211L47.9463 26.7211C48.0185 26.9013 48.018 27.1026 47.9448 27.2825C47.8717 27.4623 47.7316 27.6068 47.554 27.6856L40.804 30.6856C40.7082 30.7281 40.6044 30.7501 40.4995 30.7501ZM35.464 15.3923L40.9068 28.9988L46.285 26.6078L40.8423 13.0013L35.464 15.3923Z" fill="#6D4DF2"/>
<path d="M20.7159 23.3536C19.9562 23.352 19.2211 23.0847 18.6377 22.5981C18.0544 22.1115 17.6596 21.4362 17.5218 20.6891C17.384 19.9421 17.5118 19.1703 17.8831 18.5076C18.2544 17.8449 18.8458 17.3329 19.5549 17.0603L26.7309 14.3003C26.8686 14.2473 27.0188 14.2361 27.1629 14.2681L33.8326 15.7501H34.5001C34.699 15.7501 34.8898 15.8291 35.0304 15.9697C35.1711 16.1104 35.2501 16.3012 35.2501 16.5001C35.2501 16.699 35.1711 16.8897 35.0304 17.0304C34.8898 17.1711 34.699 17.2501 34.5001 17.2501H33.7501C33.6954 17.2501 33.6408 17.2441 33.5874 17.2321L27.0624 15.7816L20.0971 18.4598C19.6679 18.6304 19.3232 18.9633 19.1379 19.3864C18.9527 19.8095 18.9417 20.2886 19.1075 20.7198C19.2733 21.1509 19.6024 21.4992 20.0235 21.6891C20.4445 21.8791 20.9234 21.8953 21.3564 21.7343L28.9846 18.8003C29.0771 18.762 29.1763 18.7427 29.2764 18.7433C29.3764 18.744 29.4754 18.7647 29.5673 18.8041C29.6593 18.8436 29.7424 18.9011 29.8118 18.9732C29.8812 19.0453 29.9355 19.1306 29.9714 19.224C30.0073 19.3174 30.0242 19.417 30.0211 19.517C30.0179 19.6171 29.9947 19.7155 29.953 19.8064C29.9112 19.8973 29.8516 19.979 29.7778 20.0466C29.704 20.1141 29.6174 20.1662 29.5231 20.1998L21.8911 23.1338C21.5163 23.2789 21.1178 23.3534 20.7159 23.3536Z" fill="#6D4DF2"/>
<path d="M34.5529 34.4716C34.2088 34.4719 33.868 34.4043 33.55 34.2728C33.232 34.1413 32.9431 33.9483 32.6997 33.7051C32.559 33.5644 32.4799 33.3737 32.4798 33.1747C32.4797 32.9757 32.5587 32.7849 32.6993 32.6442C32.8399 32.5035 33.0307 32.4244 33.2297 32.4243C33.4286 32.4242 33.6195 32.5032 33.7602 32.6438C33.9715 32.8545 34.2579 32.9725 34.5563 32.972C34.8547 32.9715 35.1407 32.8525 35.3513 32.6412C35.562 32.4298 35.68 32.1435 35.6795 31.8451C35.679 31.5467 35.56 31.2607 35.3487 31.0501L25.8237 21.5251C25.7521 21.4559 25.6949 21.3731 25.6556 21.2816C25.6163 21.1901 25.5956 21.0917 25.5948 20.9921C25.5939 20.8925 25.6129 20.7938 25.6506 20.7016C25.6883 20.6094 25.744 20.5257 25.8144 20.4553C25.8848 20.3848 25.9686 20.3292 26.0607 20.2914C26.1529 20.2537 26.2517 20.2348 26.3512 20.2356C26.4508 20.2365 26.5492 20.2572 26.6407 20.2965C26.7322 20.3358 26.815 20.3929 26.8842 20.4646L36.4092 29.9896C36.7756 30.3568 37.0249 30.8243 37.1258 31.3332C37.2267 31.842 37.1745 32.3693 36.9759 32.8486C36.7773 33.3278 36.4411 33.7374 36.0099 34.0257C35.5787 34.3141 35.0717 34.4682 34.5529 34.4686V34.4716Z" fill="#6D4DF2"/>
<path d="M32.2504 37.4723C31.9056 37.4729 31.5642 37.4054 31.2456 37.2736C30.9271 37.1418 30.6377 36.9483 30.3941 36.7043L27.3941 33.7043C27.2575 33.5629 27.1819 33.3734 27.1836 33.1768C27.1853 32.9801 27.2642 32.792 27.4033 32.653C27.5423 32.5139 27.7304 32.435 27.9271 32.4333C28.1237 32.4316 28.3132 32.5072 28.4546 32.6438L31.4546 35.6438C31.666 35.8549 31.9525 35.9733 32.2512 35.9731C32.5498 35.9729 32.8362 35.8541 33.0473 35.6427C33.2583 35.4314 33.3767 35.1448 33.3765 34.8462C33.3763 34.5475 33.2575 34.2611 33.0461 34.0501L30.0461 31.0501C29.9095 30.9086 29.8339 30.7192 29.8356 30.5225C29.8373 30.3259 29.9162 30.1378 30.0553 29.9987C30.1943 29.8597 30.3824 29.7808 30.5791 29.7791C30.7757 29.7774 30.9652 29.853 31.1066 29.9896L34.1066 32.9896C34.4743 33.3566 34.7248 33.8245 34.8264 34.334C34.928 34.8435 34.8761 35.3716 34.6774 35.8516C34.4786 36.3316 34.1419 36.7418 33.7099 37.0303C33.2778 37.3188 32.7699 37.4727 32.2504 37.4723Z" fill="#6D4DF2"/>
<path d="M28.8476 39.3749C28.5028 39.3759 28.1611 39.3084 27.8425 39.1765C27.5239 39.0445 27.2346 38.8507 26.9914 38.6061L25.7164 37.3311C25.5798 37.1897 25.5042 37.0002 25.5059 36.8036C25.5076 36.6069 25.5865 36.4188 25.7255 36.2798C25.8646 36.1407 26.0527 36.0618 26.2493 36.0601C26.446 36.0584 26.6354 36.134 26.7769 36.2706L28.0519 37.5456C28.2663 37.75 28.5511 37.864 28.8473 37.864C29.1434 37.864 29.4283 37.75 29.6426 37.5456C29.7472 37.4412 29.8301 37.3171 29.8867 37.1806C29.9433 37.044 29.9724 36.8977 29.9724 36.7499C29.9724 36.6021 29.9433 36.4557 29.8867 36.3192C29.8301 36.1827 29.7472 36.0586 29.6426 35.9541L27.3926 33.7041C27.256 33.5627 27.1804 33.3732 27.1821 33.1766C27.1838 32.9799 27.2627 32.7918 27.4018 32.6528C27.5408 32.5137 27.7289 32.4348 27.9256 32.4331C28.1222 32.4314 28.3117 32.507 28.4531 32.6436L30.7031 34.8936C31.0702 35.2607 31.3203 35.7284 31.4216 36.2375C31.5229 36.7467 31.471 37.2745 31.2724 37.7541C31.0738 38.2338 30.7374 38.6438 30.3058 38.9322C29.8742 39.2207 29.3668 39.3748 28.8476 39.3749Z" fill="#6D4DF2"/>
<path d="M25.4472 41.2755C25.1024 41.2762 24.7609 41.2086 24.4424 41.0768C24.1238 40.945 23.8344 40.7515 23.5909 40.5075L22.7202 39.6367C22.6485 39.5676 22.5914 39.4848 22.5521 39.3933C22.5128 39.3018 22.4921 39.2034 22.4912 39.1038C22.4904 39.0042 22.5094 38.9055 22.5471 38.8133C22.5848 38.7211 22.6405 38.6374 22.7109 38.5669C22.7813 38.4965 22.865 38.4408 22.9572 38.4031C23.0494 38.3654 23.1481 38.3464 23.2477 38.3473C23.3473 38.3482 23.4457 38.3689 23.5372 38.4082C23.6287 38.4475 23.7115 38.5046 23.7807 38.5762L24.6514 39.45C24.7552 39.5574 24.8793 39.6431 25.0166 39.7021C25.1539 39.7611 25.3015 39.7921 25.4509 39.7934C25.6002 39.7947 25.7484 39.7662 25.8866 39.7097C26.0249 39.6531 26.1505 39.5696 26.2561 39.4639C26.3618 39.3583 26.4453 39.2327 26.5019 39.0944C26.5584 38.9562 26.5869 38.808 26.5856 38.6587C26.5843 38.5093 26.5533 38.3617 26.4943 38.2244C26.4353 38.0872 26.3496 37.963 26.2422 37.8592L25.7172 37.3342C25.6475 37.2646 25.5922 37.1819 25.5545 37.0909C25.5167 36.9999 25.4973 36.9024 25.4973 36.8039C25.4972 36.7054 25.5166 36.6078 25.5543 36.5168C25.5919 36.4258 25.6472 36.3431 25.7168 36.2734C25.7864 36.2037 25.8691 36.1484 25.9601 36.1107C26.0511 36.0729 26.1487 36.0535 26.2472 36.0535C26.3457 36.0534 26.4432 36.0728 26.5343 36.1105C26.6253 36.1481 26.708 36.2034 26.7777 36.273L27.3027 36.798C27.6696 37.1651 27.9194 37.6328 28.0205 38.1419C28.1217 38.651 28.0696 39.1787 27.871 39.6582C27.6723 40.1377 27.336 40.5476 26.9044 40.836C26.4728 41.1244 25.9655 41.2784 25.4464 41.2785L25.4472 41.2755Z" fill="#6D4DF2"/>
<path d="M36.0004 30.7499C35.8299 30.752 35.6637 30.6959 35.5293 30.5909C35.3949 30.4858 35.3004 30.3381 35.2612 30.1721C35.2221 30.0061 35.2407 29.8317 35.314 29.6777C35.3873 29.5237 35.5109 29.3992 35.6644 29.3249L38.6644 27.8249C38.7526 27.7809 38.8485 27.7547 38.9468 27.7477C39.0451 27.7408 39.1438 27.7533 39.2372 27.7845C39.3307 27.8157 39.4171 27.865 39.4915 27.9296C39.5659 27.9941 39.6269 28.0728 39.6709 28.1609C39.7149 28.2491 39.7412 28.345 39.7481 28.4433C39.7551 28.5416 39.7426 28.6403 39.7114 28.7338C39.6802 28.8272 39.6309 28.9136 39.5663 28.988C39.5017 29.0624 39.4231 29.1234 39.3349 29.1674L36.3349 30.6674C36.2313 30.7205 36.1168 30.7487 36.0004 30.7499Z" fill="#6D4DF2"/>
<path d="M7.49954 30.7501C7.39465 30.7501 7.29092 30.7281 7.19504 30.6856L0.445044 27.6856C0.267516 27.6068 0.127437 27.4623 0.0542795 27.2825C-0.0188781 27.1026 -0.0194104 26.9013 0.0527944 26.7211L6.05279 11.7211C6.09029 11.6274 6.14629 11.5422 6.21745 11.4707C6.28862 11.3992 6.37348 11.3428 6.46696 11.3048C6.56044 11.2669 6.66061 11.2482 6.76149 11.2499C6.86237 11.2515 6.96187 11.2735 7.05404 11.3146L13.804 14.3146C13.9816 14.3933 14.1217 14.5378 14.1948 14.7176C14.268 14.8975 14.2685 15.0988 14.1963 15.2791L8.19629 30.2791C8.15866 30.3726 8.10253 30.4577 8.03126 30.5291C7.96 30.6005 7.87507 30.6567 7.78154 30.6946C7.69213 30.7315 7.59629 30.7504 7.49954 30.7501ZM1.71404 26.6078L7.09229 28.9988L12.535 15.3923L7.15679 13.0013L1.71404 26.6078Z" fill="#6D4DF2"/>
<path d="M14.25 17.2501H13.5C13.3011 17.2501 13.1103 17.1711 12.9697 17.0304C12.829 16.8897 12.75 16.699 12.75 16.5001C12.75 16.3012 12.829 16.1104 12.9697 15.9697C13.1103 15.8291 13.3011 15.7501 13.5 15.7501H14.1683L20.838 14.2681C20.982 14.2361 21.1323 14.2473 21.27 14.3003L24.27 15.4538C24.4557 15.5252 24.6054 15.6675 24.6862 15.8493C24.767 16.0311 24.7723 16.2375 24.7009 16.4232C24.6295 16.6089 24.4872 16.7586 24.3054 16.8394C24.1236 16.9202 23.9172 16.9255 23.7315 16.8541L20.9423 15.7816L14.4135 17.2321C14.3598 17.2441 14.305 17.2502 14.25 17.2501Z" fill="#6D4DF2"/>
<path d="M11.2503 30.0001C11.1024 30 10.9579 29.9561 10.8348 29.8741L8.58482 28.3741C8.50288 28.3194 8.4325 28.2492 8.37771 28.1673C8.32292 28.0854 8.28479 27.9936 8.2655 27.897C8.24621 27.8004 8.24613 27.701 8.26528 27.6043C8.28442 27.5077 8.32241 27.4158 8.37707 27.3338C8.43173 27.2519 8.502 27.1815 8.58386 27.1267C8.66572 27.0719 8.75757 27.0338 8.85417 27.0145C8.95076 26.9952 9.05021 26.9952 9.14684 27.0143C9.24347 27.0334 9.33537 27.0714 9.41732 27.1261L11.6673 28.6261C11.8013 28.7154 11.903 28.8455 11.9573 28.9971C12.0116 29.1487 12.0157 29.3138 11.9689 29.4679C11.9221 29.622 11.827 29.757 11.6976 29.8528C11.5682 29.9486 11.4114 30.0003 11.2503 30.0001Z" fill="#6D4DF2"/>
<path d="M13.4471 32.9714C13.1025 32.9721 12.7611 32.9047 12.4425 32.7732C12.124 32.6417 11.8346 32.4485 11.5908 32.2049C11.0987 31.7126 10.8223 31.0451 10.8223 30.349C10.8223 29.653 11.0987 28.9854 11.5908 28.4932L14.2428 25.8412C14.7351 25.3488 15.4029 25.0723 16.0991 25.0723C16.7953 25.0723 17.463 25.3488 17.9553 25.8412C18.4476 26.3335 18.7242 27.0012 18.7242 27.6974C18.7242 28.3936 18.4476 29.0613 17.9553 29.5536L15.3003 32.2041C15.0571 32.4477 14.7682 32.6409 14.4502 32.7726C14.1322 32.9042 13.7913 32.9718 13.4471 32.9714ZM12.6513 31.1437C12.7558 31.2482 12.8799 31.3311 13.0164 31.3877C13.1529 31.4443 13.2993 31.4734 13.4471 31.4734C13.5949 31.4734 13.7412 31.4443 13.8778 31.3877C14.0143 31.3311 14.1384 31.2482 14.2428 31.1437L16.8941 28.4924C17.1051 28.2811 17.2236 27.9945 17.2234 27.6959C17.2231 27.3972 17.1043 27.1108 16.893 26.8998C16.6816 26.6887 16.3951 26.5703 16.0964 26.5705C15.7977 26.5707 15.5114 26.6896 15.3003 26.9009L12.6513 29.5499C12.5464 29.6544 12.4632 29.7786 12.4065 29.9154C12.3497 30.0521 12.3204 30.1987 12.3204 30.3468C12.3204 30.4948 12.3497 30.6414 12.4065 30.7782C12.4632 30.9149 12.5464 31.0391 12.6513 31.1437Z" fill="#6D4DF2"/>
<path d="M15.7504 35.9722C15.2314 35.9721 14.724 35.8181 14.2924 35.5297C13.8609 35.2413 13.5245 34.8314 13.3259 34.3519C13.1272 33.8724 13.0752 33.3447 13.1763 32.8356C13.2775 32.3265 13.5273 31.8589 13.8942 31.4917L16.8942 28.4917C17.3941 28.0141 18.059 27.7476 18.7504 27.7476C19.4419 27.7476 20.1067 28.0141 20.6067 28.4917C21.0988 28.984 21.3752 29.6515 21.3752 30.3476C21.3752 31.0436 21.0988 31.7112 20.6067 32.2035L17.6067 35.2035C17.3632 35.4476 17.0738 35.6412 16.7553 35.7731C16.4367 35.905 16.0952 35.9727 15.7504 35.9722ZM18.7504 29.2222C18.6027 29.222 18.4563 29.251 18.3199 29.3076C18.1834 29.3643 18.0596 29.4474 17.9554 29.5522L14.9554 32.5522C14.851 32.6567 14.7681 32.7808 14.7116 32.9173C14.6551 33.0538 14.626 33.2001 14.6261 33.3478C14.6261 33.6462 14.7447 33.9324 14.9558 34.1433C15.1668 34.3543 15.453 34.4727 15.7514 34.4727C15.8992 34.4726 16.0455 34.4435 16.182 34.3869C16.3185 34.3304 16.4425 34.2475 16.5469 34.143L19.5469 31.143C19.7041 30.9855 19.8112 30.785 19.8544 30.5668C19.8977 30.3486 19.8753 30.1224 19.7901 29.9169C19.7048 29.7114 19.5605 29.5358 19.3755 29.4122C19.1904 29.2887 18.9729 29.2221 18.7504 29.2222Z" fill="#6D4DF2"/>
<path d="M19.1516 37.875C18.6324 37.875 18.1248 37.7211 17.6931 37.4326C17.2614 37.1442 16.9249 36.7342 16.7262 36.2545C16.5275 35.7749 16.4755 35.247 16.5768 34.7378C16.6781 34.2286 16.9282 33.7608 17.2953 33.3937L19.5453 31.1437C20.0455 30.6664 20.7102 30.4001 21.4016 30.4001C22.0929 30.4001 22.7577 30.6664 23.2578 31.1437C23.5016 31.3875 23.695 31.6769 23.8269 31.9954C23.9588 32.3139 24.0267 32.6552 24.0267 33C24.0267 33.3447 23.9588 33.6861 23.8269 34.0046C23.695 34.3231 23.5016 34.6125 23.2578 34.8562L21.0078 37.1062C20.7647 37.3509 20.4754 37.5448 20.1568 37.6768C19.8381 37.8087 19.4965 37.8761 19.1516 37.875ZM21.4016 31.875C21.2537 31.8745 21.1073 31.9034 20.9707 31.9599C20.8341 32.0164 20.7101 32.0995 20.6058 32.2042L18.3558 34.4542C18.2513 34.5587 18.1683 34.6827 18.1118 34.8193C18.0552 34.9558 18.026 35.1022 18.026 35.25C18.026 35.3978 18.0552 35.5441 18.1118 35.6807C18.1683 35.8172 18.2513 35.9412 18.3558 36.0457C18.5703 36.2499 18.8551 36.3638 19.1512 36.3638C19.4473 36.3638 19.7321 36.2499 19.9466 36.0457L22.1966 33.7957C22.354 33.6384 22.4612 33.438 22.5046 33.2198C22.5481 33.0015 22.5259 32.7753 22.4408 32.5697C22.3557 32.3641 22.2115 32.1884 22.0266 32.0647C21.8416 31.941 21.6241 31.875 21.4016 31.875Z" fill="#6D4DF2"/>
<path d="M22.5533 39.7755C22.0347 39.7746 21.5279 39.6202 21.097 39.3316C20.666 39.043 20.3303 38.6332 20.132 38.154C19.9337 37.6747 19.8819 37.1475 19.983 36.6388C20.0841 36.1301 20.3336 35.6628 20.7001 35.2957L22.2001 33.7957C22.4429 33.548 22.7324 33.3508 23.0519 33.2156C23.3714 33.0804 23.7146 33.0099 24.0615 33.0081C24.4084 33.0063 24.7522 33.0733 25.0731 33.2053C25.394 33.3372 25.6855 33.5314 25.9308 33.7767C26.1762 34.022 26.3705 34.3135 26.5025 34.6343C26.6345 34.9552 26.7015 35.299 26.6998 35.6459C26.6981 35.9928 26.6277 36.336 26.4926 36.6555C26.3574 36.975 26.1603 37.2646 25.9126 37.5075L24.4126 39.0075C24.1687 39.2519 23.8788 39.4456 23.5597 39.5774C23.2406 39.7092 22.8986 39.7765 22.5533 39.7755ZM24.0533 34.5255C23.9055 34.5254 23.7592 34.5545 23.6227 34.611C23.4861 34.6675 23.3621 34.7503 23.2576 34.8547L21.7576 36.3547C21.546 36.5658 21.427 36.8522 21.4266 37.151C21.4263 37.4499 21.5446 37.7366 21.7557 37.9481C21.9667 38.1597 22.2532 38.2787 22.552 38.2791C22.8508 38.2794 23.1375 38.161 23.3491 37.95L24.8491 36.45C25.0062 36.2926 25.1132 36.0922 25.1565 35.874C25.1999 35.6558 25.1775 35.4297 25.0923 35.2243C25.0072 35.0188 24.863 34.8432 24.6781 34.7196C24.4932 34.596 24.2757 34.53 24.0533 34.53V34.5255Z" fill="#6D4DF2"/>
</g>
<defs>
<clipPath id="clip0_517_12952">
<rect width="48" height="48" fill="white"/>
</clipPath>
</defs>
</svg>
