<svg width="102" height="34" viewBox="0 0 102 34" fill="none" xmlns="http://www.w3.org/2000/svg">
<g clip-path="url(#clip0_182_3670)">
<path d="M17.3229 16.7841C17.327 16.7921 17.3282 16.8013 17.3263 16.8101C17.3244 16.8189 17.3195 16.8268 17.3125 16.8325C17.3055 16.8381 17.2967 16.8411 17.2877 16.8411C17.2787 16.841 17.27 16.8379 17.263 16.8321C15.9268 15.6769 6.95686 7.76966 9.67694 5.93794C12.2004 4.24163 16.4043 6.07765 17.5408 6.63012C17.5548 6.6367 17.5661 6.64802 17.5726 6.66208C17.5792 6.67614 17.5805 6.69205 17.5765 6.70702C17.5725 6.722 17.5634 6.73509 17.5507 6.74399C17.538 6.7529 17.5226 6.75706 17.5071 6.75575C16.3648 6.69547 12.6148 6.66744 13.442 8.94094C14.306 11.3162 16.7804 15.8094 17.3229 16.7841Z" fill="#6D4DF2"/>
<path d="M17.5278 16.721C17.5268 16.7309 17.5219 16.7401 17.5142 16.7464C17.5065 16.7528 17.4966 16.7558 17.4866 16.7548C17.4767 16.7539 17.4675 16.749 17.4612 16.7413C17.4548 16.7335 17.4518 16.7236 17.4528 16.7137C17.3258 14.9462 16.5724 3.01667 19.7936 3.63826C22.7765 4.22378 24.4493 8.50217 24.8619 9.69849C24.8672 9.71299 24.8673 9.72889 24.8621 9.74343C24.8569 9.75798 24.8468 9.77026 24.8335 9.77813C24.8202 9.786 24.8046 9.78897 24.7894 9.78652C24.7741 9.78407 24.7602 9.77636 24.7501 9.76472C23.9831 8.918 21.3523 6.24457 20.3294 8.43486C19.2613 10.7221 17.8343 15.6489 17.5278 16.721Z" fill="#6D4DF2"/>
<path d="M17.7162 16.8229C17.7082 16.827 17.699 16.8282 17.6902 16.8263C17.6814 16.8244 17.6735 16.8196 17.6678 16.8125C17.6622 16.8055 17.6591 16.7967 17.6592 16.7877C17.6593 16.7787 17.6624 16.77 17.6681 16.763C18.8254 15.4273 26.7306 6.45689 28.5623 9.17697C30.2606 11.701 28.4226 15.9043 27.8702 17.0408C27.8636 17.0549 27.8523 17.0661 27.8382 17.0727C27.8241 17.0792 27.8082 17.0806 27.7933 17.0766C27.7783 17.0726 27.7652 17.0634 27.7563 17.0507C27.7474 17.038 27.7432 17.0226 27.7445 17.0072C27.8053 15.8629 27.8328 12.1149 25.5599 12.94C23.188 13.8071 18.6909 16.2804 17.7162 16.8229Z" fill="#6D4DF2"/>
<path d="M17.779 17.0277C17.769 17.0267 17.7599 17.0219 17.7535 17.0141C17.7472 17.0064 17.7442 16.9965 17.7451 16.9866C17.7461 16.9766 17.751 16.9675 17.7587 16.9611C17.7664 16.9548 17.7763 16.9517 17.7863 16.9527C19.5497 16.8246 31.4873 16.0734 30.8537 19.2914C30.2682 22.2743 25.9978 23.9492 24.7935 24.3596C24.779 24.365 24.7631 24.3651 24.7485 24.3599C24.734 24.3547 24.7217 24.3446 24.7138 24.3313C24.706 24.318 24.703 24.3024 24.7054 24.2872C24.7079 24.2719 24.7156 24.258 24.7272 24.2479C25.574 23.4809 28.2474 20.8501 26.0571 19.8272C23.7839 18.7628 18.851 17.3342 17.779 17.0277Z" fill="#6D4DF2"/>
<path d="M17.6774 17.2162C17.6733 17.2082 17.6721 17.199 17.674 17.1902C17.6759 17.1814 17.6807 17.1735 17.6878 17.1678C17.6948 17.1622 17.7035 17.1591 17.7126 17.1592C17.7216 17.1593 17.7303 17.1624 17.7373 17.1682C19.0729 18.3254 28.0434 26.2306 25.3233 28.0624C22.8013 29.7612 18.596 27.9226 17.4595 27.3702C17.4454 27.3636 17.4342 27.3523 17.4276 27.3382C17.4211 27.3242 17.4197 27.3082 17.4237 27.2933C17.4277 27.2783 17.4369 27.2652 17.4496 27.2563C17.4623 27.2474 17.4777 27.2432 17.4931 27.2445C18.6354 27.3048 22.3854 27.3329 21.5583 25.0594C20.6932 22.6881 18.2198 18.1909 17.6774 17.2162Z" fill="#6D4DF2"/>
<path d="M17.4722 17.2797C17.4727 17.2748 17.4742 17.27 17.4765 17.2656C17.4788 17.2613 17.482 17.2574 17.4858 17.2542C17.4896 17.2511 17.494 17.2487 17.4988 17.2473C17.5035 17.2459 17.5085 17.2454 17.5134 17.2458C17.5183 17.2463 17.5231 17.2478 17.5275 17.2501C17.5318 17.2524 17.5357 17.2556 17.5388 17.2594C17.542 17.2632 17.5443 17.2676 17.5458 17.2723C17.5472 17.2771 17.5477 17.282 17.5472 17.287C17.6753 19.0504 18.4265 30.988 15.2086 30.3544C12.2257 29.7689 10.5527 25.499 10.1403 24.2942C10.135 24.2797 10.1349 24.2638 10.1401 24.2492C10.1452 24.2347 10.1554 24.2224 10.1686 24.2145C10.1819 24.2067 10.1975 24.2037 10.2128 24.2062C10.228 24.2086 10.2419 24.2163 10.2521 24.2279C11.0191 25.0747 13.6499 27.7481 14.6728 25.5578C15.7331 23.2835 17.1658 18.3517 17.4722 17.2797Z" fill="#6D4DF2"/>
<path d="M17.2836 17.1774C17.2916 17.1733 17.3008 17.1721 17.3096 17.174C17.3184 17.1759 17.3263 17.1808 17.332 17.1878C17.3376 17.1948 17.3406 17.2036 17.3406 17.2126C17.3405 17.2216 17.3374 17.2303 17.3316 17.2373C16.1764 18.5735 8.26916 27.5434 6.43744 24.8233C4.7406 22.3018 6.57715 18.096 7.12961 16.9595C7.1362 16.9455 7.14751 16.9342 7.16157 16.9277C7.17563 16.9211 7.19154 16.9197 7.20652 16.9238C7.22149 16.9278 7.23458 16.9369 7.24349 16.9496C7.2524 16.9623 7.25656 16.9777 7.25525 16.9932C7.19497 18.1355 7.16694 21.8854 9.44044 21.0583C11.8157 20.1943 16.3089 17.7199 17.2836 17.1774Z" fill="#6D4DF2"/>
<path d="M17.2212 16.9727C17.2261 16.9731 17.2309 16.9746 17.2353 16.9769C17.2397 16.9792 17.2435 16.9824 17.2467 16.9862C17.2498 16.99 17.2522 16.9944 17.2536 16.9992C17.2551 17.0039 17.2556 17.0089 17.2551 17.0138C17.2546 17.0187 17.2532 17.0235 17.2508 17.0279C17.2485 17.0322 17.2453 17.0361 17.2415 17.0392C17.2377 17.0424 17.2333 17.0447 17.2286 17.0462C17.2238 17.0476 17.2189 17.0481 17.2139 17.0477C15.4465 17.1747 3.51693 17.928 4.13852 14.7068C4.72405 11.7239 9.0019 10.0531 10.1988 9.63858C10.2133 9.63325 10.2292 9.63317 10.2437 9.63834C10.2582 9.64352 10.2705 9.65363 10.2784 9.66691C10.2863 9.6802 10.2892 9.69582 10.2868 9.71107C10.2843 9.72631 10.2766 9.74022 10.265 9.75037C9.41826 10.5174 6.74483 13.1481 8.93513 14.171C11.2234 15.2352 16.1486 16.6682 17.2212 16.9727Z" fill="#6D4DF2"/>
</g>
<path d="M36.976 11.768C35.968 11.768 35.176 10.976 35.176 9.992C35.176 9.008 35.968 8.24 36.976 8.24C37.936 8.24 38.728 9.008 38.728 9.992C38.728 10.976 37.936 11.768 36.976 11.768ZM35.512 26V14.144H38.44V26H35.512ZM44.3931 26H41.4651V14.144H44.1771L44.4171 15.68C45.1611 14.48 46.6011 13.784 48.2091 13.784C51.1851 13.784 52.7211 15.632 52.7211 18.704V26H49.7931V19.4C49.7931 17.408 48.8091 16.448 47.2971 16.448C45.4971 16.448 44.3931 17.696 44.3931 19.616V26ZM54.4219 14.144H56.1259V12.704C56.1259 9.488 57.8299 8.144 60.3979 8.144C60.8539 8.144 61.4059 8.168 61.9099 8.264V10.76H60.8779C59.3899 10.76 59.0299 11.528 59.0299 12.704V14.144H61.8619V16.592H59.0299V26H56.1259V16.592H54.4219V14.144ZM72.6119 26H69.6839V14.144H72.3959L72.6359 15.68C73.3799 14.48 74.8199 13.784 76.4279 13.784C79.4039 13.784 80.9399 15.632 80.9399 18.704V26H78.0119V19.4C78.0119 17.408 77.0279 16.448 75.5159 16.448C73.7159 16.448 72.6119 17.696 72.6119 19.616V26ZM85.2807 11.768C84.2727 11.768 83.4807 10.976 83.4807 9.992C83.4807 9.008 84.2727 8.24 85.2807 8.24C86.2407 8.24 87.0327 9.008 87.0327 9.992C87.0327 10.976 86.2407 11.768 85.2807 11.768ZM83.8167 26V14.144H86.7447V26H83.8167ZM93.2978 26.312C90.7778 26.312 89.2418 24.848 89.2418 22.616C89.2418 20.432 90.8258 19.064 93.6338 18.848L97.1858 18.584V18.32C97.1858 16.712 96.2258 16.064 94.7378 16.064C93.0098 16.064 92.0498 16.784 92.0498 18.032H89.5538C89.5538 15.464 91.6658 13.784 94.8818 13.784C98.0738 13.784 100.042 15.512 100.042 18.8V26H97.4738L97.2578 24.248C96.7538 25.472 95.1458 26.312 93.2978 26.312ZM94.2578 24.104C96.0578 24.104 97.2098 23.024 97.2098 21.2V20.576L94.7378 20.768C92.9138 20.936 92.2178 21.536 92.2178 22.496C92.2178 23.576 92.9378 24.104 94.2578 24.104Z" fill="white"/>
<path d="M65.1948 11.768C64.1868 11.768 63.3948 10.976 63.3948 9.992C63.3948 9.008 64.1868 8.24 65.1948 8.24C66.1548 8.24 66.9468 9.008 66.9468 9.992C66.9468 10.976 66.1548 11.768 65.1948 11.768ZM63.7308 26V14.144H66.6588V26H63.7308Z" fill="#F3F4F6"/>
<defs>
<clipPath id="clip0_182_3670">
<rect width="27" height="27" fill="white" transform="translate(7.9541 0.46582) rotate(15)"/>
</clipPath>
</defs>
</svg>
