<svg width="48" height="48" viewBox="0 0 48 48" fill="none" xmlns="http://www.w3.org/2000/svg">
<g clip-path="url(#clip0_595_37548)">
<path d="M24 48C19.2533 48 14.6131 46.5924 10.6663 43.9553C6.71955 41.3181 3.6434 37.5698 1.8269 33.1844C0.0103987 28.799 -0.464881 23.9734 0.461164 19.3178C1.38721 14.6623 3.67299 10.3859 7.02945 7.02945C10.3859 3.67299 14.6623 1.38721 19.3178 0.461164C23.9734 -0.464881 28.799 0.0103987 33.1844 1.8269C37.5698 3.6434 41.3181 6.71955 43.9553 10.6663C46.5924 14.6131 48 19.2533 48 24C47.9929 30.363 45.462 36.4634 40.9627 40.9627C36.4634 45.462 30.363 47.9929 24 48ZM24 1.50001C19.5499 1.50001 15.1998 2.81961 11.4997 5.29194C7.79957 7.76428 4.91569 11.2783 3.21272 15.3896C1.50975 19.501 1.06417 24.025 1.93234 28.3895C2.80051 32.7541 4.94343 36.7632 8.09011 39.9099C11.2368 43.0566 15.2459 45.1995 19.6105 46.0677C23.9751 46.9358 28.4991 46.4903 32.6104 44.7873C36.7217 43.0843 40.2357 40.2004 42.7081 36.5003C45.1804 32.8002 46.5 28.4501 46.5 24C46.4933 18.0347 44.1206 12.3157 39.9025 8.09756C35.6844 3.87946 29.9653 1.50676 24 1.50001Z" fill="#6D4DF2"/>
<path d="M24.0018 48C17.6395 48 12.2268 40.3283 10.834 29.3438C10.8091 29.1463 10.8637 28.9471 10.9857 28.79C11.1078 28.6328 11.2872 28.5305 11.4846 28.5056C11.6821 28.4808 11.8813 28.5354 12.0384 28.6574C12.1956 28.7794 12.2979 28.9588 12.3228 29.1563C13.5948 39.2055 18.5065 46.5 24.0018 46.5C26.7595 46.5 29.4655 44.6603 31.6218 41.3205C31.6747 41.2367 31.7437 41.1643 31.8249 41.1074C31.906 41.0505 31.9976 41.0102 32.0944 40.9888C32.1912 40.9675 32.2912 40.9656 32.3887 40.9832C32.4863 41.0008 32.5793 41.0375 32.6626 41.0913C32.7458 41.145 32.8176 41.2148 32.8738 41.2964C32.9299 41.3781 32.9693 41.4701 32.9897 41.5671C33.01 41.664 33.011 41.7641 32.9925 41.8615C32.974 41.9588 32.9363 42.0515 32.8818 42.1343C30.4398 45.9165 27.286 48 24.0018 48Z" fill="#6D4DF2"/>
<path d="M36.0741 32.25C36.0276 32.2502 35.9811 32.2459 35.9354 32.2373C35.8385 32.2192 35.7461 32.1823 35.6635 32.1285C35.5809 32.0748 35.5097 32.0053 35.454 31.924C35.3982 31.8427 35.3591 31.7512 35.3387 31.6548C35.3184 31.5584 35.3172 31.4589 35.3354 31.362C35.7823 28.9336 36.0045 26.4692 35.9991 24C36.0037 21.5308 35.7808 19.0663 35.3331 16.638C35.315 16.5411 35.3161 16.4416 35.3364 16.3452C35.3568 16.2488 35.3959 16.1573 35.4516 16.076C35.564 15.9118 35.7371 15.799 35.9327 15.7624C36.1284 15.7258 36.3305 15.7684 36.4947 15.8808C36.576 15.9365 36.6456 16.0077 36.6994 16.0902C36.7532 16.1728 36.7902 16.2651 36.8084 16.362C37.2725 18.8814 37.5037 21.4382 37.4991 24C37.5037 26.5618 37.2725 29.1186 36.8084 31.638C36.7763 31.8095 36.6854 31.9644 36.5514 32.0761C36.4173 32.1878 36.2486 32.2493 36.0741 32.25Z" fill="#6D4DF2"/>
<path d="M11.5795 19.5C11.5476 19.5002 11.5158 19.4982 11.4842 19.494C11.2869 19.4691 11.1076 19.3669 10.9857 19.2098C10.8637 19.0527 10.8092 18.8536 10.834 18.6562C12.2267 7.67175 17.6395 0 24.0017 0C27.286 0 30.4397 2.0835 32.8817 5.86575C32.9363 5.94848 32.974 6.0412 32.9925 6.13855C33.011 6.23591 33.01 6.33597 32.9897 6.43295C32.9693 6.52994 32.9299 6.62192 32.8737 6.70359C32.8176 6.78526 32.7458 6.85499 32.6626 6.90875C32.5793 6.96252 32.4862 6.99925 32.3887 7.01683C32.2912 7.03441 32.1911 7.03249 32.0944 7.01117C31.9976 6.98985 31.906 6.94956 31.8249 6.89264C31.7437 6.83571 31.6747 6.76327 31.6217 6.6795C29.4655 3.33975 26.7595 1.5 24.0017 1.5C18.5065 1.5 13.5947 8.7945 12.3227 18.8438C12.2999 19.0248 12.2119 19.1914 12.075 19.3122C11.9382 19.433 11.762 19.4998 11.5795 19.5Z" fill="#6D4DF2"/>
<path d="M47.25 24.75H16.5C16.3011 24.75 16.1103 24.671 15.9697 24.5303C15.829 24.3897 15.75 24.1989 15.75 24C15.75 23.8011 15.829 23.6103 15.9697 23.4697C16.1103 23.329 16.3011 23.25 16.5 23.25H47.25C47.4489 23.25 47.6397 23.329 47.7803 23.4697C47.921 23.6103 48 23.8011 48 24C48 24.1989 47.921 24.3897 47.7803 24.5303C47.6397 24.671 47.4489 24.75 47.25 24.75Z" fill="#6D4DF2"/>
<path d="M6 24.75H0.75C0.551088 24.75 0.360322 24.671 0.21967 24.5303C0.0790176 24.3897 0 24.1989 0 24C0 23.8011 0.0790176 23.6103 0.21967 23.4697C0.360322 23.329 0.551088 23.25 0.75 23.25H6C6.19891 23.25 6.38968 23.329 6.53033 23.4697C6.67098 23.6103 6.75 23.8011 6.75 24C6.75 24.1989 6.67098 24.3897 6.53033 24.5303C6.38968 24.671 6.19891 24.75 6 24.75Z" fill="#6D4DF2"/>
<path d="M24.0012 13.5C17.5362 13.5 11.3787 12 7.10894 9.37497C7.01846 9.32688 6.93878 9.26076 6.87485 9.18068C6.81091 9.1006 6.76406 9.00827 6.73718 8.90938C6.71031 8.8105 6.70399 8.70715 6.71861 8.60573C6.73322 8.5043 6.76847 8.40695 6.82217 8.31968C6.87587 8.2324 6.94688 8.15706 7.03083 8.09829C7.11478 8.03953 7.20988 7.99859 7.31026 7.978C7.41064 7.95741 7.51418 7.95761 7.61448 7.97859C7.71478 7.99957 7.80972 8.04088 7.89344 8.09997C11.8744 10.5412 17.8962 12 24.0012 12C25.7238 12.0005 27.4445 11.8872 29.1522 11.661C29.2509 11.6456 29.3517 11.6501 29.4486 11.6742C29.5456 11.6983 29.6367 11.7415 29.7167 11.8013C29.7968 11.8611 29.864 11.9363 29.9146 12.0224C29.9651 12.1086 29.998 12.204 30.0112 12.303C30.0244 12.402 30.0176 12.5027 29.9914 12.5991C29.9651 12.6954 29.9199 12.7856 29.8583 12.8643C29.7968 12.943 29.7201 13.0085 29.6328 13.0572C29.5456 13.1058 29.4495 13.1365 29.3502 13.1475C27.5769 13.3827 25.79 13.5005 24.0012 13.5Z" fill="#6D4DF2"/>
<path d="M39.7499 9.92403C39.5836 9.92401 39.4221 9.86874 39.2907 9.76691C39.1592 9.66508 39.0654 9.52247 39.0238 9.36148C38.9822 9.2005 38.9954 9.03026 39.0611 8.87754C39.1268 8.72482 39.2414 8.59827 39.3869 8.51778C39.6334 8.38128 39.8734 8.24128 40.1069 8.09778C40.1906 8.03868 40.2856 7.99737 40.3859 7.9764C40.4862 7.95542 40.5897 7.95521 40.6901 7.9758C40.7905 7.99639 40.8856 8.03733 40.9695 8.09609C41.0535 8.15486 41.1245 8.2302 41.1782 8.31748C41.2319 8.40475 41.2671 8.50211 41.2817 8.60353C41.2964 8.70496 41.29 8.8083 41.2632 8.90719C41.2363 9.00607 41.1894 9.0984 41.1255 9.17848C41.0616 9.25856 40.9819 9.32468 40.8914 9.37278C40.6402 9.52803 40.3792 9.67953 40.1114 9.82728C40.0011 9.88986 39.8767 9.92317 39.7499 9.92403Z" fill="#6D4DF2"/>
<path d="M7.49838 40.0133C7.3353 40.0129 7.17678 39.9594 7.04683 39.8609C6.91689 39.7623 6.8226 39.6241 6.77826 39.4672C6.73391 39.3102 6.74193 39.1431 6.8011 38.9912C6.86026 38.8392 6.96735 38.7106 7.10613 38.625C11.3759 36 17.5334 34.5 23.9984 34.5C25.7872 34.4995 27.5741 34.6172 29.3474 34.8525C29.4467 34.8635 29.5428 34.8942 29.63 34.9428C29.7173 34.9915 29.794 35.057 29.8555 35.1357C29.9171 35.2144 29.9623 35.3045 29.9886 35.4009C30.0148 35.4973 30.0215 35.598 30.0084 35.697C29.9952 35.796 29.9623 35.8914 29.9118 35.9775C29.8612 36.0637 29.7939 36.1389 29.7139 36.1987C29.6339 36.2585 29.5428 36.3017 29.4458 36.3258C29.3489 36.3499 29.2481 36.3544 29.1494 36.339C27.4417 36.1127 25.721 35.9995 23.9984 36C17.8934 36 11.8716 37.4588 7.89063 39.9C7.77296 39.9735 7.63712 40.0127 7.49838 40.0133Z" fill="#6D4DF2"/>
<path d="M40.5014 40.0133C40.3631 40.0133 40.2275 39.9749 40.1099 39.9023C39.8764 39.7588 39.6364 39.6188 39.3899 39.4823C39.3003 39.4366 39.2208 39.3734 39.1561 39.2964C39.0914 39.2193 39.0429 39.1301 39.0134 39.0339C38.9839 38.9378 38.9741 38.8367 38.9845 38.7366C38.9949 38.6366 39.0253 38.5397 39.0739 38.4516C39.1225 38.3636 39.1883 38.2862 39.2674 38.2241C39.3465 38.162 39.4373 38.1165 39.5344 38.0902C39.6314 38.0639 39.7328 38.0574 39.8325 38.0711C39.9321 38.0847 40.028 38.1183 40.1144 38.1698C40.3821 38.3198 40.6431 38.4698 40.8944 38.6243C41.0335 38.7098 41.141 38.8385 41.2004 38.9906C41.2598 39.1428 41.2678 39.3103 41.2234 39.4675C41.1789 39.6247 41.0843 39.763 40.954 39.8616C40.8237 39.9601 40.6647 40.0134 40.5014 40.0133Z" fill="#6D4DF2"/>
<path d="M24 48C23.8011 48 23.6103 47.921 23.4697 47.7803C23.329 47.6397 23.25 47.4489 23.25 47.25V0.75C23.25 0.551088 23.329 0.360322 23.4697 0.21967C23.6103 0.0790176 23.8011 0 24 0C24.1989 0 24.3897 0.0790176 24.5303 0.21967C24.671 0.360322 24.75 0.551088 24.75 0.75V47.25C24.75 47.4489 24.671 47.6397 24.5303 47.7803C24.3897 47.921 24.1989 48 24 48Z" fill="#6D4DF2"/>
<path d="M34.5 15C33.7583 15 33.0333 14.7801 32.4166 14.368C31.7999 13.956 31.3193 13.3703 31.0355 12.6851C30.7516 11.9998 30.6774 11.2458 30.8221 10.5184C30.9668 9.79098 31.3239 9.1228 31.8484 8.59835C32.3728 8.0739 33.041 7.71675 33.7684 7.57206C34.4958 7.42736 35.2498 7.50162 35.9351 7.78545C36.6203 8.06928 37.206 8.54993 37.618 9.16661C38.0301 9.7833 38.25 10.5083 38.25 11.25C38.2488 12.2442 37.8533 13.1973 37.1503 13.9003C36.4473 14.6033 35.4942 14.9988 34.5 15ZM34.5 9C34.055 9 33.62 9.13196 33.25 9.3792C32.88 9.62643 32.5916 9.97783 32.4213 10.389C32.251 10.8001 32.2064 11.2525 32.2932 11.689C32.3801 12.1254 32.5943 12.5263 32.909 12.841C33.2237 13.1557 33.6246 13.37 34.061 13.4568C34.4975 13.5436 34.9499 13.499 35.361 13.3287C35.7722 13.1584 36.1236 12.87 36.3708 12.5C36.618 12.13 36.75 11.695 36.75 11.25C36.75 10.6533 36.5129 10.081 36.091 9.65901C35.669 9.23705 35.0967 9 34.5 9Z" fill="#6D4DF2"/>
<path d="M11.25 27.75C10.5083 27.75 9.7833 27.5301 9.16661 27.118C8.54993 26.706 8.06928 26.1203 7.78545 25.4351C7.50162 24.7498 7.42736 23.9958 7.57206 23.2684C7.71675 22.541 8.0739 21.8728 8.59835 21.3484C9.1228 20.8239 9.79098 20.4668 10.5184 20.3221C11.2458 20.1774 11.9998 20.2516 12.6851 20.5355C13.3703 20.8193 13.956 21.2999 14.368 21.9166C14.7801 22.5333 15 23.2583 15 24C14.9988 24.9942 14.6033 25.9473 13.9003 26.6503C13.1973 27.3533 12.2442 27.7488 11.25 27.75ZM11.25 21.75C10.805 21.75 10.37 21.882 9.99997 22.1292C9.62996 22.3764 9.34157 22.7278 9.17127 23.139C9.00098 23.5501 8.95642 24.0025 9.04323 24.439C9.13005 24.8754 9.34434 25.2763 9.65901 25.591C9.97368 25.9057 10.3746 26.12 10.811 26.2068C11.2475 26.2936 11.6999 26.249 12.111 26.0787C12.5222 25.9084 12.8736 25.62 13.1208 25.25C13.368 24.88 13.5 24.445 13.5 24C13.5 23.4033 13.2629 22.831 12.841 22.409C12.419 21.9871 11.8467 21.75 11.25 21.75Z" fill="#6D4DF2"/>
<path d="M34.5 40.5C33.7583 40.5 33.0333 40.2801 32.4166 39.868C31.7999 39.456 31.3193 38.8703 31.0355 38.1851C30.7516 37.4998 30.6774 36.7458 30.8221 36.0184C30.9668 35.291 31.3239 34.6228 31.8484 34.0984C32.3728 33.5739 33.041 33.2168 33.7684 33.0721C34.4958 32.9274 35.2498 33.0016 35.9351 33.2855C36.6203 33.5693 37.206 34.0499 37.618 34.6666C38.0301 35.2833 38.25 36.0083 38.25 36.75C38.2488 37.7442 37.8533 38.6973 37.1503 39.4003C36.4473 40.1033 35.4942 40.4988 34.5 40.5ZM34.5 34.5C34.055 34.5 33.62 34.632 33.25 34.8792C32.88 35.1264 32.5916 35.4778 32.4213 35.889C32.251 36.3001 32.2064 36.7525 32.2932 37.189C32.3801 37.6254 32.5943 38.0263 32.909 38.341C33.2237 38.6557 33.6246 38.87 34.061 38.9568C34.4975 39.0436 34.9499 38.999 35.361 38.8287C35.7722 38.6584 36.1236 38.37 36.3708 38C36.618 37.63 36.75 37.195 36.75 36.75C36.75 36.1533 36.5129 35.581 36.091 35.159C35.669 34.7371 35.0967 34.5 34.5 34.5Z" fill="#6D4DF2"/>
</g>
<defs>
<clipPath id="clip0_595_37548">
<rect width="48" height="48" fill="white"/>
</clipPath>
</defs>
</svg>
