<svg width="48" height="48" viewBox="0 0 48 48" fill="none" xmlns="http://www.w3.org/2000/svg">
<path d="M13.9137 23.601C14.8525 23.601 15.692 23.1684 16.2439 22.4923L21.5828 24.9513C21.5512 25.1257 21.5339 25.3049 21.5339 25.4882C21.5339 27.1465 22.8831 28.4958 24.5415 28.4958C26.1998 28.4958 27.5491 27.1465 27.5491 25.4882C27.5491 24.9862 27.4248 24.5128 27.2063 24.0964L36.9572 15.3095L36.8047 17.1787C36.7711 17.5914 37.0785 17.9535 37.4913 17.9872C37.5121 17.9888 37.5325 17.9897 37.5531 17.9897C37.9396 17.9897 38.2677 17.6927 38.2998 17.3006L38.615 13.4372C38.6332 13.213 38.55 12.9925 38.3881 12.8364C38.2264 12.6804 38.0042 12.605 37.7796 12.6314L33.93 13.0854C33.5186 13.134 33.2245 13.5067 33.273 13.9181C33.3215 14.3295 33.6942 14.6237 34.1058 14.5751L35.7463 14.3816L26.2021 22.9823C25.7258 22.6657 25.155 22.4808 24.5416 22.4808C23.6028 22.4808 22.7633 22.9133 22.2113 23.5895L16.8724 21.1305C16.904 20.9561 16.9213 20.7769 16.9213 20.5935C16.9213 18.9352 15.5721 17.5859 13.9137 17.5859C12.2554 17.5859 10.9061 18.9351 10.9061 20.5935C10.9061 20.8698 10.9443 21.1372 11.0144 21.3915L1.12705 27.0607C0.767709 27.2668 0.643491 27.7251 0.84946 28.0844C0.988116 28.3261 1.24087 28.4615 1.50083 28.4615C1.6273 28.4615 1.75555 28.4294 1.87321 28.3619L11.762 22.6916C12.3086 23.2522 13.071 23.601 13.9137 23.601ZM24.5415 23.9806C25.3728 23.9806 26.0491 24.6569 26.0491 25.4882C26.0491 26.3195 25.3728 26.9958 24.5415 26.9958C23.7102 26.9958 23.0339 26.3195 23.0339 25.4882C23.0339 24.6569 23.7102 23.9806 24.5415 23.9806ZM13.9137 19.0858C14.745 19.0858 15.4213 19.7621 15.4213 20.5934C15.4213 21.4247 14.745 22.101 13.9137 22.101C13.0824 22.101 12.4061 21.4247 12.4061 20.5934C12.4061 19.7621 13.0824 19.0858 13.9137 19.0858ZM39.8015 35.0381C39.8812 35.6943 39.7041 36.2945 39.2893 36.7741C38.8619 37.2682 38.1851 37.6141 37.4095 37.7495V38.1247C37.4095 38.5388 37.0737 38.8747 36.6595 38.8747C36.2453 38.8747 35.9095 38.5388 35.9095 38.1247V37.7373C34.716 37.4958 33.8002 36.6919 33.5211 35.5723C33.4209 35.1704 33.6654 34.7634 34.0673 34.6632C34.4695 34.5629 34.8763 34.8076 34.9765 35.2095C35.1858 36.0494 36.0578 36.3279 36.7397 36.312C37.3297 36.2979 37.8983 36.0893 38.1547 35.7929C38.2907 35.6357 38.3408 35.4532 38.3124 35.219C38.2636 34.817 38.0186 34.3245 36.5449 34.0825C34.3154 33.7164 33.7946 32.5513 33.7504 31.6384C33.6892 30.3802 34.5563 29.3273 35.9094 29.0144V28.6144C35.9094 28.2002 36.2452 27.8644 36.6594 27.8644C37.0736 27.8644 37.4094 28.2002 37.4094 28.6144V29.0077C38.2883 29.2004 39.1263 29.7558 39.5632 30.7964C39.7236 31.1783 39.544 31.6179 39.1621 31.7782C38.7806 31.9386 38.3406 31.7591 38.1802 31.3771C37.8255 30.5322 36.9581 30.3147 36.2558 30.4739C36.0807 30.5137 35.2091 30.7529 35.2486 31.5656C35.2591 31.7818 35.2869 32.3558 36.788 32.6024C38.628 32.9045 39.642 33.7239 39.8015 35.0381ZM36.6595 25.1051C32.1025 25.1051 28.3951 28.8125 28.3951 33.3695C28.3951 37.9265 32.1025 41.6339 36.6595 41.6339C41.2164 41.6339 44.9239 37.9266 44.9239 33.3695C44.924 28.8125 41.2165 25.1051 36.6595 25.1051ZM36.6595 40.1339C32.9296 40.1339 29.8951 37.0994 29.8951 33.3695C29.8951 29.6395 32.9296 26.6051 36.6595 26.6051C40.3894 26.6051 43.4239 29.6396 43.4239 33.3695C43.4239 37.0993 40.3894 40.1339 36.6595 40.1339ZM36.6595 22.7788C30.8197 22.7788 26.0688 27.5298 26.0688 33.3695C26.0688 39.2092 30.8197 43.9601 36.6595 43.9601C42.4992 43.9601 47.2502 39.2092 47.2502 33.3695C47.2502 27.5298 42.4992 22.7788 36.6595 22.7788ZM36.6595 42.4602C31.6468 42.4602 27.5688 38.3821 27.5688 33.3696C27.5688 28.357 31.6468 24.2789 36.6595 24.2789C41.6721 24.2789 45.7502 28.357 45.7502 33.3696C45.7502 38.3821 41.6721 42.4602 36.6595 42.4602ZM18.0085 34.951C19.5114 33.9198 20.4996 32.1903 20.4996 30.2339C20.4996 27.0811 17.9346 24.5161 14.7818 24.5161C11.629 24.5161 9.06402 27.0811 9.06402 30.2339C9.06402 32.1903 10.0521 33.9197 11.5551 34.9509C7.6588 36.1913 4.72349 39.6247 4.26721 43.8902C4.24452 44.1018 4.31277 44.313 4.45508 44.4713C4.5974 44.6296 4.80018 44.72 5.0129 44.72H24.5506C24.7634 44.72 24.9662 44.6296 25.1084 44.4712C25.2507 44.313 25.319 44.1018 25.2963 43.8902C24.8399 39.6249 21.9047 36.1915 18.0085 34.951ZM10.564 30.234C10.564 27.9082 12.4562 26.0162 14.7818 26.0162C17.1075 26.0162 18.9996 27.9082 18.9996 30.234C18.9996 32.5597 17.1075 34.4518 14.7818 34.4518C12.4562 34.4518 10.564 32.5597 10.564 30.234ZM5.8858 43.2201C6.72758 39.0222 10.4147 35.9518 14.7817 35.9518C19.1487 35.9518 22.8358 39.0222 23.6777 43.2201H5.8858ZM17.6505 16.3815H18.3006V19.0018C18.3006 19.3079 18.4866 19.5832 18.7705 19.6975C18.8614 19.7341 18.9562 19.7518 19.0504 19.7518C19.2507 19.7518 19.4471 19.6716 19.5914 19.5214L22.6078 16.3815H29.7689C31.0948 16.3815 32.1734 15.3028 32.1734 13.977V5.68453C32.1734 4.35862 31.0947 3.28003 29.7689 3.28003H17.6505C16.3246 3.28003 15.246 4.35872 15.246 5.68453V13.977C15.2459 15.3028 16.3246 16.3815 17.6505 16.3815ZM16.7459 5.68453C16.7459 5.18578 17.1516 4.78003 17.6504 4.78003H29.7688C30.2676 4.78003 30.6733 5.18578 30.6733 5.68453V13.977C30.6733 14.4757 30.2676 14.8815 29.7688 14.8815H22.2882C22.084 14.8815 21.8887 14.9647 21.7473 15.1119L19.8004 17.1385V15.6315C19.8004 15.2173 19.4646 14.8815 19.0504 14.8815H17.6503C17.1516 14.8815 16.7458 14.4757 16.7458 13.977L16.7459 5.68453ZM18.7816 6.85078C18.7816 6.43659 19.1174 6.10078 19.5316 6.10078H27.8877C28.3019 6.10078 28.6377 6.43659 28.6377 6.85078C28.6377 7.26497 28.3019 7.60078 27.8877 7.60078H19.5316C19.1174 7.60078 18.7816 7.26497 18.7816 6.85078ZM18.7816 9.83072C18.7816 9.41653 19.1174 9.08072 19.5316 9.08072H27.8877C28.3019 9.08072 28.6377 9.41653 28.6377 9.83072C28.6377 10.2449 28.3019 10.5807 27.8877 10.5807H19.5316C19.1174 10.5807 18.7816 10.245 18.7816 9.83072ZM18.7816 12.8107C18.7816 12.3965 19.1174 12.0607 19.5316 12.0607H27.8877C28.3019 12.0607 28.6377 12.3965 28.6377 12.8107C28.6377 13.2248 28.3019 13.5607 27.8877 13.5607H19.5316C19.1174 13.5607 18.7816 13.2249 18.7816 12.8107Z" fill="#6D4DF2"/>
</svg>
