<svg width="98" height="38" viewBox="0 0 98 38" fill="none" xmlns="http://www.w3.org/2000/svg">
<path fill-rule="evenodd" clip-rule="evenodd" d="M71.3867 12.7141C71.05 12.714 70.7269 12.8482 70.4887 13.0874C70.2505 13.3265 70.1165 13.6509 70.1164 13.9893C70.1162 14.3276 70.2499 14.6522 70.4878 14.8916C70.7258 15.1309 71.0487 15.2655 71.3855 15.2657C71.7224 15.2657 72.0454 15.1312 72.2838 14.8918C72.522 14.6524 72.6559 14.3278 72.6559 13.9893C72.6559 13.6508 72.522 13.3261 72.2838 13.0868C72.0454 12.8474 71.7224 12.7129 71.3855 12.7129L71.3867 12.7141ZM72.2619 16.2479H70.4919C70.4577 16.2482 70.4248 16.2621 70.4006 16.2866C70.3764 16.3111 70.3628 16.3442 70.3628 16.3787V24.1409C70.3628 24.2143 70.4202 24.2719 70.4919 24.2719H72.2632C72.2977 24.2719 72.3308 24.2581 72.3553 24.2334C72.3797 24.209 72.3934 24.1757 72.3934 24.1409V16.3787C72.3934 16.344 72.3797 16.3107 72.3553 16.2862C72.3308 16.2616 72.2977 16.2479 72.2632 16.2479H72.2619ZM76.1989 16.2552V16.0106C76.1989 15.2865 76.4753 14.9635 77.0949 14.9635C77.4639 14.9635 77.7597 15.0369 78.0932 15.1495C78.1127 15.1561 78.1336 15.158 78.1541 15.1548C78.1746 15.1517 78.1939 15.1437 78.2106 15.1315C78.2272 15.1192 78.2408 15.1032 78.25 15.0846C78.2592 15.066 78.2639 15.0455 78.2636 15.0247V13.5263C78.2634 13.4983 78.2545 13.4711 78.2378 13.4486C78.2211 13.4262 78.1978 13.4097 78.1711 13.4016C77.6939 13.2551 77.1971 13.1833 76.698 13.1887C75.0632 13.1887 74.1988 14.1147 74.1988 15.865V16.2417H73.3478C73.3136 16.2417 73.2807 16.2554 73.2561 16.2796C73.2318 16.3039 73.218 16.3369 73.2176 16.3714V17.9089C73.2176 17.9811 73.2761 18.0398 73.3478 18.0398H74.1988V24.1434C74.1988 24.2143 74.256 24.2731 74.3278 24.2731H76.0991C76.1335 24.2728 76.1663 24.2588 76.1905 24.2344C76.2146 24.2098 76.2282 24.1767 76.2282 24.1422V18.0386H77.8814L80.4148 24.1422C80.1274 24.782 79.845 24.9104 79.459 24.9104C79.1463 24.9104 78.8175 24.8162 78.4815 24.6314C78.466 24.6231 78.449 24.6179 78.4314 24.6162C78.4139 24.6145 78.3961 24.6164 78.3792 24.6217C78.3623 24.6275 78.3467 24.6368 78.3334 24.649C78.3203 24.6612 78.3097 24.6761 78.3025 24.6926L77.7024 26.0149C77.6885 26.0447 77.6863 26.0788 77.6966 26.1102C77.7067 26.1416 77.7285 26.1678 77.7572 26.1836C78.3842 26.525 78.9503 26.6705 79.6489 26.6705C80.9565 26.6705 81.6795 26.0589 82.3162 24.4113L85.3888 16.4338C85.3969 16.414 85.3999 16.3926 85.3977 16.3713C85.3955 16.3501 85.388 16.3298 85.3762 16.3121C85.3643 16.2944 85.3482 16.28 85.3293 16.2701C85.3106 16.2601 85.2896 16.255 85.2684 16.2552H83.4252C83.3984 16.2555 83.3723 16.2641 83.3506 16.2799C83.3287 16.2956 83.3123 16.3178 83.3036 16.3433L81.4142 21.7631L79.3447 16.3396C79.3354 16.3149 79.319 16.2936 79.2975 16.2785C79.2759 16.2634 79.2503 16.2553 79.2241 16.2552H76.1989ZM69.4097 16.2479H67.4619V14.2455C67.4619 14.2284 67.4585 14.2114 67.4519 14.1956C67.4453 14.1798 67.4358 14.1655 67.4236 14.1534C67.4116 14.1414 67.3972 14.1318 67.3814 14.1254C67.3657 14.119 67.3486 14.1157 67.3316 14.1159H65.5603C65.5263 14.1162 65.4936 14.13 65.4694 14.1542C65.4453 14.1785 65.4316 14.2113 65.4313 14.2455V16.2479H64.5792C64.5622 16.2479 64.5452 16.2513 64.5295 16.2579C64.5138 16.2644 64.4996 16.2741 64.4875 16.2863C64.4755 16.2984 64.466 16.3129 64.4596 16.3287C64.4532 16.3446 64.45 16.3616 64.4502 16.3787V17.9077C64.4502 17.9799 64.5086 18.0386 64.5792 18.0386H65.4313V21.9943C65.4313 23.5942 66.2226 24.4039 67.7857 24.4039C68.4211 24.4039 68.947 24.2731 69.4438 23.9905C69.4639 23.9792 69.4805 23.9626 69.492 23.9427C69.5036 23.9226 69.5097 23.8999 69.5095 23.8768V22.4212C69.5098 22.3989 69.5044 22.3768 69.4937 22.3572C69.4831 22.3377 69.4677 22.3211 69.4488 22.3093C69.4299 22.2975 69.4083 22.2908 69.3861 22.2898C69.3639 22.2888 69.3419 22.2936 69.3221 22.3038C68.9812 22.4762 68.6512 22.5557 68.2824 22.5557C67.7138 22.5557 67.4606 22.2976 67.4606 21.7166V18.0386H69.4085C69.4256 18.0387 69.4427 18.0355 69.4584 18.029C69.4744 18.0224 69.4887 18.0128 69.5009 18.0006C69.5131 17.9884 69.5226 17.9739 69.5292 17.958C69.5356 17.942 69.5389 17.9249 69.5387 17.9077V16.3787C69.5389 16.3616 69.5356 16.3446 69.5292 16.3287C69.5228 16.3129 69.5134 16.2984 69.5014 16.2863C69.4894 16.2741 69.4752 16.2644 69.4594 16.2579C69.4436 16.2513 69.4267 16.2479 69.4097 16.2479ZM60.0713 16.0852C57.6852 16.0852 55.814 17.9322 55.814 20.2892C55.814 22.6218 57.6719 24.448 60.0421 24.448C62.4366 24.448 64.3126 22.6083 64.3126 20.2599C64.3126 17.9187 62.4501 16.0852 60.0713 16.0852ZM60.0713 22.6438C58.8015 22.6438 57.8434 21.6188 57.8434 20.2586C57.8434 18.8948 58.7687 17.9053 60.0421 17.9053C61.3203 17.9053 62.282 18.9303 62.282 20.2904C62.282 21.6543 61.3532 22.6438 60.0713 22.6438ZM51.5326 16.0852C50.5343 16.0852 49.7163 16.4803 49.0418 17.2888V16.3787C49.0418 16.3442 49.0284 16.3111 49.0042 16.2866C48.98 16.2621 48.9472 16.2482 48.9128 16.2479H47.1415C47.1073 16.2482 47.0745 16.2621 47.0503 16.2866C47.0261 16.3111 47.0125 16.3442 47.0125 16.3787V26.4944C47.0125 26.5653 47.0709 26.6239 47.1415 26.6239H48.9128C48.947 26.6236 48.9797 26.61 49.0037 26.5857C49.0279 26.5614 49.0415 26.5286 49.0418 26.4944V23.3019C49.7176 24.0614 50.5356 24.4332 51.5326 24.4332C53.3854 24.4332 55.2614 22.9998 55.2614 20.2599C55.2614 17.52 53.3867 16.0852 51.5326 16.0852ZM53.2028 20.2599C53.2028 21.6543 52.347 22.6291 51.1224 22.6291C49.9111 22.6291 48.9981 21.6102 48.9981 20.2599C48.9981 18.9095 49.9111 17.8906 51.1224 17.8906C52.3275 17.8906 53.2041 18.8862 53.2041 20.2599H53.2028ZM42.9332 18.0459C40.9561 17.5713 40.6044 17.2386 40.6044 16.5402C40.6044 15.8797 41.2228 15.4357 42.1431 15.4357C43.0342 15.4357 43.9192 15.7721 44.8457 16.4668C44.8594 16.4771 44.875 16.4845 44.8917 16.4886C44.9085 16.4927 44.9258 16.4935 44.9427 16.4909C44.9597 16.4883 44.9759 16.4823 44.9906 16.4734C45.0053 16.4644 45.0181 16.4526 45.0283 16.4387L45.9948 15.07C46.0136 15.0429 46.0215 15.0098 46.017 14.9771C46.0125 14.9444 45.9958 14.9147 45.9705 14.8938C44.8675 14.0034 43.6247 13.5716 42.1723 13.5716C40.0358 13.5716 38.5446 14.8583 38.5446 16.7017C38.5446 18.6771 39.8313 19.3767 42.0555 19.9161C43.9472 20.354 44.2674 20.721 44.2674 21.3778C44.2674 22.1044 43.6222 22.5557 42.5812 22.5557C41.4272 22.5557 40.4863 22.1643 39.4319 21.2494C39.4055 21.2269 39.3716 21.2155 39.337 21.2176C39.3198 21.2189 39.3031 21.2237 39.2879 21.2317C39.2726 21.2397 39.259 21.2507 39.2481 21.2641L38.1647 22.5582C38.1427 22.584 38.1316 22.6175 38.1341 22.6515C38.1366 22.6854 38.1525 22.717 38.1781 22.7392C39.3718 23.8259 40.9268 24.4249 42.5375 24.4186C44.8383 24.4186 46.326 23.1552 46.326 21.2005C46.326 19.548 45.3435 18.6343 42.9332 18.0447V18.0459ZM23.1898 7.48999C20.1516 7.48999 17.2379 8.70265 15.0896 10.8612C12.9413 13.0197 11.7344 15.9473 11.7344 19C11.7344 22.0526 12.9413 24.9802 15.0896 27.1388C17.2379 29.2973 20.1516 30.51 23.1898 30.51C26.228 30.51 29.1418 29.2973 31.29 27.1388C33.4384 24.9802 34.6453 22.0526 34.6453 19C34.6453 15.9473 33.4384 13.0197 31.29 10.8612C29.1418 8.70265 26.228 7.48999 23.1898 7.48999ZM28.444 24.0909C28.3951 24.1715 28.3311 24.2416 28.2552 24.2973C28.1794 24.3528 28.0934 24.3929 28.0021 24.415C27.9108 24.4371 27.8161 24.4411 27.7233 24.4263C27.6305 24.4116 27.5417 24.3786 27.4615 24.3294C24.7712 22.6781 21.3869 22.305 17.3988 23.2199C17.3074 23.2409 17.2128 23.2436 17.1205 23.2278C17.0281 23.2121 16.9397 23.1781 16.8603 23.128C16.781 23.078 16.7122 23.0126 16.658 22.9359C16.6037 22.8591 16.5651 22.7723 16.5442 22.6805C16.5233 22.5887 16.5207 22.4937 16.5364 22.4008C16.5521 22.308 16.5858 22.2192 16.6356 22.1394C16.6855 22.0597 16.7505 21.9906 16.8269 21.9361C16.9033 21.8816 16.9897 21.8428 17.0811 21.8218C21.4441 20.8188 25.1875 21.2506 28.2066 23.105C28.5426 23.3117 28.6485 23.7533 28.444 24.0909ZM29.8439 20.9571C29.72 21.1596 29.5213 21.3044 29.2913 21.3599C29.0613 21.4154 28.8188 21.377 28.6168 21.2531C25.5381 19.351 20.844 18.8006 17.2016 19.9112C16.98 19.9641 16.7467 19.93 16.5492 19.816C16.3517 19.7019 16.205 19.5165 16.1388 19.2975C16.0727 19.0785 16.0922 18.8425 16.1933 18.6374C16.2944 18.4323 16.4695 18.2737 16.683 18.1939C20.844 16.9255 26.0153 17.5408 29.5505 19.7229C29.6507 19.7845 29.7377 19.8654 29.8067 19.9608C29.8758 20.0563 29.9254 20.1645 29.9528 20.2792C29.9801 20.394 29.9846 20.513 29.9662 20.6295C29.9478 20.746 29.9067 20.8577 29.8451 20.9583L29.8439 20.9571ZM29.967 17.6936C26.2734 15.4907 20.1817 15.2877 16.6574 16.3641C16.5222 16.4074 16.3797 16.4233 16.2383 16.4109C16.0969 16.3984 15.9593 16.3578 15.8336 16.2915C15.708 16.2252 15.5967 16.1344 15.5062 16.0245C15.4157 15.9145 15.3479 15.7876 15.3067 15.6511C15.2655 15.5147 15.2517 15.3713 15.2661 15.2294C15.2805 15.0875 15.3228 14.9499 15.3906 14.8246C15.4584 14.6992 15.5503 14.5887 15.661 14.4994C15.7717 14.4101 15.8989 14.3437 16.0353 14.3043C20.0807 13.0689 26.8078 13.3086 31.0577 15.843C31.302 15.9886 31.4788 16.2259 31.5493 16.5025C31.6196 16.7792 31.5776 17.0726 31.4326 17.3181C31.2877 17.5637 31.0515 17.7414 30.7763 17.812C30.5009 17.8827 30.2089 17.8405 29.9645 17.6949" fill="#1CD155"/>
</svg>
