<svg width="150" height="42" viewBox="0 0 150 42" fill="none" xmlns="http://www.w3.org/2000/svg">
<path d="M64.4253 13.125V28.875H61.6909V16.5156H61.6544L56.769 28.875H54.9461L49.9513 16.5156H49.9148V28.875H47.3993V13.125H51.3367L55.8575 24.7917H55.9305L60.7065 13.125H64.4253ZM66.6857 14.3281C66.6857 13.8906 66.8315 13.526 67.1596 13.2344C67.4878 12.9427 67.8523 12.7969 68.2898 12.7969C68.7638 12.7969 69.1648 12.9427 69.4565 13.2344C69.7482 13.526 69.9305 13.8906 69.9305 14.3281C69.9305 14.7656 69.7846 15.1302 69.4565 15.4219C69.1284 15.7135 68.7638 15.8594 68.2898 15.8594C67.8159 15.8594 67.4513 15.7135 67.1596 15.4219C66.868 15.0937 66.6857 14.7292 66.6857 14.3281ZM69.6388 17.5729V28.875H66.9773V17.5729H69.6388ZM77.6961 26.9427C78.0971 26.9427 78.5346 26.8698 79.0086 26.651C79.4825 26.4687 79.92 26.2135 80.3211 25.9219V28.401C79.8836 28.6562 79.4096 28.8385 78.8628 28.9479C78.3159 29.0572 77.7325 29.1302 77.0763 29.1302C75.3992 29.1302 74.0503 28.6198 73.0294 27.5625C71.9721 26.5052 71.4617 25.1562 71.4617 23.5521C71.4617 21.7292 72.0086 20.2344 73.0659 19.0677C74.1232 17.901 75.618 17.3177 77.5867 17.3177C78.0971 17.3177 78.6075 17.3906 79.0815 17.5C79.5919 17.6094 79.993 17.7917 80.2846 17.9375V20.4895C79.8836 20.1979 79.4461 19.9427 79.045 19.7969C78.6075 19.651 78.17 19.5417 77.7325 19.5417C76.6753 19.5417 75.8367 19.8697 75.1805 20.5625C74.5242 21.2552 74.2325 22.1667 74.2325 23.3333C74.2325 24.4635 74.5607 25.375 75.1805 25.9948C75.8003 26.6146 76.6388 26.9427 77.6961 26.9427ZM87.868 17.3906C88.0867 17.3906 88.269 17.3906 88.4513 17.4271C88.6336 17.4635 88.7794 17.5 88.8888 17.5364V20.2344C88.743 20.125 88.5607 20.0156 88.269 19.9427C87.9773 19.8697 87.6857 19.7969 87.2846 19.7969C86.6284 19.7969 86.0815 20.0885 85.644 20.6354C85.2065 21.1823 84.9513 22.0208 84.9513 23.1875V28.875H82.2898V17.5729H84.9513V19.3594H84.9878C85.243 18.7396 85.6075 18.2656 86.0815 17.901C86.5919 17.5729 87.1753 17.3906 87.868 17.3906ZM89.0346 23.4062C89.0346 21.5468 89.5815 20.0521 90.6023 18.9583C91.6596 17.8646 93.118 17.3177 94.9773 17.3177C96.7273 17.3177 98.1128 17.8281 99.0971 18.8854C100.082 19.9427 100.592 21.3646 100.592 23.151C100.592 24.9739 100.045 26.4323 99.0242 27.526C97.9669 28.6198 96.5451 29.1667 94.7221 29.1667C92.9721 29.1667 91.5867 28.6562 90.5659 27.6354C89.545 26.5781 89.0346 25.1562 89.0346 23.4062ZM91.8055 23.2968C91.8055 24.4635 92.0607 25.375 92.6075 25.9948C93.1544 26.6146 93.9201 26.9427 94.9044 26.9427C95.8523 26.9427 96.618 26.651 97.1284 25.9948C97.6388 25.375 97.894 24.4635 97.894 23.2239C97.894 22.0208 97.6388 21.1094 97.1284 20.4531C96.618 19.8333 95.8523 19.5052 94.9409 19.5052C93.9565 19.5052 93.2273 19.8333 92.6805 20.4895C92.0607 21.1822 91.8055 22.0937 91.8055 23.2968ZM104.566 20.5625C104.566 20.927 104.675 21.2552 104.93 21.4739C105.186 21.6927 105.696 21.9479 106.535 22.276C107.592 22.7135 108.358 23.1875 108.759 23.6979C109.196 24.2448 109.415 24.8646 109.415 25.6302C109.415 26.6875 109.014 27.526 108.175 28.1823C107.373 28.8385 106.243 29.1302 104.858 29.1302C104.384 29.1302 103.873 29.0572 103.29 28.9479C102.707 28.8385 102.233 28.6927 101.832 28.5104V25.8854C102.305 26.2135 102.852 26.5052 103.399 26.6875C103.946 26.8697 104.457 26.9792 104.93 26.9792C105.514 26.9792 105.988 26.9062 106.243 26.7239C106.535 26.5417 106.68 26.2864 106.68 25.8854C106.68 25.5208 106.535 25.2291 106.243 24.9375C105.951 24.6822 105.368 24.3906 104.566 24.0625C103.582 23.6614 102.889 23.1874 102.488 22.677C102.087 22.1666 101.868 21.5104 101.868 20.7083C101.868 19.6875 102.269 18.8489 103.071 18.1927C103.873 17.5364 104.93 17.2083 106.207 17.2083C106.608 17.2083 107.045 17.2448 107.519 17.3542C107.993 17.4635 108.43 17.5729 108.759 17.6823V20.2708C108.394 20.0521 107.993 19.8333 107.519 19.651C107.045 19.4687 106.571 19.3958 106.134 19.3958C105.623 19.3958 105.222 19.5052 104.967 19.6875C104.712 19.9427 104.566 20.1979 104.566 20.5625ZM110.545 23.4062C110.545 21.5468 111.092 20.0521 112.113 18.9583C113.17 17.8646 114.628 17.3177 116.488 17.3177C118.238 17.3177 119.623 17.8281 120.608 18.8854C121.592 19.9427 122.102 21.3646 122.102 23.151C122.102 24.9739 121.555 26.4323 120.535 27.526C119.477 28.6198 118.055 29.1667 116.233 29.1667C114.483 29.1667 113.097 28.6562 112.076 27.6354C111.092 26.5781 110.545 25.1562 110.545 23.4062ZM113.316 23.2968C113.316 24.4635 113.571 25.375 114.118 25.9948C114.665 26.6146 115.43 26.9427 116.415 26.9427C117.363 26.9427 118.128 26.651 118.639 25.9948C119.149 25.375 119.404 24.4635 119.404 23.2239C119.404 22.0208 119.149 21.1094 118.639 20.4531C118.128 19.8333 117.363 19.5052 116.451 19.5052C115.467 19.5052 114.738 19.8333 114.191 20.4895C113.608 21.1822 113.316 22.0937 113.316 23.2968ZM130.962 19.7604H126.988V28.875H124.29V19.7604H122.394V17.5729H124.29V16.0052C124.29 14.8385 124.691 13.8542 125.457 13.0885C126.222 12.3229 127.207 11.9583 128.41 11.9583C128.738 11.9583 129.029 11.9948 129.285 11.9948C129.54 11.9948 129.759 12.0677 129.941 12.1406V14.4375C129.868 14.401 129.686 14.3281 129.467 14.2552C129.248 14.1823 128.993 14.1458 128.701 14.1458C128.154 14.1458 127.717 14.3281 127.425 14.6562C127.134 14.9844 126.988 15.5312 126.988 16.1875V17.5364H130.962V14.9844L133.623 14.1823V17.5364H136.321V19.7239H133.623V25.0104C133.623 25.7031 133.769 26.1771 133.988 26.4687C134.243 26.7604 134.644 26.9062 135.191 26.9062C135.337 26.9062 135.519 26.8698 135.738 26.7969C135.957 26.7239 136.139 26.651 136.285 26.5417V28.7292C136.102 28.8385 135.847 28.9114 135.446 28.9844C135.045 29.0573 134.68 29.0937 134.279 29.0937C133.149 29.0937 132.311 28.802 131.764 28.2187C131.217 27.6354 130.925 26.7239 130.925 25.5208L130.962 19.7604Z" fill="#737373"/>
<path d="M25.7065 7.875H13.2378V20.3438H25.7065V7.875Z" fill="#F25022"/>
<path d="M39.4877 7.875H27.0189V20.3438H39.4877V7.875Z" fill="#7FBA00"/>
<path d="M25.7065 21.6562H13.2378V34.125H25.7065V21.6562Z" fill="#00A4EF"/>
<path d="M39.4877 21.6562H27.0189V34.125H39.4877V21.6562Z" fill="#FFB900"/>
</svg>
