<svg width="128" height="42" viewBox="0 0 128 42" fill="none" xmlns="http://www.w3.org/2000/svg">
<path d="M13.125 4.59375H35V15.5312H24.0625L13.125 4.59375ZM13.125 15.5312H24.0625L35 26.4688H13.125V15.5312ZM13.125 26.4688H24.0625V37.4062L13.125 26.4688Z" fill="#111827"/>
<path d="M47.3426 13.2224H56.1849V16.0322H50.6894V19.9369H56.1849V22.6847H50.6894V27.6843H47.3426V13.2224ZM58.0029 17.7261H61.164V19.8128C61.3291 19.0957 61.6669 18.5453 62.1763 18.1599C62.6987 17.7601 63.2787 17.5609 63.9117 17.5609C64.2425 17.5609 64.5182 17.589 64.7379 17.6435V20.5774C64.4227 20.5394 64.1054 20.5189 63.7876 20.5154C62.9199 20.5154 62.2664 20.7971 61.825 21.3621C61.3852 21.913 61.164 22.7392 61.164 23.8416V27.6843H58.0044V17.7261H58.0029ZM69.728 27.953C68.7642 27.953 67.9235 27.7253 67.2074 27.2709C66.5049 26.8166 65.9464 26.1715 65.5961 25.4114C65.2243 24.6132 65.0372 23.71 65.0372 22.7052C65.0372 21.7134 65.2313 20.8176 65.6166 20.0195C65.9779 19.2483 66.5514 18.5963 67.2695 18.1394C67.9986 17.685 68.8323 17.4574 69.7696 17.4574C70.4716 17.4574 71.0992 17.6095 71.6496 17.9122C72.2001 18.216 72.6134 18.6293 72.8891 19.1517V17.7261H76.0292V27.6843H72.8891V26.2791C72.6134 26.775 72.1866 27.1809 71.6081 27.4981C71.0296 27.8049 70.3831 27.961 69.728 27.953ZM70.6373 25.3288C71.3944 25.3288 71.9799 25.0811 72.3932 24.5852C72.8066 24.0893 73.0132 23.4623 73.0132 22.7052C73.0132 21.9616 72.8066 21.3416 72.3932 20.8456C71.9799 20.3497 71.3944 20.102 70.6373 20.102C69.9202 20.102 69.3427 20.3427 68.9018 20.8251C68.475 21.3075 68.2613 21.9335 68.2613 22.7052C68.2613 23.4768 68.475 24.1098 68.9018 24.6057C69.3427 25.0881 69.9212 25.3288 70.6373 25.3288ZM78.24 17.7261H81.4011V19.1723C81.6223 18.6618 81.9796 18.2485 82.475 17.9327C82.9854 17.617 83.5774 17.4574 84.252 17.4574C85.8223 17.4574 86.8626 18.0699 87.3715 19.2964C87.6518 18.7404 88.0901 18.2805 88.6321 17.9743C89.2116 17.6255 89.8771 17.4468 90.5532 17.4574C92.9086 17.4574 94.0861 18.8065 94.0861 21.5067V27.6843H90.9044V22.0852C90.9044 21.4111 90.7803 20.9152 90.5326 20.5979C90.2844 20.2817 89.9126 20.1225 89.4167 20.1225C88.8798 20.1225 88.4664 20.3087 88.1772 20.6805C87.888 21.0388 87.7433 21.6648 87.7433 22.5606V27.6843H84.5617V22.0646C84.5617 21.3901 84.4381 20.9007 84.1899 20.5979C83.9567 20.2817 83.5909 20.1225 83.096 20.1225C82.5446 20.1225 82.1242 20.3087 81.835 20.6805C81.5457 21.0388 81.4011 21.6648 81.4011 22.5606V27.6843H78.241V17.7261H78.24ZM105.961 22.1887C105.961 22.6151 105.933 23.077 105.877 23.5729H98.5232C98.5512 24.2204 98.7709 24.7153 99.1843 25.0606C99.5976 25.4044 100.157 25.577 100.858 25.577C101.836 25.577 102.456 25.2803 102.717 24.6883H105.816C105.664 25.6666 105.127 26.4578 104.204 27.0643C103.296 27.6562 102.18 27.953 100.858 27.953C99.1502 27.953 97.8071 27.4911 96.8288 26.5684C95.865 25.6451 95.3826 24.358 95.3826 22.7052C95.3826 21.6308 95.6028 20.701 96.0437 19.9159C96.4695 19.1317 97.1261 18.4972 97.9237 18.0979C98.7369 17.6715 99.6802 17.4574 100.756 17.4574C101.774 17.4574 102.676 17.657 103.461 18.0568C104.259 18.4567 104.873 19.0141 105.299 19.7302C105.741 20.4473 105.961 21.2665 105.961 22.1887ZM102.84 21.6103C102.826 20.9492 102.641 20.4458 102.282 20.102C101.925 19.7582 101.407 19.5856 100.733 19.5856C100.058 19.5856 99.521 19.7713 99.1212 20.1436C98.7359 20.5019 98.5362 20.9903 98.5217 21.6103H102.84ZM107.354 17.7261H110.516V19.8128C110.681 19.0957 111.018 18.5453 111.528 18.1599C112.022 17.7706 112.634 17.5594 113.263 17.5609C113.594 17.5609 113.87 17.589 114.09 17.6435V20.5774C113.774 20.5394 113.457 20.5189 113.139 20.5154C112.272 20.5154 111.618 20.7971 111.177 21.3621C110.735 21.913 110.516 22.7392 110.516 23.8416V27.6843H107.354V17.7261Z" fill="#111827"/>
</svg>
