<svg width="125" height="42" viewBox="0 0 125 42" fill="none" xmlns="http://www.w3.org/2000/svg">
<path d="M27.2131 32.433C25.752 32.6896 24.2651 32.7665 22.7271 32.9714L18.0358 19.2313V33.5611C16.5747 33.7149 15.2417 33.9199 13.8574 34.125V7.875H17.754L23.0859 22.769V7.875H27.2131V32.433ZM35.2881 17.488C36.8776 17.488 39.3128 17.4111 40.774 17.4111V21.5126C38.9538 21.5126 36.8262 21.5126 35.2881 21.5895V27.6907C37.6979 27.5369 40.1075 27.3317 42.5427 27.2547V31.2023L31.1864 32.0997V7.875H42.5427V11.9766H35.2881V17.488ZM57.7954 11.9767H53.54V30.8438C52.1557 30.8438 50.7714 30.8438 49.4387 30.8949V11.9767H45.1833V7.875H57.7955L57.7954 11.9767ZM64.4604 17.2061H70.0745V21.3076H64.4604V30.6131H60.4354V7.875H71.8945V11.9766H64.4604V17.2061ZM78.5595 27.0242C80.8923 27.0753 83.2506 27.255 85.5322 27.383V31.4333C81.8665 31.2025 78.2007 30.9721 74.458 30.8949V7.875H78.5595V27.0242ZM88.9928 31.7153C90.3002 31.7924 91.6845 31.8693 93.0175 32.0229V7.875H88.9928V31.7153ZM110.988 7.875L105.784 20.3592L110.988 34.125C109.449 33.9199 107.911 33.6379 106.373 33.3815L103.425 25.7938L100.426 32.7665C98.9392 32.5099 97.5037 32.433 96.0171 32.2279L101.298 20.2052L96.5296 7.875H100.939L103.63 14.7708L106.501 7.875H110.988V7.875Z" fill="#D81F26"/>
</svg>
