<svg width="102" height="32" viewBox="0 0 102 32" fill="none" xmlns="http://www.w3.org/2000/svg">
<path d="M36.2662 21.8153L37.2449 19.5277C38.3166 20.3213 39.7144 20.7414 41.1125 20.7414C42.1376 20.7414 42.7899 20.3447 42.7899 19.7379C42.7665 18.0571 36.6157 19.3643 36.5689 15.1385C36.5455 12.9909 38.4562 11.3335 41.1592 11.3335C42.7665 11.3335 44.3745 11.7305 45.5159 12.6411L44.6014 14.9775C43.5511 14.3022 42.2539 13.8313 41.0193 13.8313C40.1805 13.8313 39.6211 14.228 39.6211 14.7419C39.6445 16.3993 45.8424 15.4888 45.9123 19.5277C45.9123 21.7221 44.048 23.2629 41.3918 23.2629C39.435 23.2629 37.6413 22.7961 36.2662 21.8153ZM75.2382 18.6993C74.9911 19.1383 74.6317 19.5036 74.1969 19.7579C73.7621 20.0121 73.2675 20.1461 72.7638 20.1462C71.1939 20.1462 69.9214 18.8711 69.9214 17.2982C69.9214 15.7253 71.1939 14.4502 72.7638 14.4502C73.2675 14.4502 73.7621 14.5843 74.1969 14.8385C74.6317 15.0927 74.9911 15.4581 75.2382 15.8971L77.9592 14.3867C76.94 12.5652 74.9959 11.3335 72.7638 11.3335C69.476 11.3335 66.8108 14.0037 66.8108 17.2982C66.8108 20.5923 69.476 23.2629 72.7638 23.2629C74.9959 23.2629 76.94 22.0312 77.9592 20.2097L75.2382 18.6993ZM47.678 23.0293H51.0796V6.36829H47.6783L47.678 23.0293ZM79.6771 6.36829V23.0293H83.0788V18.0377L87.1097 23.0293H91.4579L86.3318 17.0994L91.0849 11.5661H86.9233L83.0788 16.1664V6.36829H79.6771ZM61.5598 11.5668V12.9211C61.0008 11.9871 59.626 11.3335 58.1815 11.3335C55.1991 11.3335 52.846 13.9717 52.846 17.2865C52.846 20.6013 55.1991 23.2629 58.1815 23.2629C59.626 23.2629 61.0008 22.6092 61.5598 21.6753V23.0293H64.9615V11.5668H61.5598ZM61.5598 18.7224C61.0706 19.5394 60.0454 20.1459 58.9039 20.1459C57.3338 20.1459 56.0613 18.8711 56.0613 17.2982C56.0613 15.7253 57.3338 14.4502 58.9039 14.4502C60.0454 14.4502 61.0706 15.0804 61.5598 15.9205V18.7224Z" fill="black"/>
<path d="M18.3016 6C17.1992 6 16.3057 6.89554 16.3057 7.99993C16.3054 8.26229 16.3568 8.52215 16.457 8.76465C16.5572 9.00715 16.7041 9.22754 16.8894 9.41326C17.0748 9.59897 17.2949 9.74636 17.5372 9.847C17.7795 9.94765 18.0392 9.99959 18.3016 9.99985H20.2978V7.99993C20.2983 7.47001 20.0882 6.96163 19.7139 6.58657C19.3395 6.21153 18.8315 6.00053 18.3016 6ZM18.3016 11.3331H12.9788C11.8764 11.3331 10.9829 12.2287 10.9829 13.3334C10.9829 14.4378 11.8764 15.3333 12.9788 15.3333H18.3019C19.404 15.3333 20.2978 14.4378 20.2978 13.3334C20.2978 12.2287 19.404 11.3331 18.3016 11.3331Z" fill="#2FBDEE"/>
<path d="M30.9434 13.3334C30.9434 12.2287 30.0495 11.3331 28.9471 11.3331C27.8447 11.3331 26.9513 12.2287 26.9513 13.3334V15.3333H28.9471C29.4771 15.3328 29.985 15.1218 30.3594 14.7468C30.7338 14.3717 30.9438 13.8633 30.9434 13.3334ZM25.6206 13.3334V7.99993C25.621 7.47001 25.411 6.96163 25.0366 6.58657C24.6623 6.21153 24.1543 6.00053 23.6243 6C22.5219 6 21.6285 6.89554 21.6285 7.99993V13.3331C21.6285 14.4381 22.5219 15.3337 23.6243 15.3337C24.1543 15.3331 24.6623 15.1221 25.0366 14.7471C25.411 14.372 25.621 13.8633 25.6206 13.3334Z" fill="#29AD72"/>
<path d="M23.6243 26C24.1543 25.9995 24.6623 25.7885 25.0366 25.4134C25.411 25.0384 25.621 24.53 25.6206 24.0001C25.621 23.4702 25.411 22.9618 25.0366 22.5867C24.6623 22.2117 24.1543 22.0007 23.6243 22.0002H21.6285V24.0001C21.6285 25.1045 22.5219 26 23.6243 26ZM23.6243 20.6669H28.9474C30.0495 20.6669 30.9434 19.7714 30.9434 18.6667C30.9438 18.1367 30.7338 17.6283 30.3594 17.2533C29.985 16.8783 29.4771 16.6673 28.9471 16.6667H23.6243C22.5219 16.6667 21.6285 17.5623 21.6285 18.6667C21.6281 18.929 21.6796 19.1888 21.7798 19.4313C21.8799 19.6739 22.0269 19.8942 22.2122 20.08C22.3976 20.2656 22.6176 20.413 22.86 20.5137C23.1023 20.6143 23.362 20.6666 23.6243 20.6669Z" fill="#E9A929"/>
<path d="M10.9829 18.6667C10.9826 18.929 11.0341 19.1888 11.1342 19.4313C11.2344 19.6739 11.3813 19.8942 11.5667 20.08C11.752 20.2656 11.9721 20.413 12.2144 20.5137C12.4567 20.6143 12.7165 20.6663 12.9788 20.6665C13.5087 20.666 14.0167 20.455 14.3911 20.08C14.7655 19.7049 14.9755 19.1965 14.9751 18.6667V16.6667H12.9788C11.8764 16.6667 10.9829 17.5623 10.9829 18.6667ZM16.3057 18.6667V23.9998C16.3057 25.1045 17.1992 26 18.3016 26C18.8315 25.9995 19.3395 25.7885 19.7139 25.4134C20.0882 25.0384 20.2983 24.53 20.2978 24.0001V18.6667C20.2981 18.4043 20.2467 18.1443 20.1465 17.9018C20.0464 17.6593 19.8993 17.4389 19.714 17.2532C19.5286 17.0674 19.3085 16.9201 19.0661 16.8195C18.8238 16.7188 18.564 16.6669 18.3016 16.6667C17.1992 16.6667 16.3057 17.5623 16.3057 18.6667Z" fill="#DC1C50"/>
</svg>
