<svg width="132" height="32" viewBox="0 0 132 32" fill="none" xmlns="http://www.w3.org/2000/svg">
<path fill-rule="evenodd" clip-rule="evenodd" d="M61.4318 19.5474C60.6528 19.7271 60.2498 19.4874 60.2498 18.9714C60.2498 18.2645 60.9808 17.9815 62.0251 17.9815C62.4844 17.9815 62.9178 18.0211 62.9178 18.0211C62.9178 18.3238 62.2601 19.3564 61.4318 19.5474ZM62.2244 12.4692C59.7308 12.4692 57.9405 13.3861 57.9405 13.3861V16.0818C57.9405 16.0818 59.9171 14.9455 61.5208 14.9455C62.8001 14.9455 62.9574 15.6358 62.8994 16.2085C62.8994 16.2085 62.5301 16.1108 61.4041 16.1108C58.7498 16.1108 57.4105 17.3171 57.4105 19.2511C57.4105 21.0858 58.9158 21.8524 60.1844 21.8524C62.0351 21.8524 62.8491 20.6084 63.0988 20.0184C63.2724 19.6091 63.3044 19.3331 63.4598 19.3331C63.6381 19.3331 63.5781 19.5311 63.5691 19.9384C63.5544 20.6521 63.5884 21.1914 63.7014 21.6461H66.1557V17.2315C66.1557 14.4751 65.1804 12.4692 62.2244 12.4692Z" fill="#111827"/>
<path fill-rule="evenodd" clip-rule="evenodd" d="M78.378 17.1653C78.378 16.3589 79.1276 15.6246 80.5036 15.6246C82.0026 15.6246 83.2089 16.3466 83.4793 16.5106V13.39C83.4793 13.39 82.5266 12.4726 80.185 12.4726C77.7166 12.4726 75.661 13.9169 75.661 17.0259C75.661 20.1346 77.5266 21.8586 80.1783 21.8586C82.25 21.8586 83.4846 20.7202 83.4846 20.7202V17.7566C83.0939 17.9749 82.0056 18.7306 80.5186 18.7306C78.9443 18.7306 78.378 18.0059 78.378 17.1653ZM45.5748 12.677C45.5751 12.679 45.7315 13.3496 45.5255 14.2266C45.4205 14.6726 45.2275 15.0519 45.4605 15.0519C45.6211 15.0519 45.6215 14.9186 45.8305 14.4406C46.1361 13.742 46.7805 12.4703 48.2861 12.4703C49.7175 12.4703 50.3918 13.34 50.6151 14.1543C50.7851 14.7729 50.6364 15.0519 50.8438 15.0519C50.9911 15.0519 51.0421 14.7309 51.2234 14.3249C51.5491 13.5976 52.2574 12.4703 53.6901 12.4703C55.8518 12.4703 56.6771 14.0313 56.6771 16.3729V21.6492H53.4658V16.7849C53.4658 15.9739 53.3348 15.1873 52.5954 15.1873C51.9104 15.1873 51.5911 16.4013 51.5911 17.1849V21.6512H48.3208V16.7853C48.3208 15.7476 48.1745 15.1876 47.4451 15.1876C46.8138 15.1876 46.4455 16.3046 46.4455 17.1853V21.6496H43.1882V12.677H45.5748ZM67.2247 12.6893C67.226 12.69 67.7804 13.0096 68.8564 13.0096C69.9343 13.0096 70.4817 12.6893 70.4817 12.6893V21.6516H67.2247V12.6893ZM94.1142 12.6893C94.1155 12.69 94.6699 13.0096 95.7462 13.0096C96.8239 13.0096 97.3715 12.6893 97.3715 12.6893V21.6516H94.1142V12.6893ZM74.793 9.96064V21.6516H71.5357V9.96064H74.793ZM87.3503 9.96064C87.3506 9.96164 87.4853 10.2976 87.4853 11.297C87.4853 12.7726 87.1643 13.9736 87.0126 14.4313C86.9323 14.6736 86.7889 15.0476 86.9946 15.0543C87.1133 15.0579 87.1846 14.8793 87.3299 14.5693C87.4746 14.2589 88.1919 12.4723 90.0772 12.4723C92.6742 12.4723 93.0562 14.5989 93.0562 16.9019V21.6512H89.7989V16.7069C89.7989 15.6929 89.5862 15.1893 88.9066 15.1893C88.0859 15.1893 87.7959 16.4599 87.7959 17.1873V21.6512H84.5386V9.96031L87.3503 9.96064ZM100.859 12.677C100.859 12.679 101.015 13.3496 100.809 14.2266C100.704 14.6726 100.511 15.0519 100.744 15.0519C100.905 15.0519 100.905 14.9186 101.114 14.4406C101.42 13.742 102.064 12.4703 103.57 12.4703C105.066 12.4703 105.66 13.344 105.899 14.1543C106.059 14.6973 105.92 15.0519 106.127 15.0519C106.275 15.0519 106.326 14.7309 106.507 14.3249C106.832 13.5976 107.541 12.4703 108.974 12.4703C111.135 12.4703 111.961 14.0313 111.961 16.3729V21.6492H108.749V16.7849C108.749 15.9739 108.618 15.1873 107.879 15.1873C107.194 15.1873 106.874 16.4013 106.874 17.1849V21.6512H103.604V16.7853C103.604 15.7476 103.458 15.1876 102.729 15.1876C102.098 15.1876 101.729 16.3046 101.729 17.1853V21.6496H98.4719V12.677H100.859ZM68.8434 9.86997C67.7427 9.86997 66.8497 10.4526 66.8497 11.1713C66.8497 11.89 67.7424 12.4726 68.8434 12.4726C69.9447 12.4726 70.8373 11.89 70.8373 11.1713C70.8373 10.4526 69.945 9.86997 68.8434 9.86997ZM95.7332 9.86997C94.6322 9.86997 93.7392 10.4526 93.7392 11.1713C93.7392 11.89 94.6319 12.4726 95.7332 12.4726C96.8342 12.4726 97.7272 11.89 97.7272 11.1713C97.7272 10.4526 96.8345 9.86997 95.7332 9.86997Z" fill="#111827"/>
<path fill-rule="evenodd" clip-rule="evenodd" d="M117.509 19.7181C116.763 19.7181 116.213 18.7711 116.213 17.4515C116.213 16.1698 116.777 15.1855 117.484 15.1855C118.389 15.1855 118.776 16.0165 118.776 17.4515C118.776 18.9445 118.42 19.7181 117.509 19.7181ZM118.403 12.4672C116.729 12.4672 115.962 13.7221 115.628 14.4371C115.408 14.9095 115.42 15.0485 115.258 15.0485C115.026 15.0485 115.219 14.6691 115.324 14.2231C115.53 13.3448 115.373 12.6738 115.373 12.6738H112.988V24.1214H116.244V20.4921C116.629 21.1458 117.343 21.8441 118.443 21.8441C120.798 21.8441 121.983 19.8518 121.983 17.1601C121.983 14.1095 120.565 12.4672 118.404 12.4672" fill="#111827"/>
<path fill-rule="evenodd" clip-rule="evenodd" d="M31.6737 15.1759C31.8927 15.1499 32.1023 15.1485 32.2953 15.1759C32.407 14.9199 32.426 14.4789 32.3257 13.9985C32.1767 13.2845 31.9747 12.8525 31.5573 12.9199C31.14 12.9872 31.1247 13.5045 31.274 14.2182C31.358 14.6199 31.5073 14.9632 31.6737 15.1759Z" fill="#111827"/>
<path fill-rule="evenodd" clip-rule="evenodd" d="M28.0933 15.7409C28.3917 15.8719 28.5753 15.9589 28.647 15.8829C28.6933 15.8356 28.6793 15.7452 28.608 15.6289C28.4607 15.3886 28.1577 15.1446 27.836 15.0076C27.1787 14.7246 26.3943 14.8186 25.7893 15.2532C25.5897 15.3996 25.4003 15.6022 25.4273 15.7252C25.436 15.7649 25.466 15.7949 25.536 15.8049C25.7007 15.8236 26.276 15.5329 26.939 15.4922C27.4067 15.4636 27.7947 15.6099 28.0933 15.7409Z" fill="#111827"/>
<path fill-rule="evenodd" clip-rule="evenodd" d="M27.4941 16.0836C27.1051 16.1449 26.8908 16.2733 26.7531 16.3923C26.6358 16.4949 26.5631 16.6086 26.5638 16.6883C26.5641 16.7263 26.5805 16.7483 26.5935 16.7593C26.6111 16.7749 26.6321 16.7836 26.6575 16.7836C26.7451 16.7836 26.9421 16.7046 26.9421 16.7046C27.4831 16.5109 27.8401 16.5346 28.1938 16.5746C28.3891 16.5966 28.4818 16.6086 28.5245 16.5416C28.5371 16.5223 28.5525 16.4806 28.5135 16.4173C28.4225 16.2696 28.0295 16.0199 27.4941 16.0836Z" fill="#111827"/>
<path fill-rule="evenodd" clip-rule="evenodd" d="M30.4655 17.341C30.7295 17.4707 31.0202 17.4197 31.1148 17.2274C31.2095 17.035 31.0722 16.7737 30.8082 16.644C30.5442 16.5144 30.2535 16.5653 30.1588 16.7577C30.0642 16.9503 30.2015 17.2113 30.4655 17.341Z" fill="#111827"/>
<path fill-rule="evenodd" clip-rule="evenodd" d="M32.1631 15.8581C31.9487 15.8544 31.7707 16.0898 31.7657 16.3841C31.7607 16.6784 31.9307 16.9194 32.1451 16.9231C32.3594 16.9268 32.5374 16.6914 32.5424 16.3971C32.5474 16.1031 32.3774 15.8618 32.1631 15.8581Z" fill="#111827"/>
<path fill-rule="evenodd" clip-rule="evenodd" d="M17.7565 21.1612C17.7032 21.0942 17.6155 21.1146 17.5305 21.1346C17.4712 21.1486 17.4042 21.1639 17.3305 21.1629C17.1728 21.1599 17.0392 21.0926 16.9642 20.9772C16.8665 20.8272 16.8722 20.6036 16.9799 20.3476L17.0302 20.2329C17.2022 19.8469 17.4898 19.2013 17.1669 18.5859C16.9235 18.1226 16.5269 17.8343 16.0499 17.7736C15.5919 17.7156 15.1205 17.8853 14.8199 18.2169C14.3455 18.7402 14.2712 19.4526 14.3629 19.7042C14.3965 19.7962 14.4492 19.8219 14.4872 19.8272C14.5679 19.8379 14.6872 19.7792 14.7619 19.5782L14.7832 19.5129C14.8165 19.4066 14.8785 19.2086 14.9802 19.0499C15.1029 18.8586 15.2935 18.7269 15.5175 18.6786C15.7455 18.6296 15.9789 18.6733 16.1742 18.8013C16.5065 19.0186 16.6345 19.4259 16.4925 19.8142C16.4192 20.0152 16.2999 20.3996 16.3262 20.7152C16.3795 21.3542 16.7725 21.6109 17.1255 21.6382C17.4688 21.6512 17.7088 21.4582 17.7695 21.3176C17.8052 21.2342 17.7752 21.1836 17.7555 21.1619" fill="#111827"/>
<path fill-rule="evenodd" clip-rule="evenodd" d="M21.022 9.42473C22.142 8.13074 23.5204 7.00575 24.7554 6.37408C24.798 6.35208 24.8433 6.39842 24.8203 6.44042C24.7223 6.61808 24.5333 6.99841 24.4737 7.28674C24.4644 7.33174 24.5134 7.36541 24.5514 7.33975C25.3197 6.81608 26.656 6.25475 27.8283 6.18275C27.8787 6.17975 27.903 6.24408 27.863 6.27508C27.6847 6.41175 27.4897 6.60108 27.3473 6.79242C27.323 6.82508 27.346 6.87175 27.3867 6.87208C28.2097 6.87808 29.37 7.16608 30.1263 7.59041C30.1773 7.61908 30.141 7.71807 30.0837 7.70507C28.9393 7.44274 27.0663 7.24375 25.1203 7.71841C23.3834 8.14208 22.0574 8.7964 21.0904 9.49973C21.0414 9.5354 20.9824 9.4704 21.022 9.42473ZM26.5993 21.962L26.5997 21.9627L26.6003 21.964L26.5993 21.962ZM31.2173 22.507C31.2506 22.493 31.2733 22.4553 31.2696 22.4177C31.265 22.3713 31.2236 22.3377 31.1773 22.3423C31.1773 22.3423 28.7877 22.696 26.53 21.8697C26.776 21.0703 27.4297 21.359 28.418 21.4387C30.1993 21.545 31.796 21.2847 32.976 20.946C33.9983 20.6527 35.3413 20.074 36.3843 19.2507C36.7359 20.0233 36.8603 20.874 36.8603 20.874C36.8603 20.874 37.1326 20.8253 37.3603 20.9653C37.5753 21.0977 37.7329 21.3727 37.6253 22.084C37.4059 23.4127 36.8413 24.4913 35.892 25.4836C35.314 26.1056 34.6126 26.6463 33.81 27.0396C33.3836 27.2636 32.93 27.4573 32.4503 27.6136C28.8717 28.7826 25.2083 27.4976 24.0277 24.7383C23.9334 24.531 23.8537 24.3137 23.791 24.0867C23.288 22.2683 23.715 20.0867 25.0503 18.7134C25.1327 18.626 25.2167 18.5224 25.2167 18.3927C25.2167 18.2844 25.1477 18.17 25.088 18.0887C24.6207 17.411 23.0024 16.2564 23.3274 14.0217C23.5607 12.4164 24.9647 11.2857 26.2737 11.3527L26.6053 11.3717C27.1727 11.4054 27.6673 11.4781 28.1343 11.4977C28.916 11.5317 29.6187 11.4181 30.4513 10.7244C30.732 10.4904 30.9573 10.2874 31.3383 10.2231C31.3783 10.2161 31.478 10.1804 31.677 10.1897C31.8803 10.2007 32.0736 10.2564 32.2473 10.3721C32.9146 10.8161 33.0093 11.8917 33.044 12.6784C33.0636 13.1274 33.118 14.214 33.1366 14.526C33.179 15.2394 33.3666 15.3397 33.746 15.4647C33.9593 15.535 34.1573 15.5874 34.4493 15.6694C35.3326 15.9174 35.8563 16.169 36.1866 16.4924C36.3836 16.6944 36.4753 16.909 36.5036 17.1137C36.6076 17.8737 35.9136 18.8123 34.076 19.6653C32.0673 20.5977 29.6303 20.8337 27.9467 20.646L27.3567 20.5793C26.01 20.398 25.2417 22.1383 26.05 23.331C26.571 24.0997 27.99 24.5997 29.4097 24.6C32.6646 24.6003 35.1666 23.2103 36.0973 22.01L36.1716 21.904C36.2176 21.835 36.1796 21.797 36.1226 21.836C35.3623 22.3563 31.985 24.422 28.3723 23.8003C28.3723 23.8003 27.9333 23.728 27.5327 23.5723C27.2143 23.4483 26.5477 23.1417 26.4667 22.458C29.382 23.3597 31.2173 22.507 31.2173 22.507ZM15.2044 15.5787C14.1904 15.7757 13.2967 16.3504 12.7504 17.1444C12.4238 16.872 11.8154 16.3447 11.7078 16.139C10.8354 14.4824 12.6597 11.2617 13.9344 9.44273C17.0844 4.94775 22.0177 1.54544 24.3014 2.16277C24.6727 2.26777 25.9023 3.69343 25.9023 3.69343C25.9023 3.69343 23.6194 4.96009 21.5024 6.72575C18.6497 8.92207 16.4954 12.1144 15.2044 15.5787ZM16.9081 23.1803C16.7547 23.2067 16.5981 23.217 16.4401 23.213C14.9144 23.172 13.2667 21.7987 13.1031 20.17C12.9221 18.3697 13.8421 16.9844 15.4707 16.6557C15.6654 16.6164 15.9007 16.5937 16.1544 16.607C17.0671 16.657 18.4117 17.3577 18.7187 19.3457C18.9907 21.1063 18.5587 22.899 16.9081 23.1803ZM37.5733 19.9923C37.5603 19.946 37.4749 19.635 37.3579 19.26C37.2409 18.8847 37.1199 18.621 37.1199 18.621C37.5893 17.9187 37.5976 17.2904 37.5349 16.9347C37.4683 16.4937 37.2846 16.118 36.9146 15.7294C36.5446 15.341 35.7876 14.943 34.724 14.6444L34.166 14.4894C34.1633 14.4664 34.1366 13.1737 34.1126 12.6187C34.095 12.2174 34.0606 11.5911 33.8663 10.9744C33.6346 10.1394 33.2313 9.40873 32.7276 8.9414C34.1176 7.50074 34.9853 5.91342 34.983 4.55209C34.979 1.93377 31.7633 1.14145 27.8003 2.78244L26.9607 3.13877C26.957 3.1351 25.4427 1.64944 25.42 1.62944C20.9017 -2.31154 6.77511 13.3907 11.2914 17.2044L12.2784 18.0407C12.0224 18.704 11.9218 19.464 12.0041 20.281C12.1094 21.3307 12.6508 22.3367 13.5284 23.114C14.3614 23.852 15.4567 24.3193 16.5194 24.3183C18.2771 28.3686 22.293 30.8533 27.0017 30.9933C32.0526 31.1433 36.2926 28.7733 38.0693 24.516C38.1856 24.2173 38.6786 22.871 38.6786 21.6823C38.6786 20.488 38.0033 19.9923 37.5733 19.9923Z" fill="#111827"/>
</svg>
