<svg width="92" height="32" viewBox="0 0 92 32" fill="none" xmlns="http://www.w3.org/2000/svg">
<path d="M11.6143 6.07714C10.0383 6.74156 8.30578 8.61865 7.75859 10.9748C7.06561 13.9601 9.94941 15.2225 10.1859 14.8086C10.4643 14.3223 9.6692 14.1578 9.50553 12.6088C9.29399 10.6083 10.2174 8.37285 11.3796 7.39202C11.5956 7.20979 11.5853 7.46342 11.5853 7.93257C11.5853 8.77151 11.5393 16.3027 11.5393 17.8745C11.5393 20.0013 11.4521 20.6729 11.2955 21.3365C11.1367 22.0091 10.8816 22.4635 11.0749 22.6385C11.2909 22.8343 12.2133 22.3686 12.7472 21.618C13.3875 20.7178 13.6116 19.6368 13.6518 18.4627C13.7004 17.0475 13.6984 14.8017 13.7004 13.5208C13.7024 12.346 13.7201 8.90587 13.68 6.8378C13.6702 6.33055 12.2734 5.79836 11.6142 6.07652L11.6143 6.07714ZM67.5778 16.0304C67.527 17.1361 67.284 18.0003 66.9824 18.6099C66.3985 19.7901 65.187 20.1565 64.6726 18.46C64.3922 17.5353 64.3791 15.9908 64.5807 14.7004C64.7858 13.3857 65.3587 12.3929 66.3072 12.4824C67.2429 12.5709 67.6808 13.7852 67.5778 16.0304ZM51.8049 22.8903C51.7922 24.7275 51.5052 26.3383 50.8895 26.8061C50.0164 27.4695 48.8428 26.9719 49.0858 25.6313C49.3009 24.445 50.3177 23.2335 51.8074 21.7532C51.8074 21.7532 51.8105 22.0908 51.8049 22.8903ZM51.5665 16.0197C51.5131 17.0268 51.2539 18.0384 50.9711 18.6101C50.3873 19.7902 49.167 20.1591 48.6613 18.4602C48.3155 17.2994 48.3983 15.797 48.5694 14.8503C48.7914 13.6221 49.3295 12.4827 50.296 12.4827C51.2356 12.4827 51.6989 13.5209 51.5665 16.0197ZM42.4292 16.0043C42.372 17.0709 42.1654 17.9625 41.8338 18.6101C41.234 19.7821 40.0474 20.1538 39.524 18.4602C39.1468 17.2389 39.2752 15.5738 39.4321 14.6742C39.6651 13.3394 40.2483 12.393 41.1587 12.4827C42.094 12.5747 42.5486 13.7852 42.4292 16.0043ZM84.303 17.2501C84.0744 17.2501 83.9701 17.4875 83.8838 17.887C83.5844 19.2761 83.2697 19.5898 82.8639 19.5898C82.4106 19.5898 82.0032 18.902 81.8985 17.525C81.8162 16.4423 81.8294 14.449 81.9347 12.4661C81.9562 12.0587 81.8446 11.6556 80.7597 11.2587C80.2928 11.0879 79.6142 10.8365 79.2763 11.658C78.3217 13.9788 77.9482 15.8213 77.8603 16.5698C77.8557 16.6085 77.8086 16.6164 77.8003 16.5259C77.7443 15.9264 77.6191 14.837 77.6035 12.5482C77.6005 12.1017 77.5066 11.7216 77.0172 11.4104C76.6997 11.2084 75.7354 10.8513 75.3882 11.2762C75.0874 11.6237 74.739 12.5588 74.377 13.6673C74.0829 14.5683 73.8779 15.1777 73.8779 15.1777C73.8779 15.1777 73.8818 12.7468 73.8853 11.8247C73.8869 11.4768 73.65 11.3609 73.5786 11.3399C73.257 11.2459 72.6235 11.0889 72.3546 11.0889C72.0228 11.0889 71.9415 11.2757 71.9415 11.5478C71.9415 11.5835 71.8892 14.7484 71.8892 16.9615C71.8892 17.0576 71.8892 17.1625 71.8901 17.2739C71.7066 18.2911 71.1115 19.6718 70.4642 19.6718C69.8162 19.6718 69.5105 19.0946 69.5105 16.4562C69.5105 14.9171 69.5564 14.2479 69.5789 13.1347C69.592 12.4935 69.6173 12.0011 69.6159 11.8894C69.6111 11.5467 69.0228 11.374 68.7491 11.3102C68.474 11.2458 68.2351 11.2209 68.0484 11.2316C67.7843 11.2466 67.5974 11.4211 67.5974 11.6612C67.5974 11.7899 67.5989 12.0346 67.5989 12.0346C67.2587 11.4962 66.7115 11.1214 66.3474 11.0128C65.3668 10.7195 64.3436 10.9794 63.5718 12.0671C62.9584 12.9314 62.5886 13.9103 62.4431 15.3167C62.3367 16.3449 62.3714 17.3875 62.5605 18.2692C62.332 19.2642 61.9078 19.6718 61.4433 19.6718C60.769 19.6718 60.2801 18.5633 60.3369 16.646C60.3743 15.385 60.6249 14.5 60.8987 13.2198C61.0155 12.674 60.9206 12.3883 60.6827 12.1144C60.4644 11.8632 59.9994 11.7349 59.3309 11.8927C58.8547 12.0053 58.1739 12.1263 57.551 12.2192C57.551 12.2192 57.5886 12.0682 57.6195 11.8019C57.7815 10.4054 56.2748 10.5187 55.7941 10.9648C55.5072 11.2311 55.3119 11.5451 55.2377 12.1098C55.1202 13.006 55.8458 13.4286 55.8458 13.4286C55.6078 14.5263 55.0242 15.9602 54.4216 16.9969C54.0989 17.5524 53.852 17.964 53.5333 18.4015C53.5322 18.2386 53.5313 18.0757 53.5307 17.9135C53.5234 15.6058 53.5539 13.7895 53.5674 13.1349C53.5805 12.4937 53.606 12.0144 53.6046 11.9026C53.601 11.652 53.4556 11.5574 53.1534 11.4375C52.8862 11.3315 52.5702 11.2582 52.2424 11.2326C51.8287 11.2001 51.5795 11.4211 51.586 11.6824C51.5872 11.7318 51.5872 12.0347 51.5872 12.0347C51.247 11.4963 50.6998 11.1215 50.3358 11.0129C49.3552 10.7197 48.332 10.9796 47.5602 12.0672C46.9469 12.9315 46.5452 14.1443 46.4314 15.3061C46.3254 16.3888 46.345 17.309 46.4895 18.0841C46.3336 18.8603 45.8853 19.6719 45.3784 19.6719C44.7304 19.6719 44.3617 19.0947 44.3617 16.4563C44.3617 14.9172 44.4076 14.248 44.4301 13.1349C44.4432 12.4937 44.4685 12.0012 44.467 11.8896C44.4623 11.5469 43.874 11.3742 43.6003 11.3103C43.3138 11.2436 43.0665 11.219 42.8767 11.2331C42.6261 11.2519 42.45 11.4779 42.45 11.6464V12.0347C42.1098 11.4963 41.5626 11.1215 41.1986 11.0129C40.218 10.7197 39.2005 10.9838 38.423 12.0672C37.9159 12.7737 37.5055 13.5569 37.2942 15.2907C37.2332 15.7917 37.2062 16.2609 37.2097 16.6994C37.0075 17.9447 36.1146 19.3801 35.3841 19.3801C34.9567 19.3801 34.5496 18.545 34.5496 16.7654C34.5496 14.3949 34.6953 11.0198 34.7199 10.6945C34.7199 10.6945 35.6428 10.6787 35.8215 10.6766C36.2819 10.6715 36.6988 10.6825 37.312 10.6509C37.6195 10.6351 37.9158 9.52349 37.5984 9.38592C37.4545 9.32365 36.4378 9.26909 36.0347 9.26047C35.6958 9.25274 34.7523 9.18241 34.7523 9.18241C34.7523 9.18241 34.8369 6.94216 34.8566 6.70551C34.8734 6.50827 34.62 6.40672 34.4747 6.3451C34.1214 6.19459 33.8053 6.12253 33.4306 6.04474C32.913 5.93718 32.6781 6.04239 32.6322 6.48242C32.5632 7.15024 32.5274 9.10631 32.5274 9.10631C32.1475 9.10631 30.8499 9.03151 30.4699 9.03151C30.1169 9.03151 29.7358 10.5607 30.2239 10.5795C30.7855 10.6015 31.7642 10.6204 32.4129 10.6401C32.4129 10.6401 32.3841 14.0708 32.3841 15.13C32.3841 15.2427 32.385 15.3512 32.3852 15.4565C32.0282 17.331 30.7705 18.3435 30.7705 18.3435C31.0406 17.1034 30.4888 16.1722 29.495 15.3839C29.1289 15.0934 28.4061 14.5435 27.5974 13.9408C27.5974 13.9408 28.0658 13.4759 28.4812 12.5405C28.7755 11.8779 28.7882 11.1196 28.0658 10.9524C26.8721 10.6759 25.8879 11.5588 25.5943 12.5014C25.3669 13.2316 25.4882 13.7735 25.9338 14.3363C25.9663 14.3775 26.0016 14.4195 26.038 14.4618C25.7685 14.9849 25.3984 15.6891 25.0849 16.2352C24.2147 17.7515 23.5574 18.9509 23.0606 18.9509C22.6635 18.9509 22.6688 17.7332 22.6688 16.5932C22.6688 15.6103 22.7409 14.1327 22.7984 12.6028C22.8174 12.0969 22.5663 11.8087 22.1452 11.5476C21.8894 11.389 21.3433 11.0772 21.0271 11.0772C20.5538 11.0772 19.1881 11.142 17.8978 14.9013C17.7352 15.3751 17.4157 16.2385 17.4157 16.2385L17.4432 11.7178C17.4432 11.6118 17.3872 11.5094 17.2588 11.4393C17.0414 11.3203 16.4607 11.0772 15.9443 11.0772C15.6982 11.0772 15.5755 11.1924 15.5755 11.4222L15.5304 18.4948C15.5304 19.0322 15.5443 19.6591 15.5971 19.9333C15.6496 20.2078 15.7348 20.4312 15.8402 20.5641C15.9455 20.6967 16.0673 20.7978 16.2682 20.8396C16.4551 20.8784 17.4786 21.0107 17.5318 20.6168C17.5956 20.1447 17.598 19.634 18.1354 17.7295C18.9721 14.7644 20.0631 13.3177 20.5759 12.8039C20.6656 12.7141 20.7679 12.7087 20.763 12.8557C20.7411 13.5058 20.6641 15.1301 20.6123 16.5102C20.4734 20.2032 21.1404 20.8878 22.0937 20.8878C22.823 20.8878 23.851 20.1579 24.953 18.3105C25.64 17.1592 26.3071 16.0303 26.7864 15.2167C27.1204 15.5281 27.4952 15.8632 27.8697 16.2213C28.7402 17.0533 29.0259 17.844 28.8363 18.594C28.6913 19.1674 28.1452 19.7583 27.1731 19.184C26.8898 19.0164 26.7689 18.887 26.484 18.698C26.331 18.5966 26.0973 18.5662 25.9572 18.6725C25.5932 18.9489 25.3851 19.3004 25.2663 19.7356C25.1507 20.1591 25.5717 20.383 26.0082 20.5788C26.3841 20.7473 27.1919 20.9 27.7071 20.9174C29.7144 20.985 31.3224 19.9412 32.4418 17.2488C32.6422 19.5741 33.4949 20.8898 34.9766 20.8898C35.9672 20.8898 36.9603 19.6003 37.3946 18.3316C37.5193 18.8488 37.7038 19.2985 37.9422 19.6787C39.0839 21.5006 41.2987 21.1085 42.4112 19.5614C42.7552 19.0834 42.8075 18.9116 42.8075 18.9116C42.9698 20.3724 44.1378 20.8828 44.8065 20.8828C45.5555 20.8828 46.3289 20.5262 46.8709 19.2972C46.9344 19.4306 47.0037 19.558 47.0794 19.6787C48.2211 21.5006 50.4359 21.1084 51.5484 19.5614C51.6009 19.4888 51.6464 19.423 51.6862 19.3639L51.7188 20.3234C51.7188 20.3234 51.0842 20.9098 50.6946 21.2695C48.9799 22.854 47.6761 24.0561 47.5802 25.4559C47.4571 27.2409 48.8944 27.9042 49.9818 27.9912C51.1365 28.0835 52.1254 27.441 52.7333 26.5418C53.2679 25.7504 53.6178 24.0471 53.5921 22.3647C53.5819 21.6911 53.5651 20.8345 53.5518 19.9163C54.1545 19.2114 54.8335 18.3205 55.4587 17.2777C56.14 16.1412 56.8702 14.615 57.2441 13.4273C57.2441 13.4273 57.8785 13.4327 58.5556 13.3881C58.7722 13.3739 58.8344 13.4184 58.7943 13.5783C58.746 13.7715 57.9389 16.9067 58.6755 18.9952C59.1796 20.425 60.3161 20.885 60.9899 20.885C61.7787 20.885 62.5333 20.285 62.9376 19.3942C62.9864 19.4935 63.0373 19.5896 63.0929 19.6783C64.2346 21.5002 66.4416 21.1057 67.5619 19.561C67.8148 19.2125 67.9582 18.9112 67.9582 18.9112C68.1987 20.423 69.366 20.8901 70.0346 20.8901C70.7311 20.8901 71.3921 20.6025 71.9284 19.3244C71.9508 19.8872 71.9861 20.3473 72.0418 20.4924C72.0758 20.5811 72.2737 20.6925 72.4177 20.7463C73.0548 20.9842 73.7046 20.8717 73.945 20.8227C74.1116 20.7888 74.2415 20.6542 74.2592 20.3067C74.3059 19.3943 74.2772 17.8613 74.5519 16.722C75.0129 14.8099 75.4429 14.0682 75.6469 13.701C75.7611 13.4953 75.8899 13.4613 75.8946 13.6791C75.9042 14.1196 75.9259 15.4134 76.1045 17.1516C76.2357 18.4299 76.4109 19.1856 76.5455 19.4247C76.9298 20.1086 77.4044 20.1409 77.7909 20.1409C78.0368 20.1409 78.5509 20.0725 78.5049 19.6373C78.4825 19.4252 78.5218 18.1142 78.9763 16.2305C79.2731 15.0003 79.7679 13.8888 79.9464 13.4825C80.0122 13.3326 80.0428 13.4507 80.0417 13.4738C80.0042 14.3209 79.9198 17.0919 80.2625 18.6074C80.727 20.6605 82.0707 20.8902 82.539 20.8902C83.5386 20.8902 84.3561 20.1244 84.6316 18.1092C84.6979 17.6242 84.5997 17.2498 84.3053 17.2498" fill="#262626"/>
</svg>
