<svg width="122" height="42" viewBox="0 0 122 42" fill="none" xmlns="http://www.w3.org/2000/svg">
<path d="M99.365 17.9655C100.511 17.9655 101.44 17.0363 101.44 15.8902C101.44 14.7441 100.511 13.815 99.365 13.815C98.2189 13.815 97.2897 14.7441 97.2897 15.8902C97.2897 17.0363 98.2189 17.9655 99.365 17.9655Z" fill="#FF4500"/>
<path d="M69.7242 24.7394C70.7422 24.7394 71.3295 23.9758 71.2904 23.2318C71.2708 22.8403 71.2316 22.5858 71.1925 22.39C70.566 19.6883 68.3733 17.6913 65.7694 17.6913C62.6761 17.6913 60.1702 20.4909 60.1702 23.9367C60.1702 27.3824 62.6761 30.182 65.7694 30.182C67.7076 30.182 69.0977 29.4772 70.0961 28.3613C70.5856 27.8131 70.4877 26.9712 69.9004 26.5601C69.4109 26.2273 68.804 26.3447 68.3537 26.7167C67.923 27.0887 67.1007 27.8327 65.7694 27.8327C64.2032 27.8327 62.8719 26.4818 62.5782 24.7002H69.7242V24.7394ZM65.7498 20.0602C67.1595 20.0602 68.3733 21.1566 68.8236 22.6641H62.6761C63.1264 21.137 64.3402 20.0602 65.7498 20.0602Z" fill="#737373"/>
<path d="M60.2875 18.9247C60.2875 18.3374 59.8568 17.8675 59.3086 17.7696C57.6054 17.5151 56 18.1416 55.0798 19.2967V19.14C55.0798 18.4157 54.4925 17.9654 53.9051 17.9654C53.2591 17.9654 52.7305 18.494 52.7305 19.14V28.7332C52.7305 29.3597 53.2003 29.9079 53.8268 29.9471C54.5121 29.9862 55.0798 29.4576 55.0798 28.7724V23.8192C55.0798 21.6264 56.7243 19.8253 58.9954 20.0798C59.0737 20.0798 59.152 20.0798 59.2303 20.0798C59.8177 20.0406 60.2875 19.5316 60.2875 18.9247Z" fill="#737373"/>
<path d="M100.54 20.1777C100.54 19.5316 100.011 19.003 99.365 19.003C98.7189 19.003 98.1903 19.5316 98.1903 20.1777C98.1903 20.2168 98.1903 28.4004 98.1903 28.7724C98.1903 29.4184 98.7189 29.947 99.365 29.947C100.011 29.947 100.54 29.4184 100.54 28.7724C100.54 28.42 100.54 20.2364 100.54 20.1777Z" fill="#737373"/>
<path d="M83.0762 13.6778C83.0762 13.0318 82.5476 12.5032 81.9015 12.5032C81.2555 12.5032 80.7269 13.0318 80.7269 13.6778V18.9051C79.9242 18.1024 78.9257 17.7109 77.7315 17.7109C74.6381 17.7109 72.1322 20.5105 72.1322 23.9562C72.1322 27.402 74.6381 30.2016 77.7315 30.2016C78.9257 30.2016 79.9437 29.7905 80.7464 28.9878C80.8443 29.5359 81.3338 29.9471 81.9015 29.9471C82.5476 29.9471 83.0762 29.4185 83.0762 28.7724V13.6778ZM77.751 27.8718C75.9499 27.8718 74.5011 26.1294 74.5011 23.9562C74.5011 21.8027 75.9499 20.0407 77.751 20.0407C79.5522 20.0407 81.001 21.7831 81.001 23.9562C81.001 26.1294 79.5326 27.8718 77.751 27.8718Z" fill="#737373"/>
<path d="M95.332 13.6778C95.332 13.0318 94.8034 12.5032 94.1574 12.5032C93.5113 12.5032 92.9827 13.0318 92.9827 13.6778V18.9051C92.18 18.1024 91.1815 17.7109 89.9873 17.7109C86.894 17.7109 84.388 20.5105 84.388 23.9562C84.388 27.402 86.894 30.2016 89.9873 30.2016C91.1815 30.2016 92.1996 29.7905 93.0023 28.9878C93.1002 29.5359 93.5896 29.9471 94.1574 29.9471C94.8034 29.9471 95.332 29.4185 95.332 28.7724V13.6778ZM89.9873 27.8718C88.1861 27.8718 86.7373 26.1294 86.7373 23.9562C86.7373 21.8027 88.1861 20.0407 89.9873 20.0407C91.7884 20.0407 93.2372 21.7831 93.2372 23.9562C93.2372 26.1294 91.7884 27.8718 89.9873 27.8718Z" fill="#737373"/>
<path d="M106.491 28.792V20.0602H107.529C108.077 20.0602 108.566 19.6491 108.606 19.0814C108.645 18.4744 108.155 17.9654 107.568 17.9654H106.491V16.3209C106.491 15.6944 106.021 15.1462 105.395 15.107C104.71 15.0679 104.142 15.5965 104.142 16.2817V17.985H103.163C102.615 17.985 102.125 18.3961 102.086 18.9639C102.047 19.5708 102.536 20.0798 103.124 20.0798H104.122V28.8116C104.122 29.4576 104.651 29.9862 105.297 29.9862C105.982 29.9471 106.491 29.4381 106.491 28.792Z" fill="#737373"/>
<path d="M29.7461 37.4062C38.8069 37.4062 46.1523 30.0608 46.1523 21C46.1523 11.9391 38.8069 4.59375 29.7461 4.59375C20.6852 4.59375 13.3398 11.9391 13.3398 21C13.3398 30.0608 20.6852 37.4062 29.7461 37.4062Z" fill="#FF4500"/>
<path d="M40.6902 21C40.6902 19.6687 39.6134 18.6115 38.3017 18.6115C37.6556 18.6115 37.0683 18.866 36.6376 19.2771C34.993 18.1024 32.7416 17.3389 30.2356 17.241L31.332 12.1116L34.8951 12.8752C34.9343 13.7757 35.6782 14.5001 36.5984 14.5001C37.5381 14.5001 38.3017 13.7366 38.3017 12.7968C38.3017 11.8571 37.5381 11.0936 36.5984 11.0936C35.9328 11.0936 35.3454 11.4851 35.0713 12.0529L31.097 11.211C30.9796 11.1915 30.8621 11.211 30.7838 11.2698C30.6859 11.3285 30.6272 11.4264 30.6076 11.5439L29.3938 17.2606C26.8487 17.3389 24.558 18.1024 22.8939 19.2967C22.4632 18.8856 21.8759 18.631 21.2298 18.631C19.8985 18.631 18.8413 19.7078 18.8413 21.0195C18.8413 21.9984 19.4286 22.8207 20.2509 23.1927C20.2118 23.4276 20.1922 23.6626 20.1922 23.9171C20.1922 27.5977 24.4797 30.5931 29.7658 30.5931C35.0518 30.5931 39.3393 27.6173 39.3393 23.9171C39.3393 23.6821 39.3197 23.4276 39.2806 23.1927C40.1028 22.8207 40.6902 21.9789 40.6902 21ZM24.284 22.7032C24.284 21.7635 25.0475 21 25.9872 21C26.927 21 27.6905 21.7635 27.6905 22.7032C27.6905 23.643 26.927 24.4065 25.9872 24.4065C25.0475 24.4261 24.284 23.643 24.284 22.7032ZM33.8184 27.2257C32.6437 28.4004 30.4118 28.4787 29.7658 28.4787C29.1001 28.4787 26.8682 28.3808 25.7131 27.2257C25.5369 27.0495 25.5369 26.7754 25.7131 26.5992C25.8893 26.423 26.1634 26.423 26.3396 26.5992C27.0836 27.3432 28.6498 27.5977 29.7658 27.5977C30.8817 27.5977 32.4675 27.3432 33.1919 26.5992C33.3681 26.423 33.6421 26.423 33.8184 26.5992C33.975 26.7754 33.975 27.0495 33.8184 27.2257ZM33.5051 24.4261C32.5654 24.4261 31.8019 23.6626 31.8019 22.7228C31.8019 21.7831 32.5654 21.0195 33.5051 21.0195C34.4448 21.0195 35.2084 21.7831 35.2084 22.7228C35.2084 23.643 34.4448 24.4261 33.5051 24.4261Z" fill="white"/>
</svg>
