<svg width="114" height="42" viewBox="0 0 114 42" fill="none" xmlns="http://www.w3.org/2000/svg">
<path fill-rule="evenodd" clip-rule="evenodd" d="M80.6978 19.6437C80.4375 21.3535 79.1317 21.3535 77.869 21.3535H77.1502L77.6542 18.1613C77.6846 17.9685 77.851 17.8263 78.0467 17.8263H78.3758C79.2355 17.8263 80.0476 17.8263 80.4665 18.3161C80.7169 18.6092 80.7925 19.0435 80.6978 19.6437ZM80.1482 15.1833H75.3853C75.0596 15.1833 74.7823 15.4203 74.7315 15.742L72.8058 27.9549C72.7677 28.1957 72.9538 28.4137 73.1979 28.4137H75.6417C75.8695 28.4137 76.0638 28.2478 76.0991 28.0226L76.6451 24.5603C76.696 24.2386 76.9733 24.0016 77.2989 24.0016H78.806C81.9432 24.0016 83.7541 22.4833 84.2274 19.4742C84.4403 18.1581 84.2358 17.124 83.6195 16.4001C82.942 15.6041 81.7419 15.1833 80.1482 15.1833Z" fill="#2790C3"/>
<path fill-rule="evenodd" clip-rule="evenodd" d="M91.2056 24.0281C90.9856 25.3313 89.951 26.2062 88.6315 26.2062C87.9699 26.2062 87.4405 25.9935 87.1 25.5906C86.7627 25.1912 86.6359 24.6222 86.7429 23.9885C86.9481 22.6971 87.9992 21.794 89.2987 21.794C89.9461 21.794 90.472 22.0089 90.8192 22.4154C91.1685 22.8249 91.3056 23.3977 91.2056 24.0281ZM94.3841 19.5891H92.1035C91.9081 19.5891 91.7418 19.731 91.7114 19.9243L91.6111 20.562L91.4518 20.3309C90.9577 19.614 89.8571 19.3744 88.7576 19.3744C86.2382 19.3744 84.0857 21.2838 83.6668 23.962C83.4489 25.298 83.7583 26.5746 84.5156 27.4658C85.2117 28.2845 86.205 28.6253 87.3882 28.6253C89.4191 28.6253 90.5455 27.3207 90.5455 27.3207L90.4437 27.9545C90.4056 28.1955 90.5917 28.4136 90.8362 28.4136H92.8897C93.2153 28.4136 93.4926 28.1769 93.5435 27.8552L94.7761 20.0478C94.8143 19.8068 94.6282 19.5891 94.3841 19.5891Z" fill="#2790C3"/>
<path fill-rule="evenodd" clip-rule="evenodd" d="M97.0723 15.5187L95.1173 27.9549C95.0795 28.196 95.2657 28.4137 95.5097 28.4137H97.4757C97.8013 28.4137 98.0786 28.1767 98.1295 27.8552L100.057 15.6423C100.095 15.4012 99.9085 15.1833 99.6645 15.1833H97.4644C97.2691 15.1833 97.1027 15.3256 97.0723 15.5187Z" fill="#2790C3"/>
<path fill-rule="evenodd" clip-rule="evenodd" d="M46.727 19.6437C46.4667 21.3534 45.1609 21.3534 43.8981 21.3534H43.1795L43.6834 18.1613C43.7141 17.9685 43.8804 17.8263 44.0756 17.8263H44.405C45.2647 17.8263 46.0769 17.8263 46.4954 18.3161C46.746 18.6092 46.8218 19.0435 46.727 19.6437ZM46.1775 15.1833H41.4143C41.0888 15.1833 40.8116 15.4203 40.7608 15.742L38.8347 27.9549C38.7968 28.1957 38.983 28.4137 39.2269 28.4137H41.5011C41.8266 28.4137 42.1041 28.1767 42.1548 27.8552L42.6745 24.5603C42.7251 24.2386 43.0025 24.0016 43.3281 24.0016H44.8353C47.9724 24.0016 49.783 22.4833 50.2563 19.4742C50.4693 18.1581 50.2652 17.124 49.6488 16.4001C48.971 15.6041 47.7707 15.1833 46.1775 15.1833Z" fill="#27346A"/>
<path fill-rule="evenodd" clip-rule="evenodd" d="M57.2349 24.0281C57.0145 25.3313 55.98 26.2062 54.6604 26.2062C53.9992 26.2062 53.4694 25.9934 53.1293 25.5906C52.792 25.1911 52.6648 24.6222 52.7719 23.9885C52.9771 22.6971 54.0282 21.794 55.3276 21.794C55.9754 21.794 56.501 22.0089 56.8482 22.4154C57.1978 22.8249 57.3349 23.3977 57.2349 24.0281ZM60.4134 19.5891H58.1328C57.9371 19.5891 57.7711 19.731 57.7404 19.9243L57.6401 20.562L57.4808 20.3309C56.987 19.614 55.886 19.3744 54.7869 19.3744C52.2671 19.3744 50.1147 21.2838 49.6958 23.962C49.4779 25.298 49.7873 26.5746 50.5449 27.4658C51.2407 28.2845 52.2339 28.6253 53.4172 28.6253C55.4484 28.6253 56.5748 27.3206 56.5748 27.3206L56.4727 27.9545C56.4349 28.1955 56.6211 28.4136 56.8651 28.4136H58.919C59.2447 28.4136 59.5219 28.1769 59.5724 27.8551L60.8055 20.0478C60.8436 19.8068 60.6575 19.5891 60.4134 19.5891Z" fill="#27346A"/>
<path fill-rule="evenodd" clip-rule="evenodd" d="M72.5601 19.5891H70.2678C70.0488 19.5891 69.8436 19.6979 69.7203 19.8792L66.5585 24.5366L65.218 20.0611C65.1343 19.7811 64.8765 19.5891 64.5844 19.5891H62.331C62.0586 19.5891 61.8672 19.8567 61.9548 20.1142L64.4791 27.5233L62.1049 30.8734C61.9184 31.1363 62.1067 31.5 62.4288 31.5H64.719C64.9362 31.5 65.1393 31.3936 65.2629 31.2151L72.8868 20.2125C73.0691 19.9492 72.8808 19.5891 72.5601 19.5891Z" fill="#27346A"/>
<path fill-rule="evenodd" clip-rule="evenodd" d="M22.4636 30.6341L23.1038 26.5742L23.1451 26.3492C23.1759 26.1536 23.2761 25.9746 23.4271 25.8457C23.5779 25.7169 23.7704 25.6458 23.9688 25.6458H24.4772C25.3247 25.6458 26.1032 25.5552 26.7915 25.3767C27.5257 25.1864 28.1788 24.8899 28.7324 24.4963C29.3193 24.0788 29.8123 23.5392 30.1978 22.8927C30.6046 22.2107 30.9032 21.3896 31.0856 20.4524C31.2467 19.6248 31.2769 18.884 31.1757 18.2501C31.0684 17.5806 30.8105 17.0092 30.4091 16.5515C30.1657 16.2744 29.8543 16.0342 29.4835 15.8376L29.4747 15.833L29.4745 15.8223C29.604 14.9962 29.5991 14.3071 29.4598 13.7139C29.3198 13.1195 29.0364 12.5845 28.5926 12.0789C27.6732 11.0313 26.0009 10.5 23.6225 10.5H17.0903C16.872 10.5 16.6601 10.5781 16.494 10.7201C16.3279 10.862 16.2178 11.0591 16.1836 11.2749L13.4637 28.5226C13.4389 28.6799 13.484 28.8398 13.5876 28.9605C13.6913 29.0819 13.842 29.1515 14.0012 29.1515H18.0536L18.05 29.1708L17.7717 30.9355C17.7503 31.0727 17.7897 31.2119 17.8798 31.3172C17.9699 31.4227 18.1012 31.4835 18.2399 31.4835H21.6388C21.8295 31.4835 22.0142 31.4152 22.1592 31.2913C22.3041 31.1673 22.4004 30.9954 22.4301 30.8073L22.4636 30.6341Z" fill="#27346A"/>
<path fill-rule="evenodd" clip-rule="evenodd" d="M29.4911 15.8229C29.4716 15.9477 29.45 16.0746 29.4243 16.2054C28.5631 20.6282 25.6159 22.1572 21.8518 22.1572H19.9351C19.4753 22.1572 19.087 22.492 19.0153 22.9463L17.7555 30.9331C17.7087 31.2307 17.9388 31.5 18.2399 31.5H21.6391C22.0413 31.5 22.3838 31.2074 22.4465 30.8098L22.4799 30.6371L23.1202 26.5768L23.1615 26.3524C23.2242 25.9549 23.5667 25.6623 23.9689 25.6623H24.4773C27.7703 25.6623 30.3486 24.3244 31.1021 20.4554C31.4168 18.8388 31.2541 17.4894 30.4216 16.5406C30.1699 16.2538 29.8565 16.0164 29.4911 15.8229Z" fill="#2790C3"/>
<path fill-rule="evenodd" clip-rule="evenodd" d="M28.5896 15.4636C28.4583 15.4251 28.3228 15.3907 28.183 15.3596C28.0433 15.3286 27.8996 15.3012 27.7519 15.2774C27.2347 15.1941 26.6692 15.1543 26.0625 15.1543H20.9424C20.8167 15.1543 20.6968 15.183 20.5894 15.2344C20.3533 15.3477 20.1779 15.5713 20.1349 15.8447L19.0466 22.7448L19.0153 22.9463C19.087 22.492 19.4753 22.1572 19.9351 22.1572H21.8518C25.6159 22.1572 28.5631 20.6282 29.4243 16.2054C29.45 16.0746 29.4716 15.9477 29.4911 15.8229C29.2736 15.7077 29.0371 15.6084 28.7833 15.524C28.7197 15.5028 28.6552 15.4827 28.5896 15.4636Z" fill="#111827"/>
</svg>
