<svg width="116" height="42" viewBox="0 0 116 42" fill="none" xmlns="http://www.w3.org/2000/svg">
<path d="M63.3759 13.1824C58.9515 13.1824 55.3618 16.6388 55.3618 20.9046C55.3618 25.4399 58.7955 28.8302 63.3759 28.8302C67.8419 28.8302 71.3682 25.3951 71.3682 20.9937C71.3682 16.6184 67.8655 13.1824 63.3759 13.1824Z" fill="url(#paint0_linear_399_5815)"/>
<path d="M17.8791 13.464H13.5708V28.4912H17.8567C20.1306 28.4912 21.7752 27.9523 23.2178 26.7573C24.9295 25.3377 25.9447 23.1971 25.9447 20.9849C25.9447 16.5482 22.6303 13.464 17.8791 13.464ZM21.3056 24.7503C20.3791 25.5862 19.1864 25.9473 17.2911 25.9473H16.5037V16.0085H17.2911C19.1864 16.0085 20.3334 16.3469 21.3056 17.2247C22.3193 18.1261 22.9239 19.5219 22.9239 20.9633C22.9239 22.4077 22.3193 23.8523 21.3056 24.7503ZM27.2977 28.4912H30.2257V13.464H27.2977V28.4912ZM37.3942 19.2283C35.6345 18.5763 35.1166 18.1462 35.1166 17.3379C35.1166 16.3908 36.0386 15.6704 37.3026 15.6704C38.1813 15.6704 38.9023 16.0306 39.6708 16.8843L41.2009 14.8821C39.9393 13.7756 38.4298 13.2132 36.7832 13.2132C34.127 13.2132 32.0975 15.0617 32.0975 17.5154C32.0975 19.5903 33.0431 20.6482 35.7931 21.6422C36.9429 22.0457 37.5275 22.3149 37.8211 22.4988C38.4068 22.882 38.701 23.4208 38.701 24.0514C38.701 25.2699 37.7312 26.1699 36.4224 26.1699C35.0252 26.1699 33.8997 25.4722 33.2232 24.1654L31.3328 25.9927C32.682 27.9727 34.3048 28.8543 36.5379 28.8543C39.5797 28.8543 41.7192 26.8237 41.7192 23.9178C41.7192 21.529 40.7302 20.4466 37.3942 19.2283ZM42.6427 20.9849C42.6427 25.4061 46.1139 28.8302 50.5767 28.8302C51.8384 28.8302 52.9199 28.5808 54.2508 27.9523V24.5029C53.0773 25.6758 52.0406 26.1478 50.7106 26.1478C47.7593 26.1478 45.6623 24.0066 45.6623 20.9633C45.6623 18.0804 47.8248 15.8042 50.5767 15.8042C51.9716 15.8042 53.0325 16.2997 54.2508 17.4939V14.0447C52.9665 13.3933 51.9056 13.125 50.6437 13.125C46.2035 13.125 42.6427 16.6183 42.6427 20.9849ZM78 23.5582L73.9888 13.464H70.7887L77.1682 28.875H78.7443L85.2352 13.464H82.0587L78 23.5582ZM86.5675 28.4912H94.8816V25.9473H89.4967V21.8883H94.6756V19.3438H89.4967V16.0085H94.8816V13.464H86.5675V28.4912ZM106.484 17.8989C106.484 15.0838 104.549 13.464 101.166 13.464H96.8168V28.4912H99.7492V22.4516H100.133L104.187 28.4912H107.793L103.057 22.1612C105.269 21.7091 106.484 20.1987 106.484 17.8989ZM100.602 20.3805H99.7492V15.8269H100.649C102.478 15.8269 103.469 16.5954 103.469 18.0577C103.469 19.5664 102.478 20.3805 100.602 20.3805Z" fill="black"/>
<defs>
<linearGradient id="paint0_linear_399_5815" x1="58.4693" y1="14.6006" x2="69.2849" y2="26.0236" gradientUnits="userSpaceOnUse">
<stop offset="1" stop-color="#F34F26"/>
<stop offset="1" stop-color="#F69E35"/>
</linearGradient>
</defs>
</svg>
