<svg width="91" height="32" viewBox="0 0 91 32" fill="none" xmlns="http://www.w3.org/2000/svg">
<path d="M11.0772 6.07714C9.50121 6.74156 7.76867 8.61865 7.22148 10.9748C6.5285 13.9601 9.4123 15.2225 9.64883 14.8086C9.92723 14.3223 9.13209 14.1578 8.96842 12.6088C8.75688 10.6083 9.68031 8.37285 10.8425 7.39202C11.0585 7.20979 11.0482 7.46342 11.0482 7.93257C11.0482 8.77151 11.0022 16.3027 11.0022 17.8745C11.0022 20.0013 10.915 20.6729 10.7583 21.3365C10.5996 22.0091 10.3445 22.4635 10.5378 22.6385C10.7538 22.8343 11.6762 22.3686 12.2101 21.618C12.8504 20.7178 13.0745 19.6368 13.1147 18.4627C13.1633 17.0475 13.1613 14.8017 13.1633 13.5208C13.1653 12.346 13.183 8.90587 13.1429 6.8378C13.1331 6.33055 11.7363 5.79836 11.0771 6.07652L11.0772 6.07714ZM67.0407 16.0304C66.9898 17.1361 66.7468 18.0003 66.4452 18.6099C65.8614 19.7901 64.6498 20.1565 64.1354 18.46C63.8551 17.5353 63.842 15.9908 64.0436 14.7004C64.2487 13.3857 64.8216 12.3929 65.7701 12.4824C66.7058 12.5709 67.1437 13.7852 67.0407 16.0304ZM51.2678 22.8903C51.2551 24.7275 50.9681 26.3383 50.3524 26.8061C49.4793 27.4695 48.3057 26.9719 48.5487 25.6313C48.7638 24.445 49.7806 23.2335 51.2703 21.7532C51.2703 21.7532 51.2734 22.0908 51.2678 22.8903ZM51.0294 16.0197C50.976 17.0268 50.7168 18.0384 50.434 18.6101C49.8502 19.7902 48.6299 20.1591 48.1241 18.4602C47.7784 17.2994 47.8612 15.797 48.0323 14.8503C48.2543 13.6221 48.7924 12.4827 49.7588 12.4827C50.6985 12.4827 51.1618 13.5209 51.0294 16.0197ZM41.8921 16.0043C41.8349 17.0709 41.6283 17.9625 41.2967 18.6101C40.6969 19.7821 39.5103 20.1538 38.9869 18.4602C38.6097 17.2389 38.7381 15.5738 38.895 14.6742C39.1279 13.3394 39.7112 12.393 40.6216 12.4827C41.5569 12.5747 42.0115 13.7852 41.8921 16.0043ZM83.7659 17.2501C83.5373 17.2501 83.433 17.4875 83.3467 17.887C83.0473 19.2761 82.7326 19.5898 82.3268 19.5898C81.8735 19.5898 81.4661 18.902 81.3614 17.525C81.2791 16.4423 81.2923 14.449 81.3976 12.4661C81.4191 12.0587 81.3075 11.6556 80.2225 11.2587C79.7557 11.0879 79.0771 10.8365 78.7392 11.658C77.7846 13.9788 77.411 15.8213 77.3232 16.5698C77.3186 16.6085 77.2715 16.6164 77.2632 16.5259C77.2072 15.9264 77.082 14.837 77.0664 12.5482C77.0634 12.1017 76.9695 11.7216 76.4801 11.4104C76.1626 11.2084 75.1983 10.8513 74.8511 11.2762C74.5503 11.6237 74.2019 12.5588 73.8399 13.6673C73.5457 14.5683 73.3408 15.1777 73.3408 15.1777C73.3408 15.1777 73.3447 12.7468 73.3482 11.8247C73.3498 11.4768 73.1129 11.3609 73.0415 11.3399C72.7199 11.2459 72.0864 11.0889 71.8175 11.0889C71.4857 11.0889 71.4044 11.2757 71.4044 11.5478C71.4044 11.5835 71.3521 14.7484 71.3521 16.9615C71.3521 17.0576 71.3521 17.1625 71.353 17.2739C71.1695 18.2911 70.5744 19.6718 69.9271 19.6718C69.2791 19.6718 68.9734 19.0946 68.9734 16.4562C68.9734 14.9171 69.0192 14.2479 69.0418 13.1347C69.0549 12.4935 69.0802 12.0011 69.0787 11.8894C69.074 11.5467 68.4857 11.374 68.212 11.3102C67.9369 11.2458 67.6979 11.2209 67.5113 11.2316C67.2472 11.2466 67.0603 11.4211 67.0603 11.6612C67.0603 11.7899 67.0617 12.0346 67.0617 12.0346C66.7215 11.4962 66.1744 11.1214 65.8103 11.0128C64.8297 10.7195 63.8065 10.9794 63.0347 12.0671C62.4213 12.9314 62.0515 13.9103 61.906 15.3167C61.7996 16.3449 61.8343 17.3875 62.0234 18.2692C61.7949 19.2642 61.3707 19.6718 60.9062 19.6718C60.2319 19.6718 59.743 18.5633 59.7998 16.646C59.8372 15.385 60.0878 14.5 60.3616 13.2198C60.4784 12.674 60.3835 12.3883 60.1456 12.1144C59.9273 11.8632 59.4623 11.7349 58.7938 11.8927C58.3176 12.0053 57.6368 12.1263 57.0139 12.2192C57.0139 12.2192 57.0515 12.0682 57.0824 11.8019C57.2444 10.4054 55.7377 10.5187 55.257 10.9648C54.9701 11.2311 54.7748 11.5451 54.7006 12.1098C54.5831 13.006 55.3087 13.4286 55.3087 13.4286C55.0706 14.5263 54.487 15.9602 53.8845 16.9969C53.5618 17.5524 53.3149 17.964 52.9962 18.4015C52.995 18.2386 52.9942 18.0757 52.9936 17.9135C52.9863 15.6058 53.0168 13.7895 53.0303 13.1349C53.0434 12.4937 53.0689 12.0144 53.0675 11.9026C53.0639 11.652 52.9185 11.5574 52.6163 11.4375C52.3491 11.3315 52.0331 11.2582 51.7053 11.2326C51.2916 11.2001 51.0424 11.4211 51.0489 11.6824C51.0501 11.7318 51.0501 12.0347 51.0501 12.0347C50.7099 11.4963 50.1627 11.1215 49.7987 11.0129C48.8181 10.7197 47.7949 10.9796 47.0231 12.0672C46.4098 12.9315 46.0081 14.1443 45.8943 15.3061C45.7883 16.3888 45.8079 17.309 45.9524 18.0841C45.7965 18.8603 45.3482 19.6719 44.8413 19.6719C44.1933 19.6719 43.8246 19.0947 43.8246 16.4563C43.8246 14.9172 43.8704 14.248 43.893 13.1349C43.9061 12.4937 43.9314 12.0012 43.9299 11.8896C43.9252 11.5469 43.3369 11.3742 43.0631 11.3103C42.7767 11.2436 42.5294 11.219 42.3396 11.2331C42.089 11.2519 41.9129 11.4779 41.9129 11.6464V12.0347C41.5727 11.4963 41.0255 11.1215 40.6614 11.0129C39.6809 10.7197 38.6633 10.9838 37.8858 12.0672C37.3788 12.7737 36.9684 13.5569 36.7571 15.2907C36.6961 15.7917 36.6691 16.2609 36.6726 16.6994C36.4704 17.9447 35.5775 19.3801 34.847 19.3801C34.4196 19.3801 34.0125 18.545 34.0125 16.7654C34.0125 14.3949 34.1582 11.0198 34.1828 10.6945C34.1828 10.6945 35.1057 10.6787 35.2844 10.6766C35.7448 10.6715 36.1617 10.6825 36.7749 10.6509C37.0824 10.6351 37.3787 9.52349 37.0613 9.38592C36.9174 9.32365 35.9007 9.26909 35.4976 9.26047C35.1587 9.25274 34.2152 9.18241 34.2152 9.18241C34.2152 9.18241 34.2998 6.94216 34.3195 6.70551C34.3363 6.50827 34.0829 6.40672 33.9376 6.3451C33.5843 6.19459 33.2682 6.12253 32.8935 6.04474C32.3759 5.93718 32.141 6.04239 32.0951 6.48242C32.0261 7.15024 31.9903 9.10631 31.9903 9.10631C31.6104 9.10631 30.3128 9.03151 29.9328 9.03151C29.5798 9.03151 29.1987 10.5607 29.6868 10.5795C30.2484 10.6015 31.227 10.6204 31.8758 10.6401C31.8758 10.6401 31.8469 14.0708 31.8469 15.13C31.8469 15.2427 31.8479 15.3512 31.8481 15.4565C31.491 17.331 30.2334 18.3435 30.2334 18.3435C30.5035 17.1034 29.9517 16.1722 28.9579 15.3839C28.5918 15.0934 27.869 14.5435 27.0603 13.9408C27.0603 13.9408 27.5287 13.4759 27.944 12.5405C28.2384 11.8779 28.2511 11.1196 27.5287 10.9524C26.335 10.6759 25.3508 11.5588 25.0572 12.5014C24.8298 13.2316 24.9511 13.7735 25.3967 14.3363C25.4292 14.3775 25.4645 14.4195 25.5009 14.4618C25.2314 14.9849 24.8613 15.6891 24.5478 16.2352C23.6776 17.7515 23.0203 18.9509 22.5235 18.9509C22.1264 18.9509 22.1317 17.7332 22.1317 16.5932C22.1317 15.6103 22.2037 14.1327 22.2613 12.6028C22.2803 12.0969 22.0292 11.8087 21.6081 11.5476C21.3522 11.389 20.8062 11.0772 20.49 11.0772C20.0167 11.0772 18.651 11.142 17.3607 14.9013C17.1981 15.3751 16.8786 16.2385 16.8786 16.2385L16.9061 11.7178C16.9061 11.6118 16.8501 11.5094 16.7217 11.4393C16.5043 11.3203 15.9236 11.0772 15.4072 11.0772C15.1611 11.0772 15.0383 11.1924 15.0383 11.4222L14.9933 18.4948C14.9933 19.0322 15.0072 19.6591 15.06 19.9333C15.1125 20.2078 15.1977 20.4312 15.3031 20.5641C15.4084 20.6967 15.5302 20.7978 15.7311 20.8396C15.918 20.8784 16.9415 21.0107 16.9947 20.6168C17.0584 20.1447 17.0609 19.634 17.5983 17.7295C18.435 14.7644 19.5259 13.3177 20.0388 12.8039C20.1284 12.7141 20.2308 12.7087 20.2259 12.8557C20.204 13.5058 20.127 15.1301 20.0752 16.5102C19.9363 20.2032 20.6033 20.8878 21.5566 20.8878C22.2859 20.8878 23.3139 20.1579 24.4159 18.3105C25.1029 17.1592 25.77 16.0303 26.2493 15.2167C26.5833 15.5281 26.9581 15.8632 27.3326 16.2213C28.2031 17.0533 28.4888 17.844 28.2992 18.594C28.1542 19.1674 27.608 19.7583 26.636 19.184C26.3527 19.0164 26.2318 18.887 25.9469 18.698C25.7938 18.5966 25.5602 18.5662 25.4201 18.6725C25.0561 18.9489 24.848 19.3004 24.7292 19.7356C24.6135 20.1591 25.0346 20.383 25.4711 20.5788C25.847 20.7473 26.6548 20.9 27.17 20.9174C29.1773 20.985 30.7853 19.9412 31.9047 17.2488C32.105 19.5741 32.9578 20.8898 34.4395 20.8898C35.43 20.8898 36.4232 19.6003 36.8575 18.3316C36.9822 18.8488 37.1667 19.2985 37.4051 19.6787C38.5468 21.5006 40.7616 21.1085 41.8741 19.5614C42.2181 19.0834 42.2704 18.9116 42.2704 18.9116C42.4327 20.3724 43.6007 20.8828 44.2694 20.8828C45.0184 20.8828 45.7918 20.5262 46.3338 19.2972C46.3973 19.4306 46.4666 19.558 46.5423 19.6787C47.684 21.5006 49.8988 21.1084 51.0113 19.5614C51.0638 19.4888 51.1093 19.423 51.1491 19.3639L51.1817 20.3234C51.1817 20.3234 50.5471 20.9098 50.1575 21.2695C48.4428 22.854 47.139 24.0561 47.0431 25.4559C46.92 27.2409 48.3573 27.9042 49.4447 27.9912C50.5994 28.0835 51.5883 27.441 52.1961 26.5418C52.7308 25.7504 53.0807 24.0471 53.055 22.3647C53.0448 21.6911 53.028 20.8345 53.0147 19.9163C53.6174 19.2114 54.2964 18.3205 54.9216 17.2777C55.6029 16.1412 56.3331 14.615 56.707 13.4273C56.707 13.4273 57.3414 13.4327 58.0185 13.3881C58.2351 13.3739 58.2973 13.4184 58.2572 13.5783C58.2089 13.7715 57.4018 16.9067 58.1384 18.9952C58.6425 20.425 59.779 20.885 60.4528 20.885C61.2416 20.885 61.9962 20.285 62.4005 19.3942C62.4493 19.4935 62.5002 19.5896 62.5558 19.6783C63.6975 21.5002 65.9045 21.1057 67.0248 19.561C67.2777 19.2125 67.4211 18.9112 67.4211 18.9112C67.6616 20.423 68.8289 20.8901 69.4975 20.8901C70.194 20.8901 70.855 20.6025 71.3913 19.3244C71.4137 19.8872 71.449 20.3473 71.5047 20.4924C71.5387 20.5811 71.7366 20.6925 71.8805 20.7463C72.5177 20.9842 73.1675 20.8717 73.4079 20.8227C73.5745 20.7888 73.7043 20.6542 73.7221 20.3067C73.7688 19.3943 73.7401 17.8613 74.0147 16.722C74.4758 14.8099 74.9058 14.0682 75.1098 13.701C75.2239 13.4953 75.3528 13.4613 75.3574 13.6791C75.3671 14.1196 75.3888 15.4134 75.5674 17.1516C75.6986 18.4299 75.8738 19.1856 76.0084 19.4247C76.3927 20.1086 76.8673 20.1409 77.2538 20.1409C77.4997 20.1409 78.0138 20.0725 77.9678 19.6373C77.9454 19.4252 77.9847 18.1142 78.4392 16.2305C78.736 15.0003 79.2308 13.8888 79.4093 13.4825C79.4751 13.3326 79.5057 13.4507 79.5046 13.4738C79.4671 14.3209 79.3827 17.0919 79.7254 18.6074C80.1899 20.6605 81.5336 20.8902 82.0019 20.8902C83.0015 20.8902 83.819 20.1244 84.0944 18.1092C84.1608 17.6242 84.0626 17.2498 83.7682 17.2498" fill="#262626"/>
</svg>
