<svg width="119" height="32" viewBox="0 0 119 32" fill="none" xmlns="http://www.w3.org/2000/svg">
<path d="M17.7006 8.66411C21.7706 8.66411 25.0857 11.9792 25.0857 16.0821C25.0857 20.1849 21.7706 23.5 17.7006 23.5C13.6305 23.5 10.3154 20.2177 10.3154 16.0821C10.3154 11.9464 13.6305 8.66411 17.7006 8.66411ZM75.5999 8.5V21.4978C75.5999 22.4825 75.9938 22.7451 76.7487 22.942L76.7815 23.1061H72.613V21.4978C72.1207 22.6794 71.1032 23.4015 69.7903 23.4015C67.5583 23.4015 66.0813 21.3665 66.0813 18.3468C66.0813 16.64 66.5736 15.1958 67.4927 14.1127C68.3789 13.0624 69.5933 12.5044 70.9391 12.5044C71.5955 12.5044 72.1535 12.6357 72.613 12.9311V11.1586C72.613 10.7648 72.5146 10.5022 72.3176 10.3053C72.055 10.0755 71.6283 9.97702 70.9719 10.0427H70.9391V9.87856L75.5999 8.5ZM91.4205 12.5372V21.4978C91.4205 22.4825 91.8143 22.7451 92.5693 22.942V23.1061H88.4008V21.465C87.9084 22.6466 86.8253 23.4015 85.6108 23.4015C84.1666 23.4015 83.2476 22.7451 82.8866 21.465L82.8209 21.1368C82.7553 20.8085 82.7224 20.4803 82.7224 20.1521V15.36C82.7224 14.3096 82.4927 13.9814 81.5736 13.9158H81.5408V13.7516L85.7093 12.5372V20.0864C85.7093 21.2024 86.2017 21.826 87.1207 21.826C87.6787 21.826 88.1382 21.5306 88.4008 21.0383V15.36C88.4008 14.2768 88.2038 13.9486 87.4489 13.8829H87.4161V13.7188L91.4205 12.5372ZM61.322 12.5044C62.438 12.5044 63.5211 12.8982 64.2432 13.5875C65.0638 14.3753 65.4905 15.5241 65.5233 17.0339V17.0667H59.2542C59.1229 19.233 60.4686 21.0055 62.241 21.0711C63.5211 21.1696 64.6371 20.3818 65.2607 19.1017L65.4249 19.1674C65.0638 21.5635 63.6524 23.3687 61.1907 23.3687C58.4008 23.3687 56.8253 21.0383 56.7596 18.1171V17.3621C56.8909 16.0821 57.2848 14.9333 57.9741 14.0799C58.4008 13.5547 58.8931 13.1608 59.4839 12.8982C59.9763 12.6357 60.6984 12.5044 61.2892 12.5044H61.322ZM104.747 12.5372C106.519 12.5372 107.602 13.6532 107.602 15.5569V21.6619C107.602 22.384 107.93 22.7451 108.751 22.942H108.784V23.1061H104.582V15.6554C104.582 14.4737 104.156 13.8829 103.269 13.8829C102.547 13.8829 102.186 14.4081 101.989 14.8676C102.022 15.0974 102.055 15.3271 102.055 15.5569V21.7604C102.055 22.5153 102.285 22.7779 102.941 22.942H102.974V23.1061H99.0682V15.6554C99.0682 14.4737 98.6087 13.8829 97.7553 13.8829C97.066 13.8829 96.7049 14.3753 96.5408 14.7691V21.7932C96.5408 22.5481 96.7706 22.8107 97.427 22.9748H97.4599V23.1389H93.554V15.3271C93.554 14.2768 93.2914 13.9486 92.4052 13.8829H92.3723V13.7188L96.5408 12.57V14.3096C96.9675 13.1937 97.9522 12.5372 99.1995 12.5372C100.611 12.5372 101.596 13.2265 101.924 14.4737C102.35 13.2921 103.434 12.5372 104.747 12.5372ZM44.8778 9.15646L48.7837 18.314L52.6896 9.15646H56.8909L56.8581 9.32057L56.8104 9.33118C56.0866 9.49615 55.7093 9.76682 55.7093 10.6663V21.826C55.775 22.5481 56.1688 22.7779 56.8581 22.942H56.8909V23.1061H51.5408V22.942H51.5736C52.2629 22.7779 52.6568 22.5481 52.7224 21.826V10.9617L47.5693 23.0733H47.2739L42.252 11.2899V21.5635C42.252 22.4825 42.6459 22.7451 43.4008 22.9092H43.4336V23.0733H40.3483V22.9092H40.3811C41.136 22.7451 41.5299 22.4825 41.5299 21.5635V10.6663C41.5299 9.74726 41.136 9.48468 40.3811 9.32057H40.3483V9.15646H44.8778ZM80.6874 12.5372V21.4978L80.6879 21.5584C80.704 22.4934 81.097 22.7492 81.8362 22.942L81.8691 23.1061H77.7006V15.36C77.7006 14.3096 77.4708 13.9814 76.5518 13.9158H76.5189V13.7516L80.6874 12.5372ZM29.5167 9.09081C31.5189 9.09081 33.1929 12.2418 33.1929 16.0821C33.1929 19.9551 31.5518 23.0733 29.5167 23.0733C27.4817 23.0733 25.8406 19.9551 25.8406 16.0821C25.8406 12.209 27.4817 9.09081 29.5167 9.09081ZM35.1623 9.81291C35.9172 9.81291 36.4752 12.6357 36.4752 16.0821C36.4752 19.5284 35.8844 22.3512 35.1623 22.3512C34.4474 22.3512 33.8612 19.5846 33.8495 16.1853L33.8493 16.0821C33.8493 12.6357 34.4402 9.81291 35.1623 9.81291ZM71.4314 13.0952C70.1185 13.0952 69.2979 14.8348 69.2979 17.5263C69.2979 18.8063 69.5277 19.9223 69.9216 20.6772C70.2826 21.3993 70.8078 21.7932 71.3986 21.7932C71.9894 21.7932 72.4161 21.5306 72.613 21.0383V13.8173C72.3833 13.3578 71.9566 13.0952 71.4314 13.0952ZM61.2892 13.128C60.1076 13.128 59.4183 14.5394 59.3198 16.5088V16.5416H62.8975C62.9631 14.9989 62.7006 13.9814 62.2082 13.4891C61.9456 13.2593 61.6502 13.128 61.2892 13.128ZM79.0791 8.59847C80.031 8.59847 80.7531 9.32057 80.7531 10.2724C80.7531 11.2243 80.031 11.9464 79.0791 11.9464C78.1273 11.9464 77.4052 11.2243 77.4052 10.2724C77.4052 9.32057 78.1273 8.59847 79.0791 8.59847Z" fill="black"/>
</svg>
