<svg width="226" height="42" viewBox="0 0 226 42" fill="none" xmlns="http://www.w3.org/2000/svg">
<path fill-rule="evenodd" clip-rule="evenodd" d="M53.4981 20.863H59.4082C59.0146 19.3615 57.9364 18.7528 56.6232 18.7528C55.1793 18.7528 54.0221 19.5398 53.4981 20.863ZM62.8756 23.4308H53.2885C53.6821 25.3646 55.3098 26.0772 56.728 26.0772C58.5141 26.0772 59.2777 25.0086 59.2777 25.0086H62.5867C61.5879 27.5515 59.1985 28.9494 56.6233 28.9494C53.0767 28.9494 49.9775 26.3299 49.9775 22.3642C49.9775 18.4215 53.051 15.98 56.5183 15.98C59.8809 15.98 63.2969 18.2432 62.8756 23.4308Z" fill="#5423E7"/>
<path fill-rule="evenodd" clip-rule="evenodd" d="M95.4447 22.4655C95.4447 20.4817 94.2363 18.9308 92.2404 18.9308C90.2429 18.9308 88.9036 20.4817 88.9036 22.4655C88.9036 24.4494 90.2429 26.0003 92.2404 26.0003C94.2363 26.0003 95.4447 24.4494 95.4447 22.4655ZM85.462 22.4903C85.462 18.4215 88.7197 15.98 92.2403 15.98C95.7868 15.98 98.8861 18.4463 98.8861 22.4386C98.8861 26.4829 95.6799 28.9491 92.1336 28.9491C88.5613 28.9491 85.462 26.4829 85.462 22.4903Z" fill="#5423E7"/>
<path fill-rule="evenodd" clip-rule="evenodd" d="M112.948 21.9316V28.823H109.452V22.6935C109.452 22.2608 109.769 19.0571 107.247 18.9311C106.011 18.8544 103.805 19.5147 103.805 22.8468V28.823H100.338V16.1064H103.521L103.531 17.8717C103.531 17.8717 104.966 15.98 107.643 15.98C111.031 15.98 112.948 18.4215 112.948 21.9316Z" fill="#5423E7"/>
<path fill-rule="evenodd" clip-rule="evenodd" d="M125.723 18.6762C124.62 18.6762 124.147 19.2104 124.147 19.7447C124.147 20.6083 125.329 20.863 126.117 21.0163C128.457 21.4986 130.821 22.1862 130.821 24.8801C130.821 27.4998 128.587 28.9494 125.882 28.9494C122.862 28.9494 120.523 27.1705 120.365 24.4744H123.595C123.675 25.2364 124.201 26.2282 125.803 26.2282C127.142 26.2282 127.459 25.543 127.459 25.0086C127.459 24.0664 126.538 23.7868 125.644 23.5838C124.096 23.2525 120.759 22.6438 120.759 19.7447C120.759 17.2516 123.229 15.98 125.777 15.98C128.718 15.98 130.662 17.7092 130.821 19.8461H127.588C127.484 19.4134 127.065 18.6762 125.723 18.6762Z" fill="#5423E7"/>
<path fill-rule="evenodd" clip-rule="evenodd" d="M141.441 22.4655C141.441 20.3534 140.258 19.1088 138.551 19.1088C136.949 19.1088 135.345 20.227 135.345 22.4655C135.345 24.7021 136.949 25.8223 138.551 25.8223C140.258 25.8223 141.441 24.5757 141.441 22.4655ZM144.724 16.1064V33.9087H141.441V27.5762C140.601 28.4915 139.418 28.9491 138.051 28.9491C134.717 28.9491 131.931 26.3049 131.931 22.4655C131.931 18.6242 134.717 15.98 138.051 15.98C140.672 15.98 141.654 17.6832 141.654 17.6832L141.648 16.1064H144.724Z" fill="#5423E7"/>
<path fill-rule="evenodd" clip-rule="evenodd" d="M163.496 20.863H169.406C169.013 19.3615 167.934 18.7528 166.622 18.7528C165.178 18.7528 164.02 19.5398 163.496 20.863ZM172.874 23.4308H163.285C163.681 25.3646 165.308 26.0772 166.726 26.0772C168.512 26.0772 169.276 25.0086 169.276 25.0086H172.585C171.586 27.5515 169.196 28.9494 166.622 28.9494C163.075 28.9494 159.975 26.3299 159.975 22.3642C159.975 18.4215 163.05 15.98 166.517 15.98C169.879 15.98 173.295 18.2432 172.874 23.4308Z" fill="#5423E7"/>
<path fill-rule="evenodd" clip-rule="evenodd" d="M177.453 20.863H183.362C182.969 19.3615 181.891 18.7528 180.578 18.7528C179.134 18.7528 177.977 19.5398 177.453 20.863ZM186.83 23.4308H177.244C177.636 25.3646 179.264 26.0772 180.683 26.0772C182.469 26.0772 183.232 25.0086 183.232 25.0086H186.542C185.542 27.5515 183.153 28.9494 180.578 28.9494C177.032 28.9494 173.932 26.3299 173.932 22.3642C173.932 18.4215 177.005 15.98 180.473 15.98C183.836 15.98 187.251 18.2432 186.83 23.4308Z" fill="#5423E7"/>
<path fill-rule="evenodd" clip-rule="evenodd" d="M198.527 25.9756V28.8227H187.363V27.1436L193.695 18.9558H187.626V16.1064H198.265V17.7856L191.934 25.9756H198.527Z" fill="#5423E7"/>
<path fill-rule="evenodd" clip-rule="evenodd" d="M212.194 16.1064V27.5515C212.194 30.9849 210.38 34.0373 205.889 34.0373C201.686 34.0373 199.401 31.3659 199.401 29.3574H202.684C202.684 29.3574 203.183 31.0615 205.784 31.0615C207.991 31.0615 208.911 29.8396 208.911 28.0608V27.5265C208.331 28.1624 207.23 28.9494 205.26 28.9494C201.818 28.9494 199.664 26.5348 199.664 22.9999L199.636 16.1064H203.052V22.2359C203.052 23.9648 203.684 26.0006 205.863 26.0006C206.992 26.0006 208.857 25.4663 208.857 22.0826V16.1064H212.194Z" fill="#5423E7"/>
<path fill-rule="evenodd" clip-rule="evenodd" d="M47.4773 25.0055C47.4773 25.7985 47.7897 26.1257 48.3694 26.1257C48.7778 26.1257 49.0432 26.0782 49.4301 25.9622L49.6464 28.5755C48.9232 28.8074 48.224 28.9482 47.3319 28.9482C45.2849 28.9482 44.0315 28.2959 44.0315 25.4715V11.0206H47.4773V25.0055Z" fill="#5423E7"/>
<path fill-rule="evenodd" clip-rule="evenodd" d="M83.9794 21.9316V28.823H80.4842V22.6935C80.4842 20.9396 80.6684 18.7261 78.2511 18.9311C77.6224 18.9808 75.8875 19.2601 75.8875 22.8468V28.823H72.4202V22.6935C72.4202 20.9396 72.6041 18.7261 70.1872 18.9311C69.5561 18.9808 67.8236 19.2601 67.8236 22.8468V28.823H64.3562V16.1064H67.5394L67.5423 17.8717C67.5423 17.8717 68.7587 15.98 71.0276 15.98C73.7617 15.98 74.8349 18.0394 74.8349 18.0394C74.8349 18.0394 76.012 15.9553 79.0147 15.9553C82.4287 15.9553 83.9794 18.3968 83.9794 21.9316Z" fill="#5423E7"/>
<path fill-rule="evenodd" clip-rule="evenodd" d="M146.198 22.9979V16.1064H149.693V22.2359C149.693 22.6685 149.377 25.8722 151.899 25.9984C153.135 26.075 155.341 25.4146 155.341 22.0826V16.1064H158.808V28.823H155.629L155.614 27.0577C155.614 27.0577 154.179 28.9494 151.503 28.9494C148.115 28.9494 146.198 26.5079 146.198 22.9979Z" fill="#5423E7"/>
<path fill-rule="evenodd" clip-rule="evenodd" d="M20.0682 23.9867L27.1106 27.2426C27.9835 27.6463 28.5996 28.3239 28.9324 29.1012C29.7739 31.0695 28.6237 33.0825 26.8181 33.8065C25.0121 34.5301 23.0874 34.0644 22.2123 32.0176L19.1474 24.8314C18.9099 24.2744 19.5065 23.727 20.0682 23.9867Z" fill="#FFC233"/>
<path fill-rule="evenodd" clip-rule="evenodd" d="M20.4903 21.879L27.76 19.1309C30.1761 18.2176 32.8153 19.9457 32.7797 22.4565C32.7791 22.4893 32.7785 22.5221 32.7777 22.5551C32.7255 25.0002 30.1597 26.6436 27.7967 25.7786L20.4972 23.1069C19.9149 22.8939 19.9106 22.0981 20.4903 21.879Z" fill="#FFC233"/>
<path fill-rule="evenodd" clip-rule="evenodd" d="M20.0833 20.9271L27.2297 17.8906C29.6044 16.8814 30.2071 13.8526 28.3472 12.1026C28.3228 12.0795 28.2985 12.0568 28.2738 12.034C26.4503 10.3415 23.4359 10.9374 22.3978 13.1667L19.191 20.0543C18.9351 20.6036 19.5134 21.1692 20.0833 20.9271Z" fill="#FFC233"/>
<path fill-rule="evenodd" clip-rule="evenodd" d="M18.2442 19.7272L20.8424 12.603C21.1646 11.7196 21.1049 10.8188 20.7719 10.0415C19.9286 8.07409 17.6447 7.43901 15.8394 8.16407C14.0343 8.8894 13.0143 10.5367 13.8911 12.5827L16.9761 19.761C17.2153 20.3173 18.0371 20.2954 18.2442 19.7272Z" fill="#FFC233"/>
</svg>
