<svg width="48" height="48" viewBox="0 0 48 48" fill="none" xmlns="http://www.w3.org/2000/svg">
<g clip-path="url(#clip0_608_36234)">
<path d="M36.7502 48.0001H17.2502C17.0513 48.0001 16.8606 47.921 16.7199 47.7804C16.5793 47.6397 16.5002 47.449 16.5002 47.2501V37.5001H11.2502C10.256 37.4989 9.3029 37.1034 8.5999 36.4004C7.8969 35.6974 7.50143 34.7443 7.50024 33.7501V30.0001H4.68774C4.23926 30.0002 3.79943 29.8766 3.41669 29.6429C3.03395 29.4091 2.72314 29.0743 2.51849 28.6752C2.31384 28.2762 2.2233 27.8284 2.25682 27.3812C2.29034 26.9339 2.44663 26.5046 2.70849 26.1406L7.50024 17.7976C7.5319 15.3744 8.0505 12.9824 9.0252 10.7637C9.9999 8.54503 11.4108 6.545 13.174 4.88256C14.9628 3.18797 17.0832 1.88238 19.4017 1.04811C21.7202 0.213843 24.1864 -0.131006 26.6447 0.0353074C31.0468 0.352845 35.1829 2.26162 38.2807 5.40527C41.3785 8.54892 43.2264 12.7125 43.4792 17.1188C43.6002 19.4815 43.2515 21.8448 42.4534 24.0719C41.6552 26.299 40.4234 28.3458 38.8292 30.0938C37.9683 31.0478 37.4944 32.2888 37.5002 33.5738V42.7501C37.5002 42.949 37.4212 43.1397 37.2806 43.2804C37.1399 43.421 36.9491 43.5001 36.7502 43.5001C36.5513 43.5001 36.3606 43.421 36.2199 43.2804C36.0793 43.1397 36.0002 42.949 36.0002 42.7501V33.5738C35.9934 31.9154 36.6058 30.3141 37.7177 29.0836C39.179 27.4812 40.3082 25.605 41.0399 23.5636C41.7716 21.5221 42.0914 19.3559 41.9807 17.1901C41.7489 13.1514 40.0552 9.33513 37.2157 6.45382C34.3762 3.57252 30.5851 1.82313 26.5502 1.53231C24.2995 1.38878 22.0431 1.70822 19.9206 2.47088C17.7982 3.23355 15.8546 4.42325 14.2099 5.9665C12.5652 7.50976 11.2544 9.37382 10.3583 11.4435C9.46228 13.5133 9.00007 15.7447 9.00024 18.0001C9.00046 18.1316 8.96606 18.261 8.90049 18.3751L3.98799 26.9251C3.97293 26.9512 3.95614 26.9762 3.93774 27.0001C3.83327 27.1393 3.76966 27.305 3.75402 27.4784C3.73839 27.6518 3.77135 27.8261 3.84921 27.9818C3.92707 28.1375 4.04676 28.2685 4.19486 28.36C4.34297 28.4516 4.51363 28.5001 4.68774 28.5001H8.25024C8.44915 28.5001 8.63991 28.5791 8.78057 28.7197C8.92122 28.8604 9.00024 29.0511 9.00024 29.2501V33.7501C9.00024 34.3468 9.23729 34.9191 9.65925 35.341C10.0812 35.763 10.6535 36.0001 11.2502 36.0001H17.2502C17.4491 36.0001 17.6399 36.0791 17.7806 36.2197C17.9212 36.3604 18.0002 36.5511 18.0002 36.7501V46.5001H36.0002V45.7501C36.0002 45.5511 36.0793 45.3604 36.2199 45.2197C36.3606 45.0791 36.5513 45.0001 36.7502 45.0001C36.9491 45.0001 37.1399 45.0791 37.2806 45.2197C37.4212 45.3604 37.5002 45.5511 37.5002 45.7501V47.2501C37.5002 47.449 37.4212 47.6397 37.2806 47.7804C37.1399 47.921 36.9491 48.0001 36.7502 48.0001Z" fill="#6D4DF2"/>
<path d="M22.5001 29.25C22.3012 29.25 22.1104 29.171 21.9697 29.0303C21.8291 28.8897 21.7501 28.6989 21.7501 28.5V25.998C20.1865 25.3274 18.8549 24.2115 17.9213 22.7892C16.9877 21.3669 16.4934 19.7013 16.5001 18C16.5001 15.6131 17.4483 13.3239 19.1361 11.636C20.8239 9.94821 23.1131 9 25.5001 9C27.887 9 30.1762 9.94821 31.864 11.636C33.5519 13.3239 34.5001 15.6131 34.5001 18C34.5109 19.309 34.2205 20.603 33.6513 21.7817C33.0821 22.9605 32.2493 23.9926 31.2173 24.798C31.1405 24.8615 31.0519 24.9091 30.9565 24.938C30.8611 24.9669 30.7609 24.9765 30.6617 24.9662C30.5626 24.9559 30.4665 24.926 30.3791 24.8781C30.2917 24.8303 30.2146 24.7655 30.1525 24.6875C30.0904 24.6096 30.0445 24.52 30.0174 24.4241C29.9903 24.3282 29.9826 24.2279 29.9947 24.1289C30.0068 24.03 30.0386 23.9345 30.088 23.848C30.1375 23.7614 30.2037 23.6856 30.2828 23.625C31.1369 22.9587 31.8263 22.1048 32.2975 21.1294C32.7687 20.154 33.0091 19.0832 33.0001 18C33.0001 16.0109 32.2099 14.1032 30.8034 12.6967C29.3968 11.2902 27.4892 10.5 25.5001 10.5C23.5109 10.5 21.6033 11.2902 20.1968 12.6967C18.7902 14.1032 18.0001 16.0109 18.0001 18C17.9997 19.4869 18.4578 20.9377 19.3119 22.1547C20.166 23.3717 21.3747 24.2958 22.7731 24.801C22.9137 24.856 23.0345 24.9521 23.1196 25.0768C23.2047 25.2015 23.2502 25.349 23.2501 25.5V27.5393L27.7501 26.4143V25.5C27.7501 25.3011 27.8291 25.1103 27.9697 24.9697C28.1104 24.829 28.3012 24.75 28.5001 24.75C28.699 24.75 28.8897 24.829 29.0304 24.9697C29.1711 25.1103 29.2501 25.3011 29.2501 25.5V27C29.2501 27.1672 29.1942 27.3296 29.0913 27.4614C28.9885 27.5932 28.8445 27.6869 28.6823 27.7275L22.6823 29.2275C22.6227 29.2424 22.5615 29.25 22.5001 29.25Z" fill="#6D4DF2"/>
<path d="M22.5002 31.4998C22.3172 31.4996 22.1407 31.4326 22.0037 31.3113C21.8668 31.19 21.7789 31.0228 21.7566 30.8413C21.7343 30.6597 21.7791 30.4763 21.8826 30.3254C21.9861 30.1746 22.1412 30.0668 22.3187 30.0223L28.3187 28.5223C28.4145 28.4976 28.5142 28.4921 28.6121 28.5061C28.7101 28.5201 28.8043 28.5533 28.8894 28.6039C28.9744 28.6544 29.0486 28.7213 29.1077 28.8007C29.1668 28.88 29.2096 28.9703 29.2336 29.0663C29.2577 29.1623 29.2625 29.262 29.2478 29.3599C29.2331 29.4577 29.1992 29.5517 29.148 29.6364C29.0969 29.7211 29.0294 29.7948 28.9497 29.8533C28.8699 29.9118 28.7793 29.954 28.6832 29.9773L22.6832 31.4773C22.6233 31.4925 22.5619 31.5001 22.5002 31.4998Z" fill="#6D4DF2"/>
<path d="M22.5002 33.7498C22.3172 33.7496 22.1407 33.6826 22.0037 33.5613C21.8668 33.44 21.7789 33.2728 21.7566 33.0913C21.7343 32.9097 21.7791 32.7263 21.8826 32.5754C21.9861 32.4246 22.1412 32.3168 22.3187 32.2723L28.3187 30.7723C28.4145 30.7476 28.5142 30.7421 28.6121 30.7561C28.7101 30.7701 28.8043 30.8033 28.8894 30.8539C28.9744 30.9044 29.0486 30.9713 29.1077 31.0507C29.1668 31.13 29.2096 31.2203 29.2336 31.3163C29.2577 31.4123 29.2625 31.512 29.2478 31.6099C29.2331 31.7077 29.1992 31.8017 29.148 31.8864C29.0969 31.9711 29.0294 32.0448 28.9497 32.1033C28.8699 32.1618 28.7793 32.204 28.6832 32.2273L22.6832 33.7273C22.6233 33.7425 22.5619 33.7501 22.5002 33.7498Z" fill="#6D4DF2"/>
<path d="M25.5 35.25C24.9033 35.25 24.331 35.0129 23.909 34.591C23.4871 34.169 23.25 33.5967 23.25 33C23.25 32.8011 23.329 32.6103 23.4697 32.4697C23.6103 32.329 23.8011 32.25 24 32.25C24.1989 32.25 24.3897 32.329 24.5303 32.4697C24.671 32.6103 24.75 32.8011 24.75 33C24.75 33.1989 24.829 33.3897 24.9697 33.5303C25.1103 33.671 25.3011 33.75 25.5 33.75C25.6989 33.75 25.8897 33.671 26.0303 33.5303C26.171 33.3897 26.25 33.1989 26.25 33V32.25C26.25 32.0511 26.329 31.8603 26.4697 31.7197C26.6103 31.579 26.8011 31.5 27 31.5C27.1989 31.5 27.3897 31.579 27.5303 31.7197C27.671 31.8603 27.75 32.0511 27.75 32.25V33C27.75 33.5967 27.5129 34.169 27.091 34.591C26.669 35.0129 26.0967 35.25 25.5 35.25Z" fill="#6D4DF2"/>
<path d="M26.2497 26.2502H24.7497C24.5868 26.2501 24.4284 26.197 24.2984 26.0989C24.1683 26.0008 24.0738 25.8631 24.029 25.7065L22.529 20.4565C22.4889 20.3165 22.4904 20.168 22.5333 20.0289C22.5763 19.8898 22.6587 19.7662 22.7707 19.6732C22.8826 19.5801 23.0192 19.5217 23.1638 19.505C23.3084 19.4882 23.4547 19.514 23.585 19.579C24.1854 19.8988 24.8311 20.1252 25.4997 20.2502C26.1685 20.1256 26.8143 19.8992 27.4145 19.579C27.5447 19.514 27.691 19.4882 27.8356 19.505C27.9802 19.5217 28.1168 19.5801 28.2288 19.6732C28.3407 19.7662 28.4232 19.8898 28.4661 20.0289C28.509 20.168 28.5105 20.3165 28.4705 20.4565L26.9705 25.7065C26.9257 25.8631 26.8311 26.0008 26.7011 26.0989C26.5711 26.197 26.4126 26.2501 26.2497 26.2502ZM25.3152 24.7502H25.6842L26.603 21.5335C26.2479 21.6595 25.8761 21.7325 25.4997 21.7502C25.1233 21.7325 24.7516 21.6595 24.3965 21.5335L25.3152 24.7502Z" fill="#6D4DF2"/>
<path d="M25.5 7.5C25.3011 7.5 25.1103 7.42098 24.9697 7.28033C24.829 7.13968 24.75 6.94891 24.75 6.75V6C24.75 5.80109 24.829 5.61032 24.9697 5.46967C25.1103 5.32902 25.3011 5.25 25.5 5.25C25.6989 5.25 25.8897 5.32902 26.0303 5.46967C26.171 5.61032 26.25 5.80109 26.25 6V6.75C26.25 6.94891 26.171 7.13968 26.0303 7.28033C25.8897 7.42098 25.6989 7.5 25.5 7.5Z" fill="#6D4DF2"/>
<path d="M19.8753 9.00732C19.7435 9.00745 19.614 8.97286 19.4999 8.90703C19.3857 8.84119 19.2909 8.74645 19.2251 8.63232L18.8501 7.98282C18.8 7.8975 18.7674 7.80312 18.754 7.70512C18.7406 7.60712 18.7467 7.50744 18.772 7.41181C18.7973 7.31619 18.8412 7.22651 18.9013 7.14794C18.9614 7.06937 19.0364 7.00346 19.1221 6.954C19.2077 6.90455 19.3023 6.87252 19.4004 6.85977C19.4985 6.84702 19.5981 6.8538 19.6936 6.87972C19.789 6.90563 19.8784 6.95017 19.9566 7.01077C20.0348 7.07138 20.1002 7.14684 20.1491 7.23282L20.5241 7.88232C20.5899 7.99628 20.6245 8.12554 20.6245 8.25713C20.6246 8.38872 20.59 8.518 20.5243 8.63199C20.4585 8.74598 20.3639 8.84067 20.25 8.90655C20.1361 8.97244 20.0069 9.00719 19.8753 9.00732Z" fill="#6D4DF2"/>
<path d="M15.7563 13.125C15.6247 13.1253 15.4953 13.0906 15.3813 13.0245L14.7318 12.6495C14.6459 12.6007 14.5704 12.5352 14.5098 12.4571C14.4492 12.3789 14.4047 12.2895 14.3787 12.1941C14.3528 12.0986 14.346 11.999 14.3588 11.9009C14.3715 11.8028 14.4036 11.7082 14.453 11.6226C14.5025 11.5369 14.5684 11.4619 14.647 11.4018C14.7255 11.3417 14.8152 11.2978 14.9108 11.2725C15.0065 11.2472 15.1061 11.2411 15.2041 11.2545C15.3021 11.2679 15.3965 11.3005 15.4818 11.3505L16.1313 11.7255C16.2743 11.8081 16.3861 11.9355 16.4492 12.0881C16.5124 12.2406 16.5235 12.4097 16.4808 12.5692C16.438 12.7286 16.3439 12.8695 16.2129 12.9701C16.0819 13.0706 15.9214 13.125 15.7563 13.125Z" fill="#6D4DF2"/>
<path d="M14.25 18.75H13.5C13.3011 18.75 13.1103 18.671 12.9697 18.5303C12.829 18.3897 12.75 18.1989 12.75 18C12.75 17.8011 12.829 17.6103 12.9697 17.4697C13.1103 17.329 13.3011 17.25 13.5 17.25H14.25C14.4489 17.25 14.6397 17.329 14.7803 17.4697C14.921 17.6103 15 17.8011 15 18C15 18.1989 14.921 18.3897 14.7803 18.5303C14.6397 18.671 14.4489 18.75 14.25 18.75Z" fill="#111827"/>
<path d="M15.1084 24.75C14.9433 24.75 14.7828 24.6956 14.6518 24.5951C14.5208 24.4945 14.4267 24.3536 14.384 24.1942C14.3412 24.0347 14.3523 23.8656 14.4155 23.7131C14.4787 23.5605 14.5904 23.4331 14.7334 23.3505L15.3829 22.9755C15.4682 22.9255 15.5626 22.8929 15.6606 22.8795C15.7586 22.8661 15.8583 22.8722 15.9539 22.8975C16.0495 22.9228 16.1392 22.9667 16.2178 23.0268C16.2963 23.0869 16.3622 23.1619 16.4117 23.2476C16.4611 23.3332 16.4932 23.4278 16.5059 23.5259C16.5187 23.624 16.5119 23.7236 16.486 23.8191C16.4601 23.9145 16.4155 24.0039 16.3549 24.0821C16.2943 24.1602 16.2188 24.2257 16.1329 24.2745L15.4834 24.6495C15.3694 24.7154 15.24 24.75 15.1084 24.75Z" fill="#111827"/>
<path d="M35.8911 24.75C35.7595 24.75 35.6301 24.7154 35.5161 24.6495L34.8666 24.2745C34.7806 24.2257 34.7052 24.1602 34.6446 24.0821C34.584 24.0039 34.5394 23.9145 34.5135 23.8191C34.4876 23.7236 34.4808 23.624 34.4936 23.5259C34.5063 23.4278 34.5383 23.3332 34.5878 23.2476C34.6372 23.1619 34.7032 23.0869 34.7817 23.0268C34.8603 22.9667 34.95 22.9228 35.0456 22.8975C35.1412 22.8722 35.2409 22.8661 35.3389 22.8795C35.4369 22.8929 35.5313 22.9255 35.6166 22.9755L36.2661 23.3505C36.4091 23.4331 36.5208 23.5605 36.584 23.7131C36.6472 23.8656 36.6583 24.0347 36.6155 24.1942C36.5728 24.3536 36.4786 24.4945 36.3477 24.5951C36.2167 24.6956 36.0562 24.75 35.8911 24.75Z" fill="#111827"/>
<path d="M37.5 18.75H36.75C36.5511 18.75 36.3603 18.671 36.2197 18.5303C36.079 18.3897 36 18.1989 36 18C36 17.8011 36.079 17.6103 36.2197 17.4697C36.3603 17.329 36.5511 17.25 36.75 17.25H37.5C37.6989 17.25 37.8897 17.329 38.0303 17.4697C38.171 17.6103 38.25 17.8011 38.25 18C38.25 18.1989 38.171 18.3897 38.0303 18.5303C37.8897 18.671 37.6989 18.75 37.5 18.75Z" fill="#111827"/>
<path d="M35.2431 13.125C35.078 13.125 34.9176 13.0706 34.7866 12.9701C34.6556 12.8695 34.5615 12.7286 34.5187 12.5692C34.476 12.4097 34.4871 12.2406 34.5502 12.0881C34.6134 11.9355 34.7252 11.8081 34.8681 11.7255L35.5176 11.3505C35.603 11.3005 35.6973 11.2679 35.7953 11.2545C35.8933 11.2411 35.993 11.2472 36.0886 11.2725C36.1843 11.2978 36.2739 11.3417 36.3525 11.4018C36.4311 11.4619 36.497 11.5369 36.5465 11.6226C36.5959 11.7082 36.6279 11.8028 36.6407 11.9009C36.6534 11.999 36.6467 12.0986 36.6207 12.1941C36.5948 12.2895 36.5503 12.3789 36.4897 12.4571C36.4291 12.5352 36.3536 12.6007 36.2676 12.6495L35.6181 13.0245C35.5042 13.0906 35.3748 13.1253 35.2431 13.125Z" fill="#111827"/>
<path d="M31.1252 9.00732C30.9936 9.00719 30.8644 8.97244 30.7505 8.90655C30.6366 8.84067 30.542 8.74598 30.4763 8.63199C30.4105 8.518 30.3759 8.38872 30.376 8.25713C30.376 8.12554 30.4107 7.99628 30.4765 7.88232L30.8515 7.23282C30.9003 7.14684 30.9658 7.07138 31.0439 7.01077C31.1221 6.95017 31.2115 6.90563 31.3069 6.87972C31.4024 6.8538 31.502 6.84702 31.6001 6.85977C31.6982 6.87252 31.7928 6.90455 31.8785 6.954C31.9641 7.00346 32.0391 7.06937 32.0992 7.14794C32.1593 7.22651 32.2033 7.31619 32.2285 7.41181C32.2538 7.50744 32.2599 7.60712 32.2465 7.70512C32.2331 7.80312 32.2005 7.8975 32.1505 7.98282L31.7755 8.63232C31.7096 8.74645 31.6148 8.84119 31.5006 8.90703C31.3865 8.97286 31.257 9.00745 31.1252 9.00732Z" fill="#111827"/>
</g>
<defs>
<clipPath id="clip0_608_36234">
<rect width="48" height="48" fill="white"/>
</clipPath>
</defs>
</svg>
