<svg width="48" height="48" viewBox="0 0 48 48" fill="none" xmlns="http://www.w3.org/2000/svg">
<path d="M24.0566 44.8596C23.8529 44.8596 23.6576 44.7787 23.5136 44.6347C23.3695 44.4907 23.2886 44.2953 23.2886 44.0916V28.1088H11.1158C10.9823 28.1087 10.8511 28.0737 10.7352 28.0074C10.6193 27.941 10.5226 27.8456 10.4549 27.7305C10.3871 27.6155 10.3505 27.4847 10.3487 27.3512C10.3469 27.2176 10.3799 27.086 10.4446 26.9691L23.3854 3.53703C23.4677 3.38789 23.5973 3.27034 23.7537 3.2029C23.9101 3.13545 24.0845 3.12193 24.2495 3.16445C24.4144 3.20698 24.5606 3.30314 24.6649 3.43781C24.7692 3.57247 24.8258 3.738 24.8258 3.90835V19.8912H36.9986C37.1321 19.8913 37.2634 19.9262 37.3794 19.9925C37.4953 20.0588 37.592 20.1542 37.6598 20.2693C37.7276 20.3844 37.7642 20.5152 37.7661 20.6487C37.7679 20.7823 37.7348 20.914 37.6702 21.0309L24.7294 44.463C24.663 44.5832 24.5655 44.6834 24.4472 44.7532C24.3289 44.823 24.194 44.8597 24.0566 44.8596ZM12.4168 26.5728H24.0566C24.2603 26.5728 24.4556 26.6537 24.5997 26.7977C24.7437 26.9418 24.8246 27.1371 24.8246 27.3408V41.113L35.6968 21.4272H24.0566C23.8529 21.4272 23.6576 21.3463 23.5136 21.2023C23.3695 21.0582 23.2886 20.8629 23.2886 20.6592V6.88743L12.4168 26.5728Z" fill="#6D4DF2"/>
</svg>
