<svg width="67" height="67" viewBox="0 0 67 67" fill="none" xmlns="http://www.w3.org/2000/svg">
<path d="M31.5402 44.957C29.9989 52.8205 28.7492 54.2036 21.6455 55.9101C28.7492 57.6161 29.9989 58.9992 31.5402 66.8632C33.0815 58.9997 34.3312 57.6161 41.4349 55.9101C34.3312 54.2036 33.0815 52.8205 31.5402 44.957Z" fill="#64E1B0"/>
<path d="M44.7089 49.3498C48.1811 31.6345 50.9959 28.5189 66.9998 24.6749C50.9959 20.8315 48.1811 17.7154 44.7089 0C41.2367 17.7154 38.4219 20.831 22.418 24.6749C38.4219 28.5189 41.2367 31.6345 44.7089 49.3498Z" fill="#64E1B0"/>
<path d="M11.2089 46.1666C12.955 37.2582 14.3705 35.6915 22.4178 33.759C14.37 31.8264 12.955 30.2591 11.2089 21.3513C9.46276 30.2597 8.04722 31.8264 0 33.759C8.04722 35.6915 9.46276 37.2582 11.2089 46.1666Z" fill="#64E1B0"/>
</svg>
