<svg width="29" height="38" viewBox="0 0 29 38" fill="none" xmlns="http://www.w3.org/2000/svg">
<path d="M28.2318 21.8261C27.8115 16.3543 25.2639 12.9253 23.0164 9.89942C20.9352 7.0981 19.1378 4.67902 19.1378 1.11053C19.1378 0.823888 18.9773 0.561901 18.7227 0.430549C18.4674 0.298409 18.1606 0.32005 17.9285 0.488736C14.5531 2.90409 11.7367 6.975 10.7529 10.8592C10.0699 13.5634 9.97957 16.6035 9.96689 18.6113C6.8497 17.9456 6.14357 13.2828 6.13612 13.232C6.101 12.9902 5.95324 12.7797 5.73826 12.6648C5.52106 12.5513 5.26574 12.5431 5.04553 12.6521C4.88207 12.7312 1.03331 14.6868 0.809379 22.4949C0.793685 22.7546 0.792969 23.0152 0.792969 23.2757C0.792969 30.8613 6.96536 37.0334 14.5516 37.0334C14.5621 37.0341 14.5732 37.0356 14.5822 37.0334C14.5852 37.0334 14.5881 37.0334 14.5919 37.0334C22.1595 37.0116 28.3102 30.8479 28.3102 23.2757C28.3102 22.8942 28.2318 21.8261 28.2318 21.8261ZM14.5516 35.5047C12.0226 35.5047 9.96538 33.3133 9.96538 30.6195C9.96538 30.5277 9.96467 30.4352 9.97133 30.3217C10.0019 29.1857 10.2177 28.4102 10.4543 27.8944C10.8977 28.8468 11.6904 29.7224 12.9781 29.7224C13.4006 29.7224 13.7425 29.3805 13.7425 28.958C13.7425 27.8698 13.7649 26.6144 14.0359 25.4813C14.277 24.4766 14.8532 23.4077 15.5833 22.5509C15.908 23.6631 16.541 24.5632 17.1591 25.4417C18.0436 26.6986 18.958 27.9982 19.1185 30.2142C19.1282 30.3456 19.1379 30.4777 19.1379 30.6195C19.1378 33.3132 17.0806 35.5047 14.5516 35.5047Z" fill="#6D4DF2"/>
</svg>
