<svg width="83" height="83" viewBox="0 0 83 83" fill="none" xmlns="http://www.w3.org/2000/svg">
<path d="M24.8326 25.8481C24.9743 26.2817 25.4399 26.5195 25.8752 26.3795C26.2227 26.2665 38.6137 25.9443 43.4469 25.5968C47.4788 25.9325 56.8551 26.2479 57.1891 26.3694C57.6176 26.5246 58.0917 26.3036 58.2469 25.8751C58.3177 25.6811 58.4341 25.4618 58.5522 25.2391C58.7496 24.8663 58.952 24.4867 59.0667 24.0532C59.89 20.8968 59.9963 17.2613 58.3295 13.9346C57.0171 11.3181 54.6232 8.92084 50.6402 7.14444C50.6267 7.13769 50.6132 7.13095 50.5997 7.1242V7.12588L50.5964 7.1242L50.5947 7.12757C48.6091 6.24527 46.5172 5.66326 44.3882 5.38322C42.2373 5.09981 40.051 5.12343 37.9017 5.45408C34.8264 5.92643 31.2162 6.98924 28.5761 9.31897C26.5955 11.065 25.1768 13.4993 24.944 16.8851C24.6454 17.5296 24.1325 19.0647 24.1005 21.0874C24.0752 22.4539 24.2523 24.0751 24.8326 25.8481Z" fill="#8F6E4E"/>
<path d="M28.4088 33.2488H25.2677C24.6469 33.2488 24.0851 32.9957 23.6752 32.5875C23.2669 32.1792 23.0139 31.6157 23.0122 30.9916H23.0088V27.0204C23.0088 26.3962 23.2618 25.8327 23.6701 25.4245C24.0783 25.0162 24.6435 24.7632 25.266 24.7632H28.4072C28.8643 24.7632 29.2355 25.1343 29.2355 25.5915V32.4204C29.2372 32.8793 28.866 33.2488 28.4088 33.2488Z" fill="#3B566A"/>
<path d="M57.8201 33.2488H54.6789C54.2217 33.2488 53.8506 32.8776 53.8506 32.4204V25.5915C53.8506 25.1343 54.2217 24.7632 54.6789 24.7632H57.8201C58.4426 24.7632 59.0077 25.0162 59.416 25.4245C59.8242 25.8327 60.0773 26.3979 60.0773 27.0204V30.9916H60.0739C60.0722 31.6157 59.8192 32.1792 59.4109 32.5875C59.0027 32.9974 58.4392 33.2488 57.8201 33.2488Z" fill="#3B566A"/>
<path d="M33.3046 49.1742C33.114 49.0173 32.8542 48.9465 32.5944 49.0055L24.7667 50.8106C20.0668 51.8954 16.0534 54.5288 13.2142 58.0967C10.375 61.6664 8.70996 66.169 8.70996 70.9904V75.6853C8.70996 76.3416 8.97651 76.9371 9.40669 77.3672C9.83687 77.7974 10.4324 78.064 11.0886 78.064H71.9991C72.6554 78.064 73.2509 77.7974 73.6811 77.3672C74.1113 76.9371 74.3778 76.3416 74.3778 75.6853V70.9904C74.3778 66.169 72.7127 61.6664 69.8735 58.0967C67.0343 54.5288 63.021 51.8954 58.321 50.8123L50.4934 49.0072C50.3719 48.9802 50.2521 48.9802 50.1374 49.0039L50.1206 49.0072L50.1138 49.0089L50.1037 49.0123L50.0952 49.014L50.0851 49.0173L50.075 49.0207L50.0666 49.0224L50.0531 49.0275L50.048 49.0292L50.0328 49.0342L50.0295 49.0359L50.0126 49.0427H50.0109L49.994 49.0494L49.9923 49.0511L49.9755 49.0578H49.9738L49.9586 49.0646L49.9552 49.0663L49.94 49.073L49.9384 49.0747L49.9232 49.0815L49.9181 49.0848L49.9046 49.0916L49.9012 49.0933L49.8894 49.1L49.8877 49.1017L49.8743 49.1101L49.8726 49.1118C49.8523 49.1236 49.8338 49.1371 49.8152 49.1506L41.5439 55.2289L33.3046 49.1742Z" fill="#5C9CEE"/>
<path d="M36.9771 78.0636H46.0868L44.3037 62.5585L45.8793 59.2486C46.0733 58.8353 45.8979 58.3427 45.4845 58.1487C40.0659 55.5929 42.448 55.8392 37.5928 58.1504C37.1795 58.3461 37.004 58.8404 37.2014 59.2537L38.7754 62.5619L36.9771 78.0636Z" fill="#EF5350"/>
<path d="M44.3054 62.5604V62.557L45.881 59.2472C46.075 58.8338 45.8996 58.3412 45.4863 58.1472C40.0677 55.5914 42.4497 55.8377 37.5945 58.1489C37.1812 58.3446 37.0058 58.8389 37.2031 59.2522L38.7771 62.5604H44.3054Z" fill="#F27472"/>
<path d="M64.1191 78.0639H65.7758V70.5012C65.7758 70.044 65.4046 69.6729 64.9475 69.6729C64.4903 69.6729 64.1191 70.044 64.1191 70.5012V78.0639Z" fill="#5192E8"/>
<path d="M17.9648 78.0639H19.6215V70.5012C19.6215 70.044 19.2503 69.6729 18.7932 69.6729C18.336 69.6729 17.9648 70.044 17.9648 70.5012V78.0639Z" fill="#5192E8"/>
<path d="M58.972 50.974C58.7561 50.9167 58.5401 50.8627 58.3208 50.8121L50.4932 49.007C50.3717 48.98 50.2519 48.98 50.1372 49.0036L50.1204 49.007L50.1136 49.0087L50.1035 49.0121L50.0951 49.0138L50.0849 49.0171L50.0748 49.0205L50.0664 49.0222L50.0529 49.0273L50.0478 49.0289L50.0326 49.034L50.0293 49.0357L50.0124 49.0424H50.0107L49.9938 49.0492L49.9921 49.0509L49.9753 49.0576H49.9736L49.9601 49.0644L41.0696 55.5778C41.0308 55.6048 40.9937 55.6352 40.96 55.6706C40.8993 55.7314 40.8503 55.7988 40.8115 55.8731L40.8098 55.8764L40.8031 55.8899L40.7997 55.8967L40.7947 55.9068L40.7896 55.9186L40.7879 55.922C40.7441 56.0198 40.7221 56.1244 40.7188 56.229V56.2459V56.2476V56.2628V56.2645V56.2813C40.7221 56.3859 40.7457 56.4888 40.7879 56.5884L40.7896 56.5917L40.7947 56.6035L40.7997 56.6137L40.8031 56.6204L40.8098 56.6339L40.8115 56.6373C40.8503 56.7098 40.8993 56.779 40.96 56.8397C40.9937 56.8735 41.0308 56.9055 41.0696 56.9325L44.3947 59.377L46.608 61.0049C46.6182 61.0133 46.6283 61.0218 46.6384 61.0285L46.6401 61.0268L46.6553 61.0386C46.9741 61.2765 47.352 61.3828 47.7231 61.3609C48.1027 61.3389 48.4755 61.1837 48.7657 60.9037L58.972 50.974Z" fill="#7BAFF2"/>
<path d="M33.1223 49.0592C32.962 48.9867 32.7782 48.9631 32.5943 49.0052L24.7666 50.8103C24.5473 50.8609 24.3297 50.9149 24.1138 50.9723L34.3251 60.9002C34.6153 61.182 34.9864 61.3355 35.3677 61.3574C35.7371 61.3793 36.1167 61.273 36.4356 61.0352L36.4507 61.0234L36.4524 61.0251C36.4626 61.0166 36.4727 61.0099 36.4828 61.0014L38.6961 59.3735L42.0212 56.929C42.06 56.9021 42.0971 56.8717 42.1308 56.8363C42.1916 56.7755 42.2405 56.708 42.2793 56.6338L42.281 56.6304L42.2877 56.617L42.2911 56.6102L42.2962 56.6001L42.3012 56.5883L42.3029 56.5849C42.3468 56.4871 42.3687 56.3825 42.3721 56.2779V56.261V56.2593V56.2441V56.2424V56.2256C42.3687 56.121 42.3451 56.0181 42.3029 55.9185L42.3012 55.9152L42.2962 55.9034L42.2911 55.8932L42.2877 55.8865L42.281 55.873L42.2793 55.8696C42.2405 55.7971 42.1916 55.7279 42.1308 55.6672C42.0971 55.6334 42.06 55.6014 42.0212 55.5744L33.1223 49.0592Z" fill="#7BAFF2"/>
<path d="M32.7785 42.4297C32.3213 42.4297 31.9502 42.8008 31.9502 43.258V43.2597V43.2614V49.1557L41.0414 56.9125C41.0802 56.9412 41.119 56.9665 41.1612 56.9884L41.1645 56.9901L41.178 56.9969L41.1848 57.0002L41.1949 57.0053L41.2067 57.0104L41.2101 57.012C41.3079 57.0559 41.4125 57.0778 41.5171 57.0812H41.534H41.5357H41.5509H41.5526H41.5694C41.674 57.0778 41.7769 57.0542 41.8765 57.012L41.8798 57.0104L41.8916 57.0053L41.9018 57.0002L41.9085 56.9969L41.922 56.9901L41.9254 56.9884C41.9676 56.9665 42.0064 56.9412 42.0452 56.9125L51.1364 49.1574V43.2631V43.2614V43.2597C51.1364 42.8025 50.7652 42.4314 50.308 42.4314C45.1526 42.4314 36.8813 42.4297 32.7785 42.4297Z" fill="#FACBBF"/>
<path d="M32.7785 42.4297C32.3213 42.4297 31.9502 42.8008 31.9502 43.258V43.2597V43.2614V45.2756C34.6511 47.4755 38.0217 48.6834 41.5441 48.6834C45.0666 48.6834 48.4372 47.4755 51.138 45.2756V43.2631V43.2614V43.2597C51.138 42.8025 50.7669 42.4314 50.3097 42.4314C45.1526 42.4314 36.8813 42.4297 32.7785 42.4297Z" fill="#FBB7AC"/>
<path d="M55.507 22.4996V33.4786C55.507 37.335 53.9432 40.8254 51.4178 43.3525C48.8906 45.8797 45.4003 47.4418 41.5438 47.4418C37.6873 47.4418 34.1969 45.878 31.6698 43.3525C29.1427 40.8254 27.5806 37.335 27.5806 33.4786V22.4996C27.5806 22.2854 27.616 22.0711 27.6818 21.8653C27.8201 21.4335 28.0883 21.0691 28.4359 20.816C28.7868 20.5596 29.2136 20.4111 29.664 20.4111C29.8648 20.4111 30.0773 20.4432 30.2966 20.514C31.8267 20.9999 33.62 21.3896 35.5584 21.6578C37.4512 21.9193 39.484 22.0627 41.5472 22.0627C43.6087 22.0627 45.6415 21.9193 47.5343 21.6578C49.471 21.3896 51.2642 20.9999 52.7927 20.514C53.012 20.4449 53.2228 20.4111 53.4253 20.4111C53.8757 20.4111 54.3025 20.5596 54.6534 20.816C54.9992 21.0691 55.2692 21.4335 55.4075 21.8653C55.4716 22.0711 55.507 22.2854 55.507 22.4996Z" fill="#FACBBF"/>
<path d="M59.0956 32.3498C59.0956 31.8926 58.7244 31.5215 58.2672 31.5215C57.8101 31.5215 57.4389 31.8926 57.4389 32.3498V36.5032C57.4389 36.741 57.3428 36.9553 57.1859 37.1122C57.0307 37.2674 56.8147 37.3652 56.5769 37.3652V37.3686H53.8051V37.3652H48.2263C47.7691 37.3652 47.3979 37.7364 47.3979 38.1935C47.3979 38.6507 47.7691 39.0218 48.2263 39.0218H53.8051V39.0185H56.5769V39.0218C57.2719 39.0218 57.9012 38.7401 58.3567 38.2846C58.8121 37.8291 59.0939 37.1999 59.0939 36.5049V32.3498H59.0956Z" fill="#3B566A"/>
<path d="M46.4262 40.8202H42.3639C41.6385 40.8202 40.9823 40.5267 40.5066 40.0509C40.0308 39.5752 39.7373 38.9189 39.7373 38.1935C39.7373 37.4681 40.0308 36.8119 40.5066 36.3362C40.9823 35.8604 41.6385 35.5669 42.3639 35.5669H46.4262C47.1516 35.5669 47.8079 35.8604 48.2836 36.3362C48.7593 36.8119 49.0529 37.4681 49.0529 38.1935V38.1969C49.0529 38.9189 48.7577 39.5752 48.2802 40.0509C47.8079 40.5233 47.1533 40.8151 46.4279 40.8168V40.8202H46.4262Z" fill="#304556"/>
</svg>
