<svg width="48" height="48" viewBox="0 0 48 48" fill="none" xmlns="http://www.w3.org/2000/svg">
<g clip-path="url(#clip0_208_1080)">
<path d="M26.2432 21.7499C26.0858 21.7499 25.9323 21.7004 25.8046 21.6084C25.6769 21.5163 25.5814 21.3865 25.5317 21.2371C25.4819 21.0878 25.4803 20.9266 25.5273 20.7763C25.5742 20.6261 25.6672 20.4944 25.7932 20.3999C27.9064 18.82 29.3464 16.5014 29.8257 13.9066C30.305 11.3119 29.7885 8.6319 28.3792 6.4012C28.3236 6.31803 28.2852 6.22458 28.2663 6.12635C28.2474 6.02813 28.2483 5.92711 28.269 5.82925C28.2897 5.73138 28.3298 5.63865 28.3869 5.55651C28.4439 5.47436 28.5169 5.40447 28.6014 5.35093C28.6859 5.2974 28.7802 5.26131 28.8789 5.24479C28.9776 5.22828 29.0785 5.23166 29.1758 5.25475C29.2732 5.27783 29.3649 5.32016 29.4456 5.37923C29.5264 5.4383 29.5945 5.51292 29.6459 5.5987C31.2572 8.14813 31.8481 11.2113 31.3008 14.1771C30.7535 17.143 29.1082 19.7935 26.6932 21.5999C26.5633 21.6973 26.4054 21.7499 26.2432 21.7499Z" fill="white"/>
<path d="M15.0001 23.0609C14.8968 23.0609 14.7946 23.0395 14.7001 22.9979C13.1059 22.3049 11.6813 21.2738 10.5249 19.9759C9.36853 18.6781 8.5079 17.1445 8.00259 15.4813C7.49727 13.818 7.35934 12.0649 7.59833 10.3431C7.83733 8.62128 8.44754 6.97197 9.38676 5.50925C10.326 4.04652 11.5718 2.80531 13.0379 1.87149C14.5041 0.93767 16.1557 0.333535 17.8783 0.100883C19.601 -0.131768 21.3536 0.012619 23.015 0.524055C24.6763 1.03549 26.2067 1.90177 27.5003 3.06294C27.5769 3.1277 27.6398 3.20716 27.6851 3.29663C27.7305 3.3861 27.7574 3.48376 27.7644 3.58383C27.7713 3.68391 27.7581 3.78435 27.7256 3.87923C27.693 3.97411 27.6417 4.06149 27.5748 4.1362C27.5079 4.21091 27.4266 4.27144 27.3359 4.3142C27.2451 4.35695 27.1467 4.38107 27.0465 4.38513C26.9463 4.38918 26.8462 4.37309 26.7523 4.3378C26.6584 4.30252 26.5726 4.24875 26.4998 4.17969C25.3678 3.16407 24.0287 2.40648 22.5751 1.95933C21.1215 1.51217 19.5881 1.38612 18.081 1.58989C16.5739 1.79366 15.129 2.3224 13.8463 3.13952C12.5637 3.95665 11.4738 5.04265 10.6522 6.32242C9.83052 7.60219 9.29668 9.04517 9.08758 10.5516C8.87848 12.0579 8.99911 13.5918 9.44113 15.047C9.88314 16.5021 10.636 17.8439 11.6476 18.9795C12.6592 20.1151 13.9054 21.0174 15.3001 21.6239C15.4578 21.693 15.5869 21.8142 15.6658 21.9672C15.7447 22.1202 15.7685 22.2957 15.7334 22.4642C15.6982 22.6327 15.6061 22.784 15.4726 22.8927C15.3391 23.0013 15.1722 23.0607 15.0001 23.0609Z" fill="white"/>
<path d="M23.9998 19.662C23.8382 19.6621 23.6809 19.61 23.5513 19.5135C23.4216 19.417 23.3267 19.2812 23.2805 19.1264C23.2343 18.9715 23.2393 18.8059 23.2949 18.6541C23.3504 18.5024 23.4535 18.3726 23.5888 18.2842C24.9441 17.4025 25.9783 16.1064 26.537 14.5891C27.0957 13.0718 27.1492 11.4146 26.6893 9.86444C26.2295 8.31431 25.281 6.95428 23.9853 5.98711C22.6895 5.01993 21.1159 4.49739 19.499 4.49739C17.8821 4.49739 16.3085 5.01993 15.0128 5.98711C13.717 6.95428 12.7686 8.31431 12.3087 9.86444C11.8489 11.4146 11.9023 13.0718 12.4611 14.5891C13.0198 16.1064 14.0539 17.4025 15.4093 18.2842C15.5725 18.3944 15.6859 18.5644 15.7249 18.7575C15.7638 18.9506 15.7252 19.1512 15.6175 19.3161C15.5097 19.481 15.3414 19.5969 15.1489 19.6387C14.9565 19.6806 14.7552 19.645 14.5888 19.5397C12.9629 18.4813 11.7226 16.9258 11.0527 15.1051C10.3827 13.2844 10.319 11.296 10.8711 9.43619C11.4231 7.57637 12.5614 5.94472 14.1161 4.78439C15.6709 3.62407 17.559 2.99719 19.499 2.99719C21.439 2.99719 23.3271 3.62407 24.8819 4.78439C26.4367 5.94472 27.5749 7.57637 28.127 9.43619C28.679 11.296 28.6153 13.2844 27.9454 15.1051C27.2754 16.9258 26.0351 18.4813 24.4093 19.5397C24.2875 19.6193 24.1452 19.6618 23.9998 19.662Z" fill="white"/>
<path d="M14.9998 15.4552C14.8705 15.4554 14.7434 15.4221 14.6308 15.3586C14.5182 15.2952 14.4239 15.2037 14.357 15.093C13.8096 14.1826 13.5137 13.1433 13.4996 12.0811C13.4854 11.0189 13.7535 9.97204 14.2764 9.04741C14.7993 8.12277 15.5584 7.35355 16.476 6.81833C17.3935 6.28312 18.4368 6.0011 19.499 6.0011C20.5613 6.0011 21.6045 6.28312 22.5221 6.81833C23.4397 7.35355 24.1987 8.12277 24.7216 9.04741C25.2446 9.97204 25.5127 11.0189 25.4985 12.0811C25.4843 13.1433 25.1884 14.1826 24.641 15.093C24.5919 15.1807 24.5257 15.2576 24.4462 15.3191C24.3668 15.3807 24.2758 15.4257 24.1787 15.4514C24.0815 15.4771 23.9802 15.4831 23.8807 15.4689C23.7812 15.4547 23.6856 15.4206 23.5995 15.3687C23.5135 15.3168 23.4387 15.2482 23.3797 15.1668C23.3207 15.0855 23.2786 14.9931 23.256 14.8952C23.2334 14.7973 23.2306 14.6958 23.248 14.5968C23.2654 14.4979 23.3024 14.4034 23.357 14.319C23.767 13.6362 23.9884 12.8568 23.9987 12.0604C24.0089 11.264 23.8076 10.4792 23.4153 9.78603C23.023 9.0929 22.4537 8.5163 21.7657 8.11513C21.0777 7.71395 20.2955 7.50257 19.499 7.50257C18.7026 7.50257 17.9204 7.71395 17.2324 8.11513C16.5443 8.5163 15.9751 9.0929 15.5828 9.78603C15.1905 10.4792 14.9892 11.264 14.9994 12.0604C15.0096 12.8568 15.231 13.6362 15.641 14.319C15.7093 14.4327 15.7463 14.5624 15.7481 14.695C15.7499 14.8277 15.7165 14.9584 15.6513 15.0739C15.5861 15.1894 15.4915 15.2855 15.377 15.3525C15.2626 15.4195 15.1324 15.455 14.9998 15.4552Z" fill="white"/>
<path d="M30.75 28.5C30.5511 28.5 30.3603 28.421 30.2197 28.2803C30.079 28.1397 30 27.9489 30 27.75V25.5C30 25.1022 29.842 24.7206 29.5607 24.4393C29.2794 24.158 28.8978 24 28.5 24C28.1022 24 27.7206 24.158 27.4393 24.4393C27.158 24.7206 27 25.1022 27 25.5V27.75C27 27.9489 26.921 28.1397 26.7803 28.2803C26.6397 28.421 26.4489 28.5 26.25 28.5C26.0511 28.5 25.8603 28.421 25.7197 28.2803C25.579 28.1397 25.5 27.9489 25.5 27.75V25.5C25.5 24.7044 25.8161 23.9413 26.3787 23.3787C26.9413 22.8161 27.7044 22.5 28.5 22.5C29.2956 22.5 30.0587 22.8161 30.6213 23.3787C31.1839 23.9413 31.5 24.7044 31.5 25.5V27.75C31.5 27.9489 31.421 28.1397 31.2803 28.2803C31.1397 28.421 30.9489 28.5 30.75 28.5Z" fill="white"/>
<path d="M26.25 28.5C26.0511 28.5 25.8603 28.421 25.7197 28.2803C25.579 28.1397 25.5 27.9489 25.5 27.75V24.75C25.5 24.3522 25.342 23.9706 25.0607 23.6893C24.7794 23.408 24.3978 23.25 24 23.25C23.6022 23.25 23.2206 23.408 22.9393 23.6893C22.658 23.9706 22.5 24.3522 22.5 24.75V27.75C22.5 27.9489 22.421 28.1397 22.2803 28.2803C22.1397 28.421 21.9489 28.5 21.75 28.5C21.5511 28.5 21.3603 28.421 21.2197 28.2803C21.079 28.1397 21 27.9489 21 27.75V24.75C21 23.9544 21.3161 23.1913 21.8787 22.6287C22.4413 22.0661 23.2044 21.75 24 21.75C24.7956 21.75 25.5587 22.0661 26.1213 22.6287C26.6839 23.1913 27 23.9544 27 24.75V27.75C27 27.9489 26.921 28.1397 26.7803 28.2803C26.6397 28.421 26.4489 28.5 26.25 28.5Z" fill="white"/>
<path d="M18.75 42C18.5975 42.0001 18.4487 41.9536 18.3233 41.867C18.1978 41.7803 18.1018 41.6574 18.048 41.5148C18.027 41.4585 15.897 35.9587 11.1953 35.25H8.25001C7.65327 35.25 7.08097 35.0129 6.65902 34.591C6.23706 34.169 6.00001 33.5967 6.00001 33V32.0408C5.99841 31.4607 6.22214 30.9027 6.62401 30.4845C7.21988 29.8569 7.93737 29.3572 8.73272 29.016C9.52806 28.6748 10.3846 28.4993 11.25 28.5C13.014 28.5234 14.7718 28.7135 16.5 29.0677V12C16.5 11.2044 16.8161 10.4413 17.3787 9.87868C17.9413 9.31607 18.7044 9 19.5 9C20.2957 9 21.0587 9.31607 21.6213 9.87868C22.1839 10.4413 22.5 11.2044 22.5 12V27.75C22.5 27.9489 22.421 28.1397 22.2803 28.2803C22.1397 28.421 21.9489 28.5 21.75 28.5C21.5511 28.5 21.3603 28.421 21.2197 28.2803C21.079 28.1397 21 27.9489 21 27.75V12C21 11.6022 20.842 11.2206 20.5607 10.9393C20.2794 10.658 19.8978 10.5 19.5 10.5C19.1022 10.5 18.7207 10.658 18.4393 10.9393C18.158 11.2206 18 11.6022 18 12V30C18 30.1139 17.974 30.2263 17.924 30.3287C17.8741 30.4311 17.8014 30.5208 17.7116 30.5909C17.6219 30.661 17.5173 30.7098 17.4058 30.7334C17.2944 30.7571 17.179 30.7551 17.0685 30.7275C15.16 30.2808 13.2097 30.0369 11.25 30C10.5871 29.9999 9.93107 30.1347 9.32195 30.3964C8.71282 30.658 8.16335 31.0409 7.70701 31.5217C7.57374 31.6616 7.49958 31.8475 7.50001 32.0408V33C7.50001 33.1989 7.57903 33.3897 7.71968 33.5303C7.86033 33.671 8.0511 33.75 8.25001 33.75H11.25C11.2856 33.7499 11.3212 33.7524 11.3565 33.7575C16.9815 34.5615 19.3545 40.7242 19.4565 40.9867C19.4992 41.1006 19.5135 41.223 19.4984 41.3436C19.4832 41.4642 19.439 41.5793 19.3694 41.679C19.2999 41.7787 19.2072 41.86 19.0993 41.9159C18.9914 41.9718 18.8715 42.0007 18.75 42Z" fill="white"/>
<path d="M35.25 48H17.25C17.0511 48 16.8603 47.921 16.7197 47.7803C16.579 47.6397 16.5 47.4489 16.5 47.25V41.25C16.5 41.0511 16.579 40.8603 16.7197 40.7197C16.8603 40.579 17.0511 40.5 17.25 40.5H35.25C35.4489 40.5 35.6397 40.579 35.7803 40.7197C35.921 40.8603 36 41.0511 36 41.25V42C36 42.1989 35.921 42.3897 35.7803 42.5303C35.6397 42.671 35.4489 42.75 35.25 42.75C35.0511 42.75 34.8603 42.671 34.7197 42.5303C34.579 42.3897 34.5 42.1989 34.5 42H18V46.5H34.5V45C34.5 44.8011 34.579 44.6103 34.7197 44.4697C34.8603 44.329 35.0511 44.25 35.25 44.25C35.4489 44.25 35.6397 44.329 35.7803 44.4697C35.921 44.6103 36 44.8011 36 45V47.25C36 47.4489 35.921 47.6397 35.7803 47.7803C35.6397 47.921 35.4489 48 35.25 48Z" fill="white"/>
<path d="M33.7501 42C33.6223 41.9999 33.4966 41.9672 33.385 41.9049C33.2734 41.8427 33.1796 41.7529 33.1124 41.6442C33.0453 41.5355 33.007 41.4114 33.0012 41.2837C32.9955 41.1561 33.0225 41.0291 33.0796 40.9148L34.5001 38.073V30C34.5001 29.8011 34.5791 29.6103 34.7198 29.4697C34.8604 29.329 35.0512 29.25 35.2501 29.25C35.449 29.25 35.6398 29.329 35.7804 29.4697C35.9211 29.6103 36.0001 29.8011 36.0001 30V38.25C36.0014 38.366 35.9757 38.4808 35.9251 38.5852L34.4251 41.5852C34.3625 41.7105 34.2661 41.8157 34.1468 41.889C34.0275 41.9623 33.8901 42.0008 33.7501 42Z" fill="white"/>
<path d="M35.25 30.75C35.0511 30.75 34.8603 30.671 34.7197 30.5303C34.579 30.3897 34.5 30.1989 34.5 30V27C34.5 26.6022 34.342 26.2206 34.0607 25.9393C33.7794 25.658 33.3978 25.5 33 25.5C32.6022 25.5 32.2206 25.658 31.9393 25.9393C31.658 26.2206 31.5 26.6022 31.5 27V27.75C31.5 27.9489 31.421 28.1397 31.2803 28.2803C31.1397 28.421 30.9489 28.5 30.75 28.5C30.5511 28.5 30.3603 28.421 30.2197 28.2803C30.079 28.1397 30 27.9489 30 27.75V27C30 26.2044 30.3161 25.4413 30.8787 24.8787C31.4413 24.3161 32.2044 24 33 24C33.7956 24 34.5587 24.3161 35.1213 24.8787C35.6839 25.4413 36 26.2044 36 27V30C36 30.1989 35.921 30.3897 35.7803 30.5303C35.6397 30.671 35.4489 30.75 35.25 30.75Z" fill="white"/>
<path d="M39 20.25C38.2044 20.25 37.4413 19.9339 36.8787 19.3713C36.3161 18.8087 36 18.0457 36 17.25C36 17.0511 36.079 16.8603 36.2197 16.7197C36.3603 16.579 36.5511 16.5 36.75 16.5C36.9489 16.5 37.1397 16.579 37.2803 16.7197C37.421 16.8603 37.5 17.0511 37.5 17.25C37.5 17.5467 37.588 17.8367 37.7528 18.0834C37.9176 18.33 38.1519 18.5223 38.426 18.6358C38.7001 18.7494 39.0017 18.7791 39.2926 18.7212C39.5836 18.6633 39.8509 18.5204 40.0607 18.3107C40.2704 18.1009 40.4133 17.8336 40.4712 17.5426C40.5291 17.2517 40.4994 16.9501 40.3858 16.676C40.2723 16.4019 40.08 16.1676 39.8334 16.0028C39.5867 15.838 39.2967 15.75 39 15.75C38.4067 15.75 37.8266 15.5741 37.3333 15.2444C36.8399 14.9148 36.4554 14.4462 36.2284 13.8981C36.0013 13.3499 35.9419 12.7467 36.0576 12.1647C36.1734 11.5828 36.4591 11.0482 36.8787 10.6287C37.2982 10.2091 37.8328 9.9234 38.4147 9.80765C38.9967 9.69189 39.5999 9.7513 40.1481 9.97836C40.6962 10.2054 41.1648 10.5899 41.4944 11.0833C41.8241 11.5766 42 12.1567 42 12.75C42 12.9489 41.921 13.1397 41.7803 13.2803C41.6397 13.421 41.4489 13.5 41.25 13.5C41.0511 13.5 40.8603 13.421 40.7197 13.2803C40.579 13.1397 40.5 12.9489 40.5 12.75C40.5 12.4533 40.412 12.1633 40.2472 11.9166C40.0824 11.67 39.8481 11.4777 39.574 11.3642C39.2999 11.2507 38.9983 11.2209 38.7074 11.2788C38.4164 11.3367 38.1491 11.4796 37.9393 11.6893C37.7296 11.8991 37.5867 12.1664 37.5288 12.4574C37.4709 12.7483 37.5007 13.0499 37.6142 13.324C37.7277 13.5981 37.92 13.8324 38.1666 13.9972C38.4133 14.162 38.7033 14.25 39 14.25C39.7957 14.25 40.5587 14.5661 41.1213 15.1287C41.6839 15.6913 42 16.4544 42 17.25C42 18.0457 41.6839 18.8087 41.1213 19.3713C40.5587 19.9339 39.7957 20.25 39 20.25Z" fill="white"/>
<path d="M39 11.25C38.8011 11.25 38.6103 11.171 38.4697 11.0303C38.329 10.8897 38.25 10.6989 38.25 10.5V9C38.25 8.80109 38.329 8.61032 38.4697 8.46967C38.6103 8.32902 38.8011 8.25 39 8.25C39.1989 8.25 39.3897 8.32902 39.5303 8.46967C39.671 8.61032 39.75 8.80109 39.75 9V10.5C39.75 10.6989 39.671 10.8897 39.5303 11.0303C39.3897 11.171 39.1989 11.25 39 11.25Z" fill="white"/>
<path d="M39 21.75C38.8011 21.75 38.6103 21.671 38.4697 21.5303C38.329 21.3897 38.25 21.1989 38.25 21V19.5C38.25 19.3011 38.329 19.1103 38.4697 18.9697C38.6103 18.829 38.8011 18.75 39 18.75C39.1989 18.75 39.3897 18.829 39.5303 18.9697C39.671 19.1103 39.75 19.3011 39.75 19.5V21C39.75 21.1989 39.671 21.3897 39.5303 21.5303C39.3897 21.671 39.1989 21.75 39 21.75Z" fill="white"/>
</g>
<defs>
<clipPath id="clip0_208_1080">
<rect width="48" height="48" fill="white"/>
</clipPath>
</defs>
</svg>
