<svg width="48" height="48" viewBox="0 0 48 48" fill="none" xmlns="http://www.w3.org/2000/svg">
<g clip-path="url(#clip0_208_1038)">
<path d="M27.75 38.25H20.25C20.134 38.2513 20.0192 38.2256 19.9147 38.175C16.596 36.5115 16.5 29.988 16.5 29.25V9.75C16.5 5.63925 22.0447 0 24 0C25.9552 0 31.5 5.63925 31.5 9.75V12C31.5 12.1989 31.421 12.3897 31.2803 12.5303C31.1397 12.671 30.9489 12.75 30.75 12.75C30.5511 12.75 30.3603 12.671 30.2197 12.5303C30.079 12.3897 30 12.1989 30 12V9.75C30 6.31725 25.0335 1.56675 24 1.5C22.9703 1.56675 18 6.31725 18 9.75V29.25C18 30.9585 18.45 35.55 20.4412 36.75H27.5587C29.5567 35.55 30 30.9585 30 29.25V15C30 14.8011 30.079 14.6103 30.2197 14.4697C30.3603 14.329 30.5511 14.25 30.75 14.25C30.9489 14.25 31.1397 14.329 31.2803 14.4697C31.421 14.6103 31.5 14.8011 31.5 15V29.25C31.5 29.988 31.404 36.5115 28.0852 38.175C27.9808 38.2256 27.866 38.2513 27.75 38.25Z" fill="white"/>
<path d="M24.0002 27C23.2529 27.0001 22.5174 26.8141 21.86 26.4589C21.2026 26.1036 20.6441 25.5902 20.2347 24.965C19.8254 24.3399 19.5782 23.6226 19.5154 22.878C19.4526 22.1334 19.5763 21.3849 19.8752 20.7C19.9125 20.6068 19.9682 20.522 20.039 20.4507C20.1097 20.3794 20.194 20.323 20.2869 20.2849C20.3799 20.2468 20.4795 20.2278 20.5799 20.2289C20.6803 20.2301 20.7795 20.2514 20.8716 20.2916C20.9636 20.3317 21.0466 20.39 21.1157 20.4629C21.1848 20.5358 21.2386 20.6218 21.2738 20.7159C21.309 20.8099 21.325 20.9101 21.3208 21.0104C21.3165 21.1108 21.2922 21.2092 21.2492 21.3C20.9697 21.9405 20.9225 22.6585 21.1159 23.3301C21.3093 24.0016 21.7311 24.5846 22.3084 24.9784C22.8858 25.3721 23.5825 25.552 24.2783 25.4869C24.9741 25.4218 25.6253 25.1158 26.1196 24.6217C26.6139 24.1277 26.9202 23.4766 26.9856 22.7808C27.051 22.0851 26.8715 21.3883 26.478 20.8107C26.0845 20.2332 25.5018 19.8112 24.8303 19.6175C24.1589 19.4238 23.4408 19.4705 22.8002 19.7497C22.6181 19.8281 22.4124 19.8311 22.2281 19.7583C22.0437 19.6854 21.8957 19.5425 21.8164 19.3608C21.7371 19.1791 21.733 18.9734 21.8049 18.7887C21.8768 18.604 22.0189 18.4552 22.2002 18.375C22.8133 18.1077 23.4782 17.9804 24.1467 18.0024C24.8152 18.0244 25.4703 18.1952 26.0645 18.5022C26.6587 18.8093 27.1769 19.2449 27.5816 19.7774C27.9862 20.3099 28.2671 20.926 28.4037 21.5807C28.5404 22.2354 28.5293 22.9123 28.3715 23.5623C28.2136 24.2122 27.9128 24.8187 27.491 25.3378C27.0693 25.8569 26.5371 26.2754 25.9332 26.5629C25.3294 26.8505 24.669 26.9998 24.0002 27Z" fill="white"/>
<path d="M24 12C19.2442 12 16.821 9.63153 16.7197 9.53028L17.775 8.46753C17.796 8.48703 19.8975 10.5 24 10.5C28.1025 10.5 30.2017 8.48703 30.225 8.46753L31.2825 9.53028C31.179 9.63153 28.7557 12 24 12Z" fill="white"/>
<path d="M27.75 40.5H20.25C20.0511 40.5 19.8603 40.421 19.7197 40.2803C19.579 40.1397 19.5 39.9489 19.5 39.75V37.5C19.5 37.3011 19.579 37.1103 19.7197 36.9697C19.8603 36.829 20.0511 36.75 20.25 36.75H27.75C27.9489 36.75 28.1397 36.829 28.2803 36.9697C28.421 37.1103 28.5 37.3011 28.5 37.5V39.75C28.5 39.9489 28.421 40.1397 28.2803 40.2803C28.1397 40.421 27.9489 40.5 27.75 40.5ZM21 39H27V38.25H21V39Z" fill="white"/>
<path d="M36 35.25H30V33.75H35.25V32.25C35.25 23.175 30.591 21.7343 30.5445 21.7208L30.9555 20.2793C31.1925 20.346 36.75 22.05 36.75 32.25V34.5C36.75 34.699 36.671 34.8897 36.5303 35.0304C36.3897 35.171 36.1989 35.25 36 35.25Z" fill="white"/>
<path d="M18 35.25H12C11.8011 35.25 11.6103 35.171 11.4697 35.0304C11.329 34.8897 11.25 34.699 11.25 34.5V32.25C11.25 22.05 16.8075 20.346 17.0445 20.2793L17.4555 21.7208L17.25 21L17.4623 21.7193C17.2695 21.7785 12.75 23.2613 12.75 32.25V33.75H18V35.25Z" fill="white"/>
<path d="M17.25 43.5C17.0511 43.5 16.8603 43.421 16.7197 43.2803C16.579 43.1397 16.5 42.9489 16.5 42.75C16.5012 41.7558 16.8967 40.8027 17.5997 40.0997C18.3027 39.3967 19.2558 39.0012 20.25 39C20.4489 39 20.6397 39.079 20.7803 39.2197C20.921 39.3603 21 39.5511 21 39.75C21 39.9489 20.921 40.1397 20.7803 40.2803C20.6397 40.421 20.4489 40.5 20.25 40.5C19.6533 40.5 19.081 40.7371 18.659 41.159C18.2371 41.581 18 42.1533 18 42.75C18 42.9489 17.921 43.1397 17.7803 43.2803C17.6397 43.421 17.4489 43.5 17.25 43.5Z" fill="white"/>
<path d="M17.4002 42C17.2685 42 17.1392 41.9653 17.0252 41.8995C16.9112 41.8337 16.8165 41.739 16.7507 41.625C16.4201 41.0556 15.946 40.5828 15.3756 40.2538C14.8053 39.9248 14.1586 39.7511 13.5002 39.75C12.8615 39.7504 12.235 39.9252 11.6885 40.2557C11.1419 40.5861 10.696 41.0596 10.3989 41.625C10.3521 41.7146 10.2875 41.7938 10.2092 41.8579C10.1309 41.9219 10.0405 41.9695 9.94334 41.9977C9.84619 42.0258 9.74435 42.0341 9.64394 42.0219C9.54352 42.0097 9.44662 41.9773 9.35904 41.9267C9.27147 41.8761 9.19504 41.8082 9.13435 41.7273C9.07366 41.6464 9.02998 41.554 9.00591 41.4558C8.98185 41.3575 8.9779 41.2554 8.99432 41.1556C9.01074 41.0558 9.04717 40.9604 9.10144 40.875C9.53062 40.0822 10.1658 39.4198 10.94 38.9578C11.7141 38.4958 12.5986 38.2513 13.5002 38.25C14.4215 38.2519 15.3262 38.4952 16.124 38.9558C16.9219 39.4164 17.5851 40.0781 18.0474 40.875C18.1132 40.9888 18.1478 41.118 18.1479 41.2494C18.148 41.3809 18.1136 41.5101 18.048 41.624C17.9824 41.738 17.8881 41.8327 17.7744 41.8987C17.6607 41.9647 17.5316 41.9996 17.4002 42Z" fill="white"/>
<path d="M9.75 48C8.75544 48 7.80161 47.6049 7.09835 46.9017C6.39509 46.1984 6 45.2446 6 44.25C6 43.2554 6.39509 42.3016 7.09835 41.5983C7.80161 40.8951 8.75544 40.5 9.75 40.5C9.94891 40.5 10.1397 40.579 10.2803 40.7197C10.421 40.8603 10.5 41.0511 10.5 41.25C10.5 41.4489 10.421 41.6397 10.2803 41.7803C10.1397 41.921 9.94891 42 9.75 42C9.15326 42 8.58097 42.2371 8.15901 42.659C7.73705 43.081 7.5 43.6533 7.5 44.25C7.5 44.8467 7.73705 45.419 8.15901 45.841C8.58097 46.2629 9.15326 46.5 9.75 46.5C9.94891 46.5 10.1397 46.579 10.2803 46.7197C10.421 46.8603 10.5 47.0511 10.5 47.25C10.5 47.4489 10.421 47.6397 10.2803 47.7803C10.1397 47.921 9.94891 48 9.75 48Z" fill="white"/>
<path d="M30.6562 44.25C30.5418 44.2502 30.4287 44.2241 30.3259 44.1739C30.223 44.1236 30.133 44.0505 30.0628 43.96C29.9926 43.8696 29.944 43.7643 29.9207 43.6522C29.8975 43.5401 29.9002 43.4241 29.9287 43.3133C30.0147 42.9807 30.0234 42.6329 29.9542 42.2964C29.885 41.96 29.7396 41.6439 29.5293 41.3723C29.319 41.1007 29.0493 40.8809 28.7408 40.7297C28.4324 40.5785 28.0935 40.4999 27.75 40.5C27.5511 40.5 27.3603 40.421 27.2197 40.2803C27.079 40.1397 27 39.9489 27 39.75C27 39.5511 27.079 39.3603 27.2197 39.2197C27.3603 39.079 27.5511 39 27.75 39C28.7442 39.0012 29.6973 39.3967 30.4003 40.0997C31.1033 40.8027 31.4988 41.7558 31.5 42.75C31.4999 43.0659 31.4603 43.3806 31.3822 43.6868C31.3408 43.8479 31.247 43.9906 31.1156 44.0926C30.9842 44.1945 30.8226 44.2499 30.6562 44.25Z" fill="white"/>
<path d="M38.25 42C38.1183 42 37.989 41.9653 37.875 41.8995C37.761 41.8337 37.6663 41.739 37.6005 41.625C37.3035 41.0597 36.8577 40.5863 36.3113 40.2558C35.7649 39.9254 35.1386 39.7505 34.5 39.75C33.8418 39.7513 33.1955 39.9252 32.6254 40.2542C32.0553 40.5831 31.5815 41.0558 31.251 41.625C31.2041 41.7146 31.1396 41.7938 31.0613 41.8579C30.983 41.9219 30.8925 41.9695 30.7954 41.9977C30.6982 42.0258 30.5964 42.0341 30.496 42.0219C30.3956 42.0097 30.2987 41.9773 30.2111 41.9267C30.1235 41.8761 30.0471 41.8082 29.9864 41.7273C29.9257 41.6464 29.882 41.554 29.858 41.4558C29.8339 41.3575 29.83 41.2554 29.8464 41.1556C29.8628 41.0558 29.8992 40.9604 29.9535 40.875C30.4156 40.0781 31.0786 39.4163 31.8764 38.9557C32.6742 38.4951 33.5788 38.2518 34.5 38.25C35.4015 38.2513 36.286 38.4958 37.0602 38.9578C37.8344 39.4198 38.4696 40.0822 38.8987 40.875C38.9645 40.989 38.9992 41.1182 38.9992 41.2498C38.9993 41.3814 38.9647 41.5107 38.8989 41.6247C38.8332 41.7387 38.7386 41.8334 38.6247 41.8992C38.5108 41.9651 38.3816 41.9999 38.25 42Z" fill="white"/>
<path d="M38.25 48C38.0511 48 37.8603 47.921 37.7197 47.7803C37.579 47.6397 37.5 47.4489 37.5 47.25C37.5 47.0511 37.579 46.8603 37.7197 46.7197C37.8603 46.579 38.0511 46.5 38.25 46.5C38.8467 46.5 39.419 46.2629 39.841 45.841C40.2629 45.419 40.5 44.8467 40.5 44.25C40.5 43.6533 40.2629 43.081 39.841 42.659C39.419 42.2371 38.8467 42 38.25 42C38.0511 42 37.8603 41.921 37.7197 41.7803C37.579 41.6397 37.5 41.4489 37.5 41.25C37.5 41.0511 37.579 40.8603 37.7197 40.7197C37.8603 40.579 38.0511 40.5 38.25 40.5C39.2446 40.5 40.1984 40.8951 40.9017 41.5983C41.6049 42.3016 42 43.2554 42 44.25C42 45.2446 41.6049 46.1984 40.9017 46.9017C40.1984 47.6049 39.2446 48 38.25 48Z" fill="white"/>
<path d="M11.25 44.25C11.0511 44.25 10.8603 44.171 10.7197 44.0303C10.579 43.8897 10.5 43.6989 10.5 43.5C10.5 42.7044 10.8161 41.9413 11.3787 41.3787C11.9413 40.8161 12.7044 40.5 13.5 40.5C13.6989 40.5 13.8897 40.579 14.0303 40.7197C14.171 40.8603 14.25 41.0511 14.25 41.25C14.25 41.4489 14.171 41.6397 14.0303 41.7803C13.8897 41.921 13.6989 42 13.5 42C13.1022 42 12.7206 42.158 12.4393 42.4393C12.158 42.7206 12 43.1022 12 43.5C12 43.6989 11.921 43.8897 11.7803 44.0303C11.6397 44.171 11.4489 44.25 11.25 44.25Z" fill="white"/>
<path d="M36 44.25C35.8011 44.25 35.6103 44.171 35.4697 44.0303C35.329 43.8897 35.25 43.6989 35.25 43.5C35.25 43.3011 35.171 43.1103 35.0303 42.9697C34.8897 42.829 34.6989 42.75 34.5 42.75C34.3011 42.75 34.1103 42.671 33.9697 42.5303C33.829 42.3897 33.75 42.1989 33.75 42C33.75 41.8011 33.829 41.6103 33.9697 41.4697C34.1103 41.329 34.3011 41.25 34.5 41.25C35.0967 41.25 35.669 41.4871 36.091 41.909C36.5129 42.331 36.75 42.9033 36.75 43.5C36.75 43.6989 36.671 43.8897 36.5303 44.0303C36.3897 44.171 36.1989 44.25 36 44.25Z" fill="white"/>
<path d="M44.1562 48C44.0418 48.0002 43.9287 47.9741 43.8259 47.9239C43.723 47.8736 43.633 47.8005 43.5628 47.71C43.4926 47.6196 43.444 47.5143 43.4207 47.4022C43.3975 47.2901 43.4002 47.1741 43.4287 47.0633C43.5147 46.7307 43.5234 46.3829 43.4542 46.0464C43.385 45.71 43.2396 45.3939 43.0293 45.1223C42.819 44.8507 42.5493 44.6309 42.2408 44.4797C41.9324 44.3285 41.5935 44.2499 41.25 44.25C41.0511 44.25 40.8603 44.171 40.7197 44.0303C40.579 43.8897 40.5 43.6989 40.5 43.5C40.5 43.3011 40.579 43.1103 40.7197 42.9697C40.8603 42.829 41.0511 42.75 41.25 42.75C42.2442 42.7512 43.1973 43.1467 43.9003 43.8497C44.6033 44.5527 44.9988 45.5058 45 46.5C44.9999 46.8159 44.9603 47.1306 44.8822 47.4368C44.8408 47.5979 44.747 47.7406 44.6156 47.8426C44.4842 47.9445 44.3226 47.9999 44.1562 48Z" fill="white"/>
<path d="M3.84375 48C3.67741 47.9999 3.51582 47.9445 3.38439 47.8426C3.25297 47.7406 3.15917 47.5979 3.11775 47.4368C3.03965 47.1306 3.0001 46.8159 3 46.5C3.00119 45.5058 3.39666 44.5527 4.09966 43.8497C4.80267 43.1467 5.7558 42.7512 6.75 42.75C6.94891 42.75 7.13968 42.829 7.28033 42.9697C7.42098 43.1103 7.5 43.3011 7.5 43.5C7.5 43.6989 7.42098 43.8897 7.28033 44.0303C7.13968 44.171 6.94891 44.25 6.75 44.25C6.40683 44.2505 6.06832 44.3295 5.76038 44.481C5.45243 44.6324 5.18321 44.8523 4.97331 45.1238C4.76341 45.3953 4.6184 45.7112 4.54936 46.0474C4.48032 46.3835 4.48909 46.731 4.575 47.0632C4.59956 47.1587 4.60505 47.2581 4.59116 47.3557C4.57727 47.4534 4.54427 47.5473 4.49404 47.6321C4.44382 47.717 4.37735 47.7911 4.29846 47.8502C4.21956 47.9094 4.12978 47.9524 4.03425 47.9768C3.97198 47.9925 3.90798 48.0003 3.84375 48Z" fill="white"/>
<path d="M24 48C23.8011 48 23.6103 47.921 23.4697 47.7803C23.329 47.6397 23.25 47.4489 23.25 47.25V44.25C23.25 44.0511 23.329 43.8603 23.4697 43.7197C23.6103 43.579 23.8011 43.5 24 43.5C24.1989 43.5 24.3897 43.579 24.5303 43.7197C24.671 43.8603 24.75 44.0511 24.75 44.25V47.25C24.75 47.4489 24.671 47.6397 24.5303 47.7803C24.3897 47.921 24.1989 48 24 48Z" fill="white"/>
<path d="M27 46.5C26.8011 46.5 26.6103 46.421 26.4697 46.2803C26.329 46.1397 26.25 45.9489 26.25 45.75V42.75C26.25 42.5511 26.329 42.3603 26.4697 42.2197C26.6103 42.079 26.8011 42 27 42C27.1989 42 27.3897 42.079 27.5303 42.2197C27.671 42.3603 27.75 42.5511 27.75 42.75V45.75C27.75 45.9489 27.671 46.1397 27.5303 46.2803C27.3897 46.421 27.1989 46.5 27 46.5Z" fill="white"/>
<path d="M21 46.5C20.8011 46.5 20.6103 46.421 20.4697 46.2803C20.329 46.1397 20.25 45.9489 20.25 45.75V42.75C20.25 42.5511 20.329 42.3603 20.4697 42.2197C20.6103 42.079 20.8011 42 21 42C21.1989 42 21.3897 42.079 21.5303 42.2197C21.671 42.3603 21.75 42.5511 21.75 42.75V45.75C21.75 45.9489 21.671 46.1397 21.5303 46.2803C21.3897 46.421 21.1989 46.5 21 46.5Z" fill="white"/>
</g>
<defs>
<clipPath id="clip0_208_1038">
<rect width="48" height="48" fill="white"/>
</clipPath>
</defs>
</svg>
