<svg width="29" height="29" viewBox="0 0 29 29" fill="none" xmlns="http://www.w3.org/2000/svg">
<path d="M28.1928 14.4138C28.1928 15.6055 26.7287 16.5877 26.4354 17.6863C26.1328 18.8222 26.8986 20.405 26.3237 21.3988C25.7395 22.409 23.9821 22.5301 23.1628 23.3494C22.3435 24.1687 22.2225 25.926 21.2123 26.5102C20.2184 27.0851 18.6357 26.3194 17.4998 26.6219C16.4012 26.9152 15.419 28.3793 14.2272 28.3793C13.0355 28.3793 12.0533 26.9152 10.9546 26.6219C9.81879 26.3194 8.23603 27.0851 7.24215 26.5102C6.23198 25.926 6.11094 24.1687 5.29163 23.3494C4.47232 22.5301 2.71499 22.409 2.13077 21.3988C1.55586 20.405 2.32163 18.8222 2.01905 17.6863C1.72577 16.5877 0.261719 15.6055 0.261719 14.4138C0.261719 13.222 1.72577 12.2398 2.01905 11.1412C2.32163 10.0053 1.55586 8.42255 2.13077 7.42867C2.71499 6.4185 4.47232 6.29747 5.29163 5.47816C6.11094 4.65885 6.23198 2.90152 7.24215 2.31729C8.23603 1.74238 9.81879 2.50816 10.9546 2.20557C12.0533 1.91229 13.0355 0.448242 14.2272 0.448242C15.419 0.448242 16.4012 1.91229 17.4998 2.20557C18.6357 2.50816 20.2184 1.74238 21.2123 2.31729C22.2225 2.90152 22.3435 4.65885 23.1628 5.47816C23.9821 6.29747 25.7395 6.4185 26.3237 7.42867C26.8986 8.42255 26.1328 10.0053 26.4354 11.1412C26.7287 12.2398 28.1928 13.222 28.1928 14.4138Z" fill="white"/>
<path d="M18.2629 10.2524L12.9467 15.5686L10.1908 12.815C9.59263 12.2168 8.62203 12.2168 8.02384 12.815C7.42565 13.4132 7.42565 14.3838 8.02384 14.982L11.89 18.8481C12.4719 19.43 13.4169 19.43 13.9988 18.8481L20.4275 12.4193C21.0257 11.8211 21.0257 10.8505 20.4275 10.2524C19.8294 9.65416 18.8611 9.65416 18.2629 10.2524Z" fill="#A38CFF"/>
</svg>
