<svg width="93" height="32" viewBox="0 0 93 32" fill="none" xmlns="http://www.w3.org/2000/svg">
<path d="M75.5429 13.688C76.4162 13.688 77.1241 12.9801 77.1241 12.1068C77.1241 11.2336 76.4162 10.5257 75.5429 10.5257C74.6697 10.5257 73.9618 11.2336 73.9618 12.1068C73.9618 12.9801 74.6697 13.688 75.5429 13.688Z" fill="#FF4500"/>
<path d="M52.9595 18.849C53.7351 18.849 54.1826 18.2673 54.1528 17.7005C54.1379 17.4021 54.108 17.2082 54.0782 17.059C53.6009 15.0006 51.9302 13.4791 49.9463 13.4791C47.5895 13.4791 45.6802 15.6121 45.6802 18.2374C45.6802 20.8628 47.5895 22.9958 49.9463 22.9958C51.4231 22.9958 52.4821 22.4588 53.2429 21.6086C53.6158 21.1909 53.5412 20.5495 53.0937 20.2363C52.7208 19.9827 52.2584 20.0722 51.9153 20.3556C51.5872 20.639 50.9607 21.2058 49.9463 21.2058C48.753 21.2058 47.7387 20.1766 47.515 18.8192H52.9595V18.849ZM49.9314 15.284C51.0054 15.284 51.9302 16.1193 52.2733 17.2679H47.5895C47.9326 16.1044 48.8574 15.284 49.9314 15.284Z" fill="#737373"/>
<path d="M45.7697 14.4188C45.7697 13.9713 45.4415 13.6133 45.0238 13.5387C43.7261 13.3448 42.503 13.8222 41.8019 14.7022V14.5829C41.8019 14.031 41.3544 13.6879 40.9069 13.6879C40.4146 13.6879 40.0119 14.0907 40.0119 14.5829V21.892C40.0119 22.3693 40.3699 22.787 40.8472 22.8168C41.3693 22.8466 41.8019 22.4439 41.8019 21.9218V18.1479C41.8019 16.4773 43.0549 15.105 44.7852 15.2989C44.8448 15.2989 44.9045 15.2989 44.9642 15.2989C45.4117 15.2691 45.7697 14.8812 45.7697 14.4188Z" fill="#737373"/>
<path d="M76.438 15.3735C76.438 14.8812 76.0352 14.4785 75.543 14.4785C75.0507 14.4785 74.648 14.8812 74.648 15.3735C74.648 15.4033 74.648 21.6384 74.648 21.9218C74.648 22.414 75.0507 22.8168 75.543 22.8168C76.0352 22.8168 76.438 22.414 76.438 21.9218C76.438 21.6533 76.438 15.4182 76.438 15.3735Z" fill="#737373"/>
<path d="M63.1325 10.4212C63.1325 9.92897 62.7297 9.52623 62.2375 9.52623C61.7452 9.52623 61.3425 9.92897 61.3425 10.4212V14.4039C60.7309 13.7923 59.9702 13.494 59.0603 13.494C56.7035 13.494 54.7942 15.6271 54.7942 18.2524C54.7942 20.8777 56.7035 23.0107 59.0603 23.0107C59.9702 23.0107 60.7458 22.6975 61.3574 22.0859C61.432 22.5036 61.8049 22.8168 62.2375 22.8168C62.7297 22.8168 63.1325 22.4141 63.1325 21.9218V10.4212ZM59.0752 21.2357C57.7029 21.2357 56.5991 19.9081 56.5991 18.2524C56.5991 16.6116 57.7029 15.2691 59.0752 15.2691C60.4475 15.2691 61.5513 16.5966 61.5513 18.2524C61.5513 19.9081 60.4326 21.2357 59.0752 21.2357Z" fill="#737373"/>
<path d="M72.4702 10.4212C72.4702 9.92897 72.0675 9.52623 71.5752 9.52623C71.083 9.52623 70.6803 9.92897 70.6803 10.4212V14.4039C70.0687 13.7923 69.3079 13.494 68.398 13.494C66.0412 13.494 64.1319 15.6271 64.1319 18.2524C64.1319 20.8777 66.0412 23.0107 68.398 23.0107C69.3079 23.0107 70.0836 22.6975 70.6952 22.0859C70.7698 22.5036 71.1427 22.8168 71.5752 22.8168C72.0675 22.8168 72.4702 22.4141 72.4702 21.9218V10.4212ZM68.398 21.2357C67.0257 21.2357 65.9219 19.9081 65.9219 18.2524C65.9219 16.6116 67.0257 15.2691 68.398 15.2691C69.7704 15.2691 70.8742 16.5966 70.8742 18.2524C70.8742 19.9081 69.7704 21.2357 68.398 21.2357Z" fill="#737373"/>
<path d="M80.9725 21.9368V15.284H81.763C82.1807 15.284 82.5536 14.9708 82.5835 14.5382C82.6133 14.0758 82.2404 13.6879 81.7929 13.6879H80.9725V12.435C80.9725 11.9576 80.6145 11.54 80.1372 11.5101C79.6151 11.4803 79.1825 11.883 79.1825 12.4051V13.7029H78.4367C78.019 13.7029 77.6461 14.0161 77.6163 14.4487C77.5864 14.9111 77.9594 15.2989 78.4068 15.2989H79.1676V21.9517C79.1676 22.4439 79.5703 22.8467 80.0626 22.8467C80.5846 22.8168 80.9725 22.429 80.9725 21.9368Z" fill="#737373"/>
<path d="M22.5 28.5C29.4035 28.5 35 22.9035 35 16C35 9.09643 29.4035 3.5 22.5 3.5C15.5964 3.5 10 9.09643 10 16C10 22.9035 15.5964 28.5 22.5 28.5Z" fill="#FF4500"/>
<path d="M30.8384 16C30.8384 14.9857 30.0179 14.1802 29.0185 14.1802C28.5263 14.1802 28.0788 14.3741 27.7506 14.6873C26.4977 13.7923 24.7823 13.2106 22.873 13.136L23.7083 9.2279L26.4231 9.80964C26.4529 10.4958 27.0197 11.0477 27.7208 11.0477C28.4368 11.0477 29.0185 10.466 29.0185 9.74997C29.0185 9.03398 28.4368 8.45224 27.7208 8.45224C27.2136 8.45224 26.7662 8.75057 26.5573 9.18315L23.5293 8.54174C23.4398 8.52682 23.3503 8.54174 23.2906 8.58649C23.2161 8.63124 23.1713 8.70582 23.1564 8.79532L22.2316 13.1509C20.2924 13.2106 18.5472 13.7923 17.2793 14.7022C16.9511 14.389 16.5036 14.1951 16.0114 14.1951C14.9971 14.1951 14.1916 15.0155 14.1916 16.0149C14.1916 16.7607 14.6391 17.3872 15.2656 17.6706C15.2357 17.8496 15.2208 18.0286 15.2208 18.2225C15.2208 21.0268 18.4875 23.309 22.515 23.309C26.5424 23.309 29.8091 21.0417 29.8091 18.2225C29.8091 18.0435 29.7942 17.8496 29.7644 17.6706C30.3909 17.3872 30.8384 16.7458 30.8384 16ZM18.3384 17.2977C18.3384 16.5817 18.9201 16 19.6361 16C20.3521 16 20.9338 16.5817 20.9338 17.2977C20.9338 18.0137 20.3521 18.5954 19.6361 18.5954C18.9201 18.6104 18.3384 18.0137 18.3384 17.2977ZM25.6027 20.7434C24.7077 21.6384 23.0072 21.6981 22.515 21.6981C22.0078 21.6981 20.3073 21.6235 19.4273 20.7434C19.293 20.6092 19.293 20.4003 19.4273 20.2661C19.5615 20.1318 19.7703 20.1318 19.9046 20.2661C20.4714 20.8329 21.6647 21.0268 22.515 21.0268C23.3652 21.0268 24.5735 20.8329 25.1253 20.2661C25.2596 20.1318 25.4684 20.1318 25.6027 20.2661C25.722 20.4003 25.722 20.6092 25.6027 20.7434ZM25.364 18.6104C24.648 18.6104 24.0663 18.0286 24.0663 17.3126C24.0663 16.5966 24.648 16.0149 25.364 16.0149C26.08 16.0149 26.6617 16.5966 26.6617 17.3126C26.6617 18.0137 26.08 18.6104 25.364 18.6104Z" fill="white"/>
</svg>
