<svg width="26" height="26" viewBox="0 0 26 26" fill="none" xmlns="http://www.w3.org/2000/svg">
<path d="M15.831 6.38938C16.0418 6.38938 16.4011 6.42291 16.9089 6.48998C17.4167 6.55705 17.9724 6.74867 18.576 7.06485C19.1892 7.37144 19.7449 7.88403 20.2431 8.60262C20.2144 8.63136 20.0755 8.73675 19.8263 8.91879C19.5772 9.09125 19.2994 9.34994 18.9928 9.69486C18.6862 10.0302 18.4179 10.4614 18.188 10.9883C17.958 11.5057 17.8431 12.1237 17.8431 12.8423C17.8431 13.6662 17.9868 14.3657 18.2742 14.9405C18.5712 15.5154 18.9114 15.9801 19.2946 16.3346C19.6874 16.6795 20.0323 16.9334 20.3294 17.0963C20.636 17.2592 20.7988 17.3454 20.818 17.355C20.8084 17.3933 20.6839 17.7334 20.4443 18.3754C20.2144 19.0173 19.8311 19.7311 19.2946 20.5167C18.8251 21.197 18.3173 21.8246 17.7712 22.3994C17.2347 22.9743 16.5879 23.2617 15.831 23.2617C15.3232 23.2617 14.9064 23.1899 14.5807 23.0461C14.2549 22.8929 13.9196 22.7443 13.5747 22.6006C13.2297 22.4473 12.7651 22.3707 12.1806 22.3707C11.6153 22.3707 11.1411 22.4473 10.7578 22.6006C10.3842 22.7539 10.0249 22.9072 9.67995 23.0605C9.34461 23.2138 8.94699 23.2905 8.4871 23.2905C7.78768 23.2905 7.17448 23.0126 6.64752 22.4569C6.12056 21.9012 5.57923 21.2353 5.02352 20.4592C4.38159 19.5395 3.83067 18.4185 3.37078 17.0963C2.92047 15.7645 2.69531 14.4231 2.69531 13.0722C2.69531 11.6255 2.96837 10.4134 3.5145 9.43617C4.06062 8.44932 4.76004 7.70678 5.61276 7.20856C6.47506 6.70076 7.36611 6.44686 8.28589 6.44686C8.77453 6.44686 9.23442 6.5283 9.66557 6.69118C10.0967 6.84448 10.4991 7.00257 10.8728 7.16545C11.256 7.32833 11.601 7.40977 11.9076 7.40977C12.2046 7.40977 12.5495 7.32354 12.9423 7.15108C13.3351 6.97862 13.7759 6.81095 14.2645 6.64807C14.7531 6.47561 15.2753 6.38938 15.831 6.38938ZM15.0406 4.56418C14.6669 5.01449 14.1974 5.39294 13.6322 5.69954C13.0669 5.99655 12.5303 6.14506 12.0225 6.14506C11.9171 6.14506 11.8165 6.13548 11.7207 6.11632C11.7111 6.08757 11.7016 6.03488 11.692 5.95823C11.6824 5.88158 11.6776 5.80014 11.6776 5.71391C11.6776 5.13904 11.8022 4.58334 12.0513 4.04679C12.3004 3.50067 12.583 3.05036 12.8992 2.69586C13.3016 2.2168 13.8094 1.81919 14.4226 1.50301C15.0358 1.18683 15.6202 1.01916 16.1759 1C16.2047 1.12455 16.2191 1.27306 16.2191 1.44552C16.2191 2.02039 16.1089 2.58088 15.8885 3.12701C15.6681 3.66355 15.3855 4.14261 15.0406 4.56418Z" fill="#111827"/>
</svg>
