<svg width="101" height="32" viewBox="0 0 101 32" fill="none" xmlns="http://www.w3.org/2000/svg">
<path d="M52.2193 9.78128C52.2193 10.6822 51.4936 11.4079 50.5927 11.4079C49.6918 11.4079 48.966 10.6822 48.966 9.78128C48.966 8.88038 49.6667 8.15465 50.5927 8.15465C51.5186 8.17968 52.2193 8.90541 52.2193 9.78128ZM45.5126 13.0596C45.5126 13.2097 45.5126 13.46 45.5126 13.46C45.5126 13.46 44.7368 12.459 43.0852 12.459C40.3574 12.459 38.2303 14.536 38.2303 17.4139C38.2303 20.2668 40.3324 22.3689 43.0852 22.3689C44.7618 22.3689 45.5126 21.3428 45.5126 21.3428V21.7683C45.5126 21.9685 45.6627 22.1186 45.8629 22.1186H47.89V12.7092C47.89 12.7092 46.0381 12.7092 45.8629 12.7092C45.6627 12.7092 45.5126 12.8844 45.5126 13.0596ZM45.5126 19.0906C45.1372 19.6411 44.3865 20.1166 43.4856 20.1166C41.884 20.1166 40.6577 19.1156 40.6577 17.4139C40.6577 15.7122 41.884 14.7112 43.4856 14.7112C44.3614 14.7112 45.1622 15.2117 45.5126 15.7372V19.0906ZM49.3915 12.7092H51.7939V22.1186H49.3915V12.7092ZM85.2774 12.459C83.6257 12.459 82.8499 13.46 82.8499 13.46V8.17968H80.4475V22.1186C80.4475 22.1186 82.2994 22.1186 82.4745 22.1186C82.6748 22.1186 82.8249 21.9434 82.8249 21.7683V21.3428C82.8249 21.3428 83.6007 22.3689 85.2523 22.3689C87.9801 22.3689 90.1072 20.2668 90.1072 17.4139C90.1072 14.5611 87.98 12.459 85.2774 12.459ZM84.877 20.0916C83.951 20.0916 83.2253 19.6161 82.8499 19.0656V15.7122C83.2253 15.2117 84.0261 14.6862 84.877 14.6862C86.4786 14.6862 87.7048 15.6872 87.7048 17.3889C87.7048 19.0906 86.4786 20.0916 84.877 20.0916ZM79.1963 16.538V22.1436H76.7939V16.8133C76.7939 15.2618 76.2934 14.6361 74.942 14.6361C74.2163 14.6361 73.4655 15.0115 72.9901 15.5621V22.1186H70.5877V12.7092H72.4896C72.6898 12.7092 72.8399 12.8844 72.8399 13.0596V13.46C73.5406 12.7342 74.4665 12.459 75.3925 12.459C76.4435 12.459 77.3194 12.7593 78.0201 13.3599C78.8709 14.0606 79.1963 14.9615 79.1963 16.538ZM64.7568 12.459C63.1052 12.459 62.3294 13.46 62.3294 13.46V8.17968H59.927V22.1186C59.927 22.1186 61.7789 22.1186 61.954 22.1186C62.1542 22.1186 62.3044 21.9434 62.3044 21.7683V21.3428C62.3044 21.3428 63.0802 22.3689 64.7318 22.3689C67.4595 22.3689 69.5867 20.2668 69.5867 17.4139C69.6117 14.5611 67.4846 12.459 64.7568 12.459ZM64.3564 20.0916C63.4305 20.0916 62.7048 19.6161 62.3294 19.0656V15.7122C62.7048 15.2117 63.5056 14.6862 64.3564 14.6862C65.958 14.6862 67.1843 15.6872 67.1843 17.3889C67.1843 19.0906 65.958 20.0916 64.3564 20.0916ZM57.8499 12.459C58.5757 12.459 58.951 12.5841 58.951 12.5841V14.8113C58.951 14.8113 56.949 14.1356 55.6978 15.5621V22.1436H53.2954V12.7092C53.2954 12.7092 55.1472 12.7092 55.3224 12.7092C55.5226 12.7092 55.6727 12.8844 55.6727 13.0596V13.46C56.1232 12.9344 57.0992 12.459 57.8499 12.459ZM32.9 21.2678C32.7749 20.9675 32.6497 20.6421 32.5246 20.3669C32.3244 19.9164 32.1242 19.491 31.949 19.0906L31.924 19.0656C30.1973 15.3118 28.3454 11.508 26.3935 7.75425L26.3184 7.6041C26.1182 7.22873 25.918 6.82833 25.7178 6.42793C25.4675 5.97748 25.2173 5.502 24.8169 5.05155C24.0161 4.05055 22.8649 3.5 21.6387 3.5C20.3875 3.5 19.2613 4.05055 18.4355 5.0015C18.0601 5.45195 17.7849 5.92743 17.5346 6.37788C17.3344 6.77828 17.1342 7.17868 16.934 7.55405L16.8589 7.7042C14.932 11.458 13.0551 15.2618 11.3284 19.0155L11.3034 19.0656C11.1282 19.466 10.928 19.8914 10.7278 20.3418C10.6027 20.6171 10.4776 20.9174 10.3524 21.2427C10.0271 22.1687 9.92701 23.0445 10.0521 23.9454C10.3274 25.8223 11.5787 27.3989 13.3054 28.0996C13.956 28.3749 14.6317 28.5 15.3324 28.5C15.5326 28.5 15.7829 28.475 15.9831 28.4499C16.8089 28.3498 17.6597 28.0746 18.4856 27.5991C19.5116 27.0235 20.4876 26.1977 21.5887 24.9965C22.6898 26.1977 23.6908 27.0235 24.6918 27.5991C25.5176 28.0746 26.3684 28.3498 27.1943 28.4499C27.3945 28.475 27.6447 28.5 27.8449 28.5C28.5456 28.5 29.2463 28.3749 29.872 28.0996C31.6237 27.3989 32.8499 25.7973 33.1252 23.9454C33.3254 23.0696 33.2253 22.1937 32.9 21.2678ZM21.6137 22.5691C20.2623 20.8674 19.3865 19.2658 19.0862 17.9144C18.961 17.3388 18.936 16.8383 19.0111 16.3879C19.0611 15.9875 19.2113 15.6371 19.4115 15.3368C19.887 14.6612 20.6878 14.2357 21.6137 14.2357C22.5396 14.2357 23.3654 14.6361 23.8159 15.3368C24.0161 15.6371 24.1662 15.9875 24.2163 16.3879C24.2914 16.8383 24.2663 17.3639 24.1412 17.9144C23.8409 19.2407 22.965 20.8423 21.6137 22.5691ZM31.5987 23.7452C31.4235 25.0465 30.5476 26.1727 29.3214 26.6732C28.7208 26.9234 28.0702 26.9985 27.4195 26.9234C26.7939 26.8483 26.1682 26.6481 25.5176 26.2728C24.6167 25.7723 23.7158 24.9965 22.6647 23.8453C24.3164 21.8183 25.3174 19.9665 25.6928 18.3148C25.868 17.539 25.893 16.8383 25.8179 16.1877C25.7178 15.5621 25.4926 14.9865 25.1422 14.486C24.3664 13.3599 23.0651 12.7092 21.6137 12.7092C20.1622 12.7092 18.8609 13.3849 18.0852 14.486C17.7348 14.9865 17.5096 15.5621 17.4095 16.1877C17.3094 16.8383 17.3344 17.5641 17.5346 18.3148C17.91 19.9665 18.936 21.8433 20.5626 23.8704C19.5366 25.0215 18.6107 25.7973 17.7098 26.2978C17.0591 26.6732 16.4335 26.8734 15.8079 26.9484C15.1322 27.0235 14.4816 26.9234 13.906 26.6982C12.6798 26.1977 11.8039 25.0716 11.6287 23.7703C11.5536 23.1446 11.6037 22.519 11.8539 21.8183C11.929 21.5681 12.0541 21.3178 12.1793 21.0175C12.3544 20.6171 12.5546 20.1917 12.7548 19.7663L12.7799 19.7162C14.5066 15.9875 16.3584 12.1837 18.2854 8.47998L18.3604 8.32983C18.5606 7.95445 18.7608 7.55405 18.961 7.17868C19.1612 6.77828 19.3865 6.4029 19.6617 6.07758C20.1873 5.47698 20.888 5.15165 21.6637 5.15165C22.4395 5.15165 23.1402 5.47698 23.6657 6.07758C23.941 6.4029 24.1662 6.77828 24.3664 7.17868C24.5666 7.55405 24.7668 7.95445 24.967 8.32983L25.0421 8.47998C26.944 12.2087 28.7959 16.0125 30.5226 19.7412V19.7663C30.7228 20.1667 30.898 20.6171 31.0982 21.0175C31.2233 21.3178 31.3484 21.5681 31.4235 21.8183C31.6237 22.469 31.6988 23.0946 31.5987 23.7452Z" fill="#FF5A5F"/>
</svg>
