<svg width="97" height="32" viewBox="0 0 97 32" fill="none" xmlns="http://www.w3.org/2000/svg">
<path d="M10 3.5H26.6667V11.8333H18.3333L10 3.5ZM10 11.8333H18.3333L26.6667 20.1667H10V11.8333ZM10 20.1667H18.3333V28.5L10 20.1667Z" fill="#111827"/>
<path d="M36.0706 10.0742H42.8075V12.215H38.6205V15.19H42.8075V17.2835H38.6205V21.0928H36.0706V10.0742ZM44.1927 13.5056H46.6011V15.0955C46.7269 14.5491 46.9843 14.1297 47.3724 13.8361C47.7705 13.5315 48.2124 13.3798 48.6947 13.3798C48.9467 13.3798 49.1568 13.4011 49.3241 13.4427V15.678C49.0839 15.6491 48.8422 15.6334 48.6001 15.6308C47.939 15.6308 47.4411 15.8454 47.1048 16.2759C46.7696 16.6956 46.6011 17.3251 46.6011 18.165V21.0928H44.1938V13.5056H44.1927ZM53.1261 21.2975C52.3918 21.2975 51.7513 21.124 51.2057 20.7779C50.6704 20.4317 50.2449 19.9402 49.978 19.3611C49.6947 18.7529 49.5521 18.0648 49.5521 17.2992C49.5521 16.5435 49.7001 15.861 49.9936 15.2529C50.2689 14.6654 50.7058 14.1686 51.2529 13.8205C51.8085 13.4743 52.4436 13.3008 53.1578 13.3008C53.6927 13.3008 54.1708 13.4167 54.5902 13.6474C55.0096 13.8788 55.3245 14.1938 55.5346 14.5918V13.5056H57.927V21.0928H55.5346V20.0222C55.3245 20.4 54.9993 20.7092 54.5585 20.9509C54.1178 21.1847 53.6252 21.3036 53.1261 21.2975ZM53.8189 19.2982C54.3957 19.2982 54.8418 19.1094 55.1567 18.7316C55.4717 18.3538 55.6291 17.876 55.6291 17.2992C55.6291 16.7326 55.4717 16.2602 55.1567 15.8824C54.8418 15.5046 54.3957 15.3158 53.8189 15.3158C53.2725 15.3158 52.8325 15.4992 52.4966 15.8668C52.1714 16.2343 52.0086 16.7113 52.0086 17.2992C52.0086 17.8871 52.1714 18.3694 52.4966 18.7472C52.8325 19.1148 53.2733 19.2982 53.8189 19.2982ZM59.6115 13.5056H62.0199V14.6074C62.1884 14.2185 62.4606 13.9036 62.8381 13.663C63.227 13.4225 63.678 13.3008 64.192 13.3008C65.3884 13.3008 66.181 13.7675 66.5688 14.702C66.7823 14.2784 67.1163 13.928 67.5292 13.6947C67.9707 13.4289 68.4778 13.2928 68.9929 13.3008C70.7875 13.3008 71.6846 14.3287 71.6846 16.386V21.0928H69.2605V16.8268C69.2605 16.3132 69.166 15.9354 68.9772 15.6937C68.7881 15.4527 68.5049 15.3315 68.127 15.3315C67.7179 15.3315 67.403 15.4733 67.1826 15.7566C66.9623 16.0296 66.8521 16.5065 66.8521 17.189V21.0928H64.428V16.8112C64.428 16.2972 64.3338 15.9243 64.1447 15.6937C63.967 15.4527 63.6883 15.3315 63.3112 15.3315C62.8911 15.3315 62.5708 15.4733 62.3505 15.7566C62.1301 16.0296 62.0199 16.5065 62.0199 17.189V21.0928H59.6122V13.5056H59.6115ZM80.7321 16.9057C80.7321 17.2306 80.7107 17.5825 80.668 17.9603H75.0653C75.0867 18.4537 75.254 18.8307 75.569 19.0938C75.8839 19.3557 76.3098 19.4873 76.8439 19.4873C77.5893 19.4873 78.0617 19.2612 78.2607 18.8101H80.6219C80.506 19.5555 80.0969 20.1583 79.3938 20.6204C78.7014 21.0714 77.8512 21.2975 76.8439 21.2975C75.543 21.2975 74.5197 20.9456 73.7743 20.2426C73.04 19.5391 72.6725 18.5585 72.6725 17.2992C72.6725 16.4806 72.8402 15.7722 73.1761 15.174C73.5006 14.5766 74.0008 14.0931 74.6085 13.7889C75.2281 13.464 75.9468 13.3008 76.7661 13.3008C77.542 13.3008 78.229 13.453 78.8273 13.7576C79.4358 14.0622 79.9032 14.487 80.228 15.0326C80.5643 15.5789 80.7321 16.203 80.7321 16.9057ZM78.3541 16.465C78.3438 15.9613 78.2024 15.5778 77.929 15.3158C77.6568 15.0539 77.2625 14.9224 76.7486 14.9224C76.2346 14.9224 75.8255 15.0638 75.5209 15.3475C75.2273 15.6205 75.0752 15.9926 75.0642 16.465H78.3541ZM81.7939 13.5056H84.2023V15.0955C84.3282 14.5491 84.5855 14.1297 84.9736 13.8361C85.3503 13.5395 85.8162 13.3786 86.2959 13.3798C86.5475 13.3798 86.758 13.4011 86.9253 13.4427V15.678C86.6852 15.6491 86.4434 15.6334 86.2013 15.6308C85.5402 15.6308 85.0423 15.8454 84.706 16.2759C84.3697 16.6956 84.2023 17.3251 84.2023 18.165V21.0928H81.7939V13.5056Z" fill="#111827"/>
</svg>
