<svg width="128" height="42" viewBox="0 0 128 42" fill="none" xmlns="http://www.w3.org/2000/svg">
<path d="M44.676 28.6326L45.9152 25.6301C47.2721 26.6717 49.0419 27.223 50.812 27.223C52.11 27.223 52.936 26.7024 52.936 25.9059C52.9063 23.6999 45.1185 25.4156 45.0593 19.8693C45.0297 17.0506 47.4489 14.8752 50.8712 14.8752C52.9063 14.8752 54.9422 15.3963 56.3874 16.5914L55.2295 19.658C53.8997 18.7716 52.2573 18.1536 50.694 18.1536C49.632 18.1536 48.9238 18.6742 48.9238 19.3487C48.9534 21.5241 56.8008 20.329 56.8892 25.6301C56.8892 28.5103 54.5288 30.5325 51.1657 30.5325C48.6881 30.5325 46.417 29.9199 44.676 28.6326ZM94.0197 24.5428C93.7068 25.119 93.2518 25.5985 92.7013 25.9323C92.1507 26.2659 91.5245 26.4418 90.8867 26.4419C88.8991 26.4419 87.2879 24.7683 87.2879 22.7038C87.2879 20.6395 88.8991 18.9659 90.8867 18.9659C91.5245 18.9659 92.1507 19.1419 92.7013 19.4755C93.2518 19.8092 93.7068 20.2888 94.0197 20.865L97.4648 18.8825C96.1745 16.4918 93.7129 14.8752 90.8867 14.8752C86.724 14.8752 83.3495 18.3799 83.3495 22.7038C83.3495 27.0274 86.724 30.5325 90.8867 30.5325C93.7129 30.5325 96.1745 28.9159 97.4648 26.5253L94.0197 24.5428ZM59.1249 30.226H63.4318V8.35838H59.1253L59.1249 30.226ZM99.64 8.35838V30.226H103.947V23.6744L109.051 30.226H114.556L108.066 22.4429L114.084 15.1805H108.815L103.947 21.2184V8.35838H99.64ZM76.7011 15.1814V16.9589C75.9933 15.7331 74.2527 14.8752 72.4237 14.8752C68.6476 14.8752 65.6682 18.3378 65.6682 22.6886C65.6682 27.0393 68.6476 30.5325 72.4237 30.5325C74.2527 30.5325 75.9933 29.6746 76.7011 28.4489V30.226H81.0081V15.1814H76.7011ZM76.7011 24.5731C76.0817 25.6454 74.7836 26.4415 73.3384 26.4415C71.3503 26.4415 69.7392 24.7683 69.7392 22.7038C69.7392 20.6395 71.3503 18.9659 73.3384 18.9659C74.7836 18.9659 76.0817 19.793 76.7011 20.8956V24.5731Z" fill="black"/>
<path d="M21.9305 7.875C20.5347 7.875 19.4034 9.05039 19.4034 10.4999C19.4031 10.8443 19.4682 11.1853 19.595 11.5036C19.7218 11.8219 19.9078 12.1111 20.1425 12.3549C20.3772 12.5986 20.6559 12.7921 20.9626 12.9242C21.2694 13.0563 21.5983 13.1245 21.9305 13.1248H24.458V10.4999C24.4586 9.80439 24.1926 9.13713 23.7186 8.64488C23.2446 8.15263 22.6014 7.8757 21.9305 7.875ZM21.9305 14.8747H15.1912C13.7954 14.8747 12.6641 16.0501 12.6641 17.5001C12.6641 18.9496 13.7954 20.125 15.1912 20.125H21.9309C23.3262 20.125 24.458 18.9496 24.458 17.5001C24.458 16.0501 23.3262 14.8747 21.9305 14.8747Z" fill="#2FBDEE"/>
<path d="M37.9367 17.5001C37.9367 16.0501 36.8049 14.8747 35.4091 14.8747C34.0133 14.8747 32.8821 16.0501 32.8821 17.5001V20.125H35.4091C36.0801 20.1243 36.7233 19.8473 37.1973 19.3551C37.6712 18.8628 37.9372 18.1956 37.9367 17.5001ZM31.1973 17.5001V10.4999C31.1978 9.80439 30.9319 9.13713 30.4579 8.64488C29.9839 8.15263 29.3408 7.8757 28.6698 7.875C27.274 7.875 26.1427 9.05039 26.1427 10.4999V17.4996C26.1427 18.95 27.274 20.1254 28.6698 20.1254C29.3408 20.1247 29.9839 19.8477 30.4579 19.3556C30.9319 18.8633 31.1978 18.1956 31.1973 17.5001Z" fill="#29AD72"/>
<path d="M28.6698 34.125C29.3408 34.1244 29.9839 33.8474 30.4579 33.3551C30.9319 32.8629 31.1978 32.1956 31.1973 31.5002C31.1978 30.8046 30.9319 30.1374 30.4579 29.6451C29.9839 29.1529 29.3408 28.8759 28.6698 28.8752H26.1427V31.5002C26.1427 32.9497 27.274 34.125 28.6698 34.125ZM28.6698 27.1253H35.4095C36.8049 27.1253 37.9367 25.9499 37.9367 24.5C37.9372 23.8044 37.6712 23.1372 37.1973 22.6449C36.7233 22.1527 36.0801 21.8758 35.4091 21.875H28.6698C27.274 21.875 26.1427 23.0505 26.1427 24.5C26.1423 24.8443 26.2075 25.1853 26.3343 25.5036C26.4611 25.8219 26.6472 26.1112 26.8818 26.355C27.1165 26.5987 27.3951 26.7921 27.702 26.9242C28.0087 27.0563 28.3376 27.125 28.6698 27.1253Z" fill="#E9A929"/>
<path d="M12.6641 24.5C12.6637 24.8443 12.7288 25.1853 12.8556 25.5036C12.9825 25.8219 13.1685 26.1112 13.4032 26.355C13.6378 26.5987 13.9165 26.7921 14.2233 26.9242C14.5301 27.0563 14.859 27.1245 15.1912 27.1248C15.8621 27.1241 16.5053 26.8472 16.9793 26.355C17.4533 25.8627 17.7192 25.1954 17.7187 24.5V21.875H15.1912C13.7954 21.875 12.6641 23.0505 12.6641 24.5ZM19.4034 24.5V31.4997C19.4034 32.9497 20.5347 34.125 21.9305 34.125C22.6014 34.1244 23.2446 33.8474 23.7186 33.3551C24.1926 32.8629 24.4586 32.1956 24.458 31.5002V24.5C24.4583 24.1556 24.3932 23.8144 24.2664 23.4961C24.1396 23.1778 23.9534 22.8886 23.7188 22.6448C23.484 22.401 23.2053 22.2077 22.8984 22.0756C22.5916 21.9435 22.2627 21.8754 21.9305 21.875C20.5347 21.875 19.4034 23.0505 19.4034 24.5Z" fill="#DC1C50"/>
</svg>
