<svg width="132" height="32" viewBox="0 0 132 32" fill="none" xmlns="http://www.w3.org/2000/svg">
<path fill-rule="evenodd" clip-rule="evenodd" d="M61.0197 19.5474C60.2407 19.7271 59.8377 19.4874 59.8377 18.9714C59.8377 18.2645 60.5687 17.9815 61.613 17.9815C62.0723 17.9815 62.5057 18.0211 62.5057 18.0211C62.5057 18.3238 61.848 19.3564 61.0197 19.5474ZM61.8123 12.4692C59.3187 12.4692 57.5284 13.3861 57.5284 13.3861V16.0818C57.5284 16.0818 59.505 14.9455 61.1087 14.9455C62.388 14.9455 62.5453 15.6358 62.4873 16.2085C62.4873 16.2085 62.118 16.1108 60.992 16.1108C58.3377 16.1108 56.9983 17.3171 56.9983 19.2511C56.9983 21.0858 58.5037 21.8524 59.7723 21.8524C61.623 21.8524 62.437 20.6084 62.6867 20.0184C62.8603 19.6091 62.8923 19.3331 63.0477 19.3331C63.226 19.3331 63.166 19.5311 63.157 19.9384C63.1423 20.6521 63.1763 21.1914 63.2893 21.6461H65.7436V17.2315C65.7436 14.4751 64.7683 12.4692 61.8123 12.4692Z" fill="#111827"/>
<path fill-rule="evenodd" clip-rule="evenodd" d="M77.9659 17.1653C77.9659 16.3589 78.7155 15.6246 80.0915 15.6246C81.5905 15.6246 82.7968 16.3466 83.0672 16.5106V13.39C83.0672 13.39 82.1145 12.4726 79.7729 12.4726C77.3045 12.4726 75.2489 13.9169 75.2489 17.0259C75.2489 20.1346 77.1145 21.8586 79.7662 21.8586C81.8378 21.8586 83.0725 20.7202 83.0725 20.7202V17.7566C82.6818 17.9749 81.5935 18.7306 80.1065 18.7306C78.5322 18.7306 77.9659 18.0059 77.9659 17.1653ZM45.1627 12.677C45.163 12.679 45.3194 13.3496 45.1134 14.2266C45.0084 14.6726 44.8154 15.0519 45.0484 15.0519C45.209 15.0519 45.2094 14.9186 45.4184 14.4406C45.724 13.742 46.3684 12.4703 47.874 12.4703C49.3053 12.4703 49.9797 13.34 50.203 14.1543C50.373 14.7729 50.2243 15.0519 50.4317 15.0519C50.579 15.0519 50.63 14.7309 50.8113 14.3249C51.137 13.5976 51.8453 12.4703 53.278 12.4703C55.4396 12.4703 56.265 14.0313 56.265 16.3729V21.6492H53.0537V16.7849C53.0537 15.9739 52.9227 15.1873 52.1833 15.1873C51.4983 15.1873 51.179 16.4013 51.179 17.1849V21.6512H47.9087V16.7853C47.9087 15.7476 47.7624 15.1876 47.033 15.1876C46.4017 15.1876 46.0334 16.3046 46.0334 17.1853V21.6496H42.776V12.677H45.1627ZM66.8126 12.6893C66.8139 12.69 67.3683 13.0096 68.4442 13.0096C69.5222 13.0096 70.0696 12.6893 70.0696 12.6893V21.6516H66.8126V12.6893ZM93.7021 12.6893C93.7034 12.69 94.2578 13.0096 95.3341 13.0096C96.4118 13.0096 96.9594 12.6893 96.9594 12.6893V21.6516H93.7021V12.6893ZM74.3809 9.96064V21.6516H71.1236V9.96064H74.3809ZM86.9381 9.96064C86.9385 9.96164 87.0731 10.2976 87.0731 11.297C87.0731 12.7726 86.7521 13.9736 86.6005 14.4313C86.5201 14.6736 86.3768 15.0476 86.5825 15.0543C86.7011 15.0579 86.7725 14.8793 86.9178 14.5693C87.0625 14.2589 87.7798 12.4723 89.6651 12.4723C92.2621 12.4723 92.6441 14.5989 92.6441 16.9019V21.6512H89.3868V16.7069C89.3868 15.6929 89.1741 15.1893 88.4945 15.1893C87.6738 15.1893 87.3838 16.4599 87.3838 17.1873V21.6512H84.1265V9.96031L86.9381 9.96064ZM100.446 12.677C100.447 12.679 100.603 13.3496 100.397 14.2266C100.292 14.6726 100.099 15.0519 100.332 15.0519C100.493 15.0519 100.493 14.9186 100.702 14.4406C101.007 13.742 101.652 12.4703 103.158 12.4703C104.654 12.4703 105.248 13.344 105.487 14.1543C105.647 14.6973 105.508 15.0519 105.715 15.0519C105.863 15.0519 105.914 14.7309 106.095 14.3249C106.42 13.5976 107.129 12.4703 108.562 12.4703C110.723 12.4703 111.549 14.0313 111.549 16.3729V21.6492H108.337V16.7849C108.337 15.9739 108.206 15.1873 107.467 15.1873C106.782 15.1873 106.462 16.4013 106.462 17.1849V21.6512H103.192V16.7853C103.192 15.7476 103.046 15.1876 102.317 15.1876C101.685 15.1876 101.317 16.3046 101.317 17.1853V21.6496H98.0598V12.677H100.446ZM68.4312 9.86997C67.3306 9.86997 66.4376 10.4526 66.4376 11.1713C66.4376 11.89 67.3302 12.4726 68.4312 12.4726C69.5326 12.4726 70.4252 11.89 70.4252 11.1713C70.4252 10.4526 69.5329 9.86997 68.4312 9.86997ZM95.3211 9.86997C94.2201 9.86997 93.3271 10.4526 93.3271 11.1713C93.3271 11.89 94.2198 12.4726 95.3211 12.4726C96.4221 12.4726 97.3151 11.89 97.3151 11.1713C97.3151 10.4526 96.4224 9.86997 95.3211 9.86997Z" fill="#111827"/>
<path fill-rule="evenodd" clip-rule="evenodd" d="M117.097 19.7181C116.351 19.7181 115.801 18.7711 115.801 17.4515C115.801 16.1698 116.365 15.1855 117.072 15.1855C117.977 15.1855 118.364 16.0165 118.364 17.4515C118.364 18.9445 118.007 19.7181 117.097 19.7181ZM117.991 12.4672C116.317 12.4672 115.55 13.7221 115.216 14.4371C114.996 14.9095 115.008 15.0485 114.846 15.0485C114.614 15.0485 114.807 14.6691 114.912 14.2231C115.118 13.3448 114.961 12.6738 114.961 12.6738H112.576V24.1214H115.832V20.4921C116.217 21.1458 116.93 21.8441 118.031 21.8441C120.386 21.8441 121.571 19.8518 121.571 17.1601C121.571 14.1095 120.152 12.4672 117.992 12.4672" fill="#111827"/>
<path fill-rule="evenodd" clip-rule="evenodd" d="M31.2616 15.1759C31.4806 15.1499 31.6902 15.1485 31.8832 15.1759C31.9949 14.9199 32.0139 14.4789 31.9136 13.9985C31.7646 13.2845 31.5626 12.8525 31.1452 12.9199C30.7279 12.9872 30.7126 13.5045 30.8619 14.2182C30.9459 14.6199 31.0952 14.9632 31.2616 15.1759Z" fill="#111827"/>
<path fill-rule="evenodd" clip-rule="evenodd" d="M27.6812 15.7409C27.9796 15.8719 28.1632 15.9589 28.2349 15.8829C28.2812 15.8356 28.2672 15.7452 28.1959 15.6289C28.0485 15.3886 27.7456 15.1446 27.4239 15.0076C26.7666 14.7246 25.9822 14.8186 25.3772 15.2532C25.1776 15.3996 24.9882 15.6022 25.0152 15.7252C25.0239 15.7649 25.0539 15.7949 25.1239 15.8049C25.2886 15.8236 25.8639 15.5329 26.5269 15.4922C26.9946 15.4636 27.3826 15.6099 27.6812 15.7409Z" fill="#111827"/>
<path fill-rule="evenodd" clip-rule="evenodd" d="M27.082 16.0836C26.693 16.1449 26.4787 16.2733 26.341 16.3923C26.2237 16.4949 26.151 16.6086 26.1517 16.6883C26.152 16.7263 26.1684 16.7483 26.1814 16.7593C26.199 16.7749 26.22 16.7836 26.2454 16.7836C26.333 16.7836 26.53 16.7046 26.53 16.7046C27.071 16.5109 27.428 16.5346 27.7817 16.5746C27.977 16.5966 28.0697 16.6086 28.1124 16.5416C28.125 16.5223 28.1404 16.4806 28.1014 16.4173C28.0104 16.2696 27.6174 16.0199 27.082 16.0836Z" fill="#111827"/>
<path fill-rule="evenodd" clip-rule="evenodd" d="M30.0534 17.341C30.3174 17.4707 30.6081 17.4197 30.7027 17.2274C30.7974 17.035 30.6601 16.7737 30.3961 16.644C30.1321 16.5144 29.8414 16.5653 29.7467 16.7577C29.6521 16.9503 29.7894 17.2113 30.0534 17.341Z" fill="#111827"/>
<path fill-rule="evenodd" clip-rule="evenodd" d="M31.751 15.8581C31.5366 15.8544 31.3586 16.0898 31.3536 16.3841C31.3486 16.6784 31.5186 16.9194 31.733 16.9231C31.9473 16.9268 32.1253 16.6914 32.1303 16.3971C32.1353 16.1031 31.9653 15.8618 31.751 15.8581Z" fill="#111827"/>
<path fill-rule="evenodd" clip-rule="evenodd" d="M17.3444 21.1612C17.2911 21.0942 17.2034 21.1146 17.1184 21.1346C17.0591 21.1486 16.9921 21.1639 16.9184 21.1629C16.7607 21.1599 16.6271 21.0926 16.5521 20.9772C16.4544 20.8272 16.4601 20.6036 16.5677 20.3476L16.6181 20.2329C16.7901 19.8469 17.0777 19.2013 16.7547 18.5859C16.5114 18.1226 16.1147 17.8343 15.6377 17.7736C15.1798 17.7156 14.7084 17.8853 14.4078 18.2169C13.9334 18.7402 13.8591 19.4526 13.9508 19.7042C13.9844 19.7962 14.0371 19.8219 14.0751 19.8272C14.1558 19.8379 14.2751 19.7792 14.3498 19.5782L14.3711 19.5129C14.4044 19.4066 14.4664 19.2086 14.5681 19.0499C14.6908 18.8586 14.8814 18.7269 15.1054 18.6786C15.3334 18.6296 15.5667 18.6733 15.7621 18.8013C16.0944 19.0186 16.2224 19.4259 16.0804 19.8142C16.0071 20.0152 15.8877 20.3996 15.9141 20.7152C15.9674 21.3542 16.3604 21.6109 16.7134 21.6382C17.0567 21.6512 17.2967 21.4582 17.3574 21.3176C17.3931 21.2342 17.3631 21.1836 17.3434 21.1619" fill="#111827"/>
<path fill-rule="evenodd" clip-rule="evenodd" d="M20.6099 9.42473C21.7299 8.13074 23.1082 7.00575 24.3432 6.37408C24.3859 6.35208 24.4312 6.39842 24.4082 6.44042C24.3102 6.61808 24.1212 6.99841 24.0616 7.28674C24.0522 7.33174 24.1012 7.36541 24.1392 7.33975C24.9076 6.81608 26.2439 6.25475 27.4162 6.18275C27.4666 6.17975 27.4909 6.24408 27.4509 6.27508C27.2726 6.41175 27.0776 6.60108 26.9352 6.79242C26.9109 6.82508 26.9339 6.87175 26.9746 6.87208C27.7976 6.87808 28.9579 7.16608 29.7142 7.59041C29.7652 7.61908 29.7289 7.71807 29.6715 7.70507C28.5272 7.44274 26.6542 7.24375 24.7082 7.71841C22.9712 8.14208 21.6453 8.7964 20.6783 9.49973C20.6293 9.5354 20.5703 9.4704 20.6099 9.42473ZM26.1872 21.962L26.1876 21.9627L26.1882 21.964L26.1872 21.962ZM30.8052 22.507C30.8385 22.493 30.8612 22.4553 30.8575 22.4177C30.8529 22.3713 30.8115 22.3377 30.7652 22.3423C30.7652 22.3423 28.3755 22.696 26.1179 21.8697C26.3639 21.0703 27.0176 21.359 28.0059 21.4387C29.7872 21.545 31.3839 21.2847 32.5639 20.946C33.5862 20.6527 34.9292 20.074 35.9722 19.2507C36.3238 20.0233 36.4482 20.874 36.4482 20.874C36.4482 20.874 36.7205 20.8253 36.9482 20.9653C37.1632 21.0977 37.3208 21.3727 37.2132 22.084C36.9938 23.4127 36.4292 24.4913 35.4798 25.4836C34.9018 26.1056 34.2005 26.6463 33.3979 27.0396C32.9715 27.2636 32.5179 27.4573 32.0382 27.6136C28.4595 28.7826 24.7962 27.4976 23.6156 24.7383C23.5212 24.531 23.4416 24.3137 23.3789 24.0867C22.8759 22.2683 23.3029 20.0867 24.6382 18.7134C24.7206 18.626 24.8046 18.5224 24.8046 18.3927C24.8046 18.2844 24.7356 18.17 24.6759 18.0887C24.2086 17.411 22.5903 16.2564 22.9152 14.0217C23.1486 12.4164 24.5526 11.2857 25.8616 11.3527L26.1932 11.3717C26.7606 11.4054 27.2552 11.4781 27.7222 11.4977C28.5039 11.5317 29.2065 11.4181 30.0392 10.7244C30.3199 10.4904 30.5452 10.2874 30.9262 10.2231C30.9662 10.2161 31.0659 10.1804 31.2649 10.1897C31.4682 10.2007 31.6615 10.2564 31.8352 10.3721C32.5025 10.8161 32.5972 11.8917 32.6319 12.6784C32.6515 13.1274 32.7059 14.214 32.7245 14.526C32.7669 15.2394 32.9545 15.3397 33.3339 15.4647C33.5472 15.535 33.7452 15.5874 34.0372 15.6694C34.9205 15.9174 35.4442 16.169 35.7745 16.4924C35.9715 16.6944 36.0632 16.909 36.0915 17.1137C36.1955 17.8737 35.5015 18.8123 33.6639 19.6653C31.6552 20.5977 29.2182 20.8337 27.5346 20.646L26.9446 20.5793C25.5979 20.398 24.8296 22.1383 25.6379 23.331C26.1589 24.0997 27.5779 24.5997 28.9975 24.6C32.2525 24.6003 34.7545 23.2103 35.6852 22.01L35.7595 21.904C35.8055 21.835 35.7675 21.797 35.7105 21.836C34.9502 22.3563 31.5729 24.422 27.9602 23.8003C27.9602 23.8003 27.5212 23.728 27.1206 23.5723C26.8022 23.4483 26.1356 23.1417 26.0546 22.458C28.9699 23.3597 30.8052 22.507 30.8052 22.507ZM14.7923 15.5787C13.7783 15.7757 12.8846 16.3504 12.3383 17.1444C12.0116 16.872 11.4033 16.3447 11.2956 16.139C10.4233 14.4824 12.2476 11.2617 13.5223 9.44273C16.6723 4.94775 21.6056 1.54544 23.8892 2.16277C24.2606 2.26777 25.4902 3.69343 25.4902 3.69343C25.4902 3.69343 23.2072 4.96009 21.0903 6.72575C18.2376 8.92207 16.0833 12.1144 14.7923 15.5787ZM16.4959 23.1803C16.3426 23.2067 16.186 23.217 16.028 23.213C14.5023 23.172 12.8546 21.7987 12.691 20.17C12.51 18.3697 13.43 16.9844 15.0586 16.6557C15.2533 16.6164 15.4886 16.5937 15.7423 16.607C16.6549 16.657 17.9996 17.3577 18.3066 19.3457C18.5786 21.1063 18.1466 22.899 16.4959 23.1803ZM37.1612 19.9923C37.1482 19.946 37.0628 19.635 36.9458 19.26C36.8288 18.8847 36.7078 18.621 36.7078 18.621C37.1772 17.9187 37.1855 17.2904 37.1228 16.9347C37.0562 16.4937 36.8725 16.118 36.5025 15.7294C36.1325 15.341 35.3755 14.943 34.3118 14.6444L33.7539 14.4894C33.7512 14.4664 33.7245 13.1737 33.7005 12.6187C33.6829 12.2174 33.6485 11.5911 33.4542 10.9744C33.2225 10.1394 32.8192 9.40873 32.3155 8.9414C33.7055 7.50074 34.5732 5.91342 34.5709 4.55209C34.5668 1.93377 31.3512 1.14145 27.3882 2.78244L26.5486 3.13877C26.5449 3.1351 25.0306 1.64944 25.0079 1.62944C20.4896 -2.31154 6.363 13.3907 10.8793 17.2044L11.8663 18.0407C11.6103 18.704 11.5096 19.464 11.592 20.281C11.6973 21.3307 12.2386 22.3367 13.1163 23.114C13.9493 23.852 15.0446 24.3193 16.1073 24.3183C17.8649 28.3686 21.8809 30.8533 26.5896 30.9933C31.6405 31.1433 35.8805 28.7733 37.6572 24.516C37.7735 24.2173 38.2665 22.871 38.2665 21.6823C38.2665 20.488 37.5912 19.9923 37.1612 19.9923Z" fill="#111827"/>
</svg>
