<svg width="172" height="32" viewBox="0 0 172 32" fill="none" xmlns="http://www.w3.org/2000/svg">
<path fill-rule="evenodd" clip-rule="evenodd" d="M40.4168 15.8956H44.9193C44.6194 14.7517 43.798 14.288 42.7976 14.288C41.6976 14.288 40.8161 14.8875 40.4168 15.8956ZM47.5608 17.8518H40.2571C40.557 19.3251 41.797 19.8679 42.8775 19.8679C44.2382 19.8679 44.8199 19.0538 44.8199 19.0538H47.3408C46.5798 20.991 44.7596 22.056 42.7977 22.056C40.0959 22.056 37.7347 20.0604 37.7347 17.0392C37.7347 14.0356 40.0762 12.1756 42.7177 12.1756C45.2794 12.1756 47.8818 13.8998 47.5608 17.8518Z" fill="#5423E7"/>
<path fill-rule="evenodd" clip-rule="evenodd" d="M72.3728 17.1164C72.3728 15.6051 71.4522 14.4236 69.9317 14.4236C68.4099 14.4236 67.3897 15.6051 67.3897 17.1164C67.3897 18.6278 68.4099 19.8093 69.9317 19.8093C71.4522 19.8093 72.3728 18.6278 72.3728 17.1164ZM64.7678 17.1353C64.7678 14.0356 67.2495 12.1756 69.9316 12.1756C72.6334 12.1756 74.9946 14.0545 74.9946 17.0959C74.9946 20.177 72.552 22.0558 69.8503 22.0558C67.1289 22.0558 64.7678 20.177 64.7678 17.1353Z" fill="#5423E7"/>
<path fill-rule="evenodd" clip-rule="evenodd" d="M85.7069 16.7097V21.9597H83.0441V17.2901C83.0441 16.9605 83.2855 14.5198 81.3639 14.4238C80.4221 14.3654 78.7419 14.8685 78.7419 17.4069V21.9597H76.1006V12.2719H78.5253L78.5332 13.6168C78.5332 13.6168 79.6265 12.1756 81.6656 12.1756C84.247 12.1756 85.7069 14.0356 85.7069 16.7097Z" fill="#5423E7"/>
<path fill-rule="evenodd" clip-rule="evenodd" d="M95.4397 14.2296C94.599 14.2296 94.239 14.6366 94.239 15.0437C94.239 15.7016 95.1397 15.8956 95.7397 16.0124C97.5225 16.3798 99.3232 16.9037 99.3232 18.9559C99.3232 20.9517 97.6218 22.056 95.5604 22.056C93.2597 22.056 91.4783 20.7008 91.3576 18.6468H93.8183C93.879 19.2273 94.2797 19.983 95.5004 19.983C96.5204 19.983 96.7618 19.4609 96.7618 19.0538C96.7618 18.3361 96.0604 18.123 95.3797 17.9684C94.1997 17.716 91.6576 17.2523 91.6576 15.0437C91.6576 13.1443 93.5397 12.1756 95.4804 12.1756C97.7211 12.1756 99.2025 13.493 99.3232 15.1209H96.8604C96.7811 14.7912 96.4618 14.2296 95.4397 14.2296Z" fill="#5423E7"/>
<path fill-rule="evenodd" clip-rule="evenodd" d="M107.414 17.1164C107.414 15.5074 106.512 14.5592 105.212 14.5592C103.992 14.5592 102.77 15.4111 102.77 17.1164C102.77 18.8203 103.992 19.6737 105.212 19.6737C106.512 19.6737 107.414 18.7241 107.414 17.1164ZM109.915 12.2719V25.8341H107.414V21.0099C106.774 21.7072 105.872 22.0558 104.831 22.0558C102.291 22.0558 100.169 20.0414 100.169 17.1164C100.169 14.19 102.291 12.1756 104.831 12.1756C106.828 12.1756 107.576 13.4731 107.576 13.4731L107.572 12.2719H109.915Z" fill="#5423E7"/>
<path fill-rule="evenodd" clip-rule="evenodd" d="M124.216 15.8956H128.719C128.419 14.7517 127.597 14.288 126.597 14.288C125.497 14.288 124.615 14.8875 124.216 15.8956ZM131.36 17.8518H124.055C124.357 19.3251 125.597 19.8679 126.676 19.8679C128.037 19.8679 128.619 19.0538 128.619 19.0538H131.14C130.379 20.991 128.559 22.056 126.597 22.056C123.895 22.056 121.534 20.0604 121.534 17.0392C121.534 14.0356 123.876 12.1756 126.517 12.1756C129.079 12.1756 131.681 13.8998 131.36 17.8518Z" fill="#5423E7"/>
<path fill-rule="evenodd" clip-rule="evenodd" d="M134.849 15.8956H139.351C139.051 14.7517 138.23 14.288 137.229 14.288C136.129 14.288 135.248 14.8875 134.849 15.8956ZM141.993 17.8518H134.689C134.989 19.3251 136.229 19.8679 137.309 19.8679C138.67 19.8679 139.251 19.0538 139.251 19.0538H141.773C141.011 20.991 139.191 22.056 137.229 22.056C134.528 22.056 132.166 20.0604 132.166 17.0392C132.166 14.0356 134.508 12.1756 137.149 12.1756C139.711 12.1756 142.313 13.8998 141.993 17.8518Z" fill="#5423E7"/>
<path fill-rule="evenodd" clip-rule="evenodd" d="M150.903 19.7905V21.9595H142.398V20.6803L147.222 14.4426H142.599V12.2719H150.704V13.5511L145.881 19.7905H150.903Z" fill="#5423E7"/>
<path fill-rule="evenodd" clip-rule="evenodd" d="M161.315 12.2719V20.991C161.315 23.6067 159.933 25.9321 156.512 25.9321C153.31 25.9321 151.569 23.8969 151.569 22.3668H154.07C154.07 22.3668 154.45 23.6651 156.432 23.6651C158.113 23.6651 158.814 22.7342 158.814 21.379V20.972C158.372 21.4565 157.533 22.056 156.033 22.056C153.41 22.056 151.77 20.2165 151.77 17.5235L151.748 12.2719H154.35V16.9415C154.35 18.2586 154.832 19.8096 156.492 19.8096C157.352 19.8096 158.773 19.4025 158.773 16.8247V12.2719H161.315Z" fill="#5423E7"/>
<path fill-rule="evenodd" clip-rule="evenodd" d="M35.83 19.0515C35.83 19.6556 36.068 19.9048 36.5097 19.9048C36.8208 19.9048 37.023 19.8687 37.3177 19.7803L37.4825 21.7712C36.9316 21.9478 36.3989 22.0551 35.7193 22.0551C34.1599 22.0551 33.2049 21.5582 33.2049 19.4065V8.39743H35.83V19.0515Z" fill="#5423E7"/>
<path fill-rule="evenodd" clip-rule="evenodd" d="M63.6382 16.7097V21.9597H60.9755V17.2902C60.9755 15.954 61.1158 14.2677 59.2743 14.4238C58.7953 14.4617 57.4737 14.6745 57.4737 17.4069V21.9597H54.8322V17.2902C54.8322 15.954 54.9723 14.2677 53.131 14.4238C52.6502 14.4617 51.3304 14.6745 51.3304 17.4069V21.9597H48.6889V12.2719H51.1138L51.116 13.6168C51.116 13.6168 52.0427 12.1756 53.7713 12.1756C55.8542 12.1756 56.6718 13.7445 56.6718 13.7445C56.6718 13.7445 57.5685 12.1568 59.856 12.1568C62.4569 12.1568 63.6382 14.0168 63.6382 16.7097Z" fill="#5423E7"/>
<path fill-rule="evenodd" clip-rule="evenodd" d="M111.038 17.522V12.2719H113.701V16.9415C113.701 17.2711 113.459 19.7118 115.381 19.8078C116.323 19.8663 118.003 19.3631 118.003 16.8247V12.2719H120.644V21.9597H118.223L118.212 20.6149C118.212 20.6149 117.118 22.056 115.079 22.056C112.498 22.056 111.038 20.196 111.038 17.522Z" fill="#5423E7"/>
<path fill-rule="evenodd" clip-rule="evenodd" d="M14.9491 18.2753L20.3142 20.7558C20.9792 21.0633 21.4486 21.5795 21.7021 22.1717C22.3432 23.6711 21.4669 25.2047 20.0914 25.7563C18.7155 26.3075 17.2493 25.9528 16.5825 24.3934L14.2476 18.9188C14.0667 18.4945 14.5212 18.0775 14.9491 18.2753Z" fill="#FFC233"/>
<path fill-rule="evenodd" clip-rule="evenodd" d="M15.2707 16.6696L20.8089 14.576C22.6496 13.8803 24.6602 15.1967 24.633 17.1096C24.6326 17.1346 24.6322 17.1595 24.6315 17.1847C24.5918 19.0474 22.6371 20.2994 20.8369 19.6404L15.2759 17.6051C14.8323 17.4428 14.8291 16.8365 15.2707 16.6696Z" fill="#FFC233"/>
<path fill-rule="evenodd" clip-rule="evenodd" d="M14.9606 15.9445L20.4049 13.6311C22.2141 12.8623 22.6732 10.5549 21.2563 9.2217C21.2377 9.20414 21.2192 9.18679 21.2004 9.16945C19.8112 7.88003 17.5148 8.33402 16.7239 10.0324L14.2808 15.2795C14.0859 15.698 14.5264 16.1289 14.9606 15.9445Z" fill="#FFC233"/>
<path fill-rule="evenodd" clip-rule="evenodd" d="M13.5596 15.0303L15.539 9.60292C15.7844 8.92997 15.7389 8.24369 15.4852 7.65155C14.8428 6.1527 13.1029 5.66888 11.7275 6.22124C10.3523 6.77382 9.57528 8.02875 10.2433 9.58748L12.5935 15.0561C12.7758 15.4799 13.4018 15.4632 13.5596 15.0303Z" fill="#FFC233"/>
</svg>
