<svg width="86" height="32" viewBox="0 0 86 32" fill="none" xmlns="http://www.w3.org/2000/svg">
<path fill-rule="evenodd" clip-rule="evenodd" d="M61.2389 14.9667C61.0405 16.2693 60.0457 16.2693 59.0836 16.2693H58.536L58.92 13.8372C58.9431 13.6903 59.0699 13.582 59.219 13.582H59.4698C60.1248 13.582 60.7435 13.582 61.0626 13.9551C61.2534 14.1784 61.311 14.5093 61.2389 14.9667ZM60.8201 11.5682H57.1912C56.9431 11.5682 56.7319 11.7488 56.6931 11.9939L55.2259 21.299C55.1969 21.4825 55.3387 21.6485 55.5246 21.6485H57.3866C57.5602 21.6485 57.7082 21.5221 57.7351 21.3505L58.1511 18.7126C58.1899 18.4675 58.4011 18.287 58.6493 18.287H59.7975C62.1877 18.287 63.5675 17.1301 63.9281 14.8375C64.0903 13.8348 63.9345 13.0469 63.4649 12.4953C62.9488 11.8889 62.0344 11.5682 60.8201 11.5682Z" fill="#2790C3"/>
<path fill-rule="evenodd" clip-rule="evenodd" d="M69.2448 18.3071C69.0772 19.3001 68.2889 19.9666 67.2836 19.9666C66.7795 19.9666 66.3761 19.8045 66.1167 19.4976C65.8597 19.1933 65.7631 18.7598 65.8446 18.277C66.001 17.293 66.8019 16.6049 67.7919 16.6049C68.2852 16.6049 68.6859 16.7687 68.9504 17.0784C69.2166 17.3904 69.321 17.8268 69.2448 18.3071ZM71.6665 14.9251H69.9289C69.7801 14.9251 69.6533 15.0332 69.6302 15.1804L69.5538 15.6663L69.4324 15.4902C69.0559 14.944 68.2174 14.7615 67.3796 14.7615C65.4601 14.7615 63.8202 16.2163 63.501 18.2568C63.335 19.2746 63.5707 20.2473 64.1477 20.9263C64.6781 21.5501 65.4348 21.8098 66.3363 21.8098C67.8837 21.8098 68.7419 20.8157 68.7419 20.8157L68.6644 21.2986C68.6353 21.4823 68.7771 21.6485 68.9633 21.6485H70.5279C70.776 21.6485 70.9873 21.4681 71.026 21.223L71.9652 15.2745C71.9943 15.0909 71.8525 14.9251 71.6665 14.9251Z" fill="#2790C3"/>
<path fill-rule="evenodd" clip-rule="evenodd" d="M73.7147 11.8238L72.2252 21.299C72.1964 21.4826 72.3382 21.6485 72.5242 21.6485H74.022C74.2701 21.6485 74.4814 21.468 74.5201 21.223L75.9887 11.9179C76.0174 11.7343 75.8756 11.5682 75.6897 11.5682H74.0134C73.8646 11.5682 73.7378 11.6767 73.7147 11.8238Z" fill="#2790C3"/>
<path fill-rule="evenodd" clip-rule="evenodd" d="M35.3564 14.9667C35.158 16.2693 34.1631 16.2693 33.201 16.2693H32.6535L33.0375 13.8372C33.0608 13.6903 33.1875 13.582 33.3362 13.582H33.5872C34.2422 13.582 34.861 13.582 35.1799 13.9551C35.3709 14.1784 35.4286 14.5093 35.3564 14.9667ZM34.9377 11.5682H31.3086C31.0606 11.5682 30.8494 11.7488 30.8107 11.9939L29.3432 21.299C29.3143 21.4825 29.4562 21.6485 29.642 21.6485H31.3747C31.6228 21.6485 31.8341 21.468 31.8728 21.223L32.2688 18.7126C32.3073 18.4675 32.5186 18.287 32.7667 18.287H33.9151C36.3052 18.287 37.6848 17.1301 38.0454 14.8375C38.2077 13.8348 38.0521 13.0469 37.5825 12.4953C37.0661 11.8889 36.1516 11.5682 34.9377 11.5682Z" fill="#27346A"/>
<path fill-rule="evenodd" clip-rule="evenodd" d="M43.3624 18.3071C43.1945 19.3001 42.4063 19.9666 41.4009 19.9666C40.8971 19.9666 40.4934 19.8045 40.2343 19.4976C39.9773 19.1933 39.8804 18.7597 39.962 18.277C40.1183 17.293 40.9192 16.6049 41.9092 16.6049C42.4028 16.6049 42.8032 16.7687 43.0677 17.0784C43.3341 17.3904 43.4386 17.8268 43.3624 18.3071ZM45.7841 14.925H44.0465C43.8974 14.925 43.7709 15.0332 43.7475 15.1804L43.6711 15.6663L43.5497 15.4902C43.1735 14.944 42.3347 14.7615 41.4972 14.7615C39.5774 14.7615 37.9375 16.2163 37.6183 18.2568C37.4523 19.2746 37.688 20.2473 38.2652 20.9263C38.7954 21.5501 39.5521 21.8098 40.4536 21.8098C42.0013 21.8098 42.8594 20.8157 42.8594 20.8157L42.7817 21.2986C42.7529 21.4823 42.8947 21.6485 43.0806 21.6485H44.6455C44.8936 21.6485 45.1049 21.4681 45.1434 21.223L46.0828 15.2745C46.1119 15.0909 45.9701 14.925 45.7841 14.925Z" fill="#27346A"/>
<path fill-rule="evenodd" clip-rule="evenodd" d="M55.0387 14.925H53.2922C53.1254 14.925 52.969 15.0079 52.8751 15.146L50.466 18.6945L49.4448 15.2847C49.381 15.0713 49.1845 14.925 48.962 14.925H47.2451C47.0376 14.925 46.8918 15.1289 46.9585 15.3251L48.8818 20.9702L47.0729 23.5226C46.9308 23.7229 47.0742 24 47.3196 24H49.0645C49.23 24 49.3848 23.9189 49.4789 23.7829L55.2876 15.4C55.4265 15.1994 55.2831 14.925 55.0387 14.925Z" fill="#27346A"/>
<path fill-rule="evenodd" clip-rule="evenodd" d="M16.8699 23.3403L17.3577 20.247L17.3892 20.0756C17.4127 19.9265 17.489 19.7902 17.604 19.692C17.719 19.5938 17.8656 19.5397 18.0168 19.5397H18.4042C19.0499 19.5397 19.643 19.4707 20.1674 19.3346C20.7268 19.1897 21.2244 18.9638 21.6462 18.6638C22.0934 18.3458 22.469 17.9346 22.7627 17.4421C23.0726 16.9224 23.3001 16.2968 23.4391 15.5828C23.5619 14.9523 23.5849 14.3878 23.5077 13.9049C23.426 13.3947 23.2295 12.9594 22.9237 12.6107C22.7382 12.3995 22.5009 12.2165 22.2185 12.0668L22.2118 12.0632L22.2116 12.055C22.3103 11.4257 22.3065 10.9007 22.2004 10.4487C22.0937 9.9958 21.8778 9.58822 21.5397 9.20299C20.8392 8.4048 19.5651 8 17.7529 8H12.776C12.6097 8 12.4482 8.05953 12.3217 8.16766C12.1951 8.2758 12.1113 8.42601 12.0852 8.59041L10.0129 21.7315C9.99398 21.8514 10.0284 21.9732 10.1073 22.0652C10.1863 22.1577 10.3011 22.2107 10.4224 22.2107H13.51L13.5072 22.2253L13.2952 23.5699C13.2789 23.6744 13.3089 23.7805 13.3776 23.8607C13.4462 23.9411 13.5462 23.9874 13.6519 23.9874H16.2415C16.3868 23.9874 16.5276 23.9354 16.638 23.841C16.7484 23.7465 16.8218 23.6156 16.8445 23.4722L16.8699 23.3403Z" fill="#27346A"/>
<path fill-rule="evenodd" clip-rule="evenodd" d="M22.2242 12.0555C22.2094 12.1506 22.1929 12.2473 22.1734 12.347C21.5172 15.7167 19.2717 16.8817 16.4039 16.8817H14.9435C14.5932 16.8817 14.2973 17.1368 14.2427 17.4829L13.2829 23.5681C13.2471 23.7948 13.4225 24 13.6519 24H16.2417C16.5482 24 16.8092 23.777 16.8569 23.4742L16.8824 23.3425L17.3702 20.249L17.4017 20.078C17.4495 19.7752 17.7104 19.5522 18.0169 19.5522H18.4042C20.9131 19.5522 22.8776 18.5329 23.4517 15.5851C23.6914 14.3534 23.5675 13.3252 22.9332 12.6024C22.7414 12.3838 22.5026 12.203 22.2242 12.0555Z" fill="#2790C3"/>
<path fill-rule="evenodd" clip-rule="evenodd" d="M21.5374 11.7818C21.4374 11.7525 21.3341 11.7262 21.2276 11.7026C21.1211 11.6789 21.0117 11.658 20.8992 11.64C20.5051 11.5765 20.0742 11.5462 19.612 11.5462H15.7109C15.6152 11.5462 15.5238 11.568 15.442 11.6071C15.2621 11.6934 15.1285 11.8639 15.0957 12.0721L14.2666 17.3294L14.2427 17.4829C14.2973 17.1368 14.5932 16.8817 14.9435 16.8817H16.4039C19.2717 16.8817 21.5172 15.7167 22.1734 12.347C22.1929 12.2473 22.2094 12.1506 22.2242 12.0555C22.0585 11.9678 21.8784 11.8921 21.685 11.8278C21.6365 11.8117 21.5874 11.7964 21.5374 11.7818Z" fill="#111827"/>
</svg>
