<svg width="27" height="26" viewBox="0 0 27 26" fill="none" xmlns="http://www.w3.org/2000/svg">
<path d="M24.8772 13.2526C24.8772 12.3174 24.7998 11.6349 24.6322 10.9271H13.7344V15.1484H20.1311C20.0022 16.1975 19.3058 17.7774 17.7582 18.839L17.7365 18.9803L21.1821 21.5962L21.4209 21.6196C23.6133 19.6353 24.8772 16.7157 24.8772 13.2526Z" fill="#4285F4"/>
<path d="M13.7362 24.375C16.8701 24.375 19.501 23.3638 21.4227 21.6197L17.76 18.839C16.7799 19.5089 15.4644 19.9766 13.7362 19.9766C10.6668 19.9766 8.06168 17.9923 7.13303 15.2496L6.99691 15.261L3.41404 17.9784L3.36719 18.106C5.27589 21.8218 9.19652 24.375 13.7362 24.375Z" fill="#34A853"/>
<path d="M7.12891 15.2497C6.88388 14.5419 6.74207 13.7835 6.74207 13C6.74207 12.2163 6.88388 11.458 7.11602 10.7502L7.10953 10.5995L3.48176 7.83849L3.36306 7.89381C2.57639 9.43578 2.125 11.1673 2.125 13C2.125 14.8326 2.57639 16.5641 3.36306 18.106L7.12891 15.2497Z" fill="#FBBC05"/>
<path d="M13.7363 6.0233C15.9158 6.0233 17.386 6.94594 18.2244 7.71696L21.5001 4.5825C19.4883 2.74987 16.8702 1.625 13.7363 1.625C9.19655 1.625 5.2759 4.17804 3.36719 7.89384L7.12016 10.7503C8.06171 8.00763 10.6669 6.0233 13.7363 6.0233Z" fill="#EB4335"/>
</svg>
