<svg width="91" height="32" viewBox="0 0 91 32" fill="none" xmlns="http://www.w3.org/2000/svg">
<path d="M10.7754 6.07714C9.19945 6.74156 7.46691 8.61865 6.91972 10.9748C6.22674 13.9601 9.11054 15.2225 9.34708 14.8086C9.62547 14.3223 8.83033 14.1578 8.66666 12.6088C8.45512 10.6083 9.37856 8.37285 10.5407 7.39202C10.7568 7.20979 10.7465 7.46342 10.7465 7.93257C10.7465 8.77151 10.7005 16.3027 10.7005 17.8745C10.7005 20.0013 10.6132 20.6729 10.4566 21.3365C10.2979 22.0091 10.0427 22.4635 10.2361 22.6385C10.4521 22.8343 11.3744 22.3686 11.9083 21.618C12.5486 20.7178 12.7727 19.6368 12.813 18.4627C12.8616 17.0475 12.8595 14.8017 12.8616 13.5208C12.8635 12.346 12.8812 8.90587 12.8411 6.8378C12.8313 6.33055 11.4345 5.79836 10.7754 6.07652L10.7754 6.07714ZM66.7389 16.0304C66.6881 17.1361 66.4451 18.0003 66.1435 18.6099C65.5596 19.7901 64.3481 20.1565 63.8337 18.46C63.5534 17.5353 63.5403 15.9908 63.7418 14.7004C63.947 13.3857 64.5198 12.3929 65.4684 12.4824C66.404 12.5709 66.8419 13.7852 66.7389 16.0304ZM50.9661 22.8903C50.9534 24.7275 50.6663 26.3383 50.0507 26.8061C49.1775 27.4695 48.004 26.9719 48.247 25.6313C48.462 24.445 49.4789 23.2335 50.9685 21.7532C50.9685 21.7532 50.9716 22.0908 50.9661 22.8903ZM50.7276 16.0197C50.6742 17.0268 50.415 18.0384 50.1322 18.6101C49.5485 19.7902 48.3281 20.1591 47.8224 18.4602C47.4766 17.2994 47.5594 15.797 47.7305 14.8503C47.9525 13.6221 48.4906 12.4827 49.4571 12.4827C50.3967 12.4827 50.8601 13.5209 50.7276 16.0197ZM41.5904 16.0043C41.5331 17.0709 41.3265 17.9625 40.995 18.6101C40.3952 19.7821 39.2085 20.1538 38.6852 18.4602C38.3079 17.2389 38.4363 15.5738 38.5933 14.6742C38.8262 13.3394 39.4094 12.393 40.3199 12.4827C41.2551 12.5747 41.7097 13.7852 41.5904 16.0043ZM83.4642 17.2501C83.2355 17.2501 83.1312 17.4875 83.0449 17.887C82.7455 19.2761 82.4308 19.5898 82.025 19.5898C81.5717 19.5898 81.1644 18.902 81.0596 17.525C80.9773 16.4423 80.9906 14.449 81.0958 12.4661C81.1173 12.0587 81.0057 11.6556 79.9208 11.2587C79.454 11.0879 78.7754 10.8365 78.4375 11.658C77.4828 13.9788 77.1093 15.8213 77.0214 16.5698C77.0169 16.6085 76.9697 16.6164 76.9614 16.5259C76.9054 15.9264 76.7802 14.837 76.7647 12.5482C76.7617 12.1017 76.6677 11.7216 76.1784 11.4104C75.8608 11.2084 74.8966 10.8513 74.5494 11.2762C74.2485 11.6237 73.9002 12.5588 73.5382 13.6673C73.244 14.5683 73.0391 15.1777 73.0391 15.1777C73.0391 15.1777 73.043 12.7468 73.0465 11.8247C73.048 11.4768 72.8111 11.3609 72.7397 11.3399C72.4181 11.2459 71.7846 11.0889 71.5157 11.0889C71.1839 11.0889 71.1027 11.2757 71.1027 11.5478C71.1027 11.5835 71.0503 14.7484 71.0503 16.9615C71.0503 17.0576 71.0503 17.1625 71.0513 17.2739C70.8678 18.2911 70.2726 19.6718 69.6254 19.6718C68.9773 19.6718 68.6716 19.0946 68.6716 16.4562C68.6716 14.9171 68.7175 14.2479 68.74 13.1347C68.7531 12.4935 68.7784 12.0011 68.777 11.8894C68.7722 11.5467 68.1839 11.374 67.9102 11.3102C67.6352 11.2458 67.3962 11.2209 67.2096 11.2316C66.9454 11.2466 66.7585 11.4211 66.7585 11.6612C66.7585 11.7899 66.76 12.0346 66.76 12.0346C66.4198 11.4962 65.8726 11.1214 65.5085 11.0128C64.528 10.7195 63.5047 10.9794 62.7329 12.0671C62.1195 12.9314 61.7498 13.9103 61.6042 15.3167C61.4978 16.3449 61.5325 17.3875 61.7216 18.2692C61.4932 19.2642 61.069 19.6718 60.6045 19.6718C59.9301 19.6718 59.4412 18.5633 59.498 16.646C59.5355 15.385 59.786 14.5 60.0599 13.2198C60.1766 12.674 60.0818 12.3883 59.8438 12.1144C59.6255 11.8632 59.1605 11.7349 58.492 11.8927C58.0159 12.0053 57.3351 12.1263 56.7122 12.2192C56.7122 12.2192 56.7498 12.0682 56.7806 11.8019C56.9426 10.4054 55.436 10.5187 54.9553 10.9648C54.6683 11.2311 54.473 11.5451 54.3989 12.1098C54.2813 13.006 55.007 13.4286 55.007 13.4286C54.7689 14.5263 54.1853 15.9602 53.5828 16.9969C53.26 17.5524 53.0132 17.964 52.6945 18.4015C52.6933 18.2386 52.6924 18.0757 52.6918 17.9135C52.6845 15.6058 52.715 13.7895 52.7285 13.1349C52.7416 12.4937 52.7671 12.0144 52.7657 11.9026C52.7621 11.652 52.6168 11.5574 52.3145 11.4375C52.0473 11.3315 51.7313 11.2582 51.4036 11.2326C50.9899 11.2001 50.7406 11.4211 50.7471 11.6824C50.7484 11.7318 50.7484 12.0347 50.7484 12.0347C50.4081 11.4963 49.861 11.1215 49.4969 11.0129C48.5163 10.7197 47.4931 10.9796 46.7213 12.0672C46.108 12.9315 45.7064 14.1443 45.5926 15.3061C45.4866 16.3888 45.5061 17.309 45.6507 18.0841C45.4947 18.8603 45.0464 19.6719 44.5396 19.6719C43.8915 19.6719 43.5228 19.0947 43.5228 16.4563C43.5228 14.9172 43.5687 14.248 43.5912 13.1349C43.6043 12.4937 43.6296 12.0012 43.6282 11.8896C43.6234 11.5469 43.0351 11.3742 42.7614 11.3103C42.475 11.2436 42.2277 11.219 42.0378 11.2331C41.7873 11.2519 41.6111 11.4779 41.6111 11.6464V12.0347C41.2709 11.4963 40.7238 11.1215 40.3597 11.0129C39.3791 10.7197 38.3616 10.9838 37.5841 12.0672C37.0771 12.7737 36.6666 13.5569 36.4554 15.2907C36.3943 15.7917 36.3674 16.2609 36.3709 16.6994C36.1687 17.9447 35.2757 19.3801 34.5453 19.3801C34.1178 19.3801 33.7107 18.545 33.7107 16.7654C33.7107 14.3949 33.8564 11.0198 33.881 10.6945C33.881 10.6945 34.8039 10.6787 34.9827 10.6766C35.443 10.6715 35.86 10.6825 36.4731 10.6509C36.7807 10.6351 37.0769 9.52349 36.7595 9.38592C36.6157 9.32365 35.5989 9.26909 35.1959 9.26047C34.857 9.25274 33.9134 9.18241 33.9134 9.18241C33.9134 9.18241 33.9981 6.94216 34.0178 6.70551C34.0345 6.50827 33.7811 6.40672 33.6358 6.3451C33.2825 6.19459 32.9664 6.12253 32.5917 6.04474C32.0741 5.93718 31.8393 6.04239 31.7934 6.48242C31.7243 7.15024 31.6885 9.10631 31.6885 9.10631C31.3087 9.10631 30.0111 9.03151 29.6311 9.03151C29.278 9.03151 28.897 10.5607 29.3851 10.5795C29.9466 10.6015 30.9253 10.6204 31.5741 10.6401C31.5741 10.6401 31.5452 14.0708 31.5452 15.13C31.5452 15.2427 31.5462 15.3512 31.5464 15.4565C31.1893 17.331 29.9316 18.3435 29.9316 18.3435C30.2017 17.1034 29.65 16.1722 28.6562 15.3839C28.29 15.0934 27.5672 14.5435 26.7585 13.9408C26.7585 13.9408 27.2269 13.4759 27.6423 12.5405C27.9366 11.8779 27.9493 11.1196 27.2269 10.9524C26.0332 10.6759 25.049 11.5588 24.7555 12.5014C24.528 13.2316 24.6493 13.7735 25.0949 14.3363C25.1274 14.3775 25.1627 14.4195 25.1991 14.4618C24.9297 14.9849 24.5595 15.6891 24.246 16.2352C23.3758 17.7515 22.7185 18.9509 22.2217 18.9509C21.8246 18.9509 21.8299 17.7332 21.8299 16.5932C21.8299 15.6103 21.902 14.1327 21.9595 12.6028C21.9786 12.0969 21.7274 11.8087 21.3063 11.5476C21.0505 11.389 20.5045 11.0772 20.1882 11.0772C19.7149 11.0772 18.3493 11.142 17.0589 14.9013C16.8963 15.3751 16.5769 16.2385 16.5769 16.2385L16.6044 11.7178C16.6044 11.6118 16.5483 11.5094 16.42 11.4393C16.2025 11.3203 15.6218 11.0772 15.1054 11.0772C14.8594 11.0772 14.7366 11.1924 14.7366 11.4222L14.6915 18.4948C14.6915 19.0322 14.7055 19.6591 14.7582 19.9333C14.8108 20.2078 14.8959 20.4312 15.0014 20.5641C15.1067 20.6967 15.2285 20.7978 15.4293 20.8396C15.6162 20.8784 16.6398 21.0107 16.693 20.6168C16.7567 20.1447 16.7591 19.634 17.2966 17.7295C18.1333 14.7644 19.2242 13.3177 19.737 12.8039C19.8267 12.7141 19.9291 12.7087 19.9241 12.8557C19.9023 13.5058 19.8253 15.1301 19.7734 16.5102C19.6345 20.2032 20.3016 20.8878 21.2548 20.8878C21.9841 20.8878 23.0121 20.1579 24.1141 18.3105C24.8012 17.1592 25.4682 16.0303 25.9475 15.2167C26.2815 15.5281 26.6563 15.8632 27.0309 16.2213C27.9013 17.0533 28.1871 17.844 27.9975 18.594C27.8524 19.1674 27.3063 19.7583 26.3343 19.184C26.0509 19.0164 25.93 18.887 25.6451 18.698C25.4921 18.5966 25.2584 18.5662 25.1183 18.6725C24.7544 18.9489 24.5462 19.3004 24.4274 19.7356C24.3118 20.1591 24.7329 20.383 25.1694 20.5788C25.5452 20.7473 26.353 20.9 26.8682 20.9174C28.8755 20.985 30.4835 19.9412 31.6029 17.2488C31.8033 19.5741 32.6561 20.8898 34.1377 20.8898C35.1283 20.8898 36.1214 19.6003 36.5557 18.3316C36.6804 18.8488 36.865 19.2985 37.1033 19.6787C38.245 21.5006 40.4598 21.1085 41.5723 19.5614C41.9163 19.0834 41.9687 18.9116 41.9687 18.9116C42.1309 20.3724 43.2989 20.8828 43.9677 20.8828C44.7167 20.8828 45.49 20.5262 46.032 19.2972C46.0955 19.4306 46.1648 19.558 46.2405 19.6787C47.3822 21.5006 49.597 21.1084 50.7095 19.5614C50.762 19.4888 50.8075 19.423 50.8473 19.3639L50.88 20.3234C50.88 20.3234 50.2453 20.9098 49.8557 21.2695C48.1411 22.854 46.8372 24.0561 46.7413 25.4559C46.6182 27.2409 48.0555 27.9042 49.1429 27.9912C50.2977 28.0835 51.2865 27.441 51.8944 26.5418C52.429 25.7504 52.7789 24.0471 52.7533 22.3647C52.743 21.6911 52.7262 20.8345 52.713 19.9163C53.3156 19.2114 53.9946 18.3205 54.6198 17.2777C55.3012 16.1412 56.0313 14.615 56.4053 13.4273C56.4053 13.4273 57.0397 13.4327 57.7167 13.3881C57.9333 13.3739 57.9955 13.4184 57.9555 13.5783C57.9071 13.7715 57.1001 16.9067 57.8366 18.9952C58.3408 20.425 59.4773 20.885 60.1511 20.885C60.9398 20.885 61.6944 20.285 62.0988 19.3942C62.1475 19.4935 62.1984 19.5896 62.254 19.6783C63.3957 21.5002 65.6028 21.1057 66.723 19.561C66.9759 19.2125 67.1194 18.9112 67.1194 18.9112C67.3598 20.423 68.5271 20.8901 69.1958 20.8901C69.8923 20.8901 70.5532 20.6025 71.0895 19.3244C71.112 19.8872 71.1472 20.3473 71.2029 20.4924C71.2369 20.5811 71.4348 20.6925 71.5788 20.7463C72.2159 20.9842 72.8658 20.8717 73.1062 20.8227C73.2727 20.7888 73.4026 20.6542 73.4203 20.3067C73.467 19.3943 73.4384 17.8613 73.713 16.722C74.174 14.8099 74.604 14.0682 74.808 13.701C74.9222 13.4953 75.051 13.4613 75.0557 13.6791C75.0653 14.1196 75.0871 15.4134 75.2656 17.1516C75.3968 18.4299 75.572 19.1856 75.7067 19.4247C76.091 20.1086 76.5656 20.1409 76.9521 20.1409C77.1979 20.1409 77.712 20.0725 77.666 19.6373C77.6436 19.4252 77.6829 18.1142 78.1374 16.2305C78.4342 15.0003 78.929 13.8888 79.1075 13.4825C79.1733 13.3326 79.2039 13.4507 79.2029 13.4738C79.1653 14.3209 79.0809 17.0919 79.4236 18.6074C79.8881 20.6605 81.2318 20.8902 81.7001 20.8902C82.6997 20.8902 83.5173 20.1244 83.7927 18.1092C83.859 17.6242 83.7608 17.2498 83.4665 17.2498" fill="#262626"/>
</svg>
