<svg width="94" height="32" viewBox="0 0 94 32" fill="none" xmlns="http://www.w3.org/2000/svg">
<path d="M20.1758 24.7109C19.0625 24.9063 17.9297 24.965 16.7578 25.1211L13.1835 14.6524V25.5704C12.0703 25.6875 11.0547 25.8438 10 26V6H12.9688L17.0312 17.3478V6H20.1758V24.7109ZM26.3281 13.3242C27.5392 13.3242 29.3946 13.2656 30.5078 13.2656V16.3905C29.1211 16.3905 27.5001 16.3905 26.3281 16.4492V21.0977C28.1641 20.9805 30.0001 20.8241 31.8554 20.7655V23.7732L23.2031 24.4569V6H31.8554V9.125H26.3281V13.3242ZM43.4765 9.12508H40.2344V23.5001C39.1797 23.5001 38.125 23.5001 37.1095 23.539V9.12508H33.8674V6H43.4767L43.4765 9.12508ZM48.5546 13.1094H52.832V16.2344H48.5546V23.3243H45.488V6H54.2187V9.125H48.5546V13.1094ZM59.2968 20.5898C61.0742 20.6288 62.871 20.7657 64.6093 20.8632V23.9492C61.8164 23.7733 59.0234 23.5978 56.1719 23.539V6H59.2968V20.5898ZM67.246 24.1641C68.2421 24.2227 69.2968 24.2814 70.3124 24.3984V6H67.246V24.1641ZM84.0039 6L80.039 15.5117L84.0039 26C82.8319 25.8438 81.6601 25.6289 80.4882 25.4335L78.2422 19.6524L75.9572 24.965C74.8242 24.7695 73.7305 24.7109 72.5979 24.5546L76.6213 15.3945L72.9883 6H76.3476L78.3984 11.2539L80.586 6H84.0039V6Z" fill="#D81F26"/>
</svg>
