<svg width="135" height="30" viewBox="0 0 135 30" fill="none" xmlns="http://www.w3.org/2000/svg">
<path d="M31.819 17.1114C31.819 13.1072 29.2427 9.57554 25.5408 8.29331C25.0214 3.63699 21.0609 0.00470924 16.2676 0.00470924C11.4747 0.00470924 7.51381 3.63699 6.99435 8.29331C3.10825 9.64556 0.479881 13.4791 0.733703 17.6847C1.0291 22.5948 5.26617 26.4416 10.3798 26.4416C14.4838 26.4416 17.8229 23.1025 17.8229 18.9976V18.665H14.7127V18.9976C14.7127 21.387 12.7688 23.33 10.3798 23.33C6.90857 23.33 4.03513 20.77 3.83776 17.4965C3.65177 14.4113 5.79088 11.6236 8.81486 11.0153L10.0993 10.7571L10.0621 9.44426C10.0608 9.38299 10.0555 9.32172 10.0476 9.25608C10.0896 5.8645 12.8633 3.11622 16.2676 3.11622C19.6727 3.11622 22.4473 5.86449 22.4875 9.26045L22.4359 10.7571L23.7208 11.0153C26.6108 11.5974 28.7088 14.1618 28.7088 17.1114C28.7088 19.9997 26.7185 22.4154 24.0433 23.1112V21.7765L17.8229 24.888L24.0433 27.9951V26.3015C28.4493 25.5576 31.819 21.724 31.819 17.1114Z" fill="#4B5563"/>
<path d="M37.9344 23.8357V4.73939H44.7412C46.2207 4.73939 47.4484 4.99426 48.4243 5.50399C49.4065 6.01372 50.14 6.71927 50.6249 7.62062C51.1097 8.51576 51.3522 9.55077 51.3522 10.7256C51.3522 11.8943 51.1066 12.9231 50.6155 13.812C50.1307 14.6947 49.3972 15.3816 48.415 15.8727C47.439 16.3638 46.2113 16.6093 44.7319 16.6093H39.5755V14.129H44.4708C45.4032 14.129 46.1616 13.9954 46.7459 13.7281C47.3365 13.4608 47.7685 13.0723 48.042 12.5625C48.3155 12.0528 48.4523 11.4405 48.4523 10.7256C48.4523 10.0046 48.3124 9.37982 48.0327 8.85144C47.7592 8.32306 47.3272 7.919 46.7366 7.63927C46.1523 7.35332 45.3846 7.21035 44.4335 7.21035H40.8156V23.8357H37.9344ZM47.3613 15.22L52.0795 23.8357H48.7973L44.1724 15.22H47.3613ZM60.6276 24.1247C59.2165 24.1247 58.0012 23.8233 56.9818 23.2203C55.9685 22.6111 55.1853 21.7564 54.632 20.6561C54.085 19.5496 53.8115 18.2535 53.8115 16.7678C53.8115 15.3008 54.085 14.0078 54.632 12.8889C55.1853 11.77 55.9561 10.8966 56.9445 10.2687C57.9391 9.6409 59.1015 9.32698 60.4318 9.32698C61.2399 9.32698 62.0231 9.46063 62.7815 9.72793C63.5399 9.99523 64.2206 10.4148 64.8235 10.9867C65.4265 11.5586 65.9021 12.3015 66.2502 13.2152C66.5983 14.1228 66.7723 15.2262 66.7723 16.5254V17.5138H55.3873V15.4251H64.0403C64.0403 14.6916 63.8911 14.042 63.5927 13.4763C63.2943 12.9044 62.8748 12.4538 62.3339 12.1243C61.7993 11.7948 61.1715 11.6301 60.4504 11.6301C59.6672 11.6301 58.9834 11.8228 58.3991 12.2082C57.8209 12.5874 57.3734 13.0847 57.0563 13.7001C56.7455 14.3093 56.5901 14.9713 56.5901 15.6862V17.318C56.5901 18.2753 56.758 19.0896 57.0936 19.7609C57.4355 20.4323 57.9111 20.9451 58.5203 21.2995C59.1295 21.6476 59.8412 21.8216 60.6556 21.8216C61.1839 21.8216 61.6657 21.747 62.1008 21.5978C62.536 21.4424 62.9121 21.2124 63.2291 20.9078C63.5461 20.6032 63.7885 20.2272 63.9564 19.7796L66.5952 20.2551C66.3838 21.0322 66.0046 21.7128 65.4576 22.2972C64.9168 22.8753 64.2361 23.326 63.4156 23.6492C62.6012 23.9662 61.6719 24.1247 60.6276 24.1247ZM75.8986 24.1247C74.5123 24.1247 73.3188 23.8108 72.318 23.183C71.3234 22.5489 70.5588 21.6755 70.0242 20.5628C69.4896 19.4501 69.2223 18.1758 69.2223 16.7399C69.2223 15.2852 69.4958 14.0016 70.0429 12.8889C70.5899 11.77 71.3607 10.8966 72.3553 10.2687C73.3499 9.6409 74.5217 9.32698 75.8706 9.32698C76.9584 9.32698 77.9282 9.52901 78.7798 9.93306C79.6314 10.3309 80.3183 10.8904 80.8405 11.6115C81.3689 12.3325 81.6828 13.1748 81.7822 14.1384H79.0688C78.9197 13.467 78.5778 12.8889 78.0432 12.404C77.5148 11.9192 76.8061 11.6767 75.9172 11.6767C75.1402 11.6767 74.4595 11.8819 73.8752 12.2921C73.2971 12.6962 72.8464 13.2743 72.5231 14.0265C72.1999 14.7724 72.0383 15.6551 72.0383 16.6746C72.0383 17.7189 72.1968 18.6203 72.5138 19.3786C72.8308 20.137 73.2784 20.7245 73.8565 21.141C74.4408 21.5574 75.1277 21.7657 75.9172 21.7657C76.4456 21.7657 76.9242 21.6693 77.3532 21.4766C77.7883 21.2777 78.1519 20.9949 78.4441 20.6281C78.7425 20.2614 78.9507 19.82 79.0688 19.3041H81.7822C81.6828 20.2303 81.3813 21.057 80.8778 21.7843C80.3743 22.5116 79.6998 23.0835 78.8544 23.5C78.0152 23.9165 77.0299 24.1247 75.8986 24.1247ZM86.526 29.2065C86.1095 29.2065 85.7303 29.1723 85.3884 29.104C85.0465 29.0418 84.7917 28.9734 84.6238 28.8988L85.2952 26.6144C85.8049 26.7511 86.2587 26.8102 86.6565 26.7915C87.0544 26.7729 87.4056 26.6237 87.7102 26.3439C88.021 26.0642 88.2945 25.6073 88.5307 24.9733L88.8757 24.0222L83.6355 9.51347H86.6192L90.2464 20.6281H90.3956L94.0228 9.51347H97.0159L91.1136 25.7472C90.8401 26.4931 90.492 27.1241 90.0693 27.64C89.6466 28.1622 89.143 28.5538 88.5587 28.8149C87.9744 29.076 87.2968 29.2065 86.526 29.2065ZM105.182 24.1247C103.796 24.1247 102.602 23.8108 101.601 23.183C100.607 22.5489 99.842 21.6755 99.3074 20.5628C98.7728 19.4501 98.5055 18.1758 98.5055 16.7399C98.5055 15.2852 98.779 14.0016 99.326 12.8889C99.8731 11.77 100.644 10.8966 101.638 10.2687C102.633 9.6409 103.805 9.32698 105.154 9.32698C106.242 9.32698 107.211 9.52901 108.063 9.93306C108.915 10.3309 109.601 10.8904 110.124 11.6115C110.652 12.3325 110.966 13.1748 111.065 14.1384H108.352C108.203 13.467 107.861 12.8889 107.326 12.404C106.798 11.9192 106.089 11.6767 105.2 11.6767C104.423 11.6767 103.743 11.8819 103.158 12.2921C102.58 12.6962 102.13 13.2743 101.806 14.0265C101.483 14.7724 101.321 15.6551 101.321 16.6746C101.321 17.7189 101.48 18.6203 101.797 19.3786C102.114 20.137 102.562 20.7245 103.14 21.141C103.724 21.5574 104.411 21.7657 105.2 21.7657C105.729 21.7657 106.207 21.6693 106.636 21.4766C107.071 21.2777 107.435 20.9949 107.727 20.6281C108.026 20.2614 108.234 19.82 108.352 19.3041H111.065C110.966 20.2303 110.664 21.057 110.161 21.7843C109.657 22.5116 108.983 23.0835 108.138 23.5C107.298 23.9165 106.313 24.1247 105.182 24.1247ZM116.835 4.73939V23.8357H114.047V4.73939H116.835ZM126.758 24.1247C125.347 24.1247 124.132 23.8233 123.112 23.2203C122.099 22.6111 121.316 21.7564 120.763 20.6561C120.216 19.5496 119.942 18.2535 119.942 16.7678C119.942 15.3008 120.216 14.0078 120.763 12.8889C121.316 11.77 122.087 10.8966 123.075 10.2687C124.07 9.6409 125.232 9.32698 126.562 9.32698C127.371 9.32698 128.154 9.46063 128.912 9.72793C129.671 9.99523 130.351 10.4148 130.954 10.9867C131.557 11.5586 132.033 12.3015 132.381 13.2152C132.729 14.1228 132.903 15.2262 132.903 16.5254V17.5138H121.518V15.4251H130.171C130.171 14.6916 130.022 14.042 129.723 13.4763C129.425 12.9044 129.005 12.4538 128.465 12.1243C127.93 11.7948 127.302 11.6301 126.581 11.6301C125.798 11.6301 125.114 11.8228 124.53 12.2082C123.952 12.5874 123.504 13.0847 123.187 13.7001C122.876 14.3093 122.721 14.9713 122.721 15.6862V17.318C122.721 18.2753 122.889 19.0896 123.224 19.7609C123.566 20.4323 124.042 20.9451 124.651 21.2995C125.26 21.6476 125.972 21.8216 126.786 21.8216C127.315 21.8216 127.796 21.747 128.232 21.5978C128.667 21.4424 129.043 21.2124 129.36 20.9078C129.677 20.6032 129.919 20.2272 130.087 19.7796L132.726 20.2551C132.515 21.0322 132.135 21.7128 131.588 22.2972C131.048 22.8753 130.367 23.326 129.546 23.6492C128.732 23.9662 127.803 24.1247 126.758 24.1247Z" fill="#4B5563"/>
</svg>
