<svg width="177" height="40" viewBox="0 0 177 40" fill="none" xmlns="http://www.w3.org/2000/svg">
<g clip-path="url(#clip0_461_11563)">
<path d="M23.3327 1.66626V18.3329M23.3327 34.9996V18.3329M35.1178 6.54781L11.5476 30.118M23.3327 18.3329L6.66602 18.3329M35.1178 30.118L11.5476 6.54781" stroke="#4B5563" stroke-width="3.75" stroke-linecap="round" stroke-linejoin="round"/>
</g>
<path d="M56.9798 24.3681H46.9767L45.2579 29.2494H41.1673L49.7267 5.32439H54.2642L62.8235 29.2494H58.6985L56.9798 24.3681ZM55.8798 21.1713L51.9954 10.0681L48.0767 21.1713H55.8798ZM73.4202 29.5588C71.9306 29.5588 70.59 29.2952 69.3983 28.7681C68.2295 28.2181 67.3014 27.4848 66.6139 26.5681C65.9264 25.6286 65.5597 24.5858 65.5139 23.44H69.5702C69.6389 24.2421 70.017 24.9181 70.7045 25.4681C71.415 25.9952 72.2972 26.2588 73.3514 26.2588C74.4514 26.2588 75.2993 26.0525 75.8952 25.64C76.5139 25.2046 76.8233 24.6546 76.8233 23.99C76.8233 23.2796 76.4795 22.7525 75.792 22.4088C75.1275 22.065 74.0618 21.6869 72.5952 21.2744C71.1743 20.8848 70.017 20.5067 69.1233 20.14C68.2295 19.7733 67.4504 19.2119 66.7858 18.4556C66.1441 17.6994 65.8233 16.7025 65.8233 15.465C65.8233 14.4567 66.1212 13.54 66.717 12.715C67.3129 11.8671 68.1608 11.2025 69.2608 10.7213C70.3837 10.24 71.667 9.99939 73.1108 9.99939C75.265 9.99939 76.9952 10.5494 78.3014 11.6494C79.6306 12.7265 80.341 14.2046 80.4327 16.0838H76.5139C76.4452 15.2358 76.1014 14.5598 75.4827 14.0556C74.8639 13.5515 74.0275 13.2994 72.9733 13.2994C71.942 13.2994 71.1514 13.4942 70.6014 13.8838C70.0514 14.2733 69.7764 14.789 69.7764 15.4306C69.7764 15.9348 69.9597 16.3588 70.3264 16.7025C70.6931 17.0463 71.14 17.3213 71.667 17.5275C72.1941 17.7108 72.9733 17.9515 74.0045 18.2494C75.3795 18.6161 76.5025 18.9942 77.3733 19.3838C78.267 19.7504 79.0347 20.3004 79.6764 21.0338C80.3181 21.7671 80.6504 22.7411 80.6733 23.9556C80.6733 25.0327 80.3754 25.9952 79.7795 26.8431C79.1837 27.6911 78.3358 28.3556 77.2358 28.8369C76.1587 29.3181 74.8868 29.5588 73.4202 29.5588ZM89.4795 13.5056V23.99C89.4795 24.7004 89.6399 25.2161 89.9607 25.5369C90.3045 25.8348 90.8774 25.9838 91.6795 25.9838H94.0857V29.2494H90.992C89.2274 29.2494 87.8753 28.8369 86.9357 28.0119C85.9961 27.1869 85.5263 25.8463 85.5263 23.99V13.5056H83.292V10.3088H85.5263V5.59939H89.4795V10.3088H94.0857V13.5056H89.4795ZM115.057 19.315C115.057 20.0254 115.011 20.6671 114.919 21.24H100.448C100.562 22.7525 101.124 23.9671 102.132 24.8838C103.14 25.8004 104.378 26.2588 105.844 26.2588C107.953 26.2588 109.442 25.3765 110.313 23.6119H114.541C113.968 25.3536 112.926 26.7858 111.413 27.9088C109.924 29.0088 108.067 29.5588 105.844 29.5588C104.034 29.5588 102.407 29.1577 100.963 28.3556C99.5423 27.5306 98.4194 26.3848 97.5944 24.9181C96.7923 23.4286 96.3913 21.7098 96.3913 19.7619C96.3913 17.814 96.7808 16.1067 97.56 14.64C98.3621 13.1504 99.4735 12.0046 100.894 11.2025C102.338 10.4004 103.988 9.99939 105.844 9.99939C107.632 9.99939 109.225 10.389 110.623 11.1681C112.02 11.9473 113.109 13.0473 113.888 14.4681C114.667 15.8661 115.057 17.4817 115.057 19.315ZM110.966 18.0775C110.943 16.6338 110.428 15.4765 109.419 14.6056C108.411 13.7348 107.162 13.2994 105.673 13.2994C104.32 13.2994 103.163 13.7348 102.201 14.6056C101.238 15.4536 100.665 16.6108 100.482 18.0775H110.966ZM122.832 13.0588C123.405 12.0963 124.161 11.3515 125.101 10.8244C126.063 10.2744 127.198 9.99939 128.504 9.99939V14.0556H127.507C125.972 14.0556 124.803 14.4452 124.001 15.2244C123.222 16.0036 122.832 17.3556 122.832 19.2806V29.2494H118.913V10.3088H122.832V13.0588ZM134.1 7.79939C133.389 7.79939 132.794 7.55877 132.312 7.07752C131.831 6.59627 131.59 6.00043 131.59 5.29002C131.59 4.5796 131.831 3.98377 132.312 3.50252C132.794 3.02127 133.389 2.78064 134.1 2.78064C134.787 2.78064 135.372 3.02127 135.853 3.50252C136.334 3.98377 136.575 4.5796 136.575 5.29002C136.575 6.00043 136.334 6.59627 135.853 7.07752C135.372 7.55877 134.787 7.79939 134.1 7.79939ZM136.025 10.3088V29.2494H132.106V10.3088H136.025ZM148.045 29.5588C146.555 29.5588 145.215 29.2952 144.023 28.7681C142.854 28.2181 141.926 27.4848 141.239 26.5681C140.551 25.6286 140.184 24.5858 140.139 23.44H144.195C144.264 24.2421 144.642 24.9181 145.329 25.4681C146.04 25.9952 146.922 26.2588 147.976 26.2588C149.076 26.2588 149.924 26.0525 150.52 25.64C151.139 25.2046 151.448 24.6546 151.448 23.99C151.448 23.2796 151.104 22.7525 150.417 22.4088C149.752 22.065 148.686 21.6869 147.22 21.2744C145.799 20.8848 144.642 20.5067 143.748 20.14C142.854 19.7733 142.075 19.2119 141.41 18.4556C140.769 17.6994 140.448 16.7025 140.448 15.465C140.448 14.4567 140.746 13.54 141.342 12.715C141.938 11.8671 142.785 11.2025 143.885 10.7213C145.008 10.24 146.292 9.99939 147.735 9.99939C149.89 9.99939 151.62 10.5494 152.926 11.6494C154.255 12.7265 154.966 14.2046 155.057 16.0838H151.139C151.07 15.2358 150.726 14.5598 150.107 14.0556C149.489 13.5515 148.652 13.2994 147.598 13.2994C146.567 13.2994 145.776 13.4942 145.226 13.8838C144.676 14.2733 144.401 14.789 144.401 15.4306C144.401 15.9348 144.584 16.3588 144.951 16.7025C145.318 17.0463 145.765 17.3213 146.292 17.5275C146.819 17.7108 147.598 17.9515 148.629 18.2494C150.004 18.6161 151.127 18.9942 151.998 19.3838C152.892 19.7504 153.659 20.3004 154.301 21.0338C154.943 21.7671 155.275 22.7411 155.298 23.9556C155.298 25.0327 155 25.9952 154.404 26.8431C153.808 27.6911 152.96 28.3556 151.86 28.8369C150.783 29.3181 149.511 29.5588 148.045 29.5588ZM167.026 19.7963L175.757 29.2494H170.463L163.451 21.1025V29.2494H159.532V3.81189H163.451V18.5931L170.326 10.3088H175.757L167.026 19.7963Z" fill="#6B7280"/>
<defs>
<clipPath id="clip0_461_11563">
<rect width="40" height="40" fill="white"/>
</clipPath>
</defs>
</svg>
