<svg width="152" height="40" viewBox="0 0 152 40" fill="none" xmlns="http://www.w3.org/2000/svg">
<path d="M28.6367 23.7058C28.4476 24.1357 28.3912 24.6126 28.4748 25.075C28.5583 25.5374 28.778 25.9641 29.1054 26.3001L29.1907 26.3856C29.4548 26.6503 29.6643 26.9648 29.8073 27.3108C29.9503 27.6569 30.0238 28.0279 30.0238 28.4025C30.0238 28.7772 29.9503 29.1482 29.8073 29.4942C29.6643 29.8403 29.4548 30.1547 29.1907 30.4195C28.9268 30.6846 28.6135 30.8948 28.2686 31.0383C27.9238 31.1818 27.5541 31.2556 27.1808 31.2556C26.8074 31.2556 26.4378 31.1818 26.0929 31.0383C25.748 30.8948 25.4347 30.6846 25.1709 30.4195L25.0857 30.334C24.7509 30.0054 24.3257 29.7849 23.8649 29.7011C23.4041 29.6173 22.9289 29.6739 22.5005 29.8636C22.0804 30.0443 21.7221 30.3443 21.4697 30.7267C21.2173 31.1092 21.0819 31.5573 21.0801 32.016V32.2583C21.0801 33.0144 20.7808 33.7395 20.248 34.2741C19.7152 34.8088 18.9927 35.1091 18.2392 35.1091C17.4858 35.1091 16.7632 34.8088 16.2305 34.2741C15.6977 33.7395 15.3984 33.0144 15.3984 32.2583V32.13C15.3874 31.6582 15.2352 31.2006 14.9616 30.8168C14.688 30.4329 14.3057 30.1405 13.8643 29.9776C13.4359 29.7879 12.9607 29.7313 12.4999 29.8151C12.0391 29.899 11.6139 30.1194 11.2792 30.448L11.1939 30.5335C10.9301 30.7986 10.6168 31.0089 10.2719 31.1523C9.92705 31.2958 9.55738 31.3697 9.18405 31.3697C8.81072 31.3697 8.44105 31.2958 8.09618 31.1523C7.75131 31.0089 7.438 30.7986 7.17416 30.5335C6.91003 30.2688 6.70049 29.9544 6.55753 29.6083C6.41456 29.2622 6.34098 28.8912 6.34098 28.5166C6.34098 28.1419 6.41456 27.771 6.55753 27.4249C6.70049 27.0788 6.91003 26.7644 7.17416 26.4996L7.25938 26.4141C7.58684 26.0782 7.80651 25.6515 7.89006 25.1891C7.9736 24.7267 7.9172 24.2498 7.72812 23.8198C7.54806 23.3982 7.24909 23.0387 6.86801 22.7854C6.48692 22.5322 6.04036 22.3963 5.58329 22.3944H5.34182C4.58838 22.3944 3.8658 22.0941 3.33304 21.5594C2.80028 21.0248 2.50098 20.2997 2.50098 19.5436C2.50098 18.7875 2.80028 18.0624 3.33304 17.5278C3.8658 16.9931 4.58838 16.6928 5.34182 16.6928H5.46965C5.9398 16.6817 6.39578 16.529 6.77829 16.2545C7.1608 15.9799 7.45216 15.5962 7.61449 15.1533C7.80357 14.7234 7.85997 14.2465 7.77642 13.7841C7.69287 13.3217 7.47321 12.895 7.14575 12.5591L7.06052 12.4735C6.79639 12.2088 6.58686 11.8944 6.44389 11.5483C6.30093 11.2022 6.22734 10.8312 6.22734 10.4566C6.22734 10.0819 6.30093 9.71096 6.44389 9.36488C6.58686 9.01879 6.79639 8.70438 7.06052 8.43961C7.32436 8.17455 7.63767 7.96428 7.98255 7.82081C8.32742 7.67735 8.69709 7.6035 9.07042 7.6035C9.44375 7.6035 9.81342 7.67735 10.1583 7.82081C10.5032 7.96428 10.8165 8.17455 11.0803 8.43961L11.1655 8.52514C11.5003 8.85375 11.9255 9.07419 12.3863 9.15803C12.847 9.24187 13.3223 9.18527 13.7507 8.99553H13.8643C14.2845 8.81484 14.6427 8.51481 14.8951 8.13239C15.1475 7.74996 15.2829 7.30183 15.2848 6.84315V6.60083C15.2848 5.84474 15.5841 5.11962 16.1168 4.58499C16.6496 4.05035 17.3722 3.75 18.1256 3.75C18.879 3.75 19.6016 4.05035 20.1344 4.58499C20.6671 5.11962 20.9664 5.84474 20.9664 6.60083V6.72912C20.9683 7.1878 21.1037 7.63593 21.3561 8.01836C21.6084 8.40078 21.9667 8.7008 22.3869 8.88149C22.8153 9.07124 23.2905 9.12784 23.7513 9.044C24.2121 8.96016 24.6373 8.73972 24.972 8.41111L25.0572 8.32558C25.3211 8.06052 25.6344 7.85025 25.9793 7.70678C26.3241 7.56331 26.6938 7.48947 27.0671 7.48947C27.4405 7.48947 27.8101 7.56331 28.155 7.70678C28.4999 7.85025 28.8132 8.06052 29.077 8.32558C29.3412 8.59035 29.5507 8.90476 29.6937 9.25085C29.8366 9.59693 29.9102 9.9679 29.9102 10.3425C29.9102 10.7172 29.8366 11.0882 29.6937 11.4342C29.5507 11.7803 29.3412 12.0947 29.077 12.3595L28.9918 12.445C28.6643 12.781 28.4447 13.2076 28.3611 13.67C28.2776 14.1324 28.334 14.6094 28.5231 15.0393V15.1533C28.7031 15.5749 29.0021 15.9345 29.3832 16.1877C29.7643 16.441 30.2108 16.5769 30.6679 16.5787H30.9094C31.6628 16.5787 32.3854 16.8791 32.9181 17.4137C33.4509 17.9484 33.7502 18.6735 33.7502 19.4296C33.7502 20.1856 33.4509 20.9108 32.9181 21.4454C32.3854 21.98 31.6628 22.2804 30.9094 22.2804H30.7815C30.3245 22.2822 29.8779 22.4181 29.4968 22.6714C29.1157 22.9247 28.8168 23.2842 28.6367 23.7058Z" stroke="#4B5563" stroke-width="2.93992" stroke-linecap="round" stroke-linejoin="round"/>
<path d="M51.3145 29.7475C50.1228 29.7475 49.0503 29.5367 48.097 29.115C47.162 28.675 46.4195 28.0883 45.8695 27.355C45.3195 26.6033 45.0261 25.7692 44.9895 24.8525H48.2345C48.2895 25.4942 48.592 26.035 49.142 26.475C49.7103 26.8967 50.4161 27.1075 51.2595 27.1075C52.1395 27.1075 52.8178 26.9425 53.2945 26.6125C53.7895 26.2642 54.037 25.8242 54.037 25.2925C54.037 24.7242 53.762 24.3025 53.212 24.0275C52.6803 23.7525 51.8278 23.45 50.6545 23.12C49.5178 22.8083 48.592 22.5058 47.877 22.2125C47.162 21.9192 46.5386 21.47 46.007 20.865C45.4936 20.26 45.237 19.4625 45.237 18.4725C45.237 17.6658 45.4753 16.9325 45.952 16.2725C46.4286 15.5942 47.107 15.0625 47.987 14.6775C48.8853 14.2925 49.912 14.1 51.067 14.1C52.7903 14.1 54.1745 14.54 55.2195 15.42C56.2828 16.2817 56.8511 17.4642 56.9245 18.9675H53.7895C53.7345 18.2892 53.4595 17.7483 52.9645 17.345C52.4695 16.9417 51.8003 16.74 50.957 16.74C50.132 16.74 49.4995 16.8958 49.0595 17.2075C48.6195 17.5192 48.3995 17.9317 48.3995 18.445C48.3995 18.8483 48.5461 19.1875 48.8395 19.4625C49.1328 19.7375 49.4903 19.9575 49.912 20.1225C50.3336 20.2692 50.957 20.4617 51.782 20.7C52.882 20.9933 53.7803 21.2958 54.477 21.6075C55.192 21.9008 55.8061 22.3408 56.3195 22.9275C56.8328 23.5142 57.0986 24.2933 57.117 25.265C57.117 26.1267 56.8786 26.8967 56.402 27.575C55.9253 28.2533 55.247 28.785 54.367 29.17C53.5053 29.555 52.4878 29.7475 51.3145 29.7475ZM63.6394 16.575C64.1711 15.8783 64.8952 15.2917 65.8119 14.815C66.7286 14.3383 67.7644 14.1 68.9194 14.1C70.2394 14.1 71.4402 14.43 72.5219 15.09C73.6219 15.7317 74.4836 16.6392 75.1069 17.8125C75.7302 18.9858 76.0419 20.3333 76.0419 21.855C76.0419 23.3767 75.7302 24.7425 75.1069 25.9525C74.4836 27.1442 73.6219 28.0792 72.5219 28.7575C71.4402 29.4175 70.2394 29.7475 68.9194 29.7475C67.7644 29.7475 66.7377 29.5183 65.8394 29.06C64.9411 28.5833 64.2077 27.9967 63.6394 27.3V36.705H60.5044V14.3475H63.6394V16.575ZM72.8519 21.855C72.8519 20.81 72.6319 19.9117 72.1919 19.16C71.7702 18.39 71.2019 17.8125 70.4869 17.4275C69.7902 17.0242 69.0386 16.8225 68.2319 16.8225C67.4436 16.8225 66.6919 17.0242 65.9769 17.4275C65.2802 17.8308 64.7119 18.4175 64.2719 19.1875C63.8502 19.9575 63.6394 20.865 63.6394 21.91C63.6394 22.955 63.8502 23.8717 64.2719 24.66C64.7119 25.43 65.2802 26.0167 65.9769 26.42C66.6919 26.8233 67.4436 27.025 68.2319 27.025C69.0386 27.025 69.7902 26.8233 70.4869 26.42C71.2019 25.9983 71.7702 25.3933 72.1919 24.605C72.6319 23.8167 72.8519 22.9 72.8519 21.855ZM82.2771 9.15V29.5H79.1421V9.15H82.2771ZM85.3481 21.855C85.3481 20.3333 85.6597 18.9858 86.2831 17.8125C86.9247 16.6392 87.7864 15.7317 88.8681 15.09C89.9681 14.43 91.1781 14.1 92.4981 14.1C93.6897 14.1 94.7256 14.3383 95.6056 14.815C96.5039 15.2733 97.2189 15.8508 97.7506 16.5475V14.3475H100.913V29.5H97.7506V27.245C97.2189 27.96 96.4947 28.5558 95.5781 29.0325C94.6614 29.5092 93.6164 29.7475 92.4431 29.7475C91.1414 29.7475 89.9497 29.4175 88.8681 28.7575C87.7864 28.0792 86.9247 27.1442 86.2831 25.9525C85.6597 24.7425 85.3481 23.3767 85.3481 21.855ZM97.7506 21.91C97.7506 20.865 97.5306 19.9575 97.0906 19.1875C96.6689 18.4175 96.1097 17.8308 95.4131 17.4275C94.7164 17.0242 93.9647 16.8225 93.1581 16.8225C92.3514 16.8225 91.5997 17.0242 90.9031 17.4275C90.2064 17.8125 89.6381 18.39 89.1981 19.16C88.7764 19.9117 88.5656 20.81 88.5656 21.855C88.5656 22.9 88.7764 23.8167 89.1981 24.605C89.6381 25.3933 90.2064 25.9983 90.9031 26.42C91.6181 26.8233 92.3697 27.025 93.1581 27.025C93.9647 27.025 94.7164 26.8233 95.4131 26.42C96.1097 26.0167 96.6689 25.43 97.0906 24.66C97.5306 23.8717 97.7506 22.955 97.7506 21.91ZM108.688 16.905V25.2925C108.688 25.8608 108.817 26.2733 109.073 26.53C109.348 26.7683 109.807 26.8875 110.448 26.8875H112.373V29.5H109.898C108.487 29.5 107.405 29.17 106.653 28.51C105.902 27.85 105.526 26.7775 105.526 25.2925V16.905H103.738V14.3475H105.526V10.58H108.688V14.3475H112.373V16.905H108.688ZM118.92 16.905V25.2925C118.92 25.8608 119.049 26.2733 119.305 26.53C119.58 26.7683 120.039 26.8875 120.68 26.8875H122.605V29.5H120.13C118.719 29.5 117.637 29.17 116.885 28.51C116.134 27.85 115.758 26.7775 115.758 25.2925V16.905H113.97V14.3475H115.758V10.58H118.92V14.3475H122.605V16.905H118.92ZM139.382 21.5525C139.382 22.1208 139.345 22.6342 139.272 23.0925H127.695C127.786 24.3025 128.235 25.2742 129.042 26.0075C129.849 26.7408 130.839 27.1075 132.012 27.1075C133.699 27.1075 134.89 26.4017 135.587 24.99H138.97C138.511 26.3833 137.677 27.5292 136.467 28.4275C135.275 29.3075 133.79 29.7475 132.012 29.7475C130.564 29.7475 129.262 29.4267 128.107 28.785C126.97 28.125 126.072 27.2083 125.412 26.035C124.77 24.8433 124.45 23.4683 124.45 21.91C124.45 20.3517 124.761 18.9858 125.385 17.8125C126.026 16.6208 126.915 15.7042 128.052 15.0625C129.207 14.4208 130.527 14.1 132.012 14.1C133.442 14.1 134.716 14.4117 135.835 15.035C136.953 15.6583 137.824 16.5383 138.447 17.675C139.07 18.7933 139.382 20.0858 139.382 21.5525ZM136.11 20.5625C136.091 19.4075 135.679 18.4817 134.872 17.785C134.065 17.0883 133.066 16.74 131.875 16.74C130.793 16.74 129.867 17.0883 129.097 17.785C128.327 18.4633 127.869 19.3892 127.722 20.5625H136.11ZM145.602 16.5475C146.061 15.7775 146.666 15.1817 147.417 14.76C148.187 14.32 149.095 14.1 150.14 14.1V17.345H149.342C148.114 17.345 147.179 17.6567 146.537 18.28C145.914 18.9033 145.602 19.985 145.602 21.525V29.5H142.467V14.3475H145.602V16.5475Z" fill="#6B7280"/>
</svg>
