<svg width="181" height="32" viewBox="0 0 181 32" fill="none" xmlns="http://www.w3.org/2000/svg">
<path d="M12.2783 8.8125L15.0283 11.5625M15.0283 11.5625L17.7783 8.8125M15.0283 11.5625L15.0283 4C15.0283 2.48122 16.2596 1.25 17.7783 1.25H26.0283C27.5471 1.25 28.7783 2.48122 28.7783 4V11.5625M17.7783 21.1875L15.0283 18.4375M15.0283 18.4375L12.2783 21.1875M15.0283 18.4375V26C15.0283 27.5188 13.7971 28.75 12.2783 28.75H4.02832C2.50954 28.75 1.27832 27.5188 1.27832 26V18.4375M21.2158 12.25L18.4658 15M18.4658 15L21.2158 17.75M18.4658 15L26.0283 15C27.5471 15 28.7783 16.2312 28.7783 17.75V26C28.7783 27.5188 27.5471 28.75 26.0283 28.75H18.4658M8.84082 17.75L11.5908 15M11.5908 15L8.84082 12.25M11.5908 15L4.02832 15C2.50954 15 1.27832 13.7688 1.27832 12.25V4C1.27832 2.48122 2.50954 1.25 4.02832 1.25H11.5908" stroke="#4B5563" stroke-width="2.5" stroke-linecap="round" stroke-linejoin="round"/>
<path d="M56.6788 5.44023V24.5527H53.5438V11.4627L47.7138 24.5527H45.5413L39.6838 11.4627V24.5527H36.5488V5.44023H39.9313L46.6413 20.4277L53.3238 5.44023H56.6788ZM59.7543 16.9077C59.7543 15.3861 60.066 14.0386 60.6893 12.8652C61.331 11.6919 62.1926 10.7844 63.2743 10.1427C64.3743 9.48273 65.5843 9.15274 66.9043 9.15274C68.096 9.15274 69.1318 9.39107 70.0118 9.86773C70.9101 10.3261 71.6251 10.9036 72.1568 11.6002V9.40024H75.3193V24.5527H72.1568V22.2977C71.6251 23.0127 70.901 23.6086 69.9843 24.0852C69.0676 24.5619 68.0226 24.8002 66.8493 24.8002C65.5476 24.8002 64.356 24.4702 63.2743 23.8102C62.1926 23.1319 61.331 22.1969 60.6893 21.0052C60.066 19.7952 59.7543 18.4294 59.7543 16.9077ZM72.1568 16.9627C72.1568 15.9177 71.9368 15.0102 71.4968 14.2402C71.0751 13.4702 70.516 12.8836 69.8193 12.4802C69.1226 12.0769 68.371 11.8752 67.5643 11.8752C66.7576 11.8752 66.006 12.0769 65.3093 12.4802C64.6126 12.8652 64.0443 13.4427 63.6043 14.2127C63.1826 14.9644 62.9718 15.8627 62.9718 16.9077C62.9718 17.9527 63.1826 18.8694 63.6043 19.6577C64.0443 20.4461 64.6126 21.0511 65.3093 21.4727C66.0243 21.8761 66.776 22.0777 67.5643 22.0777C68.371 22.0777 69.1226 21.8761 69.8193 21.4727C70.516 21.0694 71.0751 20.4827 71.4968 19.7127C71.9368 18.9244 72.1568 18.0077 72.1568 16.9627ZM81.032 7.39274C80.4637 7.39274 79.987 7.20023 79.602 6.81523C79.217 6.43024 79.0245 5.95357 79.0245 5.38523C79.0245 4.8169 79.217 4.34023 79.602 3.95524C79.987 3.57023 80.4637 3.37773 81.032 3.37773C81.582 3.37773 82.0495 3.57023 82.4345 3.95524C82.8195 4.34023 83.012 4.8169 83.012 5.38523C83.012 5.95357 82.8195 6.43024 82.4345 6.81523C82.0495 7.20023 81.582 7.39274 81.032 7.39274ZM82.572 9.40024V24.5527H79.437V9.40024H82.572ZM94.333 9.15274C95.5247 9.15274 96.588 9.40023 97.523 9.89523C98.4763 10.3902 99.2188 11.1236 99.7505 12.0952C100.282 13.0669 100.548 14.2402 100.548 15.6152V24.5527H97.4405V16.0827C97.4405 14.7261 97.1013 13.6902 96.423 12.9752C95.7447 12.2419 94.8188 11.8752 93.6455 11.8752C92.4722 11.8752 91.5372 12.2419 90.8405 12.9752C90.1622 13.6902 89.823 14.7261 89.823 16.0827V24.5527H86.688V9.40024H89.823V11.1327C90.3363 10.5094 90.9872 10.0236 91.7755 9.67524C92.5822 9.3269 93.4347 9.15274 94.333 9.15274ZM107.682 11.6277C108.214 10.9311 108.938 10.3444 109.854 9.86773C110.771 9.39107 111.807 9.15274 112.962 9.15274C114.282 9.15274 115.483 9.48273 116.564 10.1427C117.664 10.7844 118.526 11.6919 119.149 12.8652C119.773 14.0386 120.084 15.3861 120.084 16.9077C120.084 18.4294 119.773 19.7952 119.149 21.0052C118.526 22.1969 117.664 23.1319 116.564 23.8102C115.483 24.4702 114.282 24.8002 112.962 24.8002C111.807 24.8002 110.78 24.5711 109.882 24.1127C108.984 23.6361 108.25 23.0494 107.682 22.3527V31.7577H104.547V9.40024H107.682V11.6277ZM116.894 16.9077C116.894 15.8627 116.674 14.9644 116.234 14.2127C115.813 13.4427 115.244 12.8652 114.529 12.4802C113.833 12.0769 113.081 11.8752 112.274 11.8752C111.486 11.8752 110.734 12.0769 110.019 12.4802C109.323 12.8836 108.754 13.4702 108.314 14.2402C107.893 15.0102 107.682 15.9177 107.682 16.9627C107.682 18.0077 107.893 18.9244 108.314 19.7127C108.754 20.4827 109.323 21.0694 110.019 21.4727C110.734 21.8761 111.486 22.0777 112.274 22.0777C113.081 22.0777 113.833 21.8761 114.529 21.4727C115.244 21.0511 115.813 20.4461 116.234 19.6577C116.674 18.8694 116.894 17.9527 116.894 16.9077ZM129.757 24.8002C128.327 24.8002 127.035 24.4794 125.88 23.8377C124.725 23.1777 123.817 22.2611 123.157 21.0877C122.497 19.8961 122.167 18.5211 122.167 16.9627C122.167 15.4227 122.506 14.0569 123.185 12.8652C123.863 11.6736 124.789 10.7569 125.962 10.1152C127.135 9.47357 128.446 9.15274 129.895 9.15274C131.343 9.15274 132.654 9.47357 133.827 10.1152C135 10.7569 135.926 11.6736 136.605 12.8652C137.283 14.0569 137.622 15.4227 137.622 16.9627C137.622 18.5027 137.274 19.8686 136.577 21.0602C135.88 22.2519 134.927 23.1777 133.717 23.8377C132.525 24.4794 131.205 24.8002 129.757 24.8002ZM129.757 22.0777C130.564 22.0777 131.315 21.8852 132.012 21.5002C132.727 21.1152 133.305 20.5377 133.745 19.7677C134.185 18.9977 134.405 18.0627 134.405 16.9627C134.405 15.8627 134.194 14.9369 133.772 14.1852C133.35 13.4152 132.791 12.8377 132.095 12.4527C131.398 12.0677 130.646 11.8752 129.84 11.8752C129.033 11.8752 128.281 12.0677 127.585 12.4527C126.906 12.8377 126.365 13.4152 125.962 14.1852C125.559 14.9369 125.357 15.8627 125.357 16.9627C125.357 18.5944 125.77 19.8594 126.595 20.7577C127.438 21.6377 128.492 22.0777 129.757 22.0777ZM142.316 7.39274C141.748 7.39274 141.271 7.20023 140.886 6.81523C140.501 6.43024 140.309 5.95357 140.309 5.38523C140.309 4.8169 140.501 4.34023 140.886 3.95524C141.271 3.57023 141.748 3.37773 142.316 3.37773C142.866 3.37773 143.334 3.57023 143.719 3.95524C144.104 4.34023 144.296 4.8169 144.296 5.38523C144.296 5.95357 144.104 6.43024 143.719 6.81523C143.334 7.20023 142.866 7.39274 142.316 7.39274ZM143.856 9.40024V24.5527H140.721V9.40024H143.856ZM155.617 9.15274C156.809 9.15274 157.872 9.40023 158.807 9.89523C159.76 10.3902 160.503 11.1236 161.035 12.0952C161.566 13.0669 161.832 14.2402 161.832 15.6152V24.5527H158.725V16.0827C158.725 14.7261 158.385 13.6902 157.707 12.9752C157.029 12.2419 156.103 11.8752 154.93 11.8752C153.756 11.8752 152.821 12.2419 152.125 12.9752C151.446 13.6902 151.107 14.7261 151.107 16.0827V24.5527H147.972V9.40024H151.107V11.1327C151.62 10.5094 152.271 10.0236 153.06 9.67524C153.866 9.3269 154.719 9.15274 155.617 9.15274ZM169.489 11.9577V20.3452C169.489 20.9136 169.617 21.3261 169.874 21.5827C170.149 21.8211 170.607 21.9402 171.249 21.9402H173.174V24.5527H170.699C169.287 24.5527 168.205 24.2227 167.454 23.5627C166.702 22.9027 166.326 21.8302 166.326 20.3452V11.9577H164.539V9.40024H166.326V5.63274H169.489V9.40024H173.174V11.9577H169.489Z" fill="#6B7280"/>
</svg>
