<svg width="110" height="36" viewBox="0 0 110 36" fill="none" xmlns="http://www.w3.org/2000/svg">
<path d="M32.8012 18.2813C32.8012 9.84168 25.9596 3 17.52 3C10.6702 3 4.87296 7.50692 2.93199 13.7172C2.80766 14.115 2.74549 14.3139 2.75136 14.5626C2.75613 14.7649 2.8176 15.0147 2.90722 15.1961C3.01743 15.4192 3.1876 15.5893 3.52792 15.9296L19.8723 32.2734C20.2126 32.6137 20.3828 32.7838 20.6059 32.894C20.7872 32.9837 21.0371 33.0451 21.2393 33.0499C21.4881 33.0557 21.687 32.9936 22.0848 32.8692C28.2947 30.928 32.8012 25.131 32.8012 18.2813Z" stroke="#4B5563" stroke-width="3.75" stroke-linecap="round" stroke-linejoin="round"/>
<path d="M4.77696 14.6819C5.14023 14.656 5.507 14.6429 5.87684 14.6429C14.3164 14.6429 21.1581 21.4846 21.1581 29.9242C21.1581 30.2941 21.1449 30.6609 21.1191 31.0241C21.074 31.6588 21.0514 31.9761 20.8664 32.1721C20.7161 32.3313 20.4597 32.427 20.2419 32.4052C19.9738 32.3783 19.7299 32.1344 19.2421 31.6467L4.15442 16.5589C3.66666 16.0711 3.42277 15.8272 3.39591 15.5591C3.37409 15.3413 3.46978 15.0849 3.62897 14.9346C3.82496 14.7496 4.14229 14.727 4.77696 14.6819Z" stroke="#4B5563" stroke-width="3.75" stroke-linecap="round" stroke-linejoin="round"/>
<path d="M45.0828 9.37688C47.1178 9.37688 48.8962 9.77105 50.4178 10.5594C51.9578 11.3294 53.1403 12.4477 53.9653 13.9144C54.8087 15.3627 55.2303 17.0585 55.2303 19.0019C55.2303 20.9452 54.8087 22.6319 53.9653 24.0619C53.1403 25.4919 51.9578 26.5919 50.4178 27.3619C48.8962 28.1135 47.1178 28.4894 45.0828 28.4894H38.8403V9.37688H45.0828ZM45.0828 25.9319C47.3195 25.9319 49.0337 25.3269 50.2253 24.1169C51.417 22.9069 52.0128 21.2019 52.0128 19.0019C52.0128 16.7835 51.417 15.051 50.2253 13.8044C49.0337 12.5577 47.3195 11.9344 45.0828 11.9344H41.9753V25.9319H45.0828ZM72.0599 13.3369V28.4894H68.9249V26.7019C68.4299 27.3252 67.7791 27.8202 66.9724 28.1869C66.1841 28.5352 65.3407 28.7094 64.4424 28.7094C63.2507 28.7094 62.1782 28.4619 61.2249 27.9669C60.2899 27.4719 59.5474 26.7385 58.9974 25.7669C58.4657 24.7952 58.1999 23.6219 58.1999 22.2469V13.3369H61.3074V21.7794C61.3074 23.136 61.6466 24.181 62.3249 24.9144C63.0032 25.6294 63.9291 25.9869 65.1024 25.9869C66.2757 25.9869 67.2016 25.6294 67.8799 24.9144C68.5766 24.181 68.9249 23.136 68.9249 21.7794V13.3369H72.0599ZM83.8413 13.0894C85.033 13.0894 86.0963 13.3369 87.0313 13.8319C87.9846 14.3269 88.7271 15.0602 89.2588 16.0319C89.7905 17.0035 90.0563 18.1769 90.0563 19.5519V28.4894H86.9488V20.0194C86.9488 18.6627 86.6096 17.6269 85.9313 16.9119C85.253 16.1785 84.3271 15.8119 83.1538 15.8119C81.9805 15.8119 81.0455 16.1785 80.3488 16.9119C79.6705 17.6269 79.3313 18.6627 79.3313 20.0194V28.4894H76.1963V13.3369H79.3313V15.0694C79.8446 14.446 80.4955 13.9602 81.2838 13.6119C82.0905 13.2635 82.943 13.0894 83.8413 13.0894ZM107.943 20.5419C107.943 21.1102 107.906 21.6235 107.833 22.0819H96.2552C96.3468 23.2919 96.796 24.2635 97.6027 24.9969C98.4093 25.7302 99.3993 26.0969 100.573 26.0969C102.259 26.0969 103.451 25.391 104.148 23.9794H107.53C107.072 25.3727 106.238 26.5185 105.028 27.4169C103.836 28.2969 102.351 28.7369 100.573 28.7369C99.1243 28.7369 97.8227 28.416 96.6677 27.7744C95.531 27.1144 94.6327 26.1977 93.9727 25.0244C93.331 23.8327 93.0102 22.4577 93.0102 20.8994C93.0102 19.341 93.3218 17.9752 93.9452 16.8019C94.5868 15.6102 95.476 14.6935 96.6127 14.0519C97.7677 13.4102 99.0877 13.0894 100.573 13.0894C102.003 13.0894 103.277 13.401 104.395 14.0244C105.514 14.6477 106.384 15.5277 107.008 16.6644C107.631 17.7827 107.943 19.0752 107.943 20.5419ZM104.67 19.5519C104.652 18.3969 104.239 17.471 103.433 16.7744C102.626 16.0777 101.627 15.7294 100.435 15.7294C99.3535 15.7294 98.4277 16.0777 97.6577 16.7744C96.8877 17.4527 96.4293 18.3785 96.2827 19.5519H104.67Z" fill="#6B7280"/>
</svg>
