<svg width="189" height="40" viewBox="0 0 189 40" fill="none" xmlns="http://www.w3.org/2000/svg">
<path d="M15.8321 32.082C8.92855 32.082 3.33211 26.4856 3.33211 19.582C3.33211 12.6784 8.92855 7.08199 15.8321 7.08199C20.6366 7.08199 25.2488 8.99866 26.9005 13.7679C27.0983 13.7551 27.2978 13.7487 27.4988 13.7487C32.5614 13.7487 36.6654 17.8527 36.6654 22.9153C36.6654 27.9779 32.5614 32.082 27.4988 32.082C23.2463 32.082 20.2027 32.082 15.8321 32.082Z" stroke="#4B5563" stroke-width="3.75" stroke-linecap="round" stroke-linejoin="round"/>
<path d="M41.2685 20.4013C41.2685 18.5313 41.6993 16.8538 42.561 15.3688C43.441 13.8838 44.6235 12.7288 46.1085 11.9038C47.6118 11.0604 49.2526 10.6388 51.031 10.6388C53.066 10.6388 54.8718 11.1429 56.4485 12.1513C58.0435 13.1413 59.1985 14.5529 59.9135 16.3863H56.146C55.651 15.3779 54.9635 14.6263 54.0835 14.1313C53.2035 13.6363 52.186 13.3888 51.031 13.3888C49.766 13.3888 48.6385 13.6729 47.6485 14.2413C46.6585 14.8096 45.8793 15.6254 45.311 16.6888C44.761 17.7521 44.486 18.9896 44.486 20.4013C44.486 21.8129 44.761 23.0504 45.311 24.1138C45.8793 25.1771 46.6585 26.0021 47.6485 26.5888C48.6385 27.1571 49.766 27.4413 51.031 27.4413C52.186 27.4413 53.2035 27.1938 54.0835 26.6988C54.9635 26.2038 55.651 25.4521 56.146 24.4438H59.9135C59.1985 26.2771 58.0435 27.6888 56.4485 28.6788C54.8718 29.6688 53.066 30.1638 51.031 30.1638C49.2343 30.1638 47.5935 29.7513 46.1085 28.9263C44.6235 28.0829 43.441 26.9188 42.561 25.4338C41.6993 23.9488 41.2685 22.2713 41.2685 20.4013ZM66.718 9.64878V29.9988H63.583V9.64878H66.718ZM77.4065 30.2463C75.9765 30.2463 74.684 29.9254 73.529 29.2838C72.374 28.6238 71.4665 27.7071 70.8065 26.5338C70.1465 25.3421 69.8165 23.9671 69.8165 22.4088C69.8165 20.8688 70.1557 19.5029 70.834 18.3113C71.5123 17.1196 72.4382 16.2029 73.6115 15.5613C74.7848 14.9196 76.0957 14.5988 77.544 14.5988C78.9923 14.5988 80.3032 14.9196 81.4765 15.5613C82.6498 16.2029 83.5757 17.1196 84.254 18.3113C84.9323 19.5029 85.2715 20.8688 85.2715 22.4088C85.2715 23.9488 84.9232 25.3146 84.2265 26.5063C83.5298 27.6979 82.5765 28.6238 81.3665 29.2838C80.1748 29.9254 78.8548 30.2463 77.4065 30.2463ZM77.4065 27.5238C78.2132 27.5238 78.9648 27.3313 79.6615 26.9463C80.3765 26.5613 80.954 25.9838 81.394 25.2138C81.834 24.4438 82.054 23.5088 82.054 22.4088C82.054 21.3088 81.8432 20.3829 81.4215 19.6313C80.9998 18.8613 80.4407 18.2838 79.744 17.8988C79.0473 17.5138 78.2957 17.3213 77.489 17.3213C76.6823 17.3213 75.9307 17.5138 75.234 17.8988C74.5557 18.2838 74.0148 18.8613 73.6115 19.6313C73.2082 20.3829 73.0065 21.3088 73.0065 22.4088C73.0065 24.0404 73.419 25.3054 74.244 26.2038C75.0873 27.0838 76.1415 27.5238 77.4065 27.5238ZM102.093 14.8463V29.9988H98.9581V28.2113C98.4631 28.8346 97.8123 29.3296 97.0056 29.6963C96.2173 30.0446 95.3739 30.2188 94.4756 30.2188C93.2839 30.2188 92.2114 29.9713 91.2581 29.4763C90.3231 28.9813 89.5806 28.2479 89.0306 27.2763C88.4989 26.3046 88.2331 25.1313 88.2331 23.7563V14.8463H91.3406V23.2888C91.3406 24.6454 91.6798 25.6904 92.3581 26.4238C93.0364 27.1388 93.9623 27.4963 95.1356 27.4963C96.3089 27.4963 97.2348 27.1388 97.9131 26.4238C98.6098 25.6904 98.9581 24.6454 98.9581 23.2888V14.8463H102.093ZM105.184 22.3538C105.184 20.8321 105.496 19.4846 106.12 18.3113C106.761 17.1379 107.623 16.2304 108.705 15.5888C109.805 14.9288 111.024 14.5988 112.362 14.5988C113.352 14.5988 114.324 14.8188 115.277 15.2588C116.249 15.6804 117.019 16.2488 117.587 16.9638V9.64878H120.75V29.9988H117.587V27.7163C117.074 28.4496 116.359 29.0546 115.442 29.5313C114.544 30.0079 113.508 30.2463 112.335 30.2463C111.015 30.2463 109.805 29.9163 108.705 29.2563C107.623 28.5779 106.761 27.6429 106.12 26.4513C105.496 25.2413 105.184 23.8754 105.184 22.3538ZM117.587 22.4088C117.587 21.3638 117.367 20.4563 116.927 19.6863C116.505 18.9163 115.946 18.3296 115.25 17.9263C114.553 17.5229 113.801 17.3213 112.995 17.3213C112.188 17.3213 111.436 17.5229 110.74 17.9263C110.043 18.3113 109.475 18.8888 109.035 19.6588C108.613 20.4104 108.402 21.3088 108.402 22.3538C108.402 23.3988 108.613 24.3154 109.035 25.1038C109.475 25.8921 110.043 26.4971 110.74 26.9188C111.455 27.3221 112.206 27.5238 112.995 27.5238C113.801 27.5238 114.553 27.3221 115.25 26.9188C115.946 26.5154 116.505 25.9288 116.927 25.1588C117.367 24.3704 117.587 23.4538 117.587 22.4088ZM131.22 17.4038H128.415V29.9988H125.252V17.4038H123.465V14.8463H125.252V13.7738C125.252 12.0321 125.711 10.7671 126.627 9.97878C127.562 9.17211 129.02 8.76878 131 8.76878V11.3813C130.046 11.3813 129.377 11.5646 128.992 11.9313C128.607 12.2796 128.415 12.8938 128.415 13.7738V14.8463H131.22V17.4038ZM140.571 30.2463C139.141 30.2463 137.848 29.9254 136.693 29.2838C135.538 28.6238 134.631 27.7071 133.971 26.5338C133.311 25.3421 132.981 23.9671 132.981 22.4088C132.981 20.8688 133.32 19.5029 133.998 18.3113C134.676 17.1196 135.602 16.2029 136.776 15.5613C137.949 14.9196 139.26 14.5988 140.708 14.5988C142.156 14.5988 143.467 14.9196 144.641 15.5613C145.814 16.2029 146.74 17.1196 147.418 18.3113C148.096 19.5029 148.436 20.8688 148.436 22.4088C148.436 23.9488 148.087 25.3146 147.391 26.5063C146.694 27.6979 145.741 28.6238 144.531 29.2838C143.339 29.9254 142.019 30.2463 140.571 30.2463ZM140.571 27.5238C141.377 27.5238 142.129 27.3313 142.826 26.9463C143.541 26.5613 144.118 25.9838 144.558 25.2138C144.998 24.4438 145.218 23.5088 145.218 22.4088C145.218 21.3088 145.007 20.3829 144.586 19.6313C144.164 18.8613 143.605 18.2838 142.908 17.8988C142.211 17.5138 141.46 17.3213 140.653 17.3213C139.846 17.3213 139.095 17.5138 138.398 17.8988C137.72 18.2838 137.179 18.8613 136.776 19.6313C136.372 20.3829 136.171 21.3088 136.171 22.4088C136.171 24.0404 136.583 25.3054 137.408 26.2038C138.251 27.0838 139.306 27.5238 140.571 27.5238ZM154.67 17.0463C155.128 16.2763 155.733 15.6804 156.485 15.2588C157.255 14.8188 158.162 14.5988 159.207 14.5988V17.8438H158.41C157.181 17.8438 156.246 18.1554 155.605 18.7788C154.981 19.4021 154.67 20.4838 154.67 22.0238V29.9988H151.535V14.8463H154.67V17.0463ZM180.431 14.5988C181.623 14.5988 182.686 14.8463 183.621 15.3413C184.575 15.8363 185.317 16.5696 185.849 17.5413C186.399 18.5129 186.674 19.6863 186.674 21.0613V29.9988H183.566V21.5288C183.566 20.1721 183.227 19.1363 182.549 18.4213C181.871 17.6879 180.945 17.3213 179.771 17.3213C178.598 17.3213 177.663 17.6879 176.966 18.4213C176.288 19.1363 175.949 20.1721 175.949 21.5288V29.9988H172.841V21.5288C172.841 20.1721 172.502 19.1363 171.824 18.4213C171.146 17.6879 170.22 17.3213 169.046 17.3213C167.873 17.3213 166.938 17.6879 166.241 18.4213C165.563 19.1363 165.224 20.1721 165.224 21.5288V29.9988H162.089V14.8463H165.224V16.5788C165.737 15.9554 166.388 15.4696 167.176 15.1213C167.965 14.7729 168.808 14.5988 169.706 14.5988C170.916 14.5988 171.998 14.8554 172.951 15.3688C173.905 15.8821 174.638 16.6246 175.151 17.5963C175.61 16.6796 176.325 15.9554 177.296 15.4238C178.268 14.8738 179.313 14.5988 180.431 14.5988Z" fill="#6B7280"/>
</svg>
