<svg width="20" height="20" viewBox="0 0 20 20" fill="none" xmlns="http://www.w3.org/2000/svg">
<g clip-path="url(#clip0_602_10655)">
<path d="M15.0051 12.0403L13.9452 10.9803C13.656 10.6912 13.2563 10.5462 12.8494 10.5828C12.4421 10.6194 12.0749 10.833 11.8418 11.1689L11.4726 11.701C10.9704 11.6115 9.99908 11.3584 9.3201 10.6793C8.64084 10 8.38771 9.02824 8.29842 8.52687L8.8306 8.15761C9.16654 7.92449 9.38017 7.55719 9.41662 7.14992C9.45314 6.74265 9.30822 6.34328 9.01912 6.05422L7.9592 4.99429C7.53326 4.5684 6.89127 4.46675 6.36158 4.74121C5.43283 5.22238 4.82275 6.12433 4.64353 7.2809C4.35162 9.16523 5.22275 11.3883 6.91693 13.0825C8.39451 14.56 10.2742 15.4115 11.9808 15.4115C12.231 15.4115 12.4776 15.3932 12.7185 15.3559C13.8751 15.1768 14.777 14.5666 15.2582 13.6379C15.5326 13.1081 15.431 12.4661 15.0051 12.0403ZM14.1797 13.0791C13.7974 13.8172 13.0729 14.0719 12.5326 14.1556C11.0468 14.3857 9.17963 13.6274 7.77576 12.2236C6.37197 10.8198 5.61361 8.95265 5.84377 7.46683C5.92744 6.92644 6.1822 6.20207 6.92025 5.81965C6.94025 5.80933 6.96236 5.80429 6.98478 5.80429C7.02603 5.80429 7.06838 5.82129 7.10025 5.85312L8.16021 6.91308C8.20424 6.95719 8.20986 7.00726 8.20677 7.04152C8.20369 7.07582 8.18931 7.1241 8.13806 7.15965L7.30084 7.74058C7.12576 7.86207 7.02713 8.06652 7.04107 8.27918C7.04634 8.35949 7.18447 10.2614 8.46119 11.5381C9.73791 12.8148 11.6398 12.953 11.7201 12.9582C11.9326 12.9719 12.1372 12.8736 12.2587 12.6984L12.8397 11.8612C12.8752 11.81 12.9235 11.7956 12.9578 11.7925C12.9921 11.7894 13.0421 11.7951 13.0863 11.8391L14.1462 12.899C14.1954 12.9482 14.2092 13.0223 14.1797 13.0791Z" fill="#6B7280"/>
<path d="M17.0709 2.92906C15.1821 1.0402 12.6708 0 9.99959 0C7.32834 0 4.81709 1.0402 2.92826 2.92902C1.32291 4.53438 0.303771 6.65902 0.0584589 8.9116C-0.173455 11.0411 0.289357 13.2086 1.36311 15.046L0.320998 18.9352C0.264826 19.1447 0.324748 19.3684 0.478225 19.5218C0.631623 19.6752 0.855334 19.7351 1.06479 19.679L4.95393 18.6369C6.48143 19.5296 8.23725 20 10.0096 20C10.369 20 10.7292 19.9807 11.0883 19.9415C13.3409 19.6962 15.4656 18.6771 17.0709 17.0717C18.9598 15.1829 20 12.6716 20 10.0004C20 7.32922 18.9597 4.81789 17.0709 2.92906ZM16.2121 16.2128C13.3085 19.1164 8.84877 19.6323 5.36686 17.4677C5.26967 17.4073 5.15846 17.3761 5.04615 17.3761C4.99358 17.3761 4.94076 17.383 4.88901 17.3968L1.76647 18.2335L2.60319 15.111C2.64662 14.9488 2.62096 14.7758 2.53233 14.6332C0.3676 11.1511 0.883615 6.69141 3.78709 3.78789C7.21272 0.362344 12.7865 0.362344 16.2121 3.78789C19.6376 7.21344 19.6376 12.7873 16.2121 16.2128Z" fill="#6B7280"/>
</g>
<defs>
<clipPath id="clip0_602_10655">
<rect width="20" height="20" fill="white"/>
</clipPath>
</defs>
</svg>
