<svg width="20" height="20" viewBox="0 0 20 20" fill="none" xmlns="http://www.w3.org/2000/svg">
<path fill-rule="evenodd" clip-rule="evenodd" d="M10.0003 1.4585C14.962 1.4585 18.9587 5.1185 18.9587 9.5835C18.9587 14.0485 14.962 17.7085 10.0003 17.7085C8.83533 17.7085 7.72199 17.506 6.70199 17.1393L4.02949 18.476C3.82199 18.5793 3.57449 18.5602 3.38533 18.4243C3.19699 18.2893 3.09949 18.0602 3.13116 17.8302L3.50283 15.176C1.97449 13.716 1.04199 11.746 1.04199 9.5835C1.04199 5.1185 5.03866 1.4585 10.0003 1.4585ZM10.0003 2.7085C5.76283 2.7085 2.29199 5.77016 2.29199 9.5835C2.29199 11.4977 3.17199 13.226 4.58033 14.4693C4.73783 14.6077 4.81533 14.816 4.78616 15.0243L4.53366 16.826L6.38783 15.8993C6.54616 15.8202 6.73116 15.8118 6.89616 15.8768C7.84699 16.251 8.89699 16.4585 10.0003 16.4585C14.2378 16.4585 17.7087 13.3968 17.7087 9.5835C17.7087 5.77016 14.2378 2.7085 10.0003 2.7085Z" fill="#6B7280"/>
<path fill-rule="evenodd" clip-rule="evenodd" d="M6.15499 12.227C6.05915 12.302 5.92249 12.2961 5.83332 12.2145C5.74332 12.132 5.72582 11.997 5.79165 11.8945C6.54999 10.7136 7.66999 8.97195 8.29165 8.00445C8.41249 7.81695 8.60415 7.68529 8.82249 7.63945C9.04165 7.59362 9.26915 7.63779 9.45499 7.76195C9.89749 8.05695 10.4525 8.42695 10.8275 8.67695C11.0867 8.84945 11.4217 8.86362 11.6942 8.71195C12.2842 8.38445 13.3392 7.79779 14.0983 7.37612C14.1992 7.32029 14.3258 7.34029 14.4042 7.42529C14.4817 7.51029 14.4917 7.63695 14.4283 7.73362C13.7667 8.72529 12.6933 10.3353 12.0983 11.2278C11.855 11.5928 11.3717 11.707 10.9917 11.4895C10.4542 11.182 9.71415 10.7595 9.23415 10.4853C8.94165 10.3178 8.57582 10.3436 8.30915 10.5511C7.78332 10.9603 6.88415 11.6603 6.15499 12.227Z" fill="#6B7280"/>
</svg>
