<svg width="20" height="20" viewBox="0 0 20 20" fill="none" xmlns="http://www.w3.org/2000/svg">
<g clip-path="url(#clip0_602_10664)">
<path d="M13.0462 10.4449C12.692 10.0905 12.2195 9.89537 11.7159 9.89537C11.2122 9.89537 10.7397 10.0906 10.3854 10.445L10.1182 10.7122C10.054 10.7765 9.96759 10.8118 9.87497 10.8118C9.78239 10.8118 9.69607 10.7765 9.63189 10.7123L7.79083 8.87127C7.65903 8.73943 7.65903 8.5167 7.79068 8.38506L8.05833 8.1176C8.79185 7.38396 8.79181 6.19037 8.05829 5.45682L7.52341 4.92205C7.16907 4.56768 6.69657 4.37256 6.19302 4.37256C5.68946 4.37256 5.217 4.56772 4.86294 4.92186L4.78997 4.99475C3.94462 5.84025 3.63767 7.09893 3.92571 8.539C4.1965 9.89299 4.97044 11.2635 6.10497 12.3983C7.53482 13.8279 9.35622 14.6815 10.9772 14.6816H10.9776C11.9999 14.6816 12.8752 14.3468 13.5092 13.7128L13.5813 13.6406C14.3147 12.9071 14.3148 11.7135 13.5812 10.9799L13.0462 10.4449ZM12.7521 12.8123L12.6801 12.8845C12.2711 13.2935 11.6824 13.5097 10.9775 13.5097C10.9775 13.5097 10.9773 13.5097 10.9773 13.5097C9.66017 13.5096 8.14849 12.7843 6.93357 11.5696C5.96083 10.5967 5.30071 9.43877 5.07478 8.30916C4.86607 7.26561 5.05923 6.38279 5.61841 5.82354L5.69138 5.75064C5.82435 5.61764 6.00251 5.54439 6.19302 5.54439C6.38357 5.54439 6.56173 5.61764 6.69478 5.75068L7.22966 6.28545C7.5063 6.56209 7.5063 7.01225 7.22978 7.28885L6.96212 7.55635C6.3713 8.14729 6.3713 9.10889 6.9622 9.6999L8.80325 11.5409C9.08876 11.8265 9.46939 11.9837 9.87505 11.9837C10.2806 11.9837 10.6613 11.8265 10.947 11.5408L11.2142 11.2735C11.3472 11.1405 11.5254 11.0672 11.7159 11.0672C11.9065 11.0672 12.0846 11.1405 12.2176 11.2735L12.7526 11.8085C13.0292 12.0851 13.0292 12.5353 12.7521 12.8123Z" fill="#6B7280"/>
<path d="M9.77246 8.15234C10.0912 8.15234 10.3505 8.4116 10.3505 8.73027C10.3505 9.05387 10.6128 9.31621 10.9364 9.31621C11.26 9.31621 11.5223 9.05387 11.5223 8.73027C11.5223 7.76543 10.7373 6.98047 9.77246 6.98047C9.44887 6.98047 9.18652 7.24281 9.18652 7.56641C9.18652 7.89 9.44883 8.15234 9.77246 8.15234Z" fill="#6B7280"/>
<path d="M9.77246 5.82426C10.5486 5.82426 11.2783 6.12652 11.8271 6.67535C12.3759 7.22422 12.6782 7.95395 12.6781 8.73012C12.6781 9.05371 12.9404 9.31605 13.264 9.31605C13.5876 9.31605 13.85 9.05371 13.85 8.73012C13.85 7.64094 13.4259 6.61687 12.6557 5.84672C11.8856 5.07652 10.8616 4.65234 9.77246 4.65234C9.44887 4.65234 9.18652 4.91469 9.18652 5.23828C9.18652 5.56188 9.44883 5.82426 9.77246 5.82426Z" fill="#6B7280"/>
<path d="M9.77246 2.32471C9.44887 2.32471 9.18652 2.58705 9.18652 2.91064C9.18652 3.23424 9.44887 3.49658 9.77246 3.49658C12.6582 3.49658 15.006 5.84439 15.006 8.73018C15.006 9.05377 15.2684 9.31611 15.592 9.31611C15.9155 9.31611 16.1779 9.05377 16.1779 8.73018C16.1779 5.19818 13.3044 2.32471 9.77246 2.32471Z" fill="#6B7280"/>
<path d="M17.2174 1.99879C15.9284 0.709844 14.2211 0 12.4099 0H7.58953C5.7784 0 4.07105 0.709844 2.78207 1.99879C1.49305 3.28777 0.783203 4.99504 0.783203 6.80617V10.2C0.783203 11.5888 1.2034 12.9271 1.99836 14.0704C2.6966 15.0744 3.63684 15.865 4.73434 16.375V18.6055C4.73434 19.9328 5.57172 20 5.73957 20C6.10824 20 6.47406 19.7891 6.82688 19.3732L8.83422 17.0062H12.41C14.2212 17.0062 15.9285 16.2963 17.2174 15.0074C18.5064 13.7184 19.2162 12.0112 19.2162 10.2V6.80621C19.2162 4.99504 18.5064 3.28773 17.2174 1.99879ZM18.0443 10.2C18.0443 13.3067 15.5167 15.8343 12.4099 15.8343H8.56281C8.39066 15.8343 8.22727 15.91 8.11594 16.0412L5.93316 18.6152C5.9241 18.6259 5.91523 18.6361 5.90664 18.6458C5.90637 18.6329 5.90621 18.6195 5.90621 18.6055V15.9892C5.90621 15.7487 5.75926 15.5326 5.53555 15.4442C3.39395 14.5982 1.95508 12.4907 1.95508 10.1999V6.80613C1.95508 3.69941 4.48266 1.17188 7.58953 1.17188H12.4099C15.5167 1.17188 18.0443 3.69941 18.0443 6.80617V10.2Z" fill="#6B7280"/>
</g>
<defs>
<clipPath id="clip0_602_10664">
<rect width="20" height="20" fill="white"/>
</clipPath>
</defs>
</svg>
