<svg width="34" height="35" viewBox="0 0 34 35" fill="none" xmlns="http://www.w3.org/2000/svg">
<g clip-path="url(#clip0_579_6722)">
<path d="M16.8229 17.2836C16.827 17.2916 16.8282 17.3008 16.8263 17.3096C16.8244 17.3184 16.8195 17.3263 16.8125 17.332C16.8055 17.3376 16.7967 17.3407 16.7877 17.3406C16.7787 17.3405 16.77 17.3374 16.763 17.3316C15.4268 16.1764 6.45686 8.26917 9.17694 6.43745C11.7004 4.74115 15.9043 6.57716 17.0408 7.12963C17.0548 7.13622 17.0661 7.14753 17.0726 7.16159C17.0792 7.17565 17.0805 7.19156 17.0765 7.20653C17.0725 7.22151 17.0634 7.2346 17.0507 7.24351C17.038 7.25241 17.0226 7.25658 17.0071 7.25526C15.8648 7.19498 12.1148 7.16695 12.942 9.44045C13.806 11.8157 16.2804 16.3089 16.8229 17.2836Z" fill="#6D4DF2"/>
<path d="M17.0283 17.221C17.0273 17.2309 17.0224 17.2401 17.0147 17.2464C17.007 17.2528 16.9971 17.2558 16.9871 17.2548C16.9772 17.2539 16.968 17.249 16.9617 17.2413C16.9553 17.2335 16.9523 17.2236 16.9533 17.2137C16.8262 15.4462 16.0729 3.51667 19.2941 4.13826C22.277 4.72378 23.9498 9.00217 24.3623 10.1985C24.3677 10.213 24.3678 10.2289 24.3626 10.2434C24.3574 10.258 24.3473 10.2703 24.334 10.2781C24.3207 10.286 24.3051 10.289 24.2899 10.2865C24.2746 10.2841 24.2607 10.2764 24.2506 10.2647C23.4836 9.418 20.8528 6.74457 19.8299 8.93486C18.7618 11.2221 17.3348 16.1489 17.0283 17.221Z" fill="#6D4DF2"/>
<path d="M17.2167 17.3224C17.2087 17.3265 17.1995 17.3277 17.1907 17.3258C17.1818 17.3239 17.174 17.3191 17.1683 17.312C17.1627 17.305 17.1596 17.2962 17.1597 17.2872C17.1597 17.2782 17.1629 17.2695 17.1686 17.2625C18.3259 15.9269 26.2311 6.95641 28.0628 9.67648C29.7611 12.2005 27.9231 16.4038 27.3706 17.5403C27.3641 17.5544 27.3527 17.5656 27.3387 17.5722C27.3246 17.5787 27.3087 17.5801 27.2937 17.5761C27.2788 17.5721 27.2657 17.5629 27.2568 17.5502C27.2479 17.5375 27.2437 17.5221 27.245 17.5067C27.3058 16.3624 27.3333 12.6144 25.0604 13.4395C22.6885 14.3066 18.1914 16.78 17.2167 17.3224Z" fill="#6D4DF2"/>
<path d="M17.279 17.5277C17.269 17.5267 17.2599 17.5219 17.2535 17.5141C17.2472 17.5064 17.2442 17.4965 17.2451 17.4866C17.2461 17.4766 17.251 17.4675 17.2587 17.4611C17.2664 17.4548 17.2763 17.4517 17.2863 17.4527C19.0497 17.3246 30.9873 16.5734 30.3537 19.7914C29.7682 22.7743 25.4978 24.4492 24.2935 24.8596C24.279 24.865 24.2631 24.8651 24.2485 24.8599C24.234 24.8547 24.2217 24.8446 24.2138 24.8313C24.206 24.818 24.203 24.8024 24.2054 24.7872C24.2079 24.7719 24.2156 24.758 24.2272 24.7479C25.074 23.9809 27.7474 21.3501 25.5571 20.3272C23.2839 19.2628 18.351 17.8342 17.279 17.5277Z" fill="#6D4DF2"/>
<path d="M17.1774 17.7162C17.1733 17.7082 17.1721 17.699 17.174 17.6902C17.1759 17.6814 17.1807 17.6735 17.1878 17.6678C17.1948 17.6622 17.2035 17.6591 17.2126 17.6592C17.2216 17.6593 17.2303 17.6624 17.2373 17.6682C18.5729 18.8254 27.5434 26.7306 24.8233 28.5624C22.3013 30.2612 18.096 28.4226 16.9595 27.8702C16.9454 27.8636 16.9342 27.8523 16.9276 27.8382C16.9211 27.8242 16.9197 27.8082 16.9237 27.7933C16.9277 27.7783 16.9369 27.7652 16.9496 27.7563C16.9623 27.7474 16.9777 27.7432 16.9931 27.7445C18.1354 27.8048 21.8854 27.8329 21.0583 25.5594C20.1932 23.1881 17.7198 18.6909 17.1774 17.7162Z" fill="#6D4DF2"/>
<path d="M16.9722 17.7787C16.9727 17.7738 16.9742 17.769 16.9765 17.7646C16.9788 17.7603 16.982 17.7564 16.9858 17.7533C16.9896 17.7501 16.994 17.7478 16.9988 17.7463C17.0035 17.7449 17.0085 17.7444 17.0134 17.7449C17.0183 17.7453 17.0231 17.7468 17.0275 17.7491C17.0318 17.7514 17.0357 17.7546 17.0388 17.7584C17.042 17.7622 17.0443 17.7666 17.0458 17.7714C17.0472 17.7761 17.0477 17.7811 17.0472 17.786C17.1753 19.5494 17.9265 31.487 14.7086 30.8534C11.7257 30.2679 10.0527 25.998 9.6403 24.7932C9.63497 24.7787 9.63489 24.7628 9.64007 24.7483C9.64524 24.7337 9.65535 24.7214 9.66864 24.7136C9.68192 24.7057 9.69754 24.7027 9.71279 24.7052C9.72803 24.7076 9.74194 24.7153 9.75209 24.727C10.5191 25.5737 13.1499 28.2471 14.1728 26.0568C15.2331 23.7825 16.6658 18.8508 16.9722 17.7787Z" fill="#6D4DF2"/>
<path d="M16.7836 17.6769C16.7916 17.6728 16.8008 17.6716 16.8096 17.6735C16.8184 17.6754 16.8263 17.6803 16.832 17.6873C16.8376 17.6943 16.8406 17.7031 16.8406 17.7121C16.8405 17.7211 16.8374 17.7298 16.8316 17.7368C15.6764 19.073 7.76916 28.0429 5.93744 25.3229C4.2406 22.8014 6.07715 18.5955 6.62961 17.459C6.6362 17.445 6.64751 17.4337 6.66157 17.4272C6.67563 17.4206 6.69154 17.4193 6.70652 17.4233C6.72149 17.4273 6.73458 17.4364 6.74349 17.4491C6.7524 17.4618 6.75656 17.4772 6.75525 17.4927C6.69497 18.635 6.66694 22.385 8.94044 21.5578C11.3157 20.6938 15.8089 18.2194 16.7836 17.6769Z" fill="#6D4DF2"/>
<path d="M16.7212 17.4722C16.7261 17.4726 16.7309 17.4741 16.7353 17.4764C16.7397 17.4787 16.7435 17.4819 16.7467 17.4857C16.7498 17.4895 16.7522 17.4939 16.7536 17.4987C16.7551 17.5034 16.7556 17.5084 16.7551 17.5133C16.7546 17.5182 16.7532 17.523 16.7508 17.5274C16.7485 17.5317 16.7453 17.5356 16.7415 17.5388C16.7377 17.5419 16.7333 17.5443 16.7286 17.5457C16.7238 17.5471 16.7189 17.5476 16.7139 17.5472C14.9465 17.6742 3.01693 18.4275 3.63852 15.2063C4.22405 12.2234 8.5019 10.5526 9.69876 10.1381C9.71325 10.1328 9.72915 10.1327 9.7437 10.1379C9.75825 10.143 9.77052 10.1531 9.77839 10.1664C9.78626 10.1797 9.78923 10.1953 9.78678 10.2106C9.78433 10.2258 9.77662 10.2397 9.76499 10.2499C8.91826 11.0169 6.24483 13.6476 8.43513 14.6706C10.7234 15.7347 15.6486 17.1677 16.7212 17.4722Z" fill="#6D4DF2"/>
</g>
<defs>
<clipPath id="clip0_579_6722">
<rect width="27" height="27" fill="white" transform="translate(7.4541 0.96582) rotate(15)"/>
</clipPath>
</defs>
</svg>
