<svg width="48" height="48" viewBox="0 0 48 48" fill="none" xmlns="http://www.w3.org/2000/svg">
<path d="M19.4997 41.2499C19.3104 41.2505 19.1279 41.1795 18.9888 41.0511C18.8497 40.9227 18.7643 40.7464 18.7497 40.5577C18.701 39.9292 17.3952 25.1354 2.08472 21.7327C1.91828 21.6955 1.76946 21.6028 1.66281 21.4697C1.55616 21.3367 1.49805 21.1712 1.49805 21.0007C1.49805 20.8301 1.55616 20.6647 1.66281 20.5316C1.76946 20.3986 1.91828 20.3058 2.08472 20.2687C17.3997 16.8652 18.7032 2.07143 18.7497 1.44293C18.7643 1.25463 18.8495 1.07878 18.9881 0.950505C19.1267 0.822231 19.3086 0.750977 19.4975 0.750977C19.6863 0.750977 19.8682 0.822231 20.0069 0.950505C20.1455 1.07878 20.2306 1.25463 20.2452 1.44293C20.294 2.07143 21.5997 16.8652 36.9102 20.2679C37.0767 20.3051 37.2255 20.3978 37.3321 20.5309C37.4388 20.664 37.4969 20.8294 37.4969 20.9999C37.4969 21.1705 37.4388 21.3359 37.3321 21.469C37.2255 21.602 37.0767 21.6948 36.9102 21.7319C21.5997 25.1347 20.2962 39.9284 20.2497 40.5569C20.2353 40.7458 20.15 40.9222 20.0109 41.0508C19.8717 41.1793 19.6891 41.2505 19.4997 41.2499ZM5.04572 20.9999C14.5707 24.2174 18.1707 32.0459 19.4997 36.7297C20.8287 32.0459 24.431 24.2174 33.9537 20.9999C24.431 17.7824 20.8287 9.95393 19.4997 5.27018C18.1707 9.95393 14.5685 17.7824 5.04572 20.9999Z" fill="#6D4DF2"/>
<path d="M35.9997 47.25C35.8105 47.2506 35.6281 47.1796 35.489 47.0514C35.35 46.9232 35.2645 46.7471 35.2497 46.5585C34.977 44.156 33.9399 41.9045 32.2913 40.1358C30.6427 38.367 28.4697 37.1743 26.0922 36.7335C25.9235 36.6984 25.772 36.6062 25.6632 36.4725C25.5545 36.3387 25.4951 36.1716 25.4951 35.9993C25.4951 35.8269 25.5545 35.6598 25.6632 35.5261C25.772 35.3923 25.9235 35.3001 26.0922 35.265C28.4697 34.8242 30.6427 33.6315 32.2913 31.8627C33.9399 30.094 34.977 27.8425 35.2497 25.44C35.2648 25.2517 35.3505 25.076 35.4895 24.9481C35.6286 24.8201 35.8108 24.7494 35.9997 24.75C36.1881 24.7504 36.3695 24.8216 36.5078 24.9496C36.6461 25.0776 36.7311 25.2529 36.746 25.4408C37.0187 27.8433 38.0558 30.0947 39.7044 31.8635C41.353 33.6323 43.526 34.8249 45.9035 35.2658C46.0722 35.3009 46.2237 35.3931 46.3325 35.5268C46.4412 35.6605 46.5006 35.8276 46.5006 36C46.5006 36.1724 46.4412 36.3395 46.3325 36.4732C46.2237 36.6069 46.0722 36.6991 45.9035 36.7343C43.5266 37.1759 41.3543 38.3689 39.7065 40.1378C38.0586 41.9067 37.0221 44.1579 36.7497 46.56C36.7346 46.7483 36.649 46.924 36.5099 47.052C36.3709 47.1799 36.1887 47.2506 35.9997 47.25ZM28.844 36C30.4979 36.6606 31.9918 37.6667 33.2258 38.9509C34.4598 40.235 35.4055 41.7678 35.9997 43.4468C36.5939 41.7678 37.5396 40.235 38.7737 38.9509C40.0077 37.6667 41.5015 36.6606 43.1555 36C41.5015 35.3394 40.0077 34.3333 38.7737 33.0492C37.5396 31.765 36.5939 30.2322 35.9997 28.5533C35.4055 30.2322 34.4598 31.765 33.2258 33.0492C31.9918 34.3333 30.4979 35.3394 28.844 36Z" fill="#6D4DF2"/>
</svg>
