<svg width="48" height="48" viewBox="0 0 48 48" fill="none" xmlns="http://www.w3.org/2000/svg">
<path d="M24.0002 43.972C20.0501 43.972 16.1888 42.8007 12.9044 40.6061C9.62006 38.4116 7.06022 35.2924 5.54859 31.6431C4.03697 27.9937 3.64146 23.978 4.41208 20.1039C5.1827 16.2297 7.08483 12.6711 9.87795 9.87795C12.6711 7.08483 16.2297 5.1827 20.1039 4.41208C23.978 3.64146 27.9937 4.03697 31.6431 5.54859C35.2924 7.06022 38.4116 9.62006 40.6061 12.9044C42.8007 16.1888 43.972 20.0501 43.972 24.0002C43.9661 29.2952 41.8601 34.3717 38.1159 38.1159C34.3717 41.8601 29.2952 43.9661 24.0002 43.972ZM24.0002 5.56433C20.3539 5.56433 16.7895 6.64557 13.7578 8.67133C10.726 10.6971 8.36304 13.5764 6.96767 16.9451C5.57231 20.3138 5.20722 24.0206 5.91857 27.5968C6.62992 31.173 8.38576 34.458 10.9641 37.0363C13.5424 39.6146 16.8273 41.3704 20.4035 42.0818C23.9797 42.7931 27.6866 42.428 31.0553 41.0327C34.424 39.6373 37.3033 37.2743 39.329 34.2426C41.3548 31.2108 42.436 27.6464 42.436 24.0002C42.4305 19.1124 40.4864 14.4263 37.0302 10.9701C33.574 7.51392 28.888 5.56982 24.0002 5.56433Z" fill="#6D4DF2"/>
<path d="M23.2324 4.7959H24.7684V43.2036H23.2324V4.7959Z" fill="#6D4DF2"/>
<path d="M24 8.82812H36.7008V10.3641H24V8.82812Z" fill="#6D4DF2"/>
<path d="M24 13.6299H40.6341V15.1659H24V13.6299Z" fill="#6D4DF2"/>
<path d="M24 18.4326H42.5994V19.9686H24V18.4326Z" fill="#6D4DF2"/>
<path d="M24 23.2344H43.2008V24.7704H24V23.2344Z" fill="#6D4DF2"/>
<path d="M24 28.0371H42.682V29.5731H24V28.0371Z" fill="#6D4DF2"/>
<path d="M24 32.8389H40.631V34.3749H24V32.8389Z" fill="#6D4DF2"/>
<path d="M24 37.6416H36.7008V39.1776H24V37.6416Z" fill="#6D4DF2"/>
</svg>
