<svg width="48" height="48" viewBox="0 0 48 48" fill="none" xmlns="http://www.w3.org/2000/svg">
<path d="M21.2113 43.1362H7.33125C6.67689 43.1354 6.04956 42.8751 5.58689 42.4123C5.12423 41.9496 4.86399 41.3222 4.86328 40.6679V18.771C4.86451 17.9704 5.13274 17.193 5.62552 16.5619L6.94648 14.8757C7.28047 14.4468 7.70826 14.1001 8.19703 13.8621C8.6858 13.6242 9.22258 13.5013 9.76619 13.5029H18.7737C19.3169 13.5013 19.8532 13.624 20.3417 13.8616C20.8302 14.0993 21.2578 14.4455 21.5919 14.8738L22.9155 16.5611C23.4092 17.1926 23.678 17.9707 23.6793 18.7722V40.6679C23.6786 41.3222 23.4183 41.9496 22.9557 42.4123C22.493 42.8751 21.8657 43.1354 21.2113 43.1362ZM9.76811 15.0389C9.45761 15.0379 9.151 15.1081 8.87183 15.244C8.59265 15.38 8.34833 15.578 8.15762 15.8231L6.83512 17.51C6.55361 17.8704 6.40038 18.3145 6.39967 18.7718V40.6686C6.39987 40.9158 6.49811 41.1528 6.67283 41.3276C6.84756 41.5023 7.08449 41.6007 7.33163 41.601H21.2113C21.4585 41.6007 21.6954 41.5023 21.8701 41.3276C22.0448 41.1528 22.1431 40.9158 22.1433 40.6686V18.7722C22.1426 18.3146 21.9891 17.8703 21.7071 17.51L20.3834 15.8204C20.1925 15.5758 19.9482 15.3781 19.6692 15.2424C19.3903 15.1067 19.0839 15.0366 18.7737 15.0374L9.76811 15.0389Z" fill="#6D4DF2"/>
<path d="M28.0301 40.3114C27.7061 40.3122 27.3852 40.2489 27.0857 40.1252C26.7863 40.0015 26.5142 39.8198 26.2852 39.5906L24.6191 37.924L25.705 36.8381L27.3712 38.5039C27.5462 38.6782 27.7832 38.776 28.0301 38.776C28.2771 38.776 28.5141 38.6782 28.6891 38.5039L38.5037 28.6892C38.6782 28.5142 38.7762 28.2771 38.7762 28.0299C38.7762 27.7827 38.6782 27.5456 38.5037 27.3706L23.0209 11.8877C22.6967 11.5646 22.274 11.359 21.8197 11.3036L19.6904 11.0463L19.8744 9.52148L22.0036 9.77876C22.7991 9.87578 23.5394 10.2358 24.1068 10.8017L39.5897 26.2846C40.0518 26.7479 40.3113 27.3756 40.3113 28.0299C40.3113 28.6842 40.0518 29.3119 39.5897 29.7752L29.7754 39.5906C29.5463 39.8198 29.2742 40.0014 28.9747 40.1251C28.6752 40.2488 28.3542 40.3121 28.0301 40.3114Z" fill="#6D4DF2"/>
<path d="M40.6688 23.6793H38.2704V22.1433H40.6688C40.916 22.143 41.1529 22.0446 41.3276 21.8698C41.5023 21.695 41.6006 21.4581 41.6008 21.2109V7.33163C41.6006 7.08449 41.5023 6.84752 41.3276 6.67272C41.1529 6.49793 40.916 6.39959 40.6688 6.39928H18.7724C18.3149 6.3999 17.8708 6.55329 17.5105 6.83512L15.8209 8.15915C15.5764 8.35 15.3788 8.59422 15.2431 8.87314C15.1074 9.15207 15.0372 9.45832 15.038 9.7685V11.1636H13.502V9.7685C13.5004 9.22541 13.6231 8.68916 13.8607 8.20081C14.0983 7.71247 14.4445 7.28498 14.8728 6.95109L16.5601 5.62706C17.1913 5.1332 17.9694 4.86437 18.7708 4.86328H40.6673C41.3216 4.86409 41.949 5.12443 42.4116 5.58717C42.8743 6.04991 43.1345 6.67727 43.1353 7.33163V21.2109C43.1345 21.865 42.8745 22.4922 42.4122 22.9549C41.9498 23.4176 41.3229 23.6781 40.6688 23.6793Z" fill="#6D4DF2"/>
<path d="M14.2701 22.131C13.7147 22.131 13.1718 21.9663 12.71 21.6578C12.2482 21.3492 11.8882 20.9106 11.6757 20.3975C11.4631 19.8844 11.4075 19.3197 11.5159 18.775C11.6242 18.2303 11.8917 17.7299 12.2844 17.3372C12.6771 16.9444 13.1775 16.677 13.7223 16.5686C14.267 16.4603 14.8316 16.5159 15.3448 16.7284C15.8579 16.941 16.2965 17.3009 16.605 17.7627C16.9136 18.2245 17.0783 18.7674 17.0783 19.3228C17.0776 20.0674 16.7815 20.7813 16.255 21.3077C15.7285 21.8342 15.0147 22.1303 14.2701 22.131ZM14.2701 18.051C14.0185 18.051 13.7725 18.1257 13.5633 18.2655C13.3541 18.4053 13.191 18.604 13.0947 18.8365C12.9984 19.069 12.9733 19.3248 13.0224 19.5716C13.0715 19.8184 13.1927 20.045 13.3707 20.2229C13.5486 20.4008 13.7753 20.522 14.0221 20.571C14.269 20.6201 14.5248 20.5948 14.7572 20.4985C14.9897 20.4021 15.1883 20.239 15.3281 20.0297C15.4678 19.8205 15.5424 19.5745 15.5423 19.3228C15.542 18.9856 15.4078 18.6622 15.1693 18.4237C14.9308 18.1853 14.6074 18.0512 14.2701 18.051Z" fill="#6D4DF2"/>
</svg>
