<svg width="35" height="35" viewBox="0 0 35 35" fill="none" xmlns="http://www.w3.org/2000/svg">
<g clip-path="url(#clip0_208_2239)">
<path d="M17.3229 17.2837C17.327 17.2917 17.3282 17.3009 17.3263 17.3097C17.3244 17.3185 17.3195 17.3264 17.3125 17.3321C17.3055 17.3377 17.2967 17.3408 17.2877 17.3407C17.2787 17.3406 17.27 17.3375 17.263 17.3318C15.9268 16.1765 6.95686 8.26928 9.67694 6.43756C12.2004 4.74125 16.4043 6.57727 17.5408 7.12974C17.5548 7.13632 17.5661 7.14764 17.5726 7.1617C17.5792 7.17576 17.5805 7.19167 17.5765 7.20664C17.5725 7.22162 17.5634 7.2347 17.5507 7.24361C17.538 7.25252 17.5226 7.25668 17.5071 7.25537C16.3648 7.19509 12.6148 7.16706 13.442 9.44056C14.306 11.8158 16.7804 16.309 17.3229 17.2837Z" fill="#6D4DF2"/>
<path d="M17.5278 17.221C17.5268 17.231 17.5219 17.2401 17.5142 17.2465C17.5065 17.2528 17.4966 17.2558 17.4866 17.2549C17.4767 17.2539 17.4675 17.249 17.4612 17.2413C17.4548 17.2336 17.4518 17.2237 17.4528 17.2137C17.3258 15.4463 16.5724 3.51674 19.7936 4.13832C22.7765 4.72385 24.4493 9.00224 24.8619 10.1986C24.8672 10.2131 24.8673 10.229 24.8621 10.2435C24.8569 10.2581 24.8468 10.2703 24.8335 10.2782C24.8202 10.2861 24.8046 10.289 24.7894 10.2866C24.7741 10.2841 24.7602 10.2764 24.7501 10.2648C23.9831 9.41806 21.3523 6.74464 20.3294 8.93493C19.2613 11.2221 17.8343 16.149 17.5278 17.221Z" fill="#6D4DF2"/>
<path d="M17.7162 17.3228C17.7082 17.3269 17.699 17.3281 17.6902 17.3262C17.6814 17.3243 17.6735 17.3195 17.6678 17.3124C17.6622 17.3054 17.6591 17.2967 17.6592 17.2876C17.6593 17.2786 17.6624 17.2699 17.6681 17.2629C18.8254 15.9273 26.7306 6.95681 28.5623 9.67689C30.2606 12.2009 28.4226 16.4042 27.8702 17.5407C27.8636 17.5548 27.8523 17.566 27.8382 17.5726C27.8241 17.5791 27.8082 17.5805 27.7933 17.5765C27.7783 17.5725 27.7652 17.5633 27.7563 17.5506C27.7474 17.5379 27.7432 17.5225 27.7445 17.5071C27.8053 16.3628 27.8328 12.6148 25.5599 13.4399C23.188 14.307 18.6909 16.7804 17.7162 17.3228Z" fill="#6D4DF2"/>
<path d="M17.779 17.5277C17.769 17.5268 17.7599 17.5219 17.7535 17.5142C17.7472 17.5065 17.7442 17.4965 17.7451 17.4866C17.7461 17.4766 17.751 17.4675 17.7587 17.4611C17.7664 17.4548 17.7763 17.4518 17.7863 17.4527C19.5497 17.3246 31.4873 16.5735 30.8537 19.7914C30.2682 22.7743 25.9978 24.4492 24.7935 24.8597C24.779 24.865 24.7631 24.8651 24.7485 24.8599C24.734 24.8547 24.7217 24.8446 24.7138 24.8313C24.706 24.8181 24.703 24.8024 24.7054 24.7872C24.7079 24.7719 24.7156 24.758 24.7272 24.7479C25.574 23.9809 28.2474 21.3501 26.0571 20.3272C23.7839 19.2628 18.851 17.8342 17.779 17.5277Z" fill="#6D4DF2"/>
<path d="M17.6774 17.7163C17.6733 17.7083 17.6721 17.6991 17.674 17.6903C17.6759 17.6815 17.6807 17.6736 17.6878 17.6679C17.6948 17.6623 17.7035 17.6592 17.7126 17.6593C17.7216 17.6594 17.7303 17.6625 17.7373 17.6682C19.0729 18.8255 28.0434 26.7307 25.3233 28.5624C22.8013 30.2613 18.596 28.4227 17.4595 27.8703C17.4454 27.8637 17.4342 27.8524 17.4276 27.8383C17.4211 27.8242 17.4197 27.8083 17.4237 27.7934C17.4277 27.7784 17.4369 27.7653 17.4496 27.7564C17.4623 27.7475 17.4777 27.7433 17.4931 27.7446C18.6354 27.8049 22.3854 27.8329 21.5583 25.5594C20.6932 23.1881 18.2198 18.691 17.6774 17.7163Z" fill="#6D4DF2"/>
<path d="M17.4722 17.779C17.4727 17.774 17.4742 17.7693 17.4765 17.7649C17.4788 17.7605 17.482 17.7567 17.4858 17.7535C17.4896 17.7504 17.494 17.748 17.4988 17.7466C17.5035 17.7451 17.5085 17.7446 17.5134 17.7451C17.5183 17.7456 17.5231 17.747 17.5275 17.7494C17.5318 17.7517 17.5357 17.7548 17.5388 17.7587C17.542 17.7625 17.5443 17.7669 17.5458 17.7716C17.5472 17.7763 17.5477 17.7813 17.5472 17.7862C17.6753 19.5497 18.4265 31.4872 15.2086 30.8537C12.2257 30.2682 10.5527 25.9983 10.1403 24.7935C10.135 24.779 10.1349 24.7631 10.1401 24.7485C10.1452 24.734 10.1554 24.7217 10.1686 24.7138C10.1819 24.7059 10.1975 24.703 10.2128 24.7054C10.228 24.7079 10.2419 24.7156 10.2521 24.7272C11.0191 25.574 13.6499 28.2474 14.6728 26.0571C15.7331 23.7828 17.1658 18.851 17.4722 17.779Z" fill="#6D4DF2"/>
<path d="M17.2836 17.6771C17.2916 17.673 17.3008 17.6719 17.3096 17.6737C17.3184 17.6756 17.3263 17.6805 17.332 17.6875C17.3376 17.6946 17.3406 17.7033 17.3406 17.7124C17.3405 17.7214 17.3374 17.7301 17.3316 17.737C16.1764 19.0733 8.26916 28.0432 6.43744 25.3231C4.7406 22.8016 6.57715 18.5958 7.12961 17.4593C7.1362 17.4452 7.14751 17.4339 7.16157 17.4274C7.17563 17.4209 7.19154 17.4195 7.20652 17.4235C7.22149 17.4275 7.23458 17.4367 7.24349 17.4494C7.2524 17.4621 7.25656 17.4775 7.25525 17.4929C7.19497 18.6352 7.16694 22.3852 9.44044 21.5581C11.8157 20.6941 16.3089 18.2196 17.2836 17.6771Z" fill="#6D4DF2"/>
<path d="M17.2212 17.4723C17.2261 17.4727 17.2309 17.4742 17.2353 17.4765C17.2397 17.4788 17.2435 17.482 17.2467 17.4858C17.2498 17.4896 17.2522 17.494 17.2536 17.4988C17.2551 17.5035 17.2556 17.5085 17.2551 17.5134C17.2546 17.5183 17.2532 17.5231 17.2508 17.5275C17.2485 17.5318 17.2453 17.5357 17.2415 17.5389C17.2377 17.542 17.2333 17.5444 17.2286 17.5458C17.2238 17.5472 17.2189 17.5477 17.2139 17.5473C15.4465 17.6743 3.51693 18.4276 4.13852 15.2064C4.72405 12.2235 9.0019 10.5527 10.1988 10.1382C10.2133 10.1329 10.2292 10.1328 10.2437 10.138C10.2582 10.1431 10.2705 10.1532 10.2784 10.1665C10.2863 10.1798 10.2892 10.1954 10.2868 10.2107C10.2843 10.2259 10.2766 10.2398 10.265 10.25C9.41826 11.017 6.74483 13.6477 8.93513 14.6707C11.2234 15.7348 16.1486 17.1678 17.2212 17.4723Z" fill="#6D4DF2"/>
</g>
<defs>
<clipPath id="clip0_208_2239">
<rect width="27" height="27" fill="white" transform="translate(7.9541 0.965942) rotate(15)"/>
</clipPath>
</defs>
</svg>
