<svg width="36" height="36" viewBox="0 0 36 36" fill="none" xmlns="http://www.w3.org/2000/svg">
<g clip-path="url(#clip0_43_357)">
<path d="M19.3064 11.3889C21.1724 13.255 23.1971 15.2796 24.6363 16.7188L27.5879 13.7672C28.6894 12.6688 30.1733 12.0394 31.7286 12.0109L20.9651 1.24127C20.4132 0.6743 19.7079 0.280593 18.9356 0.108368C18.1633 -0.0638565 17.3575 -0.00712229 16.617 0.271623C15.9538 0.50649 15.3609 0.90549 14.8936 1.43141C14.4262 1.95733 14.0997 2.59304 13.9444 3.27925C13.7892 3.96546 13.8102 4.67982 14.0056 5.35569C14.201 6.03157 14.5644 6.64695 15.0619 7.14444L19.3064 11.3889Z" fill="#8054FF"/>
<path d="M31.7591 13.8404C30.679 13.8638 29.6488 14.3003 28.8807 15.06L19.3064 24.6344L22.258 27.586C23.363 28.683 23.9936 30.1698 24.0143 31.7268L34.7778 20.9632C35.3581 20.3728 35.7504 19.6236 35.9051 18.8103C36.0598 17.997 35.9699 17.1561 35.6469 16.3938C35.3238 15.6316 34.7821 14.9822 34.0901 14.5277C33.3981 14.0732 32.587 13.834 31.7591 13.8404Z" fill="#8054FF"/>
<path d="M11.3908 19.3045L8.43915 22.2561C7.34345 23.3516 5.87145 23.9884 4.32278 24.0368L15.0619 34.7759C17.597 37.4062 22.241 35.4887 22.1848 31.8304C22.1855 31.2824 22.0782 30.7396 21.8689 30.2332C21.6596 29.7267 21.3525 29.2665 20.9651 28.8789L11.3908 19.3045Z" fill="#8054FF"/>
<path d="M4.62771 22.1829C5.6247 22.0557 6.54805 21.5909 7.24394 20.8657C7.98676 20.1235 8.9261 19.183 10.1345 17.9751C12.2872 15.8223 14.94 13.1696 16.7207 11.3889C15.0559 9.72402 13.7264 8.39459 13.7203 8.38848C12.6524 7.29401 12.0362 5.83728 11.9945 4.3087L1.24925 15.06C-1.78194 18.2628 1.23777 22.5471 4.62771 22.1829Z" fill="#8054FF"/>
<path d="M18.7636 13.441C18.5637 13.2438 18.2943 13.1332 18.0135 13.1332C17.7328 13.1332 17.4633 13.2438 17.2635 13.441L13.4426 17.2619C13.2454 17.4617 13.1349 17.7312 13.1349 18.0119C13.1349 18.2926 13.2454 18.5621 13.4426 18.7619L17.2635 22.5827C17.4642 22.7783 17.7333 22.8878 18.0135 22.8878C18.2938 22.8878 18.5629 22.7783 18.7636 22.5827L22.5844 18.7619C22.7816 18.5621 22.8922 18.2926 22.8922 18.0119C22.8922 17.7312 22.7816 17.4617 22.5844 17.2619L18.7636 13.441Z" fill="#A584E2"/>
</g>
<defs>
<clipPath id="clip0_43_357">
<rect width="36" height="36" fill="white"/>
</clipPath>
</defs>
</svg>
