<svg width="115" height="28" viewBox="0 0 115 28" fill="none" xmlns="http://www.w3.org/2000/svg">
<g clip-path="url(#clip0_30_208)">
<path d="M16.6281 26.3334C2.46432 23.5864 4.14832 2.92739 18.5413 2.52497C18.9286 2.49984 19.5143 2.69718 19.6405 2.17106C19.6681 2.0617 19.6564 1.94589 19.6075 1.84454C19.5587 1.7432 19.4758 1.66299 19.374 1.6184C17.6602 0.829784 15.8008 0.42318 13.9202 0.425794C-3.75698 1.1707 -3.75238 26.832 13.9203 27.5745C14.8365 27.5739 15.7501 27.478 16.6471 27.2884C16.7563 27.2656 16.8542 27.2045 16.9237 27.1158C16.9933 27.0271 17.0301 26.9163 17.0279 26.8028C17.0256 26.6893 16.9844 26.5802 16.9113 26.4944C16.8383 26.4087 16.7381 26.3517 16.6281 26.3334Z" fill="#CE68E8"/>
<path d="M25.3785 10.0151C23.2662 4.17713 15.6474 2.50502 11.3777 6.96093C9.78012 8.59082 8.88281 10.8 8.88281 13.1033C8.88281 15.4066 9.78012 17.6157 11.3777 19.2456C11.7929 19.6679 12.2489 20.0463 12.7387 20.3752C12.8317 20.4366 12.9429 20.4631 13.053 20.4501C13.1631 20.4371 13.2653 20.3853 13.3419 20.3038C13.4186 20.2222 13.465 20.116 13.473 20.0033C13.481 19.8907 13.4502 19.7788 13.386 19.6868C12.3336 18.1909 11.8722 16.3466 12.0932 14.5201C12.3143 12.6936 13.2016 11.0186 14.5791 9.82792C15.9565 8.63722 17.7232 8.01791 19.5282 8.09301C21.3332 8.16811 23.0444 8.93213 24.322 10.2333C24.5385 10.4848 24.826 10.8291 25.1786 10.6016C25.2733 10.5424 25.345 10.4516 25.3814 10.3447C25.4178 10.2378 25.4168 10.1213 25.3785 10.0151Z" fill="#CE68E8"/>
<path d="M19.1786 9.77734C17.8053 9.77861 16.4886 10.3346 15.5171 11.3233C14.5456 12.3121 13.9986 13.653 13.9961 15.0519C14.0452 15.5405 13.9156 16.4821 14.5814 16.5209C14.6928 16.5184 14.7999 16.4763 14.8842 16.402C14.9685 16.3276 15.0247 16.2257 15.0431 16.1136C15.9866 11.0787 23.1169 11.8725 22.9952 16.9912C22.9927 17.0567 23.0031 17.122 23.0258 17.1834C23.0485 17.2447 23.0831 17.3008 23.1275 17.3482C23.1718 17.3957 23.2251 17.4336 23.2842 17.4597C23.3432 17.4858 23.4068 17.4996 23.4711 17.5002C23.5629 17.5011 23.6529 17.4745 23.7299 17.4236C23.807 17.3727 23.8676 17.2999 23.9042 17.2141C24.2071 16.5352 24.3629 15.7977 24.361 15.0519C24.3585 13.653 23.8116 12.3121 22.8401 11.3233C21.8686 10.3346 20.5518 9.77862 19.1786 9.77734Z" fill="#CE68E8"/>
</g>
<path d="M38.904 19.728H34.248L33.448 22H31.544L35.528 10.864H37.64L41.624 22H39.704L38.904 19.728ZM38.392 18.24L36.584 13.072L34.76 18.24H38.392ZM45.1803 10.16V22H43.3563V10.16H45.1803ZM48.503 12.016C48.1723 12.016 47.895 11.904 47.671 11.68C47.447 11.456 47.335 11.1787 47.335 10.848C47.335 10.5173 47.447 10.24 47.671 10.016C47.895 9.792 48.1723 9.68 48.503 9.68C48.823 9.68 49.095 9.792 49.319 10.016C49.543 10.24 49.655 10.5173 49.655 10.848C49.655 11.1787 49.543 11.456 49.319 11.68C49.095 11.904 48.823 12.016 48.503 12.016ZM49.399 13.184V22H47.575V13.184H49.399ZM58.9778 10.88V12.368H56.0178V22H54.1938V12.368H51.2178V10.88H58.9778ZM65.385 13.04C66.057 13.04 66.6543 13.184 67.177 13.472C67.7103 13.76 68.1263 14.1867 68.425 14.752C68.7343 15.3173 68.889 16 68.889 16.8V22H67.081V17.072C67.081 16.2827 66.8837 15.68 66.489 15.264C66.0943 14.8373 65.5557 14.624 64.873 14.624C64.1903 14.624 63.6463 14.8373 63.241 15.264C62.8463 15.68 62.649 16.2827 62.649 17.072V22H60.825V10.16H62.649V14.208C62.9583 13.8347 63.3477 13.5467 63.817 13.344C64.297 13.1413 64.8197 13.04 65.385 13.04ZM79.2956 17.376C79.2956 17.7067 79.2743 18.0053 79.2316 18.272H72.4956C72.549 18.976 72.8103 19.5413 73.2796 19.968C73.749 20.3947 74.325 20.608 75.0076 20.608C75.989 20.608 76.6823 20.1973 77.0876 19.376H79.0556C78.789 20.1867 78.3036 20.8533 77.5996 21.376C76.9063 21.888 76.0423 22.144 75.0076 22.144C74.165 22.144 73.4076 21.9573 72.7356 21.584C72.0743 21.2 71.5516 20.6667 71.1676 19.984C70.7943 19.2907 70.6076 18.4907 70.6076 17.584C70.6076 16.6773 70.789 15.8827 71.1516 15.2C71.525 14.5067 72.0423 13.9733 72.7036 13.6C73.3756 13.2267 74.1436 13.04 75.0076 13.04C75.8396 13.04 76.581 13.2213 77.2316 13.584C77.8823 13.9467 78.389 14.4587 78.7516 15.12C79.1143 15.7707 79.2956 16.5227 79.2956 17.376ZM77.3916 16.8C77.381 16.128 77.141 15.5893 76.6716 15.184C76.2023 14.7787 75.621 14.576 74.9276 14.576C74.2983 14.576 73.7596 14.7787 73.3116 15.184C72.8636 15.5787 72.597 16.1173 72.5116 16.8H77.3916ZM91.7626 13.04C92.456 13.04 93.0746 13.184 93.6186 13.472C94.1733 13.76 94.6053 14.1867 94.9146 14.752C95.2346 15.3173 95.3946 16 95.3946 16.8V22H93.5866V17.072C93.5866 16.2827 93.3893 15.68 92.9946 15.264C92.6 14.8373 92.0613 14.624 91.3786 14.624C90.696 14.624 90.152 14.8373 89.7466 15.264C89.352 15.68 89.1546 16.2827 89.1546 17.072V22H87.3466V17.072C87.3466 16.2827 87.1493 15.68 86.7546 15.264C86.36 14.8373 85.8213 14.624 85.1386 14.624C84.456 14.624 83.912 14.8373 83.5066 15.264C83.112 15.68 82.9146 16.2827 82.9146 17.072V22H81.0906V13.184H82.9146V14.192C83.2133 13.8293 83.592 13.5467 84.0506 13.344C84.5093 13.1413 85 13.04 85.5226 13.04C86.2266 13.04 86.856 13.1893 87.4106 13.488C87.9653 13.7867 88.392 14.2187 88.6906 14.784C88.9573 14.2507 89.3733 13.8293 89.9386 13.52C90.504 13.2 91.112 13.04 91.7626 13.04ZM105.796 17.376C105.796 17.7067 105.774 18.0053 105.732 18.272H98.9956C99.049 18.976 99.3103 19.5413 99.7796 19.968C100.249 20.3947 100.825 20.608 101.508 20.608C102.489 20.608 103.182 20.1973 103.588 19.376H105.556C105.289 20.1867 104.804 20.8533 104.1 21.376C103.406 21.888 102.542 22.144 101.508 22.144C100.665 22.144 99.9076 21.9573 99.2356 21.584C98.5743 21.2 98.0516 20.6667 97.6676 19.984C97.2943 19.2907 97.1076 18.4907 97.1076 17.584C97.1076 16.6773 97.289 15.8827 97.6516 15.2C98.025 14.5067 98.5423 13.9733 99.2036 13.6C99.8756 13.2267 100.644 13.04 101.508 13.04C102.34 13.04 103.081 13.2213 103.732 13.584C104.382 13.9467 104.889 14.4587 105.252 15.12C105.614 15.7707 105.796 16.5227 105.796 17.376ZM103.892 16.8C103.881 16.128 103.641 15.5893 103.172 15.184C102.702 14.7787 102.121 14.576 101.428 14.576C100.798 14.576 100.26 14.7787 99.8116 15.184C99.3636 15.5787 99.097 16.1173 99.0116 16.8H103.892ZM110.791 22.144C110.097 22.144 109.473 22.0213 108.919 21.776C108.375 21.52 107.943 21.1787 107.623 20.752C107.303 20.3147 107.132 19.8293 107.111 19.296H108.999C109.031 19.6693 109.207 19.984 109.527 20.24C109.857 20.4853 110.268 20.608 110.759 20.608C111.271 20.608 111.665 20.512 111.943 20.32C112.231 20.1173 112.375 19.8613 112.375 19.552C112.375 19.2213 112.215 18.976 111.895 18.816C111.585 18.656 111.089 18.48 110.407 18.288C109.745 18.1067 109.207 17.9307 108.791 17.76C108.375 17.5893 108.012 17.328 107.703 16.976C107.404 16.624 107.255 16.16 107.255 15.584C107.255 15.1147 107.393 14.688 107.671 14.304C107.948 13.9093 108.343 13.6 108.855 13.376C109.377 13.152 109.975 13.04 110.647 13.04C111.649 13.04 112.455 13.296 113.063 13.808C113.681 14.3093 114.012 14.9973 114.055 15.872H112.231C112.199 15.4773 112.039 15.1627 111.751 14.928C111.463 14.6933 111.073 14.576 110.583 14.576C110.103 14.576 109.735 14.6667 109.479 14.848C109.223 15.0293 109.095 15.2693 109.095 15.568C109.095 15.8027 109.18 16 109.351 16.16C109.521 16.32 109.729 16.448 109.975 16.544C110.22 16.6293 110.583 16.7413 111.063 16.88C111.703 17.0507 112.225 17.2267 112.631 17.408C113.047 17.5787 113.404 17.8347 113.703 18.176C114.001 18.5173 114.156 18.9707 114.167 19.536C114.167 20.0373 114.028 20.4853 113.751 20.88C113.473 21.2747 113.079 21.584 112.567 21.808C112.065 22.032 111.473 22.144 110.791 22.144Z" fill="#5D5BD8"/>
<defs>
<clipPath id="clip0_30_208">
<rect width="26" height="28" fill="white"/>
</clipPath>
</defs>
</svg>
