<svg width="152" height="151" viewBox="0 0 152 151" fill="none" xmlns="http://www.w3.org/2000/svg">
<path d="M147.725 2.1358C147.725 3.31537 148.682 4.2716 149.862 4.2716C151.043 4.2716 152 3.31537 152 2.1358C152 0.956232 151.043 2.79338e-06 149.862 2.74178e-06C148.682 2.69017e-06 147.725 0.956231 147.725 2.1358Z" fill="#6D4DF2"/>
<path d="M147.725 23.0249C147.725 24.2045 148.682 25.1607 149.862 25.1607C151.043 25.1607 152 24.2045 152 23.0249C152 21.8454 151.043 20.8891 149.862 20.8891C148.682 20.8891 147.725 21.8454 147.725 23.0249Z" fill="#6D4DF2"/>
<path d="M147.725 43.9141C147.725 45.0936 148.682 46.0499 149.862 46.0499C151.043 46.0499 152 45.0936 152 43.9141C152 42.7345 151.043 41.7783 149.862 41.7783C148.682 41.7783 147.725 42.7345 147.725 43.9141Z" fill="#6D4DF2"/>
<path d="M147.725 64.8032C147.725 65.9828 148.682 66.939 149.862 66.939C151.043 66.939 152 65.9828 152 64.8032C152 63.6236 151.043 62.6674 149.862 62.6674C148.682 62.6674 147.725 63.6236 147.725 64.8032Z" fill="#6D4DF2"/>
<path d="M147.725 85.6663C147.725 86.8459 148.682 87.8021 149.862 87.8021C151.043 87.8021 152 86.8459 152 85.6663C152 84.4867 151.043 83.5305 149.862 83.5305C148.682 83.5305 147.725 84.4867 147.725 85.6663Z" fill="#6D4DF2"/>
<path d="M147.725 106.555C147.725 107.735 148.682 108.691 149.862 108.691C151.043 108.691 152 107.735 152 106.555C152 105.376 151.043 104.42 149.862 104.42C148.682 104.42 147.725 105.376 147.725 106.555Z" fill="#6D4DF2"/>
<path d="M147.725 127.445C147.725 128.624 148.682 129.58 149.862 129.58C151.043 129.58 152 128.624 152 127.445C152 126.265 151.043 125.309 149.862 125.309C148.682 125.309 147.725 126.265 147.725 127.445Z" fill="#6D4DF2"/>
<path d="M147.725 148.334C147.725 149.513 148.682 150.469 149.862 150.469C151.043 150.469 152 149.513 152 148.334C152 147.154 151.043 146.198 149.862 146.198C148.682 146.198 147.725 147.154 147.725 148.334Z" fill="#6D4DF2"/>
<path d="M126.816 2.1358C126.816 3.31537 127.773 4.2716 128.954 4.2716C130.135 4.2716 131.092 3.31537 131.092 2.1358C131.092 0.956231 130.135 1.87946e-06 128.954 1.82785e-06C127.773 1.77624e-06 126.816 0.95623 126.816 2.1358Z" fill="#6D4DF2"/>
<path d="M126.816 23.0249C126.816 24.2045 127.773 25.1607 128.954 25.1607C130.135 25.1607 131.092 24.2045 131.092 23.0249C131.092 21.8454 130.135 20.8891 128.954 20.8891C127.773 20.8891 126.816 21.8454 126.816 23.0249Z" fill="#6D4DF2"/>
<path d="M126.816 43.9141C126.816 45.0936 127.773 46.0499 128.954 46.0499C130.135 46.0499 131.092 45.0936 131.092 43.9141C131.092 42.7345 130.135 41.7783 128.954 41.7783C127.773 41.7783 126.816 42.7345 126.816 43.9141Z" fill="#6D4DF2"/>
<path d="M126.816 64.8032C126.816 65.9828 127.773 66.939 128.954 66.939C130.135 66.939 131.092 65.9828 131.092 64.8032C131.092 63.6236 130.135 62.6674 128.954 62.6674C127.773 62.6674 126.816 63.6236 126.816 64.8032Z" fill="#6D4DF2"/>
<path d="M126.816 85.6663C126.816 86.8459 127.773 87.8021 128.954 87.8021C130.135 87.8021 131.092 86.8459 131.092 85.6663C131.092 84.4867 130.135 83.5305 128.954 83.5305C127.773 83.5305 126.816 84.4867 126.816 85.6663Z" fill="#6D4DF2"/>
<path d="M126.816 106.555C126.816 107.735 127.773 108.691 128.954 108.691C130.135 108.691 131.092 107.735 131.092 106.555C131.092 105.376 130.135 104.42 128.954 104.42C127.773 104.42 126.816 105.376 126.816 106.555Z" fill="#6D4DF2"/>
<path d="M126.816 127.445C126.816 128.624 127.773 129.58 128.954 129.58C130.135 129.58 131.092 128.624 131.092 127.445C131.092 126.265 130.135 125.309 128.954 125.309C127.773 125.309 126.816 126.265 126.816 127.445Z" fill="#6D4DF2"/>
<path d="M126.816 148.334C126.816 149.513 127.773 150.469 128.954 150.469C130.135 150.469 131.092 149.513 131.092 148.334C131.092 147.154 130.135 146.198 128.954 146.198C127.773 146.198 126.816 147.154 126.816 148.334Z" fill="#6D4DF2"/>
<path d="M105.908 2.1358C105.908 3.31537 106.865 4.27159 108.046 4.27159C109.227 4.27159 110.184 3.31537 110.184 2.1358C110.184 0.95623 109.227 9.65532e-07 108.046 9.13925e-07C106.865 8.62317e-07 105.908 0.956229 105.908 2.1358Z" fill="#6D4DF2"/>
<path d="M105.908 23.0249C105.908 24.2045 106.865 25.1607 108.046 25.1607C109.227 25.1607 110.184 24.2045 110.184 23.0249C110.184 21.8454 109.227 20.8891 108.046 20.8891C106.865 20.8891 105.908 21.8454 105.908 23.0249Z" fill="#6D4DF2"/>
<path d="M105.908 43.9141C105.908 45.0936 106.865 46.0499 108.046 46.0499C109.227 46.0499 110.184 45.0936 110.184 43.9141C110.184 42.7345 109.227 41.7783 108.046 41.7783C106.865 41.7783 105.908 42.7345 105.908 43.9141Z" fill="#6D4DF2"/>
<path d="M105.908 64.8032C105.908 65.9828 106.865 66.939 108.046 66.939C109.227 66.939 110.184 65.9828 110.184 64.8032C110.184 63.6236 109.227 62.6674 108.046 62.6674C106.865 62.6674 105.908 63.6236 105.908 64.8032Z" fill="#6D4DF2"/>
<path d="M105.908 85.6663C105.908 86.8459 106.865 87.8021 108.046 87.8021C109.227 87.8021 110.184 86.8459 110.184 85.6663C110.184 84.4867 109.227 83.5305 108.046 83.5305C106.865 83.5305 105.908 84.4867 105.908 85.6663Z" fill="#6D4DF2"/>
<path d="M105.908 106.555C105.908 107.735 106.865 108.691 108.046 108.691C109.227 108.691 110.184 107.735 110.184 106.555C110.184 105.376 109.227 104.42 108.046 104.42C106.865 104.42 105.908 105.376 105.908 106.555Z" fill="#6D4DF2"/>
<path d="M105.908 127.445C105.908 128.624 106.865 129.58 108.046 129.58C109.227 129.58 110.184 128.624 110.184 127.445C110.184 126.265 109.227 125.309 108.046 125.309C106.865 125.309 105.908 126.265 105.908 127.445Z" fill="#6D4DF2"/>
<path d="M105.908 148.334C105.908 149.513 106.865 150.469 108.046 150.469C109.227 150.469 110.184 149.513 110.184 148.334C110.184 147.154 109.227 146.198 108.046 146.198C106.865 146.198 105.908 147.154 105.908 148.334Z" fill="#6D4DF2"/>
<path d="M85 2.1358C85 3.31536 85.9571 4.27159 87.1377 4.27159C88.3184 4.27159 89.2755 3.31536 89.2755 2.1358C89.2755 0.956229 88.3184 5.16075e-08 87.1377 0C85.9571 -5.16075e-08 85 0.956229 85 2.1358Z" fill="#6D4DF2"/>
<path d="M85 23.0249C85 24.2045 85.9571 25.1607 87.1377 25.1607C88.3184 25.1607 89.2755 24.2045 89.2755 23.0249C89.2755 21.8454 88.3184 20.8891 87.1377 20.8891C85.9571 20.8891 85 21.8454 85 23.0249Z" fill="#6D4DF2"/>
<path d="M85 43.9141C85 45.0936 85.9571 46.0499 87.1377 46.0499C88.3184 46.0499 89.2755 45.0936 89.2755 43.9141C89.2755 42.7345 88.3184 41.7783 87.1377 41.7783C85.9571 41.7783 85 42.7345 85 43.9141Z" fill="#6D4DF2"/>
<path d="M85 64.8032C85 65.9828 85.9571 66.939 87.1377 66.939C88.3184 66.939 89.2755 65.9828 89.2755 64.8032C89.2755 63.6236 88.3184 62.6674 87.1377 62.6674C85.9571 62.6674 85 63.6236 85 64.8032Z" fill="#6D4DF2"/>
<path d="M85 85.6663C85 86.8459 85.9571 87.8021 87.1377 87.8021C88.3184 87.8021 89.2755 86.8459 89.2755 85.6663C89.2755 84.4867 88.3184 83.5305 87.1377 83.5305C85.9571 83.5305 85 84.4867 85 85.6663Z" fill="#6D4DF2"/>
<path d="M85 106.555C85 107.735 85.9571 108.691 87.1377 108.691C88.3184 108.691 89.2755 107.735 89.2755 106.555C89.2755 105.376 88.3184 104.42 87.1377 104.42C85.9571 104.42 85 105.376 85 106.555Z" fill="#6D4DF2"/>
<path d="M85 127.445C85 128.624 85.9571 129.58 87.1377 129.58C88.3184 129.58 89.2755 128.624 89.2755 127.445C89.2755 126.265 88.3184 125.309 87.1377 125.309C85.9571 125.309 85 126.265 85 127.445Z" fill="#6D4DF2"/>
<path d="M85 148.334C85 149.513 85.9571 150.469 87.1377 150.469C88.3184 150.469 89.2755 149.513 89.2755 148.334C89.2755 147.154 88.3184 146.198 87.1377 146.198C85.9571 146.198 85 147.154 85 148.334Z" fill="#6D4DF2"/>
<path d="M62.7245 2.1358C62.7245 3.31537 63.6816 4.2716 64.8623 4.2716C66.0429 4.2716 67 3.31537 67 2.1358C67 0.956232 66.0429 2.79338e-06 64.8623 2.74178e-06C63.6816 2.69017e-06 62.7245 0.956231 62.7245 2.1358Z" fill="#6D4DF2"/>
<path d="M62.7245 23.0249C62.7245 24.2045 63.6816 25.1607 64.8623 25.1607C66.0429 25.1607 67 24.2045 67 23.0249C67 21.8454 66.0429 20.8891 64.8623 20.8891C63.6816 20.8891 62.7245 21.8454 62.7245 23.0249Z" fill="#6D4DF2"/>
<path d="M62.7245 43.9141C62.7245 45.0936 63.6816 46.0499 64.8623 46.0499C66.0429 46.0499 67 45.0936 67 43.9141C67 42.7345 66.0429 41.7783 64.8623 41.7783C63.6816 41.7783 62.7245 42.7345 62.7245 43.9141Z" fill="#6D4DF2"/>
<path d="M62.7245 64.8032C62.7245 65.9828 63.6816 66.939 64.8623 66.939C66.0429 66.939 67 65.9828 67 64.8032C67 63.6236 66.0429 62.6674 64.8623 62.6674C63.6816 62.6674 62.7245 63.6236 62.7245 64.8032Z" fill="#6D4DF2"/>
<path d="M62.7245 85.6663C62.7245 86.8459 63.6816 87.8021 64.8623 87.8021C66.0429 87.8021 67 86.8459 67 85.6663C67 84.4867 66.0429 83.5305 64.8623 83.5305C63.6816 83.5305 62.7245 84.4867 62.7245 85.6663Z" fill="#6D4DF2"/>
<path d="M62.7245 106.555C62.7245 107.735 63.6816 108.691 64.8623 108.691C66.0429 108.691 67 107.735 67 106.555C67 105.376 66.0429 104.42 64.8623 104.42C63.6816 104.42 62.7245 105.376 62.7245 106.555Z" fill="#6D4DF2"/>
<path d="M62.7245 127.445C62.7245 128.624 63.6816 129.58 64.8623 129.58C66.0429 129.58 67 128.624 67 127.445C67 126.265 66.0429 125.309 64.8623 125.309C63.6816 125.309 62.7245 126.265 62.7245 127.445Z" fill="#6D4DF2"/>
<path d="M62.7245 148.334C62.7245 149.513 63.6816 150.469 64.8623 150.469C66.0429 150.469 67 149.513 67 148.334C67 147.154 66.0429 146.198 64.8623 146.198C63.6816 146.198 62.7245 147.154 62.7245 148.334Z" fill="#6D4DF2"/>
<path d="M41.8163 2.1358C41.8163 3.31537 42.7734 4.2716 43.9541 4.2716C45.1347 4.2716 46.0918 3.31537 46.0918 2.1358C46.0918 0.956231 45.1347 1.87946e-06 43.9541 1.82785e-06C42.7734 1.77624e-06 41.8163 0.95623 41.8163 2.1358Z" fill="#6D4DF2"/>
<path d="M41.8163 23.0249C41.8163 24.2045 42.7734 25.1607 43.9541 25.1607C45.1347 25.1607 46.0918 24.2045 46.0918 23.0249C46.0918 21.8454 45.1347 20.8891 43.9541 20.8891C42.7734 20.8891 41.8163 21.8454 41.8163 23.0249Z" fill="#6D4DF2"/>
<path d="M41.8163 43.9141C41.8163 45.0936 42.7734 46.0499 43.9541 46.0499C45.1347 46.0499 46.0918 45.0936 46.0918 43.9141C46.0918 42.7345 45.1347 41.7783 43.9541 41.7783C42.7734 41.7783 41.8163 42.7345 41.8163 43.9141Z" fill="#6D4DF2"/>
<path d="M41.8163 64.8032C41.8163 65.9828 42.7734 66.939 43.9541 66.939C45.1347 66.939 46.0918 65.9828 46.0918 64.8032C46.0918 63.6236 45.1347 62.6674 43.9541 62.6674C42.7734 62.6674 41.8163 63.6236 41.8163 64.8032Z" fill="#6D4DF2"/>
<path d="M41.8163 85.6663C41.8163 86.8459 42.7734 87.8021 43.9541 87.8021C45.1347 87.8021 46.0918 86.8459 46.0918 85.6663C46.0918 84.4867 45.1347 83.5305 43.9541 83.5305C42.7734 83.5305 41.8163 84.4867 41.8163 85.6663Z" fill="#6D4DF2"/>
<path d="M41.8163 106.555C41.8163 107.735 42.7734 108.691 43.9541 108.691C45.1347 108.691 46.0918 107.735 46.0918 106.555C46.0918 105.376 45.1347 104.42 43.9541 104.42C42.7734 104.42 41.8163 105.376 41.8163 106.555Z" fill="#6D4DF2"/>
<path d="M41.8163 127.445C41.8163 128.624 42.7734 129.58 43.9541 129.58C45.1347 129.58 46.0918 128.624 46.0918 127.445C46.0918 126.265 45.1347 125.309 43.9541 125.309C42.7734 125.309 41.8163 126.265 41.8163 127.445Z" fill="#6D4DF2"/>
<path d="M41.8163 148.334C41.8163 149.513 42.7734 150.469 43.9541 150.469C45.1347 150.469 46.0918 149.513 46.0918 148.334C46.0918 147.154 45.1347 146.198 43.9541 146.198C42.7734 146.198 41.8163 147.154 41.8163 148.334Z" fill="#6D4DF2"/>
<path d="M20.9082 2.1358C20.9082 3.31537 21.8653 4.27159 23.0459 4.27159C24.2266 4.27159 25.1837 3.31537 25.1837 2.1358C25.1837 0.95623 24.2266 9.65532e-07 23.0459 9.13925e-07C21.8653 8.62317e-07 20.9082 0.956229 20.9082 2.1358Z" fill="#6D4DF2"/>
<path d="M20.9082 23.0249C20.9082 24.2045 21.8653 25.1607 23.0459 25.1607C24.2266 25.1607 25.1837 24.2045 25.1837 23.0249C25.1837 21.8454 24.2266 20.8891 23.0459 20.8891C21.8653 20.8891 20.9082 21.8454 20.9082 23.0249Z" fill="#6D4DF2"/>
<path d="M20.9082 43.9141C20.9082 45.0936 21.8653 46.0499 23.0459 46.0499C24.2266 46.0499 25.1837 45.0936 25.1837 43.9141C25.1837 42.7345 24.2266 41.7783 23.0459 41.7783C21.8653 41.7783 20.9082 42.7345 20.9082 43.9141Z" fill="#6D4DF2"/>
<path d="M20.9082 64.8032C20.9082 65.9828 21.8653 66.939 23.0459 66.939C24.2266 66.939 25.1837 65.9828 25.1837 64.8032C25.1837 63.6236 24.2266 62.6674 23.0459 62.6674C21.8653 62.6674 20.9082 63.6236 20.9082 64.8032Z" fill="#6D4DF2"/>
<path d="M20.9082 85.6663C20.9082 86.8459 21.8653 87.8021 23.0459 87.8021C24.2266 87.8021 25.1837 86.8459 25.1837 85.6663C25.1837 84.4867 24.2266 83.5305 23.0459 83.5305C21.8653 83.5305 20.9082 84.4867 20.9082 85.6663Z" fill="#6D4DF2"/>
<path d="M20.9082 106.555C20.9082 107.735 21.8653 108.691 23.0459 108.691C24.2266 108.691 25.1837 107.735 25.1837 106.555C25.1837 105.376 24.2266 104.42 23.0459 104.42C21.8653 104.42 20.9082 105.376 20.9082 106.555Z" fill="#6D4DF2"/>
<path d="M20.9082 127.445C20.9082 128.624 21.8653 129.58 23.0459 129.58C24.2266 129.58 25.1837 128.624 25.1837 127.445C25.1837 126.265 24.2266 125.309 23.0459 125.309C21.8653 125.309 20.9082 126.265 20.9082 127.445Z" fill="#6D4DF2"/>
<path d="M20.9082 148.334C20.9082 149.513 21.8653 150.469 23.0459 150.469C24.2266 150.469 25.1837 149.513 25.1837 148.334C25.1837 147.154 24.2266 146.198 23.0459 146.198C21.8653 146.198 20.9082 147.154 20.9082 148.334Z" fill="#6D4DF2"/>
<path d="M6.39051e-06 2.1358C6.33895e-06 3.31536 0.957106 4.27159 2.13775 4.27159C3.31839 4.27159 4.27549 3.31536 4.27549 2.1358C4.27549 0.956229 3.31839 5.16075e-08 2.13775 0C0.957106 -5.16075e-08 6.44207e-06 0.956229 6.39051e-06 2.1358Z" fill="#6D4DF2"/>
<path d="M5.47742e-06 23.0249C5.42586e-06 24.2045 0.957105 25.1607 2.13775 25.1607C3.31839 25.1607 4.27549 24.2045 4.27549 23.0249C4.27549 21.8454 3.31839 20.8891 2.13775 20.8891C0.957105 20.8891 5.52898e-06 21.8454 5.47742e-06 23.0249Z" fill="#6D4DF2"/>
<path d="M4.56433e-06 43.9141C4.51277e-06 45.0936 0.957104 46.0499 2.13775 46.0499C3.31839 46.0499 4.27549 45.0936 4.27549 43.9141C4.27549 42.7345 3.31839 41.7783 2.13775 41.7783C0.957104 41.7783 4.61589e-06 42.7345 4.56433e-06 43.9141Z" fill="#6D4DF2"/>
<path d="M3.65123e-06 64.8032C3.59967e-06 65.9828 0.957103 66.939 2.13775 66.939C3.31839 66.939 4.27549 65.9828 4.27549 64.8032C4.27549 63.6236 3.31839 62.6674 2.13775 62.6674C0.957103 62.6674 3.70279e-06 63.6236 3.65123e-06 64.8032Z" fill="#6D4DF2"/>
<path d="M2.73928e-06 85.6663C2.68772e-06 86.8459 0.957102 87.8021 2.13774 87.8021C3.31839 87.8021 4.27549 86.8459 4.27549 85.6663C4.27549 84.4867 3.31839 83.5305 2.13775 83.5305C0.957102 83.5305 2.79084e-06 84.4867 2.73928e-06 85.6663Z" fill="#6D4DF2"/>
<path d="M1.82619e-06 106.555C1.77462e-06 107.735 0.957101 108.691 2.13774 108.691C3.31839 108.691 4.27549 107.735 4.27549 106.555C4.27549 105.376 3.31839 104.42 2.13774 104.42C0.957101 104.42 1.87775e-06 105.376 1.82619e-06 106.555Z" fill="#6D4DF2"/>
<path d="M9.13093e-07 127.445C8.61532e-07 128.624 0.9571 129.58 2.13774 129.58C3.31839 129.58 4.27549 128.624 4.27549 127.445C4.27549 126.265 3.31839 125.309 2.13774 125.309C0.957101 125.309 9.64653e-07 126.265 9.13093e-07 127.445Z" fill="#6D4DF2"/>
<path d="M0 148.334C-5.15606e-08 149.513 0.957099 150.469 2.13774 150.469C3.31839 150.469 4.27548 149.513 4.27548 148.334C4.27548 147.154 3.31839 146.198 2.13774 146.198C0.9571 146.198 5.15606e-08 147.154 0 148.334Z" fill="#6D4DF2"/>
</svg>
