<svg width="66" height="66" viewBox="0 0 66 66" fill="none" xmlns="http://www.w3.org/2000/svg">
<g clip-path="url(#clip0_482_11376)">
<path d="M28.7982 47.0857L22.376 43.2122C22.2759 43.1533 22.1909 43.0721 22.1276 42.9748C20.1449 39.8363 23.4319 34.2006 23.8131 33.5687L33.8843 16.8707C36.0074 13.3507 43.6679 11.3855 45.3422 12.3953C47.0165 13.4052 48.852 21.0978 46.7289 24.6178L45.5668 26.5445C45.4641 26.7149 45.2979 26.8374 45.1048 26.8852C44.9117 26.933 44.7075 26.9021 44.5372 26.7994C44.3669 26.6967 44.2443 26.5305 44.1965 26.3374C44.1487 26.1443 44.1796 25.9401 44.2823 25.7698L45.4444 23.8431C47.2173 20.9037 45.418 14.2707 44.5675 13.6798C43.6512 13.2051 36.9417 14.706 35.1688 17.6455L25.0975 34.3434C24.2151 35.8064 22.2291 39.9705 23.3144 42.0265L29.4092 45.7025C31.7398 45.7068 34.4908 42.004 35.3732 40.5411L42.7329 28.3387C42.8357 28.1684 43.0018 28.0459 43.1949 27.9981C43.388 27.9503 43.5922 27.9811 43.7625 28.0839C43.9328 28.1866 44.0554 28.3528 44.1032 28.5459C44.151 28.7389 44.1201 28.9431 44.0174 29.1134L36.6576 41.3158C36.2765 41.9477 32.8251 47.4842 29.1241 47.1946C29.0085 47.184 28.897 47.1467 28.7982 47.0857Z" fill="white"/>
<path d="M31.3971 35.5156C30.7572 35.1297 30.2234 34.5906 29.844 33.9468C29.4645 33.3031 29.2514 32.575 29.2237 31.8282C29.1961 31.0815 29.3548 30.3396 29.6857 29.6696C30.0165 28.9996 30.509 28.4225 31.1186 27.9904C31.1988 27.9298 31.2902 27.886 31.3876 27.8615C31.485 27.837 31.5863 27.8322 31.6856 27.8476C31.7848 27.863 31.88 27.8981 31.9654 27.951C32.0508 28.0038 32.1247 28.0733 32.1828 28.1552C32.2408 28.2372 32.2818 28.33 32.3033 28.4281C32.3249 28.5262 32.3265 28.6276 32.3081 28.7263C32.2896 28.825 32.2516 28.9191 32.1961 29.0028C32.1407 29.0865 32.069 29.1583 31.9853 29.2138C31.4152 29.6179 31.004 30.2084 30.8227 30.8833C30.6415 31.5583 30.7015 32.2753 30.9925 32.9107C31.2836 33.546 31.7873 34.0599 32.4167 34.3635C33.0461 34.6671 33.7618 34.7414 34.4402 34.5737C35.1187 34.4059 35.7172 34.0065 36.1326 33.4446C36.548 32.8826 36.7541 32.1932 36.7155 31.4954C36.6768 30.7976 36.3958 30.1353 35.9208 29.6226C35.4459 29.1099 34.8069 28.7792 34.1141 28.6874C33.9177 28.6604 33.74 28.5568 33.6198 28.3992C33.4996 28.2416 33.4466 28.0428 33.4726 27.8462C33.4985 27.6497 33.6012 27.4714 33.7582 27.3504C33.9152 27.2294 34.1137 27.1754 34.3103 27.2003C34.9734 27.288 35.6085 27.5225 36.1696 27.8866C36.7306 28.2507 37.2034 28.7352 37.5536 29.305C37.9039 29.8748 38.1227 30.5155 38.1941 31.1805C38.2656 31.8455 38.1879 32.5181 37.9668 33.1493C37.7457 33.7805 37.3866 34.3545 36.9157 34.8294C36.4449 35.3044 35.8741 35.6685 35.2448 35.8951C34.6156 36.1218 33.9437 36.2053 33.2781 36.1396C32.6125 36.074 31.9699 35.8608 31.3971 35.5156Z" fill="white"/>
<path d="M39.145 22.671C35.0726 20.2148 34.2209 16.9351 34.1865 16.7961L35.639 16.4311C35.6469 16.4586 36.4067 19.2677 39.9197 21.3865C43.4327 23.5054 46.27 22.8658 46.2999 22.8611L46.6566 24.3173C46.5157 24.3506 43.2174 25.1272 39.145 22.671Z" fill="white"/>
<path d="M27.6365 49.0124L21.2142 45.1389C21.0439 45.0361 20.9214 44.8699 20.8736 44.6769C20.8258 44.4838 20.8566 44.2796 20.9594 44.1093L22.1214 42.1826C22.2242 42.0123 22.3904 41.8897 22.5834 41.8419C22.7765 41.7941 22.9807 41.825 23.151 41.9277L29.5733 45.8013C29.7436 45.904 29.8662 46.0702 29.914 46.2633C29.9618 46.4564 29.9309 46.6605 29.8282 46.8309L28.6661 48.7575C28.5634 48.9279 28.3972 49.0504 28.2041 49.0982C28.011 49.146 27.8068 49.1151 27.6365 49.0124ZM22.6312 44.2418L27.769 47.3406L28.1564 46.6984L23.0185 43.5995L22.6312 44.2418Z" fill="white"/>
<path d="M37.4127 48.7777L32.2748 45.6789L33.0496 44.3944L37.5452 47.1059L38.3199 45.8215C43.0069 38.0505 39.7614 34.4105 39.7286 34.375L40.825 33.3529C40.9935 33.5324 44.8723 37.8619 39.6043 46.5962L38.4423 48.5228C38.3395 48.6932 38.1733 48.8157 37.9802 48.8635C37.7872 48.9113 37.583 48.8805 37.4127 48.7777Z" fill="white"/>
<path d="M21.9992 39.4812L16.8614 36.3824C16.6911 36.2796 16.5685 36.1134 16.5207 35.9204C16.4729 35.7273 16.5038 35.5231 16.6065 35.3528L17.7686 33.4261C23.0366 24.6918 28.6756 26.103 28.913 26.1682L28.5205 27.6148L28.7167 26.8915L28.527 27.617C28.3314 27.5682 23.6955 26.5037 19.0531 34.2008L18.2783 35.4853L22.7739 38.1968L21.9992 39.4812Z" fill="white"/>
<path d="M17.0954 46.1584C16.9251 46.0556 16.8026 45.8894 16.7548 45.6963C16.707 45.5033 16.7378 45.2991 16.8406 45.1288C17.3551 44.2781 18.186 43.6661 19.151 43.4272C20.1161 43.1883 21.1365 43.342 21.9885 43.8544C22.1588 43.9571 22.2814 44.1233 22.3292 44.3164C22.377 44.5095 22.3461 44.7137 22.2434 44.884C22.1406 45.0543 21.9744 45.1769 21.7813 45.2247C21.5883 45.2725 21.3841 45.2416 21.2138 45.1389C20.7028 44.8307 20.0903 44.7381 19.511 44.8815C18.9318 45.0249 18.4332 45.3925 18.125 45.9035C18.0223 46.0738 17.8561 46.1964 17.663 46.2442C17.4699 46.2919 17.2658 46.2611 17.0954 46.1584Z" fill="white"/>
<path d="M17.9992 44.9514C17.8865 44.8834 17.7936 44.7869 17.73 44.6717C17.6664 44.5564 17.6342 44.4264 17.6367 44.2948C17.6477 43.6365 17.4859 42.9868 17.1674 42.4105C16.849 41.8342 16.385 41.3514 15.8217 41.0105C15.2746 40.6809 14.6478 40.5071 14.0092 40.5078C13.3705 40.5084 12.7441 40.6836 12.1977 41.0143C12.1113 41.0668 12.0151 41.1014 11.915 41.1158C11.8148 41.1302 11.7128 41.1242 11.6151 41.0981C11.5174 41.0721 11.4259 41.0265 11.3462 40.9642C11.2665 40.9019 11.2003 40.8241 11.1514 40.7356C11.1026 40.647 11.0721 40.5495 11.062 40.4488C11.0518 40.3482 11.0621 40.2465 11.0922 40.15C11.1224 40.0534 11.1717 39.9639 11.2373 39.8869C11.3029 39.81 11.3834 39.747 11.474 39.702C12.251 39.2447 13.137 39.0056 14.0385 39.0098C14.94 39.0141 15.8237 39.2615 16.5964 39.726C17.3843 40.2034 18.0333 40.8791 18.4787 41.6855C18.924 42.492 19.1501 43.4012 19.1345 44.3223C19.132 44.4538 19.095 44.5822 19.0271 44.6949C18.9593 44.8075 18.8631 44.9003 18.7481 44.964C18.6331 45.0277 18.5034 45.0601 18.372 45.0579C18.2405 45.0557 18.112 45.0189 17.9992 44.9514Z" fill="white"/>
<path d="M8.34931 46.1382C7.49766 45.6245 6.88495 44.7936 6.64596 43.8282C6.40697 42.8627 6.56128 41.8419 7.07495 40.9903C7.58861 40.1386 8.41955 39.5259 9.38497 39.2869C10.3504 39.0479 11.3712 39.2023 12.2229 39.7159C12.3932 39.8187 12.5157 39.9848 12.5635 40.1779C12.6113 40.371 12.5805 40.5752 12.4777 40.7455C12.375 40.9158 12.2088 41.0384 12.0157 41.0862C11.8226 41.134 11.6185 41.1031 11.4481 41.0004C10.9372 40.6922 10.3247 40.5996 9.74542 40.743C9.16616 40.8864 8.6676 41.254 8.3594 41.765C8.0512 42.276 7.95862 42.8885 8.10201 43.4677C8.2454 44.047 8.61303 44.5455 9.12402 44.8537C9.29435 44.9565 9.41689 45.1227 9.46469 45.3157C9.51249 45.5088 9.48162 45.713 9.37889 45.8833C9.27616 46.0537 9.10997 46.1762 8.91689 46.224C8.7238 46.2718 8.51964 46.2409 8.34931 46.1382Z" fill="white"/>
<path d="M28.1879 53.7246C28.0898 53.6656 28.0065 53.5849 27.9444 53.4887C27.8822 53.3926 27.8429 53.2834 27.8295 53.1697C27.8161 53.056 27.8288 52.9408 27.8669 52.8328C27.9049 52.7248 27.9671 52.6269 28.0488 52.5467C28.2942 52.3063 28.4813 52.013 28.5957 51.6891C28.7102 51.3653 28.749 51.0195 28.7092 50.6783C28.6693 50.3372 28.5519 50.0096 28.3659 49.7209C28.1799 49.4321 27.9302 49.1898 27.6361 49.0124C27.4657 48.9097 27.3432 48.7435 27.2954 48.5504C27.2476 48.3573 27.2785 48.1532 27.3812 47.9828C27.4839 47.8125 27.6501 47.69 27.8432 47.6422C28.0363 47.5944 28.2405 47.6252 28.4108 47.728C29.2615 48.2425 29.8734 49.0734 30.1123 50.0384C30.3512 51.0035 30.1976 52.0239 29.6851 52.8759C29.5219 53.1464 29.3255 53.3954 29.1005 53.6172C28.9818 53.7338 28.8278 53.8076 28.6626 53.827C28.4974 53.8464 28.3304 53.8104 28.1879 53.7246Z" fill="white"/>
<path d="M35.8528 55.7198C35.74 55.6519 35.6472 55.5554 35.5835 55.4401C35.5199 55.3249 35.4877 55.1949 35.4903 55.0633C35.5279 54.4258 35.3907 53.7902 35.0934 53.225C34.7962 52.6599 34.3502 52.1866 33.8037 51.8564C33.2394 51.5176 32.5961 51.3326 31.9381 51.3199C31.28 51.3072 30.6301 51.4672 30.0532 51.7839C29.9667 51.8365 29.8705 51.871 29.7704 51.8854C29.6703 51.8998 29.5683 51.8938 29.4706 51.8677C29.3728 51.8417 29.2814 51.7962 29.2017 51.7339C29.122 51.6715 29.0557 51.5938 29.0069 51.5052C28.958 51.4166 28.9276 51.3191 28.9174 51.2184C28.9073 51.1178 28.9176 51.0161 28.9477 50.9196C28.9778 50.823 29.0272 50.7336 29.0928 50.6566C29.1584 50.5796 29.2389 50.5167 29.3295 50.4716C30.1367 50.0279 31.0463 49.8036 31.9673 49.8212C32.8883 49.8388 33.7887 50.0977 34.5784 50.5719C35.3497 51.0387 35.9808 51.7049 36.4051 52.5003C36.8295 53.2958 37.0313 54.191 36.9893 55.0916C36.9868 55.2231 36.9497 55.3517 36.8818 55.4644C36.8138 55.5771 36.7175 55.6699 36.6023 55.7336C36.4871 55.7973 36.3572 55.8295 36.2257 55.8271C36.0941 55.8247 35.9655 55.7877 35.8528 55.7198Z" fill="white"/>
<path d="M32.754 60.8577C32.5837 60.7549 32.4612 60.5887 32.4134 60.3957C32.3656 60.2026 32.3964 59.9984 32.4992 59.8281C32.6019 59.6578 32.7681 59.5352 32.9612 59.4874C33.1542 59.4396 33.3584 59.4705 33.5287 59.5732C34.0397 59.8814 34.6522 59.974 35.2315 59.8306C35.8107 59.6872 36.3093 59.3196 36.6175 58.8086C36.9257 58.2976 37.0183 57.6851 36.8749 57.1059C36.7315 56.5266 36.3639 56.028 35.8529 55.7198C35.6825 55.6171 35.56 55.4509 35.5122 55.2578C35.4644 55.0648 35.4953 54.8606 35.598 54.6903C35.7007 54.5199 35.8669 54.3974 36.06 54.3496C36.2531 54.3018 36.4572 54.3327 36.6276 54.4354C37.4792 54.9491 38.0919 55.78 38.3309 56.7454C38.5699 57.7108 38.4156 58.7317 37.9019 59.5833C37.3883 60.4349 36.5573 61.0477 35.5919 61.2867C34.6265 61.5256 33.6057 61.3713 32.754 60.8577Z" fill="white"/>
<path d="M11.5707 43.7018C11.4004 43.599 11.2778 43.4328 11.23 43.2398C11.1822 43.0467 11.2131 42.8425 11.3158 42.6722C11.7267 41.9909 12.3915 41.5007 13.1638 41.3095C13.9362 41.1183 14.7528 41.2418 15.4341 41.6527C15.6045 41.7554 15.727 41.9216 15.7748 42.1147C15.8226 42.3078 15.7918 42.5119 15.689 42.6823C15.5863 42.8526 15.4201 42.9751 15.227 43.0229C15.0339 43.0707 14.8298 43.0399 14.6594 42.9371C14.3188 42.7317 13.9105 42.67 13.5243 42.7656C13.1381 42.8611 12.8057 43.1062 12.6003 43.4469C12.4975 43.6172 12.3313 43.7398 12.1383 43.7876C11.9452 43.8354 11.741 43.8045 11.5707 43.7018Z" fill="white"/>
<path d="M32.764 56.4845C32.5937 56.3817 32.4711 56.2155 32.4233 56.0224C32.3755 55.8294 32.4064 55.6252 32.5091 55.4549C32.6118 55.2845 32.6427 55.0804 32.5949 54.8873C32.5471 54.6942 32.4246 54.528 32.2542 54.4253C32.0839 54.3226 31.9614 54.1564 31.9136 53.9633C31.8658 53.7702 31.8966 53.566 31.9994 53.3957C32.1021 53.2254 32.2683 53.1028 32.4614 53.055C32.6545 53.0072 32.8586 53.0381 33.0289 53.1408C33.5399 53.449 33.9076 53.9476 34.051 54.5268C34.1943 55.1061 34.1018 55.7186 33.7936 56.2296C33.6908 56.3999 33.5246 56.5225 33.3316 56.5703C33.1385 56.618 32.9343 56.5872 32.764 56.4845Z" fill="white"/>
<path d="M37.812 63.9081C37.7138 63.8491 37.6305 63.7684 37.5684 63.6723C37.5062 63.5761 37.467 63.467 37.4535 63.3533C37.4401 63.2396 37.4529 63.1243 37.4909 63.0163C37.5289 62.9083 37.5911 62.8104 37.6728 62.7302C37.9182 62.4899 38.1053 62.1965 38.2198 61.8727C38.3342 61.5488 38.373 61.203 38.3332 60.8619C38.2933 60.5207 38.1759 60.1932 37.9899 59.9044C37.8039 59.6156 37.5543 59.3733 37.2601 59.1959C37.0898 59.0932 36.9672 58.927 36.9194 58.7339C36.8716 58.5409 36.9025 58.3367 37.0052 58.1664C37.108 57.996 37.2741 57.8735 37.4672 57.8257C37.6603 57.7779 37.8645 57.8088 38.0348 57.9115C38.8855 58.426 39.4974 59.2569 39.7363 60.222C39.9753 61.187 39.8216 62.2075 39.3092 63.0594C39.1459 63.3299 38.9495 63.5789 38.7245 63.8007C38.6059 63.9173 38.4518 63.9911 38.2866 64.0105C38.1214 64.03 37.9544 63.9939 37.812 63.9081Z" fill="white"/>
<path d="M3.2913 43.0878C3.1489 43.0018 3.03913 42.8709 2.97925 42.7157C2.91937 42.5605 2.91279 42.3898 2.96052 42.2305C3.05176 41.928 3.18041 41.6381 3.3435 41.3675C3.858 40.5168 4.68891 39.9049 5.65397 39.666C6.61904 39.4271 7.63946 39.5807 8.49141 40.0932C8.66174 40.1959 8.78428 40.3621 8.83208 40.5552C8.87988 40.7483 8.84902 40.9524 8.74628 41.1228C8.64355 41.2931 8.47736 41.4156 8.28428 41.4634C8.09119 41.5112 7.88703 41.4804 7.7167 41.3776C7.42258 41.2008 7.09191 41.0937 6.75 41.0643C6.40808 41.0349 6.06398 41.0842 5.74403 41.2083C5.42407 41.3323 5.13673 41.5279 4.904 41.7801C4.67127 42.0323 4.49931 42.3344 4.40127 42.6633C4.37299 42.7578 4.32636 42.8457 4.26405 42.9221C4.20174 42.9985 4.12497 43.0619 4.03814 43.1086C3.95131 43.1553 3.85612 43.1845 3.75802 43.1944C3.65992 43.2042 3.56084 43.1947 3.46643 43.1663C3.40498 43.1476 3.34614 43.1212 3.2913 43.0878Z" fill="white"/>
<path d="M20.5515 53.4979C20.3812 53.3952 20.2586 53.229 20.2108 53.0359C20.163 52.8428 20.1939 52.6387 20.2966 52.4683L21.846 49.8994C21.9488 49.7291 22.115 49.6066 22.308 49.5588C22.5011 49.511 22.7053 49.5418 22.8756 49.6446C23.046 49.7473 23.1685 49.9135 23.2163 50.1066C23.2641 50.2996 23.2332 50.5038 23.1305 50.6741L21.5811 53.243C21.4783 53.4134 21.3122 53.5359 21.1191 53.5837C20.926 53.6315 20.7218 53.6007 20.5515 53.4979Z" fill="white"/>
<path d="M23.8952 53.7629C23.7249 53.6601 23.6024 53.494 23.5546 53.3009C23.5068 53.1078 23.5376 52.9036 23.6404 52.7333L25.1898 50.1644C25.2925 49.9941 25.4587 49.8715 25.6518 49.8237C25.8449 49.7759 26.049 49.8068 26.2194 49.9095C26.3897 50.0122 26.5122 50.1784 26.56 50.3715C26.6078 50.5646 26.577 50.7688 26.4742 50.9391L24.9248 53.508C24.8221 53.6783 24.6559 53.8009 24.4628 53.8487C24.2697 53.8965 24.0656 53.8656 23.8952 53.7629Z" fill="white"/>
<path d="M18.7576 50.664C18.5872 50.5613 18.4647 50.3951 18.4169 50.202C18.3691 50.0089 18.3999 49.8048 18.5027 49.6344L20.0521 47.0655C20.1548 46.8952 20.321 46.7727 20.5141 46.7249C20.7072 46.6771 20.9114 46.7079 21.0817 46.8107C21.252 46.9134 21.3746 47.0796 21.4224 47.2727C21.4701 47.4658 21.4393 47.6699 21.3366 47.8402L19.7871 50.4092C19.6844 50.5795 19.5182 50.702 19.3251 50.7498C19.132 50.7976 18.9279 50.7668 18.7576 50.664Z" fill="white"/>
</g>
<defs>
<clipPath id="clip0_482_11376">
<rect width="48" height="48" fill="white" transform="translate(24.791) rotate(31.096)"/>
</clipPath>
</defs>
</svg>
