<svg width="16" height="16" viewBox="0 0 16 16" fill="none" xmlns="http://www.w3.org/2000/svg">
<path fill-rule="evenodd" clip-rule="evenodd" d="M8.00297 1.00391C11.8683 1.00391 15.003 4.13861 15.003 8.00395C15.003 11.8693 11.8683 15.004 8.00297 15.004C4.13764 15.004 1.00293 11.8693 1.00293 8.00395C1.00293 4.13861 4.13764 1.00391 8.00297 1.00391ZM6.54933 10.2776L4.83554 8.56242C4.54358 8.27027 4.54351 7.79387 4.83554 7.50179C5.12763 7.20976 5.60615 7.21159 5.89612 7.50179L7.10433 8.71094L10.1099 5.70533C10.402 5.41324 10.8785 5.41324 11.1705 5.70533C11.4626 5.99736 11.4622 6.47423 11.1705 6.76591L7.63376 10.3027C7.34208 10.5943 6.86521 10.5947 6.57318 10.3027C6.56498 10.2945 6.55706 10.2861 6.54933 10.2776Z" fill="#9CA3AF"/>
</svg>
