<svg width="134" height="58" viewBox="0 0 134 58" fill="none" xmlns="http://www.w3.org/2000/svg">
<rect width="19.0352" height="19.0352" transform="translate(0 0.561218)" fill="#219653"/>
<path d="M9.51777 13.5776L12.4127 12.8024L13.6222 16.7411L9.51777 13.5776ZM16.1801 8.48656H11.0842L9.51777 3.4165L7.95134 8.48656H2.85547L6.97976 11.6292L5.41332 16.6992L9.5376 13.5566L12.0756 11.6292L16.1801 8.48656Z" fill="white"/>
<rect width="19.0352" height="19.0352" transform="translate(20.9385 0.561218)" fill="#219653"/>
<path d="M30.4562 13.5776L33.3512 12.8024L34.5607 16.7411L30.4562 13.5776ZM37.1186 8.48656H32.0227L30.4562 3.4165L28.8898 8.48656H23.7939L27.9182 11.6292L26.3518 16.6992L30.4761 13.5566L33.0141 11.6292L37.1186 8.48656Z" fill="white"/>
<rect width="19.0352" height="19.0352" transform="translate(41.8774 0.561218)" fill="#219653"/>
<path d="M51.3952 13.5776L54.2901 12.8024L55.4997 16.7411L51.3952 13.5776ZM58.0575 8.48656H52.9616L51.3952 3.4165L49.8288 8.48656H44.7329L48.8572 11.6292L47.2908 16.6992L51.415 13.5566L53.9531 11.6292L58.0575 8.48656Z" fill="white"/>
<rect width="19.0352" height="19.0352" transform="translate(62.8159 0.561218)" fill="#219653"/>
<path d="M72.3337 13.5776L75.2286 12.8024L76.4381 16.7411L72.3337 13.5776ZM78.996 8.48656H73.9001L72.3337 3.4165L70.7673 8.48656H65.6714L69.7957 11.6292L68.2292 16.6992L72.3535 13.5566L74.8915 11.6292L78.996 8.48656Z" fill="white"/>
<rect width="19.0352" height="19.0352" transform="translate(83.7549 0.561218)" fill="url(#paint0_linear_192_5352)"/>
<path d="M93.2727 13.5776L96.1676 12.8024L97.3771 16.7411L93.2727 13.5776ZM99.935 8.48656H94.8391L93.2727 3.4165L91.7062 8.48656H86.6104L90.7346 11.6292L89.1682 16.6992L93.2925 13.5566L95.8305 11.6292L99.935 8.48656Z" fill="white"/>
<path d="M11.06 46.7576L15.8659 45.5443L17.8738 51.7092L11.06 46.7576ZM22.12 38.789H13.6604L11.06 30.8532L8.4596 38.789H0L6.84668 43.7079L4.24625 51.6437L11.0929 46.7248L15.3063 43.7079L22.12 38.789Z" fill="#219653"/>
<path d="M23.5172 35.9964V33.5354H35.1131V35.9964H30.6499V48.7812H27.9803V35.9964H23.5172ZM42.0013 38.4366V40.7933H41.0628C39.2274 40.7933 38.0804 41.7736 38.0804 43.7757V48.7812H35.5359V38.4992H37.9344L38.0804 40.0008C38.5183 38.9789 39.4986 38.2906 40.8751 38.2906C41.2296 38.2906 41.5842 38.3323 42.0013 38.4366ZM50.7103 38.4783H53.2548V48.7812H50.898L50.7103 47.4047C50.0846 48.3849 48.7499 49.0523 47.3734 49.0523C44.9958 49.0523 43.5984 47.4464 43.5984 44.9228V38.4783H46.1429V44.026C46.1429 45.9865 46.9145 46.779 48.3327 46.779C49.9386 46.779 50.7103 45.8405 50.7103 43.88V38.4783ZM54.8866 45.6528H57.3059C57.3267 46.5496 57.9941 47.1127 59.1621 47.1127C60.3509 47.1127 60.9974 46.633 60.9974 45.8822C60.9974 45.3608 60.7263 44.9854 59.8086 44.7768L57.9524 44.3389C56.0962 43.9217 55.1994 43.0458 55.1994 41.3982C55.1994 39.3751 56.9096 38.1655 59.2872 38.1655C61.6022 38.1655 63.1664 39.5003 63.1873 41.5024H60.768C60.7471 40.6265 60.1632 40.0634 59.1829 40.0634C58.1818 40.0634 57.5979 40.5222 57.5979 41.2939C57.5979 41.8778 58.0567 42.2533 58.9326 42.4618L60.7888 42.8998C62.5199 43.2961 63.3958 44.0886 63.3958 45.6736C63.3958 47.7592 61.6231 49.0523 59.0786 49.0523C56.5133 49.0523 54.8866 47.6758 54.8866 45.6528ZM68.837 48.7812H66.2925V40.6056H64.3112V38.4783H66.2925V35.2665H68.837V38.4783H70.8392V40.6056H68.837V48.7812ZM72.421 53.5572V38.4783H74.7777L74.9445 40.0425C75.5702 38.8537 76.9259 38.1655 78.4901 38.1655C81.3891 38.1655 83.3078 40.2719 83.3078 43.5046C83.3078 46.7164 81.5559 49.0523 78.4901 49.0523C76.9467 49.0523 75.6119 48.4475 74.9654 47.4047V53.5572H72.421ZM74.9863 43.6297C74.9863 45.4859 76.1333 46.7582 77.8852 46.7582C79.6789 46.7582 80.7425 45.4651 80.7425 43.6297C80.7425 41.7944 79.6789 40.4805 77.8852 40.4805C76.1333 40.4805 74.9863 41.7736 74.9863 43.6297ZM86.606 36.4136C85.73 36.4136 85.0418 35.7253 85.0418 34.8702C85.0418 34.0151 85.73 33.3477 86.606 33.3477C87.4402 33.3477 88.1285 34.0151 88.1285 34.8702C88.1285 35.7253 87.4402 36.4136 86.606 36.4136ZM85.3338 48.7812V38.4783H87.8782V48.7812H85.3338ZM93.0723 48.7812H90.5488V33.2643H93.0723V48.7812ZM95.1366 43.6089C95.1366 40.3971 97.4516 38.1863 100.643 38.1863C103.834 38.1863 106.149 40.3971 106.149 43.6089C106.149 46.8207 103.834 49.0315 100.643 49.0315C97.4516 49.0315 95.1366 46.8207 95.1366 43.6089ZM97.681 43.6089C97.681 45.4859 98.8907 46.7582 100.643 46.7582C102.395 46.7582 103.604 45.4859 103.604 43.6089C103.604 41.7318 102.395 40.4596 100.643 40.4596C98.8907 40.4596 97.681 41.7318 97.681 43.6089ZM111.567 48.7812H109.023V40.6056H107.042V38.4783H109.023V35.2665H111.567V38.4783H113.57V40.6056H111.567V48.7812Z" fill="#111827"/>
<defs>
<linearGradient id="paint0_linear_192_5352" x1="0" y1="9.51758" x2="19.0352" y2="9.51758" gradientUnits="userSpaceOnUse">
<stop offset="1" stop-color="#219653"/>
<stop offset="0.5" stop-color="#219653"/>
<stop offset="0.5001" stop-color="#219653" stop-opacity="0"/>
<stop offset="0.5002" stop-color="#D9D9D9"/>
<stop offset="0.9998" stop-color="#D9D9D9"/>
<stop offset="0.9999" stop-color="#219653" stop-opacity="0"/>
<stop offset="1" stop-color="#D9D9D9"/>
</linearGradient>
</defs>
</svg>
