<svg width="128" height="61" viewBox="0 0 128 61" fill="none" xmlns="http://www.w3.org/2000/svg">
<path d="M10.8881 5.53596C11.4269 3.8776 13.7731 3.87761 14.3119 5.53596L15.0248 7.72989C15.2657 8.47153 15.9568 8.97366 16.7367 8.97366H19.0435C20.7872 8.97366 21.5122 11.205 20.1015 12.2299L18.2352 13.5858C17.6044 14.0442 17.3404 14.8566 17.5813 15.5983L18.2942 17.7922C18.833 19.4506 16.935 20.8296 15.5243 19.8047L13.658 18.4487C13.0271 17.9904 12.1729 17.9904 11.542 18.4487L9.67572 19.8047C8.26504 20.8296 6.36697 19.4506 6.90581 17.7922L7.61866 15.5983C7.85963 14.8566 7.59565 14.0442 6.96477 13.5858L5.0985 12.2299C3.68782 11.205 4.41282 8.97366 6.15652 8.97366H8.46335C9.24316 8.97366 9.93428 8.47153 10.1752 7.72989L10.8881 5.53596Z" fill="#F28833"/>
<path d="M32.4882 5.53596C33.027 3.8776 35.3732 3.87761 35.912 5.53596L36.6249 7.72989C36.8658 8.47153 37.5569 8.97366 38.3368 8.97366H40.6436C42.3873 8.97366 43.1123 11.205 41.7016 12.2299L39.8353 13.5858C39.2045 14.0442 38.9405 14.8566 39.1814 15.5983L39.8943 17.7922C40.4331 19.4506 38.5351 20.8296 37.1244 19.8047L35.2581 18.4487C34.6272 17.9904 33.773 17.9904 33.1421 18.4487L31.2758 19.8047C29.8651 20.8296 27.9671 19.4506 28.5059 17.7922L29.2188 15.5983C29.4597 14.8566 29.1957 14.0442 28.5649 13.5858L26.6986 12.2299C25.2879 11.205 26.0129 8.97366 27.7566 8.97366H30.0634C30.8433 8.97366 31.5344 8.47153 31.7753 7.72989L32.4882 5.53596Z" fill="#F28833"/>
<path d="M54.0883 5.53596C54.6271 3.8776 56.9733 3.87761 57.5121 5.53596L58.2249 7.72989C58.4659 8.47153 59.157 8.97366 59.9368 8.97366H62.2437C63.9874 8.97366 64.7124 11.205 63.3017 12.2299L61.4354 13.5858C60.8045 14.0442 60.5406 14.8566 60.7815 15.5983L61.4944 17.7922C62.0332 19.4506 60.1352 20.8296 58.7245 19.8047L56.8582 18.4487C56.2273 17.9904 55.3731 17.9904 54.7422 18.4487L52.8759 19.8047C51.4652 20.8296 49.5672 19.4506 50.106 17.7922L50.8189 15.5983C51.0598 14.8566 50.7958 14.0442 50.165 13.5858L48.2987 12.2299C46.888 11.205 47.613 8.97366 49.3567 8.97366H51.6635C52.4434 8.97366 53.1345 8.47153 53.3754 7.72989L54.0883 5.53596Z" fill="#F28833"/>
<path d="M75.6879 5.53596C76.2267 3.8776 78.5729 3.87761 79.1117 5.53596L79.8246 7.72989C80.0655 8.47153 80.7567 8.97366 81.5365 8.97366H83.8433C85.587 8.97366 86.312 11.205 84.9013 12.2299L83.035 13.5858C82.4042 14.0442 82.1402 14.8566 82.3811 15.5983L83.094 17.7922C83.6328 19.4506 81.7348 20.8296 80.3241 19.8047L78.4578 18.4487C77.8269 17.9904 76.9727 17.9904 76.3418 18.4487L74.4755 19.8047C73.0648 20.8296 71.1668 19.4506 71.7056 17.7922L72.4185 15.5983C72.6594 14.8566 72.3955 14.0442 71.7646 13.5858L69.8983 12.2299C68.4876 11.205 69.2126 8.97366 70.9563 8.97366H73.2632C74.043 8.97366 74.7341 8.47153 74.9751 7.72989L75.6879 5.53596Z" fill="#F28833"/>
<path d="M97.502 5.60549C97.9735 4.15443 100.026 4.15443 100.498 5.60549L101.211 7.79942C101.482 8.63377 102.259 9.19866 103.137 9.19866H105.443C106.969 9.19866 107.603 11.1511 106.369 12.0479L104.503 13.4038C103.793 13.9194 103.496 14.8335 103.767 15.6678L104.48 17.8617C104.952 19.3128 103.291 20.5194 102.056 19.6226L100.19 18.2667C99.4804 17.7511 98.5194 17.7511 97.8096 18.2667L95.9434 19.6226C94.709 20.5194 93.0482 19.3128 93.5197 17.8617L94.2325 15.6678C94.5036 14.8335 94.2067 13.9194 93.4969 13.4038L91.6307 12.0479C90.3963 11.1511 91.0307 9.19866 92.5564 9.19866H94.8633C95.7405 9.19866 96.518 8.63376 96.7891 7.79942L97.502 5.60549Z" stroke="#F28833" stroke-width="0.45"/>
<mask id="mask0_192_5367" style="mask-type:alpha" maskUnits="userSpaceOnUse" x="86" y="0" width="16" height="26">
<rect x="86.3999" y="0.267273" width="14.85" height="25.2" fill="#D9D9D9"/>
</mask>
<g mask="url(#mask0_192_5367)">
<path d="M97.288 5.53596C97.8268 3.8776 100.173 3.87761 100.712 5.53596L101.425 7.72989C101.666 8.47153 102.357 8.97366 103.137 8.97366H105.443C107.187 8.97366 107.912 11.205 106.501 12.2299L104.635 13.5858C104.004 14.0442 103.74 14.8566 103.981 15.5983L104.694 17.7922C105.233 19.4506 103.335 20.8296 101.924 19.8047L100.058 18.4487C99.427 17.9904 98.5728 17.9904 97.9419 18.4487L96.0756 19.8047C94.6649 20.8296 92.7669 19.4506 93.3057 17.7922L94.0186 15.5983C94.2595 14.8566 93.9955 14.0442 93.3647 13.5858L91.4984 12.2299C90.0877 11.205 90.8127 8.97366 92.5564 8.97366H94.8633C95.6431 8.97366 96.3342 8.47153 96.5752 7.72989L97.288 5.53596Z" fill="#F28833"/>
</g>
<g clip-path="url(#clip0_192_5367)">
<path d="M0.652832 39.0084L10.5661 39.0104L16.594 39.0114V33.0396L0.652832 39.0084Z" fill="#FF9D28"/>
<path d="M16.5942 33.0396V54.1231L24.123 30.2197L16.5942 33.0396Z" fill="#68C5ED"/>
<path d="M16.5943 39.0115L10.5664 39.0104L16.5943 54.1232V39.0115Z" fill="#044D80"/>
<path d="M0.652832 39.0085L12.1119 42.8882L10.5661 39.0105L0.652832 39.0085Z" fill="#E54747"/>
<path d="M37.1712 48.5732C37.0837 48.6606 36.9381 48.7697 36.7345 48.9006C36.5304 49.0318 36.265 49.1627 35.9375 49.2939C35.61 49.4247 35.2094 49.5373 34.7366 49.6323C34.2633 49.7267 33.7213 49.7741 33.1099 49.7741C31.9307 49.7741 30.9116 49.5848 30.0529 49.2065C29.1938 48.8283 28.4842 48.3002 27.924 47.6235C27.3635 46.9465 26.9524 46.1461 26.6904 45.2215C26.4283 44.2972 26.2974 43.282 26.2974 42.1755C26.2974 41.0695 26.4393 40.0467 26.7231 39.1078C27.0069 38.1688 27.4327 37.3576 28.0004 36.6731C28.5681 35.9891 29.2778 35.4541 30.1294 35.0682C30.9809 34.6828 31.9816 34.4896 33.1317 34.4896C33.6994 34.4896 34.2125 34.5407 34.6711 34.6425C35.1296 34.7444 35.5298 34.8646 35.8721 35.0027C36.2139 35.1413 36.4978 35.2865 36.7236 35.4394C36.9491 35.5923 37.1201 35.7199 37.2368 35.8215C37.3678 35.9382 37.4804 36.0764 37.5752 36.2364C37.6697 36.3967 37.7171 36.5714 37.7171 36.7605C37.7171 37.0518 37.6079 37.3428 37.3896 37.6339C37.1713 37.9252 36.9311 38.1945 36.669 38.4418C36.4943 38.2671 36.2978 38.089 36.0795 37.9069C35.8611 37.7249 35.6172 37.565 35.348 37.4265C35.0785 37.2883 34.7728 37.1719 34.4309 37.0771C34.0887 36.9826 33.7067 36.9351 33.2846 36.9351C32.5422 36.9351 31.92 37.0846 31.4177 37.3828C30.9155 37.6813 30.5115 38.0706 30.2059 38.551C29.9002 39.0314 29.6818 39.5809 29.5508 40.1995C29.4198 40.8184 29.3543 41.4479 29.3543 42.0883C29.3543 42.7726 29.4198 43.4276 29.5508 44.0533C29.6818 44.6793 29.9073 45.2326 30.2277 45.7128C30.5477 46.1931 30.9664 46.579 31.4832 46.87C31.9997 47.1614 32.6438 47.3067 33.4156 47.3067C33.8229 47.3067 34.1979 47.2559 34.5401 47.154C34.8819 47.0522 35.1842 46.9283 35.4462 46.7826C35.7082 46.6374 35.9375 46.4846 36.134 46.3243C36.3305 46.1641 36.4943 46.0261 36.6253 45.9093C36.7127 46.0114 36.8143 46.1352 36.931 46.2806C37.0483 46.4275 37.1576 46.5806 37.2585 46.7391C37.3602 46.8995 37.4475 47.0595 37.5205 47.2193C37.5932 47.3798 37.6296 47.5251 37.6296 47.656C37.6296 47.8455 37.5932 48.0055 37.5205 48.1364C37.4475 48.2675 37.3311 48.4132 37.1712 48.5732ZM48.4236 46.8986C48.4236 48.0556 48.5918 48.8976 48.9288 49.4248C48.6653 49.5271 48.4199 49.6005 48.1929 49.6444C47.9657 49.6884 47.7279 49.7102 47.479 49.7102C46.9519 49.7102 46.5527 49.6077 46.2819 49.4028C46.0108 49.1979 45.8388 48.905 45.7657 48.5241C45.4434 48.8613 45.0188 49.1467 44.4917 49.3811C43.9645 49.6149 43.3199 49.7324 42.5586 49.7324C42.1632 49.7324 41.7678 49.6775 41.3724 49.5684C40.9769 49.4584 40.618 49.2799 40.296 49.0321C39.9737 48.7837 39.7102 48.4516 39.5052 48.0355C39.2999 47.6194 39.1976 47.1122 39.1976 46.5138C39.1976 45.7693 39.3769 45.1633 39.7358 44.6964C40.0946 44.229 40.5449 43.8605 41.0869 43.5904C41.6285 43.3205 42.2144 43.1347 42.8442 43.0323C43.4737 42.93 44.0524 42.8645 44.5795 42.835C44.7554 42.8205 44.9273 42.813 45.0958 42.813H45.568V42.4131C45.568 41.8502 45.4177 41.4503 45.1177 41.2136C44.8173 40.9767 44.3303 40.858 43.6569 40.858C43.0271 40.858 42.4669 40.9606 41.9765 41.1654C41.4856 41.3707 41.0061 41.6048 40.5377 41.8684C40.3324 41.6195 40.1676 41.345 40.0434 41.0447C39.9189 40.7447 39.8567 40.5213 39.8567 40.3747C39.8567 40.1698 39.9699 39.9721 40.1972 39.7816C40.4241 39.5915 40.7354 39.4192 41.1308 39.2654C41.5263 39.1116 41.98 38.9874 42.4928 38.892C43.0052 38.7969 43.5471 38.7492 44.1183 38.7492C44.9091 38.7492 45.579 38.8299 46.1282 38.9908C46.6774 39.1522 47.124 39.401 47.4682 39.7376C47.8121 40.0748 48.0575 40.4955 48.204 41.0007C48.3502 41.506 48.4237 42.0957 48.4237 42.769L48.4236 46.8986ZM45.6118 44.3505H45.3044C45.2017 44.3505 45.0991 44.3582 44.9969 44.3726C44.6306 44.4021 44.2681 44.4459 43.9095 44.5042C43.5505 44.563 43.2319 44.6655 42.954 44.8119C42.6756 44.9584 42.4487 45.1489 42.273 45.3829C42.0972 45.6174 42.0094 45.9177 42.0094 46.2837C42.0094 46.6938 42.1264 47.0414 42.3608 47.327C42.5949 47.6126 42.9903 47.7554 43.547 47.7554C43.8251 47.7554 44.0888 47.719 44.3379 47.6454C44.5867 47.5725 44.8063 47.4772 44.9969 47.3601C45.187 47.2429 45.3373 47.1148 45.4472 46.9755C45.557 46.8365 45.6119 46.7085 45.6119 46.5912L45.6118 44.3505ZM53.893 40.0231C54.1264 39.7451 54.4916 39.463 54.9879 39.1774C55.4842 38.8918 56.1119 38.749 56.8711 38.749C57.4114 38.749 57.926 38.8406 58.4152 39.0236C58.9039 39.2069 59.3384 39.5035 59.7179 39.9133C60.0976 40.3234 60.4004 40.8654 60.6269 41.5388C60.8531 42.2126 60.9664 43.0401 60.9664 44.021C60.9664 45.1632 60.8348 46.1044 60.5721 46.8437C60.3091 47.5835 59.97 48.1693 59.5541 48.6012C59.138 49.0332 58.6742 49.3371 58.1636 49.5127C57.6525 49.6884 57.1414 49.7764 56.6307 49.7764C56.2072 49.7764 55.8384 49.7287 55.5249 49.6336C55.2108 49.5382 54.9444 49.4324 54.7255 49.3151C54.5065 49.198 54.3387 49.081 54.222 48.9636C54.1053 48.8465 54.0322 48.7658 54.0031 48.7218V54.1217H51.0155V39.0565C51.089 39.0422 51.1776 39.0274 51.2812 39.0127C51.3698 38.9983 51.4731 38.9872 51.5911 38.9797C51.7091 38.9725 51.8493 38.9687 52.0115 38.9687C52.4983 38.9687 52.9115 39.0494 53.2509 39.2104C53.5902 39.3717 53.8045 39.6425 53.893 40.0231ZM57.847 44.0868C57.847 43.6476 57.8106 43.2378 57.7379 42.8568C57.6651 42.4762 57.545 42.1466 57.3775 41.8683C57.21 41.5903 56.9841 41.3741 56.7003 41.2202C56.416 41.0665 56.0705 40.9897 55.663 40.9897C55.0514 40.9897 54.6255 41.1071 54.3851 41.3411C54.145 41.5755 54.0248 41.832 54.0248 42.11V46.7669C54.1411 46.8843 54.3484 47.0232 54.647 47.1843C54.9457 47.3455 55.2912 47.4258 55.6846 47.4258C56.4273 47.4258 56.9734 47.1332 57.3229 46.5472C57.6724 45.9616 57.847 45.1413 57.847 44.0868ZM63.2721 47.8653C63.1694 47.5725 63.1036 47.2648 63.0744 46.9426C63.0449 46.6206 63.0305 46.2985 63.0305 45.9759V35.7835C63.1328 35.7691 63.2426 35.7544 63.36 35.7396C63.4621 35.7252 63.572 35.7143 63.6894 35.7067C63.8065 35.6995 63.9235 35.6957 64.0408 35.6957C64.2749 35.6957 64.5095 35.7177 64.7438 35.7616C64.9778 35.8056 65.1903 35.8934 65.3809 36.0251C65.5711 36.1569 65.7248 36.3365 65.8421 36.5633C65.9593 36.7905 66.0178 37.0872 66.0178 37.4529V39.0125H69.0933V41.2313H66.0178V45.9156C66.0178 46.9371 66.4352 47.4478 67.27 47.4478C67.475 47.4478 67.6688 47.415 67.8521 47.3489C68.0351 47.2831 68.1998 47.2099 68.3464 47.1294C68.4927 47.0488 68.621 46.9646 68.7308 46.8767C68.8407 46.7888 68.9175 46.723 68.9614 46.6791C69.1811 47.0015 69.3492 47.2805 69.4666 47.516C69.5837 47.7517 69.6423 47.973 69.6423 48.1797C69.6423 48.3721 69.5656 48.5607 69.4117 48.7453C69.2578 48.93 69.0417 49.1003 68.7636 49.2554C68.4854 49.4105 68.1487 49.5361 67.7532 49.6322C67.3579 49.7284 66.9256 49.7765 66.4572 49.7765C65.549 49.7765 64.8425 49.6006 64.3373 49.2493C63.8321 48.8976 63.4768 48.4363 63.2721 47.8653ZM76.6595 47.5796C77.0268 47.5796 77.3501 47.5395 77.6296 47.4588C77.9086 47.3785 78.1584 47.2796 78.3789 47.1624C78.5992 47.0454 78.7905 46.9172 78.9522 46.778C79.1137 46.639 79.2606 46.5109 79.3932 46.3935C79.5693 46.613 79.7529 46.8952 79.9441 47.2391C80.135 47.5835 80.2307 47.8653 80.2307 48.0848C80.2307 48.4071 80.0474 48.7 79.6816 48.9636C79.3741 49.198 78.938 49.3994 78.3746 49.5675C77.8106 49.7358 77.1478 49.8202 76.3866 49.8202C75.6979 49.8202 75.0208 49.7324 74.3547 49.5566C73.6882 49.381 73.095 49.0733 72.5754 48.6339C72.0553 48.1948 71.6342 47.6054 71.3121 46.8658C70.99 46.1263 70.829 45.1929 70.829 44.065C70.829 43.1423 70.9718 42.3482 71.2571 41.6816C71.5429 41.0154 71.9235 40.4625 72.3997 40.0232C72.8753 39.5839 73.4135 39.2619 74.0141 39.0566C74.6144 38.8518 75.2296 38.7491 75.8594 38.7491C76.6794 38.7491 77.375 38.8775 77.9461 39.1335C78.5174 39.3899 78.982 39.7341 79.341 40.166C79.6996 40.598 79.9595 41.0923 80.1208 41.6487C80.2817 42.2054 80.3624 42.791 80.3624 43.406V43.7135C80.3624 43.831 80.3587 43.9551 80.3514 44.0869C80.344 44.2188 80.3368 44.3472 80.3296 44.4713C80.322 44.5961 80.311 44.6948 80.2967 44.7679H73.8164C73.8751 45.5734 74.1249 46.2433 74.5657 46.778C75.0062 47.3127 75.7043 47.5796 76.6595 47.5796ZM77.6605 43.1204C77.6605 42.4175 77.5241 41.8463 77.2517 41.407C76.9792 40.9677 76.4893 40.748 75.7827 40.748C75.1785 40.748 74.6963 40.9567 74.3355 41.3741C73.9744 41.7915 73.7944 42.3735 73.7944 43.1203L77.6605 43.1204ZM85.5613 40.0786C85.649 39.948 85.7661 39.8028 85.9127 39.6428C86.059 39.4829 86.2385 39.3376 86.4509 39.2069C86.6631 39.0762 86.8975 38.967 87.1539 38.8799C87.4098 38.7927 87.6846 38.7491 87.9777 38.7491C88.1534 38.7491 88.3401 38.7639 88.5378 38.7927C88.7355 38.8219 88.9184 38.8764 89.0868 38.9561C89.2551 39.0361 89.3908 39.1448 89.4933 39.2828C89.5956 39.4208 89.6471 39.5914 89.6471 39.7946C89.6471 40.1141 89.5664 40.4811 89.4055 40.8954C89.2441 41.31 89.0833 41.6635 88.9223 41.9563C88.673 41.7513 88.4241 41.5939 88.1753 41.484C87.9262 41.3742 87.6333 41.3192 87.2966 41.3192C86.8426 41.3192 86.4619 41.4514 86.1545 41.7157C85.8467 41.98 85.693 42.2957 85.693 42.6629V49.774H82.7057V39.0565C82.7788 39.0422 82.8666 39.0274 82.9692 39.0127C83.0571 38.9983 83.1595 38.9872 83.2768 38.9797C83.3939 38.9725 83.5329 38.9687 83.6941 38.9687C84.1626 38.9687 84.569 39.0596 84.9133 39.241C85.2571 39.4221 85.4735 39.7015 85.5613 40.0786ZM94.055 40.0786C94.1429 39.948 94.2599 39.8028 94.4065 39.6428C94.5527 39.4829 94.7322 39.3376 94.9447 39.2069C95.1568 39.0762 95.3912 38.967 95.6476 38.8799C95.9037 38.7927 96.1782 38.7491 96.4713 38.7491C96.647 38.7491 96.8337 38.7639 97.0314 38.7927C97.229 38.8219 97.4121 38.8764 97.5806 38.9561C97.7489 39.0361 97.8843 39.1448 97.9871 39.2828C98.0894 39.4208 98.1409 39.5914 98.1409 39.7946C98.1409 40.1141 98.06 40.4811 97.8992 40.8954C97.7377 41.31 97.5768 41.6635 97.4159 41.9563C97.1668 41.7513 96.9177 41.5939 96.669 41.484C96.4199 41.3742 96.1271 41.3192 95.7904 41.3192C95.3364 41.3192 94.9556 41.4514 94.6481 41.7157C94.3406 41.98 94.1869 42.2957 94.1869 42.6629V49.774H91.1994V39.0565C91.2725 39.0422 91.3604 39.0274 91.4631 39.0127C91.5509 38.9983 91.6534 38.9872 91.7705 38.9797C91.8876 38.9725 92.0265 38.9687 92.1878 38.9687C92.6565 38.9687 93.0628 39.0596 93.4069 39.241C93.7508 39.4221 93.967 39.7015 94.055 40.0786ZM108.311 46.8986C108.311 48.0556 108.48 48.8976 108.817 49.4248C108.553 49.5271 108.308 49.6005 108.081 49.6444C107.854 49.6884 107.616 49.7102 107.367 49.7102C106.84 49.7102 106.441 49.6077 106.17 49.4028C105.899 49.1979 105.727 48.905 105.653 48.5241C105.331 48.8613 104.907 49.1467 104.379 49.3811C103.852 49.6149 103.208 49.7324 102.446 49.7324C102.051 49.7324 101.656 49.6775 101.26 49.5684C100.865 49.4584 100.506 49.2799 100.184 49.0321C99.8615 48.7837 99.598 48.4516 99.393 48.0355C99.1878 47.6194 99.0856 47.1122 99.0856 46.5138C99.0856 45.7693 99.2646 45.1633 99.6238 44.6964C99.9824 44.229 100.433 43.8605 100.975 43.5904C101.516 43.3205 102.102 43.1347 102.732 43.0323C103.361 42.93 103.94 42.8645 104.467 42.835C104.643 42.8205 104.815 42.813 104.984 42.813H105.456V42.4131C105.456 41.8502 105.306 41.4503 105.006 41.2136C104.705 40.9767 104.218 40.858 103.545 40.858C102.915 40.858 102.355 40.9606 101.864 41.1654C101.374 41.3707 100.894 41.6048 100.425 41.8684C100.22 41.6195 100.055 41.345 99.9312 41.0447C99.8068 40.7447 99.7446 40.5213 99.7446 40.3747C99.7446 40.1698 99.8578 39.9721 100.085 39.7816C100.312 39.5915 100.623 39.4192 101.019 39.2654C101.414 39.1116 101.868 38.9874 102.38 38.892C102.893 38.7969 103.435 38.7492 104.006 38.7492C104.797 38.7492 105.467 38.8299 106.016 38.9908C106.565 39.1522 107.012 39.401 107.356 39.7376C107.7 40.0748 107.945 40.4955 108.092 41.0007C108.238 41.506 108.311 42.0957 108.311 42.769V46.8986ZM105.5 44.3505H105.192C105.09 44.3505 104.987 44.3582 104.885 44.3726C104.519 44.4021 104.156 44.4459 103.797 44.5042C103.438 44.563 103.12 44.6655 102.842 44.8119C102.564 44.9584 102.337 45.1489 102.161 45.3829C101.985 45.6174 101.897 45.9177 101.897 46.2837C101.897 46.6938 102.014 47.0414 102.249 47.327C102.483 47.6126 102.878 47.7554 103.435 47.7554C103.713 47.7554 103.977 47.719 104.226 47.6454C104.475 47.5725 104.694 47.4772 104.885 47.3601C105.075 47.2429 105.225 47.1148 105.335 46.9755C105.445 46.8365 105.5 46.7085 105.5 46.5912L105.5 44.3505Z" fill="#044D80"/>
</g>
<defs>
<clipPath id="clip0_192_5367">
<rect width="110" height="25.2987" fill="white" transform="translate(0 29.6672)"/>
</clipPath>
</defs>
</svg>
