<svg width="587" height="588" viewBox="0 0 587 588" fill="none" xmlns="http://www.w3.org/2000/svg">
<g clip-path="url(#clip0_454_18065)">
<path d="M290.226 290.263C290.299 290.406 290.32 290.569 290.286 290.725C290.253 290.881 290.166 291.021 290.042 291.121C289.917 291.221 289.762 291.275 289.602 291.274C289.442 291.273 289.288 291.217 289.164 291.115C265.472 270.632 106.428 130.431 154.658 97.953C199.401 67.8762 273.938 100.43 294.09 110.226C294.338 110.343 294.538 110.543 294.654 110.793C294.77 111.042 294.795 111.324 294.723 111.589C294.652 111.855 294.49 112.087 294.265 112.245C294.04 112.403 293.767 112.477 293.493 112.453C273.239 111.385 206.749 110.888 221.415 151.199C236.733 193.314 280.608 272.982 290.226 290.263Z" fill="#A38CFF"/>
<path d="M293.87 289.148C293.853 289.324 293.767 289.487 293.63 289.599C293.493 289.712 293.317 289.766 293.141 289.749C292.965 289.731 292.802 289.645 292.69 289.508C292.577 289.371 292.523 289.196 292.541 289.019C290.288 257.681 276.931 46.1606 334.045 57.1819C386.934 67.5637 416.594 143.423 423.909 164.635C424.004 164.892 424.005 165.173 423.913 165.431C423.822 165.689 423.642 165.907 423.407 166.047C423.171 166.186 422.894 166.239 422.624 166.195C422.354 166.152 422.107 166.015 421.927 165.809C408.328 150.796 361.682 103.394 343.545 142.229C324.607 182.783 299.305 270.14 293.87 289.148Z" fill="#A38CFF"/>
<path d="M297.211 290.957C297.069 291.029 296.906 291.05 296.75 291.017C296.593 290.983 296.453 290.897 296.353 290.772C296.253 290.647 296.199 290.492 296.2 290.332C296.201 290.172 296.257 290.018 296.359 289.894C316.878 266.212 457.044 107.159 489.521 155.388C519.634 200.141 487.044 274.668 477.249 294.82C477.132 295.069 476.931 295.269 476.682 295.384C476.433 295.5 476.151 295.525 475.885 295.454C475.62 295.383 475.388 295.22 475.23 294.995C475.072 294.77 474.998 294.497 475.021 294.223C476.099 273.934 476.587 207.479 436.285 222.109C394.231 237.483 314.493 281.338 297.211 290.957Z" fill="#A38CFF"/>
<path d="M298.316 294.587C298.14 294.57 297.977 294.484 297.865 294.347C297.752 294.21 297.698 294.034 297.716 293.858C297.733 293.681 297.819 293.519 297.956 293.406C298.093 293.294 298.269 293.24 298.445 293.257C329.712 290.986 541.374 277.667 530.141 334.724C519.759 387.613 444.041 417.311 422.688 424.588C422.431 424.683 422.149 424.684 421.891 424.592C421.633 424.5 421.416 424.321 421.276 424.086C421.137 423.85 421.084 423.573 421.127 423.303C421.171 423.032 421.308 422.786 421.514 422.606C436.527 409.007 483.929 362.361 445.093 344.224C404.787 325.352 317.324 300.021 298.316 294.587Z" fill="#A38CFF"/>
<path d="M296.513 297.934C296.44 297.792 296.419 297.629 296.452 297.472C296.486 297.316 296.572 297.176 296.697 297.076C296.822 296.976 296.977 296.922 297.137 296.923C297.297 296.924 297.451 296.98 297.575 297.082C321.257 317.601 480.31 457.767 432.081 490.244C387.364 520.366 312.801 487.767 292.649 477.972C292.4 477.855 292.201 477.654 292.085 477.405C291.969 477.156 291.944 476.873 292.016 476.608C292.087 476.342 292.249 476.11 292.474 475.952C292.699 475.794 292.972 475.721 293.246 475.744C313.5 476.813 379.99 477.31 365.324 436.999C349.987 394.954 306.131 315.216 296.513 297.934Z" fill="#A38CFF"/>
<path d="M292.873 299.042C292.881 298.955 292.907 298.87 292.948 298.793C292.989 298.715 293.045 298.647 293.113 298.591C293.181 298.535 293.259 298.493 293.343 298.468C293.427 298.442 293.515 298.433 293.602 298.442C293.69 298.45 293.774 298.476 293.852 298.517C293.929 298.558 293.998 298.614 294.053 298.682C294.109 298.75 294.151 298.828 294.177 298.912C294.202 298.996 294.211 299.084 294.203 299.171C296.474 330.438 309.793 542.1 252.736 530.867C199.847 520.485 170.184 444.777 162.872 423.414C162.777 423.157 162.776 422.875 162.868 422.617C162.96 422.359 163.139 422.142 163.374 422.002C163.61 421.863 163.887 421.81 164.157 421.853C164.427 421.897 164.674 422.034 164.854 422.24C178.453 437.253 225.099 484.655 243.236 445.819C262.037 405.494 287.439 318.05 292.873 299.042Z" fill="#A38CFF"/>
<path d="M289.53 297.237C289.672 297.164 289.836 297.143 289.992 297.177C290.148 297.21 290.288 297.297 290.388 297.421C290.488 297.546 290.542 297.701 290.541 297.861C290.54 298.021 290.484 298.175 290.382 298.299C269.898 321.991 129.698 481.035 97.2199 432.805C67.1336 388.097 99.6971 313.525 109.493 293.373C109.61 293.125 109.81 292.925 110.059 292.809C110.309 292.693 110.591 292.668 110.856 292.74C111.122 292.811 111.354 292.973 111.512 293.198C111.67 293.423 111.744 293.696 111.72 293.97C110.652 314.224 110.155 380.714 150.465 366.049C192.581 350.73 272.249 306.856 289.53 297.237Z" fill="#A38CFF"/>
<path d="M288.424 293.607C288.512 293.615 288.596 293.641 288.674 293.682C288.751 293.724 288.82 293.78 288.876 293.847C288.931 293.915 288.973 293.993 288.999 294.077C289.024 294.161 289.033 294.249 289.025 294.336C289.016 294.424 288.991 294.508 288.95 294.586C288.908 294.663 288.852 294.732 288.784 294.788C288.717 294.843 288.639 294.885 288.555 294.911C288.471 294.936 288.383 294.945 288.295 294.937C256.957 297.189 45.4369 310.546 56.4581 253.432C66.84 200.543 142.69 170.918 163.911 163.568C164.168 163.474 164.45 163.472 164.708 163.564C164.966 163.656 165.183 163.835 165.323 164.071C165.462 164.306 165.515 164.583 165.471 164.853C165.428 165.124 165.291 165.37 165.085 165.55C150.072 179.15 102.67 225.795 141.506 243.932C182.078 262.8 269.407 288.208 288.424 293.607Z" fill="#A38CFF"/>
</g>
<defs>
<clipPath id="clip0_454_18065">
<rect width="478.731" height="478.731" fill="white" transform="translate(124.109 0.936707) rotate(15)"/>
</clipPath>
</defs>
</svg>
