<svg width="17" height="17" viewBox="0 0 17 17" fill="none" xmlns="http://www.w3.org/2000/svg">
<path d="M15.4236 6.17822C15.3224 5.86509 15.0447 5.64269 14.7161 5.61307L10.2528 5.2078L8.48785 1.07684C8.35772 0.774096 8.06134 0.578125 7.73205 0.578125C7.40276 0.578125 7.10638 0.774096 6.97625 1.07755L5.21133 5.2078L0.747306 5.61307C0.419312 5.6434 0.142286 5.86509 0.0404664 6.17822C-0.0613534 6.49134 0.0326795 6.83479 0.280799 7.05129L3.65454 10.0101L2.6597 14.3923C2.58691 14.7146 2.71197 15.0476 2.97932 15.2409C3.12302 15.3447 3.29115 15.3976 3.46069 15.3976C3.60687 15.3976 3.75188 15.3582 3.88201 15.2803L7.73205 12.9793L11.5807 15.2803C11.8623 15.4497 12.2173 15.4343 12.4841 15.2409C12.7515 15.047 12.8765 14.7139 12.8037 14.3923L11.8089 10.0101L15.1826 7.05188C15.4307 6.83479 15.5255 6.49193 15.4236 6.17822Z" fill="#F39E0D"/>
</svg>
