<svg width="67" height="67" viewBox="0 0 67 67" fill="none" xmlns="http://www.w3.org/2000/svg">
<path d="M31.5402 44.9569C29.9989 52.8204 28.7492 54.2034 21.6455 55.91C28.7492 57.616 29.9989 58.999 31.5402 66.8631C33.0815 58.9996 34.3312 57.616 41.4349 55.91C34.3312 54.2034 33.0815 52.8204 31.5402 44.9569Z" fill="#64E1B0"/>
<path d="M44.7089 49.3498C48.1811 31.6345 50.9959 28.5189 66.9998 24.6749C50.9959 20.8315 48.1811 17.7154 44.7089 0C41.2367 17.7154 38.4219 20.831 22.418 24.6749C38.4219 28.5189 41.2367 31.6345 44.7089 49.3498Z" fill="#64E1B0"/>
<path d="M11.2089 46.1667C12.955 37.2583 14.3705 35.6916 22.4178 33.759C14.37 31.8265 12.955 30.2592 11.2089 21.3514C9.46276 30.2598 8.04722 31.8265 0 33.759C8.04722 35.6916 9.46276 37.2583 11.2089 46.1667Z" fill="#64E1B0"/>
</svg>
