<svg width="142" height="90" viewBox="0 0 142 90" fill="none" xmlns="http://www.w3.org/2000/svg">
<path d="M3.95363 87.7847C0.439621 65.2836 0.727323 49.6111 5.95078 45.3223C12.3554 40.0638 22.8142 49.1615 33.5745 57.347C45.9805 66.7845 54.5534 66.4553 52.018 37.6816C51.1839 28.2153 49.1498 17.9347 51.5512 14.9379C55.2176 10.3626 63.3491 17.6149 70.5244 24.1137C80.0311 32.724 91.4371 47.1608 98.6996 47.945C106.026 48.736 105.205 33.5848 106.467 20.1182C107.623 7.77878 110.67 5.19608 119.402 13.7349C125.284 19.4866 132.792 30.8681 136.336 28.5096C139.844 26.1754 139.822 13.4353 139.231 2.35878" stroke="#64E1B0" stroke-width="3" stroke-linecap="round"/>
</svg>
