<svg width="66" height="66" viewBox="0 0 66 66" fill="none" xmlns="http://www.w3.org/2000/svg">
<g clip-path="url(#clip0_467_8156)">
<path d="M42.6483 49.5003C42.2037 49.5006 41.7691 49.3689 41.3994 49.1219L32.9979 43.5191L24.5963 49.1198C24.1071 49.4287 23.5199 49.543 22.9505 49.4401C22.3812 49.3372 21.8712 49.0246 21.5211 48.5639C21.3128 48.2742 21.1762 47.9392 21.1225 47.5864C21.0687 47.2336 21.0993 46.8731 21.2117 46.5344L24.5313 36.5777L16.7041 32.231C16.2551 31.9811 15.8979 31.5939 15.6849 31.1262C15.472 30.6585 15.4145 30.1349 15.5208 29.6321C15.6271 29.1293 15.8917 28.6738 16.2757 28.3324C16.6598 27.9909 17.1431 27.7815 17.6549 27.7348L27.1197 26.8747L30.626 18.1091C30.8155 17.635 31.1428 17.2285 31.5656 16.9422C31.9884 16.6559 32.4873 16.5029 32.9979 16.5029C33.5084 16.5029 34.0073 16.6559 34.4301 16.9422C34.8529 17.2285 35.1802 17.635 35.3697 18.1091L38.876 26.8747L48.3408 27.7348C48.8529 27.781 49.3367 27.9902 49.7211 28.3317C50.1055 28.6732 50.3703 29.129 50.4766 29.632C50.5828 30.1351 50.525 30.659 50.3115 31.1268C50.0981 31.5946 49.7402 31.9816 49.2906 32.231L41.4644 36.5798L44.784 46.5365C44.8967 46.875 44.9274 47.2353 44.8736 47.588C44.8197 47.9406 44.6829 48.2754 44.4744 48.5648C44.2658 48.8542 43.9915 49.0899 43.674 49.2526C43.3566 49.4152 43.005 49.5001 42.6483 49.5003ZM32.9979 41.2503C33.2016 41.2503 33.4007 41.3106 33.5702 41.4236L42.5421 47.4048C42.5839 47.4284 42.6326 47.4367 42.6798 47.4282C42.7271 47.4198 42.7699 47.3951 42.8009 47.3584C42.819 47.3344 42.8309 47.3063 42.8354 47.2766C42.8399 47.2469 42.8369 47.2165 42.8267 47.1883L39.2379 36.42C39.162 36.1918 39.1681 35.9443 39.2553 35.7202C39.3425 35.4961 39.5052 35.3096 39.7154 35.1928L48.2903 30.4284C48.3545 30.3931 48.4057 30.3381 48.4363 30.2715C48.4669 30.2049 48.4752 30.1303 48.4601 30.0585C48.4449 29.9868 48.4071 29.9219 48.3522 29.8734C48.2973 29.8248 48.2282 29.7953 48.1552 29.789L38.0613 28.8753C37.8717 28.8583 37.6906 28.7892 37.5379 28.6757C37.3852 28.5621 37.2669 28.4085 37.1961 28.2318L33.4547 18.8722C33.411 18.7888 33.3454 18.7189 33.2649 18.6702C33.1843 18.6214 33.092 18.5957 32.9979 18.5957C32.9037 18.5957 32.8114 18.6214 32.7308 18.6702C32.6503 18.7189 32.5847 18.7888 32.541 18.8722L28.7996 28.2277C28.7294 28.4051 28.6114 28.5596 28.4587 28.6739C28.3059 28.7883 28.1244 28.858 27.9344 28.8753L17.8405 29.7931C17.7679 29.7999 17.6992 29.8297 17.6447 29.8782C17.5901 29.9267 17.5525 29.9914 17.5373 30.0628C17.5221 30.1341 17.5301 30.2085 17.5602 30.2751C17.5902 30.3416 17.6408 30.3967 17.7044 30.4325L26.2803 35.1969C26.4905 35.3137 26.6532 35.5003 26.7404 35.7243C26.8276 35.9484 26.8337 36.1959 26.7578 36.4241L23.168 47.1893C23.1578 47.2176 23.1548 47.2479 23.1593 47.2776C23.1638 47.3074 23.1756 47.3355 23.1938 47.3594C23.2248 47.3961 23.2676 47.4208 23.3148 47.4293C23.3621 47.4377 23.4108 47.4295 23.4526 47.4059L32.4245 41.4246C32.5941 41.311 32.7937 41.2504 32.9979 41.2503Z" fill="white"/>
<path d="M58.121 47.4375C57.6764 47.4378 57.2418 47.3061 56.8722 47.059L48.4706 41.4563L45.9492 43.1372C45.7216 43.289 45.4431 43.3442 45.1748 43.2906C44.9066 43.237 44.6706 43.0791 44.5188 42.8515C44.367 42.624 44.3118 42.3454 44.3654 42.0772C44.419 41.809 44.5769 41.573 44.8045 41.4212L47.8982 39.3587C48.0677 39.2456 48.2668 39.1853 48.4706 39.1853C48.6743 39.1853 48.8734 39.2456 49.0429 39.3587L58.0148 45.3399C58.0566 45.3635 58.1053 45.3718 58.1526 45.3633C58.1998 45.3549 58.2426 45.3302 58.2736 45.2935C58.2917 45.2696 58.3036 45.2414 58.3081 45.2117C58.3126 45.182 58.3096 45.1516 58.2994 45.1234L54.7107 34.3571C54.6347 34.129 54.6408 33.8815 54.728 33.6574C54.8152 33.4333 54.978 33.2467 55.1881 33.1299L63.763 28.3656C63.8272 28.3303 63.8784 28.2753 63.909 28.2087C63.9396 28.1421 63.9479 28.0674 63.9328 27.9957C63.9176 27.924 63.8798 27.8591 63.8249 27.8106C63.77 27.762 63.7009 27.7324 63.6279 27.7262L53.534 26.8125C53.3444 26.7955 53.1633 26.7264 53.0106 26.6128C52.8579 26.4993 52.7396 26.3457 52.6688 26.169L48.9274 16.8094C48.8838 16.726 48.8181 16.6561 48.7376 16.6074C48.657 16.5586 48.5647 16.5328 48.4706 16.5328C48.3764 16.5328 48.2841 16.5586 48.2035 16.6074C48.123 16.6561 48.0574 16.726 48.0137 16.8094L44.6848 25.1336C44.6345 25.2594 44.5598 25.3741 44.4651 25.471C44.3704 25.568 44.2576 25.6454 44.133 25.6987C44.0084 25.752 43.8745 25.7803 43.739 25.7819C43.6035 25.7835 43.469 25.7584 43.3432 25.708C43.2174 25.6577 43.1027 25.583 43.0058 25.4883C42.9088 25.3936 42.8315 25.2808 42.7781 25.1562C42.7248 25.0316 42.6965 24.8977 42.6949 24.7622C42.6933 24.6267 42.7184 24.4922 42.7688 24.3664L46.0987 16.0432C46.2882 15.569 46.6155 15.1626 47.0383 14.8763C47.4611 14.59 47.96 14.437 48.4706 14.437C48.9812 14.437 49.48 14.59 49.9028 14.8763C50.3256 15.1626 50.6529 15.569 50.8424 16.0432L54.3487 24.8088L63.8135 25.6688C64.3256 25.7151 64.8094 25.9243 65.1938 26.2658C65.5782 26.6073 65.843 27.063 65.9493 27.5661C66.0555 28.0692 65.9977 28.5931 65.7842 29.0609C65.5708 29.5287 65.2129 29.9157 64.7633 30.1651L56.9371 34.5139L60.2567 44.4706C60.37 44.8092 60.4012 45.1699 60.3476 45.523C60.2941 45.876 60.1574 46.2113 59.9488 46.5011C59.7402 46.7909 59.4656 47.0269 59.1478 47.1897C58.83 47.3526 58.4781 47.4375 58.121 47.4375Z" fill="white"/>
<path d="M7.87866 47.4378C7.52186 47.4378 7.17017 47.353 6.85256 47.1904C6.53495 47.0279 6.26051 46.7921 6.05185 46.5027C5.84319 46.2133 5.70627 45.8784 5.65239 45.5257C5.5985 45.173 5.62919 44.8125 5.74191 44.474L9.06151 34.5173L1.23535 30.1685C0.786316 29.9186 0.429146 29.5314 0.216195 29.0637C0.0032442 28.596 -0.054287 28.0724 0.0520344 27.5696C0.158356 27.0668 0.422938 26.6113 0.806998 26.2699C1.19106 25.9284 1.6744 25.719 2.18616 25.6723L11.651 24.8122L15.1572 16.0466C15.3468 15.5725 15.6741 15.166 16.0968 14.8797C16.5196 14.5934 17.0185 14.4404 17.5291 14.4404C18.0397 14.4404 18.5386 14.5934 18.9614 14.8797C19.3841 15.166 19.7114 15.5725 19.901 16.0466L23.2309 24.3698C23.3326 24.6239 23.3293 24.908 23.2215 25.1596C23.1138 25.4112 22.9106 25.6097 22.6565 25.7114C22.4024 25.8132 22.1183 25.8098 21.8667 25.7021C21.6151 25.5944 21.4166 25.3911 21.3148 25.137L17.9859 16.8097C17.9423 16.7263 17.8766 16.6564 17.7961 16.6077C17.7156 16.5589 17.6232 16.5332 17.5291 16.5332C17.435 16.5332 17.3426 16.5589 17.2621 16.6077C17.1816 16.6564 17.1159 16.7263 17.0723 16.8097L13.3309 26.1652C13.2607 26.3426 13.1427 26.4971 12.9899 26.6114C12.8372 26.7258 12.6557 26.7955 12.4657 26.8128L2.37179 27.7306C2.2991 27.7374 2.23047 27.7672 2.17592 27.8157C2.12137 27.8642 2.08375 27.9289 2.06854 28.0003C2.05334 28.0717 2.06136 28.146 2.09142 28.2126C2.12149 28.2791 2.17203 28.3342 2.23566 28.37L10.8115 33.1344C11.0217 33.2512 11.1845 33.4378 11.2716 33.6619C11.3588 33.8859 11.365 34.1334 11.289 34.3616L7.69923 45.1268C7.68901 45.1551 7.68603 45.1854 7.69053 45.2151C7.69503 45.2449 7.70688 45.273 7.72501 45.2969C7.75601 45.3336 7.79882 45.3583 7.84607 45.3668C7.89332 45.3752 7.94205 45.367 7.98385 45.3434L16.9557 39.3621C17.1252 39.249 17.3243 39.1887 17.5281 39.1887C17.7318 39.1887 17.9309 39.249 18.1004 39.3621L21.1942 41.4246C21.3068 41.4998 21.4036 41.5964 21.4789 41.7089C21.5543 41.8215 21.6067 41.9478 21.6332 42.0806C21.6597 42.2134 21.6599 42.3502 21.6335 42.483C21.6072 42.6159 21.555 42.7423 21.4798 42.8549C21.4047 42.9676 21.308 43.0644 21.1955 43.1397C21.0829 43.2151 20.9566 43.2675 20.8238 43.294C20.691 43.3205 20.5542 43.3206 20.4214 43.2943C20.2885 43.268 20.1621 43.2158 20.0495 43.1406L17.5291 41.4566L9.12751 47.0594C8.75788 47.3064 8.32324 47.4381 7.87866 47.4378Z" fill="white"/>
<path d="M33 8.25C32.7265 8.25 32.4642 8.14135 32.2708 7.94795C32.0774 7.75456 31.9688 7.49225 31.9688 7.21875V3.09375C31.9688 2.82025 32.0774 2.55794 32.2708 2.36455C32.4642 2.17115 32.7265 2.0625 33 2.0625C33.2735 2.0625 33.5358 2.17115 33.7292 2.36455C33.9226 2.55794 34.0312 2.82025 34.0312 3.09375V7.21875C34.0312 7.49225 33.9226 7.75456 33.7292 7.94795C33.5358 8.14135 33.2735 8.25 33 8.25Z" fill="white"/>
<path d="M23.7213 12.3752C23.4478 12.3751 23.1856 12.2664 22.9922 12.073L19.8779 8.95763C19.69 8.76314 19.5861 8.50264 19.5884 8.23225C19.5908 7.96186 19.6992 7.70321 19.8904 7.51201C20.0816 7.32081 20.3403 7.21235 20.6107 7.21C20.8811 7.20765 21.1416 7.31159 21.336 7.49944L24.4504 10.6149C24.5946 10.7591 24.6928 10.9428 24.7326 11.1428C24.7723 11.3428 24.7519 11.5501 24.6739 11.7386C24.5958 11.927 24.4637 12.088 24.2941 12.2013C24.1246 12.3146 23.9253 12.3752 23.7213 12.3752Z" fill="white"/>
<path d="M42.281 12.3752C42.0771 12.3752 41.8778 12.3146 41.7082 12.2013C41.5387 12.088 41.4065 11.927 41.3285 11.7386C41.2505 11.5501 41.23 11.3428 41.2698 11.1428C41.3096 10.9428 41.4078 10.7591 41.5519 10.6149L44.6663 7.49944C44.8608 7.31159 45.1213 7.20765 45.3917 7.21C45.6621 7.21235 45.9207 7.32081 46.1119 7.51201C46.3031 7.70321 46.4116 7.96186 46.4139 8.23225C46.4163 8.50264 46.3124 8.76314 46.1245 8.95763L43.0101 12.073C42.8168 12.2664 42.5545 12.3751 42.281 12.3752Z" fill="white"/>
<path d="M33 63.9375C32.7265 63.9375 32.4642 63.8289 32.2708 63.6355C32.0774 63.4421 31.9688 63.1798 31.9688 62.9062V58.7812C31.9688 58.5077 32.0774 58.2454 32.2708 58.052C32.4642 57.8586 32.7265 57.75 33 57.75C33.2735 57.75 33.5358 57.8586 33.7292 58.052C33.9226 58.2454 34.0312 58.5077 34.0312 58.7812V62.9062C34.0312 63.1798 33.9226 63.4421 33.7292 63.6355C33.5358 63.8289 33.2735 63.9375 33 63.9375Z" fill="white"/>
<path d="M20.6043 58.8031C20.4003 58.8033 20.2008 58.7429 20.0311 58.6297C19.8614 58.5164 19.7291 58.3554 19.651 58.167C19.5728 57.9785 19.5523 57.7711 19.592 57.571C19.6318 57.3709 19.73 57.1871 19.8742 57.0428L22.9886 53.9274C23.1819 53.7339 23.4443 53.6251 23.7178 53.625C23.9914 53.6249 24.2538 53.7335 24.4473 53.9268C24.6408 54.1202 24.7495 54.3825 24.7496 54.6561C24.7497 54.9297 24.6412 55.192 24.4478 55.3856L21.3334 58.502C21.1399 58.695 20.8777 58.8033 20.6043 58.8031Z" fill="white"/>
<path d="M45.3953 58.8031C45.122 58.8033 44.8597 58.695 44.6662 58.502L41.5518 55.3856C41.3585 55.192 41.2499 54.9297 41.25 54.6561C41.2501 54.3825 41.3589 54.1202 41.5524 53.9268C41.7459 53.7335 42.0083 53.6249 42.2818 53.625C42.5554 53.6251 42.8177 53.7339 43.0111 53.9274L46.1254 57.0428C46.2697 57.1871 46.3679 57.3709 46.4076 57.571C46.4474 57.7711 46.4269 57.9785 46.3487 58.167C46.2705 58.3554 46.1382 58.5164 45.9685 58.6297C45.7988 58.7429 45.5993 58.8033 45.3953 58.8031Z" fill="white"/>
</g>
<defs>
<clipPath id="clip0_467_8156">
<rect width="66" height="66" fill="white"/>
</clipPath>
</defs>
</svg>
