<svg width="48" height="48" viewBox="0 0 48 48" fill="none" xmlns="http://www.w3.org/2000/svg">
<path d="M25.3736 41.5673H7.20159C6.99791 41.5673 6.80256 41.4864 6.65854 41.3423C6.51451 41.1983 6.43359 41.003 6.43359 40.7993V22.6273C6.43359 22.4236 6.51451 22.2282 6.65854 22.0842C6.80256 21.9402 6.99791 21.8593 7.20159 21.8593H25.3736C25.5773 21.8593 25.7727 21.9402 25.9167 22.0842C26.0607 22.2282 26.1416 22.4236 26.1416 22.6273V40.7993C26.1416 41.003 26.0607 41.1983 25.9167 41.3423C25.7727 41.4864 25.5773 41.5673 25.3736 41.5673ZM7.96959 40.0313H24.6056V23.3953H7.96959V40.0313Z" fill="#111827"/>
<path d="M40.7996 41.5672H29.5976V40.0312H40.0316V7.9672H7.96764V18.4047H6.43164V7.20074C6.43164 6.99705 6.51255 6.80171 6.65658 6.65768C6.80061 6.51365 6.99595 6.43274 7.19964 6.43274H40.7996C41.0033 6.43274 41.1987 6.51365 41.3427 6.65768C41.4867 6.80171 41.5676 6.99705 41.5676 7.20074V40.8007C41.5672 41.0042 41.4861 41.1991 41.3422 41.3428C41.1982 41.4865 41.0031 41.5672 40.7996 41.5672Z" fill="#111827"/>
</svg>
