<svg width="48" height="48" viewBox="0 0 48 48" fill="none" xmlns="http://www.w3.org/2000/svg">
<path d="M21.2113 43.1367H7.33125C6.67689 43.1359 6.04956 42.8756 5.58689 42.4128C5.12423 41.9501 4.86399 41.3227 4.86328 40.6684V18.7715C4.86451 17.9709 5.13274 17.1935 5.62552 16.5624L6.94648 14.8762C7.28047 14.4473 7.70826 14.1006 8.19703 13.8626C8.6858 13.6247 9.22258 13.5018 9.76619 13.5034H18.7737C19.3169 13.5018 19.8532 13.6245 20.3417 13.8621C20.8302 14.0997 21.2578 14.446 21.5919 14.8743L22.9155 16.5616C23.4092 17.193 23.678 17.9712 23.6793 18.7727V40.6684C23.6786 41.3227 23.4183 41.9501 22.9557 42.4128C22.493 42.8756 21.8657 43.1359 21.2113 43.1367ZM9.76811 15.0394C9.45761 15.0384 9.151 15.1086 8.87183 15.2445C8.59265 15.3804 8.34833 15.5785 8.15762 15.8236L6.83512 17.5105C6.55361 17.8709 6.40038 18.315 6.39967 18.7723V40.6691C6.39987 40.9163 6.49811 41.1532 6.67283 41.328C6.84756 41.5028 7.08449 41.6012 7.33163 41.6015H21.2113C21.4585 41.6012 21.6954 41.5028 21.8701 41.328C22.0448 41.1532 22.1431 40.9163 22.1433 40.6691V18.7727C22.1426 18.3151 21.9891 17.8708 21.7071 17.5105L20.3834 15.8209C20.1925 15.5763 19.9482 15.3786 19.6692 15.2429C19.3903 15.1072 19.0839 15.0371 18.7737 15.0379L9.76811 15.0394Z" fill="#111827"/>
<path d="M28.0297 40.3111C27.7057 40.3119 27.3847 40.2487 27.0852 40.125C26.7858 40.0013 26.5137 39.8196 26.2848 39.5904L24.6186 37.9238L25.7045 36.8378L27.3707 38.5036C27.5457 38.6779 27.7827 38.7758 28.0297 38.7758C28.2766 38.7758 28.5136 38.6779 28.6886 38.5036L38.5033 28.689C38.6778 28.5139 38.7758 28.2768 38.7758 28.0297C38.7758 27.7825 38.6778 27.5454 38.5033 27.3703L23.0204 11.8874C22.6963 11.5644 22.2735 11.3588 21.8192 11.3034L19.6899 11.0461L19.8739 9.52124L22.0032 9.77852C22.7986 9.87554 23.5389 10.2356 24.1063 10.8015L39.5892 26.2844C40.0513 26.7477 40.3108 27.3753 40.3108 28.0297C40.3108 28.684 40.0513 29.3116 39.5892 29.7749L29.7749 39.5904C29.5458 39.8195 29.2737 40.0012 28.9742 40.1248C28.6747 40.2485 28.3537 40.3118 28.0297 40.3111Z" fill="#111827"/>
<path d="M40.6688 23.6793H38.2704V22.1433H40.6688C40.916 22.143 41.1529 22.0446 41.3276 21.8698C41.5023 21.695 41.6006 21.4581 41.6008 21.2109V7.33163C41.6006 7.08449 41.5023 6.84752 41.3276 6.67272C41.1529 6.49793 40.916 6.39959 40.6688 6.39928H18.7724C18.3149 6.3999 17.8708 6.55329 17.5105 6.83512L15.8209 8.15915C15.5764 8.35 15.3788 8.59422 15.2431 8.87314C15.1074 9.15207 15.0372 9.45832 15.038 9.7685V11.1636H13.502V9.7685C13.5004 9.22541 13.6231 8.68916 13.8607 8.20081C14.0983 7.71247 14.4445 7.28498 14.8728 6.95109L16.5601 5.62706C17.1913 5.1332 17.9694 4.86437 18.7708 4.86328H40.6673C41.3216 4.86409 41.949 5.12443 42.4116 5.58717C42.8743 6.04991 43.1345 6.67727 43.1353 7.33163V21.2109C43.1345 21.865 42.8745 22.4922 42.4122 22.9549C41.9498 23.4176 41.3229 23.6781 40.6688 23.6793Z" fill="#111827"/>
<path d="M14.2696 22.131C13.7142 22.131 13.1713 21.9663 12.7095 21.6578C12.2477 21.3492 11.8877 20.9106 11.6752 20.3975C11.4626 19.8844 11.407 19.3197 11.5154 18.775C11.6237 18.2303 11.8912 17.7299 12.2839 17.3372C12.6767 16.9444 13.177 16.677 13.7218 16.5686C14.2665 16.4603 14.8311 16.5159 15.3443 16.7284C15.8574 16.941 16.296 17.3009 16.6045 17.7627C16.9131 18.2245 17.0778 18.7674 17.0778 19.3228C17.0771 20.0674 16.781 20.7813 16.2545 21.3077C15.728 21.8342 15.0142 22.1303 14.2696 22.131ZM14.2696 18.051C14.018 18.051 13.772 18.1257 13.5628 18.2655C13.3536 18.4053 13.1905 18.604 13.0942 18.8365C12.998 19.069 12.9728 19.3248 13.0219 19.5716C13.071 19.8184 13.1922 20.045 13.3702 20.2229C13.5481 20.4008 13.7749 20.522 14.0217 20.571C14.2685 20.6201 14.5243 20.5948 14.7567 20.4985C14.9892 20.4021 15.1879 20.239 15.3276 20.0297C15.4673 19.8205 15.5419 19.5745 15.5418 19.3228C15.5415 18.9856 15.4074 18.6622 15.1688 18.4237C14.9303 18.1853 14.6069 18.0512 14.2696 18.051Z" fill="#111827"/>
</svg>
