<svg width="48" height="48" viewBox="0 0 48 48" fill="none" xmlns="http://www.w3.org/2000/svg">
<path d="M31.0189 36.0001C30.6956 36.0003 30.3795 35.9045 30.1106 35.7248L24.0004 31.6501L17.8901 35.7233C17.5344 35.948 17.1073 36.0311 16.6933 35.9562C16.2792 35.8814 15.9083 35.654 15.6536 35.3191C15.5022 35.1083 15.4028 34.8647 15.3637 34.6081C15.3246 34.3515 15.3469 34.0894 15.4286 33.8431L17.8429 26.6018L12.1504 23.4406C11.8238 23.2588 11.5641 22.9772 11.4092 22.6371C11.2543 22.2969 11.2125 21.9161 11.2898 21.5505C11.3671 21.1848 11.5595 20.8535 11.8389 20.6052C12.1182 20.3569 12.4697 20.2045 12.8419 20.1706L19.7254 19.5451L22.2754 13.1701C22.4132 12.8252 22.6513 12.5297 22.9587 12.3215C23.2662 12.1132 23.629 12.002 24.0004 12.002C24.3717 12.002 24.7346 12.1132 25.042 12.3215C25.3495 12.5297 25.5875 12.8252 25.7254 13.1701L28.2754 19.5451L35.1589 20.1706C35.5313 20.2042 35.8832 20.3564 36.1627 20.6047C36.4423 20.8531 36.6349 21.1845 36.7122 21.5504C36.7895 21.9163 36.7474 22.2973 36.5922 22.6375C36.4369 22.9777 36.1767 23.2592 35.8496 23.4406L30.1579 26.6033L32.5721 33.8446C32.6541 34.0907 32.6764 34.3528 32.6373 34.6092C32.5981 34.8657 32.4986 35.1092 32.347 35.3197C32.1953 35.5301 31.9958 35.7016 31.7649 35.8199C31.534 35.9382 31.2783 35.9999 31.0189 36.0001ZM24.0004 30.0001C24.1485 30 24.2934 30.0439 24.4166 30.1261L30.9416 34.4761C30.972 34.4932 31.0075 34.4992 31.0418 34.4931C31.0762 34.4869 31.1073 34.469 31.1299 34.4423C31.1431 34.4249 31.1517 34.4044 31.155 34.3828C31.1582 34.3612 31.1561 34.3391 31.1486 34.3186L28.5386 26.4871C28.4834 26.3211 28.4879 26.1411 28.5513 25.9782C28.6147 25.8152 28.733 25.6795 28.8859 25.5946L35.1221 22.1296C35.1689 22.1039 35.2061 22.0639 35.2284 22.0155C35.2506 21.967 35.2567 21.9127 35.2456 21.8606C35.2346 21.8084 35.2071 21.7612 35.1672 21.7259C35.1272 21.6906 35.077 21.6691 35.0239 21.6646L27.6829 21.0001C27.545 20.9877 27.4133 20.9375 27.3022 20.8549C27.1912 20.7723 27.1051 20.6605 27.0536 20.5321L24.3326 13.7251C24.3009 13.6644 24.2531 13.6136 24.1946 13.5781C24.136 13.5427 24.0689 13.5239 24.0004 13.5239C23.9319 13.5239 23.8648 13.5427 23.8062 13.5781C23.7476 13.6136 23.6999 13.6644 23.6681 13.7251L20.9471 20.5291C20.8961 20.6581 20.8103 20.7704 20.6992 20.8536C20.5881 20.9367 20.4561 20.9874 20.3179 21.0001L12.9769 21.6676C12.924 21.6725 12.8741 21.6941 12.8344 21.7294C12.7948 21.7647 12.7674 21.8117 12.7563 21.8636C12.7453 21.9156 12.7511 21.9697 12.773 22.018C12.7949 22.0664 12.8316 22.1065 12.8779 22.1326L19.1149 25.5976C19.2677 25.6825 19.3861 25.8182 19.4495 25.9812C19.5129 26.1441 19.5174 26.3241 19.4621 26.4901L16.8514 34.3193C16.844 34.3399 16.8418 34.362 16.8451 34.3836C16.8483 34.4052 16.857 34.4256 16.8701 34.4431C16.8927 34.4697 16.9238 34.4877 16.9582 34.4938C16.9926 34.5 17.028 34.494 17.0584 34.4768L23.5834 30.1268C23.7068 30.0442 23.8519 30.0001 24.0004 30.0001Z" fill="#111827"/>
<path d="M42.2679 34.5C41.9445 34.5002 41.6284 34.4044 41.3596 34.2247L35.2494 30.15L33.4156 31.3725C33.2501 31.4829 33.0475 31.523 32.8525 31.4841C32.6574 31.4451 32.4858 31.3302 32.3754 31.1647C32.265 30.9992 32.2248 30.7967 32.2638 30.6016C32.3028 30.4065 32.4176 30.2349 32.5831 30.1245L34.8331 28.6245C34.9564 28.5423 35.1012 28.4984 35.2494 28.4984C35.3975 28.4984 35.5424 28.5423 35.6656 28.6245L42.1906 32.9745C42.221 32.9916 42.2565 32.9977 42.2908 32.9915C42.3252 32.9853 42.3563 32.9674 42.3789 32.9407C42.392 32.9233 42.4007 32.9029 42.4039 32.8812C42.4072 32.8596 42.405 32.8375 42.3976 32.817L39.7876 24.987C39.7324 24.8211 39.7368 24.6411 39.8002 24.4781C39.8637 24.3151 39.982 24.1794 40.1349 24.0945L46.3711 20.6295C46.4178 20.6039 46.4551 20.5639 46.4773 20.5154C46.4996 20.467 46.5056 20.4127 46.4946 20.3605C46.4836 20.3084 46.4561 20.2611 46.4161 20.2258C46.3762 20.1905 46.326 20.169 46.2729 20.1645L38.9319 19.5C38.794 19.4876 38.6623 19.4374 38.5512 19.3548C38.4401 19.2722 38.3541 19.1605 38.3026 19.032L35.5816 12.225C35.5499 12.1643 35.5021 12.1135 35.4436 12.0781C35.385 12.0426 35.3178 12.0239 35.2494 12.0239C35.1809 12.0239 35.1137 12.0426 35.0552 12.0781C34.9966 12.1135 34.9489 12.1643 34.9171 12.225L32.4961 18.279C32.4595 18.3705 32.4052 18.4539 32.3363 18.5244C32.2674 18.5949 32.1854 18.6512 32.0948 18.6899C32.0041 18.7287 31.9068 18.7493 31.8082 18.7505C31.7097 18.7516 31.6119 18.7334 31.5204 18.6967C31.4289 18.6601 31.3455 18.6058 31.275 18.5369C31.2045 18.4681 31.1482 18.386 31.1094 18.2954C31.0706 18.2048 31.05 18.1074 31.0489 18.0089C31.0477 17.9103 31.066 17.8125 31.1026 17.721L33.5244 11.6677C33.6622 11.3229 33.9002 11.0273 34.2077 10.8191C34.5152 10.6109 34.878 10.4996 35.2494 10.4996C35.6207 10.4996 35.9835 10.6109 36.291 10.8191C36.5985 11.0273 36.8365 11.3229 36.9744 11.6677L39.5244 18.0427L46.4079 18.6682C46.7803 18.7019 47.1321 18.854 47.4117 19.1024C47.6913 19.3507 47.8839 19.6822 47.9612 20.0481C48.0384 20.414 47.9964 20.795 47.8411 21.1352C47.6859 21.4754 47.4256 21.7569 47.0986 21.9382L41.4069 25.101L43.8211 32.3422C43.9035 32.5885 43.9262 32.8508 43.8872 33.1076C43.8483 33.3644 43.7489 33.6082 43.5971 33.8189C43.4454 34.0297 43.2458 34.2014 43.0146 34.3198C42.7835 34.4382 42.5276 34.5 42.2679 34.5Z" fill="#111827"/>
<path d="M5.73189 34.5001C5.4724 34.5 5.21662 34.4384 4.98563 34.3201C4.75464 34.2019 4.55505 34.0305 4.4033 33.82C4.25154 33.6095 4.15197 33.3659 4.11278 33.1094C4.07359 32.8529 4.09591 32.5908 4.17789 32.3446L6.59214 25.1033L0.900391 21.9406C0.57382 21.7588 0.314059 21.4772 0.159186 21.1371C0.00431254 20.7969 -0.0375284 20.4161 0.0397963 20.0505C0.117121 19.6848 0.309545 19.3535 0.588861 19.1052C0.868177 18.8569 1.2197 18.7045 1.59189 18.6706L8.47539 18.0451L11.0254 11.6701C11.1632 11.3253 11.4013 11.0297 11.7087 10.8215C12.0162 10.6132 12.379 10.502 12.7504 10.502C13.1217 10.502 13.4846 10.6132 13.792 10.8215C14.0995 11.0297 14.3375 11.3253 14.4754 11.6701L16.8971 17.7233C16.9711 17.9081 16.9687 18.1147 16.8903 18.2977C16.812 18.4807 16.6642 18.6251 16.4794 18.6991C16.2946 18.7731 16.088 18.7706 15.905 18.6923C15.722 18.6139 15.5776 18.4661 15.5036 18.2813L13.0826 12.2251C13.0509 12.1644 13.0031 12.1136 12.9446 12.0781C12.886 12.0427 12.8189 12.0239 12.7504 12.0239C12.6819 12.0239 12.6148 12.0427 12.5562 12.0781C12.4976 12.1136 12.4499 12.1644 12.4181 12.2251L9.69714 19.0291C9.64609 19.1581 9.56025 19.2704 9.44916 19.3536C9.33807 19.4367 9.20608 19.4874 9.06789 19.5001L1.72689 20.1676C1.67403 20.1725 1.62412 20.1941 1.58444 20.2294C1.54477 20.2647 1.5174 20.3117 1.50635 20.3636C1.49529 20.4156 1.50112 20.4697 1.52299 20.518C1.54485 20.5664 1.58161 20.6065 1.62789 20.6326L7.86489 24.0976C8.01774 24.1825 8.1361 24.3182 8.19951 24.4812C8.26292 24.6441 8.26739 24.8241 8.21214 24.9901L5.60139 32.8193C5.59396 32.8399 5.59179 32.862 5.59506 32.8836C5.59834 32.9052 5.60696 32.9256 5.62014 32.9431C5.64269 32.9697 5.67383 32.9877 5.70819 32.9938C5.74255 33 5.77799 32.994 5.80839 32.9768L12.3334 28.6268C12.4566 28.5446 12.6015 28.5007 12.7496 28.5007C12.8978 28.5007 13.0426 28.5446 13.1659 28.6268L15.4159 30.1268C15.4978 30.1815 15.5682 30.2517 15.623 30.3336C15.6778 30.4155 15.7159 30.5073 15.7352 30.6039C15.7545 30.7005 15.7546 30.8 15.7354 30.8966C15.7163 30.9932 15.6783 31.0851 15.6236 31.1671C15.569 31.249 15.4987 31.3194 15.4168 31.3742C15.335 31.429 15.2431 31.4671 15.1465 31.4864C15.0499 31.5057 14.9505 31.5057 14.8539 31.4866C14.7572 31.4675 14.6653 31.4295 14.5834 31.3748L12.7504 30.1501L6.64014 34.2248C6.37132 34.4045 6.05522 34.5003 5.73189 34.5001Z" fill="#111827"/>
<path d="M24 6C23.8011 6 23.6103 5.92098 23.4697 5.78033C23.329 5.63968 23.25 5.44891 23.25 5.25V2.25C23.25 2.05109 23.329 1.86032 23.4697 1.71967C23.6103 1.57902 23.8011 1.5 24 1.5C24.1989 1.5 24.3897 1.57902 24.5303 1.71967C24.671 1.86032 24.75 2.05109 24.75 2.25V5.25C24.75 5.44891 24.671 5.63968 24.5303 5.78033C24.3897 5.92098 24.1989 6 24 6Z" fill="#111827"/>
<path d="M17.2499 8.99994C17.051 8.9999 16.8603 8.92085 16.7197 8.78019L14.4547 6.51444C14.3181 6.37299 14.2425 6.18354 14.2442 5.98689C14.2459 5.79024 14.3248 5.60213 14.4638 5.46308C14.6029 5.32402 14.791 5.24515 14.9876 5.24344C15.1843 5.24173 15.3737 5.31732 15.5152 5.45394L17.7802 7.71969C17.885 7.82458 17.9564 7.9582 17.9854 8.10367C18.0143 8.24913 17.9994 8.39991 17.9427 8.53693C17.8859 8.67396 17.7898 8.79108 17.6665 8.87349C17.5432 8.95591 17.3982 8.99991 17.2499 8.99994Z" fill="#111827"/>
<path d="M30.7498 8.99994C30.6015 8.99991 30.4566 8.95591 30.3332 8.87349C30.2099 8.79108 30.1138 8.67396 30.0571 8.53693C30.0003 8.39991 29.9855 8.24913 30.0144 8.10367C30.0433 7.9582 30.1147 7.82458 30.2196 7.71969L32.4846 5.45394C32.626 5.31732 32.8155 5.24173 33.0121 5.24344C33.2088 5.24515 33.3969 5.32402 33.536 5.46308C33.675 5.60213 33.7539 5.79024 33.7556 5.98689C33.7573 6.18354 33.6817 6.37299 33.5451 6.51444L31.2801 8.78019C31.1395 8.92085 30.9487 8.9999 30.7498 8.99994Z" fill="#111827"/>
<path d="M24 46.5C23.8011 46.5 23.6103 46.421 23.4697 46.2803C23.329 46.1397 23.25 45.9489 23.25 45.75V42.75C23.25 42.5511 23.329 42.3603 23.4697 42.2197C23.6103 42.079 23.8011 42 24 42C24.1989 42 24.3897 42.079 24.5303 42.2197C24.671 42.3603 24.75 42.5511 24.75 42.75V45.75C24.75 45.9489 24.671 46.1397 24.5303 46.2803C24.3897 46.421 24.1989 46.5 24 46.5Z" fill="#111827"/>
<path d="M14.985 42.7658C14.8366 42.7659 14.6915 42.722 14.5681 42.6396C14.4447 42.5573 14.3484 42.4402 14.2916 42.3031C14.2348 42.1661 14.2198 42.0152 14.2487 41.8697C14.2776 41.7242 14.3491 41.5905 14.454 41.4855L16.719 39.2198C16.8596 39.079 17.0504 38.9999 17.2493 38.9999C17.4483 38.9998 17.6391 39.0788 17.7798 39.2194C17.9206 39.36 17.9997 39.5508 17.9997 39.7498C17.9998 39.9487 17.9208 40.1395 17.7802 40.2803L15.5152 42.5468C15.3745 42.6872 15.1838 42.7659 14.985 42.7658Z" fill="#111827"/>
<path d="M33.0148 42.7658C32.816 42.7659 32.6253 42.6872 32.4845 42.5468L30.2195 40.2803C30.0789 40.1395 29.9999 39.9487 30 39.7498C30.0001 39.5508 30.0792 39.36 30.2199 39.2194C30.3606 39.0788 30.5515 38.9998 30.7504 38.9999C30.9494 38.9999 31.1401 39.079 31.2808 39.2198L33.5458 41.4855C33.6507 41.5905 33.7221 41.7242 33.751 41.8697C33.7799 42.0152 33.765 42.1661 33.7081 42.3031C33.6513 42.4402 33.5551 42.5573 33.4317 42.6396C33.3082 42.722 33.1632 42.7659 33.0148 42.7658Z" fill="#111827"/>
</svg>
