<svg width="48" height="48" viewBox="0 0 48 48" fill="none" xmlns="http://www.w3.org/2000/svg">
<path d="M20.25 31.4998C8.89425 31.4998 0 26.558 0 20.2498C0 13.9415 8.89425 8.99977 20.25 8.99977C25.0358 8.91233 29.7761 9.9421 34.0942 12.0073C34.271 12.0986 34.4042 12.2563 34.4646 12.4459C34.525 12.6354 34.5077 12.8412 34.4164 13.0179C34.3251 13.1946 34.1673 13.3279 33.9778 13.3883C33.7882 13.4487 33.5825 13.4313 33.4058 13.34C29.3006 11.3843 24.7963 10.4118 20.25 10.4998C9.91125 10.4998 1.5 14.8738 1.5 20.2498C1.5 25.6258 9.91125 29.9998 20.25 29.9998C22.874 30.0066 25.4898 29.7063 28.044 29.105L19.719 20.78C19.6141 20.6751 19.5427 20.5414 19.5138 20.3959C19.4849 20.2503 19.4998 20.0995 19.5566 19.9624C19.6135 19.8254 19.7097 19.7083 19.8331 19.6259C19.9565 19.5435 20.1016 19.4996 20.25 19.4998H38.9445C38.622 17.3473 36.9668 15.7018 35.5553 14.663C35.3949 14.5451 35.288 14.3682 35.2581 14.1715C35.2281 13.9747 35.2775 13.7741 35.3955 13.6138C35.5135 13.4534 35.6903 13.3465 35.887 13.3166C36.0838 13.2866 36.2844 13.3361 36.4447 13.454C39.0975 15.407 40.5 17.7575 40.5 20.2498C40.5 20.4487 40.421 20.6394 40.2803 20.7801C40.1397 20.9207 39.9489 20.9998 39.75 20.9998H22.0605L29.7803 28.7195C29.9209 28.8601 30 29.0509 30 29.2498V29.5648C30.0001 29.7283 29.9467 29.8874 29.848 30.0178C29.7493 30.1481 29.6107 30.2427 29.4532 30.287C26.4553 31.1099 23.3588 31.5179 20.25 31.4998Z" fill="#111827"/>
<path d="M20.25 38.25C8.89425 38.25 0 33.3083 0 27V20.25C0 20.0511 0.0790176 19.8603 0.21967 19.7197C0.360322 19.579 0.551088 19.5 0.75 19.5C0.948912 19.5 1.13968 19.579 1.28033 19.7197C1.42098 19.8603 1.5 20.0511 1.5 20.25C1.5 25.626 9.91125 30 20.25 30C23.221 30.0127 26.1801 29.6234 29.0468 28.8428C29.1583 28.8114 29.2756 28.8062 29.3894 28.8278C29.5033 28.8493 29.6106 28.8969 29.7029 28.9669C29.7953 29.0369 29.8702 29.1273 29.9217 29.2311C29.9733 29.3348 30 29.4491 30 29.565V36.315C30.0001 36.4785 29.9467 36.6376 29.848 36.768C29.7493 36.8984 29.6107 36.9929 29.4532 37.0372C26.4553 37.8601 23.3588 38.2682 20.25 38.25ZM1.5 24.5782V27C1.5 32.376 9.91125 36.75 20.25 36.75C23.0314 36.7593 25.8029 36.4201 28.5 35.7405V30.5385C25.7987 31.1898 23.0287 31.5127 20.25 31.5C11.67 31.5 4.49475 28.6785 1.5 24.5782Z" fill="#111827"/>
<path d="M36.75 39.75C36.5511 39.75 36.3603 39.671 36.2197 39.5303C36.079 39.3897 36 39.1989 36 39V32.25C36 32.0511 36.079 31.8603 36.2197 31.7197C36.3603 31.579 36.5511 31.5 36.75 31.5C36.9489 31.5 37.1397 31.579 37.2803 31.7197C37.421 31.8603 37.5 32.0511 37.5 32.25V37.9943C43.1565 36.2093 46.5 33.2595 46.5 30V23.25C46.5 23.0511 46.579 22.8603 46.7197 22.7197C46.8603 22.579 47.0511 22.5 47.25 22.5C47.4489 22.5 47.6397 22.579 47.7803 22.7197C47.921 22.8603 48 23.0511 48 23.25V30C48 34.212 43.9733 37.7565 36.9525 39.7223C36.8866 39.7407 36.8185 39.75 36.75 39.75Z" fill="#111827"/>
<path d="M36.7498 33C36.5509 33 36.3602 32.9209 36.2196 32.7803L27.2196 23.7803C27.1147 23.6754 27.0433 23.5417 27.0144 23.3963C26.9855 23.2508 27.0003 23.1 27.0571 22.963C27.1138 22.826 27.2099 22.7089 27.3332 22.6264C27.4566 22.544 27.6015 22.5 27.7498 22.5H47.2498C47.4488 22.5 47.6395 22.579 47.7802 22.7197C47.9208 22.8603 47.9998 23.0511 47.9998 23.25C47.9998 27.462 43.9731 31.0065 36.9523 32.9723C36.8864 32.9907 36.8183 33 36.7498 33ZM29.5603 24L36.9673 31.407C42.4978 29.775 45.9531 27.0578 46.4406 24H29.5603Z" fill="#111827"/>
<path d="M36.7501 39.7501C36.5512 39.75 36.3604 39.671 36.2198 39.5303L30.9698 34.2803C30.8332 34.1389 30.7576 33.9494 30.7593 33.7528C30.761 33.5561 30.8399 33.368 30.9789 33.2289C31.118 33.0899 31.3061 33.011 31.5028 33.0093C31.6994 33.0076 31.8889 33.0832 32.0303 33.2198L37.2803 38.4698C37.3852 38.5747 37.4566 38.7083 37.4855 38.8538C37.5144 38.9993 37.4996 39.15 37.4428 39.2871C37.3861 39.4241 37.29 39.5412 37.1667 39.6236C37.0433 39.706 36.8984 39.75 36.7501 39.7501Z" fill="#111827"/>
<path d="M27.75 25.5C27.5511 25.5 27.3603 25.421 27.2197 25.2803C27.079 25.1397 27 24.9489 27 24.75V23.25C27 23.0511 27.079 22.8603 27.2197 22.7197C27.3603 22.579 27.5511 22.5 27.75 22.5C27.9489 22.5 28.1397 22.579 28.2803 22.7197C28.421 22.8603 28.5 23.0511 28.5 23.25V24.75C28.5 24.9489 28.421 25.1397 28.2803 25.2803C28.1397 25.421 27.9489 25.5 27.75 25.5Z" fill="#111827"/>
</svg>
