<svg width="134" height="58" viewBox="0 0 134 58" fill="none" xmlns="http://www.w3.org/2000/svg">
<rect width="19.0352" height="19.0352" transform="translate(0 0.561279)" fill="#219653"/>
<path d="M9.51777 13.5776L12.4127 12.8024L13.6222 16.7411L9.51777 13.5776ZM16.1801 8.48656H11.0842L9.51777 3.4165L7.95134 8.48656H2.85547L6.97976 11.6292L5.41332 16.6992L9.5376 13.5566L12.0756 11.6292L16.1801 8.48656Z" fill="white"/>
<rect width="19.0352" height="19.0352" transform="translate(20.9375 0.561279)" fill="#219653"/>
<path d="M30.4553 13.5776L33.3502 12.8024L34.5597 16.7411L30.4553 13.5776ZM37.1176 8.48656H32.0217L30.4553 3.4165L28.8888 8.48656H23.793L27.9173 11.6292L26.3508 16.6992L30.4751 13.5566L33.0131 11.6292L37.1176 8.48656Z" fill="white"/>
<rect width="19.0352" height="19.0352" transform="translate(41.8789 0.561279)" fill="#219653"/>
<path d="M51.3967 13.5776L54.2916 12.8024L55.5011 16.7411L51.3967 13.5776ZM58.059 8.48656H52.9631L51.3967 3.4165L49.8302 8.48656H44.7344L48.8587 11.6292L47.2922 16.6992L51.4165 13.5566L53.9545 11.6292L58.059 8.48656Z" fill="white"/>
<rect width="19.0352" height="19.0352" transform="translate(62.8164 0.561279)" fill="#219653"/>
<path d="M72.3342 13.5776L75.2291 12.8024L76.4386 16.7411L72.3342 13.5776ZM78.9965 8.48656H73.9006L72.3342 3.4165L70.7677 8.48656H65.6719L69.7962 11.6292L68.2297 16.6992L72.354 13.5566L74.892 11.6292L78.9965 8.48656Z" fill="white"/>
<rect width="19.0352" height="19.0352" transform="translate(83.7539 0.561279)" fill="url(#paint0_linear_553_21795)"/>
<path d="M93.2717 13.5776L96.1666 12.8024L97.3761 16.7411L93.2717 13.5776ZM99.934 8.48656H94.8381L93.2717 3.4165L91.7052 8.48656H86.6094L90.7337 11.6292L89.1672 16.6992L93.2915 13.5566L95.8295 11.6292L99.934 8.48656Z" fill="white"/>
<path d="M11.06 46.7576L15.8659 45.5443L17.8738 51.7093L11.06 46.7576ZM22.12 38.7891H13.6604L11.06 30.8533L8.4596 38.7891H0L6.84668 43.7079L4.24625 51.6437L11.0929 46.7248L15.3063 43.7079L22.12 38.7891Z" fill="#219653"/>
<path d="M23.5186 35.9965V33.5355H35.1146V35.9965H30.6514V48.7812H27.9818V35.9965H23.5186ZM42.0028 38.4367V40.7934H41.0642C39.2289 40.7934 38.0818 41.7736 38.0818 43.7758V48.7812H35.5374V38.4992H37.9358L38.0818 40.0009C38.5198 38.9789 39.5 38.2907 40.8765 38.2907C41.2311 38.2907 41.5856 38.3324 42.0028 38.4367ZM50.7118 38.4784H53.2562V48.7812H50.8995L50.7118 47.4048C50.0861 48.385 48.7513 49.0524 47.3748 49.0524C44.9972 49.0524 43.5999 47.4465 43.5999 44.9229V38.4784H46.1443V44.0261C46.1443 45.9865 46.916 46.7791 48.3342 46.7791C49.9401 46.7791 50.7118 45.8405 50.7118 43.8801V38.4784ZM54.888 45.6528H57.3073C57.3282 46.5497 57.9956 47.1128 59.1635 47.1128C60.3523 47.1128 60.9989 46.6331 60.9989 45.8823C60.9989 45.3609 60.7277 44.9855 59.8101 44.7769L57.9539 44.3389C56.0977 43.9218 55.2009 43.0458 55.2009 41.3982C55.2009 39.3752 56.9111 38.1655 59.2887 38.1655C61.6037 38.1655 63.1679 39.5003 63.1887 41.5025H60.7694C60.7486 40.6265 60.1646 40.0634 59.1844 40.0634C58.1833 40.0634 57.5993 40.5223 57.5993 41.2939C57.5993 41.8779 58.0582 42.2533 58.9341 42.4619L60.7903 42.8998C62.5214 43.2961 63.3973 44.0886 63.3973 45.6737C63.3973 47.7593 61.6245 49.0524 59.0801 49.0524C56.5148 49.0524 54.888 47.6759 54.888 45.6528ZM68.8385 48.7812H66.294V40.6057H64.3127V38.4784H66.294V35.2665H68.8385V38.4784H70.8406V40.6057H68.8385V48.7812ZM72.4224 53.5573V38.4784H74.7792L74.946 40.0426C75.5717 38.8538 76.9273 38.1655 78.4915 38.1655C81.3905 38.1655 83.3093 40.272 83.3093 43.5047C83.3093 46.7165 81.5574 49.0524 78.4915 49.0524C76.9482 49.0524 75.6134 48.4476 74.9669 47.4048V53.5573H72.4224ZM74.9877 43.6298C74.9877 45.486 76.1348 46.7582 77.8867 46.7582C79.6803 46.7582 80.744 45.4651 80.744 43.6298C80.744 41.7945 79.6803 40.4805 77.8867 40.4805C76.1348 40.4805 74.9877 41.7736 74.9877 43.6298ZM86.6075 36.4136C85.7315 36.4136 85.0433 35.7254 85.0433 34.8703C85.0433 34.0152 85.7315 33.3478 86.6075 33.3478C87.4417 33.3478 88.13 34.0152 88.13 34.8703C88.13 35.7254 87.4417 36.4136 86.6075 36.4136ZM85.3352 48.7812V38.4784H87.8797V48.7812H85.3352ZM93.0738 48.7812H90.5502V33.2644H93.0738V48.7812ZM95.1381 43.609C95.1381 40.3971 97.4531 38.1864 100.644 38.1864C103.835 38.1864 106.15 40.3971 106.15 43.609C106.15 46.8208 103.835 49.0315 100.644 49.0315C97.4531 49.0315 95.1381 46.8208 95.1381 43.609ZM97.6825 43.609C97.6825 45.486 98.8922 46.7582 100.644 46.7582C102.396 46.7582 103.606 45.486 103.606 43.609C103.606 41.7319 102.396 40.4597 100.644 40.4597C98.8922 40.4597 97.6825 41.7319 97.6825 43.609ZM111.569 48.7812H109.024V40.6057H107.043V38.4784H109.024V35.2665H111.569V38.4784H113.571V40.6057H111.569V48.7812Z" fill="#111827"/>
<defs>
<linearGradient id="paint0_linear_553_21795" x1="0" y1="9.51758" x2="19.0352" y2="9.51758" gradientUnits="userSpaceOnUse">
<stop offset="1" stop-color="#219653"/>
<stop offset="0.5" stop-color="#219653"/>
<stop offset="0.5001" stop-color="#219653" stop-opacity="0"/>
<stop offset="0.5002" stop-color="#D9D9D9"/>
<stop offset="0.9998" stop-color="#D9D9D9"/>
<stop offset="0.9999" stop-color="#219653" stop-opacity="0"/>
<stop offset="1" stop-color="#D9D9D9"/>
</linearGradient>
</defs>
</svg>
