<svg width="128" height="61" viewBox="0 0 128 61" fill="none" xmlns="http://www.w3.org/2000/svg">
<path d="M10.8881 5.53578C11.4269 3.87742 13.7731 3.87742 14.3119 5.53578L15.0248 7.72971C15.2657 8.47135 15.9568 8.97348 16.7367 8.97348H19.0435C20.7872 8.97348 21.5122 11.2048 20.1015 12.2297L18.2352 13.5856C17.6044 14.044 17.3404 14.8564 17.5813 15.5981L18.2942 17.792C18.833 19.4504 16.935 20.8294 15.5243 19.8045L13.658 18.4486C13.0271 17.9902 12.1729 17.9902 11.542 18.4486L9.67572 19.8045C8.26504 20.8294 6.36697 19.4504 6.90581 17.792L7.61866 15.5981C7.85963 14.8564 7.59565 14.044 6.96477 13.5856L5.0985 12.2297C3.68782 11.2048 4.41282 8.97348 6.15652 8.97348H8.46335C9.24316 8.97348 9.93428 8.47135 10.1752 7.72971L10.8881 5.53578Z" fill="#F2DF33"/>
<path d="M32.4897 5.53578C33.0285 3.87742 35.3746 3.87742 35.9135 5.53578L36.6263 7.72971C36.8673 8.47135 37.5584 8.97348 38.3382 8.97348H40.645C42.3887 8.97348 43.1137 11.2048 41.7031 12.2297L39.8368 13.5856C39.2059 14.044 38.9419 14.8564 39.1829 15.5981L39.8958 17.792C40.4346 19.4504 38.5365 20.8294 37.1258 19.8045L35.2596 18.4486C34.6287 17.9902 33.7744 17.9902 33.1435 18.4486L31.2773 19.8045C29.8666 20.8294 27.9685 19.4504 28.5074 17.792L29.2202 15.5981C29.4612 14.8564 29.1972 14.044 28.5663 13.5856L26.7001 12.2297C25.2894 11.2048 26.0144 8.97348 27.7581 8.97348H30.0649C30.8447 8.97348 31.5358 8.47135 31.7768 7.72971L32.4897 5.53578Z" fill="#F2DF33"/>
<path d="M54.0873 5.53578C54.6262 3.87742 56.9723 3.87742 57.5111 5.53578L58.224 7.72971C58.4649 8.47135 59.1561 8.97348 59.9359 8.97348H62.2427C63.9864 8.97348 64.7114 11.2048 63.3007 12.2297L61.4345 13.5856C60.8036 14.044 60.5396 14.8564 60.7806 15.5981L61.4934 17.792C62.0322 19.4504 60.1342 20.8294 58.7235 19.8045L56.8572 18.4486C56.2264 17.9902 55.3721 17.9902 54.7412 18.4486L52.8749 19.8045C51.4643 20.8294 49.5662 19.4504 50.105 17.792L50.8179 15.5981C51.0589 14.8564 50.7949 14.044 50.164 13.5856L48.2977 12.2297C46.887 11.2048 47.612 8.97348 49.3557 8.97348H51.6626C52.4424 8.97348 53.1335 8.47135 53.3745 7.72971L54.0873 5.53578Z" fill="#F2DF33"/>
<path d="M75.6889 5.53578C76.2277 3.87742 78.5738 3.87742 79.1127 5.53578L79.8255 7.72971C80.0665 8.47135 80.7576 8.97348 81.5374 8.97348H83.8443C85.588 8.97348 86.313 11.2048 84.9023 12.2297L83.036 13.5856C82.4051 14.044 82.1412 14.8564 82.3821 15.5981L83.095 17.792C83.6338 19.4504 81.7357 20.8294 80.3251 19.8045L78.4588 18.4486C77.8279 17.9902 76.9736 17.9902 76.3428 18.4486L74.4765 19.8045C73.0658 20.8294 71.1678 19.4504 71.7066 17.792L72.4194 15.5981C72.6604 14.8564 72.3964 14.044 71.7656 13.5856L69.8993 12.2297C68.4886 11.2048 69.2136 8.97348 70.9573 8.97348H73.2641C74.0439 8.97348 74.7351 8.47135 74.976 7.72971L75.6889 5.53578Z" fill="#F2DF33"/>
<path d="M97.5005 5.60531C97.972 4.15425 100.025 4.15425 100.496 5.60531L101.209 7.79924C101.48 8.63358 102.258 9.19848 103.135 9.19848H105.442C106.968 9.19848 107.602 11.1509 106.368 12.0477L104.501 13.4036C103.792 13.9193 103.495 14.8333 103.766 15.6676L104.479 17.8615C104.95 19.3126 103.289 20.5193 102.055 19.6224L100.189 18.2665C99.479 17.7509 98.5179 17.7509 97.8082 18.2665L95.9419 19.6224C94.7076 20.5193 93.0468 19.3126 93.5182 17.8615L94.2311 15.6676C94.5022 14.8333 94.2052 13.9193 93.4955 13.4036L91.6292 12.0477C90.3948 11.1509 91.0292 9.19848 92.555 9.19848H94.8618C95.7391 9.19848 96.5166 8.63358 96.7877 7.79924L97.5005 5.60531Z" stroke="#F2DF33" stroke-width="0.45"/>
<mask id="mask0_553_21810" style="mask-type:alpha" maskUnits="userSpaceOnUse" x="86" y="0" width="16" height="26">
<rect x="86.3984" y="0.26709" width="14.85" height="25.2" fill="#D9D9D9"/>
</mask>
<g mask="url(#mask0_553_21810)">
<path d="M97.2865 5.53578C97.8254 3.87742 100.172 3.87742 100.71 5.53578L101.423 7.72971C101.664 8.47135 102.355 8.97348 103.135 8.97348H105.442C107.186 8.97348 107.911 11.2048 106.5 12.2297L104.634 13.5856C104.003 14.044 103.739 14.8564 103.98 15.5981L104.693 17.792C105.231 19.4504 103.333 20.8294 101.923 19.8045L100.056 18.4486C99.4256 17.9902 98.5713 17.9902 97.9404 18.4486L96.0742 19.8045C94.6635 20.8294 92.7654 19.4504 93.3042 17.792L94.0171 15.5981C94.2581 14.8564 93.9941 14.044 93.3632 13.5856L91.4969 12.2297C90.0863 11.2048 90.8113 8.97348 92.555 8.97348H94.8618C95.6416 8.97348 96.3327 8.47135 96.5737 7.72971L97.2865 5.53578Z" fill="#F2DF33"/>
</g>
<g clip-path="url(#clip0_553_21810)">
<path d="M0.652344 39.0084L10.5656 39.0103L16.5935 39.0114V33.0396L0.652344 39.0084Z" fill="#FF9D28"/>
<path d="M16.5938 33.0396V54.1232L24.1225 30.2197L16.5938 33.0396Z" fill="#68C5ED"/>
<path d="M16.5943 39.0115L10.5664 39.0105L16.5943 54.1232V39.0115Z" fill="#044D80"/>
<path d="M0.652344 39.0085L12.1114 42.8882L10.5656 39.0105L0.652344 39.0085Z" fill="#E54747"/>
<path d="M37.1707 48.5731C37.0833 48.6605 36.9376 48.7696 36.734 48.9005C36.53 49.0316 36.2645 49.1626 35.937 49.2937C35.6095 49.4246 35.2089 49.5372 34.7361 49.6322C34.2628 49.7266 33.7208 49.774 33.1094 49.774C31.9302 49.774 30.9112 49.5847 30.0524 49.2064C29.1933 48.8281 28.4837 48.3001 27.9235 47.6234C27.363 46.9464 26.9519 46.146 26.6899 45.2214C26.4278 44.2971 26.2969 43.2819 26.2969 42.1754C26.2969 41.0694 26.4388 40.0466 26.7226 39.1077C27.0064 38.1687 27.4322 37.3575 27.9999 36.673C28.5676 35.989 29.2773 35.454 30.1289 35.0681C30.9805 34.6827 31.9811 34.4895 33.1312 34.4895C33.6989 34.4895 34.212 34.5406 34.6706 34.6423C35.1291 34.7443 35.5293 34.8645 35.8716 35.0026C36.2134 35.1411 36.4973 35.2864 36.7231 35.4393C36.9486 35.5921 37.1196 35.7198 37.2363 35.8214C37.3673 35.9381 37.4799 36.0763 37.5747 36.2362C37.6693 36.3966 37.7166 36.5713 37.7166 36.7603C37.7166 37.0517 37.6074 37.3427 37.3891 37.6337C37.1708 37.9251 36.9306 38.1944 36.6685 38.4417C36.4938 38.267 36.2973 38.0889 36.079 37.9068C35.8606 37.7248 35.6167 37.5649 35.3475 37.4264C35.078 37.2882 34.7723 37.1718 34.4304 37.077C34.0882 36.9825 33.7062 36.935 33.2841 36.935C32.5417 36.935 31.9195 37.0845 31.4172 37.3826C30.915 37.6812 30.511 38.0704 30.2054 38.5508C29.8997 39.0313 29.6814 39.5808 29.5503 40.1994C29.4193 40.8182 29.3538 41.4477 29.3538 42.0882C29.3538 42.7725 29.4193 43.4275 29.5503 44.0532C29.6813 44.6792 29.9068 45.2325 30.2272 45.7127C30.5472 46.193 30.9659 46.5789 31.4827 46.8699C31.9992 47.1613 32.6434 47.3066 33.4151 47.3066C33.8224 47.3066 34.1974 47.2558 34.5396 47.1539C34.8814 47.0521 35.1837 46.9282 35.4457 46.7824C35.7077 46.6372 35.9371 46.4845 36.1335 46.3242C36.33 46.164 36.4938 46.0259 36.6248 45.9092C36.7122 46.0113 36.8138 46.1351 36.9305 46.2805C37.0478 46.4274 37.1571 46.5804 37.258 46.739C37.3597 46.8993 37.4471 47.0593 37.52 47.2192C37.5927 47.3797 37.6291 47.525 37.6291 47.6558C37.6291 47.8453 37.5927 48.0053 37.52 48.1363C37.447 48.2674 37.3306 48.4131 37.1707 48.5731ZM48.4232 46.8985C48.4232 48.0554 48.5913 48.8975 48.9283 49.4247C48.6648 49.527 48.4194 49.6003 48.1924 49.6443C47.9653 49.6883 47.7274 49.7101 47.4785 49.7101C46.9514 49.7101 46.5522 49.6076 46.2815 49.4026C46.0103 49.1978 45.8383 48.9049 45.7653 48.524C45.4429 48.8611 45.0183 49.1466 44.4912 49.3809C43.964 49.6148 43.3194 49.7323 42.5581 49.7323C42.1627 49.7323 41.7673 49.6774 41.3719 49.5683C40.9764 49.4583 40.6176 49.2798 40.2955 49.0319C39.9732 48.7836 39.7097 48.4514 39.5047 48.0353C39.2995 47.6192 39.1972 47.1121 39.1972 46.5137C39.1972 45.7692 39.3764 45.1632 39.7354 44.6963C40.0941 44.2289 40.5444 43.8604 41.0864 43.5902C41.628 43.3204 42.2139 43.1346 42.8437 43.0322C43.4732 42.9299 44.0519 42.8644 44.579 42.8348C44.7549 42.8204 44.9268 42.8128 45.0953 42.8128H45.5676V42.413C45.5676 41.8501 45.4172 41.4502 45.1172 41.2134C44.8168 40.9766 44.3298 40.8578 43.6564 40.8578C43.0266 40.8578 42.4664 40.9604 41.976 41.1653C41.4852 41.3706 41.0056 41.6047 40.5372 41.8683C40.3319 41.6194 40.1671 41.3449 40.0429 41.0445C39.9184 40.7446 39.8562 40.5212 39.8562 40.3746C39.8562 40.1697 39.9694 39.972 40.1967 39.7815C40.4236 39.5914 40.7349 39.419 41.1303 39.2653C41.5258 39.1115 41.9795 38.9873 42.4923 38.8918C43.0047 38.7967 43.5466 38.7491 44.1178 38.7491C44.9086 38.7491 45.5786 38.8297 46.1277 38.9907C46.6769 39.152 47.1235 39.4009 47.4677 39.7375C47.8116 40.0746 48.057 40.4954 48.2035 41.0006C48.3497 41.5059 48.4232 42.0956 48.4232 42.7689L48.4232 46.8985ZM45.6113 44.3504H45.3039C45.2012 44.3504 45.0986 44.358 44.9964 44.3725C44.6301 44.402 44.2676 44.4458 43.909 44.5041C43.55 44.5629 43.2314 44.6654 42.9535 44.8118C42.6751 44.9583 42.4482 45.1488 42.2725 45.3828C42.0968 45.6172 42.0089 45.9176 42.0089 46.2836C42.0089 46.6936 42.1259 47.0412 42.3603 47.3269C42.5944 47.6125 42.9898 47.7553 43.5466 47.7553C43.8246 47.7553 44.0883 47.7189 44.3374 47.6453C44.5862 47.5724 44.8058 47.4771 44.9964 47.3599C45.1865 47.2428 45.3368 47.1147 45.4467 46.9754C45.5565 46.8364 45.6114 46.7084 45.6114 46.5911L45.6113 44.3504ZM53.8925 40.023C54.1259 39.745 54.4911 39.4629 54.9874 39.1773C55.4837 38.8917 56.1114 38.7489 56.8706 38.7489C57.411 38.7489 57.9255 38.8405 58.4147 39.0235C58.9034 39.2067 59.3379 39.5034 59.7174 39.9132C60.0971 40.3233 60.4 40.8652 60.6264 41.5387C60.8526 42.2125 60.9659 43.04 60.9659 44.0209C60.9659 45.1631 60.8343 46.1043 60.5716 46.8436C60.3087 47.5834 59.9695 48.1692 59.5536 48.601C59.1375 49.033 58.6738 49.3369 58.1631 49.5126C57.652 49.6883 57.1409 49.7763 56.6302 49.7763C56.2068 49.7763 55.838 49.7286 55.5244 49.6335C55.2103 49.5381 54.944 49.4323 54.725 49.3149C54.506 49.1979 54.3382 49.0809 54.2215 48.9634C54.1048 48.8464 54.0317 48.7657 54.0026 48.7217V54.1216H51.015V39.0564C51.0885 39.042 51.1771 39.0273 51.2807 39.0126C51.3693 38.9982 51.4726 38.9871 51.5906 38.9796C51.7086 38.9724 51.8488 38.9686 52.0111 38.9686C52.4978 38.9686 52.911 39.0493 53.2504 39.2103C53.5897 39.3716 53.804 39.6423 53.8925 40.023ZM57.8466 44.0867C57.8466 43.6474 57.8101 43.2377 57.7374 42.8567C57.6646 42.4761 57.5445 42.1465 57.377 41.8682C57.2095 41.5901 56.9836 41.374 56.6998 41.2201C56.4155 41.0664 56.07 40.9896 55.6625 40.9896C55.0509 40.9896 54.625 41.107 54.3846 41.341C54.1445 41.5754 54.0244 41.8319 54.0244 42.1099V46.7668C54.1407 46.8842 54.3479 47.023 54.6465 47.1842C54.9452 47.3454 55.2907 47.4256 55.6841 47.4256C56.4268 47.4256 56.9729 47.133 57.3224 46.5471C57.6719 45.9615 57.8466 45.1412 57.8466 44.0867ZM63.2716 47.8651C63.1689 47.5724 63.1031 47.2647 63.0739 46.9425C63.0444 46.6204 63.03 46.2984 63.03 45.9758V35.7834C63.1323 35.769 63.2421 35.7543 63.3595 35.7395C63.4616 35.7251 63.5715 35.7142 63.6889 35.7065C63.806 35.6994 63.923 35.6956 64.0403 35.6956C64.2744 35.6956 64.509 35.7176 64.7433 35.7615C64.9773 35.8055 65.1898 35.8933 65.3805 36.025C65.5706 36.1568 65.7243 36.3364 65.8416 36.5632C65.9588 36.7904 66.0174 37.087 66.0174 37.4528V39.0124H69.0928V41.2312H66.0174V45.9155C66.0174 46.937 66.4347 47.4476 67.2695 47.4476C67.4745 47.4476 67.6683 47.4149 67.8516 47.3488C68.0346 47.2829 68.1993 47.2098 68.3459 47.1292C68.4922 47.0487 68.6205 46.9645 68.7303 46.8766C68.8402 46.7887 68.917 46.7229 68.9609 46.679C69.1806 47.0013 69.3487 47.2804 69.4662 47.5158C69.5832 47.7516 69.6419 47.9729 69.6419 48.1796C69.6419 48.3719 69.5652 48.5606 69.4112 48.7452C69.2573 48.9299 69.0412 49.1001 68.7631 49.2552C68.4849 49.4103 68.1482 49.536 67.7527 49.6321C67.3574 49.7282 66.9252 49.7763 66.4567 49.7763C65.5485 49.7763 64.842 49.6005 64.3368 49.2492C63.8317 48.8975 63.4764 48.4362 63.2716 47.8651ZM76.6591 47.5795C77.0263 47.5795 77.3496 47.5394 77.6291 47.4586C77.9081 47.3784 78.1579 47.2795 78.3784 47.1623C78.5987 47.0453 78.79 46.9171 78.9517 46.7779C79.1132 46.6389 79.2601 46.5107 79.3927 46.3933C79.5688 46.6129 79.7524 46.8951 79.9436 47.2389C80.1345 47.5834 80.2302 47.8651 80.2302 48.0847C80.2302 48.407 80.0469 48.6999 79.6811 48.9634C79.3736 49.1979 78.9375 49.3993 78.3741 49.5674C77.8101 49.7357 77.1473 49.8201 76.3861 49.8201C75.6974 49.8201 75.0203 49.7323 74.3542 49.5565C73.6877 49.3809 73.0945 49.0732 72.5749 48.6338C72.0548 48.1947 71.6337 47.6053 71.3117 46.8657C70.9895 46.1262 70.8285 45.1928 70.8285 44.0649C70.8285 43.1422 70.9713 42.348 71.2567 41.6815C71.5424 41.0153 71.923 40.4624 72.3993 40.0231C72.8748 39.5837 73.413 39.2618 74.0136 39.0565C74.6139 38.8517 75.2291 38.749 75.8589 38.749C76.6789 38.749 77.3745 38.8774 77.9456 39.1334C78.5169 39.3898 78.9815 39.734 79.3406 40.1659C79.6992 40.5979 79.9591 41.0921 80.1203 41.6486C80.2812 42.2053 80.3619 42.7908 80.3619 43.4059V43.7134C80.3619 43.8308 80.3582 43.955 80.351 44.0868C80.3435 44.2187 80.3363 44.347 80.3291 44.4712C80.3215 44.5959 80.3105 44.6946 80.2962 44.7678H73.8159C73.8747 45.5733 74.1244 46.2432 74.5652 46.7779C75.0057 47.3126 75.7038 47.5795 76.6591 47.5795ZM77.6601 43.1202C77.6601 42.4173 77.5237 41.8462 77.2512 41.4069C76.9787 40.9676 76.4888 40.7478 75.7822 40.7478C75.178 40.7478 74.6958 40.9566 74.335 41.374C73.974 41.7914 73.7939 42.3734 73.7939 43.1202L77.6601 43.1202ZM85.5608 40.0785C85.6485 39.9478 85.7657 39.8026 85.9123 39.6426C86.0585 39.4828 86.238 39.3375 86.4504 39.2068C86.6626 39.0761 86.897 38.9669 87.1534 38.8797C87.4094 38.7926 87.6841 38.749 87.9772 38.749C88.1529 38.749 88.3397 38.7637 88.5373 38.7926C88.735 38.8217 88.9179 38.8763 89.0863 38.9559C89.2546 39.0359 89.3903 39.1447 89.4928 39.2827C89.5951 39.4207 89.6466 39.5913 89.6466 39.7945C89.6466 40.114 89.5659 40.481 89.405 40.8952C89.2436 41.3099 89.0828 41.6634 88.9218 41.9562C88.6725 41.7512 88.4236 41.5937 88.1748 41.4839C87.9257 41.3741 87.6328 41.3191 87.2961 41.3191C86.8421 41.3191 86.4614 41.4513 86.154 41.7155C85.8463 41.9798 85.6926 42.2956 85.6926 42.6628V49.7739H82.7052V39.0564C82.7783 39.042 82.8661 39.0273 82.9687 39.0126C83.0566 38.9982 83.159 38.9871 83.2763 38.9796C83.3934 38.9724 83.5324 38.9686 83.6936 38.9686C84.1622 38.9686 84.5685 39.0595 84.9128 39.2408C85.2567 39.422 85.473 39.7014 85.5608 40.0785ZM94.0545 40.0785C94.1424 39.9478 94.2594 39.8026 94.406 39.6426C94.5522 39.4828 94.7318 39.3375 94.9442 39.2068C95.1564 39.0761 95.3907 38.9669 95.6471 38.8797C95.9032 38.7926 96.1777 38.749 96.4709 38.749C96.6465 38.749 96.8332 38.7637 97.0309 38.7926C97.2285 38.8217 97.4116 38.8763 97.5801 38.9559C97.7484 39.0359 97.8838 39.1447 97.9867 39.2827C98.0889 39.4207 98.1404 39.5913 98.1404 39.7945C98.1404 40.114 98.0596 40.481 97.8987 40.8952C97.7373 41.3099 97.5764 41.6634 97.4154 41.9562C97.1664 41.7512 96.9172 41.5937 96.6685 41.4839C96.4195 41.3741 96.1266 41.3191 95.7899 41.3191C95.3359 41.3191 94.9551 41.4513 94.6477 41.7155C94.3401 41.9798 94.1864 42.2956 94.1864 42.6628V49.7739H91.1989V39.0564C91.272 39.042 91.3599 39.0273 91.4626 39.0126C91.5504 38.9982 91.6529 38.9871 91.7701 38.9796C91.8871 38.9724 92.0261 38.9686 92.1873 38.9686C92.656 38.9686 93.0623 39.0595 93.4064 39.2408C93.7503 39.422 93.9665 39.7014 94.0545 40.0785ZM108.311 46.8985C108.311 48.0554 108.479 48.8975 108.816 49.4247C108.553 49.527 108.307 49.6003 108.08 49.6443C107.853 49.6883 107.615 49.7101 107.367 49.7101C106.839 49.7101 106.44 49.6076 106.169 49.4026C105.898 49.1978 105.726 48.9049 105.653 48.524C105.331 48.8611 104.906 49.1466 104.379 49.3809C103.852 49.6148 103.207 49.7323 102.446 49.7323C102.05 49.7323 101.655 49.6774 101.26 49.5683C100.864 49.4583 100.505 49.2798 100.183 49.0319C99.8611 48.7836 99.5975 48.4514 99.3925 48.0353C99.1873 47.6192 99.0851 47.1121 99.0851 46.5137C99.0851 45.7692 99.2641 45.1632 99.6233 44.6963C99.9819 44.2289 100.432 43.8604 100.974 43.5902C101.516 43.3204 102.102 43.1346 102.732 43.0322C103.361 42.9299 103.94 42.8644 104.467 42.8348C104.643 42.8204 104.815 42.8128 104.983 42.8128H105.455V42.413C105.455 41.8501 105.305 41.4502 105.005 41.2134C104.705 40.9766 104.218 40.8578 103.544 40.8578C102.915 40.8578 102.354 40.9604 101.864 41.1653C101.373 41.3706 100.894 41.6047 100.425 41.8683C100.22 41.6194 100.055 41.3449 99.9307 41.0445C99.8063 40.7446 99.7441 40.5212 99.7441 40.3746C99.7441 40.1697 99.8573 39.972 100.085 39.7815C100.311 39.5914 100.623 39.419 101.018 39.2653C101.414 39.1115 101.867 38.9873 102.38 38.8918C102.893 38.7967 103.434 38.7491 104.006 38.7491C104.796 38.7491 105.466 38.8297 106.016 38.9907C106.565 39.152 107.011 39.4009 107.355 39.7375C107.699 40.0746 107.945 40.4954 108.091 41.0006C108.237 41.5059 108.311 42.0956 108.311 42.7689V46.8985ZM105.499 44.3504H105.192C105.089 44.3504 104.986 44.358 104.884 44.3725C104.518 44.402 104.155 44.4458 103.797 44.5041C103.438 44.5629 103.119 44.6654 102.841 44.8118C102.563 44.9583 102.336 45.1488 102.16 45.3828C101.985 45.6172 101.897 45.9176 101.897 46.2836C101.897 46.6936 102.014 47.0412 102.248 47.3269C102.482 47.6125 102.878 47.7553 103.434 47.7553C103.713 47.7553 103.976 47.7189 104.225 47.6453C104.474 47.5724 104.694 47.4771 104.884 47.3599C105.074 47.2428 105.225 47.1147 105.335 46.9754C105.444 46.8364 105.499 46.7084 105.499 46.5911L105.499 44.3504Z" fill="#044D80"/>
</g>
<defs>
<clipPath id="clip0_553_21810">
<rect width="110" height="25.2987" fill="white" transform="translate(0 29.6672)"/>
</clipPath>
</defs>
</svg>
