<svg width="23" height="24" viewBox="0 0 23 24" fill="none" xmlns="http://www.w3.org/2000/svg">
<path d="M22.5 12C22.5 12.96 21.3206 13.7512 21.0844 14.6362C20.8406 15.5512 21.4575 16.8263 20.9944 17.6269C20.5238 18.4406 19.1081 18.5381 18.4481 19.1981C17.7881 19.8581 17.6906 21.2738 16.8769 21.7444C16.0763 22.2075 14.8012 21.5906 13.8862 21.8344C13.0012 22.0706 12.21 23.25 11.25 23.25C10.29 23.25 9.49875 22.0706 8.61375 21.8344C7.69875 21.5906 6.42375 22.2075 5.62313 21.7444C4.80938 21.2738 4.71187 19.8581 4.05188 19.1981C3.39188 18.5381 1.97625 18.4406 1.50563 17.6269C1.0425 16.8263 1.65938 15.5512 1.41563 14.6362C1.17938 13.7512 0 12.96 0 12C0 11.04 1.17938 10.2487 1.41563 9.36375C1.65938 8.44875 1.0425 7.17375 1.50563 6.37313C1.97625 5.55938 3.39188 5.46187 4.05188 4.80188C4.71187 4.14188 4.80938 2.72625 5.62313 2.25563C6.42375 1.7925 7.69875 2.40938 8.61375 2.16563C9.49875 1.92938 10.29 0.75 11.25 0.75C12.21 0.75 13.0012 1.92938 13.8862 2.16563C14.8012 2.40938 16.0763 1.7925 16.8769 2.25563C17.6906 2.72625 17.7881 4.14188 18.4481 4.80188C19.1081 5.46187 20.5238 5.55938 20.9944 6.37313C21.4575 7.17375 20.8406 8.44875 21.0844 9.36375C21.3206 10.2487 22.5 11.04 22.5 12Z" fill="#64E1B0"/>
<path d="M14.5021 8.64754L10.2196 12.93L7.99961 10.7119C7.51773 10.23 6.73586 10.23 6.25398 10.7119C5.77211 11.1938 5.77211 11.9757 6.25398 12.4575L9.36836 15.5719C9.83711 16.0407 10.5984 16.0407 11.0671 15.5719L16.2459 10.3932C16.7277 9.91129 16.7277 9.12941 16.2459 8.64754C15.764 8.16566 14.984 8.16566 14.5021 8.64754Z" fill="white"/>
</svg>
