<svg width="48" height="48" viewBox="0 0 48 48" fill="none" xmlns="http://www.w3.org/2000/svg">
<path d="M21.2113 43.1366H7.33125C6.67689 43.1358 6.04956 42.8754 5.58689 42.4127C5.12423 41.95 4.86399 41.3226 4.86328 40.6682V18.7714C4.86451 17.9707 5.13274 17.1933 5.62552 16.5623L6.94648 14.8761C7.28047 14.4472 7.70826 14.1005 8.19703 13.8625C8.6858 13.6245 9.22258 13.5017 9.76619 13.5033H18.7737C19.3169 13.5017 19.8532 13.6244 20.3417 13.862C20.8302 14.0996 21.2578 14.4459 21.5919 14.8742L22.9155 16.5615C23.4092 17.1929 23.678 17.9711 23.6793 18.7726V40.6682C23.6786 41.3226 23.4183 41.95 22.9557 42.4127C22.493 42.8754 21.8657 43.1358 21.2113 43.1366ZM9.76811 15.0393C9.45761 15.0383 9.151 15.1085 8.87183 15.2444C8.59265 15.3803 8.34833 15.5784 8.15762 15.8234L6.83512 17.5104C6.55361 17.8708 6.40038 18.3148 6.39967 18.7722V40.669C6.39987 40.9162 6.49811 41.1531 6.67283 41.3279C6.84756 41.5027 7.08449 41.6011 7.33163 41.6014H21.2113C21.4585 41.6011 21.6954 41.5027 21.8701 41.3279C22.0448 41.1531 22.1431 40.9162 22.1433 40.669V18.7726C22.1426 18.315 21.9891 17.8707 21.7071 17.5104L20.3834 15.8208C20.1925 15.5762 19.9482 15.3785 19.6692 15.2428C19.3903 15.1071 19.0839 15.037 18.7737 15.0378L9.76811 15.0393Z" fill="#6D4DF2"/>
<path d="M28.0292 40.3111C27.7052 40.3119 27.3842 40.2487 27.0847 40.125C26.7853 40.0013 26.5132 39.8196 26.2843 39.5904L24.6181 37.9238L25.704 36.8378L27.3702 38.5036C27.5452 38.6779 27.7822 38.7758 28.0292 38.7758C28.2762 38.7758 28.5131 38.6779 28.6881 38.5036L38.5028 28.689C38.6773 28.5139 38.7753 28.2768 38.7753 28.0297C38.7753 27.7825 38.6773 27.5454 38.5028 27.3703L23.0199 11.8874C22.6958 11.5644 22.273 11.3588 21.8187 11.3034L19.6895 11.0461L19.8734 9.52124L22.0027 9.77852C22.7982 9.87554 23.5384 10.2356 24.1058 10.8015L39.5887 26.2844C40.0508 26.7477 40.3103 27.3753 40.3103 28.0297C40.3103 28.684 40.0508 29.3116 39.5887 29.7749L29.7744 39.5904C29.5453 39.8195 29.2732 40.0012 28.9737 40.1248C28.6742 40.2485 28.3532 40.3118 28.0292 40.3111Z" fill="#6D4DF2"/>
<path d="M40.6688 23.6794H38.2704V22.1434H40.6688C40.916 22.1431 41.1529 22.0448 41.3276 21.87C41.5023 21.6952 41.6006 21.4582 41.6008 21.2111V7.33176C41.6006 7.08461 41.5023 6.84764 41.3276 6.67284C41.1529 6.49805 40.916 6.39971 40.6688 6.3994H18.7724C18.3149 6.40002 17.8708 6.55341 17.5105 6.83524L15.8209 8.15928C15.5764 8.35012 15.3788 8.59434 15.2431 8.87326C15.1074 9.15219 15.0372 9.45844 15.038 9.76862V11.1637H13.502V9.76862C13.5004 9.22553 13.6231 8.68928 13.8607 8.20094C14.0983 7.71259 14.4445 7.2851 14.8728 6.95121L16.5601 5.62718C17.1913 5.13332 17.9694 4.86449 18.7708 4.8634H40.6673C41.3216 4.86422 41.949 5.12455 42.4116 5.58729C42.8743 6.05003 43.1345 6.67739 43.1353 7.33176V21.2111C43.1345 21.8651 42.8745 22.4923 42.4122 22.955C41.9498 23.4177 41.3229 23.6782 40.6688 23.6794Z" fill="#6D4DF2"/>
<path d="M14.2691 22.131C13.7137 22.131 13.1708 21.9663 12.709 21.6578C12.2472 21.3492 11.8872 20.9106 11.6747 20.3975C11.4622 19.8844 11.4065 19.3197 11.5149 18.775C11.6233 18.2303 11.8907 17.7299 12.2834 17.3372C12.6762 16.9444 13.1765 16.677 13.7213 16.5686C14.266 16.4603 14.8306 16.5159 15.3438 16.7284C15.8569 16.941 16.2955 17.3009 16.6041 17.7627C16.9126 18.2245 17.0773 18.7674 17.0773 19.3228C17.0766 20.0674 16.7805 20.7813 16.254 21.3077C15.7276 21.8342 15.0137 22.1303 14.2691 22.131ZM14.2691 18.051C14.0175 18.051 13.7715 18.1257 13.5623 18.2655C13.3531 18.4053 13.19 18.604 13.0937 18.8365C12.9975 19.069 12.9723 19.3248 13.0214 19.5716C13.0705 19.8184 13.1917 20.045 13.3697 20.2229C13.5476 20.4008 13.7744 20.522 14.0212 20.571C14.268 20.6201 14.5238 20.5948 14.7562 20.4985C14.9887 20.4021 15.1874 20.239 15.3271 20.0297C15.4669 19.8205 15.5414 19.5745 15.5413 19.3228C15.541 18.9856 15.4069 18.6622 15.1683 18.4237C14.9298 18.1853 14.6064 18.0512 14.2691 18.051Z" fill="#6D4DF2"/>
</svg>
