<svg width="18" height="21" viewBox="0 0 18 21" fill="none" xmlns="http://www.w3.org/2000/svg">
<path d="M1 3.71404V17.279V3.71404Z" fill="#6D4DF2"/>
<path d="M17 7.78547V17.2855V7.78547Z" fill="#6D4DF2"/>
<path d="M3.66666 0.999756H10.3333H3.66666Z" fill="#6D4DF2"/>
<path d="M3.66666 19.9998H14.3333H3.66666Z" fill="#6D4DF2"/>
<path d="M17 17.2855C17.0073 18.6411 15.6666 19.9998 14.3333 19.9998L17 17.2855Z" fill="#6D4DF2"/>
<path d="M1 17.2855C1 18.6426 2.33333 19.9998 3.66666 19.9998L1 17.2855Z" fill="#6D4DF2"/>
<path d="M1 3.71207C1 2.3569 2.33333 1.02998 3.66666 0.999756L1 3.71207Z" fill="#6D4DF2"/>
<path d="M16.9927 7.79156L10.3333 0.999756L16.9927 7.79156Z" fill="#6D4DF2"/>
<path d="M10.3333 5.07118C10.3374 6.42094 11.672 7.78547 13 7.78547L10.3333 5.07118Z" fill="#6D4DF2"/>
<path d="M10.3333 5.07118V0.999756V5.07118Z" fill="#6D4DF2"/>
<path d="M13 7.78547H17H13Z" fill="#6D4DF2"/>
<path d="M3.66666 17.2855H7.66665H3.66666Z" fill="#6D4DF2"/>
<path d="M3.66666 14.5712H10.3333H3.66666Z" fill="#6D4DF2"/>
<path d="M3.66666 11.8569H7.66665H3.66666Z" fill="#6D4DF2"/>
<path d="M1.5 3.71404C1.5 3.4379 1.27614 3.21404 1 3.21404C0.723858 3.21404 0.5 3.4379 0.5 3.71404H1.5ZM0.5 17.279C0.5 17.5551 0.723858 17.779 1 17.779C1.27614 17.779 1.5 17.5551 1.5 17.279H0.5ZM17 7.78547H17.5C17.5 7.50933 17.2761 7.28547 17 7.28547V7.78547ZM17 17.2855H16.5L16.5 17.2882L17 17.2855ZM3.66666 0.999756V0.499627L3.65533 0.499884L3.66666 0.999756ZM10.3333 0.999756L10.6903 0.6497C10.5963 0.553795 10.4676 0.499756 10.3333 0.499756V0.999756ZM1.5 17.2855C1.5 17.0093 1.27614 16.7855 1 16.7855C0.723858 16.7855 0.5 17.0093 0.5 17.2855H1.5ZM0.5 3.71207C0.5 3.98821 0.723858 4.21207 1 4.21207C1.27614 4.21207 1.5 3.98821 1.5 3.71207H0.5ZM16.6357 8.14161C16.829 8.33879 17.1456 8.34191 17.3427 8.14858C17.5399 7.95525 17.543 7.63868 17.3497 7.4415L16.6357 8.14161ZM10.3333 5.07118H9.83331L9.83332 5.0727L10.3333 5.07118ZM13 7.78547V8.28547V7.78547ZM3.66666 16.7855C3.39052 16.7855 3.16666 17.0093 3.16666 17.2855C3.16666 17.5616 3.39052 17.7855 3.66666 17.7855V16.7855ZM7.66665 17.7855C7.9428 17.7855 8.16665 17.5616 8.16665 17.2855C8.16665 17.0093 7.9428 16.7855 7.66665 16.7855V17.7855ZM3.66666 14.0712C3.39052 14.0712 3.16666 14.295 3.16666 14.5712C3.16666 14.8473 3.39052 15.0712 3.66666 15.0712V14.0712ZM10.3333 15.0712C10.6095 15.0712 10.8333 14.8473 10.8333 14.5712C10.8333 14.295 10.6095 14.0712 10.3333 14.0712V15.0712ZM3.66666 11.3569C3.39052 11.3569 3.16666 11.5808 3.16666 11.8569C3.16666 12.133 3.39052 12.3569 3.66666 12.3569V11.3569ZM7.66665 12.3569C7.9428 12.3569 8.16665 12.133 8.16665 11.8569C8.16665 11.5808 7.9428 11.3569 7.66665 11.3569V12.3569ZM0.5 3.71404V17.279H1.5V3.71404H0.5ZM16.5 7.78547V17.2855H17.5V7.78547H16.5ZM3.66666 1.49976H10.3333V0.499756H3.66666V1.49976ZM3.66666 20.4998H14.3333V19.4998H3.66666V20.4998ZM16.5 17.2882C16.5028 17.8043 16.2441 18.362 15.813 18.8003C15.3813 19.239 14.8344 19.4998 14.3333 19.4998V20.4998C15.1656 20.4998 15.9556 20.0811 16.5258 19.5016C17.0964 18.9216 17.5045 18.1222 17.5 17.2828L16.5 17.2882ZM0.5 17.2855C0.5 18.1236 0.906869 18.922 1.47666 19.502C2.04591 20.0814 2.83423 20.4998 3.66666 20.4998V19.4998C3.16577 19.4998 2.62075 19.2396 2.19 18.8011C1.7598 18.3632 1.5 17.8045 1.5 17.2855H0.5ZM1.5 3.71207C1.5 3.19548 1.7585 2.64521 2.18861 2.21088C2.61902 1.77624 3.16853 1.51118 3.67799 1.49963L3.65533 0.499884C2.83147 0.518559 2.04764 0.932065 1.47806 1.50723C0.908169 2.08271 0.5 2.87349 0.5 3.71207H1.5ZM17.3497 7.4415L10.6903 0.6497L9.9763 1.34981L16.6357 8.14161L17.3497 7.4415ZM9.83332 5.0727C9.83585 5.90696 10.2443 6.70463 10.8133 7.28463C11.3817 7.86405 12.1689 8.28547 13 8.28547V7.28547C12.5031 7.28547 11.959 7.02462 11.5271 6.58434C11.0958 6.14464 10.8349 5.58516 10.8333 5.06967L9.83332 5.0727ZM10.8333 5.07118V0.999756H9.83332V5.07118H10.8333ZM13 8.28547H17V7.28547H13V8.28547ZM3.66666 17.7855H7.66665V16.7855H3.66666V17.7855ZM3.66666 15.0712H10.3333V14.0712H3.66666V15.0712ZM3.66666 12.3569H7.66665V11.3569H3.66666V12.3569Z" fill="#6D4DF2"/>
</svg>
