<svg width="17" height="21" viewBox="0 0 17 21" fill="none" xmlns="http://www.w3.org/2000/svg">
<path d="M15.2812 5.90625V5.80086L15.5938 6.11336V18.375C15.5938 18.9386 15.3699 19.4791 14.9714 19.8776C14.5728 20.2761 14.0323 20.5 13.4688 20.5H2.96875C2.40516 20.5 1.86466 20.2761 1.46615 19.8776C1.06763 19.4791 0.84375 18.9386 0.84375 18.375V2.625C0.84375 2.06141 1.06763 1.52091 1.46615 1.1224C1.86466 0.723883 2.40516 0.5 2.96875 0.5H9.98039L10.2929 0.8125H10.1875H2.96875C2.48805 0.8125 2.02703 1.00346 1.68712 1.34337C1.34721 1.68328 1.15625 2.1443 1.15625 2.625V18.375C1.15625 18.8557 1.34721 19.3167 1.68712 19.6566C2.02703 19.9965 2.48805 20.1875 2.96875 20.1875H13.4688C13.9495 20.1875 14.4105 19.9965 14.7504 19.6566C15.0903 19.3167 15.2812 18.8557 15.2812 18.375V5.90625ZM10.6875 1.20711L14.8866 5.40625H14.7812H12.1562C11.7667 5.40625 11.3931 5.25151 11.1177 4.97606C10.8422 4.70062 10.6875 4.32704 10.6875 3.9375V1.3125V1.20711ZM6.93479 14.9569L6.85539 14.9805L6.97674 14.8002L6.84726 14.8595L6.8497 14.8551C6.97749 14.6254 7.10181 14.3938 7.22263 14.1605V14.2472V14.2485V14.8746C7.12644 14.9011 7.03049 14.9286 6.93479 14.9569ZM8.33491 11.7324L8.26002 11.9017C8.26353 11.893 8.26703 11.8844 8.27053 11.8757L8.3402 11.7024L8.42076 11.8747C8.44344 11.9232 8.46639 11.9716 8.48959 12.0198L8.33491 11.7324ZM8.40611 11.4858L8.3401 11.66L8.26427 11.4877C8.15611 11.242 8.05901 10.9916 7.97322 10.7375H8.32113H8.32244H8.67166C8.59204 10.9792 8.50317 11.2295 8.40611 11.4858ZM10.1993 14.3742C10.2772 14.368 10.3551 14.3632 10.433 14.3596V14.8391V14.8404V15.0118C10.3157 14.8793 10.2034 14.7424 10.0963 14.6013L9.93961 14.3947L10.1993 14.3742ZM9.80993 14.2468L9.9021 14.3771L9.79303 14.3894L9.89336 14.3744L9.80993 14.2468Z" fill="#6D4DF2" stroke="#6D4DF2"/>
</svg>
