<svg width="48" height="48" viewBox="0 0 48 48" fill="none" xmlns="http://www.w3.org/2000/svg">
<path d="M23.9992 43.9719C20.0491 43.9719 16.1878 42.8006 12.9034 40.606C9.61908 38.4115 7.05924 35.2923 5.54762 31.6429C4.036 27.9936 3.64049 23.9779 4.41111 20.1037C5.18172 16.2296 7.08386 12.6709 9.87697 9.87782C12.6701 7.08471 16.2287 5.18258 20.1029 4.41196C23.977 3.64134 27.9927 4.03685 31.6421 5.54847C35.2915 7.06009 38.4106 9.61994 40.6052 12.9043C42.7997 16.1886 43.971 20.05 43.971 24C43.9651 29.2951 41.8591 34.3716 38.1149 38.1158C34.3707 41.8599 29.2942 43.966 23.9992 43.9719ZM23.9992 5.56421C20.3529 5.56421 16.7885 6.64545 13.7568 8.67121C10.725 10.697 8.36206 13.5762 6.9667 16.945C5.57133 20.3137 5.20624 24.0205 5.91759 27.5967C6.62894 31.1729 8.38479 34.4579 10.9631 37.0362C13.5414 39.6145 16.8263 41.3703 20.4025 42.0816C23.9787 42.793 27.6856 42.4279 31.0543 41.0325C34.423 39.6372 37.3023 37.2742 39.328 34.2425C41.3538 31.2107 42.435 27.6463 42.435 24C42.4295 19.1122 40.4854 14.4262 37.0292 10.97C33.573 7.5138 28.887 5.5697 23.9992 5.56421Z" fill="#6D4DF2"/>
<path d="M23.2324 4.79614H24.7684V43.2038H23.2324V4.79614Z" fill="#6D4DF2"/>
<path d="M24 8.82776H36.7008V10.3638H24V8.82776Z" fill="#6D4DF2"/>
<path d="M24 13.6301H40.6341V15.1661H24V13.6301Z" fill="#6D4DF2"/>
<path d="M24 18.4324H42.5994V19.9684H24V18.4324Z" fill="#6D4DF2"/>
<path d="M24 23.2347H43.2008V24.7707H24V23.2347Z" fill="#6D4DF2"/>
<path d="M24 28.037H42.682V29.573H24V28.037Z" fill="#6D4DF2"/>
<path d="M24 32.8394H40.631V34.3754H24V32.8394Z" fill="#6D4DF2"/>
<path d="M24 37.6412H36.7008V39.1772H24V37.6412Z" fill="#6D4DF2"/>
</svg>
