<svg width="21" height="19" viewBox="0 0 21 19" fill="none" xmlns="http://www.w3.org/2000/svg">
<path d="M17.4887 18.0244L20.0354 13.3139C20.1312 13.1365 20.1283 12.9143 20.027 12.7388L13.2104 0.959262C13.1025 0.773145 12.9027 0.665283 12.7006 0.665283H7.40463C7.19746 0.665283 7.00126 0.775933 6.89512 0.958869C6.89504 0.959026 6.89493 0.959144 6.89485 0.959262C6.89477 0.959379 6.89453 0.959772 6.89445 0.95989C6.89438 0.960008 6.89434 0.960165 6.89426 0.960283L0.0782127 12.7388C-0.0251333 12.9179 -0.0241516 13.1398 0.0698492 13.3139L2.61655 18.0244C2.71943 18.2154 2.92015 18.3346 3.13536 18.3346C3.13536 18.3346 16.968 18.3347 16.9693 18.3347C17.1825 18.3347 17.3837 18.2189 17.4887 18.0244ZM4.15551 17.1567L6.19581 13.6228H18.5293L16.6187 17.1567H4.15551ZM7.40427 2.43076L9.35175 5.80062L3.15225 16.5384L1.2628 13.0436L7.40427 2.43076ZM10.032 6.9783L13.1891 12.4448H6.87588L10.032 6.9783ZM12.361 1.84324L18.4959 12.4448H14.5493L10.543 5.50766C10.543 5.50763 10.5429 5.50759 10.5429 5.50759L8.42525 1.84324H12.361Z" fill="#6D4DF2"/>
</svg>
