<svg width="21" height="19" viewBox="0 0 21 19" fill="none" xmlns="http://www.w3.org/2000/svg">
<path d="M16.8374 7.26733L21 4.21474L15.0805 0.656006L10.87 3.46304L6.65939 0.656047L0 4.17952L4.21675 7.42796L0.704711 10.6627L4.15774 12.6785V14.0805C4.15774 14.1862 4.22823 14.2919 4.33393 14.3624L10.2123 18.2006C10.2417 18.2428 10.2794 18.279 10.3239 18.3087C10.3944 18.3439 10.4296 18.3439 10.5001 18.3439C10.543 18.3439 10.5729 18.3438 10.6056 18.3199C10.6345 18.3069 10.6594 18.2902 10.6762 18.2735L16.6662 14.3976C16.7719 14.3624 16.8423 14.2214 16.8423 14.1157V12.4407L20.2954 10.2399L16.8374 7.26733ZM10.4876 10.5188L5.47269 7.42631L10.8441 4.29299L15.5432 7.26081L10.4876 10.5188ZM13.953 13.4463L11.099 10.9799L16.208 7.70304L19.0973 10.2047L13.953 13.4463ZM15.0805 1.50168L19.7315 4.28523L16.2905 6.7972L16.2785 6.78692L16.1883 6.84501L11.5036 3.90828L11.5218 3.89763L11.5042 3.8859L15.0805 1.50168ZM6.58891 1.50168L10.1829 3.89767L4.79193 6.99832L1.26846 4.32045L6.58891 1.50168ZM4.82719 7.84396L9.89965 10.9574L7.11747 13.552L4.68627 12.1426C4.66777 12.1303 4.64795 12.1209 4.62763 12.1129L1.90268 10.5218L4.82719 7.84396ZM4.86241 13.0939L6.97651 14.3272C7.00301 14.347 7.03076 14.3619 7.05905 14.3723L7.22318 14.4681L8.29001 13.4698L10.1477 11.755V17.3573L4.86245 13.9043L4.86241 13.0939ZM14.0939 14.2215L16.1375 12.9178V13.9396L10.8523 17.3574V11.7198L13.6711 14.1862C13.7087 14.2238 13.7554 14.2478 13.8061 14.2602L13.8825 14.3271L13.9895 14.259C14.0254 14.2507 14.0607 14.2381 14.0939 14.2215Z" fill="#6D4DF2"/>
</svg>
