<svg width="67" height="74" viewBox="0 0 67 74" fill="none" xmlns="http://www.w3.org/2000/svg">
<path d="M16.8321 20.8481C16.9738 21.2817 17.4395 21.5195 17.8747 21.3795C18.2222 21.2665 30.6132 20.9443 35.4464 20.5968C39.4783 20.9325 48.8546 21.2479 49.1886 21.3694C49.6171 21.5246 50.0912 21.3036 50.2464 20.8751C50.3172 20.6811 50.4336 20.4618 50.5517 20.2391C50.7491 19.8663 50.9515 19.4867 51.0663 19.0532C51.8895 15.8968 51.9958 12.2613 50.329 8.93458C49.0166 6.31806 46.6227 3.92084 42.6397 2.14444C42.6262 2.13769 42.6127 2.13095 42.5992 2.1242V2.12588L42.5959 2.1242L42.5942 2.12757C40.6086 1.24527 38.5167 0.663262 36.3877 0.383222C34.2368 0.0998071 32.0505 0.123425 29.9013 0.454076C26.8259 0.926433 23.2157 1.98924 20.5756 4.31897C18.595 6.06501 17.1763 8.49934 16.9435 11.8851C16.6449 12.5296 16.132 14.0647 16.1 16.0874C16.0747 17.4539 16.2518 19.0751 16.8321 20.8481Z" fill="#8F6E4E"/>
<path d="M20.4079 28.2489H17.2667C16.6459 28.2489 16.0841 27.9958 15.6742 27.5876C15.2659 27.1793 15.0129 26.6159 15.0112 25.9917H15.0078V22.0205C15.0078 21.3963 15.2609 20.8329 15.6691 20.4246C16.0774 20.0164 16.6425 19.7633 17.265 19.7633H20.4062C20.8634 19.7633 21.2345 20.1344 21.2345 20.5916V27.4206C21.2362 27.8794 20.865 28.2489 20.4079 28.2489Z" fill="#3B566A"/>
<path d="M49.8191 28.2489H46.6779C46.2207 28.2489 45.8496 27.8777 45.8496 27.4206V20.5916C45.8496 20.1344 46.2207 19.7633 46.6779 19.7633H49.8191C50.4416 19.7633 51.0067 20.0164 51.415 20.4246C51.8233 20.8329 52.0763 21.398 52.0763 22.0205V25.9917H52.0729C52.0712 26.6159 51.8182 27.1793 51.4099 27.5876C51.0017 27.9975 50.4382 28.2489 49.8191 28.2489Z" fill="#3B566A"/>
<path d="M25.3036 44.1742C25.113 44.0173 24.8532 43.9465 24.5934 44.0055L16.7658 45.8106C12.0658 46.8954 8.05246 49.5288 5.21325 53.0967C2.37405 56.6664 0.708984 61.169 0.708984 65.9904V70.6853C0.708984 71.3416 0.975529 71.9371 1.40571 72.3672C1.83589 72.7974 2.4314 73.064 3.08764 73.064H63.9982C64.6544 73.064 65.2499 72.7974 65.6801 72.3672C66.1103 71.9371 66.3768 71.3416 66.3768 70.6853V65.9904C66.3768 61.169 64.7118 56.6664 61.8726 53.0967C59.0334 49.5288 55.02 46.8954 50.32 45.8123L42.4924 44.0072C42.3709 43.9802 42.2512 43.9802 42.1364 44.0039L42.1196 44.0072L42.1128 44.0089L42.1027 44.0123L42.0943 44.014L42.0841 44.0173L42.074 44.0207L42.0656 44.0224L42.0521 44.0275L42.047 44.0292L42.0318 44.0342L42.0285 44.0359L42.0116 44.0427H42.0099L41.993 44.0494L41.9914 44.0511L41.9745 44.0578H41.9728L41.9576 44.0646L41.9542 44.0663L41.9391 44.073L41.9374 44.0747L41.9222 44.0815L41.9171 44.0848L41.9036 44.0916L41.9003 44.0933L41.8885 44.1L41.8868 44.1017L41.8733 44.1101L41.8716 44.1118C41.8513 44.1236 41.8328 44.1371 41.8142 44.1506L33.5429 50.2289L25.3036 44.1742Z" fill="#5C9CEE"/>
<path d="M28.9766 73.0639H38.0863L36.3032 57.5587L37.8788 54.2489C38.0728 53.8355 37.8974 53.3429 37.4841 53.1489C32.0654 50.5931 34.4475 50.8394 29.5923 53.1506C29.179 53.3463 29.0036 53.8406 29.2009 54.2539L30.7749 57.5621L28.9766 73.0639Z" fill="#EF5350"/>
<path d="M36.3044 57.5604V57.557L37.8801 54.2472C38.0741 53.8338 37.8986 53.3412 37.4853 53.1472C32.0667 50.5914 34.4487 50.8377 29.5936 53.1489C29.1802 53.3446 29.0048 53.8389 29.2022 54.2522L30.7761 57.5604H36.3044Z" fill="#F27472"/>
<path d="M56.1172 73.0639H57.7738V65.5012C57.7738 65.044 57.4027 64.6729 56.9455 64.6729C56.4883 64.6729 56.1172 65.044 56.1172 65.5012V73.0639Z" fill="#5192E8"/>
<path d="M9.96289 73.0639H11.6195V65.5012C11.6195 65.044 11.2484 64.6729 10.7912 64.6729C10.334 64.6729 9.96289 65.044 9.96289 65.5012V73.0639Z" fill="#5192E8"/>
<path d="M50.972 45.974C50.7561 45.9167 50.5401 45.8627 50.3208 45.8121L42.4932 44.007C42.3717 43.98 42.2519 43.98 42.1372 44.0036L42.1204 44.007L42.1136 44.0087L42.1035 44.0121L42.0951 44.0138L42.0849 44.0171L42.0748 44.0205L42.0664 44.0222L42.0529 44.0273L42.0478 44.0289L42.0326 44.034L42.0293 44.0357L42.0124 44.0424H42.0107L41.9938 44.0492L41.9921 44.0509L41.9753 44.0576H41.9736L41.9601 44.0644L33.0696 50.5778C33.0308 50.6048 32.9937 50.6352 32.96 50.6706C32.8993 50.7314 32.8503 50.7988 32.8115 50.8731L32.8098 50.8764L32.8031 50.8899L32.7997 50.8967L32.7947 50.9068L32.7896 50.9186L32.7879 50.922C32.7441 51.0198 32.7221 51.1244 32.7188 51.229V51.2459V51.2476V51.2628V51.2645V51.2813C32.7221 51.3859 32.7457 51.4888 32.7879 51.5884L32.7896 51.5917L32.7947 51.6035L32.7997 51.6137L32.8031 51.6204L32.8098 51.6339L32.8115 51.6373C32.8503 51.7098 32.8993 51.779 32.96 51.8397C32.9937 51.8735 33.0308 51.9055 33.0696 51.9325L36.3947 54.377L38.608 56.0049C38.6182 56.0133 38.6283 56.0218 38.6384 56.0285L38.6401 56.0268L38.6553 56.0386C38.9741 56.2765 39.352 56.3828 39.7231 56.3609C40.1027 56.3389 40.4755 56.1837 40.7657 55.9037L50.972 45.974Z" fill="#7BAFF2"/>
<path d="M25.1218 44.0595C24.9616 43.9869 24.7777 43.9633 24.5938 44.0055L16.7661 45.8106C16.5468 45.8612 16.3292 45.9152 16.1133 45.9725L26.3246 55.9005C26.6148 56.1822 26.9859 56.3357 27.3672 56.3576C27.7367 56.3796 28.1162 56.2733 28.4351 56.0354L28.4503 56.0236L28.4519 56.0253C28.4621 56.0169 28.4722 56.0101 28.4823 56.0017L30.6956 54.3737L34.0207 51.9293C34.0595 51.9023 34.0966 51.8719 34.1304 51.8365C34.1911 51.7758 34.24 51.7083 34.2788 51.6341L34.2805 51.6307L34.2872 51.6172L34.2906 51.6105L34.2957 51.6003L34.3007 51.5885L34.3024 51.5851C34.3463 51.4873 34.3682 51.3827 34.3716 51.2781V51.2612V51.2596V51.2444V51.2427V51.2258C34.3682 51.1212 34.3446 51.0183 34.3024 50.9188L34.3007 50.9154L34.2957 50.9036L34.2906 50.8935L34.2872 50.8867L34.2805 50.8732L34.2788 50.8699C34.24 50.7973 34.1911 50.7282 34.1304 50.6674C34.0966 50.6337 34.0595 50.6016 34.0207 50.5746L25.1218 44.0595Z" fill="#7BAFF2"/>
<path d="M24.7775 37.4297C24.3204 37.4297 23.9492 37.8008 23.9492 38.258V38.2597V38.2614V44.1557L33.0404 51.9125C33.0792 51.9412 33.118 51.9665 33.1602 51.9884L33.1636 51.9901L33.1771 51.9969L33.1838 52.0002L33.1939 52.0053L33.2057 52.0104L33.2091 52.012C33.307 52.0559 33.4116 52.0778 33.5162 52.0812H33.533H33.5347H33.5499H33.5516H33.5684C33.673 52.0778 33.7759 52.0542 33.8755 52.012L33.8789 52.0104L33.8907 52.0053L33.9008 52.0002L33.9075 51.9969L33.921 51.9901L33.9244 51.9884C33.9666 51.9665 34.0054 51.9412 34.0442 51.9125L43.1354 44.1574V38.2631V38.2614V38.2597C43.1354 37.8025 42.7642 37.4314 42.3071 37.4314C37.1516 37.4314 28.8803 37.4297 24.7775 37.4297Z" fill="#FACBBF"/>
<path d="M24.7775 37.4297C24.3204 37.4297 23.9492 37.8008 23.9492 38.258V38.2597V38.2614V40.2756C26.6501 42.4755 30.0207 43.6834 33.5431 43.6834C37.0656 43.6834 40.4362 42.4755 43.1371 40.2756V38.2631V38.2614V38.2597C43.1371 37.8025 42.7659 37.4314 42.3088 37.4314C37.1516 37.4314 28.8803 37.4297 24.7775 37.4297Z" fill="#FBB7AC"/>
<path d="M47.5065 17.4995V28.4784C47.5065 32.3349 45.9427 35.8253 43.4173 38.3524C40.8902 40.8795 37.3998 42.4417 33.5433 42.4417C29.6868 42.4417 26.1965 40.8778 23.6693 38.3524C21.1422 35.8253 19.5801 32.3349 19.5801 28.4784V17.4995C19.5801 17.2853 19.6155 17.071 19.6813 16.8652C19.8196 16.4333 20.0879 16.0689 20.4354 15.8159C20.7863 15.5595 21.2131 15.411 21.6635 15.411C21.8643 15.411 22.0768 15.4431 22.2961 15.5139C23.8262 15.9998 25.6195 16.3895 27.5579 16.6577C29.4507 16.9192 31.4835 17.0626 33.5467 17.0626C35.6082 17.0626 37.641 16.9192 39.5338 16.6577C41.4705 16.3895 43.2638 15.9998 44.7922 15.5139C45.0115 15.4448 45.2224 15.411 45.4248 15.411C45.8752 15.411 46.302 15.5595 46.6529 15.8159C46.9988 16.0689 47.2687 16.4333 47.407 16.8652C47.4711 17.071 47.5065 17.2853 47.5065 17.4995Z" fill="#FACBBF"/>
<path d="M51.0941 27.3498C51.0941 26.8926 50.723 26.5215 50.2658 26.5215C49.8086 26.5215 49.4375 26.8926 49.4375 27.3498V31.5032C49.4375 31.741 49.3413 31.9553 49.1844 32.1122C49.0292 32.2674 48.8133 32.3652 48.5754 32.3652V32.3686H45.8037V32.3652H40.2248C39.7676 32.3652 39.3965 32.7364 39.3965 33.1935C39.3965 33.6507 39.7676 34.0218 40.2248 34.0218H45.8037V34.0185H48.5754V34.0218C49.2704 34.0218 49.8997 33.7401 50.3552 33.2846C50.8107 32.8291 51.0924 32.1999 51.0924 31.5049V27.3498H51.0941Z" fill="#3B566A"/>
<path d="M38.4253 35.8202H34.363C33.6376 35.8202 32.9813 35.5267 32.5056 35.0509C32.0299 34.5752 31.7363 33.9189 31.7363 33.1935C31.7363 32.4681 32.0299 31.8119 32.5056 31.3362C32.9813 30.8604 33.6376 30.5669 34.363 30.5669H38.4253C39.1507 30.5669 39.8069 30.8604 40.2826 31.3362C40.7584 31.8119 41.0519 32.4681 41.0519 33.1935V33.1969C41.0519 33.9189 40.7567 34.5752 40.2793 35.0509C39.8069 35.5233 39.1523 35.8151 38.4269 35.8168V35.8202H38.4253Z" fill="#304556"/>
</svg>
